M48
;Layer_Color=9474304
;FILE_FORMAT=2:4
INCH,TZ
;TYPE=PLATED
T01F00S00C0.0118
%
T01
X-5079Y-9390
X-4626Y-8248
X-4882Y-7874
X-5144Y-7624
X-5079Y-7047
X-4626Y-6811
Y-6437
X-4252
X-4626Y-5531
Y-4626
X-2264
X-1358
X-453
X-433Y-5079
X433
X453Y-4626
X1358
X2264
Y-5531
Y-6437
X2638
X2264Y-6811
X1811Y-7047
X1299Y-6929
X1073Y-6762
X276Y-6890
X0
Y-7126
Y-7362
Y-6654
Y-6378
X-276Y-6890
X-610Y-7835
X-1260Y-7815
X-1358Y-8248
Y-8701
X-906Y-8337
X-453Y-8701
Y-9154
X-906Y-9390
X-1811Y-9400
X-2264Y-9154
X-2638Y-8248
X-2598Y-7835
X-2264Y-6811
Y-6437
X-2638
X-1811Y-6585
Y-7047
X-2264Y-5531
Y-2264
X-1811Y-2510
X-906Y-2500
X-453Y-2264
Y-1811
X-906Y-1447
X-1358Y-1358
Y-1811
X0Y-1447
X453Y-2264
X906Y-2500
X1811
X1358Y-1358
X2264
X4252
X4626Y-2264
X5079Y-2510
X5984Y-2500
X6437Y-2264
Y-1811
X5984Y-1447
X5531Y-1358
Y-1811
X6890Y-1447
X7343Y-2264
X7795Y-2500
X8701
X8248Y-1358
X9154
Y-4626
X8248
X7343
X7323Y-5079
X6457
X6437Y-4626
X5531
X4626
Y-5531
Y-6437
X4252
X4626Y-6811
X5079Y-6585
Y-7047
X5630Y-7815
X5531Y-8248
Y-8701
X5984Y-8337
X6280Y-7835
X6437Y-8701
Y-9154
X5984Y-9390
X5079Y-9400
X4626Y-9154
X4252Y-8248
X4291Y-7835
X2598Y-7835
X2008Y-7874
X1746Y-7624
X1358Y-8248
X2264
X1811Y-9390
X906
X453Y-9154
X0Y-8337
X-4291Y-7835
X-5079Y-2500
X-4626Y-1358
X-2638Y-1358
X6890Y-6378
Y-6654
Y-6890
Y-7126
Y-7362
X6614Y-6890
X7165
X7963Y-6762
X8189Y-6929
X8701Y-7047
X8636Y-7624
X8898Y-7874
X9488Y-7835
X9154Y-8248
X8248
X6890Y-8337
X7343Y-9154
X7795Y-9390
X8701
X9154Y-6811
Y-6437
X9528
X9154Y-5531
X-5531Y-4626
X-6437
X-6457Y-5079
X-7323
X-7343Y-4626
X-8248
X-9154
Y-5531
Y-6437
X-9528
X-9154Y-6811
X-8701Y-6585
Y-7047
X-8150Y-7815
X-8248Y-8248
Y-8701
X-7795Y-8337
X-7500Y-7835
X-7343Y-8701
Y-9154
X-7795Y-9390
X-8701Y-9400
X-9154Y-9154
X-9528Y-8248
X-9488Y-7835
X-6890Y-7362
Y-7126
Y-6890
Y-6654
Y-6378
X-7165Y-6890
X-6614
X-5817Y-6762
X-5591Y-6929
X-5531Y-8248
X-6890Y-8337
X-6437Y-9154
X-5984Y-9390
Y-2500
X-6437Y-2264
X-7343
Y-1811
X-7795Y-1447
X-8248Y-1358
Y-1811
X-7795Y-2500
X-8701Y-2510
X-9154Y-2264
X-9528Y-1358
X-6890Y-1447
X-5531Y-1358
X-5591Y-39
X-5817Y128
X-6614Y0
X-6890
Y-236
Y-472
Y236
Y512
X-7165Y0
X-7500Y-945
X-8150Y-925
X-8701Y-157
Y305
X-9154Y453
X-9528
X-9154Y79
Y1358
Y2264
X-8248
X-7343
X-7323Y1811
X-6457
X-6437Y2264
X-5531
X-5984Y4390
X-6437Y4626
X-7343
Y5079
X-7795Y5443
X-8248Y5531
Y5079
X-8150Y5965
X-7500Y5945
X-6890Y6417
Y6654
Y6890
Y7126
Y7402
X-7165Y6890
X-6614
X-5817Y7018
X-5591Y6850
X-5531Y5531
X-6890Y5443
X-7795Y4390
X-8701Y4380
X-9154Y4626
X-9528Y5531
X-9488Y5945
X-9154Y6969
Y7343
X-9528
X-8701Y7195
Y6732
X-9154Y8248
Y9154
X-8248
X-7343
X-7323Y8701
X-6457
X-6437Y9154
X-5531
X-9488Y-945
X-5144Y-734
X-4882Y-984
X-4291Y-945
X-4626Y79
Y453
X-4252
X-4626Y1358
Y2264
X-2264Y2264
X-1358
X-453
X-433Y1811
X433
X453Y2264
X1358
X2264
Y1358
Y453
X2638
X2264Y79
X1811Y-157
X1299Y-39
X1073Y128
X276Y0
X0
Y-236
Y-472
Y236
Y512
X-276Y0
X-610Y-945
X-1260Y-925
X-1811Y-157
Y305
X-2264Y453
X-2638
X-2264Y79
Y1358
X-2598Y-945
X-5079Y-157
Y4390
X-4626Y5531
X-4882Y5906
X-5144Y6155
X-5079Y6732
X-4626Y6969
Y7343
X-4252
X-4626Y8248
Y9154
X-2264
X-1358
X-453
X-433Y8701
X433
X453Y9154
X1358
X2264
Y8248
Y7343
X2638
X2264Y6969
X1811Y6732
X1299Y6850
X1073Y7018
X276Y6890
X0
Y6654
Y6417
Y7126
Y7402
X-276Y6890
X-610Y5945
X-1260Y5965
X-1358Y5531
Y5079
X-906Y5443
X-453Y5079
Y4626
X-906Y4390
X-1811Y4380
X-2264Y4626
X-2638Y5531
X-2598Y5945
X-2264Y6969
Y7343
X-2638
X-1811Y7195
Y6732
X-2264Y8248
X-4291Y5945
X0Y5443
X453Y4626
X906Y4390
X1811
X1358Y5531
X2264
X2008Y5906
X1746Y6155
X2598Y5945
X4291Y5945
X4252Y5531
X4626Y4626
X5079Y4380
X5984Y4390
X6437Y4626
Y5079
X5984Y5443
X5531Y5531
Y5079
X5630Y5965
X6280Y5945
X6890Y6417
Y6654
Y6890
Y7126
Y7402
X6614Y6890
X7165
X7963Y7018
X8189Y6850
X8701Y6732
X8636Y6155
X8898Y5906
X9488Y5945
X9154Y5531
X8248
X6890Y5443
X7343Y4626
X7795Y4390
X8701
X8248Y2264
X9154
Y1358
Y453
X9528
X9154Y79
X8701Y-157
X8189Y-39
X7963Y128
X7165Y0
X6890
Y-236
Y-472
Y236
Y512
X6614Y0
X6280Y-945
X5630Y-925
X5079Y-157
Y305
X4626Y453
X4252
X4626Y79
Y1358
Y2264
X5531
X6437
X6457Y1811
X7323
X7343Y2264
X8636Y-734
X8898Y-984
X9488Y-945
X4291Y-945
X2598Y-945
X2008Y-984
X1746Y-734
X4626Y6969
Y7343
X4252
X5079Y7195
Y6732
X4626Y8248
Y9154
X5531
X6437
X6457Y8701
X7323
X7343Y9154
X8248
X9154
Y8248
Y7343
X9528
X9154Y6969
M30
