G04*
G04 #@! TF.GenerationSoftware,Altium Limited,Altium Designer,23.9.2 (47)*
G04*
G04 Layer_Color=8388736*
%FSLAX25Y25*%
%MOIN*%
G70*
G04*
G04 #@! TF.SameCoordinates,B9D28BA6-00D3-483F-BACE-1505689BD4AF*
G04*
G04*
G04 #@! TF.FilePolarity,Positive*
G04*
G01*
G75*
%ADD12C,0.00394*%
D12*
X216535Y86614D02*
X216500Y87597D01*
X216395Y88575D01*
X216220Y89543D01*
X215977Y90496D01*
X215667Y91430D01*
X215290Y92338D01*
X214850Y93218D01*
X214348Y94064D01*
X213787Y94872D01*
X213170Y95638D01*
X212499Y96358D01*
X211780Y97028D01*
X211014Y97645D01*
X210206Y98206D01*
X209360Y98708D01*
X208480Y99148D01*
X207571Y99525D01*
X206638Y99835D01*
X205685Y100079D01*
X204717Y100253D01*
X203739Y100359D01*
X202756Y100394D01*
Y-100394D02*
X203739Y-100359D01*
X204717Y-100253D01*
X205685Y-100079D01*
X206638Y-99835D01*
X207571Y-99525D01*
X208480Y-99148D01*
X209360Y-98708D01*
X210206Y-98206D01*
X211014Y-97645D01*
X211780Y-97028D01*
X212499Y-96358D01*
X213170Y-95638D01*
X213787Y-94872D01*
X214348Y-94064D01*
X214850Y-93218D01*
X215290Y-92338D01*
X215667Y-91430D01*
X215977Y-90496D01*
X216220Y-89543D01*
X216395Y-88575D01*
X216500Y-87597D01*
X216535Y-86614D01*
X-31496Y-86614D02*
X-31461Y-87597D01*
X-31356Y-88575D01*
X-31181Y-89543D01*
X-30938Y-90496D01*
X-30627Y-91430D01*
X-30251Y-92338D01*
X-29811Y-93218D01*
X-29309Y-94064D01*
X-28748Y-94872D01*
X-28130Y-95638D01*
X-27460Y-96358D01*
X-26740Y-97028D01*
X-25974Y-97645D01*
X-25166Y-98206D01*
X-24320Y-98708D01*
X-23441Y-99148D01*
X-22532Y-99525D01*
X-21599Y-99835D01*
X-20646Y-100079D01*
X-19678Y-100253D01*
X-18699Y-100359D01*
X-17717Y-100394D01*
Y100394D02*
X-18699Y100359D01*
X-19678Y100253D01*
X-20646Y100079D01*
X-21599Y99835D01*
X-22532Y99525D01*
X-23441Y99148D01*
X-24320Y98708D01*
X-25166Y98206D01*
X-25974Y97645D01*
X-26740Y97028D01*
X-27460Y96358D01*
X-28130Y95638D01*
X-28748Y94872D01*
X-29309Y94064D01*
X-29811Y93218D01*
X-30251Y92338D01*
X-30627Y91430D01*
X-30938Y90496D01*
X-31181Y89543D01*
X-31356Y88575D01*
X-31461Y87597D01*
X-31496Y86614D01*
X68898Y100394D02*
X202756Y100394D01*
X68898Y-100394D02*
X202756Y-100394D01*
X-17717Y100394D02*
X68898D01*
X-17717Y-100394D02*
X68898D01*
X-31496Y-86614D02*
Y86614D01*
X216535Y-86614D02*
X216535Y86614D01*
M02*
