G04*
G04 #@! TF.GenerationSoftware,Altium Limited,Altium Designer,23.9.2 (47)*
G04*
G04 Layer_Color=8388736*
%FSLAX25Y25*%
%MOIN*%
G70*
G04*
G04 #@! TF.SameCoordinates,E30DC50E-2E90-4FCC-99EB-6CEF48135232*
G04*
G04*
G04 #@! TF.FilePolarity,Negative*
G04*
G01*
G75*
%ADD16C,0.04724*%
%ADD17R,0.02362X0.05709*%
%ADD18R,0.09055X0.09055*%
%ADD19R,0.01575X0.03347*%
%ADD20R,0.01772X0.05709*%
%ADD21R,0.03740X0.03347*%
%ADD22R,0.02362X0.02165*%
%ADD23R,0.04134X0.03937*%
%ADD24R,0.03937X0.07874*%
%ADD25R,0.02402X0.15354*%
%ADD26R,0.02362X0.03937*%
%ADD27R,0.03937X0.04134*%
%ADD28R,0.05118X0.05709*%
%ADD29R,0.05118X0.07087*%
%ADD30C,0.24422*%
%ADD31C,0.15748*%
D16*
X-4528Y58071D02*
D03*
X4528D02*
D03*
X22638D02*
D03*
X13583D02*
D03*
X-13583D02*
D03*
X-22638D02*
D03*
X22638Y67126D02*
D03*
X13583D02*
D03*
X4528D02*
D03*
X-4528D02*
D03*
X-13583D02*
D03*
X-22638D02*
D03*
X22638Y76181D02*
D03*
X13583D02*
D03*
X4528D02*
D03*
X-4528D02*
D03*
X-13583D02*
D03*
X-22638D02*
D03*
X22638Y85236D02*
D03*
X13583D02*
D03*
X4528D02*
D03*
X-4528D02*
D03*
X-13583D02*
D03*
X-22638D02*
D03*
X22638Y94291D02*
D03*
X13583D02*
D03*
X4528D02*
D03*
X-4528D02*
D03*
X-13583D02*
D03*
X-22638D02*
D03*
X22638Y103347D02*
D03*
X13583D02*
D03*
X4528D02*
D03*
X-4528D02*
D03*
X-13583D02*
D03*
X-22638D02*
D03*
D17*
X69508Y10728D02*
D03*
X64508D02*
D03*
X59508D02*
D03*
X54508D02*
D03*
X69508Y-10728D02*
D03*
X64508D02*
D03*
X59508D02*
D03*
X54508D02*
D03*
D18*
X62008Y0D02*
D03*
D19*
X-18701Y-4331D02*
D03*
X-16142D02*
D03*
X-13583D02*
D03*
Y4331D02*
D03*
X-18701D02*
D03*
D20*
X-50492Y11516D02*
D03*
X-53051D02*
D03*
X-55610D02*
D03*
X-58169D02*
D03*
X-60728D02*
D03*
X-63287D02*
D03*
X-65847D02*
D03*
X-68405D02*
D03*
X-70965D02*
D03*
X-73524D02*
D03*
X-50492Y-11516D02*
D03*
X-53051D02*
D03*
X-55610D02*
D03*
X-58169D02*
D03*
X-60728D02*
D03*
X-63287D02*
D03*
X-65847D02*
D03*
X-68405D02*
D03*
X-70965D02*
D03*
X-73524D02*
D03*
D21*
X-33465Y-4232D02*
D03*
Y1870D02*
D03*
X-4921Y-4035D02*
D03*
Y2067D02*
D03*
X11811Y122539D02*
D03*
Y128642D02*
D03*
X3937Y122539D02*
D03*
Y128642D02*
D03*
X-3937Y122539D02*
D03*
Y128642D02*
D03*
X-11811Y122539D02*
D03*
Y128642D02*
D03*
D22*
X74803Y-67815D02*
D03*
Y-64075D02*
D03*
X19685D02*
D03*
Y-67815D02*
D03*
X-19685D02*
D03*
Y-64075D02*
D03*
X-74803D02*
D03*
Y-67815D02*
D03*
D23*
X51181Y54134D02*
D03*
X57087D02*
D03*
X-69882Y65945D02*
D03*
X-75787D02*
D03*
X69882D02*
D03*
X75787D02*
D03*
X57087Y60039D02*
D03*
X51181D02*
D03*
X57087Y65945D02*
D03*
X51181D02*
D03*
X57087Y71850D02*
D03*
X51181D02*
D03*
X-75787Y83661D02*
D03*
X-69882D02*
D03*
X-75787Y77756D02*
D03*
X-69882D02*
D03*
X-75787Y71850D02*
D03*
X-69882D02*
D03*
X75787D02*
D03*
X69882D02*
D03*
X75787Y77756D02*
D03*
X69882D02*
D03*
X75787Y83661D02*
D03*
X69882D02*
D03*
X57087Y77756D02*
D03*
X51181D02*
D03*
X57087Y83661D02*
D03*
X51181D02*
D03*
X-57087D02*
D03*
X-51181D02*
D03*
X-57087Y77756D02*
D03*
X-51181D02*
D03*
X75787Y93504D02*
D03*
X69882D02*
D03*
X75787Y99410D02*
D03*
X69882D02*
D03*
X-75787Y93504D02*
D03*
X-69882D02*
D03*
X-75787Y99409D02*
D03*
X-69882D02*
D03*
X2953Y151969D02*
D03*
X-2953D02*
D03*
D24*
X-11811Y150000D02*
D03*
X11811D02*
D03*
D25*
X69764Y-83189D02*
D03*
X24724D02*
D03*
X15669D02*
D03*
X78819D02*
D03*
X33189Y-81929D02*
D03*
X37205D02*
D03*
X41221D02*
D03*
X45236D02*
D03*
X49252D02*
D03*
X53268D02*
D03*
X57284D02*
D03*
X61299D02*
D03*
X-24724Y-83189D02*
D03*
X-69764D02*
D03*
X-78819D02*
D03*
X-15669D02*
D03*
X-61299Y-81929D02*
D03*
X-57284D02*
D03*
X-53268D02*
D03*
X-49252D02*
D03*
X-45236D02*
D03*
X-41221D02*
D03*
X-37205D02*
D03*
X-33189D02*
D03*
D26*
X49409Y93701D02*
D03*
X56890D02*
D03*
X53150Y103150D02*
D03*
X-56890Y93701D02*
D03*
X-49409D02*
D03*
X-53150Y103150D02*
D03*
D27*
X83661Y3937D02*
D03*
Y9843D02*
D03*
X46260Y-2953D02*
D03*
Y-8858D02*
D03*
X77756Y3937D02*
D03*
Y9843D02*
D03*
X46260Y3937D02*
D03*
Y9843D02*
D03*
X77756Y-2953D02*
D03*
Y-8858D02*
D03*
X-27559Y-3937D02*
D03*
Y1969D02*
D03*
X-72835Y26575D02*
D03*
Y20669D02*
D03*
D28*
X3150Y145669D02*
D03*
X-3150D02*
D03*
D29*
X5512Y137795D02*
D03*
X-5512D02*
D03*
D30*
X0Y-58268D02*
D03*
X80709Y139764D02*
D03*
X-80709D02*
D03*
D31*
X16417Y-121024D02*
D03*
X78071D02*
D03*
X-78071D02*
D03*
X-16417D02*
D03*
M02*
