G04*
G04 #@! TF.GenerationSoftware,Altium Limited,Altium Designer,23.9.2 (47)*
G04*
G04 Layer_Physical_Order=4*
G04 Layer_Color=16711680*
%FSLAX25Y25*%
%MOIN*%
G70*
G04*
G04 #@! TF.SameCoordinates,E30DC50E-2E90-4FCC-99EB-6CEF48135232*
G04*
G04*
G04 #@! TF.FilePolarity,Positive*
G04*
G01*
G75*
%ADD12C,0.00787*%
%ADD31C,0.15748*%
%ADD38C,0.23622*%
%ADD39C,0.02362*%
%ADD40C,0.01968*%
D12*
X71457Y39370D02*
X71262Y40349D01*
X70707Y41180D01*
X69877Y41734D01*
X68898Y41929D01*
X67918Y41734D01*
X67088Y41180D01*
X66533Y40349D01*
X66339Y39370D01*
X66533Y38391D01*
X67088Y37561D01*
X67918Y37006D01*
X68898Y36811D01*
X69877Y37006D01*
X70707Y37561D01*
X71262Y38391D01*
X71457Y39370D01*
X92126Y9843D02*
X91931Y10822D01*
X91376Y11652D01*
X90546Y12207D01*
X89567Y12402D01*
X88588Y12207D01*
X87757Y11652D01*
X87203Y10822D01*
X87008Y9843D01*
X87203Y8863D01*
X87757Y8033D01*
X88588Y7478D01*
X89567Y7283D01*
X90546Y7478D01*
X91376Y8033D01*
X91931Y8863D01*
X92126Y9843D01*
X42421Y94291D02*
X42226Y95271D01*
X41672Y96101D01*
X40841Y96656D01*
X39862Y96850D01*
X38883Y96656D01*
X38053Y96101D01*
X37498Y95271D01*
X37303Y94291D01*
X37498Y93312D01*
X38053Y92482D01*
X38883Y91927D01*
X39862Y91732D01*
X40841Y91927D01*
X41672Y92482D01*
X42226Y93312D01*
X42421Y94291D01*
X45866Y83661D02*
X45679Y84622D01*
X45145Y85442D01*
X44342Y86002D01*
X43387Y86219D01*
X42421Y86062D01*
X41585Y85554D01*
X38140Y85554D02*
X37303Y86062D01*
X36337Y86219D01*
X35383Y86002D01*
X34580Y85442D01*
X34045Y84622D01*
X33858Y83661D01*
X34045Y82701D01*
X34580Y81880D01*
X35383Y81321D01*
X36337Y81104D01*
X37303Y81261D01*
X38140Y81769D01*
X-37303Y98425D02*
X-37498Y99405D01*
X-38053Y100235D01*
X-38883Y100789D01*
X-39862Y100984D01*
X-40841Y100789D01*
X-41672Y100235D01*
X-42226Y99405D01*
X-42421Y98425D01*
X-42226Y97446D01*
X-41672Y96616D01*
X-40841Y96061D01*
X-39862Y95866D01*
X-38883Y96061D01*
X-38053Y96616D01*
X-37498Y97446D01*
X-37303Y98425D01*
X-33858Y83661D02*
X-34045Y84622D01*
X-34580Y85442D01*
X-35383Y86002D01*
X-36337Y86219D01*
X-37303Y86062D01*
X-38140Y85554D01*
X-41585Y85554D02*
X-42421Y86062D01*
X-43387Y86219D01*
X-44342Y86002D01*
X-45145Y85442D01*
X-45679Y84622D01*
X-45866Y83661D01*
X-45679Y82701D01*
X-45145Y81880D01*
X-44342Y81321D01*
X-43387Y81104D01*
X-42421Y81261D01*
X-41585Y81769D01*
X41585D02*
X42421Y81261D01*
X43387Y81104D01*
X44342Y81321D01*
X45145Y81880D01*
X45679Y82701D01*
X45866Y83661D01*
X38140Y81769D02*
X38939Y81275D01*
X39862Y81102D01*
X40786Y81275D01*
X41585Y81769D01*
X41585Y79649D02*
X40786Y80142D01*
X39862Y80315D01*
X38939Y80142D01*
X38140Y79649D01*
X41585Y85554D02*
X40786Y86048D01*
X39862Y86221D01*
X38939Y86048D01*
X38140Y85554D01*
X45866Y77756D02*
X45679Y78717D01*
X45145Y79537D01*
X44342Y80097D01*
X43387Y80314D01*
X42421Y80157D01*
X41585Y79649D01*
X41585Y75863D02*
X42421Y75355D01*
X43387Y75198D01*
X44342Y75415D01*
X45145Y75975D01*
X45679Y76795D01*
X45866Y77756D01*
X38140Y75863D02*
X38939Y75369D01*
X39862Y75197D01*
X40786Y75369D01*
X41585Y75863D01*
X62598Y39370D02*
X62404Y40349D01*
X61849Y41180D01*
X61019Y41734D01*
X60039Y41929D01*
X59060Y41734D01*
X58230Y41180D01*
X57675Y40349D01*
X57480Y39370D01*
X57675Y38391D01*
X58230Y37561D01*
X59060Y37006D01*
X60039Y36811D01*
X61019Y37006D01*
X61849Y37561D01*
X62404Y38391D01*
X62598Y39370D01*
X38140Y79649D02*
X37303Y80157D01*
X36337Y80314D01*
X35383Y80097D01*
X34580Y79537D01*
X34045Y78717D01*
X33858Y77756D01*
X34045Y76795D01*
X34580Y75975D01*
X35383Y75415D01*
X36337Y75198D01*
X37303Y75355D01*
X38140Y75863D01*
X-15551Y80709D02*
X-15746Y81688D01*
X-16301Y82518D01*
X-17131Y83073D01*
X-18110Y83268D01*
X-19090Y83073D01*
X-19920Y82518D01*
X-20474Y81688D01*
X-20669Y80709D01*
X-20474Y79729D01*
X-19920Y78899D01*
X-19090Y78344D01*
X-18110Y78150D01*
X-17131Y78344D01*
X-16301Y78899D01*
X-15746Y79729D01*
X-15551Y80709D01*
Y62598D02*
X-15746Y63578D01*
X-16301Y64408D01*
X-17131Y64963D01*
X-18110Y65158D01*
X-19090Y64963D01*
X-19920Y64408D01*
X-20474Y63578D01*
X-20669Y62598D01*
X-20474Y61619D01*
X-19920Y60789D01*
X-19090Y60234D01*
X-18110Y60039D01*
X-17131Y60234D01*
X-16301Y60789D01*
X-15746Y61619D01*
X-15551Y62598D01*
Y71653D02*
X-15746Y72633D01*
X-16301Y73463D01*
X-17131Y74018D01*
X-18110Y74213D01*
X-19090Y74018D01*
X-19920Y73463D01*
X-20474Y72633D01*
X-20669Y71653D01*
X-20474Y70674D01*
X-19920Y69844D01*
X-19090Y69289D01*
X-18110Y69095D01*
X-17131Y69289D01*
X-16301Y69844D01*
X-15746Y70674D01*
X-15551Y71653D01*
X-38140Y81769D02*
X-37303Y81261D01*
X-36337Y81104D01*
X-35383Y81321D01*
X-34580Y81880D01*
X-34045Y82701D01*
X-33858Y83661D01*
X-41585Y81769D02*
X-40786Y81275D01*
X-39862Y81102D01*
X-38939Y81275D01*
X-38140Y81769D01*
X-38140Y79649D02*
X-38939Y80142D01*
X-39862Y80315D01*
X-40786Y80142D01*
X-41585Y79649D01*
X-38140Y85554D02*
X-38939Y86048D01*
X-39862Y86221D01*
X-40786Y86048D01*
X-41585Y85554D01*
X-33858Y77756D02*
X-34045Y78717D01*
X-34580Y79537D01*
X-35383Y80097D01*
X-36337Y80314D01*
X-37303Y80157D01*
X-38140Y79649D01*
X-41585Y79649D02*
X-42421Y80157D01*
X-43387Y80314D01*
X-44342Y80097D01*
X-45145Y79537D01*
X-45679Y78717D01*
X-45866Y77756D01*
X-45679Y76795D01*
X-45145Y75975D01*
X-44342Y75415D01*
X-43387Y75198D01*
X-42421Y75355D01*
X-41585Y75863D01*
X-38140Y75863D02*
X-37303Y75355D01*
X-36337Y75198D01*
X-35383Y75415D01*
X-34580Y75975D01*
X-34045Y76795D01*
X-33858Y77756D01*
X-41585Y75863D02*
X-40786Y75369D01*
X-39862Y75197D01*
X-38939Y75369D01*
X-38140Y75863D01*
X86221Y-8858D02*
X86026Y-7879D01*
X85471Y-7049D01*
X84641Y-6494D01*
X83661Y-6299D01*
X82682Y-6494D01*
X81852Y-7049D01*
X81297Y-7879D01*
X81102Y-8858D01*
X81297Y-9838D01*
X81852Y-10668D01*
X82682Y-11223D01*
X83661Y-11417D01*
X84641Y-11223D01*
X85471Y-10668D01*
X86026Y-9838D01*
X86221Y-8858D01*
X67067Y-17717D02*
X66872Y-16737D01*
X66317Y-15907D01*
X65487Y-15352D01*
X64508Y-15157D01*
X63529Y-15352D01*
X62698Y-15907D01*
X62144Y-16737D01*
X61949Y-17717D01*
X62144Y-18696D01*
X62698Y-19526D01*
X63529Y-20081D01*
X64508Y-20276D01*
X65487Y-20081D01*
X66317Y-19526D01*
X66872Y-18696D01*
X67067Y-17717D01*
X-25000Y7972D02*
X-25195Y8952D01*
X-25749Y9782D01*
X-26580Y10337D01*
X-27559Y10531D01*
X-28538Y10337D01*
X-29369Y9782D01*
X-29923Y8952D01*
X-30118Y7972D01*
X-29923Y6993D01*
X-29369Y6163D01*
X-28538Y5608D01*
X-27559Y5413D01*
X-26580Y5608D01*
X-25749Y6163D01*
X-25195Y6993D01*
X-25000Y7972D01*
X77362Y-59055D02*
X77167Y-58076D01*
X76613Y-57246D01*
X75783Y-56691D01*
X74803Y-56496D01*
X73824Y-56691D01*
X72994Y-57246D01*
X72439Y-58076D01*
X72244Y-59055D01*
X72439Y-60034D01*
X72994Y-60865D01*
X73824Y-61419D01*
X74803Y-61614D01*
X75783Y-61419D01*
X76613Y-60865D01*
X77167Y-60034D01*
X77362Y-59055D01*
X22244D02*
X22049Y-58076D01*
X21495Y-57246D01*
X20664Y-56691D01*
X19685Y-56496D01*
X18706Y-56691D01*
X17876Y-57246D01*
X17321Y-58076D01*
X17126Y-59055D01*
X17321Y-60034D01*
X17876Y-60865D01*
X18706Y-61419D01*
X19685Y-61614D01*
X20664Y-61419D01*
X21495Y-60865D01*
X22049Y-60034D01*
X22244Y-59055D01*
X-17126D02*
X-17321Y-58076D01*
X-17876Y-57246D01*
X-18706Y-56691D01*
X-19685Y-56496D01*
X-20664Y-56691D01*
X-21495Y-57246D01*
X-22049Y-58076D01*
X-22244Y-59055D01*
X-22049Y-60034D01*
X-21495Y-60865D01*
X-20664Y-61419D01*
X-19685Y-61614D01*
X-18706Y-61419D01*
X-17876Y-60865D01*
X-17321Y-60034D01*
X-17126Y-59055D01*
X-34646Y-106299D02*
X-34888Y-105212D01*
X-35570Y-104331D01*
X-34646Y-98425D02*
X-34888Y-97338D01*
X-35570Y-96457D01*
Y-100394D02*
X-34888Y-99512D01*
X-34646Y-98425D01*
X-35570Y-96457D02*
X-34888Y-95575D01*
X-34646Y-94488D01*
X-35570Y-104331D02*
X-34888Y-103449D01*
X-34646Y-102362D01*
X-34888Y-101275D01*
X-35570Y-100394D01*
X-34646Y-94488D02*
X-34850Y-93487D01*
X-35429Y-92646D01*
X-36291Y-92098D01*
X-37299Y-91931D01*
X-38292Y-92172D01*
X-39112Y-92782D01*
X-39627Y-93664D01*
X-39757Y-94677D01*
X-39480Y-95660D01*
X-38840Y-96457D01*
Y-100394D02*
X-39521Y-101275D01*
X-39764Y-102362D01*
X-39521Y-103449D01*
X-38840Y-104331D01*
X-39480Y-105127D01*
X-39757Y-106111D01*
X-39627Y-107124D01*
X-39112Y-108006D01*
X-38292Y-108616D01*
X-37299Y-108856D01*
X-36291Y-108690D01*
X-35429Y-108142D01*
X-34850Y-107300D01*
X-34646Y-106299D01*
X-38840Y-96457D02*
X-39521Y-97338D01*
X-39764Y-98425D01*
X-39521Y-99512D01*
X-38840Y-100394D01*
X-38661Y-110236D02*
X-38856Y-109257D01*
X-39411Y-108427D01*
X-40241Y-107872D01*
X-41221Y-107677D01*
X-42200Y-107872D01*
X-43030Y-108427D01*
X-43585Y-109257D01*
X-43780Y-110236D01*
X-43585Y-111215D01*
X-43030Y-112046D01*
X-42200Y-112601D01*
X-41221Y-112795D01*
X-40241Y-112601D01*
X-39411Y-112046D01*
X-38856Y-111215D01*
X-38661Y-110236D01*
X-61221Y25591D02*
X-61437Y26621D01*
X-62051Y27477D01*
X-62957Y28014D01*
X-64003Y28140D01*
X-65011Y27834D01*
X-65698Y27284D02*
X-66206Y26405D01*
X-66331Y25397D01*
X-66055Y24420D01*
X-65421Y23627D01*
X-64528Y23144D01*
X-63518Y23045D01*
X-62548Y23347D01*
X-61861Y23897D02*
X-61386Y24685D01*
X-61221Y25591D01*
X-65011Y27834D02*
X-64536Y28622D01*
X-64370Y29528D01*
X-64573Y30527D01*
X-65150Y31367D01*
X-66010Y31916D01*
X-67015Y32085D01*
X-68007Y31849D01*
X-68827Y31244D01*
X-69347Y30366D01*
X-69482Y29356D01*
X-69213Y28372D01*
X-68581Y27573D01*
X-67686Y27083D01*
X-66672Y26981D01*
X-65698Y27284D01*
X-73228Y60039D02*
X-73423Y61019D01*
X-73978Y61849D01*
X-74808Y62404D01*
X-75787Y62598D01*
X-76767Y62404D01*
X-77597Y61849D01*
X-78152Y61019D01*
X-78347Y60039D01*
X-78152Y59060D01*
X-77597Y58230D01*
X-76767Y57675D01*
X-75787Y57480D01*
X-74808Y57675D01*
X-73978Y58230D01*
X-73423Y59060D01*
X-73228Y60039D01*
X-58071Y21654D02*
X-58288Y22684D01*
X-58901Y23540D01*
X-59807Y24077D01*
X-60853Y24203D01*
X-61861Y23897D01*
X-62548Y23347D02*
X-63045Y22499D01*
X-63186Y21526D01*
X-62949Y20572D01*
X-62371Y19778D01*
X-61535Y19260D01*
X-60566Y19095D01*
X-59607Y19308D01*
X-58798Y19867D01*
X-58260Y20689D01*
X-58071Y21654D01*
X-72244Y-59055D02*
X-72439Y-58076D01*
X-72994Y-57246D01*
X-73824Y-56691D01*
X-74803Y-56496D01*
X-75782Y-56691D01*
X-76613Y-57246D01*
X-77167Y-58076D01*
X-77362Y-59055D01*
X-77167Y-60034D01*
X-76613Y-60865D01*
X-75782Y-61419D01*
X-74803Y-61614D01*
X-73824Y-61419D01*
X-72994Y-60865D01*
X-72439Y-60034D01*
X-72244Y-59055D01*
X-76181Y20669D02*
X-76376Y21649D01*
X-76931Y22479D01*
X-77761Y23033D01*
X-78740Y23228D01*
X-79720Y23033D01*
X-80550Y22479D01*
X-81104Y21649D01*
X-81299Y20669D01*
X-81104Y19690D01*
X-80550Y18860D01*
X-79720Y18305D01*
X-78740Y18110D01*
X-77761Y18305D01*
X-76931Y18860D01*
X-76376Y19690D01*
X-76181Y20669D01*
X-59664Y-100394D02*
X-58983Y-99512D01*
X-58740Y-98425D01*
Y-94488D02*
X-58944Y-93487D01*
X-59523Y-92646D01*
X-60386Y-92098D01*
X-61394Y-91931D01*
X-62387Y-92172D01*
X-63206Y-92782D01*
X-63722Y-93664D01*
X-63851Y-94677D01*
X-63574Y-95660D01*
X-62934Y-96457D01*
X-59664D02*
X-58983Y-95575D01*
X-58740Y-94488D01*
Y-98425D02*
X-58983Y-97338D01*
X-59664Y-96457D01*
X-62934Y-96457D02*
X-63616Y-97338D01*
X-63858Y-98425D01*
X-63616Y-99512D01*
X-62934Y-100394D01*
X-58740Y-106299D02*
X-58983Y-105212D01*
X-59664Y-104331D01*
X-62934D02*
X-63574Y-105127D01*
X-63851Y-106111D01*
X-63722Y-107124D01*
X-63206Y-108006D01*
X-62387Y-108616D01*
X-61394Y-108856D01*
X-60386Y-108690D01*
X-59523Y-108142D01*
X-58944Y-107300D01*
X-58740Y-106299D01*
X-54724Y-110236D02*
X-54919Y-109257D01*
X-55474Y-108427D01*
X-56304Y-107872D01*
X-57284Y-107677D01*
X-58263Y-107872D01*
X-59093Y-108427D01*
X-59648Y-109257D01*
X-59842Y-110236D01*
X-59648Y-111215D01*
X-59093Y-112046D01*
X-58263Y-112601D01*
X-57284Y-112795D01*
X-56304Y-112601D01*
X-55474Y-112046D01*
X-54919Y-111215D01*
X-54724Y-110236D01*
X-58740Y-102362D02*
X-58983Y-101275D01*
X-59664Y-100394D01*
X-59664Y-104331D02*
X-58983Y-103449D01*
X-58740Y-102362D01*
X-62934Y-100394D02*
X-63616Y-101275D01*
X-63858Y-102362D01*
X-63616Y-103449D01*
X-62934Y-104331D01*
X67658Y156174D02*
X97119Y126714D01*
X64875Y156174D02*
X97119Y123930D01*
X62091Y156174D02*
X97119Y121146D01*
X59307Y156174D02*
X97119Y118362D01*
X56523Y156174D02*
X97119Y115578D01*
X88042Y156174D02*
X97119Y147097D01*
X87146Y156174D02*
X97119Y146201D01*
X76010Y156174D02*
X97119Y135065D01*
X73226Y156174D02*
X97119Y132281D01*
X70442Y156174D02*
X97119Y129497D01*
X42603Y156174D02*
X97119Y101659D01*
X39820Y156174D02*
X97119Y98875D01*
X37036Y156174D02*
X97119Y96091D01*
X34252Y156174D02*
X97119Y93307D01*
X31468Y156174D02*
X97119Y90523D01*
X53739Y156174D02*
X97119Y112794D01*
X50955Y156174D02*
X97119Y110010D01*
X48171Y156174D02*
X97119Y107226D01*
X45387Y156174D02*
X97119Y104443D01*
X17549Y156174D02*
X97119Y76604D01*
X14765Y156174D02*
X97119Y73820D01*
X11981Y156174D02*
X97119Y71036D01*
X9197Y156174D02*
X97119Y68252D01*
X6413Y156174D02*
X97119Y65468D01*
X28684Y156174D02*
X97119Y87739D01*
X25900Y156174D02*
X97119Y84955D01*
X-17224Y64999D02*
X73951Y156174D01*
X23116D02*
X97119Y82171D01*
X20332Y156174D02*
X97119Y79387D01*
X-4722Y156174D02*
X97119Y54333D01*
X-7506Y156174D02*
X97119Y51549D01*
X-10290Y156174D02*
X97119Y48765D01*
X-13074Y156174D02*
X97119Y45981D01*
X-15858Y156174D02*
X97119Y43197D01*
X3629Y156174D02*
X97119Y62684D01*
X-15781Y63658D02*
X76735Y156174D01*
X845D02*
X97119Y59900D01*
X-1939Y156174D02*
X97119Y57117D01*
X68172Y41824D02*
X97119Y70771D01*
X62573Y39009D02*
X97119Y73555D01*
X61904Y41123D02*
X97119Y76339D01*
X71451Y39536D02*
X97119Y65203D01*
X70498Y41367D02*
X97119Y67987D01*
X84362Y156174D02*
X97119Y143417D01*
X81578Y156174D02*
X97119Y140633D01*
X78794Y156174D02*
X97119Y137849D01*
X59923Y41927D02*
X97119Y79123D01*
X71274Y38420D02*
X97119Y12574D01*
X88713Y12255D02*
X97119Y20661D01*
X69896Y37014D02*
X97119Y9791D01*
X92114Y10089D02*
X97119Y15093D01*
X91119Y11877D02*
X97119Y17877D01*
X62536Y38806D02*
X89003Y12339D01*
X45866Y77747D02*
X97119Y26494D01*
X61372Y37186D02*
X87382Y11175D01*
X45060Y85526D02*
X97119Y137584D01*
X45864Y83545D02*
X97119Y134800D01*
X37261Y86077D02*
X97119Y145936D01*
X45857Y77971D02*
X97119Y129233D01*
X44878Y79776D02*
X97119Y132017D01*
X41694Y96078D02*
X94916Y149300D01*
X42405Y94006D02*
X96307Y147908D01*
X39675Y96843D02*
X93524Y150692D01*
X42946Y86195D02*
X97119Y140368D01*
X40169Y86202D02*
X97119Y143152D01*
X44808Y81589D02*
X97119Y29278D01*
X44996Y75833D02*
X97119Y23710D01*
X37168Y75309D02*
X97119Y15358D01*
X42797Y75248D02*
X97119Y20926D01*
X40057Y75204D02*
X97119Y18142D01*
X42200Y95332D02*
X97119Y40413D01*
X41945Y92804D02*
X97119Y37629D01*
X45845Y83335D02*
X97119Y32062D01*
X40209Y91756D02*
X97119Y34845D01*
X-18642Y156174D02*
X40903Y96629D01*
X-21426Y156174D02*
X38375Y96374D01*
X-29777Y156174D02*
X40198Y86198D01*
X-26994Y156174D02*
X42981Y86200D01*
X-24210Y156174D02*
X37327Y94638D01*
X-35256Y85942D02*
X34976Y156174D01*
X-35345D02*
X35022Y85807D01*
X-32561Y156174D02*
X37795Y85818D01*
X-33978Y84436D02*
X37760Y156174D01*
X-16355Y82571D02*
X57248Y156174D01*
X-15554Y80589D02*
X60031Y156174D01*
X-19700Y73659D02*
X62815Y156174D01*
X-15607Y72184D02*
X68383Y156174D01*
X-16752Y73823D02*
X65599Y156174D01*
X-18468Y83243D02*
X54464Y156174D01*
X-34070Y78776D02*
X43328Y156174D01*
X-37404Y97713D02*
X21057Y156174D01*
X-40679Y86087D02*
X29409Y156174D01*
X-43329Y86220D02*
X26625Y156174D01*
X-38129D02*
X33904Y84141D01*
X-38296Y85685D02*
X32193Y156174D01*
X-39706Y100979D02*
X15489Y156174D01*
X-37870Y100031D02*
X18273Y156174D01*
X-35489Y80141D02*
X40544Y156174D01*
X-54832D02*
X59476Y41866D01*
X-57616Y156174D02*
X57855Y40703D01*
X-46481Y156174D02*
X67947Y41746D01*
X-49265Y156174D02*
X66541Y40368D01*
X-40913Y156174D02*
X35236Y80026D01*
X-43697Y156174D02*
X33971Y78506D01*
X-37616Y97199D02*
X-20619Y80202D01*
X-39164Y95963D02*
X-17271Y74071D01*
X42307Y81306D02*
X43298Y80315D01*
X42505Y80186D02*
X43424Y81105D01*
X39850Y80315D02*
X40825Y81291D01*
X36999Y80248D02*
X38349Y81598D01*
X39723Y81106D02*
X40633Y80196D01*
X36897Y81148D02*
X38279Y79766D01*
X-25460Y9437D02*
X40345Y75243D01*
X-38571Y81452D02*
X-37284Y80164D01*
X-38495Y79919D02*
X-37192Y81222D01*
X-41631Y81728D02*
X-40197Y80293D01*
X-43848Y81160D02*
X-42982Y80294D01*
X-41386Y79812D02*
X-40086Y81112D01*
X-43696Y80285D02*
X-42835Y81146D01*
X-34009Y76890D02*
X-20535Y63416D01*
X-27178Y10503D02*
X38162Y75843D01*
X-35579Y81243D02*
X-19233Y64898D01*
X-58089Y21351D02*
X-19170Y60269D01*
X-58791Y23433D02*
X-20511Y61712D01*
X67067Y-17743D02*
X97119Y12310D01*
X-15551Y80703D02*
X97119Y-31968D01*
X-15692Y72492D02*
X97119Y-40319D01*
X86054Y-9767D02*
X97119Y-20832D01*
X84700Y-11197D02*
X97119Y-23616D01*
X92063Y9279D02*
X97119Y4223D01*
X90900Y7658D02*
X97119Y1439D01*
X84048Y-6329D02*
X97119Y6742D01*
X85958Y-9987D02*
X97119Y1174D01*
X85763Y-7398D02*
X97119Y3958D01*
X75533Y-56602D02*
X97119Y-35016D01*
Y-147097D02*
Y147097D01*
X-15687Y-156174D02*
X97119Y-43368D01*
X-10119Y-156174D02*
X97119Y-48936D01*
X-12903Y-156174D02*
X97119Y-46152D01*
X-16080Y70096D02*
X97119Y-43103D01*
X-17293Y60173D02*
X97119Y-54239D01*
X66945Y-18497D02*
X97119Y-48671D01*
X65664Y-20000D02*
X97119Y-51455D01*
X-26708Y5559D02*
X97119Y-118268D01*
X-54662Y-156174D02*
X97119Y-4394D01*
X-57445Y-156174D02*
X97119Y-1610D01*
X-49094Y-156174D02*
X97119Y-9961D01*
X-51878Y-156174D02*
X97119Y-7177D01*
X-18617Y78200D02*
X97119Y-37535D01*
X-17874Y69105D02*
X97119Y-45887D01*
X-52048Y156174D02*
X97119Y7007D01*
X-19084Y-56568D02*
X97119Y59636D01*
X-25245Y6880D02*
X97119Y-115484D01*
X-32390Y-156174D02*
X97119Y-26665D01*
X-29607Y-156174D02*
X97119Y-29449D01*
X-35174Y-156174D02*
X97119Y-23881D01*
X-18471Y-156174D02*
X97119Y-40584D01*
X-26823Y-156174D02*
X97119Y-32232D01*
X-43526Y-156174D02*
X97119Y-15529D01*
X-46310Y-156174D02*
X97119Y-12745D01*
X-37958Y-156174D02*
X97119Y-21097D01*
X-40742Y-156174D02*
X97119Y-18313D01*
X56694Y-156174D02*
X97119Y-115749D01*
X59478Y-156174D02*
X97119Y-118533D01*
X53910Y-156174D02*
X97119Y-112965D01*
X65045Y-156174D02*
X97119Y-124100D01*
X62261Y-156174D02*
X97119Y-121317D01*
X42774Y-156174D02*
X97119Y-101829D01*
X45558Y-156174D02*
X97119Y-104613D01*
X39990Y-156174D02*
X97119Y-99045D01*
X51126Y-156174D02*
X97119Y-110181D01*
X48342Y-156174D02*
X97119Y-107397D01*
X81749Y-156174D02*
X97119Y-140804D01*
X84532Y-156174D02*
X97119Y-143588D01*
X78965Y-156174D02*
X97119Y-138020D01*
X88042Y-156174D02*
X97119Y-147097D01*
X87316Y-156174D02*
X97119Y-146371D01*
X70613Y-156174D02*
X97119Y-129668D01*
X67829Y-156174D02*
X97119Y-126884D01*
X76181Y-156174D02*
X97119Y-135236D01*
X73397Y-156174D02*
X97119Y-132452D01*
X3800Y-156174D02*
X97119Y-62855D01*
X6584Y-156174D02*
X97119Y-65639D01*
X1016Y-156174D02*
X97119Y-60071D01*
X12152Y-156174D02*
X97119Y-71207D01*
X9368Y-156174D02*
X97119Y-68423D01*
X-4552Y-156174D02*
X97119Y-54504D01*
X-1768Y-156174D02*
X97119Y-57287D01*
X-7335Y-156174D02*
X97119Y-51720D01*
X22087Y-59939D02*
X97119Y-134971D01*
X20747Y-61383D02*
X97119Y-137755D01*
X28855Y-156174D02*
X97119Y-87910D01*
X31639Y-156174D02*
X97119Y-90694D01*
X26071Y-156174D02*
X97119Y-85126D01*
X37207Y-156174D02*
X97119Y-96262D01*
X34423Y-156174D02*
X97119Y-93478D01*
X17719Y-156174D02*
X97119Y-76775D01*
X14935Y-156174D02*
X97119Y-73991D01*
X23287Y-156174D02*
X97119Y-82342D01*
X20503Y-156174D02*
X97119Y-79558D01*
X64041Y-15200D02*
X87532Y8291D01*
X19948Y-56510D02*
X87155Y10697D01*
X-16420Y78787D02*
X97119Y-34751D01*
X66215Y-15810D02*
X89321Y7295D01*
X-25255Y6858D02*
X43092Y75206D01*
X-15811Y61475D02*
X62225Y-16561D01*
X-34109Y82557D02*
X63727Y-15279D01*
X77064Y-57856D02*
X97119Y-37800D01*
X-17483Y-57751D02*
X97119Y56852D01*
X77324Y-59498D02*
X97119Y-79294D01*
X-17192Y-59634D02*
X79348Y-156174D01*
X22087Y-59939D02*
X62602Y-19424D01*
X21728Y-57514D02*
X61992Y-17250D01*
X-37817Y-92003D02*
X97119Y42932D01*
X-35558Y-92529D02*
X97119Y40148D01*
X-58900Y-93599D02*
X97119Y62419D01*
X-34647Y-94402D02*
X97119Y37365D01*
X-34647Y-94402D02*
X97119Y37365D01*
X-35339Y75435D02*
X97119Y-57023D01*
X-38367Y75679D02*
X97119Y-59807D01*
X-40879Y75407D02*
X97119Y-62590D01*
X-43456Y75201D02*
X97119Y-65374D01*
X-58348Y20496D02*
X18801Y-56653D01*
X-59121Y-104956D02*
X97119Y51284D01*
X-56423Y-107826D02*
X97119Y45716D01*
X-59477Y-108096D02*
X97119Y48500D01*
X-34681Y-102787D02*
X97119Y29013D01*
X-34736Y-105626D02*
X97119Y26229D01*
X-34861Y-97399D02*
X97119Y34581D01*
X-58793Y-101844D02*
X97119Y54068D01*
X-35315Y-100637D02*
X97119Y31797D01*
X-59320Y-96803D02*
X-22173Y-59656D01*
X76225Y-61183D02*
X97119Y-82077D01*
X73536Y-61278D02*
X97119Y-84861D01*
X-37595Y-108828D02*
X9751Y-156174D01*
X-38678Y-110529D02*
X6967Y-156174D01*
X-21255D02*
X73604Y-61316D01*
X-18364Y-61247D02*
X76564Y-156174D01*
X-24039D02*
X72350Y-59785D01*
X-34701Y-95019D02*
X26454Y-156174D01*
X-34730Y-97774D02*
X23670Y-156174D01*
X-34809Y-103262D02*
X18102Y-156174D01*
X-35232Y-100056D02*
X20886Y-156174D01*
X-34647Y-106208D02*
X15318Y-156174D01*
X-35464Y-108175D02*
X12535Y-156174D01*
X-58830Y-99097D02*
X-20989Y-61257D01*
X-38735Y-109625D02*
X-37878Y-108768D01*
X-54965Y-109152D02*
X-39689Y-93876D01*
X-39924Y-108030D02*
X-39440Y-107546D01*
X-58855Y-107056D02*
X-58100Y-107811D01*
X-58918Y-101425D02*
X-4169Y-156174D01*
X-58767Y-98792D02*
X-1385Y-156174D01*
X-59242Y-103884D02*
X-6953Y-156174D01*
X-39698Y-112293D02*
X4183Y-156174D01*
X-42158Y-112618D02*
X1399Y-156174D01*
X-59056Y-95719D02*
X-43602Y-111173D01*
X-54858Y-111053D02*
X-9736Y-156174D01*
X-56159Y-112535D02*
X-12520Y-156174D01*
X-73568Y58765D02*
X23841Y156174D01*
X-60800Y24207D02*
X71167Y156174D01*
X-97119Y46350D02*
X12705Y156174D01*
X-60400D02*
X97119Y-1345D01*
X-88042Y156174D02*
X88042D01*
X-97119Y57485D02*
X1570Y156174D01*
X-97119Y54701D02*
X4354Y156174D01*
X-97119Y60269D02*
X-1214Y156174D01*
X-97119Y49134D02*
X9922Y156174D01*
X-97119Y51917D02*
X7138Y156174D01*
X-68752D02*
X97119Y-9697D01*
X-71536Y156174D02*
X97119Y-12481D01*
X-74319Y156174D02*
X97119Y-15264D01*
X-77103Y156174D02*
X97119Y-18048D01*
X-85455Y156174D02*
X97119Y-26400D01*
X-79887Y156174D02*
X82753Y-6466D01*
X-82671Y156174D02*
X81323Y-7820D01*
X-63184Y156174D02*
X97119Y-4129D01*
X-65968Y156174D02*
X97119Y-6913D01*
X-97119Y79756D02*
X-20701Y156174D01*
X-97119Y76972D02*
X-17917Y156174D01*
X-97119Y82540D02*
X-23485Y156174D01*
X-97119Y71405D02*
X-12349Y156174D01*
X-97119Y74189D02*
X-15133Y156174D01*
X-97119Y93676D02*
X-34621Y156174D01*
X-97119Y90892D02*
X-31837Y156174D01*
X-97119Y96460D02*
X-37405Y156174D01*
X-97119Y85324D02*
X-26269Y156174D01*
X-97119Y88108D02*
X-29053Y156174D01*
X-97119Y-20463D02*
X79519Y156174D01*
X-97119Y-23247D02*
X82302Y156174D01*
X-97119Y7375D02*
X51680Y156174D01*
X-97119Y-28815D02*
X87870Y156174D01*
X-97119Y-26031D02*
X85086Y156174D01*
X-97119Y65837D02*
X-6782Y156174D01*
X-97119Y68621D02*
X-9566Y156174D01*
X-97119Y10159D02*
X48896Y156174D01*
X-97119Y63053D02*
X-3998Y156174D01*
X-89532Y154684D02*
X-18116Y83268D01*
X-66842Y32085D02*
X-19973Y78954D01*
X-95100Y149116D02*
X-19668Y73684D01*
X-61362Y26429D02*
X-18641Y69150D01*
X-64969Y31173D02*
X-17990Y78152D01*
X-90924Y153292D02*
X-20031Y82399D01*
X-78494Y23216D02*
X-20644Y81066D01*
X-96492Y147724D02*
X-20658Y71890D01*
X-62676Y27899D02*
X-20279Y70296D01*
X-64445Y28914D02*
X-20115Y73243D01*
X-74693Y-56498D02*
X97119Y115313D01*
X-72833Y-57422D02*
X97119Y112529D01*
X-88140Y156076D02*
X97119Y-29184D01*
X-72327Y-59700D02*
X97119Y109746D01*
X-97119Y-45518D02*
X40148Y91748D01*
X-97119Y-51086D02*
X35318Y81351D01*
X-97119Y-48302D02*
X34001Y82818D01*
X-59852Y19216D02*
X17357Y-57993D01*
X-75846Y57481D02*
X-28652Y10287D01*
X-97119Y-31599D02*
X89348Y154868D01*
X-97119Y-34383D02*
X90740Y153476D01*
X-97119Y12943D02*
X46112Y156174D01*
X-97119Y114945D02*
X74360Y-56535D01*
X-97119Y-37167D02*
X92132Y152084D01*
X-97119Y-42734D02*
X38075Y92460D01*
X-97119Y-53870D02*
X33925Y77174D01*
X-97119Y-39951D02*
X37310Y94478D01*
X-97119Y20293D02*
X-20264Y-56562D01*
X-97119Y75970D02*
X-29972Y8823D01*
X-97119Y112161D02*
X72675Y-57634D01*
X-97119Y126080D02*
X97119Y-68158D01*
X-97119Y-67789D02*
X97119Y126449D01*
X-97119Y-56654D02*
X35098Y75563D01*
X-97119Y109377D02*
X72580Y-60322D01*
X-97119Y-59438D02*
X-30090Y7592D01*
X-97119Y17509D02*
X-21877Y-57734D01*
X-97119Y-65005D02*
X-26445Y5669D01*
X-97119Y-62222D02*
X-29024Y5874D01*
X-92316Y151900D02*
X-41088Y100672D01*
X-93708Y150508D02*
X-42324Y99124D01*
X-97119Y145567D02*
X-37522Y85970D01*
X-97119Y139999D02*
X-43340Y86220D01*
X-97119Y142783D02*
X-40480Y86145D01*
X-97119Y134432D02*
X-45808Y83121D01*
X-97119Y131648D02*
X-45076Y79605D01*
X-97119Y137215D02*
X-45241Y85337D01*
X-97119Y84322D02*
X-75360Y62562D01*
X-97119Y128864D02*
X-45862Y77607D01*
X-75342Y62559D02*
X-41468Y96433D01*
X-73658Y61459D02*
X-39150Y95967D01*
X-97119Y43566D02*
X-42416Y98268D01*
X-97119Y24079D02*
X-45183Y76015D01*
X-97119Y29646D02*
X-45012Y81753D01*
X-97119Y81538D02*
X-77512Y61930D01*
X-97119Y32430D02*
X-45866Y83683D01*
X-97119Y26863D02*
X-45836Y78145D01*
X-97119Y78754D02*
X-78346Y59981D01*
X-97119Y132650D02*
X-73595Y156174D01*
X-97119Y129866D02*
X-70811Y156174D01*
X-97119Y135434D02*
X-76379Y156174D01*
X-97119Y124298D02*
X-65243Y156174D01*
X-97119Y127082D02*
X-68027Y156174D01*
X-97119Y146569D02*
X-87514Y156174D01*
X-97119Y143786D02*
X-84730Y156174D01*
X-97119Y147097D02*
X-88042Y156174D01*
X-97119Y138218D02*
X-79163Y156174D01*
X-97119Y141002D02*
X-81946Y156174D01*
X-97119Y107595D02*
X-48540Y156174D01*
X-97119Y104811D02*
X-45756Y156174D01*
X-97119Y110379D02*
X-51324Y156174D01*
X-97119Y99243D02*
X-40188Y156174D01*
X-97119Y102027D02*
X-42972Y156174D01*
X-97119Y118731D02*
X-59676Y156174D01*
X-97119Y121514D02*
X-62459Y156174D01*
X-97119Y113163D02*
X-54108Y156174D01*
X-97119Y115947D02*
X-56892Y156174D01*
X-64379Y29311D02*
X-63136Y28067D01*
X-63670Y23034D02*
X-63068Y22432D01*
X-67735Y27099D02*
X-66336Y25700D01*
X-76705Y22221D02*
X-69487Y29440D01*
X-76328Y19815D02*
X-68575Y27568D01*
X-97119Y-35385D02*
X-75804Y-56700D01*
X-97119Y1808D02*
X-80292Y18635D01*
X-97119Y-38169D02*
X-77180Y-58108D01*
X-97119Y-976D02*
X-77886Y18257D01*
X-97119Y62051D02*
X-67146Y32077D01*
X-97119Y59267D02*
X-68950Y31098D01*
X-97119Y21295D02*
X-43215Y75199D01*
X-97119Y56483D02*
X-69358Y28722D01*
X-97119Y35214D02*
X-74513Y57820D01*
X-97119Y37998D02*
X-77207Y57910D01*
X-97119Y42564D02*
X-77412Y22857D01*
X-97119Y40782D02*
X-78307Y59594D01*
X-97119Y36996D02*
X-81257Y21134D01*
X-97119Y39780D02*
X-80147Y22807D01*
X-97119Y18511D02*
X-40380Y75250D01*
X-97119Y-12112D02*
X-63183Y21824D01*
X-97119Y15727D02*
X-37437Y75409D01*
X-97119Y-17680D02*
X-60327Y19113D01*
X-97119Y-14896D02*
X-62409Y19814D01*
X-97119Y-6544D02*
X-66088Y24487D01*
X-97119Y-3760D02*
X-66316Y27043D01*
X-97119Y4592D02*
X-81287Y20423D01*
X-97119Y-9328D02*
X-64618Y23173D01*
X-97119Y-112331D02*
X97119Y81907D01*
X-97119Y73186D02*
X97119Y-121052D01*
X-97119Y-109548D02*
X97119Y84690D01*
X-73264Y60467D02*
X97119Y-109916D01*
X-73896Y58315D02*
X97119Y-112700D01*
X-97119Y-106764D02*
X97119Y87474D01*
X-97119Y87106D02*
X97119Y-107132D01*
X-97119Y89890D02*
X97119Y-104349D01*
X-97119Y-117899D02*
X58286Y37506D01*
X-97119Y-115115D02*
X57483Y39487D01*
X-97119Y64835D02*
X97119Y-129403D01*
X-97119Y53699D02*
X97119Y-140539D01*
X-97119Y67619D02*
X97119Y-126620D01*
X-97119Y48131D02*
X97119Y-146107D01*
X-97119Y50915D02*
X97119Y-143323D01*
X-97119Y45347D02*
X96222Y-147994D01*
X-97119Y70402D02*
X97119Y-123836D01*
X-97119Y-126251D02*
X66901Y37769D01*
X-97119Y-123467D02*
X66444Y40096D01*
X-97119Y-87277D02*
X97119Y106962D01*
X-97119Y106593D02*
X97119Y-87645D01*
X-97119Y117728D02*
X97119Y-76510D01*
X-97119Y103809D02*
X97119Y-90429D01*
X-97119Y-90060D02*
X97119Y104178D01*
X-97119Y123296D02*
X97119Y-70942D01*
X-97119Y-73357D02*
X97119Y120881D01*
X-97119Y-70573D02*
X97119Y123665D01*
X-97119Y-76141D02*
X97119Y118097D01*
X-97119Y120512D02*
X97119Y-73726D01*
X-97119Y95457D02*
X97119Y-98781D01*
X-97119Y-101196D02*
X97119Y93042D01*
X-97119Y-98412D02*
X97119Y95826D01*
X-97119Y-103980D02*
X97119Y90258D01*
X-97119Y92673D02*
X97119Y-101565D01*
X-97119Y101025D02*
X97119Y-93213D01*
X-97119Y-92844D02*
X97119Y101394D01*
X-97119Y98241D02*
X97119Y-95997D01*
X-97119Y-95628D02*
X97119Y98610D01*
X-61303Y26234D02*
X97119Y-132187D01*
X-76552Y21997D02*
X94830Y-149386D01*
X-76602Y19263D02*
X93438Y-150778D01*
X-78276Y18153D02*
X92046Y-152170D01*
X-88042Y-156174D02*
X88042D01*
X-60242Y-92158D02*
X68732Y36816D01*
X-97119Y-4762D02*
X54293Y-156174D01*
X-97119Y-1978D02*
X57077Y-156174D01*
X-97119Y-10330D02*
X48725Y-156174D01*
X-97119Y-7546D02*
X51509Y-156174D01*
X-68581D02*
X97119Y9526D01*
X-65797Y-156174D02*
X81132Y-9245D01*
X-82500Y-156174D02*
X97119Y23445D01*
X-60229Y-156174D02*
X84790Y-11155D01*
X-63013Y-156174D02*
X82201Y-10960D01*
X-71365Y-156174D02*
X64534Y-20276D01*
X-79716Y-156174D02*
X17140Y-59318D01*
X-74149Y-156174D02*
X20569Y-61457D01*
X-76933Y-156174D02*
X18144Y-61098D01*
X-97119Y31428D02*
X89262Y-154953D01*
X-97119Y28644D02*
X87699Y-156174D01*
X-97119Y34212D02*
X90654Y-153561D01*
X-97119Y23076D02*
X82132Y-156174D01*
X-97119Y25860D02*
X84916Y-156174D01*
X-97119Y-13114D02*
X45941Y-156174D01*
X-97119Y-15898D02*
X43157Y-156174D01*
X-97119Y-120683D02*
X60401Y36837D01*
X-97119Y-21466D02*
X37589Y-156174D01*
X-97119Y-18682D02*
X40373Y-156174D01*
X-97119Y11941D02*
X70996Y-156174D01*
X-97119Y9157D02*
X68212Y-156174D01*
X-97119Y14725D02*
X73780Y-156174D01*
X-97119Y3589D02*
X62644Y-156174D01*
X-97119Y6373D02*
X65428Y-156174D01*
X-97119Y-24250D02*
X34806Y-156174D01*
X-97119Y805D02*
X59861Y-156174D01*
X-97119Y-29817D02*
X29238Y-156174D01*
X-97119Y-27033D02*
X32022Y-156174D01*
X-72448Y-60056D02*
X-39374Y-93130D01*
X-73856Y-61432D02*
X-39210Y-96078D01*
X-93623Y-150593D02*
X-39164Y-96135D01*
X-92231Y-151985D02*
X-39592Y-99347D01*
X-97119Y-129035D02*
X-63630Y-95545D01*
X-97119Y-77143D02*
X-18088Y-156174D01*
X-97119Y-79927D02*
X-20872Y-156174D01*
X-97119Y-74359D02*
X-15304Y-156174D01*
X-97119Y-85495D02*
X-26440Y-156174D01*
X-97119Y-82711D02*
X-23656Y-156174D01*
X-97119Y-91063D02*
X-32008Y-156174D01*
X-97119Y-88279D02*
X-29224Y-156174D01*
X-92231Y-151985D02*
X-39592Y-99347D01*
X-97119Y-93846D02*
X-34791Y-156174D01*
X-97119Y-40953D02*
X-39761Y-98311D01*
X-97119Y-43737D02*
X-39540Y-101316D01*
X-97119Y-32601D02*
X-37735Y-91985D01*
X-97119Y-63224D02*
X-63391Y-96952D01*
X-97119Y-57656D02*
X-62530Y-92245D01*
X-97119Y-81709D02*
X-76436Y-61026D01*
X-97119Y-60440D02*
X-63763Y-93796D01*
X-97119Y-78925D02*
X-77360Y-59166D01*
X-97119Y-66008D02*
X-63617Y-99510D01*
X-97119Y-84493D02*
X-74158Y-61532D01*
X-97119Y-49304D02*
X-39734Y-106690D01*
X-97119Y-52088D02*
X-41513Y-107694D01*
X-97119Y-46521D02*
X-39081Y-104559D01*
X-97119Y-96630D02*
X-37575Y-156174D01*
X-97119Y-54872D02*
X-43277Y-108714D01*
X-97119Y-68792D02*
X-63841Y-102069D01*
X-97119Y-147097D02*
Y147097D01*
Y-131819D02*
X-63855Y-98554D01*
X-97119Y-71575D02*
X-63572Y-105123D01*
X-90839Y-153377D02*
X-39763Y-102301D01*
X-95015Y-149201D02*
X-58368Y-112554D01*
X-60123Y-108572D02*
X-59582Y-109112D01*
X-96407Y-147809D02*
X-59694Y-111096D01*
X-89447Y-154769D02*
X-38930Y-104252D01*
X-88055Y-156161D02*
X-43427Y-111533D01*
X-97119Y-110550D02*
X-51495Y-156174D01*
X-85284D02*
X-41831Y-112721D01*
X-97119Y-113334D02*
X-54278Y-156174D01*
X-97119Y-118901D02*
X-59846Y-156174D01*
X-97119Y-116118D02*
X-57062Y-156174D01*
X-97119Y-124469D02*
X-65414Y-156174D01*
X-97119Y-121685D02*
X-62630Y-156174D01*
X-97119Y-134602D02*
X-63355Y-100839D01*
X-97119Y-102198D02*
X-43143Y-156174D01*
X-97119Y-99414D02*
X-40359Y-156174D01*
X-97119Y-142954D02*
X-62642Y-108477D01*
X-97119Y-145738D02*
X-59503Y-108122D01*
X-97119Y-140170D02*
X-63798Y-106850D01*
X-97119Y-137386D02*
X-63462Y-103730D01*
X-97119Y-130037D02*
X-70982Y-156174D01*
X-97119Y-127253D02*
X-68198Y-156174D01*
X-97119Y-107766D02*
X-48711Y-156174D01*
X-97119Y-132821D02*
X-73766Y-156174D01*
X-97119Y-104982D02*
X-45927Y-156174D01*
X-97119Y-138389D02*
X-79333Y-156174D01*
X-97119Y-135605D02*
X-76550Y-156174D01*
X-97119Y-143956D02*
X-84901Y-156174D01*
X-97119Y-141172D02*
X-82117Y-156174D01*
X-97119Y-147097D02*
X-88042Y-156174D01*
X-97119Y-146740D02*
X-87685Y-156174D01*
D31*
X16417Y-121024D02*
D03*
X78071D02*
D03*
X-78071D02*
D03*
X-16417D02*
D03*
D38*
X0Y-58268D02*
D03*
X80709Y139764D02*
D03*
X-80709D02*
D03*
D39*
X-9449Y-58268D02*
D03*
X-6693Y-51575D02*
D03*
Y-64961D02*
D03*
X0Y-67716D02*
D03*
X6693Y-64961D02*
D03*
X9449Y-58268D02*
D03*
X6693Y-51575D02*
D03*
X0Y-48819D02*
D03*
X88583Y127953D02*
D03*
X93504Y118110D02*
D03*
X88583Y108268D02*
D03*
X93504Y98425D02*
D03*
X88583Y88583D02*
D03*
X93504Y78740D02*
D03*
X88583Y68898D02*
D03*
X93504Y59055D02*
D03*
X88583Y49213D02*
D03*
X93504Y39370D02*
D03*
X88583Y29528D02*
D03*
X93504Y19685D02*
D03*
Y0D02*
D03*
X88583Y-9843D02*
D03*
X93504Y-19685D02*
D03*
X88583Y-29528D02*
D03*
X93504Y-39370D02*
D03*
X88583Y-49213D02*
D03*
X93504Y-59055D02*
D03*
X88583Y-68898D02*
D03*
X93504Y-78740D02*
D03*
X88583Y-88583D02*
D03*
X93504Y-98425D02*
D03*
X88583Y-108268D02*
D03*
X93504Y-118110D02*
D03*
X88583Y-127953D02*
D03*
X93504Y-137795D02*
D03*
X88583Y-147638D02*
D03*
X83661Y118110D02*
D03*
X78740Y108268D02*
D03*
X83661Y98425D02*
D03*
X78740Y88583D02*
D03*
X83661Y78740D02*
D03*
Y59055D02*
D03*
X78740Y49213D02*
D03*
X83661Y39370D02*
D03*
X78740Y29528D02*
D03*
X83661Y19685D02*
D03*
Y0D02*
D03*
Y-19685D02*
D03*
X78740Y-29528D02*
D03*
X83661Y-39370D02*
D03*
X78740Y-49213D02*
D03*
X83661Y-59055D02*
D03*
X78740Y-68898D02*
D03*
X83661Y-78740D02*
D03*
Y-98425D02*
D03*
X78740Y-108268D02*
D03*
X83661Y-137795D02*
D03*
X78740Y-147638D02*
D03*
X68898Y147638D02*
D03*
Y127953D02*
D03*
X73819Y118110D02*
D03*
X68898Y108268D02*
D03*
X73819Y39370D02*
D03*
X68898Y29528D02*
D03*
X73819Y0D02*
D03*
Y-19685D02*
D03*
X68898Y-29528D02*
D03*
X73819Y-39370D02*
D03*
X68898Y-49213D02*
D03*
Y-68898D02*
D03*
X73819Y-78740D02*
D03*
Y-98425D02*
D03*
X68898Y-108268D02*
D03*
Y-127953D02*
D03*
X73819Y-137795D02*
D03*
X68898Y-147638D02*
D03*
X59055Y147638D02*
D03*
X63976Y137795D02*
D03*
X59055Y127953D02*
D03*
X63976Y118110D02*
D03*
X59055Y108268D02*
D03*
Y29528D02*
D03*
Y-29528D02*
D03*
X63976Y-39370D02*
D03*
X59055Y-49213D02*
D03*
X63976Y-59055D02*
D03*
X59055Y-68898D02*
D03*
X63976Y-118110D02*
D03*
X59055Y-127953D02*
D03*
X63976Y-137795D02*
D03*
X59055Y-147638D02*
D03*
X49213Y147638D02*
D03*
X54134Y137795D02*
D03*
X49213Y127953D02*
D03*
X54134Y118110D02*
D03*
X49213Y108268D02*
D03*
Y49213D02*
D03*
X54134Y39370D02*
D03*
X49213Y29528D02*
D03*
X54134Y0D02*
D03*
Y-19685D02*
D03*
X49213Y-29528D02*
D03*
Y-108268D02*
D03*
X54134Y-118110D02*
D03*
X49213Y-127953D02*
D03*
X54134Y-137795D02*
D03*
X49213Y-147638D02*
D03*
X39370Y147638D02*
D03*
X44291Y137795D02*
D03*
X39370Y127953D02*
D03*
X44291Y118110D02*
D03*
X39370Y108268D02*
D03*
X44291Y59055D02*
D03*
X39370Y49213D02*
D03*
X44291Y39370D02*
D03*
X39370Y29528D02*
D03*
X44291Y19685D02*
D03*
X39370Y9843D02*
D03*
Y-9843D02*
D03*
X44291Y-19685D02*
D03*
Y-118110D02*
D03*
X39370Y-127953D02*
D03*
X44291Y-137795D02*
D03*
X39370Y-147638D02*
D03*
X29528Y147638D02*
D03*
X34449Y137795D02*
D03*
X29528Y127953D02*
D03*
X34449Y118110D02*
D03*
X29528Y108268D02*
D03*
X34449Y59055D02*
D03*
X29528Y49213D02*
D03*
X34449Y39370D02*
D03*
X29528Y-68898D02*
D03*
X34449Y-98425D02*
D03*
X29528Y-108268D02*
D03*
X34449Y-118110D02*
D03*
X29528Y-127953D02*
D03*
X34449Y-137795D02*
D03*
X29528Y-147638D02*
D03*
X19685Y147638D02*
D03*
X24606Y137795D02*
D03*
X19685Y127953D02*
D03*
X24606Y118110D02*
D03*
X19685Y108268D02*
D03*
X24606Y39370D02*
D03*
X19685Y-49213D02*
D03*
X24606Y-59055D02*
D03*
Y-98425D02*
D03*
X19685Y-108268D02*
D03*
X24606Y-137795D02*
D03*
X19685Y-147638D02*
D03*
X14764Y137795D02*
D03*
X9843Y108268D02*
D03*
Y-88583D02*
D03*
X14764Y-98425D02*
D03*
X9843Y-108268D02*
D03*
X14764Y-137795D02*
D03*
X9843Y-147638D02*
D03*
X0Y108268D02*
D03*
Y9843D02*
D03*
X4921Y0D02*
D03*
X0Y-9843D02*
D03*
X4921Y-19685D02*
D03*
X0Y-29528D02*
D03*
X4921Y-39370D02*
D03*
Y-78740D02*
D03*
X0Y-88583D02*
D03*
Y-108268D02*
D03*
X4921Y-118110D02*
D03*
X0Y-127953D02*
D03*
X4921Y-137795D02*
D03*
X0Y-147638D02*
D03*
X-9843Y108268D02*
D03*
Y49213D02*
D03*
Y29528D02*
D03*
X-4921Y19685D02*
D03*
X-9843Y9843D02*
D03*
Y-29528D02*
D03*
X-4921Y-39370D02*
D03*
Y-78740D02*
D03*
X-9843Y-88583D02*
D03*
Y-108268D02*
D03*
X-4921Y-118110D02*
D03*
Y-137795D02*
D03*
X-9843Y-147638D02*
D03*
X-19685Y147638D02*
D03*
X-14764Y137795D02*
D03*
X-19685Y127953D02*
D03*
Y108268D02*
D03*
Y49213D02*
D03*
Y-9843D02*
D03*
Y-29528D02*
D03*
X-14764Y-39370D02*
D03*
X-19685Y-49213D02*
D03*
Y-88583D02*
D03*
Y-108268D02*
D03*
X-14764Y-137795D02*
D03*
X-19685Y-147638D02*
D03*
X-29528Y147638D02*
D03*
X-24606Y137795D02*
D03*
X-29528Y127953D02*
D03*
X-24606Y118110D02*
D03*
X-29528Y108268D02*
D03*
X-24606Y39370D02*
D03*
X-29528Y29528D02*
D03*
Y-9843D02*
D03*
X-24606Y-19685D02*
D03*
X-29528Y-29528D02*
D03*
Y-49213D02*
D03*
X-24606Y-59055D02*
D03*
X-29528Y-68898D02*
D03*
Y-88583D02*
D03*
X-24606Y-98425D02*
D03*
X-29528Y-127953D02*
D03*
X-24606Y-137795D02*
D03*
X-29528Y-147638D02*
D03*
X-39370Y147638D02*
D03*
X-34449Y137795D02*
D03*
X-39370Y127953D02*
D03*
X-34449Y118110D02*
D03*
X-39370Y108268D02*
D03*
X-34449Y39370D02*
D03*
X-39370Y29528D02*
D03*
X-34449Y19685D02*
D03*
X-39370Y9843D02*
D03*
Y-9843D02*
D03*
Y-29528D02*
D03*
X-34449Y-118110D02*
D03*
X-39370Y-127953D02*
D03*
X-34449Y-137795D02*
D03*
X-39370Y-147638D02*
D03*
X-49213Y147638D02*
D03*
X-44291Y137795D02*
D03*
X-49213Y127953D02*
D03*
X-44291Y118110D02*
D03*
X-49213Y108268D02*
D03*
Y68898D02*
D03*
X-44291Y19685D02*
D03*
Y0D02*
D03*
Y-19685D02*
D03*
Y-98425D02*
D03*
X-49213Y-108268D02*
D03*
X-44291Y-118110D02*
D03*
X-49213Y-127953D02*
D03*
X-44291Y-137795D02*
D03*
X-49213Y-147638D02*
D03*
X-59055Y147638D02*
D03*
X-54134Y137795D02*
D03*
X-59055Y127953D02*
D03*
X-54134Y118110D02*
D03*
X-59055Y108268D02*
D03*
Y68898D02*
D03*
X-54134Y59055D02*
D03*
X-59055Y49213D02*
D03*
X-54134Y-98425D02*
D03*
Y-118110D02*
D03*
X-59055Y-127953D02*
D03*
X-54134Y-137795D02*
D03*
X-59055Y-147638D02*
D03*
X-68898Y147638D02*
D03*
X-63976Y137795D02*
D03*
X-68898Y127953D02*
D03*
X-63976Y118110D02*
D03*
X-68898Y108268D02*
D03*
X-63976Y98425D02*
D03*
Y78740D02*
D03*
Y59055D02*
D03*
X-68898Y49213D02*
D03*
X-63976Y39370D02*
D03*
X-68898Y-29528D02*
D03*
X-63976Y-39370D02*
D03*
X-68898Y-49213D02*
D03*
X-63976Y-59055D02*
D03*
X-68898Y-68898D02*
D03*
X-63976Y-118110D02*
D03*
X-68898Y-127953D02*
D03*
X-63976Y-137795D02*
D03*
X-68898Y-147638D02*
D03*
X-73819Y118110D02*
D03*
X-78740Y108268D02*
D03*
Y88583D02*
D03*
Y49213D02*
D03*
X-73819Y39370D02*
D03*
X-78740Y29528D02*
D03*
Y9843D02*
D03*
Y-9843D02*
D03*
X-73819Y-19685D02*
D03*
X-78740Y-29528D02*
D03*
X-73819Y-39370D02*
D03*
X-78740Y-49213D02*
D03*
Y-68898D02*
D03*
Y-108268D02*
D03*
X-73819Y-137795D02*
D03*
X-78740Y-147638D02*
D03*
X-88583Y127953D02*
D03*
X-83661Y118110D02*
D03*
X-88583Y108268D02*
D03*
X-83661Y98425D02*
D03*
X-88583Y88583D02*
D03*
X-83661Y78740D02*
D03*
X-88583Y68898D02*
D03*
X-83661Y59055D02*
D03*
X-88583Y49213D02*
D03*
X-83661Y39370D02*
D03*
X-88583Y29528D02*
D03*
X-83661Y19685D02*
D03*
X-88583Y9843D02*
D03*
X-83661Y0D02*
D03*
X-88583Y-9843D02*
D03*
X-83661Y-19685D02*
D03*
X-88583Y-29528D02*
D03*
X-83661Y-39370D02*
D03*
X-88583Y-49213D02*
D03*
X-83661Y-59055D02*
D03*
X-88583Y-68898D02*
D03*
X-83661Y-78740D02*
D03*
X-88583Y-88583D02*
D03*
X-83661Y-98425D02*
D03*
X-88583Y-108268D02*
D03*
Y-127953D02*
D03*
X-83661Y-137795D02*
D03*
X-88583Y-147638D02*
D03*
X63976Y76772D02*
D03*
Y70866D02*
D03*
Y64961D02*
D03*
X68898Y39370D02*
D03*
X60039D02*
D03*
X89567Y9843D02*
D03*
X63976Y83661D02*
D03*
Y59055D02*
D03*
X-27559Y7972D02*
D03*
X-75787Y60039D02*
D03*
X-78740Y20669D02*
D03*
X-57284Y-110236D02*
D03*
X-41221D02*
D03*
X64508Y-17717D02*
D03*
X83661Y-8858D02*
D03*
X39862Y94291D02*
D03*
X-39862Y98425D02*
D03*
X39862Y77756D02*
D03*
Y83661D02*
D03*
X36417Y77756D02*
D03*
Y83661D02*
D03*
X43307Y77756D02*
D03*
Y83661D02*
D03*
X-43307D02*
D03*
Y77756D02*
D03*
X-36417Y83661D02*
D03*
Y77756D02*
D03*
X-39862Y83661D02*
D03*
Y77756D02*
D03*
X-61299Y-98425D02*
D03*
Y-94488D02*
D03*
Y-106299D02*
D03*
Y-102362D02*
D03*
X61299Y-94488D02*
D03*
Y-98425D02*
D03*
Y-102362D02*
D03*
Y-106299D02*
D03*
X57284Y-94488D02*
D03*
Y-98425D02*
D03*
Y-102362D02*
D03*
Y-106299D02*
D03*
X45236Y-94488D02*
D03*
Y-98425D02*
D03*
Y-102362D02*
D03*
Y-106299D02*
D03*
X41221Y-94488D02*
D03*
Y-98425D02*
D03*
Y-102362D02*
D03*
Y-106299D02*
D03*
X-37205D02*
D03*
Y-102362D02*
D03*
Y-98425D02*
D03*
Y-94488D02*
D03*
X-74803Y-59055D02*
D03*
X-19685D02*
D03*
X74803D02*
D03*
X19685D02*
D03*
X-68405Y0D02*
D03*
X-63287D02*
D03*
X-58169D02*
D03*
X-53051D02*
D03*
X-60630Y21654D02*
D03*
X-63779Y25591D02*
D03*
X-66929Y29528D02*
D03*
X-8858Y71457D02*
D03*
X0Y71653D02*
D03*
X18110Y71457D02*
D03*
X9055D02*
D03*
X18110Y80709D02*
D03*
X0Y89764D02*
D03*
X-9055Y80709D02*
D03*
X9055D02*
D03*
X0D02*
D03*
X-18110D02*
D03*
Y71653D02*
D03*
Y62598D02*
D03*
X80709Y149213D02*
D03*
X87402Y146457D02*
D03*
X90158Y139764D02*
D03*
X87402Y133071D02*
D03*
X80709Y130315D02*
D03*
X74016Y133071D02*
D03*
Y146457D02*
D03*
X71260Y139764D02*
D03*
X-71260D02*
D03*
X-74016Y146457D02*
D03*
Y133071D02*
D03*
X-80709Y130315D02*
D03*
X-87402Y133071D02*
D03*
X-90158Y139764D02*
D03*
X-87402Y146457D02*
D03*
X-80709Y149213D02*
D03*
D40*
X64173Y2165D02*
D03*
Y-2165D02*
D03*
X59842Y2165D02*
D03*
Y-2165D02*
D03*
M02*
