M48
;Layer_Color=9474304
;FILE_FORMAT=2:4
INCH,TZ
;TYPE=PLATED
T01F00S00C0.0118
T02F00S00C0.0157
T03F00S00C0.0276
T04F00S00C0.0315
T05F00S00C0.0551
T06F00S00C0.0591
T07F00S00C0.1457
%
T01
X17717Y-12598
X18898
X20079
X19488Y-11417
X18307
X18898Y-10236
X20079
X20669Y-9055
X21850
X23031
X22441Y-7874
X21260
X20079
X19488Y-6693
X18307
X18898Y-5512
X20079
X21260
X22441
X23031Y-4331
X21850
X22441Y-3150
X21260
X20079
X18898
X19488Y-1969
X18307
Y-4331
X19488
X17717Y-5512
Y-7874
Y-10236
X19488Y-9055
X22441Y-10236
X23031Y-11417
Y-6693
X21850
Y-1969
X23031
X17126
X16535Y-787
X15354
X14173
X12992
X11811
X12402Y-1969
X11220
X10039
X8858
X7677
X7087Y-5512
Y-7874
X5906
X5315Y-9055
X5906Y-10236
X7087
Y-12598
X8268
X9449
X10630
X11811
X12992
X14173
X15354
X16535
X17126Y-11417
Y-9055
X16535Y-7874
X17126Y-6693
X16535Y-5512
X15354
X14173
X14764Y-4331
X17126
X16535Y-3150
X14764Y-1969
X12992Y-3150
X11811
X11220Y-4331
X11811Y-5512
X10630
X11220Y-6693
X12402
X12992Y-7874
X11811
X10630
X9449
X8858Y-6693
X11220Y-9055
X12402
X12992Y-10236
X14173
X15354
X14764Y-9055
Y-11417
X13583
X12402
X11220
X11811Y-10236
X10630
X5315Y-11417
X4134
X2953
X1772
X2362Y-12598
X3543
X4724
X5906
X2953Y-9055
X1772Y-6693
X2362Y-3150
X3543
X4134Y-4331
X5315
X1181Y-5512
X-0
X-591Y-4331
X-1181Y-3150
X-2953Y-1969
Y-4331
X-2362Y-5512
X-2953Y-6693
X-2362Y-7874
X-2953Y-9055
X-0Y-7874
X1181
Y-10236
X-0
X591Y-11417
X1181Y-12598
X-0
X591Y2756
X1181Y3937
X591Y5118
X-591
X-1181Y3937
X-2953Y5118
Y7480
Y9843
X-1772
X-591
X591
X1181Y11024
X-0
X591Y12205
X-2953
X-1181Y8661
X1181
Y6299
X-2953Y394
X3543Y3937
X4724
X5315Y2756
X7087Y1575
X10630
X11811
X12992
X13583Y394
X14764
X15945
X17126
X16535Y1575
X17126Y2756
X15945
Y5118
X17126
X16535Y6299
X17126Y7480
Y9843
X15945
X14764
X13583
X12402
X11220
X10039
Y12205
X11220
X12402
X13583
X14764
X15945
X17126
X16535Y11024
X15354
X14173
X12992
X11811
Y8661
X12402Y7480
X11220
X10039
X8858
X6496
X5906Y8661
X4724
X4134Y9843
X4724Y11024
X5906
X6496Y12205
X7677
X8858
X7677Y9843
X5315Y12205
X4134
X2953
X1772
X2362Y11024
X3543
X1772Y9843
Y7480
X3543Y6299
X4724
X5906
X2953Y5118
X10039
X11220
X12402
X12992Y6299
X11811
X10630
X14764Y5118
X18307
X19488
X20669
X21850
X23031
X22441Y6299
X21260
X20079
X18898
X17717
X18307Y7480
X19488
X20669
X21850
X23031
X22441Y8661
X21260
X20079
X18898
X17717
X18307Y9843
X19488
X20669
X21850
X23031
X18898Y11024
X17717
X18307Y12205
X19488
X20079Y3937
X21260
X22441
X23031Y2756
X21850
X20669
X19488
X18307
X18898Y3937
Y1575
X22441
X23031Y394
T02
X20591Y-12087
X20315Y-11417
X20591Y-10748
X21260Y-10472
X21929Y-10748
X22205Y-11417
X21929Y-12087
X21260Y-12362
X-906Y-12087
X-1575Y-12362
X-2244Y-12087
X-2520Y-11417
X-2244Y-10748
X-1575Y-10472
X-906Y-10748
X-630Y-11417
X-906Y10748
X-1575Y10472
X-2244Y10748
X-2520Y11417
X-2244Y12087
X-1575Y12362
X-906Y12087
X-630Y11417
X20315
X20591Y10748
X21260Y10472
X21929Y10748
X22205Y11417
X21929Y12087
X21260Y12362
X20591Y12087
T03
X2000Y-500
X1000Y-1000
X0Y-1500
Y-500
X-1000Y-1000
X-2000Y-500
Y500
X-1000Y1000
Y0
X0Y500
Y1500
X1000Y1000
Y0
X2000Y500
T04
X2500Y-2500
X-2500
Y2500
X2500
T05
X3937Y-8858
X8858Y-9843
Y-4921
X14764Y-2953
Y-7874
X-984
Y7874
X3937Y8858
X8858Y9843
Y4921
Y0
X14764Y2953
Y7874
X20669Y0
T06
X19665Y-1004
X21673
X15768Y-1949
X13760
Y-3957
X15768
Y-6870
X13760
Y-8878
X15768
X9862Y-8839
X7854
Y-10846
X9862
Y-5925
Y-3917
X7854
Y-5925
X4941Y-7854
X2933
Y-9862
X4941
X7854Y-1004
X9862
X20Y-6870
X-1988
Y-8878
X20
Y6870
Y8878
X-1988
Y6870
X2933Y7854
Y9862
X4941
Y7854
X7854Y8839
Y10846
X9862
Y8839
Y5925
X7854
Y3917
X9862
Y1004
X7854
X13760Y1949
Y3957
X15768
Y1949
Y6870
Y8878
X13760
Y6870
X19665Y1004
X21673
T07
X21260Y-11417
X-1575
Y11417
X21260
M30
