G04*
G04 #@! TF.GenerationSoftware,Altium Limited,Altium Designer,23.11.1 (41)*
G04*
G04 Layer_Physical_Order=1*
G04 Layer_Color=255*
%FSLAX25Y25*%
%MOIN*%
G70*
G04*
G04 #@! TF.SameCoordinates,C9437007-6874-4410-A1E4-39502FECBC63*
G04*
G04*
G04 #@! TF.FilePolarity,Positive*
G04*
G01*
G75*
%ADD19C,0.00984*%
%ADD20C,0.23622*%
%ADD21C,0.08661*%
%ADD22C,0.07874*%
%ADD23C,0.04724*%
%ADD24C,0.05118*%
%ADD25C,0.02362*%
%ADD26C,0.03150*%
G36*
X235418Y117778D02*
Y-117778D01*
X216203Y-136993D01*
X-19353D01*
X-38567Y-117778D01*
Y117778D01*
X-19353Y136993D01*
X216203D01*
X235418Y117778D01*
D02*
G37*
%LPC*%
G36*
X213567Y126484D02*
X212848D01*
Y114423D01*
X224909D01*
Y115142D01*
X224606Y117056D01*
X224008Y118899D01*
X223128Y120626D01*
X221989Y122193D01*
X220619Y123564D01*
X219051Y124703D01*
X217324Y125582D01*
X215481Y126181D01*
X213567Y126484D01*
D02*
G37*
G36*
X212348D02*
X211630D01*
X209716Y126181D01*
X207873Y125582D01*
X206146Y124703D01*
X204578Y123564D01*
X203208Y122193D01*
X202069Y120626D01*
X201189Y118899D01*
X200591Y117056D01*
X200287Y115142D01*
Y114423D01*
X212348D01*
Y126484D01*
D02*
G37*
G36*
X-14779D02*
X-15498D01*
Y114423D01*
X-3437D01*
Y115142D01*
X-3740Y117056D01*
X-4339Y118899D01*
X-5219Y120626D01*
X-6358Y122193D01*
X-7728Y123564D01*
X-9296Y124703D01*
X-11022Y125582D01*
X-12865Y126181D01*
X-14779Y126484D01*
D02*
G37*
G36*
X-15998D02*
X-16717D01*
X-18631Y126181D01*
X-20474Y125582D01*
X-22200Y124703D01*
X-23768Y123564D01*
X-25138Y122193D01*
X-26277Y120626D01*
X-27157Y118899D01*
X-27756Y117056D01*
X-28059Y115142D01*
Y114423D01*
X-15998D01*
Y126484D01*
D02*
G37*
G36*
X99258Y113295D02*
X98872D01*
Y108715D01*
X103453D01*
Y109100D01*
X103124Y110329D01*
X102488Y111431D01*
X101588Y112330D01*
X100487Y112966D01*
X99258Y113295D01*
D02*
G37*
G36*
X98372D02*
X97986D01*
X96758Y112966D01*
X95656Y112330D01*
X94757Y111431D01*
X94121Y110329D01*
X93791Y109100D01*
Y108715D01*
X98372D01*
Y113295D01*
D02*
G37*
G36*
X79179D02*
X78793D01*
Y108715D01*
X83374D01*
Y109100D01*
X83045Y110329D01*
X82409Y111431D01*
X81509Y112330D01*
X80408Y112966D01*
X79179Y113295D01*
D02*
G37*
G36*
X78293D02*
X77907D01*
X76679Y112966D01*
X75577Y112330D01*
X74678Y111431D01*
X74042Y110329D01*
X73713Y109100D01*
Y108715D01*
X78293D01*
Y113295D01*
D02*
G37*
G36*
X103453Y108215D02*
X98872D01*
Y103634D01*
X99258D01*
X100487Y103963D01*
X101588Y104599D01*
X102488Y105499D01*
X103124Y106600D01*
X103453Y107829D01*
Y108215D01*
D02*
G37*
G36*
X98372D02*
X93791D01*
Y107829D01*
X94121Y106600D01*
X94757Y105499D01*
X95656Y104599D01*
X96758Y103963D01*
X97986Y103634D01*
X98372D01*
Y108215D01*
D02*
G37*
G36*
X83374D02*
X78793D01*
Y103634D01*
X79179D01*
X80408Y103963D01*
X81509Y104599D01*
X82409Y105499D01*
X83045Y106600D01*
X83374Y107829D01*
Y108215D01*
D02*
G37*
G36*
X78293D02*
X73713D01*
Y107829D01*
X74042Y106600D01*
X74678Y105499D01*
X75577Y104599D01*
X76679Y103963D01*
X77907Y103634D01*
X78293D01*
Y108215D01*
D02*
G37*
G36*
X224909Y113923D02*
X212848D01*
Y101862D01*
X213567D01*
X215481Y102165D01*
X217324Y102764D01*
X219051Y103644D01*
X220619Y104783D01*
X221989Y106153D01*
X223128Y107721D01*
X224008Y109447D01*
X224606Y111290D01*
X224909Y113204D01*
Y113923D01*
D02*
G37*
G36*
X212348D02*
X200287D01*
Y113204D01*
X200591Y111290D01*
X201189Y109447D01*
X202069Y107721D01*
X203208Y106153D01*
X204578Y104783D01*
X206146Y103644D01*
X207873Y102764D01*
X209716Y102165D01*
X211630Y101862D01*
X212348D01*
Y113923D01*
D02*
G37*
G36*
X-3437Y113923D02*
X-15498D01*
Y101862D01*
X-14779D01*
X-12865Y102165D01*
X-11022Y102764D01*
X-9296Y103644D01*
X-7728Y104783D01*
X-6358Y106153D01*
X-5219Y107721D01*
X-4339Y109447D01*
X-3740Y111290D01*
X-3437Y113204D01*
Y113923D01*
D02*
G37*
G36*
X-15998D02*
X-28059D01*
Y113204D01*
X-27756Y111290D01*
X-27157Y109447D01*
X-26277Y107721D01*
X-25138Y106153D01*
X-23768Y104783D01*
X-22200Y103644D01*
X-20474Y102764D01*
X-18631Y102165D01*
X-16717Y101862D01*
X-15998D01*
Y113923D01*
D02*
G37*
G36*
X50045Y103453D02*
X49659D01*
Y98872D01*
X54240D01*
Y99258D01*
X53911Y100487D01*
X53275Y101588D01*
X52376Y102488D01*
X51274Y103124D01*
X50045Y103453D01*
D02*
G37*
G36*
X49159D02*
X48774D01*
X47545Y103124D01*
X46443Y102488D01*
X45544Y101588D01*
X44908Y100487D01*
X44579Y99258D01*
Y98872D01*
X49159D01*
Y103453D01*
D02*
G37*
G36*
X29967D02*
X29581D01*
Y98872D01*
X34161D01*
Y99258D01*
X33832Y100487D01*
X33196Y101588D01*
X32297Y102488D01*
X31195Y103124D01*
X29967Y103453D01*
D02*
G37*
G36*
X29081D02*
X28695D01*
X27466Y103124D01*
X26365Y102488D01*
X25465Y101588D01*
X24829Y100487D01*
X24500Y99258D01*
Y98872D01*
X29081D01*
Y103453D01*
D02*
G37*
G36*
X54240Y98372D02*
X49659D01*
Y93791D01*
X50045D01*
X51274Y94121D01*
X52376Y94757D01*
X53275Y95656D01*
X53911Y96758D01*
X54240Y97986D01*
Y98372D01*
D02*
G37*
G36*
X49159D02*
X44579D01*
Y97986D01*
X44908Y96758D01*
X45544Y95656D01*
X46443Y94757D01*
X47545Y94121D01*
X48774Y93791D01*
X49159D01*
Y98372D01*
D02*
G37*
G36*
X34161D02*
X29581D01*
Y93791D01*
X29967D01*
X31195Y94121D01*
X32297Y94757D01*
X33196Y95656D01*
X33832Y96758D01*
X34161Y97986D01*
Y98372D01*
D02*
G37*
G36*
X29081D02*
X24500D01*
Y97986D01*
X24829Y96758D01*
X25465Y95656D01*
X26365Y94757D01*
X27466Y94121D01*
X28695Y93791D01*
X29081D01*
Y98372D01*
D02*
G37*
G36*
X158313Y93610D02*
X157927D01*
Y89030D01*
X162508D01*
Y89416D01*
X162179Y90644D01*
X161543Y91746D01*
X160643Y92645D01*
X159542Y93281D01*
X158313Y93610D01*
D02*
G37*
G36*
X157427D02*
X157041D01*
X155813Y93281D01*
X154711Y92645D01*
X153812Y91746D01*
X153176Y90644D01*
X152847Y89416D01*
Y89030D01*
X157427D01*
Y93610D01*
D02*
G37*
G36*
X138234D02*
X137848D01*
Y89030D01*
X142429D01*
Y89416D01*
X142100Y90644D01*
X141464Y91746D01*
X140565Y92645D01*
X139463Y93281D01*
X138234Y93610D01*
D02*
G37*
G36*
X137348D02*
X136962D01*
X135734Y93281D01*
X134632Y92645D01*
X133733Y91746D01*
X133097Y90644D01*
X132768Y89416D01*
Y89030D01*
X137348D01*
Y93610D01*
D02*
G37*
G36*
X833D02*
X447D01*
Y89030D01*
X5028D01*
Y89416D01*
X4698Y90644D01*
X4062Y91746D01*
X3163Y92645D01*
X2061Y93281D01*
X833Y93610D01*
D02*
G37*
G36*
X-53D02*
X-439D01*
X-1668Y93281D01*
X-2769Y92645D01*
X-3669Y91746D01*
X-4305Y90644D01*
X-4634Y89416D01*
Y89030D01*
X-53D01*
Y93610D01*
D02*
G37*
G36*
X-19246D02*
X-19632D01*
Y89030D01*
X-15051D01*
Y89416D01*
X-15380Y90644D01*
X-16016Y91746D01*
X-16916Y92645D01*
X-18017Y93281D01*
X-19246Y93610D01*
D02*
G37*
G36*
X-20132D02*
X-20518D01*
X-21746Y93281D01*
X-22848Y92645D01*
X-23747Y91746D01*
X-24383Y90644D01*
X-24713Y89416D01*
Y89030D01*
X-20132D01*
Y93610D01*
D02*
G37*
G36*
X99258Y93217D02*
X98872D01*
Y88636D01*
X103453D01*
Y89022D01*
X103124Y90250D01*
X102488Y91352D01*
X101588Y92251D01*
X100487Y92887D01*
X99258Y93217D01*
D02*
G37*
G36*
X98372D02*
X97986D01*
X96758Y92887D01*
X95656Y92251D01*
X94757Y91352D01*
X94121Y90250D01*
X93791Y89022D01*
Y88636D01*
X98372D01*
Y93217D01*
D02*
G37*
G36*
X79179D02*
X78793D01*
Y88636D01*
X83374D01*
Y89022D01*
X83045Y90250D01*
X82409Y91352D01*
X81509Y92251D01*
X80408Y92887D01*
X79179Y93217D01*
D02*
G37*
G36*
X78293D02*
X77907D01*
X76679Y92887D01*
X75577Y92251D01*
X74678Y91352D01*
X74042Y90250D01*
X73713Y89022D01*
Y88636D01*
X78293D01*
Y93217D01*
D02*
G37*
G36*
X162508Y88529D02*
X157927D01*
Y83949D01*
X158313D01*
X159542Y84278D01*
X160643Y84914D01*
X161543Y85813D01*
X162179Y86915D01*
X162508Y88144D01*
Y88529D01*
D02*
G37*
G36*
X157427D02*
X152847D01*
Y88144D01*
X153176Y86915D01*
X153812Y85813D01*
X154711Y84914D01*
X155813Y84278D01*
X157041Y83949D01*
X157427D01*
Y88529D01*
D02*
G37*
G36*
X142429D02*
X137848D01*
Y83949D01*
X138234D01*
X139463Y84278D01*
X140565Y84914D01*
X141464Y85813D01*
X142100Y86915D01*
X142429Y88144D01*
Y88529D01*
D02*
G37*
G36*
X137348D02*
X132768D01*
Y88144D01*
X133097Y86915D01*
X133733Y85813D01*
X134632Y84914D01*
X135734Y84278D01*
X136962Y83949D01*
X137348D01*
Y88529D01*
D02*
G37*
G36*
X5028D02*
X447D01*
Y83949D01*
X833D01*
X2061Y84278D01*
X3163Y84914D01*
X4062Y85813D01*
X4698Y86915D01*
X5028Y88144D01*
Y88529D01*
D02*
G37*
G36*
X-53D02*
X-4634D01*
Y88144D01*
X-4305Y86915D01*
X-3669Y85813D01*
X-2769Y84914D01*
X-1668Y84278D01*
X-439Y83949D01*
X-53D01*
Y88529D01*
D02*
G37*
G36*
X-15051D02*
X-19632D01*
Y83949D01*
X-19246D01*
X-18017Y84278D01*
X-16916Y84914D01*
X-16016Y85813D01*
X-15380Y86915D01*
X-15051Y88144D01*
Y88529D01*
D02*
G37*
G36*
X-20132D02*
X-24713D01*
Y88144D01*
X-24383Y86915D01*
X-23747Y85813D01*
X-22848Y84914D01*
X-21746Y84278D01*
X-20518Y83949D01*
X-20132D01*
Y88529D01*
D02*
G37*
G36*
X103453Y88136D02*
X98872D01*
Y83555D01*
X99258D01*
X100487Y83884D01*
X101588Y84520D01*
X102488Y85420D01*
X103124Y86521D01*
X103453Y87750D01*
Y88136D01*
D02*
G37*
G36*
X98372D02*
X93791D01*
Y87750D01*
X94121Y86521D01*
X94757Y85420D01*
X95656Y84520D01*
X96758Y83884D01*
X97986Y83555D01*
X98372D01*
Y88136D01*
D02*
G37*
G36*
X83374D02*
X78793D01*
Y83555D01*
X79179D01*
X80408Y83884D01*
X81509Y84520D01*
X82409Y85420D01*
X83045Y86521D01*
X83374Y87750D01*
Y88136D01*
D02*
G37*
G36*
X78293D02*
X73713D01*
Y87750D01*
X74042Y86521D01*
X74678Y85420D01*
X75577Y84520D01*
X76679Y83884D01*
X77907Y83555D01*
X78293D01*
Y88136D01*
D02*
G37*
G36*
X50045Y83374D02*
X49659D01*
Y78793D01*
X54240D01*
Y79179D01*
X53911Y80408D01*
X53275Y81509D01*
X52376Y82409D01*
X51274Y83045D01*
X50045Y83374D01*
D02*
G37*
G36*
X49159D02*
X48774D01*
X47545Y83045D01*
X46443Y82409D01*
X45544Y81509D01*
X44908Y80408D01*
X44579Y79179D01*
Y78793D01*
X49159D01*
Y83374D01*
D02*
G37*
G36*
X29967D02*
X29581D01*
Y78793D01*
X34161D01*
Y79179D01*
X33832Y80408D01*
X33196Y81509D01*
X32297Y82409D01*
X31195Y83045D01*
X29967Y83374D01*
D02*
G37*
G36*
X29081D02*
X28695D01*
X27466Y83045D01*
X26365Y82409D01*
X25465Y81509D01*
X24829Y80408D01*
X24500Y79179D01*
Y78793D01*
X29081D01*
Y83374D01*
D02*
G37*
G36*
X54240Y78293D02*
X49659D01*
Y73713D01*
X50045D01*
X51274Y74042D01*
X52376Y74678D01*
X53275Y75577D01*
X53911Y76679D01*
X54240Y77907D01*
Y78293D01*
D02*
G37*
G36*
X49159D02*
X44579D01*
Y77907D01*
X44908Y76679D01*
X45544Y75577D01*
X46443Y74678D01*
X47545Y74042D01*
X48774Y73713D01*
X49159D01*
Y78293D01*
D02*
G37*
G36*
X34161D02*
X29581D01*
Y73713D01*
X29967D01*
X31195Y74042D01*
X32297Y74678D01*
X33196Y75577D01*
X33832Y76679D01*
X34161Y77907D01*
Y78293D01*
D02*
G37*
G36*
X29081D02*
X24500D01*
Y77907D01*
X24829Y76679D01*
X25465Y75577D01*
X26365Y74678D01*
X27466Y74042D01*
X28695Y73713D01*
X29081D01*
Y78293D01*
D02*
G37*
G36*
X158313Y73532D02*
X157927D01*
Y68951D01*
X162508D01*
Y69337D01*
X162179Y70565D01*
X161543Y71667D01*
X160643Y72566D01*
X159542Y73202D01*
X158313Y73532D01*
D02*
G37*
G36*
X157427D02*
X157041D01*
X155813Y73202D01*
X154711Y72566D01*
X153812Y71667D01*
X153176Y70565D01*
X152847Y69337D01*
Y68951D01*
X157427D01*
Y73532D01*
D02*
G37*
G36*
X138234D02*
X137848D01*
Y68951D01*
X142429D01*
Y69337D01*
X142100Y70565D01*
X141464Y71667D01*
X140565Y72566D01*
X139463Y73202D01*
X138234Y73532D01*
D02*
G37*
G36*
X137348D02*
X136962D01*
X135734Y73202D01*
X134632Y72566D01*
X133733Y71667D01*
X133097Y70565D01*
X132768Y69337D01*
Y68951D01*
X137348D01*
Y73532D01*
D02*
G37*
G36*
X833D02*
X447D01*
Y68951D01*
X5028D01*
Y69337D01*
X4698Y70565D01*
X4062Y71667D01*
X3163Y72566D01*
X2061Y73202D01*
X833Y73532D01*
D02*
G37*
G36*
X-53D02*
X-439D01*
X-1668Y73202D01*
X-2769Y72566D01*
X-3669Y71667D01*
X-4305Y70565D01*
X-4634Y69337D01*
Y68951D01*
X-53D01*
Y73532D01*
D02*
G37*
G36*
X-19246D02*
X-19632D01*
Y68951D01*
X-15051D01*
Y69337D01*
X-15380Y70565D01*
X-16016Y71667D01*
X-16916Y72566D01*
X-18017Y73202D01*
X-19246Y73532D01*
D02*
G37*
G36*
X-20132D02*
X-20518D01*
X-21746Y73202D01*
X-22848Y72566D01*
X-23747Y71667D01*
X-24383Y70565D01*
X-24713Y69337D01*
Y68951D01*
X-20132D01*
Y73532D01*
D02*
G37*
G36*
X162508Y68451D02*
X157927D01*
Y63870D01*
X158313D01*
X159542Y64199D01*
X160643Y64835D01*
X161543Y65735D01*
X162179Y66836D01*
X162508Y68065D01*
Y68451D01*
D02*
G37*
G36*
X157427D02*
X152847D01*
Y68065D01*
X153176Y66836D01*
X153812Y65735D01*
X154711Y64835D01*
X155813Y64199D01*
X157041Y63870D01*
X157427D01*
Y68451D01*
D02*
G37*
G36*
X142429D02*
X137848D01*
Y63870D01*
X138234D01*
X139463Y64199D01*
X140565Y64835D01*
X141464Y65735D01*
X142100Y66836D01*
X142429Y68065D01*
Y68451D01*
D02*
G37*
G36*
X137348D02*
X132768D01*
Y68065D01*
X133097Y66836D01*
X133733Y65735D01*
X134632Y64835D01*
X135734Y64199D01*
X136962Y63870D01*
X137348D01*
Y68451D01*
D02*
G37*
G36*
X5028D02*
X447D01*
Y63870D01*
X833D01*
X2061Y64199D01*
X3163Y64835D01*
X4062Y65735D01*
X4698Y66836D01*
X5028Y68065D01*
Y68451D01*
D02*
G37*
G36*
X-53D02*
X-4634D01*
Y68065D01*
X-4305Y66836D01*
X-3669Y65735D01*
X-2769Y64835D01*
X-1668Y64199D01*
X-439Y63870D01*
X-53D01*
Y68451D01*
D02*
G37*
G36*
X-15051D02*
X-19632D01*
Y63870D01*
X-19246D01*
X-18017Y64199D01*
X-16916Y64835D01*
X-16016Y65735D01*
X-15380Y66836D01*
X-15051Y68065D01*
Y68451D01*
D02*
G37*
G36*
X-20132D02*
X-24713D01*
Y68065D01*
X-24383Y66836D01*
X-23747Y65735D01*
X-22848Y64835D01*
X-21746Y64199D01*
X-20518Y63870D01*
X-20132D01*
Y68451D01*
D02*
G37*
G36*
X99258Y64083D02*
X98872D01*
Y59502D01*
X103453D01*
Y59888D01*
X103124Y61116D01*
X102488Y62218D01*
X101588Y63117D01*
X100487Y63753D01*
X99258Y64083D01*
D02*
G37*
G36*
X98372D02*
X97986D01*
X96758Y63753D01*
X95656Y63117D01*
X94757Y62218D01*
X94121Y61116D01*
X93791Y59888D01*
Y59502D01*
X98372D01*
Y64083D01*
D02*
G37*
G36*
X79179D02*
X78793D01*
Y59502D01*
X83374D01*
Y59888D01*
X83045Y61116D01*
X82409Y62218D01*
X81509Y63117D01*
X80408Y63753D01*
X79179Y64083D01*
D02*
G37*
G36*
X78293D02*
X77907D01*
X76679Y63753D01*
X75577Y63117D01*
X74678Y62218D01*
X74042Y61116D01*
X73713Y59888D01*
Y59502D01*
X78293D01*
Y64083D01*
D02*
G37*
G36*
X103453Y59002D02*
X98872D01*
Y54421D01*
X99258D01*
X100487Y54751D01*
X101588Y55386D01*
X102488Y56286D01*
X103124Y57387D01*
X103453Y58616D01*
Y59002D01*
D02*
G37*
G36*
X98372D02*
X93791D01*
Y58616D01*
X94121Y57387D01*
X94757Y56286D01*
X95656Y55386D01*
X96758Y54751D01*
X97986Y54421D01*
X98372D01*
Y59002D01*
D02*
G37*
G36*
X83374D02*
X78793D01*
Y54421D01*
X79179D01*
X80408Y54751D01*
X81509Y55386D01*
X82409Y56286D01*
X83045Y57387D01*
X83374Y58616D01*
Y59002D01*
D02*
G37*
G36*
X78293D02*
X73713D01*
Y58616D01*
X74042Y57387D01*
X74678Y56286D01*
X75577Y55386D01*
X76679Y54751D01*
X77907Y54421D01*
X78293D01*
Y59002D01*
D02*
G37*
G36*
X89167Y53650D02*
X87998D01*
X86870Y53347D01*
X85858Y52763D01*
X85032Y51937D01*
X84448Y50925D01*
X84392Y50718D01*
X67913D01*
X67337Y50603D01*
X66849Y50277D01*
X33825Y17253D01*
X7874D01*
X7298Y17139D01*
X6810Y16812D01*
X-771Y9231D01*
X-1098Y8743D01*
X-1212Y8167D01*
Y7605D01*
X-1757Y7290D01*
X-2290Y6757D01*
X-2667Y6105D01*
X-2862Y5377D01*
Y4623D01*
X-2667Y3895D01*
X-2290Y3243D01*
X-1757Y2710D01*
X-1105Y2333D01*
X-377Y2138D01*
X377D01*
X1105Y2333D01*
X1757Y2710D01*
X2290Y3243D01*
X2667Y3895D01*
X2862Y4623D01*
Y5377D01*
X2667Y6105D01*
X2290Y6757D01*
X1798Y7249D01*
Y7543D01*
X8497Y14243D01*
X34449D01*
X35025Y14357D01*
X35513Y14684D01*
X68537Y47707D01*
X84392D01*
X84448Y47500D01*
X85032Y46488D01*
X85858Y45662D01*
X86870Y45078D01*
X87998Y44776D01*
X89167D01*
X90295Y45078D01*
X91307Y45662D01*
X92133Y46488D01*
X92717Y47500D01*
X93020Y48629D01*
Y49797D01*
X92717Y50925D01*
X92133Y51937D01*
X91307Y52763D01*
X90295Y53347D01*
X89167Y53650D01*
D02*
G37*
G36*
X158313Y44398D02*
X157927D01*
Y39817D01*
X162508D01*
Y40203D01*
X162179Y41431D01*
X161543Y42533D01*
X160643Y43433D01*
X159542Y44068D01*
X158313Y44398D01*
D02*
G37*
G36*
X157427D02*
X157041D01*
X155813Y44068D01*
X154711Y43433D01*
X153812Y42533D01*
X153176Y41431D01*
X152847Y40203D01*
Y39817D01*
X157427D01*
Y44398D01*
D02*
G37*
G36*
X138234D02*
X137848D01*
Y39817D01*
X142429D01*
Y40203D01*
X142100Y41431D01*
X141464Y42533D01*
X140565Y43433D01*
X139463Y44068D01*
X138234Y44398D01*
D02*
G37*
G36*
X137348D02*
X136962D01*
X135734Y44068D01*
X134632Y43433D01*
X133733Y42533D01*
X133097Y41431D01*
X132768Y40203D01*
Y39817D01*
X137348D01*
Y44398D01*
D02*
G37*
G36*
X99258Y44004D02*
X98872D01*
Y39423D01*
X103453D01*
Y39809D01*
X103124Y41038D01*
X102488Y42139D01*
X101588Y43039D01*
X100487Y43675D01*
X99258Y44004D01*
D02*
G37*
G36*
X98372D02*
X97986D01*
X96758Y43675D01*
X95656Y43039D01*
X94757Y42139D01*
X94121Y41038D01*
X93791Y39809D01*
Y39423D01*
X98372D01*
Y44004D01*
D02*
G37*
G36*
X79179D02*
X78793D01*
Y39423D01*
X83374D01*
Y39809D01*
X83045Y41038D01*
X82409Y42139D01*
X81509Y43039D01*
X80408Y43675D01*
X79179Y44004D01*
D02*
G37*
G36*
X78293D02*
X77907D01*
X76679Y43675D01*
X75577Y43039D01*
X74678Y42139D01*
X74042Y41038D01*
X73713Y39809D01*
Y39423D01*
X78293D01*
Y44004D01*
D02*
G37*
G36*
X162508Y39317D02*
X157927D01*
Y34736D01*
X158313D01*
X159542Y35065D01*
X160643Y35701D01*
X161543Y36601D01*
X162179Y37702D01*
X162508Y38931D01*
Y39317D01*
D02*
G37*
G36*
X157427D02*
X152847D01*
Y38931D01*
X153176Y37702D01*
X153812Y36601D01*
X154711Y35701D01*
X155813Y35065D01*
X157041Y34736D01*
X157427D01*
Y39317D01*
D02*
G37*
G36*
X142429D02*
X137848D01*
Y34736D01*
X138234D01*
X139463Y35065D01*
X140565Y35701D01*
X141464Y36601D01*
X142100Y37702D01*
X142429Y38931D01*
Y39317D01*
D02*
G37*
G36*
X137348D02*
X132768D01*
Y38931D01*
X133097Y37702D01*
X133733Y36601D01*
X134632Y35701D01*
X135734Y35065D01*
X136962Y34736D01*
X137348D01*
Y39317D01*
D02*
G37*
G36*
X103453Y38923D02*
X98872D01*
Y34343D01*
X99258D01*
X100487Y34672D01*
X101588Y35308D01*
X102488Y36207D01*
X103124Y37309D01*
X103453Y38537D01*
Y38923D01*
D02*
G37*
G36*
X98372D02*
X93791D01*
Y38537D01*
X94121Y37309D01*
X94757Y36207D01*
X95656Y35308D01*
X96758Y34672D01*
X97986Y34343D01*
X98372D01*
Y38923D01*
D02*
G37*
G36*
X83374D02*
X78793D01*
Y34343D01*
X79179D01*
X80408Y34672D01*
X81509Y35308D01*
X82409Y36207D01*
X83045Y37309D01*
X83374Y38537D01*
Y38923D01*
D02*
G37*
G36*
X78293D02*
X73713D01*
Y38537D01*
X74042Y37309D01*
X74678Y36207D01*
X75577Y35308D01*
X76679Y34672D01*
X77907Y34343D01*
X78293D01*
Y38923D01*
D02*
G37*
G36*
X-9258Y83177D02*
X-10427D01*
X-11555Y82875D01*
X-12567Y82291D01*
X-13393Y81464D01*
X-13977Y80453D01*
X-14279Y79324D01*
Y78156D01*
X-13977Y77027D01*
X-13393Y76016D01*
X-12567Y75190D01*
X-11555Y74606D01*
X-11348Y74550D01*
Y60663D01*
X-21064Y50946D01*
X-21391Y50458D01*
X-21505Y49882D01*
Y25708D01*
X-22005Y25643D01*
X-22150Y26181D01*
X-22552Y26878D01*
X-23122Y27448D01*
X-23819Y27850D01*
X-24597Y28059D01*
X-24750D01*
Y25000D01*
Y21941D01*
X-24597D01*
X-23819Y22150D01*
X-23122Y22552D01*
X-22552Y23122D01*
X-22150Y23819D01*
X-22005Y24357D01*
X-21505Y24292D01*
Y7436D01*
X-21757Y7290D01*
X-22290Y6757D01*
X-22667Y6105D01*
X-22862Y5377D01*
Y4623D01*
X-22667Y3895D01*
X-22290Y3243D01*
X-21757Y2710D01*
X-21105Y2333D01*
X-20377Y2138D01*
X-19623D01*
X-18895Y2333D01*
X-18243Y2710D01*
X-17710Y3243D01*
X-17333Y3895D01*
X-17138Y4623D01*
Y5377D01*
X-17333Y6105D01*
X-17710Y6757D01*
X-18243Y7290D01*
X-18495Y7436D01*
Y49258D01*
X-8778Y58975D01*
X-8452Y59463D01*
X-8337Y60039D01*
Y74550D01*
X-8130Y74606D01*
X-7118Y75190D01*
X-6292Y76016D01*
X-5708Y77027D01*
X-5406Y78156D01*
Y79324D01*
X-5708Y80453D01*
X-6292Y81464D01*
X-7118Y82291D01*
X-8130Y82875D01*
X-9258Y83177D01*
D02*
G37*
G36*
X25403Y28059D02*
X25250D01*
Y25250D01*
X28059D01*
Y25403D01*
X27850Y26181D01*
X27448Y26878D01*
X26878Y27448D01*
X26181Y27850D01*
X25403Y28059D01*
D02*
G37*
G36*
X24750D02*
X24597D01*
X23819Y27850D01*
X23122Y27448D01*
X22552Y26878D01*
X22150Y26181D01*
X21941Y25403D01*
Y25250D01*
X24750D01*
Y28059D01*
D02*
G37*
G36*
X-25250D02*
X-25403D01*
X-26181Y27850D01*
X-26878Y27448D01*
X-27448Y26878D01*
X-27850Y26181D01*
X-28059Y25403D01*
Y25250D01*
X-25250D01*
Y28059D01*
D02*
G37*
G36*
X148222Y33965D02*
X147054D01*
X145925Y33662D01*
X144913Y33078D01*
X144087Y32252D01*
X143503Y31240D01*
X143201Y30112D01*
Y28943D01*
X143503Y27815D01*
X143611Y27629D01*
X143077Y27096D01*
X72835D01*
X72259Y26981D01*
X71770Y26655D01*
X51621Y6505D01*
X22436D01*
X22290Y6757D01*
X21757Y7290D01*
X21105Y7667D01*
X20377Y7862D01*
X19623D01*
X18895Y7667D01*
X18243Y7290D01*
X17710Y6757D01*
X17333Y6105D01*
X17138Y5377D01*
Y4623D01*
X17333Y3895D01*
X17710Y3243D01*
X18243Y2710D01*
X18895Y2333D01*
X19623Y2138D01*
X20377D01*
X21105Y2333D01*
X21757Y2710D01*
X22290Y3243D01*
X22436Y3495D01*
X52244D01*
X52820Y3609D01*
X53308Y3936D01*
X73458Y24085D01*
X134899D01*
X135033Y23585D01*
X134632Y23354D01*
X133733Y22454D01*
X133097Y21353D01*
X132768Y20124D01*
Y19738D01*
X142429D01*
Y20124D01*
X142100Y21353D01*
X141464Y22454D01*
X140565Y23354D01*
X140164Y23585D01*
X140297Y24085D01*
X143701D01*
X144277Y24200D01*
X144765Y24526D01*
X145739Y25500D01*
X145925Y25393D01*
X147054Y25091D01*
X148222D01*
X149350Y25393D01*
X150362Y25977D01*
X151188Y26803D01*
X151772Y27815D01*
X152075Y28943D01*
Y30112D01*
X151772Y31240D01*
X151188Y32252D01*
X150362Y33078D01*
X149350Y33662D01*
X148222Y33965D01*
D02*
G37*
G36*
X28059Y24750D02*
X25250D01*
Y21941D01*
X25403D01*
X26181Y22150D01*
X26878Y22552D01*
X27448Y23122D01*
X27850Y23819D01*
X28059Y24597D01*
Y24750D01*
D02*
G37*
G36*
X24750D02*
X21941D01*
Y24597D01*
X22150Y23819D01*
X22552Y23122D01*
X23122Y22552D01*
X23819Y22150D01*
X24597Y21941D01*
X24750D01*
Y24750D01*
D02*
G37*
G36*
X-25250D02*
X-28059D01*
Y24597D01*
X-27850Y23819D01*
X-27448Y23122D01*
X-26878Y22552D01*
X-26181Y22150D01*
X-25403Y21941D01*
X-25250D01*
Y24750D01*
D02*
G37*
G36*
X158313Y24319D02*
X157927D01*
Y19738D01*
X162508D01*
Y20124D01*
X162179Y21353D01*
X161543Y22454D01*
X160643Y23354D01*
X159542Y23990D01*
X158313Y24319D01*
D02*
G37*
G36*
X157427D02*
X157041D01*
X155813Y23990D01*
X154711Y23354D01*
X153812Y22454D01*
X153176Y21353D01*
X152847Y20124D01*
Y19738D01*
X157427D01*
Y24319D01*
D02*
G37*
G36*
X89167Y102862D02*
X87998D01*
X86870Y102560D01*
X85858Y101976D01*
X85032Y101150D01*
X84448Y100138D01*
X84146Y99009D01*
Y97841D01*
X84448Y96713D01*
X85032Y95701D01*
X85858Y94875D01*
X86870Y94291D01*
X87077Y94235D01*
Y85269D01*
X54262Y52454D01*
X35948D01*
X35372Y52339D01*
X34884Y52013D01*
X658Y17787D01*
X377Y17862D01*
X-377D01*
X-1105Y17667D01*
X-1757Y17290D01*
X-2290Y16757D01*
X-2667Y16105D01*
X-2862Y15377D01*
Y14623D01*
X-2667Y13895D01*
X-2290Y13243D01*
X-1757Y12710D01*
X-1105Y12333D01*
X-377Y12138D01*
X377D01*
X1105Y12333D01*
X1757Y12710D01*
X2290Y13243D01*
X2667Y13895D01*
X2862Y14623D01*
Y15377D01*
X2787Y15658D01*
X36572Y49443D01*
X54885D01*
X55461Y49558D01*
X55950Y49884D01*
X89647Y83581D01*
X89973Y84070D01*
X90088Y84646D01*
Y94235D01*
X90295Y94291D01*
X91307Y94875D01*
X92133Y95701D01*
X92717Y96713D01*
X93020Y97841D01*
Y99009D01*
X92717Y100138D01*
X92133Y101150D01*
X91307Y101976D01*
X90295Y102560D01*
X89167Y102862D01*
D02*
G37*
G36*
X162508Y19238D02*
X157927D01*
Y14658D01*
X158313D01*
X159542Y14987D01*
X160643Y15623D01*
X161543Y16522D01*
X162179Y17624D01*
X162508Y18852D01*
Y19238D01*
D02*
G37*
G36*
X157427D02*
X152847D01*
Y18852D01*
X153176Y17624D01*
X153812Y16522D01*
X154711Y15623D01*
X155813Y14987D01*
X157041Y14658D01*
X157427D01*
Y19238D01*
D02*
G37*
G36*
X142429D02*
X137848D01*
Y14658D01*
X138234D01*
X139463Y14987D01*
X140565Y15623D01*
X141464Y16522D01*
X142100Y17624D01*
X142429Y18852D01*
Y19238D01*
D02*
G37*
G36*
X137348D02*
X132768D01*
Y18852D01*
X133097Y17624D01*
X133733Y16522D01*
X134632Y15623D01*
X135734Y14987D01*
X136962Y14658D01*
X137348D01*
Y19238D01*
D02*
G37*
G36*
X148222Y83177D02*
X147054D01*
X145925Y82875D01*
X144913Y82291D01*
X144087Y81464D01*
X143503Y80453D01*
X143201Y79324D01*
Y78156D01*
X143503Y77027D01*
X144087Y76016D01*
X144913Y75190D01*
X145925Y74606D01*
X146133Y74550D01*
Y68537D01*
X110597Y33001D01*
X64961D01*
X64385Y32887D01*
X63896Y32561D01*
X42841Y11505D01*
X12436D01*
X12290Y11757D01*
X11757Y12290D01*
X11105Y12667D01*
X10377Y12862D01*
X9623D01*
X8895Y12667D01*
X8243Y12290D01*
X7710Y11757D01*
X7333Y11105D01*
X7138Y10377D01*
Y9623D01*
X7333Y8895D01*
X7710Y8243D01*
X8243Y7710D01*
X8895Y7333D01*
X9623Y7138D01*
X10377D01*
X11105Y7333D01*
X11757Y7710D01*
X12290Y8243D01*
X12436Y8495D01*
X43465D01*
X44041Y8609D01*
X44529Y8936D01*
X65584Y29991D01*
X111221D01*
X111796Y30105D01*
X112285Y30432D01*
X148702Y66849D01*
X149029Y67337D01*
X149143Y67913D01*
Y74550D01*
X149350Y74606D01*
X150362Y75190D01*
X151188Y76016D01*
X151772Y77027D01*
X152075Y78156D01*
Y79324D01*
X151772Y80453D01*
X151188Y81464D01*
X150362Y82291D01*
X149350Y82875D01*
X148222Y83177D01*
D02*
G37*
G36*
X217368Y14870D02*
X216982D01*
Y10289D01*
X221563D01*
Y10675D01*
X221234Y11904D01*
X220598Y13005D01*
X219698Y13905D01*
X218597Y14541D01*
X217368Y14870D01*
D02*
G37*
G36*
X216482D02*
X216096D01*
X214868Y14541D01*
X213766Y13905D01*
X212867Y13005D01*
X212231Y11904D01*
X211902Y10675D01*
Y10289D01*
X216482D01*
Y14870D01*
D02*
G37*
G36*
X197290D02*
X196904D01*
Y10289D01*
X201484D01*
Y10675D01*
X201155Y11904D01*
X200519Y13005D01*
X199620Y13905D01*
X198518Y14541D01*
X197290Y14870D01*
D02*
G37*
G36*
X196404D02*
X196018D01*
X194789Y14541D01*
X193687Y13905D01*
X192788Y13005D01*
X192152Y11904D01*
X191823Y10675D01*
Y10289D01*
X196404D01*
Y14870D01*
D02*
G37*
G36*
X99258D02*
X98872D01*
Y10289D01*
X103453D01*
Y10675D01*
X103124Y11904D01*
X102488Y13005D01*
X101588Y13905D01*
X100487Y14541D01*
X99258Y14870D01*
D02*
G37*
G36*
X98372D02*
X97986D01*
X96758Y14541D01*
X95656Y13905D01*
X94757Y13005D01*
X94121Y11904D01*
X93791Y10675D01*
Y10289D01*
X98372D01*
Y14870D01*
D02*
G37*
G36*
X79179D02*
X78793D01*
Y10289D01*
X83374D01*
Y10675D01*
X83045Y11904D01*
X82409Y13005D01*
X81509Y13905D01*
X80408Y14541D01*
X79179Y14870D01*
D02*
G37*
G36*
X78293D02*
X77907D01*
X76679Y14541D01*
X75577Y13905D01*
X74678Y13005D01*
X74042Y11904D01*
X73713Y10675D01*
Y10289D01*
X78293D01*
Y14870D01*
D02*
G37*
G36*
X39954Y93020D02*
X38786D01*
X37657Y92717D01*
X36646Y92133D01*
X35820Y91307D01*
X35235Y90295D01*
X34933Y89167D01*
Y87998D01*
X35235Y86870D01*
X35820Y85858D01*
X36646Y85032D01*
X37657Y84448D01*
X37865Y84392D01*
Y74442D01*
X-11064Y25513D01*
X-11391Y25025D01*
X-11505Y24449D01*
Y12436D01*
X-11757Y12290D01*
X-12290Y11757D01*
X-12667Y11105D01*
X-12862Y10377D01*
Y9623D01*
X-12667Y8895D01*
X-12290Y8243D01*
X-11757Y7710D01*
X-11105Y7333D01*
X-10377Y7138D01*
X-9623D01*
X-8895Y7333D01*
X-8243Y7710D01*
X-7710Y8243D01*
X-7333Y8895D01*
X-7138Y9623D01*
Y10377D01*
X-7333Y11105D01*
X-7710Y11757D01*
X-8243Y12290D01*
X-8495Y12436D01*
Y23825D01*
X40435Y72755D01*
X40761Y73243D01*
X40875Y73819D01*
Y84392D01*
X41083Y84448D01*
X42094Y85032D01*
X42921Y85858D01*
X43505Y86870D01*
X43807Y87998D01*
Y89167D01*
X43505Y90295D01*
X42921Y91307D01*
X42094Y92133D01*
X41083Y92717D01*
X39954Y93020D01*
D02*
G37*
G36*
X221563Y9789D02*
X216982D01*
Y5209D01*
X217368D01*
X218597Y5538D01*
X219698Y6174D01*
X220598Y7073D01*
X221234Y8175D01*
X221563Y9403D01*
Y9789D01*
D02*
G37*
G36*
X216482D02*
X211902D01*
Y9403D01*
X212231Y8175D01*
X212867Y7073D01*
X213766Y6174D01*
X214868Y5538D01*
X216096Y5209D01*
X216482D01*
Y9789D01*
D02*
G37*
G36*
X201484D02*
X196904D01*
Y5209D01*
X197290D01*
X198518Y5538D01*
X199620Y6174D01*
X200519Y7073D01*
X201155Y8175D01*
X201484Y9403D01*
Y9789D01*
D02*
G37*
G36*
X196404D02*
X191823D01*
Y9403D01*
X192152Y8175D01*
X192788Y7073D01*
X193687Y6174D01*
X194789Y5538D01*
X196018Y5209D01*
X196404D01*
Y9789D01*
D02*
G37*
G36*
X103453D02*
X98872D01*
Y5209D01*
X99258D01*
X100487Y5538D01*
X101588Y6174D01*
X102488Y7073D01*
X103124Y8175D01*
X103453Y9403D01*
Y9789D01*
D02*
G37*
G36*
X98372D02*
X93791D01*
Y9403D01*
X94121Y8175D01*
X94757Y7073D01*
X95656Y6174D01*
X96758Y5538D01*
X97986Y5209D01*
X98372D01*
Y9789D01*
D02*
G37*
G36*
X83374D02*
X78793D01*
Y5209D01*
X79179D01*
X80408Y5538D01*
X81509Y6174D01*
X82409Y7073D01*
X83045Y8175D01*
X83374Y9403D01*
Y9789D01*
D02*
G37*
G36*
X78293D02*
X73713D01*
Y9403D01*
X74042Y8175D01*
X74678Y7073D01*
X75577Y6174D01*
X76679Y5538D01*
X77907Y5209D01*
X78293D01*
Y9789D01*
D02*
G37*
G36*
X89167Y4437D02*
X87998D01*
X86870Y4135D01*
X85858Y3551D01*
X85032Y2724D01*
X84448Y1713D01*
X84392Y1505D01*
X12436D01*
X12290Y1757D01*
X11757Y2290D01*
X11105Y2667D01*
X10377Y2862D01*
X9623D01*
X8895Y2667D01*
X8243Y2290D01*
X7710Y1757D01*
X7333Y1105D01*
X7138Y377D01*
Y-377D01*
X7333Y-1105D01*
X7710Y-1757D01*
X8243Y-2290D01*
X8895Y-2667D01*
X9623Y-2862D01*
X10377D01*
X11105Y-2667D01*
X11757Y-2290D01*
X12290Y-1757D01*
X12436Y-1505D01*
X84392D01*
X84448Y-1713D01*
X85032Y-2724D01*
X85858Y-3551D01*
X86870Y-4135D01*
X87998Y-4437D01*
X89167D01*
X90295Y-4135D01*
X91307Y-3551D01*
X92133Y-2724D01*
X92717Y-1713D01*
X93020Y-584D01*
Y584D01*
X92717Y1713D01*
X92133Y2724D01*
X91307Y3551D01*
X90295Y4135D01*
X89167Y4437D01*
D02*
G37*
G36*
X-9623Y2862D02*
X-10377D01*
X-11105Y2667D01*
X-11757Y2290D01*
X-12290Y1757D01*
X-12667Y1105D01*
X-12862Y377D01*
Y-377D01*
X-12667Y-1105D01*
X-12290Y-1757D01*
X-11757Y-2290D01*
X-11105Y-2667D01*
X-10377Y-2862D01*
X-9623D01*
X-8895Y-2667D01*
X-8243Y-2290D01*
X-7710Y-1757D01*
X-7333Y-1105D01*
X-7138Y-377D01*
Y377D01*
X-7333Y1105D01*
X-7710Y1757D01*
X-8243Y2290D01*
X-8895Y2667D01*
X-9623Y2862D01*
D02*
G37*
G36*
X207277Y4437D02*
X206109D01*
X204980Y4135D01*
X203969Y3551D01*
X203142Y2724D01*
X202558Y1713D01*
X202256Y584D01*
Y-584D01*
X202558Y-1713D01*
X203142Y-2724D01*
X203969Y-3551D01*
X204980Y-4135D01*
X206109Y-4437D01*
X207277D01*
X208405Y-4135D01*
X209417Y-3551D01*
X210243Y-2724D01*
X210828Y-1713D01*
X211130Y-584D01*
Y584D01*
X210828Y1713D01*
X210243Y2724D01*
X209417Y3551D01*
X208405Y4135D01*
X207277Y4437D01*
D02*
G37*
G36*
X217368Y-5209D02*
X216982D01*
Y-9789D01*
X221563D01*
Y-9403D01*
X221234Y-8175D01*
X220598Y-7073D01*
X219698Y-6174D01*
X218597Y-5538D01*
X217368Y-5209D01*
D02*
G37*
G36*
X216482D02*
X216096D01*
X214868Y-5538D01*
X213766Y-6174D01*
X212867Y-7073D01*
X212231Y-8175D01*
X211902Y-9403D01*
Y-9789D01*
X216482D01*
Y-5209D01*
D02*
G37*
G36*
X197290D02*
X196904D01*
Y-9789D01*
X201484D01*
Y-9403D01*
X201155Y-8175D01*
X200519Y-7073D01*
X199620Y-6174D01*
X198518Y-5538D01*
X197290Y-5209D01*
D02*
G37*
G36*
X196404D02*
X196018D01*
X194789Y-5538D01*
X193687Y-6174D01*
X192788Y-7073D01*
X192152Y-8175D01*
X191823Y-9403D01*
Y-9789D01*
X196404D01*
Y-5209D01*
D02*
G37*
G36*
X99258D02*
X98872D01*
Y-9789D01*
X103453D01*
Y-9403D01*
X103124Y-8175D01*
X102488Y-7073D01*
X101588Y-6174D01*
X100487Y-5538D01*
X99258Y-5209D01*
D02*
G37*
G36*
X98372D02*
X97986D01*
X96758Y-5538D01*
X95656Y-6174D01*
X94757Y-7073D01*
X94121Y-8175D01*
X93791Y-9403D01*
Y-9789D01*
X98372D01*
Y-5209D01*
D02*
G37*
G36*
X79179D02*
X78793D01*
Y-9789D01*
X83374D01*
Y-9403D01*
X83045Y-8175D01*
X82409Y-7073D01*
X81509Y-6174D01*
X80408Y-5538D01*
X79179Y-5209D01*
D02*
G37*
G36*
X78293D02*
X77907D01*
X76679Y-5538D01*
X75577Y-6174D01*
X74678Y-7073D01*
X74042Y-8175D01*
X73713Y-9403D01*
Y-9789D01*
X78293D01*
Y-5209D01*
D02*
G37*
G36*
X221563Y-10289D02*
X216982D01*
Y-14870D01*
X217368D01*
X218597Y-14541D01*
X219698Y-13905D01*
X220598Y-13005D01*
X221234Y-11904D01*
X221563Y-10675D01*
Y-10289D01*
D02*
G37*
G36*
X216482D02*
X211902D01*
Y-10675D01*
X212231Y-11904D01*
X212867Y-13005D01*
X213766Y-13905D01*
X214868Y-14541D01*
X216096Y-14870D01*
X216482D01*
Y-10289D01*
D02*
G37*
G36*
X201484D02*
X196904D01*
Y-14870D01*
X197290D01*
X198518Y-14541D01*
X199620Y-13905D01*
X200519Y-13005D01*
X201155Y-11904D01*
X201484Y-10675D01*
Y-10289D01*
D02*
G37*
G36*
X196404D02*
X191823D01*
Y-10675D01*
X192152Y-11904D01*
X192788Y-13005D01*
X193687Y-13905D01*
X194789Y-14541D01*
X196018Y-14870D01*
X196404D01*
Y-10289D01*
D02*
G37*
G36*
X103453D02*
X98872D01*
Y-14870D01*
X99258D01*
X100487Y-14541D01*
X101588Y-13905D01*
X102488Y-13005D01*
X103124Y-11904D01*
X103453Y-10675D01*
Y-10289D01*
D02*
G37*
G36*
X98372D02*
X93791D01*
Y-10675D01*
X94121Y-11904D01*
X94757Y-13005D01*
X95656Y-13905D01*
X96758Y-14541D01*
X97986Y-14870D01*
X98372D01*
Y-10289D01*
D02*
G37*
G36*
X83374D02*
X78793D01*
Y-14870D01*
X79179D01*
X80408Y-14541D01*
X81509Y-13905D01*
X82409Y-13005D01*
X83045Y-11904D01*
X83374Y-10675D01*
Y-10289D01*
D02*
G37*
G36*
X78293D02*
X73713D01*
Y-10675D01*
X74042Y-11904D01*
X74678Y-13005D01*
X75577Y-13905D01*
X76679Y-14541D01*
X77907Y-14870D01*
X78293D01*
Y-10289D01*
D02*
G37*
G36*
X158313Y-14658D02*
X157927D01*
Y-19238D01*
X162508D01*
Y-18852D01*
X162179Y-17624D01*
X161543Y-16522D01*
X160643Y-15623D01*
X159542Y-14987D01*
X158313Y-14658D01*
D02*
G37*
G36*
X157427D02*
X157041D01*
X155813Y-14987D01*
X154711Y-15623D01*
X153812Y-16522D01*
X153176Y-17624D01*
X152847Y-18852D01*
Y-19238D01*
X157427D01*
Y-14658D01*
D02*
G37*
G36*
X138234D02*
X137848D01*
Y-19238D01*
X142429D01*
Y-18852D01*
X142100Y-17624D01*
X141464Y-16522D01*
X140565Y-15623D01*
X139463Y-14987D01*
X138234Y-14658D01*
D02*
G37*
G36*
X137348D02*
X136962D01*
X135734Y-14987D01*
X134632Y-15623D01*
X133733Y-16522D01*
X133097Y-17624D01*
X132768Y-18852D01*
Y-19238D01*
X137348D01*
Y-14658D01*
D02*
G37*
G36*
X162508Y-19738D02*
X157927D01*
Y-24319D01*
X158313D01*
X159542Y-23990D01*
X160643Y-23354D01*
X161543Y-22454D01*
X162179Y-21353D01*
X162508Y-20124D01*
Y-19738D01*
D02*
G37*
G36*
X157427D02*
X152847D01*
Y-20124D01*
X153176Y-21353D01*
X153812Y-22454D01*
X154711Y-23354D01*
X155813Y-23990D01*
X157041Y-24319D01*
X157427D01*
Y-19738D01*
D02*
G37*
G36*
X-19623Y-2138D02*
X-20377D01*
X-21105Y-2333D01*
X-21757Y-2710D01*
X-22290Y-3243D01*
X-22667Y-3895D01*
X-22862Y-4623D01*
Y-5377D01*
X-22667Y-6105D01*
X-22290Y-6757D01*
X-21757Y-7290D01*
X-21505Y-7436D01*
Y-24292D01*
X-22005Y-24357D01*
X-22150Y-23819D01*
X-22552Y-23122D01*
X-23122Y-22552D01*
X-23819Y-22150D01*
X-24597Y-21941D01*
X-24750D01*
Y-25000D01*
Y-28059D01*
X-24597D01*
X-23819Y-27850D01*
X-23122Y-27448D01*
X-22552Y-26878D01*
X-22150Y-26181D01*
X-22005Y-25643D01*
X-21505Y-25708D01*
Y-49882D01*
X-21391Y-50458D01*
X-21064Y-50946D01*
X-11348Y-60663D01*
Y-74550D01*
X-11555Y-74606D01*
X-12567Y-75190D01*
X-13393Y-76016D01*
X-13977Y-77027D01*
X-14279Y-78156D01*
Y-79324D01*
X-13977Y-80453D01*
X-13393Y-81464D01*
X-12567Y-82291D01*
X-11555Y-82875D01*
X-10427Y-83177D01*
X-9258D01*
X-8130Y-82875D01*
X-7118Y-82291D01*
X-6292Y-81464D01*
X-5708Y-80453D01*
X-5406Y-79324D01*
Y-78156D01*
X-5708Y-77027D01*
X-6292Y-76016D01*
X-7118Y-75190D01*
X-8130Y-74606D01*
X-8337Y-74550D01*
Y-60039D01*
X-8452Y-59463D01*
X-8778Y-58975D01*
X-18495Y-49258D01*
Y-7436D01*
X-18243Y-7290D01*
X-17710Y-6757D01*
X-17333Y-6105D01*
X-17138Y-5377D01*
Y-4623D01*
X-17333Y-3895D01*
X-17710Y-3243D01*
X-18243Y-2710D01*
X-18895Y-2333D01*
X-19623Y-2138D01*
D02*
G37*
G36*
X25403Y-21941D02*
X25250D01*
Y-24750D01*
X28059D01*
Y-24597D01*
X27850Y-23819D01*
X27448Y-23122D01*
X26878Y-22552D01*
X26181Y-22150D01*
X25403Y-21941D01*
D02*
G37*
G36*
X-25250D02*
X-25403D01*
X-26181Y-22150D01*
X-26878Y-22552D01*
X-27448Y-23122D01*
X-27850Y-23819D01*
X-28059Y-24597D01*
Y-24750D01*
X-25250D01*
Y-21941D01*
D02*
G37*
G36*
X24750D02*
X24597D01*
X23819Y-22150D01*
X23122Y-22552D01*
X22552Y-23122D01*
X22150Y-23819D01*
X21941Y-24597D01*
Y-24750D01*
X24750D01*
Y-21941D01*
D02*
G37*
G36*
X28059Y-25250D02*
X25250D01*
Y-28059D01*
X25403D01*
X26181Y-27850D01*
X26878Y-27448D01*
X27448Y-26878D01*
X27850Y-26181D01*
X28059Y-25403D01*
Y-25250D01*
D02*
G37*
G36*
X24750D02*
X21941D01*
Y-25403D01*
X22150Y-26181D01*
X22552Y-26878D01*
X23122Y-27448D01*
X23819Y-27850D01*
X24597Y-28059D01*
X24750D01*
Y-25250D01*
D02*
G37*
G36*
X-25250D02*
X-28059D01*
Y-25403D01*
X-27850Y-26181D01*
X-27448Y-26878D01*
X-26878Y-27448D01*
X-26181Y-27850D01*
X-25403Y-28059D01*
X-25250D01*
Y-25250D01*
D02*
G37*
G36*
X20377Y-2138D02*
X19623D01*
X18895Y-2333D01*
X18243Y-2710D01*
X17710Y-3243D01*
X17333Y-3895D01*
X17138Y-4623D01*
Y-5377D01*
X17333Y-6105D01*
X17710Y-6757D01*
X18243Y-7290D01*
X18895Y-7667D01*
X19623Y-7862D01*
X20377D01*
X21105Y-7667D01*
X21757Y-7290D01*
X22290Y-6757D01*
X22436Y-6505D01*
X51621D01*
X71770Y-26655D01*
X72259Y-26981D01*
X72835Y-27096D01*
X143077D01*
X143611Y-27629D01*
X143503Y-27815D01*
X143201Y-28943D01*
Y-30112D01*
X143503Y-31240D01*
X144087Y-32252D01*
X144913Y-33078D01*
X145925Y-33662D01*
X147054Y-33965D01*
X148222D01*
X149350Y-33662D01*
X150362Y-33078D01*
X151188Y-32252D01*
X151772Y-31240D01*
X152075Y-30112D01*
Y-28943D01*
X151772Y-27815D01*
X151188Y-26803D01*
X150362Y-25977D01*
X149350Y-25393D01*
X148222Y-25091D01*
X147054D01*
X145925Y-25393D01*
X145739Y-25500D01*
X144765Y-24526D01*
X144277Y-24200D01*
X143701Y-24085D01*
X140297D01*
X140164Y-23585D01*
X140565Y-23354D01*
X141464Y-22454D01*
X142100Y-21353D01*
X142429Y-20124D01*
Y-19738D01*
X132768D01*
Y-20124D01*
X133097Y-21353D01*
X133733Y-22454D01*
X134632Y-23354D01*
X135033Y-23585D01*
X134899Y-24085D01*
X73458D01*
X53308Y-3936D01*
X52820Y-3609D01*
X52244Y-3495D01*
X22436D01*
X22290Y-3243D01*
X21757Y-2710D01*
X21105Y-2333D01*
X20377Y-2138D01*
D02*
G37*
G36*
X99258Y-34343D02*
X98872D01*
Y-38923D01*
X103453D01*
Y-38537D01*
X103124Y-37309D01*
X102488Y-36207D01*
X101588Y-35308D01*
X100487Y-34672D01*
X99258Y-34343D01*
D02*
G37*
G36*
X98372D02*
X97986D01*
X96758Y-34672D01*
X95656Y-35308D01*
X94757Y-36207D01*
X94121Y-37309D01*
X93791Y-38537D01*
Y-38923D01*
X98372D01*
Y-34343D01*
D02*
G37*
G36*
X79179D02*
X78793D01*
Y-38923D01*
X83374D01*
Y-38537D01*
X83045Y-37309D01*
X82409Y-36207D01*
X81509Y-35308D01*
X80408Y-34672D01*
X79179Y-34343D01*
D02*
G37*
G36*
X78293D02*
X77907D01*
X76679Y-34672D01*
X75577Y-35308D01*
X74678Y-36207D01*
X74042Y-37309D01*
X73713Y-38537D01*
Y-38923D01*
X78293D01*
Y-34343D01*
D02*
G37*
G36*
X158313Y-34736D02*
X157927D01*
Y-39317D01*
X162508D01*
Y-38931D01*
X162179Y-37702D01*
X161543Y-36601D01*
X160643Y-35701D01*
X159542Y-35065D01*
X158313Y-34736D01*
D02*
G37*
G36*
X157427D02*
X157041D01*
X155813Y-35065D01*
X154711Y-35701D01*
X153812Y-36601D01*
X153176Y-37702D01*
X152847Y-38931D01*
Y-39317D01*
X157427D01*
Y-34736D01*
D02*
G37*
G36*
X138234D02*
X137848D01*
Y-39317D01*
X142429D01*
Y-38931D01*
X142100Y-37702D01*
X141464Y-36601D01*
X140565Y-35701D01*
X139463Y-35065D01*
X138234Y-34736D01*
D02*
G37*
G36*
X137348D02*
X136962D01*
X135734Y-35065D01*
X134632Y-35701D01*
X133733Y-36601D01*
X133097Y-37702D01*
X132768Y-38931D01*
Y-39317D01*
X137348D01*
Y-34736D01*
D02*
G37*
G36*
X103453Y-39423D02*
X98872D01*
Y-44004D01*
X99258D01*
X100487Y-43675D01*
X101588Y-43039D01*
X102488Y-42139D01*
X103124Y-41038D01*
X103453Y-39809D01*
Y-39423D01*
D02*
G37*
G36*
X98372D02*
X93791D01*
Y-39809D01*
X94121Y-41038D01*
X94757Y-42139D01*
X95656Y-43039D01*
X96758Y-43675D01*
X97986Y-44004D01*
X98372D01*
Y-39423D01*
D02*
G37*
G36*
X83374D02*
X78793D01*
Y-44004D01*
X79179D01*
X80408Y-43675D01*
X81509Y-43039D01*
X82409Y-42139D01*
X83045Y-41038D01*
X83374Y-39809D01*
Y-39423D01*
D02*
G37*
G36*
X78293D02*
X73713D01*
Y-39809D01*
X74042Y-41038D01*
X74678Y-42139D01*
X75577Y-43039D01*
X76679Y-43675D01*
X77907Y-44004D01*
X78293D01*
Y-39423D01*
D02*
G37*
G36*
X162508Y-39817D02*
X157927D01*
Y-44398D01*
X158313D01*
X159542Y-44068D01*
X160643Y-43433D01*
X161543Y-42533D01*
X162179Y-41431D01*
X162508Y-40203D01*
Y-39817D01*
D02*
G37*
G36*
X157427D02*
X152847D01*
Y-40203D01*
X153176Y-41431D01*
X153812Y-42533D01*
X154711Y-43433D01*
X155813Y-44068D01*
X157041Y-44398D01*
X157427D01*
Y-39817D01*
D02*
G37*
G36*
X142429D02*
X137848D01*
Y-44398D01*
X138234D01*
X139463Y-44068D01*
X140565Y-43433D01*
X141464Y-42533D01*
X142100Y-41431D01*
X142429Y-40203D01*
Y-39817D01*
D02*
G37*
G36*
X137348D02*
X132768D01*
Y-40203D01*
X133097Y-41431D01*
X133733Y-42533D01*
X134632Y-43433D01*
X135734Y-44068D01*
X136962Y-44398D01*
X137348D01*
Y-39817D01*
D02*
G37*
G36*
X377Y-2138D02*
X-377D01*
X-1105Y-2333D01*
X-1757Y-2710D01*
X-2290Y-3243D01*
X-2667Y-3895D01*
X-2862Y-4623D01*
Y-5377D01*
X-2667Y-6105D01*
X-2290Y-6757D01*
X-1757Y-7290D01*
X-1212Y-7605D01*
Y-8167D01*
X-1098Y-8743D01*
X-771Y-9231D01*
X6810Y-16812D01*
X7298Y-17139D01*
X7874Y-17253D01*
X33825D01*
X66849Y-50277D01*
X67337Y-50603D01*
X67913Y-50718D01*
X84392D01*
X84448Y-50925D01*
X85032Y-51937D01*
X85858Y-52763D01*
X86870Y-53347D01*
X87998Y-53650D01*
X89167D01*
X90295Y-53347D01*
X91307Y-52763D01*
X92133Y-51937D01*
X92717Y-50925D01*
X93020Y-49797D01*
Y-48629D01*
X92717Y-47500D01*
X92133Y-46488D01*
X91307Y-45662D01*
X90295Y-45078D01*
X89167Y-44776D01*
X87998D01*
X86870Y-45078D01*
X85858Y-45662D01*
X85032Y-46488D01*
X84448Y-47500D01*
X84392Y-47707D01*
X68537D01*
X35513Y-14684D01*
X35025Y-14357D01*
X34449Y-14243D01*
X8497D01*
X1798Y-7543D01*
Y-7249D01*
X2290Y-6757D01*
X2667Y-6105D01*
X2862Y-5377D01*
Y-4623D01*
X2667Y-3895D01*
X2290Y-3243D01*
X1757Y-2710D01*
X1105Y-2333D01*
X377Y-2138D01*
D02*
G37*
G36*
X99258Y-54421D02*
X98872D01*
Y-59002D01*
X103453D01*
Y-58616D01*
X103124Y-57387D01*
X102488Y-56286D01*
X101588Y-55386D01*
X100487Y-54751D01*
X99258Y-54421D01*
D02*
G37*
G36*
X98372D02*
X97986D01*
X96758Y-54751D01*
X95656Y-55386D01*
X94757Y-56286D01*
X94121Y-57387D01*
X93791Y-58616D01*
Y-59002D01*
X98372D01*
Y-54421D01*
D02*
G37*
G36*
X79179D02*
X78793D01*
Y-59002D01*
X83374D01*
Y-58616D01*
X83045Y-57387D01*
X82409Y-56286D01*
X81509Y-55386D01*
X80408Y-54751D01*
X79179Y-54421D01*
D02*
G37*
G36*
X78293D02*
X77907D01*
X76679Y-54751D01*
X75577Y-55386D01*
X74678Y-56286D01*
X74042Y-57387D01*
X73713Y-58616D01*
Y-59002D01*
X78293D01*
Y-54421D01*
D02*
G37*
G36*
X103453Y-59502D02*
X98872D01*
Y-64083D01*
X99258D01*
X100487Y-63753D01*
X101588Y-63117D01*
X102488Y-62218D01*
X103124Y-61116D01*
X103453Y-59888D01*
Y-59502D01*
D02*
G37*
G36*
X98372D02*
X93791D01*
Y-59888D01*
X94121Y-61116D01*
X94757Y-62218D01*
X95656Y-63117D01*
X96758Y-63753D01*
X97986Y-64083D01*
X98372D01*
Y-59502D01*
D02*
G37*
G36*
X83374D02*
X78793D01*
Y-64083D01*
X79179D01*
X80408Y-63753D01*
X81509Y-63117D01*
X82409Y-62218D01*
X83045Y-61116D01*
X83374Y-59888D01*
Y-59502D01*
D02*
G37*
G36*
X78293D02*
X73713D01*
Y-59888D01*
X74042Y-61116D01*
X74678Y-62218D01*
X75577Y-63117D01*
X76679Y-63753D01*
X77907Y-64083D01*
X78293D01*
Y-59502D01*
D02*
G37*
G36*
X158313Y-63870D02*
X157927D01*
Y-68451D01*
X162508D01*
Y-68065D01*
X162179Y-66836D01*
X161543Y-65735D01*
X160643Y-64835D01*
X159542Y-64199D01*
X158313Y-63870D01*
D02*
G37*
G36*
X157427D02*
X157041D01*
X155813Y-64199D01*
X154711Y-64835D01*
X153812Y-65735D01*
X153176Y-66836D01*
X152847Y-68065D01*
Y-68451D01*
X157427D01*
Y-63870D01*
D02*
G37*
G36*
X138234D02*
X137848D01*
Y-68451D01*
X142429D01*
Y-68065D01*
X142100Y-66836D01*
X141464Y-65735D01*
X140565Y-64835D01*
X139463Y-64199D01*
X138234Y-63870D01*
D02*
G37*
G36*
X137348D02*
X136962D01*
X135734Y-64199D01*
X134632Y-64835D01*
X133733Y-65735D01*
X133097Y-66836D01*
X132768Y-68065D01*
Y-68451D01*
X137348D01*
Y-63870D01*
D02*
G37*
G36*
X833D02*
X447D01*
Y-68451D01*
X5028D01*
Y-68065D01*
X4698Y-66836D01*
X4062Y-65735D01*
X3163Y-64835D01*
X2061Y-64199D01*
X833Y-63870D01*
D02*
G37*
G36*
X-53D02*
X-439D01*
X-1668Y-64199D01*
X-2769Y-64835D01*
X-3669Y-65735D01*
X-4305Y-66836D01*
X-4634Y-68065D01*
Y-68451D01*
X-53D01*
Y-63870D01*
D02*
G37*
G36*
X-19246D02*
X-19632D01*
Y-68451D01*
X-15051D01*
Y-68065D01*
X-15380Y-66836D01*
X-16016Y-65735D01*
X-16916Y-64835D01*
X-18017Y-64199D01*
X-19246Y-63870D01*
D02*
G37*
G36*
X-20132D02*
X-20518D01*
X-21746Y-64199D01*
X-22848Y-64835D01*
X-23747Y-65735D01*
X-24383Y-66836D01*
X-24713Y-68065D01*
Y-68451D01*
X-20132D01*
Y-63870D01*
D02*
G37*
G36*
X162508Y-68951D02*
X157927D01*
Y-73532D01*
X158313D01*
X159542Y-73202D01*
X160643Y-72566D01*
X161543Y-71667D01*
X162179Y-70565D01*
X162508Y-69337D01*
Y-68951D01*
D02*
G37*
G36*
X157427D02*
X152847D01*
Y-69337D01*
X153176Y-70565D01*
X153812Y-71667D01*
X154711Y-72566D01*
X155813Y-73202D01*
X157041Y-73532D01*
X157427D01*
Y-68951D01*
D02*
G37*
G36*
X142429D02*
X137848D01*
Y-73532D01*
X138234D01*
X139463Y-73202D01*
X140565Y-72566D01*
X141464Y-71667D01*
X142100Y-70565D01*
X142429Y-69337D01*
Y-68951D01*
D02*
G37*
G36*
X137348D02*
X132768D01*
Y-69337D01*
X133097Y-70565D01*
X133733Y-71667D01*
X134632Y-72566D01*
X135734Y-73202D01*
X136962Y-73532D01*
X137348D01*
Y-68951D01*
D02*
G37*
G36*
X5028D02*
X447D01*
Y-73532D01*
X833D01*
X2061Y-73202D01*
X3163Y-72566D01*
X4062Y-71667D01*
X4698Y-70565D01*
X5028Y-69337D01*
Y-68951D01*
D02*
G37*
G36*
X-53D02*
X-4634D01*
Y-69337D01*
X-4305Y-70565D01*
X-3669Y-71667D01*
X-2769Y-72566D01*
X-1668Y-73202D01*
X-439Y-73532D01*
X-53D01*
Y-68951D01*
D02*
G37*
G36*
X-15051D02*
X-19632D01*
Y-73532D01*
X-19246D01*
X-18017Y-73202D01*
X-16916Y-72566D01*
X-16016Y-71667D01*
X-15380Y-70565D01*
X-15051Y-69337D01*
Y-68951D01*
D02*
G37*
G36*
X-20132D02*
X-24713D01*
Y-69337D01*
X-24383Y-70565D01*
X-23747Y-71667D01*
X-22848Y-72566D01*
X-21746Y-73202D01*
X-20518Y-73532D01*
X-20132D01*
Y-68951D01*
D02*
G37*
G36*
X50045Y-73713D02*
X49659D01*
Y-78293D01*
X54240D01*
Y-77907D01*
X53911Y-76679D01*
X53275Y-75577D01*
X52376Y-74678D01*
X51274Y-74042D01*
X50045Y-73713D01*
D02*
G37*
G36*
X49159D02*
X48774D01*
X47545Y-74042D01*
X46443Y-74678D01*
X45544Y-75577D01*
X44908Y-76679D01*
X44579Y-77907D01*
Y-78293D01*
X49159D01*
Y-73713D01*
D02*
G37*
G36*
X29967D02*
X29581D01*
Y-78293D01*
X34161D01*
Y-77907D01*
X33832Y-76679D01*
X33196Y-75577D01*
X32297Y-74678D01*
X31195Y-74042D01*
X29967Y-73713D01*
D02*
G37*
G36*
X29081D02*
X28695D01*
X27466Y-74042D01*
X26365Y-74678D01*
X25465Y-75577D01*
X24829Y-76679D01*
X24500Y-77907D01*
Y-78293D01*
X29081D01*
Y-73713D01*
D02*
G37*
G36*
X10377Y-7138D02*
X9623D01*
X8895Y-7333D01*
X8243Y-7710D01*
X7710Y-8243D01*
X7333Y-8895D01*
X7138Y-9623D01*
Y-10377D01*
X7333Y-11105D01*
X7710Y-11757D01*
X8243Y-12290D01*
X8895Y-12667D01*
X9623Y-12862D01*
X10377D01*
X11105Y-12667D01*
X11757Y-12290D01*
X12290Y-11757D01*
X12436Y-11505D01*
X42841D01*
X63896Y-32561D01*
X64385Y-32887D01*
X64961Y-33001D01*
X110597D01*
X146133Y-68537D01*
Y-74550D01*
X145925Y-74606D01*
X144913Y-75190D01*
X144087Y-76016D01*
X143503Y-77027D01*
X143201Y-78156D01*
Y-79324D01*
X143503Y-80453D01*
X144087Y-81464D01*
X144913Y-82291D01*
X145925Y-82875D01*
X147054Y-83177D01*
X148222D01*
X149350Y-82875D01*
X150362Y-82291D01*
X151188Y-81464D01*
X151772Y-80453D01*
X152075Y-79324D01*
Y-78156D01*
X151772Y-77027D01*
X151188Y-76016D01*
X150362Y-75190D01*
X149350Y-74606D01*
X149143Y-74550D01*
Y-67913D01*
X149029Y-67337D01*
X148702Y-66849D01*
X112285Y-30432D01*
X111796Y-30105D01*
X111221Y-29991D01*
X65584D01*
X44529Y-8936D01*
X44041Y-8609D01*
X43465Y-8495D01*
X12436D01*
X12290Y-8243D01*
X11757Y-7710D01*
X11105Y-7333D01*
X10377Y-7138D01*
D02*
G37*
G36*
X54240Y-78793D02*
X49659D01*
Y-83374D01*
X50045D01*
X51274Y-83045D01*
X52376Y-82409D01*
X53275Y-81509D01*
X53911Y-80408D01*
X54240Y-79179D01*
Y-78793D01*
D02*
G37*
G36*
X49159D02*
X44579D01*
Y-79179D01*
X44908Y-80408D01*
X45544Y-81509D01*
X46443Y-82409D01*
X47545Y-83045D01*
X48774Y-83374D01*
X49159D01*
Y-78793D01*
D02*
G37*
G36*
X34161D02*
X29581D01*
Y-83374D01*
X29967D01*
X31195Y-83045D01*
X32297Y-82409D01*
X33196Y-81509D01*
X33832Y-80408D01*
X34161Y-79179D01*
Y-78793D01*
D02*
G37*
G36*
X29081D02*
X24500D01*
Y-79179D01*
X24829Y-80408D01*
X25465Y-81509D01*
X26365Y-82409D01*
X27466Y-83045D01*
X28695Y-83374D01*
X29081D01*
Y-78793D01*
D02*
G37*
G36*
X99258Y-83555D02*
X98872D01*
Y-88136D01*
X103453D01*
Y-87750D01*
X103124Y-86521D01*
X102488Y-85420D01*
X101588Y-84520D01*
X100487Y-83884D01*
X99258Y-83555D01*
D02*
G37*
G36*
X98372D02*
X97986D01*
X96758Y-83884D01*
X95656Y-84520D01*
X94757Y-85420D01*
X94121Y-86521D01*
X93791Y-87750D01*
Y-88136D01*
X98372D01*
Y-83555D01*
D02*
G37*
G36*
X79179D02*
X78793D01*
Y-88136D01*
X83374D01*
Y-87750D01*
X83045Y-86521D01*
X82409Y-85420D01*
X81509Y-84520D01*
X80408Y-83884D01*
X79179Y-83555D01*
D02*
G37*
G36*
X78293D02*
X77907D01*
X76679Y-83884D01*
X75577Y-84520D01*
X74678Y-85420D01*
X74042Y-86521D01*
X73713Y-87750D01*
Y-88136D01*
X78293D01*
Y-83555D01*
D02*
G37*
G36*
X158313Y-83949D02*
X157927D01*
Y-88529D01*
X162508D01*
Y-88144D01*
X162179Y-86915D01*
X161543Y-85813D01*
X160643Y-84914D01*
X159542Y-84278D01*
X158313Y-83949D01*
D02*
G37*
G36*
X157427D02*
X157041D01*
X155813Y-84278D01*
X154711Y-84914D01*
X153812Y-85813D01*
X153176Y-86915D01*
X152847Y-88144D01*
Y-88529D01*
X157427D01*
Y-83949D01*
D02*
G37*
G36*
X138234D02*
X137848D01*
Y-88529D01*
X142429D01*
Y-88144D01*
X142100Y-86915D01*
X141464Y-85813D01*
X140565Y-84914D01*
X139463Y-84278D01*
X138234Y-83949D01*
D02*
G37*
G36*
X137348D02*
X136962D01*
X135734Y-84278D01*
X134632Y-84914D01*
X133733Y-85813D01*
X133097Y-86915D01*
X132768Y-88144D01*
Y-88529D01*
X137348D01*
Y-83949D01*
D02*
G37*
G36*
X833D02*
X447D01*
Y-88529D01*
X5028D01*
Y-88144D01*
X4698Y-86915D01*
X4062Y-85813D01*
X3163Y-84914D01*
X2061Y-84278D01*
X833Y-83949D01*
D02*
G37*
G36*
X-53D02*
X-439D01*
X-1668Y-84278D01*
X-2769Y-84914D01*
X-3669Y-85813D01*
X-4305Y-86915D01*
X-4634Y-88144D01*
Y-88529D01*
X-53D01*
Y-83949D01*
D02*
G37*
G36*
X-19246D02*
X-19632D01*
Y-88529D01*
X-15051D01*
Y-88144D01*
X-15380Y-86915D01*
X-16016Y-85813D01*
X-16916Y-84914D01*
X-18017Y-84278D01*
X-19246Y-83949D01*
D02*
G37*
G36*
X-20132D02*
X-20518D01*
X-21746Y-84278D01*
X-22848Y-84914D01*
X-23747Y-85813D01*
X-24383Y-86915D01*
X-24713Y-88144D01*
Y-88529D01*
X-20132D01*
Y-83949D01*
D02*
G37*
G36*
X-9623Y-7138D02*
X-10377D01*
X-11105Y-7333D01*
X-11757Y-7710D01*
X-12290Y-8243D01*
X-12667Y-8895D01*
X-12862Y-9623D01*
Y-10377D01*
X-12667Y-11105D01*
X-12290Y-11757D01*
X-11757Y-12290D01*
X-11505Y-12436D01*
Y-24449D01*
X-11391Y-25025D01*
X-11064Y-25513D01*
X37865Y-74442D01*
Y-84392D01*
X37657Y-84448D01*
X36646Y-85032D01*
X35820Y-85858D01*
X35235Y-86870D01*
X34933Y-87998D01*
Y-89167D01*
X35235Y-90295D01*
X35820Y-91307D01*
X36646Y-92133D01*
X37657Y-92717D01*
X38786Y-93020D01*
X39954D01*
X41083Y-92717D01*
X42094Y-92133D01*
X42921Y-91307D01*
X43505Y-90295D01*
X43807Y-89167D01*
Y-87998D01*
X43505Y-86870D01*
X42921Y-85858D01*
X42094Y-85032D01*
X41083Y-84448D01*
X40875Y-84392D01*
Y-73819D01*
X40761Y-73243D01*
X40435Y-72755D01*
X-8495Y-23825D01*
Y-12436D01*
X-8243Y-12290D01*
X-7710Y-11757D01*
X-7333Y-11105D01*
X-7138Y-10377D01*
Y-9623D01*
X-7333Y-8895D01*
X-7710Y-8243D01*
X-8243Y-7710D01*
X-8895Y-7333D01*
X-9623Y-7138D01*
D02*
G37*
G36*
X103453Y-88636D02*
X98872D01*
Y-93217D01*
X99258D01*
X100487Y-92887D01*
X101588Y-92251D01*
X102488Y-91352D01*
X103124Y-90250D01*
X103453Y-89022D01*
Y-88636D01*
D02*
G37*
G36*
X98372D02*
X93791D01*
Y-89022D01*
X94121Y-90250D01*
X94757Y-91352D01*
X95656Y-92251D01*
X96758Y-92887D01*
X97986Y-93217D01*
X98372D01*
Y-88636D01*
D02*
G37*
G36*
X83374D02*
X78793D01*
Y-93217D01*
X79179D01*
X80408Y-92887D01*
X81509Y-92251D01*
X82409Y-91352D01*
X83045Y-90250D01*
X83374Y-89022D01*
Y-88636D01*
D02*
G37*
G36*
X78293D02*
X73713D01*
Y-89022D01*
X74042Y-90250D01*
X74678Y-91352D01*
X75577Y-92251D01*
X76679Y-92887D01*
X77907Y-93217D01*
X78293D01*
Y-88636D01*
D02*
G37*
G36*
X162508Y-89030D02*
X157927D01*
Y-93610D01*
X158313D01*
X159542Y-93281D01*
X160643Y-92645D01*
X161543Y-91746D01*
X162179Y-90644D01*
X162508Y-89416D01*
Y-89030D01*
D02*
G37*
G36*
X157427D02*
X152847D01*
Y-89416D01*
X153176Y-90644D01*
X153812Y-91746D01*
X154711Y-92645D01*
X155813Y-93281D01*
X157041Y-93610D01*
X157427D01*
Y-89030D01*
D02*
G37*
G36*
X142429D02*
X137848D01*
Y-93610D01*
X138234D01*
X139463Y-93281D01*
X140565Y-92645D01*
X141464Y-91746D01*
X142100Y-90644D01*
X142429Y-89416D01*
Y-89030D01*
D02*
G37*
G36*
X137348D02*
X132768D01*
Y-89416D01*
X133097Y-90644D01*
X133733Y-91746D01*
X134632Y-92645D01*
X135734Y-93281D01*
X136962Y-93610D01*
X137348D01*
Y-89030D01*
D02*
G37*
G36*
X5028D02*
X447D01*
Y-93610D01*
X833D01*
X2061Y-93281D01*
X3163Y-92645D01*
X4062Y-91746D01*
X4698Y-90644D01*
X5028Y-89416D01*
Y-89030D01*
D02*
G37*
G36*
X-53D02*
X-4634D01*
Y-89416D01*
X-4305Y-90644D01*
X-3669Y-91746D01*
X-2769Y-92645D01*
X-1668Y-93281D01*
X-439Y-93610D01*
X-53D01*
Y-89030D01*
D02*
G37*
G36*
X-15051D02*
X-19632D01*
Y-93610D01*
X-19246D01*
X-18017Y-93281D01*
X-16916Y-92645D01*
X-16016Y-91746D01*
X-15380Y-90644D01*
X-15051Y-89416D01*
Y-89030D01*
D02*
G37*
G36*
X-20132D02*
X-24713D01*
Y-89416D01*
X-24383Y-90644D01*
X-23747Y-91746D01*
X-22848Y-92645D01*
X-21746Y-93281D01*
X-20518Y-93610D01*
X-20132D01*
Y-89030D01*
D02*
G37*
G36*
X50045Y-93791D02*
X49659D01*
Y-98372D01*
X54240D01*
Y-97986D01*
X53911Y-96758D01*
X53275Y-95656D01*
X52376Y-94757D01*
X51274Y-94121D01*
X50045Y-93791D01*
D02*
G37*
G36*
X49159D02*
X48774D01*
X47545Y-94121D01*
X46443Y-94757D01*
X45544Y-95656D01*
X44908Y-96758D01*
X44579Y-97986D01*
Y-98372D01*
X49159D01*
Y-93791D01*
D02*
G37*
G36*
X29967D02*
X29581D01*
Y-98372D01*
X34161D01*
Y-97986D01*
X33832Y-96758D01*
X33196Y-95656D01*
X32297Y-94757D01*
X31195Y-94121D01*
X29967Y-93791D01*
D02*
G37*
G36*
X29081D02*
X28695D01*
X27466Y-94121D01*
X26365Y-94757D01*
X25465Y-95656D01*
X24829Y-96758D01*
X24500Y-97986D01*
Y-98372D01*
X29081D01*
Y-93791D01*
D02*
G37*
G36*
X377Y-12138D02*
X-377D01*
X-1105Y-12333D01*
X-1757Y-12710D01*
X-2290Y-13243D01*
X-2667Y-13895D01*
X-2862Y-14623D01*
Y-15377D01*
X-2667Y-16105D01*
X-2290Y-16757D01*
X-1757Y-17290D01*
X-1105Y-17667D01*
X-377Y-17862D01*
X377D01*
X658Y-17787D01*
X34884Y-52013D01*
X35372Y-52339D01*
X35948Y-52454D01*
X54262D01*
X87077Y-85269D01*
Y-94235D01*
X86870Y-94291D01*
X85858Y-94875D01*
X85032Y-95701D01*
X84448Y-96713D01*
X84146Y-97841D01*
Y-99009D01*
X84448Y-100138D01*
X85032Y-101150D01*
X85858Y-101976D01*
X86870Y-102560D01*
X87998Y-102862D01*
X89167D01*
X90295Y-102560D01*
X91307Y-101976D01*
X92133Y-101150D01*
X92717Y-100138D01*
X93020Y-99009D01*
Y-97841D01*
X92717Y-96713D01*
X92133Y-95701D01*
X91307Y-94875D01*
X90295Y-94291D01*
X90088Y-94235D01*
Y-84646D01*
X89973Y-84070D01*
X89647Y-83581D01*
X55950Y-49884D01*
X55461Y-49558D01*
X54885Y-49443D01*
X36572D01*
X2787Y-15658D01*
X2862Y-15377D01*
Y-14623D01*
X2667Y-13895D01*
X2290Y-13243D01*
X1757Y-12710D01*
X1105Y-12333D01*
X377Y-12138D01*
D02*
G37*
G36*
X54240Y-98872D02*
X49659D01*
Y-103453D01*
X50045D01*
X51274Y-103124D01*
X52376Y-102488D01*
X53275Y-101588D01*
X53911Y-100487D01*
X54240Y-99258D01*
Y-98872D01*
D02*
G37*
G36*
X49159D02*
X44579D01*
Y-99258D01*
X44908Y-100487D01*
X45544Y-101588D01*
X46443Y-102488D01*
X47545Y-103124D01*
X48774Y-103453D01*
X49159D01*
Y-98872D01*
D02*
G37*
G36*
X34161D02*
X29581D01*
Y-103453D01*
X29967D01*
X31195Y-103124D01*
X32297Y-102488D01*
X33196Y-101588D01*
X33832Y-100487D01*
X34161Y-99258D01*
Y-98872D01*
D02*
G37*
G36*
X29081D02*
X24500D01*
Y-99258D01*
X24829Y-100487D01*
X25465Y-101588D01*
X26365Y-102488D01*
X27466Y-103124D01*
X28695Y-103453D01*
X29081D01*
Y-98872D01*
D02*
G37*
G36*
X99258Y-103634D02*
X98872D01*
Y-108215D01*
X103453D01*
Y-107829D01*
X103124Y-106600D01*
X102488Y-105499D01*
X101588Y-104599D01*
X100487Y-103963D01*
X99258Y-103634D01*
D02*
G37*
G36*
X98372D02*
X97986D01*
X96758Y-103963D01*
X95656Y-104599D01*
X94757Y-105499D01*
X94121Y-106600D01*
X93791Y-107829D01*
Y-108215D01*
X98372D01*
Y-103634D01*
D02*
G37*
G36*
X79179D02*
X78793D01*
Y-108215D01*
X83374D01*
Y-107829D01*
X83045Y-106600D01*
X82409Y-105499D01*
X81509Y-104599D01*
X80408Y-103963D01*
X79179Y-103634D01*
D02*
G37*
G36*
X78293D02*
X77907D01*
X76679Y-103963D01*
X75577Y-104599D01*
X74678Y-105499D01*
X74042Y-106600D01*
X73713Y-107829D01*
Y-108215D01*
X78293D01*
Y-103634D01*
D02*
G37*
G36*
X103453Y-108715D02*
X98872D01*
Y-113295D01*
X99258D01*
X100487Y-112966D01*
X101588Y-112330D01*
X102488Y-111431D01*
X103124Y-110329D01*
X103453Y-109100D01*
Y-108715D01*
D02*
G37*
G36*
X98372D02*
X93791D01*
Y-109100D01*
X94121Y-110329D01*
X94757Y-111431D01*
X95656Y-112330D01*
X96758Y-112966D01*
X97986Y-113295D01*
X98372D01*
Y-108715D01*
D02*
G37*
G36*
X83374D02*
X78793D01*
Y-113295D01*
X79179D01*
X80408Y-112966D01*
X81509Y-112330D01*
X82409Y-111431D01*
X83045Y-110329D01*
X83374Y-109100D01*
Y-108715D01*
D02*
G37*
G36*
X78293D02*
X73713D01*
Y-109100D01*
X74042Y-110329D01*
X74678Y-111431D01*
X75577Y-112330D01*
X76679Y-112966D01*
X77907Y-113295D01*
X78293D01*
Y-108715D01*
D02*
G37*
G36*
X213567Y-101862D02*
X212848D01*
Y-113923D01*
X224909D01*
Y-113204D01*
X224606Y-111290D01*
X224008Y-109447D01*
X223128Y-107721D01*
X221989Y-106153D01*
X220619Y-104783D01*
X219051Y-103644D01*
X217324Y-102764D01*
X215481Y-102165D01*
X213567Y-101862D01*
D02*
G37*
G36*
X212348D02*
X211630D01*
X209716Y-102165D01*
X207873Y-102764D01*
X206146Y-103644D01*
X204578Y-104783D01*
X203208Y-106153D01*
X202069Y-107721D01*
X201189Y-109447D01*
X200591Y-111290D01*
X200287Y-113204D01*
Y-113923D01*
X212348D01*
Y-101862D01*
D02*
G37*
G36*
X-14779D02*
X-15498D01*
Y-113923D01*
X-3437D01*
Y-113204D01*
X-3740Y-111290D01*
X-4339Y-109447D01*
X-5219Y-107721D01*
X-6358Y-106153D01*
X-7728Y-104783D01*
X-9296Y-103644D01*
X-11022Y-102764D01*
X-12865Y-102165D01*
X-14779Y-101862D01*
D02*
G37*
G36*
X-15998D02*
X-16717D01*
X-18631Y-102165D01*
X-20474Y-102764D01*
X-22200Y-103644D01*
X-23768Y-104783D01*
X-25138Y-106153D01*
X-26277Y-107721D01*
X-27157Y-109447D01*
X-27756Y-111290D01*
X-28059Y-113204D01*
Y-113923D01*
X-15998D01*
Y-101862D01*
D02*
G37*
G36*
X224909Y-114423D02*
X212848D01*
Y-126484D01*
X213567D01*
X215481Y-126181D01*
X217324Y-125582D01*
X219051Y-124703D01*
X220619Y-123564D01*
X221989Y-122193D01*
X223128Y-120626D01*
X224008Y-118899D01*
X224606Y-117056D01*
X224909Y-115142D01*
Y-114423D01*
D02*
G37*
G36*
X212348D02*
X200287D01*
Y-115142D01*
X200591Y-117056D01*
X201189Y-118899D01*
X202069Y-120626D01*
X203208Y-122193D01*
X204578Y-123564D01*
X206146Y-124703D01*
X207873Y-125582D01*
X209716Y-126181D01*
X211630Y-126484D01*
X212348D01*
Y-114423D01*
D02*
G37*
G36*
X-3437Y-114423D02*
X-15498D01*
Y-126484D01*
X-14779D01*
X-12865Y-126181D01*
X-11022Y-125582D01*
X-9296Y-124703D01*
X-7728Y-123564D01*
X-6358Y-122193D01*
X-5219Y-120626D01*
X-4339Y-118899D01*
X-3740Y-117056D01*
X-3437Y-115142D01*
Y-114423D01*
D02*
G37*
G36*
X-15998D02*
X-28059D01*
Y-115142D01*
X-27756Y-117056D01*
X-27157Y-118899D01*
X-26277Y-120626D01*
X-25138Y-122193D01*
X-23768Y-123564D01*
X-22200Y-124703D01*
X-20474Y-125582D01*
X-18631Y-126181D01*
X-16717Y-126484D01*
X-15998D01*
Y-114423D01*
D02*
G37*
%LPD*%
D19*
X10000Y0D02*
X88583D01*
X143701Y25591D02*
X147638Y29528D01*
X72835Y25591D02*
X143701D01*
X52244Y5000D02*
X72835Y25591D01*
X20000Y5000D02*
X52244D01*
X-9843Y60039D02*
Y78740D01*
X-20000Y49882D02*
X-9843Y60039D01*
X-20000Y5000D02*
Y49882D01*
X143701Y-25591D02*
X147638Y-29528D01*
X72835Y-25591D02*
X143701D01*
X52244Y-5000D02*
X72835Y-25591D01*
X20000Y-5000D02*
X52244D01*
X147638Y-78740D02*
Y-67913D01*
X111221Y-31496D02*
X147638Y-67913D01*
X64961Y-31496D02*
X111221D01*
X43465Y-10000D02*
X64961Y-31496D01*
X10000Y-10000D02*
X43465D01*
X0Y-5000D02*
X293Y-5293D01*
X147638Y67913D02*
Y78740D01*
X-10000Y10000D02*
Y24449D01*
X43465Y10000D02*
X64961Y31496D01*
X88583Y-98425D02*
Y-84646D01*
X39370Y73819D02*
Y88583D01*
X111221Y31496D02*
X147638Y67913D01*
X88583Y84646D02*
Y98425D01*
X64961Y31496D02*
X111221D01*
X10000Y10000D02*
X43465D01*
X54885Y-50948D02*
X88583Y-84646D01*
X-10000Y24449D02*
X39370Y73819D01*
X-9843Y-78740D02*
Y-60039D01*
X0Y15000D02*
X35948Y50948D01*
X293Y-8167D02*
Y-5293D01*
X-20000Y-49882D02*
X-9843Y-60039D01*
X35948Y50948D02*
X54885D01*
X293Y-8167D02*
X7874Y-15748D01*
X-20000Y-49882D02*
Y-5000D01*
X54885Y50948D02*
X88583Y84646D01*
X0Y5000D02*
X293Y5293D01*
X7874Y-15748D02*
X34449D01*
X39370Y-88583D02*
Y-73819D01*
X293Y5293D02*
Y8167D01*
X34449Y-15748D02*
X67913Y-49213D01*
X-10000Y-24449D02*
X39370Y-73819D01*
X293Y8167D02*
X7874Y15748D01*
X67913Y-49213D02*
X88583D01*
X-10000Y-24449D02*
Y-10000D01*
X7874Y15748D02*
X34449D01*
X0Y-15000D02*
X35948Y-50948D01*
X34449Y15748D02*
X67913Y49213D01*
X35948Y-50948D02*
X54885D01*
X67913Y49213D02*
X88583D01*
D20*
X212598Y114173D02*
D03*
X-15748D02*
D03*
Y-114173D02*
D03*
X212598D02*
D03*
D21*
X78543Y10039D02*
D03*
X98622D02*
D03*
Y-10039D02*
D03*
X78543D02*
D03*
Y59252D02*
D03*
X98622D02*
D03*
Y39173D02*
D03*
X78543D02*
D03*
X196653Y10039D02*
D03*
X216732D02*
D03*
Y-10039D02*
D03*
X196653D02*
D03*
X78543Y-39173D02*
D03*
X98622D02*
D03*
Y-59252D02*
D03*
X78543D02*
D03*
X137598Y-19488D02*
D03*
X157677D02*
D03*
Y-39567D02*
D03*
X137598D02*
D03*
X29331Y-78543D02*
D03*
X49409D02*
D03*
Y-98622D02*
D03*
X29331D02*
D03*
Y98622D02*
D03*
X49409D02*
D03*
Y78543D02*
D03*
X29331D02*
D03*
X137598Y39567D02*
D03*
X157677D02*
D03*
Y19488D02*
D03*
X137598D02*
D03*
X78543Y-88386D02*
D03*
X98622D02*
D03*
Y-108465D02*
D03*
X78543D02*
D03*
X-19882Y88779D02*
D03*
X197D02*
D03*
Y68701D02*
D03*
X-19882D02*
D03*
X137598Y88779D02*
D03*
X157677D02*
D03*
Y68701D02*
D03*
X137598D02*
D03*
Y-68701D02*
D03*
X157677D02*
D03*
Y-88779D02*
D03*
X137598D02*
D03*
X-19882Y-68701D02*
D03*
X197D02*
D03*
Y-88779D02*
D03*
X-19882D02*
D03*
X78543Y108465D02*
D03*
X98622D02*
D03*
Y88386D02*
D03*
X78543D02*
D03*
D22*
X88583Y0D02*
D03*
Y49213D02*
D03*
X206693Y0D02*
D03*
X88583Y-49213D02*
D03*
X147638Y-29528D02*
D03*
X39370Y-88583D02*
D03*
Y88583D02*
D03*
X147638Y29528D02*
D03*
X88583Y-98425D02*
D03*
X-9843Y78740D02*
D03*
X147638D02*
D03*
Y-78740D02*
D03*
X-9843D02*
D03*
X88583Y98425D02*
D03*
D23*
X20000Y5000D02*
D03*
X10000Y10000D02*
D03*
X0Y15000D02*
D03*
X-10000Y10000D02*
D03*
X-20000Y5000D02*
D03*
Y-5000D02*
D03*
X-10000Y-10000D02*
D03*
X0Y-15000D02*
D03*
X10000Y-10000D02*
D03*
X20000Y-5000D02*
D03*
X10000Y0D02*
D03*
X0Y5000D02*
D03*
X-10000Y0D02*
D03*
X0Y-5000D02*
D03*
D24*
X25000Y25000D02*
D03*
X-25000D02*
D03*
Y-25000D02*
D03*
X25000D02*
D03*
D25*
X230315Y98425D02*
D03*
X224409Y86614D02*
D03*
X230315Y74803D02*
D03*
X224409Y62992D02*
D03*
X230315Y51181D02*
D03*
X224409Y39370D02*
D03*
X230315Y27559D02*
D03*
X224409Y15748D02*
D03*
X230315Y3937D02*
D03*
Y-19685D02*
D03*
X224409Y-31496D02*
D03*
X230315Y-43307D02*
D03*
X224409Y-55118D02*
D03*
X230315Y-66929D02*
D03*
X224409Y-78740D02*
D03*
X230315Y-90551D02*
D03*
X224409Y-102362D02*
D03*
X230315Y-114173D02*
D03*
X218504Y98425D02*
D03*
X212598Y86614D02*
D03*
X218504Y74803D02*
D03*
X212598Y62992D02*
D03*
X218504Y51181D02*
D03*
X212598Y39370D02*
D03*
X218504Y27559D02*
D03*
Y-19685D02*
D03*
X212598Y-31496D02*
D03*
X218504Y-43307D02*
D03*
X212598Y-55118D02*
D03*
X218504Y-66929D02*
D03*
X212598Y-78740D02*
D03*
X218504Y-90551D02*
D03*
X206693Y98425D02*
D03*
X200787Y86614D02*
D03*
X206693Y74803D02*
D03*
X200787Y62992D02*
D03*
X206693Y51181D02*
D03*
X200787Y39370D02*
D03*
X206693Y27559D02*
D03*
X200787Y-31496D02*
D03*
Y-55118D02*
D03*
Y-78740D02*
D03*
X206693Y-90551D02*
D03*
X200787Y-102362D02*
D03*
Y-125984D02*
D03*
X194882Y122047D02*
D03*
X188976Y110236D02*
D03*
X194882Y98425D02*
D03*
X188976Y86614D02*
D03*
X194882Y74803D02*
D03*
X188976Y62992D02*
D03*
X194882Y51181D02*
D03*
X188976Y39370D02*
D03*
X194882Y27559D02*
D03*
X188976Y15748D02*
D03*
X194882Y-19685D02*
D03*
X188976Y-31496D02*
D03*
X194882Y-43307D02*
D03*
X188976Y-55118D02*
D03*
X194882Y-66929D02*
D03*
Y-90551D02*
D03*
X188976Y-102362D02*
D03*
X194882Y-114173D02*
D03*
X188976Y-125984D02*
D03*
X183071Y122047D02*
D03*
X177165Y110236D02*
D03*
X183071Y98425D02*
D03*
X177165Y86614D02*
D03*
X183071Y74803D02*
D03*
X177165Y62992D02*
D03*
X183071Y51181D02*
D03*
Y27559D02*
D03*
Y-19685D02*
D03*
Y-43307D02*
D03*
X177165Y-55118D02*
D03*
X183071Y-66929D02*
D03*
X177165Y-78740D02*
D03*
Y-102362D02*
D03*
X183071Y-114173D02*
D03*
X177165Y-125984D02*
D03*
X171260Y122047D02*
D03*
X165354Y110236D02*
D03*
X171260Y98425D02*
D03*
Y74803D02*
D03*
X165354Y62992D02*
D03*
X171260Y51181D02*
D03*
Y27559D02*
D03*
X165354Y15748D02*
D03*
X171260Y3937D02*
D03*
X165354Y-7874D02*
D03*
X171260Y-19685D02*
D03*
X165354Y-31496D02*
D03*
X171260Y-43307D02*
D03*
X165354Y-55118D02*
D03*
X171260Y-66929D02*
D03*
X165354Y-78740D02*
D03*
X171260Y-90551D02*
D03*
Y-114173D02*
D03*
X165354Y-125984D02*
D03*
X159449Y122047D02*
D03*
X153543Y110236D02*
D03*
X159449Y98425D02*
D03*
Y51181D02*
D03*
Y27559D02*
D03*
Y3937D02*
D03*
X153543Y-7874D02*
D03*
Y-55118D02*
D03*
Y-102362D02*
D03*
Y-125984D02*
D03*
X147638Y122047D02*
D03*
X141732Y110236D02*
D03*
X147638Y98425D02*
D03*
Y51181D02*
D03*
Y3937D02*
D03*
X141732Y-7874D02*
D03*
X147638Y-19685D02*
D03*
Y-43307D02*
D03*
X141732Y-55118D02*
D03*
X147638Y-90551D02*
D03*
X141732Y-102362D02*
D03*
X147638Y-114173D02*
D03*
X141732Y-125984D02*
D03*
X135827Y122047D02*
D03*
X129921Y110236D02*
D03*
X135827Y98425D02*
D03*
X129921Y62992D02*
D03*
Y15748D02*
D03*
X135827Y3937D02*
D03*
X129921Y-7874D02*
D03*
Y-31496D02*
D03*
Y-78740D02*
D03*
Y-102362D02*
D03*
X135827Y-114173D02*
D03*
X129921Y-125984D02*
D03*
X124016Y122047D02*
D03*
X118110Y110236D02*
D03*
X124016Y98425D02*
D03*
X118110Y86614D02*
D03*
X124016Y74803D02*
D03*
X118110Y62992D02*
D03*
X124016Y51181D02*
D03*
X118110Y15748D02*
D03*
Y-7874D02*
D03*
X124016Y-19685D02*
D03*
X118110Y-31496D02*
D03*
Y-55118D02*
D03*
X124016Y-66929D02*
D03*
X118110Y-78740D02*
D03*
X124016Y-90551D02*
D03*
X118110Y-102362D02*
D03*
X124016Y-114173D02*
D03*
X118110Y-125984D02*
D03*
X112205Y122047D02*
D03*
Y98425D02*
D03*
Y74803D02*
D03*
X106299Y62992D02*
D03*
X112205Y51181D02*
D03*
X106299Y15748D02*
D03*
X112205Y-19685D02*
D03*
Y-43307D02*
D03*
X106299Y-55118D02*
D03*
X112205Y-66929D02*
D03*
X106299Y-78740D02*
D03*
X112205Y-90551D02*
D03*
X106299Y-102362D02*
D03*
X112205Y-114173D02*
D03*
X106299Y-125984D02*
D03*
X100394Y122047D02*
D03*
Y98425D02*
D03*
Y74803D02*
D03*
Y51181D02*
D03*
Y-19685D02*
D03*
X94488Y-78740D02*
D03*
Y-125984D02*
D03*
X88583Y122047D02*
D03*
Y74803D02*
D03*
Y-19685D02*
D03*
Y-66929D02*
D03*
X82677Y-125984D02*
D03*
X76771Y122047D02*
D03*
Y98425D02*
D03*
X70866Y15748D02*
D03*
X76771Y-19685D02*
D03*
X70866Y-55118D02*
D03*
Y-78740D02*
D03*
Y-102362D02*
D03*
Y-125984D02*
D03*
X64960Y122047D02*
D03*
X59055Y110236D02*
D03*
Y86614D02*
D03*
X64960Y74803D02*
D03*
X59055Y62992D02*
D03*
Y-78740D02*
D03*
Y-102362D02*
D03*
Y-125984D02*
D03*
X53149Y122047D02*
D03*
X47244Y110236D02*
D03*
Y86614D02*
D03*
Y62992D02*
D03*
Y39370D02*
D03*
X53149Y27559D02*
D03*
Y-43307D02*
D03*
Y-90551D02*
D03*
Y-114173D02*
D03*
X47244Y-125984D02*
D03*
X41339Y122047D02*
D03*
X35433Y110236D02*
D03*
X41339Y98425D02*
D03*
X35433Y62992D02*
D03*
Y39370D02*
D03*
Y-31496D02*
D03*
X41339Y-43307D02*
D03*
Y-114173D02*
D03*
X35433Y-125984D02*
D03*
X29528Y122047D02*
D03*
X23622Y110236D02*
D03*
X29528Y51181D02*
D03*
X23622Y-31496D02*
D03*
X29528Y-90551D02*
D03*
Y-114173D02*
D03*
X23622Y-125984D02*
D03*
X17716Y122047D02*
D03*
X11811Y110236D02*
D03*
X17716Y98425D02*
D03*
X11811Y86614D02*
D03*
X17716Y74803D02*
D03*
X11811Y62992D02*
D03*
Y39370D02*
D03*
Y-55118D02*
D03*
X17716Y-66929D02*
D03*
X11811Y-78740D02*
D03*
Y-102362D02*
D03*
X17716Y-114173D02*
D03*
X11811Y-125984D02*
D03*
X5905Y122047D02*
D03*
X-0Y110236D02*
D03*
X5905Y98425D02*
D03*
Y51181D02*
D03*
Y27559D02*
D03*
X-0Y-55118D02*
D03*
Y-78740D02*
D03*
Y-102362D02*
D03*
X5905Y-114173D02*
D03*
X-0Y-125984D02*
D03*
X-5906Y98425D02*
D03*
X-11811Y86614D02*
D03*
X-5906Y51181D02*
D03*
X-11811Y39370D02*
D03*
Y-31496D02*
D03*
X-5906Y-43307D02*
D03*
X-17717Y98425D02*
D03*
X-23622Y-55118D02*
D03*
Y-78740D02*
D03*
X-29528Y122047D02*
D03*
Y98425D02*
D03*
Y74803D02*
D03*
Y51181D02*
D03*
Y3937D02*
D03*
Y-19685D02*
D03*
Y-43307D02*
D03*
Y-66929D02*
D03*
Y-90551D02*
D03*
D26*
X203150Y114173D02*
D03*
X205906Y107480D02*
D03*
X212598Y104724D02*
D03*
X219291Y107480D02*
D03*
X222047Y114173D02*
D03*
X219291Y120866D02*
D03*
X205906D02*
D03*
X212598Y123622D02*
D03*
X-25197Y114173D02*
D03*
X-22441Y107480D02*
D03*
X-15748Y104724D02*
D03*
X-9055Y107480D02*
D03*
X-6299Y114173D02*
D03*
X-9055Y120866D02*
D03*
X-22441D02*
D03*
X-15748Y123622D02*
D03*
X-25197Y-114173D02*
D03*
X-22441Y-120866D02*
D03*
X-15748Y-123622D02*
D03*
X-9055Y-120866D02*
D03*
X-6299Y-114173D02*
D03*
X-9055Y-107480D02*
D03*
X-22441D02*
D03*
X-15748Y-104724D02*
D03*
X203150Y-114173D02*
D03*
X205906Y-120866D02*
D03*
X212598Y-123622D02*
D03*
X219291Y-120866D02*
D03*
X222047Y-114173D02*
D03*
X219291Y-107480D02*
D03*
X205906D02*
D03*
X212598Y-104724D02*
D03*
M02*
