G04*
G04 #@! TF.GenerationSoftware,Altium Limited,Altium Designer,23.11.1 (41)*
G04*
G04 Layer_Color=8388736*
%FSLAX25Y25*%
%MOIN*%
G70*
G04*
G04 #@! TF.SameCoordinates,C9437007-6874-4410-A1E4-39502FECBC63*
G04*
G04*
G04 #@! TF.FilePolarity,Negative*
G04*
G01*
G75*
%ADD14C,0.24422*%
%ADD15C,0.09252*%
%ADD16C,0.08465*%
%ADD17C,0.05315*%
%ADD18C,0.05709*%
D14*
X212598Y114173D02*
D03*
X-15748D02*
D03*
Y-114173D02*
D03*
X212598D02*
D03*
D15*
X78543Y10039D02*
D03*
X98622D02*
D03*
Y-10039D02*
D03*
X78543D02*
D03*
Y59252D02*
D03*
X98622D02*
D03*
Y39173D02*
D03*
X78543D02*
D03*
X196653Y10039D02*
D03*
X216732D02*
D03*
Y-10039D02*
D03*
X196653D02*
D03*
X78543Y-39173D02*
D03*
X98622D02*
D03*
Y-59252D02*
D03*
X78543D02*
D03*
X137598Y-19488D02*
D03*
X157677D02*
D03*
Y-39567D02*
D03*
X137598D02*
D03*
X29331Y-78543D02*
D03*
X49409D02*
D03*
Y-98622D02*
D03*
X29331D02*
D03*
Y98622D02*
D03*
X49409D02*
D03*
Y78543D02*
D03*
X29331D02*
D03*
X137598Y39567D02*
D03*
X157677D02*
D03*
Y19488D02*
D03*
X137598D02*
D03*
X78543Y-88386D02*
D03*
X98622D02*
D03*
Y-108465D02*
D03*
X78543D02*
D03*
X-19882Y88779D02*
D03*
X197D02*
D03*
Y68701D02*
D03*
X-19882D02*
D03*
X137598Y88779D02*
D03*
X157677D02*
D03*
Y68701D02*
D03*
X137598D02*
D03*
Y-68701D02*
D03*
X157677D02*
D03*
Y-88779D02*
D03*
X137598D02*
D03*
X-19882Y-68701D02*
D03*
X197D02*
D03*
Y-88779D02*
D03*
X-19882D02*
D03*
X78543Y108465D02*
D03*
X98622D02*
D03*
Y88386D02*
D03*
X78543D02*
D03*
D16*
X88583Y0D02*
D03*
Y49213D02*
D03*
X206693Y0D02*
D03*
X88583Y-49213D02*
D03*
X147638Y-29528D02*
D03*
X39370Y-88583D02*
D03*
Y88583D02*
D03*
X147638Y29528D02*
D03*
X88583Y-98425D02*
D03*
X-9843Y78740D02*
D03*
X147638D02*
D03*
Y-78740D02*
D03*
X-9843D02*
D03*
X88583Y98425D02*
D03*
D17*
X20000Y5000D02*
D03*
X10000Y10000D02*
D03*
X0Y15000D02*
D03*
X-10000Y10000D02*
D03*
X-20000Y5000D02*
D03*
Y-5000D02*
D03*
X-10000Y-10000D02*
D03*
X0Y-15000D02*
D03*
X10000Y-10000D02*
D03*
X20000Y-5000D02*
D03*
X10000Y0D02*
D03*
X0Y5000D02*
D03*
X-10000Y0D02*
D03*
X0Y-5000D02*
D03*
D18*
X25000Y25000D02*
D03*
X-25000D02*
D03*
Y-25000D02*
D03*
X25000D02*
D03*
M02*
