G04*
G04 #@! TF.GenerationSoftware,Altium Limited,Altium Designer,23.11.1 (41)*
G04*
G04 Layer_Color=65535*
%FSLAX25Y25*%
%MOIN*%
G70*
G04*
G04 #@! TF.SameCoordinates,C9437007-6874-4410-A1E4-39502FECBC63*
G04*
G04*
G04 #@! TF.FilePolarity,Positive*
G04*
G01*
G75*
%ADD10C,0.00787*%
%ADD11C,0.00787*%
%ADD12C,0.00591*%
%ADD13C,0.00610*%
D10*
X72835Y-15748D02*
X104331D01*
Y15748D01*
X72835D02*
X104331D01*
X72835Y-15748D02*
Y15748D01*
Y33465D02*
X104331D01*
Y64961D01*
X72835D02*
X104331D01*
X72835Y33465D02*
Y64961D01*
X190945Y-15748D02*
X222441D01*
Y15748D01*
X190945D02*
X222441D01*
X190945Y-15748D02*
Y15748D01*
X72835Y-64961D02*
X104331D01*
Y-33465D01*
X72835D02*
X104331D01*
X72835Y-64961D02*
Y-33465D01*
X131890Y-45276D02*
X163386D01*
Y-13780D01*
X131890D02*
X163386D01*
X131890Y-45276D02*
Y-13780D01*
X23622Y-104331D02*
X55118D01*
Y-72835D01*
X23622D02*
X55118D01*
X23622Y-104331D02*
Y-72835D01*
Y72835D02*
X55118D01*
Y104331D01*
X23622D02*
X55118D01*
X23622Y72835D02*
Y104331D01*
X131890Y13780D02*
X163386D01*
Y45276D01*
X131890D02*
X163386D01*
X131890Y13780D02*
Y45276D01*
X72835Y-114173D02*
X104331D01*
Y-82677D01*
X72835D02*
X104331D01*
X72835Y-114173D02*
Y-82677D01*
X-25591Y62992D02*
X5906D01*
Y94488D01*
X-25591D02*
X5906D01*
X-25591Y62992D02*
Y94488D01*
X131890Y62992D02*
X163386D01*
Y94488D01*
X131890D02*
X163386D01*
X131890Y62992D02*
Y94488D01*
Y-94488D02*
X163386D01*
Y-62992D01*
X131890D02*
X163386D01*
X131890Y-94488D02*
Y-62992D01*
X-25591Y-94488D02*
X5906D01*
Y-62992D01*
X-25591D02*
X5906D01*
X-25591Y-94488D02*
Y-62992D01*
X72835Y82677D02*
X104331D01*
Y114173D01*
X72835D02*
X104331D01*
X72835Y82677D02*
Y114173D01*
D11*
X-107677Y-30315D02*
X34055D01*
X-107677Y30315D02*
X34055D01*
Y-30315D02*
Y30315D01*
X-107677Y-30315D02*
Y30315D01*
D12*
X-32087Y16268D02*
Y17317D01*
Y16793D01*
X-34711D01*
X-35236Y17317D01*
Y17842D01*
X-34711Y18367D01*
X-32087Y15218D02*
X-35236D01*
Y13119D01*
X-32612Y9971D02*
X-32087Y10495D01*
Y11545D01*
X-32612Y12070D01*
X-34711D01*
X-35236Y11545D01*
Y10495D01*
X-34711Y9971D01*
X-32087Y6822D02*
Y7871D01*
Y7347D01*
X-34711D01*
X-35236Y7871D01*
Y8396D01*
X-34711Y8921D01*
X-32087Y5772D02*
X-35236D01*
Y3673D01*
X-32612Y525D02*
X-32087Y1049D01*
Y2099D01*
X-32612Y2624D01*
X-34711D01*
X-35236Y2099D01*
Y1049D01*
X-34711Y525D01*
X-32087Y-2624D02*
Y-1574D01*
Y-2099D01*
X-34711D01*
X-35236Y-1574D01*
Y-1049D01*
X-34711Y-525D01*
X-32087Y-3673D02*
X-35236D01*
Y-5772D01*
X-32612Y-8921D02*
X-32087Y-8396D01*
Y-7347D01*
X-32612Y-6822D01*
X-34711D01*
X-35236Y-7347D01*
Y-8396D01*
X-34711Y-8921D01*
X-32087Y-12070D02*
Y-11020D01*
Y-11545D01*
X-34711D01*
X-35236Y-11020D01*
Y-10495D01*
X-34711Y-9971D01*
X-32087Y-13119D02*
X-35236D01*
Y-15218D01*
X-32612Y-18367D02*
X-32087Y-17842D01*
Y-16793D01*
X-32612Y-16268D01*
X-34711D01*
X-35236Y-16793D01*
Y-17842D01*
X-34711Y-18367D01*
D13*
X181713Y3690D02*
Y2050D01*
Y2870D01*
X186632D01*
X185812Y3690D01*
Y-410D02*
X186632Y-1230D01*
Y-2870D01*
X185812Y-3690D01*
X184992D01*
X184172Y-2870D01*
Y-2050D01*
Y-2870D01*
X183352Y-3690D01*
X182533D01*
X181713Y-2870D01*
Y-1230D01*
X182533Y-410D01*
X123477Y-77100D02*
X122658Y-77920D01*
Y-79560D01*
X123477Y-80380D01*
X126757D01*
X127577Y-79560D01*
Y-77920D01*
X126757Y-77100D01*
X125937D01*
X125117Y-77920D01*
Y-80380D01*
X122658Y-25838D02*
Y-27478D01*
Y-26658D01*
X127577D01*
X126757Y-25838D01*
Y-29937D02*
X127577Y-30757D01*
Y-32397D01*
X126757Y-33217D01*
X123477D01*
X122658Y-32397D01*
Y-30757D01*
X123477Y-29937D01*
X126757D01*
X122658Y30347D02*
Y28708D01*
Y29528D01*
X127577D01*
X126757Y30347D01*
X122658Y77100D02*
Y80380D01*
X125937Y77100D01*
X126757D01*
X127577Y77920D01*
Y79560D01*
X126757Y80380D01*
X63602Y52902D02*
Y51262D01*
Y52082D01*
X68522D01*
X67702Y52902D01*
X63602Y45523D02*
Y48803D01*
X66882Y45523D01*
X67702D01*
X68522Y46343D01*
Y47983D01*
X67702Y48803D01*
X-29903Y77100D02*
Y80380D01*
X-32363D01*
X-31543Y78740D01*
Y77920D01*
X-32363Y77100D01*
X-34003D01*
X-34823Y77920D01*
Y79560D01*
X-34003Y80380D01*
X14390Y87763D02*
X19309D01*
X16850Y90223D01*
Y86943D01*
X67702Y100065D02*
X68522Y99245D01*
Y97605D01*
X67702Y96785D01*
X66882D01*
X66062Y97605D01*
Y98425D01*
Y97605D01*
X65242Y96785D01*
X64422D01*
X63602Y97605D01*
Y99245D01*
X64422Y100065D01*
X63602Y2870D02*
Y1230D01*
Y2050D01*
X68522D01*
X67702Y2870D01*
X63602Y-1230D02*
Y-2870D01*
Y-2050D01*
X68522D01*
X67702Y-1230D01*
X63602Y-45523D02*
Y-47163D01*
Y-46343D01*
X68522D01*
X67702Y-45523D01*
X63602Y-52082D02*
X68522D01*
X66062Y-49623D01*
Y-52902D01*
X67702Y-96785D02*
X68522Y-97605D01*
Y-99245D01*
X67702Y-100065D01*
X66882D01*
X66062Y-99245D01*
X65242Y-100065D01*
X64422D01*
X63602Y-99245D01*
Y-97605D01*
X64422Y-96785D01*
X65242D01*
X66062Y-97605D01*
X66882Y-96785D01*
X67702D01*
X66062Y-97605D02*
Y-99245D01*
X19309Y-86943D02*
Y-90223D01*
X18489D01*
X15210Y-86943D01*
X14390D01*
X-29903Y-80380D02*
X-30723Y-78740D01*
X-32363Y-77100D01*
X-34003D01*
X-34823Y-77920D01*
Y-79560D01*
X-34003Y-80380D01*
X-33183D01*
X-32363Y-79560D01*
Y-77100D01*
M02*
