G04*
G04 #@! TF.GenerationSoftware,Altium Limited,Altium Designer,23.9.2 (47)*
G04*
G04 Layer_Color=32896*
%FSLAX25Y25*%
%MOIN*%
G70*
G04*
G04 #@! TF.SameCoordinates,5BF2F9AB-C423-4005-A627-090FB2B952A9*
G04*
G04*
G04 #@! TF.FilePolarity,Positive*
G04*
G01*
G75*
%ADD14C,0.00551*%
D14*
X-10182Y-15841D02*
X-7427D01*
X-10182Y-14005D01*
X-7427D01*
X-10182Y-13086D02*
X-7427D01*
X-8346Y-12168D01*
X-7427Y-11250D01*
X-10182D01*
Y-10331D02*
X-7427D01*
Y-8954D01*
X-7886Y-8495D01*
X-8805D01*
X-9264Y-8954D01*
Y-10331D01*
Y-9413D02*
X-10182Y-8495D01*
X-7427Y-2985D02*
Y-4821D01*
X-8805D01*
Y-3903D01*
Y-4821D01*
X-10182D01*
X-8346Y-2066D02*
X-10182D01*
X-9264D01*
X-8805Y-1607D01*
X-8346Y-1148D01*
Y-689D01*
X-10182Y1148D02*
Y2066D01*
X-9723Y2525D01*
X-8805D01*
X-8346Y2066D01*
Y1148D01*
X-8805Y689D01*
X-9723D01*
X-10182Y1148D01*
Y3444D02*
X-8346D01*
Y4821D01*
X-8805Y5280D01*
X-10182D01*
X-7886Y6658D02*
X-8346D01*
Y6199D01*
Y7117D01*
Y6658D01*
X-9723D01*
X-10182Y7117D01*
Y9872D02*
Y8954D01*
X-9723Y8495D01*
X-8805D01*
X-8346Y8954D01*
Y9872D01*
X-8805Y10331D01*
X-9264D01*
Y8495D01*
X-10182Y11250D02*
X-8346D01*
Y12627D01*
X-8805Y13086D01*
X-10182D01*
X-7427Y15841D02*
X-10182D01*
Y14464D01*
X-9723Y14005D01*
X-8805D01*
X-8346Y14464D01*
Y15841D01*
X-14811Y-19974D02*
X-12974D01*
X-12056Y-19056D01*
X-12974Y-18137D01*
X-14811D01*
X-13434D01*
Y-19974D01*
X-12515Y-15382D02*
X-12056Y-15841D01*
Y-16760D01*
X-12515Y-17219D01*
X-12974D01*
X-13434Y-16760D01*
Y-15841D01*
X-13893Y-15382D01*
X-14352D01*
X-14811Y-15841D01*
Y-16760D01*
X-14352Y-17219D01*
X-12056Y-14464D02*
Y-13545D01*
Y-14005D01*
X-14811D01*
Y-14464D01*
Y-13545D01*
X-12515Y-10331D02*
X-12056Y-10791D01*
Y-11709D01*
X-12515Y-12168D01*
X-14352D01*
X-14811Y-11709D01*
Y-10791D01*
X-14352Y-10331D01*
X-14811Y-5740D02*
Y-6658D01*
X-12056D01*
Y-5740D01*
Y-2525D02*
Y-4362D01*
X-13434D01*
Y-3444D01*
Y-4362D01*
X-14811D01*
X-12056Y-1607D02*
X-14811D01*
Y-230D01*
X-14352Y230D01*
X-12515D01*
X-12056Y-230D01*
Y-1607D01*
X-14811Y1148D02*
Y2066D01*
X-12056D01*
Y1148D01*
X-13434Y6199D02*
Y8036D01*
X-12056Y11709D02*
X-13893D01*
X-14811Y12627D01*
X-13893Y13545D01*
X-12056D01*
X-14811Y14464D02*
Y15382D01*
Y14923D01*
X-12056D01*
X-12515Y14464D01*
X-14811Y16760D02*
X-14352D01*
Y17219D01*
X-14811D01*
Y16760D01*
Y19056D02*
Y19974D01*
Y19515D01*
X-12056D01*
X-12515Y19056D01*
X-17144Y-9183D02*
X-16685Y-8724D01*
Y-7806D01*
X-17144Y-7347D01*
X-18981D01*
X-19440Y-7806D01*
Y-8724D01*
X-18981Y-9183D01*
X-17144D01*
X-18981Y-6428D02*
X-19440Y-5969D01*
Y-5051D01*
X-18981Y-4592D01*
X-17144D01*
X-16685Y-5051D01*
Y-5969D01*
X-17144Y-6428D01*
X-17603D01*
X-18063Y-5969D01*
Y-4592D01*
X-19440Y-3673D02*
X-17603Y-1837D01*
X-19440Y918D02*
Y-918D01*
X-17603Y918D01*
X-17144D01*
X-16685Y459D01*
Y-459D01*
X-17144Y-918D01*
Y1837D02*
X-16685Y2296D01*
Y3214D01*
X-17144Y3673D01*
X-18981D01*
X-19440Y3214D01*
Y2296D01*
X-18981Y1837D01*
X-17144D01*
X-19440Y6428D02*
Y4592D01*
X-17603Y6428D01*
X-17144D01*
X-16685Y5969D01*
Y5051D01*
X-17144Y4592D01*
Y7347D02*
X-16685Y7806D01*
Y8724D01*
X-17144Y9183D01*
X-17603D01*
X-18063Y8724D01*
Y8265D01*
Y8724D01*
X-18522Y9183D01*
X-18981D01*
X-19440Y8724D01*
Y7806D01*
X-18981Y7347D01*
X-21314Y-17678D02*
Y-15841D01*
Y-16760D01*
X-24069D01*
Y-14923D02*
X-23610D01*
Y-14464D01*
X-24069D01*
Y-14923D01*
X-21314Y-9872D02*
X-24069D01*
X-23151Y-8954D01*
X-24069Y-8036D01*
X-21314D01*
X-24069Y-7117D02*
Y-6199D01*
Y-6658D01*
X-22232D01*
Y-7117D01*
Y-4821D02*
X-24069D01*
X-23151D01*
X-22691Y-4362D01*
X-22232Y-3903D01*
Y-3444D01*
X-21773Y-1607D02*
X-22232D01*
Y-2066D01*
Y-1148D01*
Y-1607D01*
X-23610D01*
X-24069Y-1148D01*
X-21314Y230D02*
X-24069D01*
X-22691D01*
X-22232Y689D01*
Y1607D01*
X-22691Y2066D01*
X-24069D01*
X-22691Y5740D02*
Y7576D01*
X-21314Y11250D02*
Y12168D01*
Y11709D01*
X-24069D01*
Y11250D01*
Y12168D01*
X-21314Y13545D02*
Y14464D01*
Y14005D01*
X-24069D01*
Y13545D01*
Y14464D01*
X-21773Y17678D02*
X-21314Y17219D01*
Y16300D01*
X-21773Y15841D01*
X-22232D01*
X-22691Y16300D01*
Y17219D01*
X-23151Y17678D01*
X-23610D01*
X-24069Y17219D01*
Y16300D01*
X-23610Y15841D01*
M02*
