M48
;Layer_Color=9474304
;FILE_FORMAT=2:4
INCH,TZ
;TYPE=PLATED
T01F00S00C0.0118
T02F00S00C0.1280
T03F00S00C0.1457
;TYPE=NON_PLATED
T04F00S00C0.0197
%
T01
X13484Y-2825
Y-2313
Y-1289
X13878Y0
X15650
X17323
X17913
X16732Y-1614
X17028Y-2313
X17618Y-2825
X18209Y-3524
X19331Y-3248
X19606Y-2579
X20276Y-2303
X20945Y-2579
X21220Y-3248
X20945Y-3917
X20276Y-4193
X19606Y-3917
X16157Y-3559
X13091Y-768
X12008Y-98
X10532Y541
X9715Y-2825
X5157Y-866
X2136
X1734Y1
X3181Y197
X6220Y-7992
X6890Y-7717
X7559Y-7992
X7835Y-8661
X7559Y-9331
X6890Y-9606
X6220Y-9331
X5945Y-8661
X7087Y1181
X8279Y1599
X8366Y2559
X7972Y3720
X5315Y2756
Y1969
X3181Y2472
X2795Y2756
X2409Y2472
Y3039
X3307Y3319
Y3720
Y5728
X6220Y7992
X6890Y7717
X7559Y7992
X7835Y8661
X7559Y9331
X6890Y9606
X6220Y9331
X5945Y8661
X10532Y2559
X10177Y1959
X12205Y1969
X12404Y2561
X12010Y3722
X1368Y868
X14569Y2561
X15402Y3331
X16157Y2968
X17323Y1969
X19606Y2579
X19331Y3248
X19606Y3917
X20276Y4193
X20945Y3917
X21220Y3248
X20945Y2579
X20276Y2303
T02
X496Y-7807
Y-1642
Y1642
Y7807
T03
X20276Y-3248
X6890Y-8661
Y8661
X20276Y3248
T04
X20965Y-984
X21358
Y984
X20965
M30
