G04*
G04 #@! TF.GenerationSoftware,Altium Limited,Altium Designer,23.11.1 (41)*
G04*
G04 Layer_Color=65535*
%FSLAX25Y25*%
%MOIN*%
G70*
G04*
G04 #@! TF.SameCoordinates,CB1B34B6-0843-45E9-8427-EF7A7B179012*
G04*
G04*
G04 #@! TF.FilePolarity,Positive*
G04*
G01*
G75*
%ADD10C,0.00984*%
%ADD11C,0.02362*%
%ADD12C,0.00787*%
%ADD13C,0.00394*%
%ADD14C,0.00787*%
%ADD15C,0.00610*%
%ADD16C,0.00591*%
G36*
X-25591Y110236D02*
X-29528Y106299D01*
Y110236D01*
X-25591D01*
D02*
G37*
D10*
X73347Y10728D02*
X72608Y11155D01*
Y10302D01*
X73347Y10728D01*
X-21161Y-4331D02*
X-21900Y-3904D01*
Y-4757D01*
X-21161Y-4331D01*
X-76083Y-11516D02*
X-76821Y-11090D01*
Y-11942D01*
X-76083Y-11516D01*
X-31594Y109646D02*
X-32333Y110072D01*
Y109220D01*
X-31594Y109646D01*
X46555Y93701D02*
X45817Y94127D01*
Y93275D01*
X46555Y93701D01*
X-59744D02*
X-60482Y94127D01*
Y93275D01*
X-59744Y93701D01*
D11*
X-69882Y-3150D02*
X-70327Y-2226D01*
X-71326Y-1998D01*
X-72127Y-2637D01*
Y-3662D01*
X-71326Y-4301D01*
X-70327Y-4073D01*
X-69882Y-3150D01*
D12*
X-30315Y-223819D02*
X30315D01*
X-30315Y-82087D02*
X30315D01*
X-30315Y-223819D02*
Y-82087D01*
X30315Y-223819D02*
Y-82087D01*
D13*
X-68898Y-95472D02*
Y-91535D01*
X-60039Y-95472D02*
Y-91535D01*
X56102Y-46260D02*
Y-42323D01*
X64961Y-46260D02*
Y-42323D01*
X73819Y-46260D02*
Y-42323D01*
Y-94488D02*
Y-90551D01*
X64961Y-94488D02*
Y-90551D01*
X56102Y-94488D02*
Y-90551D01*
D14*
X52165Y6299D02*
X71850D01*
X52165Y-6299D02*
X71850D01*
Y6299D01*
X52165Y-6299D02*
Y6299D01*
X-20472Y-1181D02*
Y1181D01*
X-11811Y-1181D02*
Y1181D01*
X-20472Y-1181D02*
X-11811D01*
X-20472Y1181D02*
X-11811D01*
X-49016Y-7087D02*
Y7087D01*
X-75000Y-7087D02*
Y7087D01*
X-49016D01*
X-75000Y-7087D02*
X-49016D01*
X-29528Y51181D02*
X29528D01*
X-29528Y110236D02*
X29528D01*
Y51181D02*
Y110236D01*
X-29528Y51181D02*
Y110236D01*
Y106299D02*
X-25591Y110236D01*
X47244Y97244D02*
Y101181D01*
X50394D01*
X59055Y97244D02*
Y101181D01*
X55905D02*
X59055D01*
X-59055Y97244D02*
Y101181D01*
X-55905D01*
X-47244Y97244D02*
Y101181D01*
X-50394D02*
X-47244D01*
X-1378Y132677D02*
X1378D01*
X-1378Y138976D02*
X1378D01*
D15*
X-10077Y38666D02*
X-11932Y36811D01*
X-10541Y35419D01*
X-9613Y36347D01*
X-10541Y35419D01*
X-9149Y34028D01*
X-6366Y36811D02*
X-9149Y39594D01*
X-7758Y40986D01*
X-6830Y40986D01*
X-5903Y40058D01*
Y39130D01*
X-7294Y37739D01*
X-6366Y38666D02*
X-4511D01*
Y44232D02*
X-6366Y42377D01*
X-3583Y39594D01*
X-1728Y41449D01*
X-4975Y40986D02*
X-4047Y41913D01*
X-1728Y47015D02*
X-3583Y45160D01*
X-2192Y43769D01*
X-1264Y44696D01*
X-2192Y43769D01*
X-800Y42377D01*
X-58586Y41732D02*
X-55803Y38949D01*
X-54411Y40341D01*
Y41269D01*
X-56267Y43124D01*
X-57194D01*
X-58586Y41732D01*
X-53020D02*
X-54875Y43588D01*
X-54875Y45443D01*
X-53020Y45443D01*
X-51165Y43588D01*
X-52556Y44979D01*
X-54411Y43124D01*
X-53020Y47298D02*
X-51165Y49154D01*
X-52092Y48226D01*
X-49309Y45443D01*
X-47454Y47298D02*
X-49309Y49154D01*
Y51009D01*
X-47454D01*
X-45599Y49154D01*
X-46990Y50545D01*
X-48845Y48690D01*
X-53117Y38006D02*
X-54045D01*
X-54972Y37078D01*
Y36150D01*
X-53117Y34295D01*
X-52189D01*
X-51262Y35223D01*
Y36150D01*
X-52653Y39397D02*
X-49870Y36614D01*
X-48015Y38469D01*
X-49870Y42180D02*
X-47087Y39397D01*
X-48015Y40325D01*
X-48015Y44036D01*
X-48015Y41252D01*
X-45232D01*
X-49967Y32888D02*
X-50895D01*
X-51823Y31960D01*
Y31032D01*
X-49967Y29177D01*
X-49040D01*
X-48112Y30105D01*
Y31032D01*
X-47185Y35671D02*
X-48112Y35671D01*
X-49040Y34743D01*
Y33815D01*
X-48576Y33351D01*
X-47648Y33351D01*
X-46721Y34279D01*
X-45793Y34279D01*
X-45329Y33815D01*
Y32888D01*
X-46257Y31960D01*
X-47185D01*
X-88413Y-106590D02*
X-86558Y-104735D01*
X-87485Y-105663D01*
X-84702Y-108446D01*
X-82847Y-106590D02*
X-85630Y-103807D01*
X-84238Y-102416D01*
X-83311Y-102416D01*
X-82383Y-103343D01*
Y-104271D01*
X-83775Y-105663D01*
X-82847Y-104735D02*
X-80992D01*
X-82847Y-101024D02*
X-78209Y-101952D01*
X-80992Y-99169D02*
X-80064Y-103807D01*
X84646Y-108389D02*
X81863Y-105606D01*
X83254Y-104215D01*
X84182D01*
X85110Y-105142D01*
Y-106070D01*
X83718Y-107461D01*
X84646Y-102823D02*
X87429Y-105606D01*
Y-103751D01*
X89284D01*
X86501Y-100968D01*
X90212Y-102823D02*
X87429Y-100040D01*
X88820Y-98649D01*
X89748Y-98649D01*
X90675Y-99576D01*
X90675Y-100504D01*
X89284Y-101895D01*
X90212Y-100968D02*
X92067D01*
X53319Y-37693D02*
X56102Y-40476D01*
X57494Y-39084D01*
Y-38156D01*
X55638Y-36301D01*
X54711D01*
X53319Y-37693D01*
X58885D02*
X57030Y-35837D01*
X57030Y-33982D01*
X58885Y-33982D01*
X60741Y-35837D01*
X59349Y-34446D01*
X57494Y-36301D01*
X58885Y-32127D02*
X60741Y-30271D01*
X59813Y-31199D01*
X62596Y-33982D01*
X64451Y-32127D02*
X62596Y-30271D01*
Y-28416D01*
X64451D01*
X66307Y-30271D01*
X64915Y-28880D01*
X63060Y-30735D01*
X84182Y-55986D02*
X83254D01*
X82327Y-56914D01*
Y-57841D01*
X82790Y-58305D01*
X83718Y-58305D01*
X84646Y-57378D01*
X85573Y-57378D01*
X86037Y-57841D01*
Y-58769D01*
X85110Y-59697D01*
X84182D01*
X87429Y-57378D02*
X84646Y-54595D01*
X86037Y-53203D01*
X86965Y-53203D01*
X87893Y-54131D01*
Y-55058D01*
X86501Y-56450D01*
X87429Y-51812D02*
X88356Y-50884D01*
X87893Y-51348D01*
X90675Y-54131D01*
X90212Y-54595D01*
X91139Y-53667D01*
X-71681Y-86905D02*
X-69825Y-85050D01*
X-70753Y-85978D01*
X-67970Y-88761D01*
X-68898Y-84122D02*
X-64259Y-85050D01*
X-67042Y-82267D02*
X-66115Y-86905D01*
X-60039Y-89688D02*
X-62822Y-86905D01*
X-61431Y-85514D01*
X-60503D01*
X-59575Y-86441D01*
Y-87369D01*
X-60967Y-88761D01*
X-60039Y-87833D02*
X-58184D01*
X-60039Y-84122D02*
X-55401Y-85050D01*
X-58184Y-82267D02*
X-57256Y-86905D01*
X73355Y-36301D02*
X72427D01*
X71500Y-37229D01*
Y-38156D01*
X73355Y-40012D01*
X74283D01*
X75210Y-39084D01*
Y-38156D01*
X76138Y-33518D02*
X75210Y-33518D01*
X74283Y-34446D01*
Y-35373D01*
X74747Y-35837D01*
X75674Y-35837D01*
X76602Y-34910D01*
X77530Y-34910D01*
X77993Y-35373D01*
Y-36301D01*
X77066Y-37229D01*
X76138D01*
X64497Y-36301D02*
X63569D01*
X62642Y-37229D01*
Y-38156D01*
X64497Y-40012D01*
X65425D01*
X66352Y-39084D01*
Y-38156D01*
X64961Y-34910D02*
X67744Y-37693D01*
X69599Y-35837D01*
X67744Y-32127D02*
X70527Y-34910D01*
X69599Y-33982D01*
X69599Y-30271D01*
X69599Y-33054D01*
X72382D01*
X72427Y-89281D02*
X74283Y-87426D01*
X72427D02*
X74283Y-89281D01*
Y-85570D02*
Y-84643D01*
X75210Y-83715D01*
X76138Y-83715D01*
X76602Y-84179D01*
Y-85106D01*
X76138Y-85570D01*
X76602Y-85106D01*
X77530Y-85106D01*
X77993Y-85570D01*
Y-86498D01*
X77066Y-87426D01*
X76138D01*
X76602Y-82323D02*
X78457Y-84179D01*
X80313D01*
Y-82323D01*
X78457Y-80468D01*
X79849Y-80004D02*
Y-79077D01*
X80776Y-78149D01*
X81704Y-78149D01*
X82168Y-78613D01*
Y-79540D01*
X81704Y-80004D01*
X82168Y-79540D01*
X83096D01*
X83559Y-80004D01*
X83559Y-80932D01*
X82632Y-81860D01*
X81704D01*
X63569Y-89281D02*
X65425Y-87426D01*
X63569D02*
X65425Y-89281D01*
X66816Y-83251D02*
X64961Y-85106D01*
X66352Y-86498D01*
X66816Y-85106D01*
X67280Y-84643D01*
X68207D01*
X69135Y-85570D01*
Y-86498D01*
X68207Y-87426D01*
X67280D01*
X67744Y-82323D02*
X69599Y-84179D01*
X71454D01*
Y-82323D01*
X69599Y-80468D01*
X71815Y20343D02*
X73670Y22198D01*
X71815D02*
X73670Y20343D01*
Y24054D02*
Y24981D01*
X74598Y25909D01*
X75526Y25909D01*
X75990Y25445D01*
Y24517D01*
X75526Y24054D01*
X75990Y24517D01*
X76917Y24517D01*
X77381Y24054D01*
Y23126D01*
X76453Y22198D01*
X75526D01*
X75990Y27300D02*
X77845Y25445D01*
X79700D01*
Y27300D01*
X77845Y29156D01*
X79236Y29620D02*
Y30547D01*
X80164Y31475D01*
X81092Y31475D01*
X81555Y31011D01*
Y30083D01*
X81092Y29620D01*
X81555Y30083D01*
X82483D01*
X82947Y29620D01*
X82947Y28692D01*
X82019Y27764D01*
X81092D01*
X54711Y-89281D02*
X56566Y-87426D01*
X54711D02*
X56566Y-89281D01*
X57958Y-83251D02*
X56102Y-85106D01*
X57494Y-86498D01*
X57958Y-85106D01*
X58421Y-84643D01*
X59349D01*
X60277Y-85570D01*
Y-86498D01*
X59349Y-87426D01*
X58421D01*
X59349Y-82787D02*
Y-81860D01*
X60277Y-80932D01*
X61204Y-80932D01*
X63060Y-82787D01*
X63060Y-83715D01*
X62132Y-84643D01*
X61204D01*
X59349Y-82787D01*
X61668Y-79540D02*
X63524Y-81396D01*
X65379D01*
Y-79540D01*
X63524Y-77685D01*
D16*
X-16268Y-148032D02*
X-17317D01*
X-16793D01*
Y-150656D01*
X-17317Y-151181D01*
X-17842D01*
X-18367Y-150656D01*
X-15218Y-148032D02*
Y-151181D01*
X-13119D01*
X-9971Y-148557D02*
X-10495Y-148032D01*
X-11545D01*
X-12070Y-148557D01*
Y-150656D01*
X-11545Y-151181D01*
X-10495D01*
X-9971Y-150656D01*
X-6822Y-148032D02*
X-7871D01*
X-7347D01*
Y-150656D01*
X-7871Y-151181D01*
X-8396D01*
X-8921Y-150656D01*
X-5772Y-148032D02*
Y-151181D01*
X-3673D01*
X-525Y-148557D02*
X-1049Y-148032D01*
X-2099D01*
X-2624Y-148557D01*
Y-150656D01*
X-2099Y-151181D01*
X-1049D01*
X-525Y-150656D01*
X2624Y-148032D02*
X1574D01*
X2099D01*
Y-150656D01*
X1574Y-151181D01*
X1049D01*
X525Y-150656D01*
X3673Y-148032D02*
Y-151181D01*
X5772D01*
X8921Y-148557D02*
X8396Y-148032D01*
X7347D01*
X6822Y-148557D01*
Y-150656D01*
X7347Y-151181D01*
X8396D01*
X8921Y-150656D01*
X12070Y-148032D02*
X11020D01*
X11545D01*
Y-150656D01*
X11020Y-151181D01*
X10495D01*
X9971Y-150656D01*
X13119Y-148032D02*
Y-151181D01*
X15218D01*
X18367Y-148557D02*
X17842Y-148032D01*
X16793D01*
X16268Y-148557D01*
Y-150656D01*
X16793Y-151181D01*
X17842D01*
X18367Y-150656D01*
M02*
