G04*
G04 #@! TF.GenerationSoftware,Altium Limited,Altium Designer,23.9.2 (47)*
G04*
G04 Layer_Color=65535*
%FSLAX25Y25*%
%MOIN*%
G70*
G04*
G04 #@! TF.SameCoordinates,B9D28BA6-00D3-483F-BACE-1505689BD4AF*
G04*
G04*
G04 #@! TF.FilePolarity,Positive*
G04*
G01*
G75*
%ADD10C,0.00984*%
%ADD11C,0.02362*%
%ADD12C,0.00394*%
%ADD13C,0.00787*%
%ADD14C,0.00551*%
%ADD15C,0.00591*%
G36*
X-4562Y57731D02*
X-4514Y57585D01*
X-4546Y55961D01*
X-17387Y55945D01*
X-17436Y55994D01*
X-17468Y57260D01*
X-17517Y57309D01*
X-17582Y57276D01*
X-17630Y57228D01*
X-17663Y57163D01*
X-17711Y57114D01*
X-17776Y57082D01*
X-18004Y56984D01*
X-18068Y56952D01*
X-18296Y56854D01*
X-18523Y56822D01*
X-18620Y56724D01*
X-18945Y56692D01*
X-19189Y56643D01*
X-19237Y56595D01*
X-19497Y56529D01*
X-19757Y56497D01*
X-19854Y56465D01*
X-20114Y56400D01*
X-20357Y56351D01*
X-20406Y56302D01*
X-20536Y56270D01*
X-21023Y56205D01*
X-21120Y56107D01*
X-21250Y56075D01*
X-21542Y56043D01*
X-21607Y55978D01*
X-21786Y55897D01*
X-21802Y55815D01*
X-21737Y55750D01*
X-21542Y55718D01*
X-21445Y55620D01*
X-21315Y55588D01*
X-21056Y55556D01*
X-20990Y55491D01*
X-20763Y55426D01*
X-20520Y55377D01*
X-20357Y55312D01*
X-20163Y55280D01*
X-20033Y55247D01*
X-19757Y55133D01*
X-19465Y55101D01*
X-19270Y54971D01*
X-18961Y54922D01*
X-18848Y54841D01*
X-18750Y54809D01*
X-18393Y54614D01*
X-18247Y54403D01*
X-18280Y53883D01*
X-18523Y53640D01*
X-18750Y53510D01*
X-18913Y53445D01*
X-19107Y53413D01*
X-19237Y53283D01*
X-19594Y53250D01*
X-19692Y53153D01*
X-19822Y53121D01*
X-20017Y53088D01*
X-20244Y52991D01*
X-20504Y52926D01*
X-20569Y52861D01*
X-20698Y52828D01*
X-20877Y52780D01*
X-20990Y52698D01*
X-21153Y52634D01*
X-21250Y52601D01*
X-21299Y52552D01*
X-21218Y52374D01*
X-21056Y52309D01*
X-20893Y52211D01*
X-20796Y52179D01*
X-20666Y52147D01*
X-20601Y52114D01*
X-20504Y52017D01*
X-20228Y51968D01*
X-20017Y51854D01*
X-19838Y51806D01*
X-19789Y51757D01*
X-19659Y51724D01*
X-19497Y51660D01*
X-19400Y51562D01*
X-19189Y51513D01*
X-19107Y51432D01*
X-19042Y51400D01*
X-18864Y51254D01*
X-18832Y51189D01*
X-18734Y51091D01*
X-18702Y50962D01*
X-18734Y50507D01*
X-18848Y50426D01*
X-18929Y50312D01*
X-19042Y50231D01*
X-19107Y50166D01*
X-19594Y49906D01*
X-19757Y49841D01*
X-19887Y49809D01*
X-19984Y49712D01*
X-20114Y49679D01*
X-20601Y49419D01*
X-20828Y49290D01*
X-20942Y49176D01*
X-20909Y49046D01*
X-20569Y48803D01*
X-20406Y48738D01*
X-20292Y48689D01*
X-20260Y48624D01*
X-20211Y48575D01*
X-20049Y48543D01*
X-19984Y48478D01*
X-19692Y48316D01*
X-19465Y48153D01*
X-19286Y48007D01*
X-19156Y47877D01*
X-19124Y47747D01*
X-19059Y47585D01*
X-19091Y47260D01*
X-19156Y47098D01*
X-19189Y47033D01*
X-19530Y46692D01*
X-19594Y46660D01*
X-19659Y46595D01*
X-19805Y46514D01*
X-19838Y46449D01*
X-20049Y46367D01*
X-20179Y46238D01*
X-20276Y46205D01*
X-20341Y46140D01*
X-20406Y46108D01*
X-20650Y45864D01*
X-20617Y45669D01*
X-20471Y45491D01*
X-20292Y45345D01*
X-20114Y45231D01*
X-20082Y45166D01*
X-19919Y45069D01*
X-19822Y44971D01*
X-19757Y44939D01*
X-19513Y44695D01*
X-19416Y44533D01*
X-19351Y44468D01*
X-19319Y44241D01*
X-19351Y43754D01*
X-19448Y43657D01*
X-19546Y43494D01*
X-19611Y43429D01*
X-19643Y43364D01*
X-19854Y43153D01*
X-19919Y43121D01*
X-20390Y42650D01*
X-20487Y42423D01*
X-20325Y42131D01*
X-20260Y42066D01*
X-20228Y42001D01*
X-19968Y41741D01*
X-19935Y41676D01*
X-19773Y41514D01*
X-19741Y41449D01*
X-19643Y41351D01*
X-19611Y41221D01*
X-19513Y40994D01*
X-19546Y40377D01*
X-19611Y40312D01*
X-19643Y40183D01*
X-19773Y39988D01*
X-19805Y39923D01*
X-19968Y39761D01*
X-20065Y39598D01*
X-20130Y39533D01*
X-20163Y39468D01*
X-20228Y39403D01*
X-20357Y39111D01*
X-20325Y38949D01*
X-20163Y38657D01*
X-20000Y38429D01*
X-19870Y38202D01*
X-19805Y38137D01*
X-19757Y37926D01*
X-19708Y37878D01*
X-19643Y37715D01*
X-19676Y37455D01*
X-19822Y37407D01*
X-19903Y37488D01*
X-19952Y37699D01*
X-20033Y37813D01*
X-20098Y37878D01*
X-20228Y38105D01*
X-20390Y38332D01*
X-20422Y38462D01*
X-20552Y38592D01*
X-20585Y39274D01*
X-20552Y39371D01*
X-20520Y39566D01*
X-20455Y39631D01*
X-20325Y39858D01*
X-19854Y40491D01*
X-19805Y40540D01*
X-19773Y40670D01*
X-19805Y40929D01*
X-19903Y41027D01*
X-20000Y41189D01*
X-20260Y41449D01*
X-20292Y41514D01*
X-20422Y41644D01*
X-20455Y41708D01*
X-20552Y41774D01*
X-20617Y41936D01*
X-20715Y42163D01*
X-20763Y42472D01*
X-20731Y42601D01*
X-20698Y42796D01*
X-20617Y42910D01*
X-20487Y43137D01*
X-20179Y43446D01*
X-20130Y43462D01*
X-20098Y43527D01*
X-20017Y43608D01*
X-19952Y43640D01*
X-19887Y43738D01*
X-19822Y43770D01*
X-19643Y43949D01*
X-19611Y44079D01*
X-19643Y44241D01*
X-19952Y44549D01*
X-20017Y44582D01*
X-20114Y44679D01*
X-20179Y44712D01*
X-20309Y44842D01*
X-20374Y44874D01*
X-20552Y45020D01*
X-20844Y45312D01*
X-20877Y45442D01*
X-20974Y45605D01*
X-21007Y45734D01*
X-20974Y46027D01*
X-20877Y46124D01*
X-20844Y46254D01*
X-20536Y46562D01*
X-20471Y46595D01*
X-20374Y46692D01*
X-20211Y46790D01*
X-20146Y46854D01*
X-20017Y46887D01*
X-19887Y47017D01*
X-19724Y47114D01*
X-19351Y47390D01*
X-19383Y47488D01*
X-19530Y47666D01*
X-19757Y47829D01*
X-19822Y47861D01*
X-19887Y47926D01*
X-20098Y48007D01*
X-20179Y48088D01*
X-20390Y48169D01*
X-20439Y48218D01*
X-20504Y48251D01*
X-20731Y48380D01*
X-20909Y48526D01*
X-21104Y48689D01*
X-21169Y48754D01*
X-21202Y48884D01*
X-21267Y49111D01*
X-21234Y49338D01*
X-21202Y49436D01*
X-21120Y49614D01*
X-21056Y49647D01*
X-20893Y49809D01*
X-20763Y49841D01*
X-20633Y49971D01*
X-20422Y50052D01*
X-20374Y50101D01*
X-20244Y50134D01*
X-19887Y50296D01*
X-19773Y50345D01*
X-19741Y50410D01*
X-19562Y50458D01*
X-19400Y50556D01*
X-19172Y50686D01*
X-19059Y50799D01*
X-19091Y50897D01*
X-19286Y50994D01*
X-19335Y51075D01*
X-19465Y51108D01*
X-19562Y51140D01*
X-19724Y51237D01*
X-20033Y51351D01*
X-20292Y51449D01*
X-20439Y51530D01*
X-20698Y51595D01*
X-20893Y51724D01*
X-21088Y51757D01*
X-21185Y51854D01*
X-21413Y51984D01*
X-21624Y52195D01*
X-21656Y52325D01*
X-21624Y52812D01*
X-21380Y53056D01*
X-21218Y53121D01*
X-21120Y53218D01*
X-20990Y53250D01*
X-20796Y53283D01*
X-20666Y53413D01*
X-20341Y53445D01*
X-20276Y53510D01*
X-20049Y53575D01*
X-19919Y53608D01*
X-19854Y53672D01*
X-19578Y53721D01*
X-19416Y53786D01*
X-19367Y53835D01*
X-19237Y53867D01*
X-19042Y53900D01*
X-18978Y53965D01*
X-18815Y54030D01*
X-18669Y54111D01*
X-18702Y54241D01*
X-18783Y54322D01*
X-18913Y54354D01*
X-19075Y54387D01*
X-19172Y54484D01*
X-19302Y54517D01*
X-19562Y54549D01*
X-19854Y54679D01*
X-20098Y54728D01*
X-20309Y54809D01*
X-20617Y54857D01*
X-20828Y54971D01*
X-21185Y55004D01*
X-21283Y55101D01*
X-21672Y55198D01*
X-21835Y55296D01*
X-21867D01*
X-22159Y55523D01*
X-22192Y55588D01*
X-22241Y55604D01*
X-22273Y55734D01*
X-22241Y56156D01*
X-22046Y56286D01*
X-21964Y56367D01*
X-21786Y56416D01*
X-21575Y56529D01*
X-21380Y56562D01*
X-21315Y56627D01*
X-21185Y56659D01*
X-20812Y56708D01*
X-20698Y56789D01*
X-20601Y56822D01*
X-20374Y56854D01*
X-20065Y56903D01*
X-19887Y56984D01*
X-19627Y57016D01*
X-19465Y57082D01*
X-19221Y57130D01*
X-18913Y57179D01*
X-18815Y57276D01*
X-18491Y57309D01*
X-18312Y57357D01*
X-18231Y57439D01*
X-17971Y57503D01*
X-17906Y57569D01*
X-17744Y57666D01*
X-17582Y57731D01*
X-17062Y57763D01*
X-4562Y57731D01*
D02*
G37*
G36*
X-14952Y54614D02*
X-14935Y54598D01*
X-14871Y54533D01*
X-14741Y54241D01*
X-14773Y54111D01*
X-14871Y53948D01*
X-14919Y53900D01*
X-15017Y53867D01*
X-15098Y53916D01*
X-15163Y54078D01*
X-15260Y54241D01*
X-15228Y54338D01*
X-15130Y54435D01*
X-15082Y54614D01*
X-15017Y54646D01*
X-14952Y54614D01*
D02*
G37*
G36*
X-14384Y53689D02*
X-14319Y53526D01*
X-14254Y53461D01*
X-14221Y53332D01*
X-14351Y53137D01*
X-14400Y53023D01*
X-14595Y53056D01*
X-14692Y53250D01*
X-14741Y53396D01*
X-14643Y53624D01*
X-14611Y53689D01*
X-14562Y53737D01*
X-14530D01*
X-14497Y53770D01*
X-14384Y53689D01*
D02*
G37*
G36*
X-15341Y53348D02*
X-15260Y53267D01*
X-15228Y53137D01*
X-15293Y52909D01*
X-15212Y52828D01*
X-15082Y52796D01*
X-15017Y52763D01*
X-14968Y52715D01*
X-14806Y52358D01*
X-14838Y52195D01*
X-14903Y52130D01*
X-14935Y52065D01*
X-15082Y51887D01*
X-15212Y51854D01*
X-15260Y51838D01*
X-15293Y51416D01*
X-15423Y51286D01*
X-15455Y51156D01*
X-15536Y51075D01*
X-15698Y51108D01*
X-15796Y51237D01*
X-15861Y51270D01*
X-15910Y51319D01*
X-15942Y51676D01*
X-15991Y51724D01*
X-16153Y51822D01*
X-16202Y51871D01*
X-16218Y52049D01*
X-16185Y52471D01*
X-16104Y52552D01*
X-16088Y52569D01*
X-16023Y52634D01*
X-15926Y52666D01*
X-15796Y52796D01*
X-15731Y52763D01*
X-15698Y52666D01*
X-15536Y52601D01*
X-15487Y52617D01*
X-15423Y52780D01*
X-15390Y53007D01*
X-15423Y53137D01*
X-15455Y53202D01*
X-15504Y53250D01*
X-15569Y53218D01*
X-15617Y53169D01*
X-15666Y52861D01*
X-15715Y52877D01*
X-15682Y53007D01*
X-15747Y53202D01*
X-15633Y53413D01*
X-15504Y53445D01*
X-15341Y53348D01*
D02*
G37*
G36*
X-13913Y52861D02*
X-13880Y52796D01*
X-13864Y52780D01*
X-13832Y52715D01*
X-13734Y52487D01*
X-13767Y52422D01*
X-13897Y52195D01*
X-13978Y52147D01*
X-14156Y52293D01*
X-14221Y52520D01*
X-14189Y52715D01*
X-14043Y52893D01*
X-13913Y52861D01*
D02*
G37*
G36*
X-13426Y52049D02*
X-13377Y51935D01*
Y51903D01*
X-13247Y51708D01*
X-13280Y51546D01*
X-13345Y51481D01*
X-13377Y51351D01*
X-13410Y51286D01*
X-13523Y51270D01*
X-13572Y51319D01*
X-13669Y51481D01*
X-13734Y51643D01*
X-13702Y51838D01*
X-13604Y51935D01*
X-13523Y52082D01*
X-13426Y52049D01*
D02*
G37*
G36*
X-16526Y51481D02*
X-16494Y51254D01*
X-16526Y51059D01*
X-16672Y50880D01*
X-16737Y50848D01*
X-16786Y50767D01*
X-16608Y50426D01*
X-16445Y50491D01*
X-16364Y50572D01*
X-16332Y50734D01*
X-16283Y50783D01*
X-16153Y50750D01*
X-16072Y50669D01*
X-16039Y50539D01*
X-15942Y50442D01*
X-15926Y50361D01*
X-16039Y50247D01*
X-16104Y50085D01*
X-16153Y50036D01*
X-16315Y49939D01*
X-16332Y49923D01*
X-16169Y49695D01*
X-16137Y49630D01*
X-16072Y49566D01*
X-16007Y49403D01*
X-15991Y49387D01*
X-15942Y49436D01*
X-15910Y49728D01*
X-15796Y49874D01*
X-15666Y49906D01*
X-15601Y49874D01*
X-15536Y49712D01*
X-15455Y49630D01*
X-15487Y49436D01*
X-15552Y49371D01*
X-15617Y49208D01*
X-15666Y49160D01*
X-15845Y49143D01*
X-15812Y49046D01*
X-15747Y48981D01*
X-15617Y48754D01*
X-15601Y48738D01*
X-15585Y48721D01*
X-15569Y48673D01*
X-15471Y48705D01*
X-15406Y48867D01*
X-15358Y48916D01*
X-15325Y48981D01*
X-15244Y49062D01*
X-15114Y49030D01*
X-15049Y48867D01*
X-15000Y48819D01*
X-14968Y48689D01*
X-15000Y48559D01*
X-15065Y48494D01*
X-15098Y48364D01*
X-15130Y48299D01*
X-15276Y48283D01*
X-15374Y48380D01*
X-15390Y48299D01*
X-15293Y48234D01*
X-15260Y48105D01*
X-15228Y48007D01*
X-15358Y47975D01*
X-15439Y47958D01*
X-15552Y48039D01*
X-15585Y48169D01*
X-15682Y48267D01*
X-15715Y48397D01*
X-15845Y48526D01*
X-15877Y48689D01*
X-16007Y48819D01*
X-16072Y48981D01*
X-16169Y49143D01*
X-16202Y49208D01*
X-16267Y49273D01*
X-16348Y49484D01*
X-16461Y49598D01*
X-16494Y49728D01*
X-16526Y49793D01*
X-16624Y49890D01*
X-16705Y50101D01*
X-16786Y50182D01*
X-16819Y50280D01*
X-16916Y50377D01*
X-16948Y50507D01*
X-16981Y50572D01*
X-17111Y50702D01*
X-17143Y50864D01*
X-17241Y50962D01*
X-17306Y51124D01*
X-17370Y51189D01*
X-17452Y51400D01*
X-17500Y51449D01*
X-17452Y51497D01*
X-17224Y51465D01*
X-17176Y51416D01*
X-17143Y51286D01*
X-17095Y51237D01*
X-17013Y51254D01*
X-16981Y51319D01*
X-16883Y51416D01*
X-16819Y51578D01*
X-16786Y51643D01*
X-16705Y51660D01*
X-16526Y51481D01*
D02*
G37*
G36*
X-14481Y51449D02*
X-14416Y51286D01*
X-14351Y51221D01*
X-14319Y51156D01*
X-14270Y51108D01*
X-14205Y51075D01*
X-14156Y51026D01*
X-14124Y50962D01*
X-13994Y50832D01*
X-13961Y50702D01*
X-13897Y50637D01*
X-13864Y50507D01*
X-13994Y50312D01*
X-14091Y50150D01*
X-14156Y50085D01*
X-14189Y49923D01*
X-14319Y49793D01*
X-14351Y49663D01*
X-14416Y49598D01*
X-14530Y49387D01*
X-14627Y49419D01*
X-14725Y49614D01*
X-14741Y49630D01*
X-14806Y49695D01*
X-14871Y49858D01*
X-15000Y50052D01*
X-15195Y50410D01*
X-15260Y50475D01*
X-15228Y50637D01*
X-15130Y50734D01*
X-14903Y51156D01*
X-14741Y51449D01*
X-14692Y51497D01*
X-14562Y51530D01*
X-14481Y51449D01*
D02*
G37*
G36*
X-11121Y53705D02*
X-10585Y53721D01*
X-10455Y53689D01*
X-10131Y53364D01*
X-10098Y53299D01*
X-10049Y53250D01*
X-9984Y53218D01*
X-9773Y53007D01*
X-9757Y52991D01*
X-9481Y52715D01*
X-9449Y52650D01*
X-9335Y52569D01*
X-9027Y52260D01*
X-8994Y52195D01*
X-8880Y52114D01*
X-8783Y52017D01*
X-8718Y51984D01*
X-8540Y51806D01*
X-8507Y51741D01*
X-8442Y51708D01*
X-8410Y51643D01*
X-8296Y51530D01*
X-8247Y51513D01*
X-8215Y51449D01*
X-8101Y51367D01*
X-7971Y51237D01*
X-7907Y51205D01*
X-7809Y51108D01*
X-7744Y51075D01*
X-7663Y51026D01*
X-7631Y50962D01*
X-7549Y50880D01*
X-7484Y50848D01*
X-7387Y50750D01*
X-7322Y50718D01*
X-7225Y50621D01*
X-6997Y50491D01*
X-6705Y50328D01*
X-6543Y50264D01*
X-6381Y50231D01*
X-6218Y50166D01*
X-5910Y50150D01*
X-5601Y50199D01*
X-5439Y50264D01*
X-5309Y50296D01*
X-5147Y50458D01*
X-5001Y50539D01*
X-4968Y50669D01*
X-4838Y50799D01*
X-4806Y50929D01*
X-4838Y51903D01*
X-4968Y52033D01*
X-5001Y52130D01*
X-5212Y52341D01*
X-5342Y52374D01*
X-5407Y52439D01*
X-5796Y52504D01*
X-6023Y52536D01*
X-6040Y53559D01*
X-5959Y53640D01*
X-5650Y53591D01*
X-5390Y53559D01*
X-5228Y53494D01*
X-5049Y53413D01*
X-4920Y53380D01*
X-4790Y53250D01*
X-4725Y53218D01*
X-4384Y52877D01*
X-4287Y52715D01*
X-4189Y52487D01*
X-4059Y52195D01*
X-4011Y51919D01*
X-3978Y51724D01*
X-3962Y50994D01*
X-3994Y50897D01*
X-4027Y50767D01*
X-4108Y50426D01*
X-4157Y50377D01*
X-4189Y50247D01*
X-4319Y50020D01*
X-4433Y49841D01*
X-4481Y49825D01*
X-4514Y49760D01*
X-4725Y49549D01*
X-4790Y49517D01*
X-4887Y49419D01*
X-5098Y49338D01*
X-5179Y49257D01*
X-5309Y49225D01*
X-5683Y49176D01*
X-5861Y49127D01*
X-6478Y49160D01*
X-6575Y49192D01*
X-6803Y49225D01*
X-6933Y49257D01*
X-7030Y49354D01*
X-7160Y49387D01*
X-7322Y49484D01*
X-7728Y49760D01*
X-7777Y49809D01*
X-7841Y49841D01*
X-7923Y49890D01*
X-7955Y49955D01*
X-8004Y50004D01*
X-8069Y50036D01*
X-8166Y50134D01*
X-8231Y50166D01*
X-8280Y50215D01*
X-8296Y50264D01*
X-8361Y50296D01*
X-8523Y50458D01*
X-8588Y50491D01*
X-9968Y51871D01*
X-10001Y51935D01*
X-10244Y52179D01*
X-10309Y52211D01*
X-10358Y52260D01*
X-10390Y52325D01*
X-10471Y52439D01*
X-10569Y52406D01*
X-10617Y52260D01*
X-10650Y49111D01*
X-10699Y49062D01*
X-10926Y49095D01*
X-11364Y49111D01*
X-11397Y49241D01*
X-11364Y53689D01*
X-11218Y53737D01*
X-11121Y53705D01*
D02*
G37*
G36*
X-13750Y47439D02*
X-13734Y45605D01*
X-13815Y45523D01*
X-14026Y45540D01*
X-14465Y45491D01*
X-14595Y45458D01*
X-14822Y45361D01*
X-14952Y45329D01*
X-15049Y45296D01*
X-15179Y45166D01*
X-15309Y45134D01*
X-15471Y44971D01*
X-15536Y44939D01*
X-15617Y44825D01*
X-15682Y44793D01*
X-15812Y44566D01*
X-15910Y44468D01*
X-15942Y44273D01*
X-16039Y44176D01*
X-16072Y44046D01*
X-16169Y43689D01*
X-16202Y43559D01*
X-16267Y43007D01*
X-16299Y42910D01*
X-16267Y41774D01*
X-16234Y41676D01*
X-16185Y41270D01*
X-16072Y40897D01*
X-16007Y40734D01*
X-15942Y40670D01*
X-15861Y40459D01*
X-15812Y40410D01*
X-15780Y40345D01*
X-15633Y40166D01*
X-15585Y40118D01*
X-15552Y40053D01*
X-15341Y39842D01*
X-15179Y39744D01*
X-14968Y39631D01*
X-14952Y39582D01*
X-14822Y39549D01*
X-14660Y39517D01*
X-14465Y39387D01*
X-13750Y39355D01*
X-13653Y39387D01*
X-13393Y39420D01*
X-13328Y39485D01*
X-13101Y39549D01*
X-12939Y39647D01*
X-12874Y39712D01*
X-12809Y39744D01*
X-12630Y39923D01*
X-12598Y39988D01*
X-12501Y40085D01*
X-12419Y40296D01*
X-12338Y40377D01*
X-12273Y40605D01*
X-12143Y40897D01*
X-12095Y41075D01*
X-12014Y41254D01*
X-11965Y41530D01*
X-11851Y41741D01*
X-11819Y41968D01*
X-11786Y42228D01*
X-11721Y42293D01*
X-11656Y42553D01*
X-11608Y42861D01*
X-11526Y43137D01*
X-11494Y43397D01*
X-11397Y43624D01*
X-11332Y44111D01*
X-11202Y44306D01*
X-11169Y44663D01*
X-11072Y44760D01*
X-11023Y44971D01*
X-10975Y45085D01*
X-10845Y45410D01*
X-10780Y45475D01*
X-10747Y45605D01*
X-10650Y45767D01*
X-10585Y45832D01*
X-10455Y46059D01*
X-10309Y46238D01*
X-10260Y46286D01*
X-10228Y46351D01*
X-10049Y46530D01*
X-9984Y46562D01*
X-9757Y46725D01*
X-9692Y46757D01*
X-9627Y46822D01*
X-9465Y46887D01*
X-9400Y46919D01*
X-9302Y47017D01*
X-9043Y47049D01*
X-8751Y47179D01*
X-7874Y47244D01*
X-7549Y47212D01*
X-7111Y47163D01*
X-6981Y47131D01*
X-6933Y47082D01*
X-6705Y47017D01*
X-6543Y46984D01*
X-6446Y46887D01*
X-6316Y46854D01*
X-6251Y46822D01*
X-6056Y46692D01*
X-5991Y46660D01*
X-5894Y46562D01*
X-5780Y46514D01*
X-5748Y46449D01*
X-5699Y46400D01*
X-5634Y46367D01*
X-5569Y46270D01*
X-5504Y46238D01*
X-5455Y46189D01*
X-5423Y46124D01*
X-5374Y46075D01*
X-5325Y46059D01*
X-5293Y45994D01*
X-5147Y45816D01*
X-5001Y45605D01*
X-4968Y45507D01*
X-4838Y45377D01*
X-4806Y45215D01*
X-4708Y45118D01*
X-4595Y44809D01*
X-4514Y44598D01*
X-4481Y44468D01*
X-4416Y44403D01*
X-4384Y44273D01*
X-4351Y43916D01*
X-4254Y43754D01*
X-4222Y43624D01*
X-4189Y42910D01*
X-4222Y40897D01*
X-4351Y40605D01*
X-4384Y40377D01*
X-4416Y40183D01*
X-4481Y40118D01*
X-4546Y39890D01*
X-4773Y39468D01*
X-4887Y39225D01*
X-4952Y39192D01*
X-5066Y39014D01*
X-5195Y38884D01*
X-5228Y38819D01*
X-5439Y38608D01*
X-5488Y38592D01*
X-5520Y38527D01*
X-5699Y38413D01*
X-5764Y38348D01*
X-5926Y38283D01*
X-5991Y38251D01*
X-6056Y38186D01*
X-6364Y38072D01*
X-6510Y38024D01*
X-6640Y37991D01*
X-6851Y37910D01*
X-7014Y37878D01*
X-7533Y37845D01*
X-7598Y37878D01*
X-7631Y38007D01*
X-7598Y39696D01*
X-7452Y39744D01*
X-7160Y39777D01*
X-7030Y39842D01*
X-6997D01*
X-6867Y39874D01*
X-6673Y40004D01*
X-6575Y40036D01*
X-6202Y40410D01*
X-6186Y40459D01*
X-6121Y40491D01*
X-6072Y40540D01*
X-6023Y40718D01*
X-5942Y40799D01*
X-5877Y41027D01*
X-5829Y41205D01*
X-5780Y41351D01*
X-5748Y41481D01*
X-5699Y41887D01*
X-5683Y42975D01*
X-5715Y43072D01*
X-5764Y43478D01*
X-5796Y43608D01*
X-5861Y43770D01*
X-5894Y43933D01*
X-5959Y44095D01*
X-6040Y44176D01*
X-6088Y44355D01*
X-6202Y44468D01*
X-6299Y44631D01*
X-6397Y44728D01*
X-6429Y44793D01*
X-6478Y44842D01*
X-6543Y44874D01*
X-6673Y45004D01*
X-6835Y45101D01*
X-6997Y45166D01*
X-7127Y45199D01*
X-7322Y45329D01*
X-8296Y45296D01*
X-8361Y45231D01*
X-8523Y45166D01*
X-8653Y45134D01*
X-8751Y45036D01*
X-8816Y45004D01*
X-8945Y44874D01*
X-9010Y44842D01*
X-9059Y44793D01*
X-9189Y44566D01*
X-9351Y44208D01*
X-9384Y44079D01*
X-9481Y43981D01*
X-9514Y43851D01*
X-9546Y43559D01*
X-9643Y43462D01*
X-9676Y43332D01*
X-9708Y43040D01*
X-9773Y42877D01*
X-9838Y42618D01*
X-9871Y42423D01*
X-9936Y42261D01*
X-9968Y42131D01*
X-10001Y41806D01*
X-10098Y41644D01*
X-10131Y41514D01*
X-10179Y41108D01*
X-10293Y40832D01*
X-10341Y40588D01*
X-10423Y40312D01*
X-10455Y40183D01*
X-10585Y39890D01*
X-10617Y39663D01*
X-10747Y39533D01*
X-10796Y39322D01*
X-10877Y39209D01*
X-11104Y38787D01*
X-11202Y38689D01*
X-11299Y38527D01*
X-11397Y38429D01*
X-11429Y38364D01*
X-11510Y38283D01*
X-11575Y38251D01*
X-11705Y38121D01*
X-11770Y38089D01*
X-11835Y38024D01*
X-11997Y37926D01*
X-12062Y37861D01*
X-12257Y37829D01*
X-12306Y37780D01*
X-12338Y37715D01*
X-12468Y37683D01*
X-12728Y37650D01*
X-12906Y37569D01*
X-13036Y37537D01*
X-13848Y37504D01*
X-14530Y37537D01*
X-14627Y37569D01*
X-14789Y37634D01*
X-14919Y37666D01*
X-15179Y37699D01*
X-15309Y37829D01*
X-15439Y37861D01*
X-15536Y37894D01*
X-15731Y38024D01*
X-15796Y38056D01*
X-15958Y38153D01*
X-16023Y38186D01*
X-16185Y38348D01*
X-16250Y38381D01*
X-16526Y38657D01*
X-16559Y38722D01*
X-16721Y38884D01*
X-16754Y38949D01*
X-16819Y39014D01*
X-16851Y39079D01*
X-16948Y39176D01*
X-17013Y39338D01*
X-17111Y39436D01*
X-17192Y39647D01*
X-17241Y39696D01*
X-17322Y39907D01*
X-17403Y40085D01*
X-17436Y40215D01*
X-17565Y40507D01*
X-17598Y40637D01*
X-17630Y40962D01*
X-17728Y41189D01*
X-17760Y41416D01*
X-17793Y42423D01*
X-17760Y44046D01*
X-17728Y44144D01*
X-17695Y44273D01*
X-17598Y44501D01*
X-17565Y44858D01*
X-17436Y45053D01*
X-17403Y45280D01*
X-17338Y45345D01*
X-17257Y45556D01*
X-17176Y45669D01*
X-17111Y45832D01*
X-17078Y45897D01*
X-16948Y46027D01*
X-16916Y46091D01*
X-16786Y46221D01*
X-16754Y46286D01*
X-16640Y46400D01*
X-16575Y46432D01*
X-16526Y46481D01*
X-16510Y46530D01*
X-16445Y46562D01*
X-16315Y46692D01*
X-16250Y46725D01*
X-16169Y46773D01*
X-16153Y46822D01*
X-15942Y46903D01*
X-15828Y47017D01*
X-15650Y47065D01*
X-15439Y47179D01*
X-15228Y47228D01*
X-15065Y47293D01*
X-14676Y47358D01*
X-14514Y47390D01*
X-14091Y47455D01*
X-14043Y47471D01*
X-13978Y47439D01*
X-13880Y47471D01*
X-13750Y47439D01*
D02*
G37*
G36*
X18270Y-43966D02*
X18260Y-43986D01*
X18236Y-43990D01*
X18221Y-43976D01*
Y-43966D01*
X18230Y-43946D01*
X18245Y-43941D01*
X18270Y-43966D01*
D02*
G37*
G36*
X16728Y-43886D02*
X16828Y-43896D01*
X16867Y-43906D01*
X16962Y-43941D01*
X17017Y-43986D01*
X17101Y-44020D01*
X17166Y-44045D01*
X17265Y-44105D01*
X17275Y-44125D01*
X17310Y-44150D01*
X17340Y-44180D01*
X17360Y-44190D01*
X17420Y-44229D01*
X17439Y-44239D01*
X17484Y-44284D01*
X17494Y-44304D01*
X17539Y-44359D01*
X17643Y-44463D01*
X17723Y-44612D01*
X17793Y-44682D01*
X17822Y-44752D01*
X17842Y-44821D01*
X17882Y-44921D01*
X17912Y-44971D01*
X17932Y-44991D01*
X17972Y-45080D01*
X17982Y-45150D01*
X17992Y-45189D01*
X18002Y-45289D01*
X18012Y-45359D01*
X18022Y-45458D01*
X18032Y-45588D01*
X18041Y-45657D01*
X18051Y-45717D01*
X18101Y-45786D01*
X18131Y-45816D01*
X18141Y-45836D01*
X18171Y-45866D01*
X18176Y-45881D01*
X18196Y-45891D01*
X18265Y-45921D01*
X18350Y-45936D01*
X18469Y-45956D01*
X18509Y-45966D01*
X18559Y-45976D01*
X18609Y-45995D01*
X18668Y-46035D01*
X18683Y-46050D01*
X18743Y-46060D01*
X18773Y-46050D01*
X18852Y-46030D01*
X18867Y-46015D01*
X18877Y-45976D01*
X18887Y-45846D01*
X18862Y-45732D01*
X18842Y-45632D01*
X18773Y-45214D01*
X18763Y-45175D01*
X18748Y-45120D01*
X18668Y-44951D01*
X18648Y-44881D01*
X18638Y-44841D01*
X18619Y-44772D01*
X18584Y-44677D01*
X18569Y-44662D01*
X18559Y-44642D01*
X18519Y-44583D01*
X18489Y-44513D01*
X18439Y-44374D01*
X18350Y-44244D01*
X18310Y-44145D01*
X18300Y-44105D01*
X18310Y-44065D01*
X18335Y-44040D01*
X18375Y-44030D01*
X18415Y-44040D01*
X18434Y-44060D01*
X18454Y-44070D01*
X18489Y-44115D01*
X18514Y-44160D01*
X18604Y-44209D01*
X18629Y-44244D01*
X18693Y-44339D01*
X18713Y-44349D01*
X18758Y-44384D01*
X18768Y-44403D01*
X18788Y-44423D01*
X18837Y-44513D01*
X18862Y-44538D01*
X18882Y-44548D01*
X18907Y-44573D01*
X18987Y-44722D01*
X19031Y-44777D01*
X19056Y-44811D01*
X19076Y-44831D01*
X19116Y-44931D01*
X19141Y-44995D01*
X19156Y-45010D01*
X19196Y-45080D01*
X19216Y-45100D01*
X19225Y-45140D01*
X19255Y-45209D01*
X19265Y-45249D01*
X19280Y-45314D01*
X19310Y-45433D01*
X19340Y-45513D01*
X19355Y-45528D01*
X19370Y-45592D01*
X19390Y-45672D01*
X19405Y-45806D01*
X19414Y-45966D01*
X19424Y-46214D01*
X19444Y-46234D01*
X19454Y-46254D01*
X19489Y-46289D01*
X19509Y-46299D01*
X19569Y-46339D01*
X19589Y-46349D01*
X19609Y-46369D01*
X19678Y-46398D01*
X19788Y-46428D01*
X19827Y-46438D01*
X19877Y-46458D01*
X19947Y-46498D01*
X19967Y-46518D01*
X19987Y-46528D01*
X20076Y-46567D01*
X20171Y-46602D01*
X20250Y-46652D01*
X20285Y-46687D01*
X20305Y-46697D01*
X20514Y-46806D01*
X20529Y-46821D01*
X20539Y-46841D01*
X20564Y-46866D01*
X20673Y-46926D01*
X20728Y-46970D01*
X20738Y-46990D01*
X20763Y-47015D01*
X20783Y-47025D01*
X20872Y-47095D01*
X20962Y-47184D01*
X20982Y-47194D01*
X21046Y-47259D01*
X21056Y-47279D01*
X21176Y-47398D01*
X21185Y-47418D01*
X21255Y-47508D01*
X21315Y-47567D01*
X21395Y-47717D01*
X21454Y-47776D01*
X21484Y-47846D01*
X21504Y-47896D01*
X21529Y-47960D01*
X21544Y-47995D01*
X21613Y-48105D01*
X21643Y-48204D01*
X21658Y-48269D01*
X21668Y-48319D01*
X21678Y-48358D01*
X21688Y-48408D01*
X21698Y-48448D01*
X21708Y-48498D01*
X21718Y-48537D01*
X21743Y-48622D01*
X21763Y-48702D01*
X21773Y-48801D01*
X21763Y-49179D01*
X21753Y-49209D01*
X21743Y-49269D01*
X21723Y-49319D01*
X21713Y-49358D01*
X21693Y-49428D01*
X21683Y-49468D01*
X21658Y-49582D01*
X21628Y-49702D01*
X21598Y-49761D01*
X21559Y-49821D01*
X21504Y-49935D01*
X21484Y-49985D01*
X21444Y-50055D01*
X21375Y-50125D01*
X21315Y-50234D01*
X21250Y-50299D01*
X21235Y-50304D01*
X21225Y-50323D01*
X21181Y-50378D01*
X21121Y-50438D01*
X21101Y-50448D01*
X21046Y-50503D01*
X21036Y-50523D01*
X20962Y-50577D01*
X20892Y-50617D01*
X20822Y-50687D01*
X20753Y-50717D01*
X20703Y-50736D01*
X20683Y-50746D01*
X20613Y-50786D01*
X20584Y-50816D01*
X20564Y-50826D01*
X20474Y-50866D01*
X20410Y-50881D01*
X20330Y-50901D01*
X20275Y-50915D01*
X20146Y-50975D01*
X20046Y-51005D01*
X19977Y-51015D01*
X19778Y-51035D01*
X19618Y-51045D01*
X19061Y-51035D01*
X19031Y-51025D01*
X18842Y-51015D01*
X18812Y-51005D01*
X18748Y-50980D01*
X18683Y-50975D01*
X18613Y-51005D01*
X18564Y-51025D01*
X18534Y-51055D01*
X18519Y-51060D01*
X18489Y-51129D01*
X18454Y-51224D01*
X18434Y-51274D01*
X18400Y-51319D01*
X18395Y-51333D01*
X18375Y-51343D01*
X18330Y-51418D01*
X18280Y-51508D01*
X18245Y-51552D01*
X18225Y-51562D01*
X18201Y-51597D01*
X18131Y-51687D01*
X18106Y-51721D01*
X18086Y-51731D01*
X18071Y-51746D01*
X18061Y-51766D01*
X18026Y-51791D01*
X18002Y-51826D01*
X17967Y-51851D01*
X17857Y-51960D01*
X17838Y-51970D01*
X17818Y-51990D01*
X17798Y-52000D01*
X17703Y-52065D01*
X17668Y-52109D01*
X17648Y-52119D01*
X17499Y-52199D01*
X17445Y-52244D01*
X17429Y-52259D01*
X17340Y-52298D01*
X17216Y-52343D01*
X17161Y-52378D01*
X17091Y-52428D01*
X16962Y-52468D01*
X16892Y-52478D01*
X16852Y-52488D01*
X16783Y-52508D01*
X16728Y-52522D01*
X16698Y-52552D01*
X16693Y-52567D01*
X16654Y-52577D01*
X16604Y-52567D01*
X16589Y-52552D01*
X16604Y-52517D01*
X16624Y-52508D01*
X16688Y-52473D01*
X16708Y-52393D01*
X16718Y-52373D01*
X16753Y-52338D01*
X16882Y-52269D01*
X16917Y-52234D01*
X16927Y-52214D01*
X16952Y-52189D01*
X16972Y-52179D01*
X17066Y-52114D01*
X17081Y-52100D01*
X17101Y-52090D01*
X17231Y-51960D01*
X17250Y-51950D01*
X17325Y-51876D01*
X17330Y-51861D01*
X17345Y-51856D01*
X17355Y-51836D01*
X17420Y-51771D01*
X17439Y-51761D01*
X17464Y-51726D01*
X17504Y-51687D01*
X17514Y-51667D01*
X17544Y-51637D01*
X17554Y-51617D01*
X17653Y-51517D01*
X17663Y-51498D01*
X17683Y-51478D01*
X17733Y-51388D01*
X17803Y-51319D01*
X17813Y-51299D01*
X17842Y-51229D01*
X17892Y-51139D01*
X17922Y-51109D01*
X17932Y-51090D01*
X17972Y-51030D01*
X17992Y-50960D01*
X17982Y-50911D01*
X17962Y-50891D01*
X17957Y-50876D01*
X17937Y-50866D01*
X17907Y-50836D01*
X17822Y-50821D01*
X17783Y-50811D01*
X17668Y-50776D01*
X17628Y-50766D01*
X17559Y-50756D01*
X17519Y-50746D01*
X17395Y-50731D01*
X17305Y-50722D01*
X17196Y-50712D01*
X17121Y-50707D01*
X17066Y-50741D01*
X17056Y-50761D01*
X17037Y-50811D01*
X17027Y-50851D01*
X17012Y-50965D01*
X16982Y-51045D01*
X16942Y-51105D01*
X16917Y-51169D01*
X16897Y-51239D01*
X16877Y-51319D01*
X16857Y-51368D01*
X16833Y-51433D01*
X16768Y-51498D01*
X16758Y-51517D01*
X16728Y-51587D01*
X16708Y-51637D01*
X16663Y-51692D01*
X16599Y-51756D01*
X16559Y-51826D01*
X16514Y-51881D01*
X16489Y-51916D01*
X16474Y-51930D01*
X16459Y-51935D01*
X16450Y-51955D01*
X16435Y-51970D01*
X16415Y-51980D01*
X16285Y-52109D01*
X16265Y-52119D01*
X16246Y-52139D01*
X16226Y-52149D01*
X16136Y-52199D01*
X16111Y-52224D01*
X16101Y-52244D01*
X16076Y-52269D01*
X16057Y-52279D01*
X15987Y-52308D01*
X15947Y-52318D01*
X15823Y-52363D01*
X15808Y-52378D01*
X15788Y-52388D01*
X15728Y-52428D01*
X15649Y-52448D01*
X15519Y-52458D01*
X15450Y-52468D01*
X15081Y-52458D01*
X15052Y-52448D01*
X14992Y-52438D01*
X14882Y-52378D01*
X14863Y-52358D01*
X14813Y-52338D01*
X14688Y-52293D01*
X14629Y-52254D01*
X14599Y-52224D01*
X14589Y-52204D01*
X14534Y-52169D01*
X14479Y-52124D01*
X14445Y-52100D01*
X14425Y-52070D01*
X14405Y-52060D01*
X14380Y-52035D01*
X14370Y-52015D01*
X14320Y-51965D01*
X14310Y-51945D01*
X14256Y-51871D01*
X14236Y-51861D01*
X14211Y-51836D01*
X14201Y-51816D01*
X14171Y-51746D01*
X14151Y-51697D01*
X14111Y-51627D01*
X14062Y-51577D01*
X14052Y-51537D01*
X14032Y-51488D01*
X14022Y-51448D01*
X13987Y-51284D01*
X13967Y-51204D01*
X13927Y-51105D01*
X13907Y-51025D01*
X13897Y-50975D01*
X13887Y-50866D01*
X13882Y-50572D01*
X13892Y-50542D01*
X13912Y-50314D01*
X13887Y-50289D01*
X13868Y-50279D01*
X13778Y-50239D01*
X13708Y-50229D01*
X13479Y-50219D01*
X13450Y-50209D01*
X13305Y-50194D01*
X13196Y-50174D01*
X13146Y-50164D01*
X13106Y-50154D01*
X13047Y-50144D01*
X12997Y-50134D01*
X12937Y-50125D01*
X12803Y-50110D01*
X12644Y-50100D01*
X12574Y-50090D01*
X12251Y-50065D01*
X12131Y-50055D01*
X12052Y-50045D01*
X11873Y-50015D01*
X11823Y-50005D01*
X11763Y-49995D01*
X11723Y-49985D01*
X11604Y-49965D01*
X11514Y-49955D01*
X11385Y-49945D01*
X11266Y-49935D01*
X11166Y-49926D01*
X11047Y-49916D01*
X10937Y-49906D01*
X10818Y-49896D01*
X10728Y-49886D01*
X10649Y-49876D01*
X10520Y-49856D01*
X10440Y-49836D01*
X10340Y-49816D01*
X10181Y-49796D01*
X10082Y-49786D01*
X9972Y-49776D01*
X9853Y-49766D01*
X9743Y-49756D01*
X9624Y-49746D01*
X9525Y-49736D01*
X9435Y-49727D01*
X9306Y-49707D01*
X9251Y-49692D01*
X9052Y-49642D01*
X8967Y-49627D01*
X8918Y-49617D01*
X8858Y-49607D01*
X8808Y-49597D01*
X8728Y-49577D01*
X8679Y-49557D01*
X8619Y-49518D01*
X8554Y-49483D01*
X8505Y-49463D01*
X8440Y-49438D01*
X8390Y-49418D01*
X8336Y-49383D01*
X8276Y-49324D01*
X8256Y-49314D01*
X8166Y-49264D01*
X8132Y-49239D01*
X8122Y-49219D01*
X8102Y-49199D01*
X8092Y-49179D01*
X8077Y-49164D01*
X8057Y-49154D01*
X7982Y-49100D01*
X7972Y-49080D01*
X7903Y-48990D01*
X7878Y-48965D01*
X7858Y-48955D01*
X7818Y-48896D01*
X7798Y-48846D01*
X7783Y-48811D01*
X7734Y-48741D01*
X7714Y-48722D01*
X7664Y-48612D01*
X7649Y-48548D01*
X7619Y-48428D01*
X7609Y-48378D01*
X7589Y-48299D01*
X7574Y-48244D01*
X7559Y-48149D01*
X7554Y-47926D01*
X7564Y-47896D01*
X7574Y-47856D01*
X7589Y-47781D01*
X7614Y-47697D01*
X7624Y-47657D01*
X7639Y-47582D01*
X7654Y-47528D01*
X7664Y-47488D01*
X7689Y-47423D01*
X7704Y-47408D01*
X7714Y-47388D01*
X7744Y-47359D01*
X7754Y-47339D01*
X7823Y-47209D01*
X7893Y-47120D01*
X7962Y-47050D01*
X7972Y-47030D01*
X7992Y-47010D01*
X8022Y-46960D01*
X8037Y-46946D01*
X8057Y-46936D01*
X8146Y-46866D01*
X8166Y-46846D01*
X8181Y-46841D01*
X8191Y-46821D01*
X8206Y-46806D01*
X8226Y-46796D01*
X8246Y-46776D01*
X8266Y-46766D01*
X8415Y-46687D01*
X8445Y-46657D01*
X8465Y-46647D01*
X8495Y-46617D01*
X8564Y-46597D01*
X8664Y-46567D01*
X8788Y-46523D01*
X8823Y-46498D01*
X8893Y-46468D01*
X9012Y-46438D01*
X9117Y-46423D01*
X9246Y-46403D01*
X9296Y-46393D01*
X9425Y-46374D01*
X9465Y-46363D01*
X9520Y-46349D01*
X9599Y-46329D01*
X9669Y-46319D01*
X9709Y-46309D01*
X9838Y-46299D01*
X9878Y-46289D01*
X10495Y-46269D01*
X10922Y-46259D01*
X11838Y-46269D01*
X11868Y-46279D01*
X12435Y-46289D01*
X12465Y-46299D01*
X12684Y-46309D01*
X12713Y-46319D01*
X12733D01*
X12833Y-46329D01*
X12873Y-46339D01*
X12957Y-46354D01*
X13017Y-46363D01*
X13106Y-46374D01*
X13216Y-46383D01*
X13335Y-46393D01*
X13445Y-46403D01*
X13494Y-46413D01*
X13534Y-46423D01*
X13584Y-46433D01*
X13634Y-46453D01*
X13683Y-46503D01*
X13753Y-46632D01*
X13773Y-46682D01*
X13783Y-46722D01*
X13773Y-46841D01*
X13723Y-46911D01*
X13713Y-46951D01*
X13674Y-47020D01*
X13659Y-47035D01*
X13639Y-47045D01*
X13589Y-47065D01*
X13534Y-47080D01*
X13494Y-47090D01*
X13271Y-47095D01*
X13241Y-47085D01*
X13007Y-47070D01*
X12828Y-47060D01*
X12534Y-47045D01*
X12315Y-47035D01*
X12186Y-47025D01*
X11937Y-47015D01*
X11838Y-47005D01*
X11514Y-46990D01*
X11266Y-46980D01*
X10664Y-46975D01*
X10634Y-46985D01*
X10355Y-46995D01*
X10326Y-47005D01*
X10102Y-47020D01*
X9982Y-47030D01*
X9853Y-47040D01*
X9743Y-47050D01*
X9624Y-47060D01*
X9385Y-47090D01*
X9325Y-47100D01*
X9286Y-47110D01*
X9176Y-47150D01*
X9142Y-47164D01*
X9092Y-47184D01*
X9012Y-47204D01*
X8947Y-47219D01*
X8893Y-47234D01*
X8828Y-47259D01*
X8803Y-47284D01*
X8783Y-47294D01*
X8733Y-47344D01*
X8624Y-47403D01*
X8579Y-47438D01*
X8569Y-47458D01*
X8515Y-47513D01*
X8495Y-47523D01*
X8460Y-47558D01*
X8450Y-47577D01*
X8400Y-47667D01*
X8355Y-47722D01*
X8341Y-47737D01*
X8321Y-47786D01*
X8311Y-47826D01*
X8296Y-47891D01*
X8286Y-48010D01*
X8281Y-48115D01*
X8291Y-48145D01*
X8306Y-48269D01*
X8345Y-48368D01*
X8370Y-48393D01*
X8400Y-48443D01*
X8420Y-48463D01*
X8490Y-48592D01*
X8515Y-48617D01*
X8535Y-48627D01*
X8604Y-48677D01*
X8619Y-48682D01*
X8629Y-48702D01*
X8684Y-48756D01*
X8704Y-48766D01*
X8813Y-48816D01*
X8908Y-48851D01*
X8957Y-48871D01*
X8982Y-48896D01*
X9032Y-48916D01*
X9102Y-48935D01*
X9142Y-48946D01*
X9281Y-48965D01*
X9380Y-48975D01*
X9599Y-48995D01*
X9669Y-49005D01*
X9783Y-49020D01*
X9823Y-49030D01*
X10121Y-49090D01*
X10211Y-49100D01*
X10321Y-49110D01*
X10460Y-49120D01*
X10559Y-49130D01*
X10679Y-49139D01*
X10808Y-49150D01*
X10917Y-49159D01*
X10997Y-49169D01*
X11176Y-49199D01*
X11216Y-49209D01*
X11266Y-49219D01*
X11305Y-49229D01*
X11365Y-49239D01*
X11445Y-49249D01*
X11544Y-49259D01*
X12022Y-49299D01*
X12131Y-49309D01*
X12231Y-49319D01*
X12320Y-49329D01*
X12400Y-49338D01*
X12509Y-49358D01*
X12549Y-49368D01*
X12599Y-49378D01*
X12659Y-49388D01*
X12863Y-49413D01*
X12902Y-49423D01*
X13116Y-49438D01*
X13236Y-49448D01*
X13375Y-49458D01*
X13594Y-49478D01*
X13674Y-49488D01*
X13733Y-49498D01*
X13833Y-49518D01*
X13892Y-49527D01*
X13942Y-49538D01*
X14022Y-49557D01*
X14076Y-49572D01*
X14126Y-49562D01*
X14156Y-49532D01*
X14176Y-49523D01*
X14216Y-49483D01*
X14285Y-49443D01*
X14310Y-49418D01*
X14330Y-49368D01*
X14360Y-49319D01*
X14425Y-49254D01*
X14445Y-49244D01*
X14459Y-49229D01*
X14499Y-49159D01*
X14554Y-49105D01*
X14604Y-49075D01*
X14619Y-49060D01*
X14629Y-49040D01*
X14673Y-48985D01*
X14693Y-48975D01*
X14783Y-48926D01*
X14818Y-48891D01*
X14828Y-48871D01*
X14853Y-48846D01*
X14902Y-48826D01*
X14997Y-48791D01*
X15091Y-48746D01*
X15111Y-48727D01*
X15131Y-48717D01*
X15191Y-48677D01*
X15275Y-48662D01*
X15410Y-48647D01*
X15539Y-48637D01*
X15897Y-48647D01*
X15927Y-48657D01*
X16027Y-48667D01*
X16116Y-48717D01*
X16136Y-48737D01*
X16156Y-48746D01*
X16176Y-48766D01*
X16216Y-48776D01*
X16305Y-48816D01*
X16375Y-48856D01*
X16410Y-48891D01*
X16420Y-48911D01*
X16454Y-48946D01*
X16524Y-48985D01*
X16569Y-49030D01*
X16579Y-49050D01*
X16604Y-49095D01*
X16624Y-49105D01*
X16678Y-49150D01*
X16708Y-49179D01*
X16733Y-49244D01*
X16768Y-49299D01*
X16783Y-49324D01*
X16803Y-49334D01*
X16828Y-49358D01*
X16838Y-49378D01*
X16867Y-49448D01*
X16887Y-49498D01*
X16902Y-49552D01*
X16912Y-49592D01*
X16957Y-49677D01*
X17007Y-49786D01*
X17017Y-49826D01*
X17056Y-49896D01*
X17081Y-49931D01*
X17101Y-49940D01*
X17151Y-49960D01*
X17250Y-49970D01*
X17280Y-49980D01*
X17350Y-50000D01*
X17509Y-50040D01*
X17579Y-50050D01*
X17619Y-50060D01*
X17783Y-50075D01*
X17872Y-50085D01*
X18076Y-50110D01*
X18146Y-50070D01*
X18201Y-50015D01*
X18211Y-49995D01*
X18255Y-49940D01*
X18270Y-49926D01*
X18280Y-49906D01*
X18330Y-49816D01*
X18355Y-49791D01*
X18405Y-49771D01*
X18554Y-49781D01*
X18609Y-49826D01*
X18629Y-49876D01*
X18678Y-50035D01*
X18688Y-50105D01*
X18698Y-50144D01*
X18723Y-50189D01*
X18743Y-50199D01*
X18823Y-50249D01*
X18887Y-50264D01*
X19016Y-50284D01*
X19076Y-50294D01*
X19126Y-50304D01*
X19206Y-50323D01*
X19340Y-50338D01*
X19678Y-50328D01*
X19728Y-50309D01*
X20091Y-50234D01*
X20171Y-50214D01*
X20250Y-50164D01*
X20310Y-50125D01*
X20504Y-50030D01*
X20519Y-50015D01*
X20529Y-49995D01*
X20549Y-49975D01*
X20554Y-49960D01*
X20574Y-49950D01*
X20594Y-49931D01*
X20643Y-49901D01*
X20698Y-49846D01*
X20738Y-49776D01*
X20763Y-49751D01*
X20783Y-49741D01*
X20817Y-49707D01*
X20857Y-49617D01*
X20887Y-49547D01*
X20947Y-49438D01*
X20987Y-49378D01*
X21001Y-49294D01*
X21011Y-49244D01*
X21021Y-49164D01*
X21031Y-49065D01*
X21036Y-48821D01*
X21026Y-48791D01*
X21016Y-48632D01*
X21006Y-48602D01*
X20991Y-48518D01*
X20977Y-48463D01*
X20927Y-48373D01*
X20897Y-48324D01*
X20862Y-48229D01*
X20842Y-48179D01*
X20827Y-48145D01*
X20758Y-48055D01*
X20738Y-48035D01*
X20728Y-48015D01*
X20668Y-47906D01*
X20623Y-47861D01*
X20604Y-47851D01*
X20549Y-47796D01*
X20504Y-47722D01*
X20484Y-47712D01*
X20394Y-47642D01*
X20370Y-47617D01*
X20360Y-47597D01*
X20325Y-47563D01*
X20235Y-47513D01*
X20181Y-47468D01*
X20171Y-47448D01*
X20156Y-47433D01*
X20136Y-47423D01*
X19947Y-47324D01*
X19907Y-47284D01*
X19887Y-47274D01*
X19867Y-47254D01*
X19817Y-47234D01*
X19693Y-47189D01*
X19658Y-47174D01*
X19539Y-47095D01*
X19350Y-47035D01*
X19196Y-47050D01*
X19161Y-47075D01*
X19146Y-47090D01*
X19136Y-47110D01*
X19071Y-47204D01*
X19051Y-47224D01*
X18897Y-47279D01*
X18852Y-47284D01*
X18793Y-47224D01*
X18773Y-47214D01*
X18698Y-47140D01*
X18688Y-47100D01*
X18673Y-46995D01*
X18668Y-46881D01*
X18678Y-46851D01*
X18648Y-46801D01*
X18613Y-46766D01*
X18594Y-46757D01*
X18564Y-46747D01*
X18484Y-46727D01*
X18419Y-46712D01*
X18380Y-46702D01*
X18215Y-46627D01*
X18086Y-46587D01*
X17987Y-46597D01*
X17957Y-46607D01*
X17892Y-46632D01*
X17882Y-46652D01*
X17852Y-46722D01*
X17832Y-46791D01*
X17808Y-46856D01*
X17773Y-46911D01*
X17758Y-46926D01*
X17738Y-46936D01*
X17693Y-47010D01*
X17643Y-47100D01*
X17599Y-47155D01*
X17514Y-47239D01*
X17504Y-47259D01*
X17439Y-47344D01*
X17370Y-47383D01*
X17270Y-47483D01*
X17250Y-47493D01*
X17181Y-47533D01*
X17111Y-47563D01*
X17041Y-47602D01*
X16992Y-47652D01*
X16942Y-47672D01*
X16902Y-47682D01*
X16783Y-47702D01*
X16683Y-47712D01*
X16644Y-47722D01*
X16415Y-47732D01*
X16385Y-47722D01*
X16196Y-47712D01*
X16166Y-47702D01*
X16071Y-47687D01*
X16022Y-47677D01*
X15982Y-47667D01*
X15967Y-47652D01*
X15947Y-47642D01*
X15887Y-47582D01*
X15838Y-47563D01*
X15668Y-47473D01*
X15634Y-47438D01*
X15624Y-47418D01*
X15599Y-47393D01*
X15579Y-47383D01*
X15519Y-47344D01*
X15499Y-47334D01*
X15460Y-47274D01*
X15425Y-47219D01*
X15390Y-47184D01*
X15370Y-47174D01*
X15335Y-47140D01*
X15325Y-47120D01*
X15256Y-46990D01*
X15206Y-46921D01*
X15166Y-46881D01*
X15146Y-46831D01*
X15136Y-46791D01*
X15116Y-46722D01*
X15091Y-46657D01*
X15071Y-46607D01*
X15047Y-46573D01*
X15027Y-46553D01*
X15007Y-46503D01*
X14977Y-46334D01*
X14962Y-46180D01*
X14952Y-46120D01*
X14942Y-46070D01*
X14932Y-46030D01*
X14907Y-45995D01*
X14853Y-45970D01*
X14753Y-45941D01*
X14654Y-45931D01*
X14455Y-45921D01*
X14425Y-45911D01*
X14290Y-45896D01*
X14231Y-45886D01*
X14191Y-45876D01*
X14091Y-45856D01*
X14002Y-45846D01*
X13922Y-45836D01*
X13833Y-45826D01*
X13723Y-45816D01*
X13564Y-45806D01*
X13395Y-45796D01*
X13186Y-45786D01*
X13017Y-45777D01*
X12271Y-45747D01*
X11972Y-45737D01*
X11713Y-45727D01*
X10922Y-45722D01*
X10893Y-45732D01*
X10345Y-45742D01*
X10316Y-45752D01*
X9813Y-45767D01*
X9634Y-45777D01*
X9296Y-45796D01*
X9017Y-45816D01*
X8918Y-45826D01*
X8669Y-45866D01*
X8589Y-45886D01*
X8540Y-45896D01*
X8480Y-45906D01*
X8345Y-45921D01*
X8306Y-45931D01*
X8132Y-45946D01*
X8042Y-45956D01*
X7883Y-45976D01*
X7823Y-45985D01*
X7773Y-45995D01*
X7734Y-46005D01*
X7684Y-46025D01*
X7619Y-46050D01*
X7554Y-46065D01*
X7515Y-46075D01*
X7455Y-46085D01*
X7326Y-46105D01*
X7147Y-46135D01*
X7067Y-46155D01*
X7012Y-46180D01*
X6913Y-46219D01*
X6843Y-46239D01*
X6803Y-46249D01*
X6719Y-46264D01*
X6679Y-46274D01*
X6629Y-46284D01*
X6589Y-46294D01*
X6510Y-46324D01*
X6405Y-46378D01*
X6356Y-46398D01*
X6301Y-46413D01*
X6251Y-46423D01*
X6196Y-46438D01*
X6132Y-46463D01*
X6082Y-46483D01*
X6047Y-46518D01*
X6027Y-46528D01*
X5938Y-46567D01*
X5813Y-46612D01*
X5759Y-46647D01*
X5739Y-46667D01*
X5719Y-46677D01*
X5689Y-46707D01*
X5639Y-46727D01*
X5510Y-46796D01*
X5465Y-46831D01*
X5455Y-46851D01*
X5410Y-46886D01*
X5301Y-46946D01*
X5276Y-46970D01*
X5266Y-46990D01*
X5201Y-47055D01*
X5152Y-47085D01*
X5117Y-47120D01*
X5107Y-47140D01*
X5062Y-47194D01*
X5022Y-47234D01*
X5002Y-47244D01*
X4978Y-47269D01*
X4968Y-47289D01*
X4918Y-47378D01*
X4898Y-47398D01*
X4888Y-47418D01*
X4873Y-47433D01*
X4853Y-47443D01*
X4789Y-47567D01*
X4769Y-47617D01*
X4754Y-47672D01*
X4704Y-47752D01*
X4659Y-47856D01*
X4644Y-47921D01*
X4624Y-48050D01*
X4609Y-48314D01*
X4619Y-48344D01*
X4629Y-48533D01*
X4639Y-48562D01*
X4654Y-48647D01*
X4674Y-48727D01*
X4714Y-48786D01*
X4749Y-48851D01*
X4774Y-48916D01*
X4793Y-48965D01*
X4853Y-49065D01*
X4938Y-49150D01*
X4987Y-49239D01*
X5012Y-49264D01*
X5032Y-49274D01*
X5087Y-49319D01*
X5127Y-49358D01*
X5137Y-49378D01*
X5162Y-49403D01*
X5181Y-49413D01*
X5311Y-49483D01*
X5366Y-49527D01*
X5381Y-49542D01*
X5400Y-49552D01*
X5420Y-49572D01*
X5470Y-49592D01*
X5540Y-49612D01*
X5604Y-49637D01*
X5654Y-49657D01*
X5669Y-49672D01*
X5699Y-49682D01*
X5768Y-49722D01*
X5838Y-49741D01*
X5958Y-49761D01*
X5997Y-49771D01*
X6201Y-49796D01*
X6331Y-49816D01*
X6380Y-49826D01*
X6420Y-49836D01*
X6465Y-49851D01*
X6584Y-49871D01*
X6624Y-49881D01*
X6933Y-49911D01*
X6972Y-49920D01*
X7166Y-49935D01*
X7266Y-49945D01*
X7385Y-49955D01*
X7475Y-49965D01*
X7584Y-49985D01*
X7734Y-50015D01*
X7773Y-50025D01*
X7823Y-50035D01*
X7957Y-50050D01*
X7997Y-50060D01*
X8221Y-50075D01*
X8321Y-50085D01*
X8440Y-50095D01*
X8569Y-50105D01*
X8679Y-50115D01*
X8798Y-50134D01*
X8898Y-50154D01*
X8957Y-50164D01*
X9037Y-50184D01*
X9171Y-50199D01*
X9211Y-50209D01*
X9400Y-50219D01*
X9430Y-50229D01*
X9614Y-50244D01*
X9743Y-50254D01*
X9853Y-50264D01*
X10052Y-50284D01*
X10131Y-50294D01*
X10231Y-50314D01*
X10286Y-50328D01*
X10326Y-50338D01*
X10495Y-50358D01*
X10534Y-50368D01*
X10694Y-50378D01*
X10763Y-50388D01*
X10947Y-50403D01*
X11057Y-50413D01*
X11186Y-50423D01*
X11286Y-50433D01*
X11365Y-50443D01*
X11485Y-50463D01*
X11524Y-50473D01*
X11574Y-50483D01*
X11634Y-50493D01*
X11684Y-50503D01*
X11803Y-50523D01*
X12042Y-50552D01*
X12161Y-50572D01*
X12211Y-50582D01*
X12291Y-50602D01*
X12385Y-50647D01*
X12475Y-50687D01*
X12614Y-50726D01*
X12679Y-50751D01*
X12738Y-50791D01*
X12748Y-50811D01*
X12823Y-50856D01*
X12888Y-50881D01*
X12972Y-50925D01*
X12992Y-50945D01*
X13012Y-50955D01*
X13032Y-50985D01*
X13052Y-50995D01*
X13072Y-51015D01*
X13092Y-51025D01*
X13181Y-51075D01*
X13196Y-51090D01*
X13206Y-51109D01*
X13226Y-51129D01*
X13236Y-51149D01*
X13261Y-51174D01*
X13281Y-51184D01*
X13365Y-51249D01*
X13445Y-51398D01*
X13475Y-51448D01*
X13479Y-51582D01*
X13465Y-51617D01*
X13435Y-51647D01*
X13425Y-51667D01*
X13355Y-51796D01*
X13291Y-51831D01*
X13251Y-51841D01*
X13186Y-51856D01*
X13146Y-51866D01*
X13131Y-51871D01*
X13101Y-51861D01*
X12957Y-51836D01*
X12878Y-51786D01*
X12803Y-51711D01*
X12783Y-51701D01*
X12763Y-51682D01*
X12743Y-51672D01*
X12713Y-51642D01*
X12694Y-51632D01*
X12614Y-51552D01*
X12425Y-51453D01*
X12405Y-51433D01*
X12385Y-51423D01*
X12365Y-51403D01*
X12315Y-51383D01*
X12216Y-51353D01*
X12176Y-51343D01*
X12111Y-51328D01*
X11972Y-51279D01*
X11917Y-51254D01*
X11878Y-51244D01*
X11808Y-51234D01*
X11768Y-51224D01*
X11549Y-51204D01*
X11509Y-51194D01*
X11305Y-51179D01*
X11087Y-51159D01*
X10997Y-51149D01*
X10937Y-51139D01*
X10888Y-51129D01*
X10833Y-51114D01*
X10768Y-51100D01*
X10649Y-51080D01*
X10514Y-51065D01*
X10415Y-51055D01*
X10221Y-51040D01*
X10121Y-51030D01*
X9853Y-51010D01*
X9763Y-51000D01*
X9644Y-50980D01*
X9594Y-50970D01*
X9554Y-50960D01*
X9505Y-50950D01*
X9465Y-50940D01*
X9405Y-50930D01*
X9271Y-50915D01*
X9201Y-50906D01*
X9017Y-50891D01*
X8908Y-50881D01*
X8669Y-50861D01*
X8470Y-50841D01*
X8390Y-50831D01*
X8271Y-50811D01*
X8231Y-50801D01*
X8176Y-50786D01*
X8057Y-50766D01*
X7987Y-50756D01*
X7888Y-50746D01*
X7848Y-50736D01*
X7619Y-50726D01*
X7589Y-50717D01*
X7385Y-50702D01*
X7276Y-50692D01*
X7196Y-50682D01*
X7077Y-50662D01*
X6997Y-50642D01*
X6848Y-50612D01*
X6644Y-50587D01*
X6445Y-50567D01*
X6092Y-50533D01*
X6012Y-50523D01*
X5962Y-50512D01*
X5878Y-50488D01*
X5783Y-50453D01*
X5729Y-50438D01*
X5689Y-50428D01*
X5574Y-50403D01*
X5475Y-50383D01*
X5376Y-50343D01*
X5341Y-50318D01*
X5291Y-50289D01*
X5221Y-50259D01*
X5152Y-50239D01*
X5042Y-50179D01*
X5012Y-50149D01*
X4992Y-50139D01*
X4972Y-50120D01*
X4953Y-50110D01*
X4803Y-50030D01*
X4778Y-49995D01*
X4734Y-49950D01*
X4644Y-49901D01*
X4599Y-49856D01*
X4589Y-49836D01*
X4545Y-49791D01*
X4525Y-49781D01*
X4505Y-49761D01*
X4485Y-49751D01*
X4460Y-49717D01*
X4395Y-49632D01*
X4376Y-49622D01*
X4331Y-49577D01*
X4261Y-49448D01*
X4182Y-49368D01*
X4172Y-49329D01*
X4132Y-49239D01*
X4062Y-49110D01*
X4042Y-49090D01*
X4002Y-48960D01*
X3982Y-48881D01*
X3948Y-48717D01*
X3938Y-48667D01*
X3918Y-48617D01*
X3903Y-48562D01*
X3893Y-48523D01*
X3883Y-48363D01*
X3873Y-48294D01*
X3888Y-48060D01*
X3898Y-48000D01*
X3908Y-47951D01*
X3928Y-47901D01*
X3948Y-47821D01*
X3958Y-47771D01*
X3968Y-47732D01*
X3978Y-47682D01*
X3988Y-47622D01*
X4007Y-47543D01*
X4047Y-47433D01*
X4072Y-47408D01*
X4082Y-47388D01*
X4132Y-47279D01*
X4152Y-47229D01*
X4221Y-47100D01*
X4236Y-47085D01*
X4251Y-47080D01*
X4261Y-47060D01*
X4281Y-47040D01*
X4311Y-46970D01*
X4321Y-46951D01*
X4366Y-46896D01*
X4430Y-46831D01*
X4470Y-46762D01*
X4589Y-46642D01*
X4599Y-46622D01*
X4664Y-46558D01*
X4684Y-46548D01*
X4714Y-46518D01*
X4734Y-46508D01*
X4783Y-46448D01*
X4803Y-46428D01*
X4823Y-46418D01*
X4893Y-46378D01*
X4908Y-46363D01*
X4918Y-46344D01*
X4972Y-46289D01*
X4992Y-46279D01*
X5102Y-46219D01*
X5127Y-46194D01*
X5137Y-46174D01*
X5152Y-46160D01*
X5172Y-46150D01*
X5381Y-46040D01*
X5420Y-46000D01*
X5440Y-45990D01*
X5530Y-45951D01*
X5624Y-45916D01*
X5674Y-45896D01*
X5709Y-45871D01*
X5729Y-45851D01*
X5818Y-45811D01*
X5858Y-45801D01*
X5928Y-45781D01*
X5968Y-45772D01*
X6062Y-45737D01*
X6157Y-45682D01*
X6206Y-45662D01*
X6326Y-45632D01*
X6440Y-45607D01*
X6480Y-45597D01*
X6560Y-45568D01*
X6684Y-45513D01*
X6763Y-45493D01*
X6883Y-45473D01*
X6923Y-45463D01*
X7017Y-45448D01*
X7057Y-45438D01*
X7107Y-45428D01*
X7147Y-45418D01*
X7196Y-45398D01*
X7251Y-45374D01*
X7306Y-45359D01*
X7385Y-45339D01*
X7520Y-45324D01*
X7559Y-45314D01*
X7674Y-45299D01*
X7833Y-45279D01*
X7893Y-45269D01*
X7933Y-45259D01*
X7987Y-45244D01*
X8027Y-45234D01*
X8097Y-45214D01*
X8136Y-45204D01*
X8206Y-45195D01*
X8246Y-45184D01*
X8400Y-45170D01*
X8490Y-45160D01*
X8609Y-45150D01*
X8719Y-45140D01*
X8848Y-45130D01*
X8967Y-45120D01*
X9067Y-45110D01*
X9246Y-45090D01*
X9375Y-45070D01*
X9495Y-45050D01*
X9614Y-45040D01*
X9743Y-45030D01*
X9942Y-45020D01*
X10241Y-45010D01*
X10718Y-45000D01*
X11878Y-44995D01*
X11908Y-45005D01*
X12664Y-45015D01*
X12694Y-45025D01*
X13002Y-45035D01*
X13032Y-45045D01*
X13211Y-45055D01*
X13241Y-45065D01*
X13410Y-45085D01*
X13479Y-45095D01*
X13634Y-45110D01*
X13892Y-45130D01*
X14310Y-45160D01*
X14420Y-45170D01*
X14549Y-45180D01*
X14659Y-45189D01*
X14738Y-45199D01*
X14778Y-45209D01*
X14863Y-45234D01*
X14892Y-45244D01*
X14947Y-45199D01*
X15017Y-45130D01*
X15027Y-45110D01*
X15067Y-45070D01*
X15076Y-45050D01*
X15106Y-44980D01*
X15116Y-44941D01*
X15131Y-44886D01*
X15171Y-44777D01*
X15221Y-44717D01*
X15256Y-44682D01*
X15285Y-44612D01*
X15305Y-44563D01*
X15350Y-44508D01*
X15405Y-44463D01*
X15469Y-44369D01*
X15509Y-44329D01*
X15529Y-44319D01*
X15584Y-44264D01*
X15594Y-44244D01*
X15639Y-44199D01*
X15743Y-44145D01*
X15753Y-44125D01*
X15788Y-44080D01*
X15808Y-44070D01*
X15877Y-44040D01*
X15972Y-44006D01*
X16022Y-43986D01*
X16037Y-43971D01*
X16057Y-43961D01*
X16076Y-43941D01*
X16146Y-43911D01*
X16186Y-43901D01*
X16255Y-43891D01*
X16355Y-43881D01*
X16539Y-43876D01*
X16728Y-43886D01*
D02*
G37*
%LPC*%
G36*
X-15536Y52536D02*
X-15585Y52487D01*
X-15601Y52471D01*
X-15715Y52358D01*
X-15682Y52260D01*
X-15715Y52163D01*
X-15682Y52065D01*
X-15633Y52017D01*
X-15455Y52065D01*
X-15439Y52374D01*
X-15471Y52504D01*
X-15536Y52536D01*
D02*
G37*
G36*
X-15861D02*
X-16072Y52390D01*
Y52260D01*
X-16104Y52163D01*
X-16056Y51984D01*
X-16023Y51887D01*
X-15893Y51919D01*
X-15861Y52276D01*
X-15747Y52390D01*
X-15780Y52520D01*
X-15861Y52536D01*
D02*
G37*
G36*
X-15146Y52601D02*
X-15228Y52585D01*
X-15260Y52455D01*
X-15228Y52358D01*
X-15276Y52114D01*
X-15309Y52049D01*
X-15423Y52000D01*
X-15455Y51871D01*
X-15617Y51838D01*
X-15682Y51773D01*
X-15715Y51643D01*
X-15682Y51286D01*
X-15601Y51270D01*
X-15455Y51351D01*
X-15423Y51838D01*
X-15341Y51854D01*
X-15309D01*
X-15260Y51871D01*
X-15228Y51968D01*
X-15179Y52017D01*
X-15114Y52049D01*
X-15065Y52098D01*
X-15033Y52163D01*
X-14968Y52325D01*
X-15000Y52455D01*
X-15146Y52601D01*
D02*
G37*
G36*
X-16932Y51075D02*
X-16948Y51059D01*
X-16965Y51043D01*
X-16981Y50962D01*
X-16900Y50945D01*
X-16883Y51026D01*
X-16932Y51075D01*
D02*
G37*
G36*
X-16478Y50264D02*
X-16526Y50215D01*
X-16494Y50150D01*
X-16478Y50134D01*
X-16445D01*
X-16397Y50182D01*
X-16429Y50247D01*
X-16478Y50264D01*
D02*
G37*
G36*
X-14530Y50783D02*
X-14627Y50750D01*
X-14660Y50621D01*
X-14708Y50572D01*
X-14676Y50475D01*
X-14562Y50296D01*
X-14546Y50312D01*
X-14530Y50328D01*
X-14481Y50377D01*
X-14416Y50539D01*
X-14530Y50783D01*
D02*
G37*
G36*
X16489Y-44075D02*
X16400Y-44085D01*
X16305Y-44100D01*
X16285Y-44120D01*
X16186Y-44160D01*
X16146Y-44170D01*
X16047Y-44199D01*
X16007Y-44209D01*
X15937Y-44249D01*
X15857Y-44329D01*
X15828Y-44339D01*
X15733Y-44403D01*
X15614Y-44523D01*
X15604Y-44543D01*
X15584Y-44563D01*
X15574Y-44583D01*
X15529Y-44637D01*
X15474Y-44692D01*
X15445Y-44762D01*
X15420Y-44826D01*
X15395Y-44861D01*
X15345Y-44911D01*
X15315Y-44980D01*
X15295Y-45050D01*
X15285Y-45090D01*
X15270Y-45155D01*
X15260Y-45195D01*
X15231Y-45274D01*
X15176Y-45398D01*
X15166Y-45468D01*
X15156Y-45508D01*
X15146Y-45697D01*
X15141Y-45891D01*
X15151Y-46100D01*
X15161Y-46199D01*
X15171Y-46249D01*
X15211Y-46349D01*
X15256Y-46453D01*
X15285Y-46573D01*
X15300Y-46637D01*
X15310Y-46677D01*
X15330Y-46727D01*
X15345Y-46742D01*
X15355Y-46762D01*
X15395Y-46801D01*
X15499Y-47015D01*
X15519Y-47025D01*
X15539Y-47045D01*
X15559Y-47055D01*
X15594Y-47090D01*
X15604Y-47110D01*
X15644Y-47179D01*
X15658Y-47194D01*
X15748Y-47244D01*
X15773Y-47259D01*
X15783Y-47279D01*
X15828Y-47334D01*
X15937Y-47383D01*
X16032Y-47418D01*
X16066Y-47433D01*
X16121Y-47478D01*
X16186Y-47503D01*
X16255Y-47513D01*
X16295Y-47523D01*
X16474Y-47533D01*
X16484D01*
X16678Y-47518D01*
X16728Y-47508D01*
X16768Y-47498D01*
X16833Y-47473D01*
X16872Y-47433D01*
X16942Y-47403D01*
X17066Y-47359D01*
X17146Y-47309D01*
X17166Y-47289D01*
X17176Y-47269D01*
X17211Y-47234D01*
X17231Y-47224D01*
X17300Y-47184D01*
X17335Y-47150D01*
X17375Y-47080D01*
X17429Y-47025D01*
X17449Y-47015D01*
X17484Y-46980D01*
X17504Y-46931D01*
X17584Y-46781D01*
X17634Y-46732D01*
X17653Y-46682D01*
X17693Y-46543D01*
X17718Y-46478D01*
X17738Y-46428D01*
X17783Y-46344D01*
X17793Y-46304D01*
X17822Y-46135D01*
X17832Y-45976D01*
X17842Y-45846D01*
X17832Y-45488D01*
X17822Y-45458D01*
X17813Y-45329D01*
X17803Y-45299D01*
X17788Y-45234D01*
X17773Y-45199D01*
X17753Y-45180D01*
X17713Y-45090D01*
X17693Y-45020D01*
X17663Y-44901D01*
X17643Y-44851D01*
X17599Y-44796D01*
X17564Y-44762D01*
X17464Y-44573D01*
X17439Y-44548D01*
X17420Y-44538D01*
X17375Y-44503D01*
X17365Y-44483D01*
X17345Y-44463D01*
X17305Y-44394D01*
X17221Y-44349D01*
X17166Y-44304D01*
X17101Y-44239D01*
X17061Y-44229D01*
X16992Y-44199D01*
X16952Y-44190D01*
X16897Y-44175D01*
X16818Y-44145D01*
X16683Y-44090D01*
X16644Y-44080D01*
X16489Y-44075D01*
D02*
G37*
G36*
X15629Y-48826D02*
X15599Y-48836D01*
X15420Y-48846D01*
X15390Y-48856D01*
X15350Y-48866D01*
X15330Y-48886D01*
X15310Y-48896D01*
X15221Y-48935D01*
X15121Y-48965D01*
X15081Y-48975D01*
X15017Y-49000D01*
X15002Y-49015D01*
X14982Y-49025D01*
X14957Y-49060D01*
X14922Y-49095D01*
X14813Y-49154D01*
X14713Y-49254D01*
X14693Y-49264D01*
X14649Y-49309D01*
X14639Y-49329D01*
X14619Y-49348D01*
X14609Y-49368D01*
X14584Y-49403D01*
X14564Y-49413D01*
X14519Y-49458D01*
X14509Y-49478D01*
X14440Y-49607D01*
X14415Y-49632D01*
X14395Y-49642D01*
X14360Y-49707D01*
X14335Y-49771D01*
X14285Y-49911D01*
X14241Y-49985D01*
X14211Y-50055D01*
X14201Y-50095D01*
X14181Y-50214D01*
X14171Y-50284D01*
X14161Y-50413D01*
X14151Y-50453D01*
X14141Y-50731D01*
X14131Y-50781D01*
X14141Y-50811D01*
X14156Y-51015D01*
X14166Y-51105D01*
X14176Y-51184D01*
X14196Y-51303D01*
X14206Y-51343D01*
X14231Y-51408D01*
X14300Y-51508D01*
X14320Y-51557D01*
X14355Y-51652D01*
X14390Y-51706D01*
X14440Y-51756D01*
X14450Y-51776D01*
X14519Y-51866D01*
X14564Y-51930D01*
X14584Y-51940D01*
X14604Y-51960D01*
X14624Y-51970D01*
X14748Y-52065D01*
X14793Y-52109D01*
X14882Y-52149D01*
X14997Y-52174D01*
X15081Y-52199D01*
X15146Y-52224D01*
X15161Y-52239D01*
X15241Y-52259D01*
X15509Y-52249D01*
X15639Y-52189D01*
X15703Y-52174D01*
X15863Y-52134D01*
X15942Y-52085D01*
X15997Y-52030D01*
X16166Y-51940D01*
X16211Y-51896D01*
X16221Y-51876D01*
X16295Y-51801D01*
X16315Y-51791D01*
X16360Y-51756D01*
X16400Y-51687D01*
X16450Y-51617D01*
X16459Y-51597D01*
X16529Y-51527D01*
X16559Y-51458D01*
X16584Y-51393D01*
X16604Y-51343D01*
X16658Y-51289D01*
X16668Y-51269D01*
X16698Y-51199D01*
X16718Y-51120D01*
X16753Y-50955D01*
X16793Y-50846D01*
X16818Y-50801D01*
X16828Y-50761D01*
Y-50751D01*
X16833Y-50746D01*
X16842Y-50687D01*
X16852Y-50597D01*
X16862Y-50388D01*
X16867Y-50294D01*
X16857Y-50264D01*
X16848Y-50055D01*
X16838Y-50025D01*
X16828Y-49965D01*
X16788Y-49906D01*
X16753Y-49811D01*
X16733Y-49731D01*
X16723Y-49682D01*
X16703Y-49602D01*
X16683Y-49552D01*
X16648Y-49498D01*
X16599Y-49448D01*
X16559Y-49358D01*
X16529Y-49309D01*
X16474Y-49254D01*
X16454Y-49244D01*
X16440Y-49229D01*
X16400Y-49159D01*
X16385Y-49145D01*
X16365Y-49134D01*
X16345Y-49115D01*
X16275Y-49075D01*
X16260Y-49060D01*
X16251Y-49040D01*
X16206Y-48995D01*
X15992Y-48921D01*
X15847Y-48846D01*
X15629Y-48826D01*
D02*
G37*
%LPD*%
G36*
X16544Y-44548D02*
X16574Y-44558D01*
X16663Y-44607D01*
X16763Y-44677D01*
X16838Y-44712D01*
X16848Y-44732D01*
X16867Y-44752D01*
X16907Y-44821D01*
X16927Y-44841D01*
X16932Y-44856D01*
X16952Y-44866D01*
X16987Y-44901D01*
X17017Y-44971D01*
X17047Y-45070D01*
X17056Y-45110D01*
X17071Y-45204D01*
X17081Y-45264D01*
X17091Y-45344D01*
X17096Y-45458D01*
X17086Y-45488D01*
X17076Y-45607D01*
X17066Y-45637D01*
X17051Y-45742D01*
X17037Y-45796D01*
X17002Y-45891D01*
X16987Y-45906D01*
X16977Y-45926D01*
X16927Y-45976D01*
X16917Y-45995D01*
X16877Y-46065D01*
X16813Y-46130D01*
X16793Y-46140D01*
X16738Y-46184D01*
X16728Y-46204D01*
X16703Y-46229D01*
X16634Y-46259D01*
X16519Y-46284D01*
X16385Y-46299D01*
X16246Y-46289D01*
X16216Y-46279D01*
X16141Y-46264D01*
X16057Y-46219D01*
X16007Y-46169D01*
X15987Y-46160D01*
X15872Y-46045D01*
X15863Y-46025D01*
X15813Y-45976D01*
X15803Y-45956D01*
X15763Y-45866D01*
X15748Y-45801D01*
X15738Y-45762D01*
X15713Y-45677D01*
X15673Y-45548D01*
X15664Y-45508D01*
X15673Y-45319D01*
X15683Y-45289D01*
X15698Y-45224D01*
X15723Y-45160D01*
X15743Y-45080D01*
X15798Y-44926D01*
X15833Y-44871D01*
X15857Y-44846D01*
X15877Y-44836D01*
X15902Y-44801D01*
X15922Y-44762D01*
X15927Y-44757D01*
X15942Y-44742D01*
X15952Y-44722D01*
X15977Y-44697D01*
X15997Y-44687D01*
X16106Y-44627D01*
X16196Y-44568D01*
X16315Y-44538D01*
X16544Y-44548D01*
D02*
G37*
G36*
X15609Y-49194D02*
X15683Y-49209D01*
X15798Y-49264D01*
X15892Y-49299D01*
X15927Y-49334D01*
X15947Y-49343D01*
X15972Y-49378D01*
X16081Y-49488D01*
X16091Y-49527D01*
X16121Y-49597D01*
X16131Y-49617D01*
X16151Y-49637D01*
X16201Y-49746D01*
X16221Y-49826D01*
X16231Y-49926D01*
X16236Y-50040D01*
X16226Y-50199D01*
X16206Y-50328D01*
X16121Y-50493D01*
X16091Y-50562D01*
X16071Y-50612D01*
X16032Y-50682D01*
X16007Y-50707D01*
X15992Y-50712D01*
X15987Y-50717D01*
X15942Y-50761D01*
X15932Y-50781D01*
X15907Y-50826D01*
X15892Y-50831D01*
X15882Y-50851D01*
X15748Y-50925D01*
X15718Y-50955D01*
X15698Y-50965D01*
X15609Y-51005D01*
X15529Y-51025D01*
X15355Y-51030D01*
X15256Y-51020D01*
X15196Y-51010D01*
X15141Y-50975D01*
X15091Y-50925D01*
X15002Y-50876D01*
X14967Y-50851D01*
X14957Y-50831D01*
X14927Y-50801D01*
X14917Y-50781D01*
X14848Y-50712D01*
X14838Y-50692D01*
X14808Y-50622D01*
X14793Y-50567D01*
X14783Y-50528D01*
X14733Y-50388D01*
X14708Y-50304D01*
X14703Y-50149D01*
X14723Y-50030D01*
X14733Y-49990D01*
X14753Y-49940D01*
X14768Y-49896D01*
X14778Y-49856D01*
X14798Y-49786D01*
X14848Y-49647D01*
X14867Y-49627D01*
X14877Y-49607D01*
X14927Y-49557D01*
X14967Y-49488D01*
X15012Y-49433D01*
X15096Y-49368D01*
X15106Y-49348D01*
X15131Y-49324D01*
X15151Y-49314D01*
X15241Y-49274D01*
X15305Y-49249D01*
X15355Y-49229D01*
X15370Y-49214D01*
X15484Y-49189D01*
X15579Y-49184D01*
X15609Y-49194D01*
D02*
G37*
D10*
X103150Y-2165D02*
X102411Y-1739D01*
Y-2592D01*
X103150Y-2165D01*
X107874Y17815D02*
X107136Y18241D01*
Y17389D01*
X107874Y17815D01*
X129902Y36595D02*
X129163Y37021D01*
Y36168D01*
X129902Y36595D01*
X89528Y36575D02*
X88789Y37001D01*
Y36149D01*
X89528Y36575D01*
D11*
X112205Y-7677D02*
X111760Y-6754D01*
X110761Y-6526D01*
X109959Y-7165D01*
Y-8190D01*
X110761Y-8829D01*
X111760Y-8601D01*
X112205Y-7677D01*
D12*
X185433Y7480D02*
Y12205D01*
X180709D02*
X185433D01*
X161024D02*
X165748D01*
X161024Y7480D02*
Y12205D01*
Y-12205D02*
Y-7480D01*
Y-12205D02*
X165748D01*
X180709D02*
X185433D01*
Y-7480D01*
D13*
X107087Y-29724D02*
Y-3740D01*
X121260Y-29724D02*
Y-3740D01*
X107087D02*
X121260D01*
X107087Y-29724D02*
X121260D01*
X10236Y-85630D02*
X43307D01*
Y-82677D01*
Y-11811D02*
Y-8858D01*
X10236D02*
X43307D01*
X-29520D02*
X-787D01*
X-29561Y-85630D02*
X-29520Y-8858D01*
X-29561Y-85630D02*
X0D01*
X110531Y16634D02*
X112894D01*
X110531Y7972D02*
X112894D01*
X110531D02*
Y16634D01*
X112894Y7972D02*
Y16634D01*
X132854Y35610D02*
X136791D01*
X132854Y23405D02*
X136791D01*
X132854D02*
Y35610D01*
X136791Y23405D02*
Y35610D01*
X92480Y35591D02*
X96417D01*
X92480Y23386D02*
X96417D01*
X92480D02*
Y35591D01*
X96417Y23386D02*
Y35591D01*
X-29561Y8858D02*
X0D01*
X-29561D02*
X-29520Y85630D01*
X-787D01*
X10236D02*
X43307D01*
Y82677D02*
Y85630D01*
Y8858D02*
Y11811D01*
X10236Y8858D02*
X43307D01*
X214764Y-1378D02*
Y1378D01*
X208465Y-1378D02*
Y1378D01*
X73590Y1849D02*
X76652Y-1213D01*
D14*
X130021Y39764D02*
X131858D01*
X130940Y40682D02*
Y38845D01*
X132776Y38386D02*
X133695D01*
X133235D01*
Y41141D01*
X132776Y40682D01*
X135072Y41141D02*
Y39305D01*
X135991Y38386D01*
X136909Y39305D01*
Y41141D01*
X139664Y38386D02*
X137827D01*
X139664Y40223D01*
Y40682D01*
X139205Y41141D01*
X138286D01*
X137827Y40682D01*
X89437Y39764D02*
X91274D01*
X90356Y40682D02*
Y38845D01*
X94029Y38386D02*
X92192D01*
X94029Y40223D01*
Y40682D01*
X93570Y41141D01*
X92651D01*
X92192Y40682D01*
X94947Y41141D02*
Y39305D01*
X95866Y38386D01*
X96784Y39305D01*
Y41141D01*
X99539D02*
X97702D01*
Y39764D01*
X98621Y40223D01*
X99080D01*
X99539Y39764D01*
Y38845D01*
X99080Y38386D01*
X98162D01*
X97702Y38845D01*
X68213Y-1071D02*
X69836Y553D01*
X69187Y-97D01*
X68862Y228D01*
X69511Y-421D01*
X69187Y-97D01*
X69836Y553D01*
X70486D01*
X70810Y-1071D02*
X69511Y-2369D01*
X70161Y-1720D01*
X70810D01*
X71460D01*
X71784Y-2045D01*
X72434Y-5292D02*
X71784Y-4642D01*
Y-3993D01*
X72434Y-3343D01*
X73083D01*
X73732Y-3993D01*
Y-4642D01*
X73408Y-4967D01*
X72109Y-3668D01*
X73732Y-6590D02*
X75356Y-4967D01*
X74706Y-5616D01*
X74382Y-5292D01*
X75031Y-5941D01*
X74706Y-5616D01*
X75356Y-4967D01*
X76005D01*
X66725Y-5480D02*
X66076Y-4831D01*
Y-4182D01*
X66725Y-3532D01*
X67375D01*
X68024Y-4182D01*
Y-4831D01*
X67699Y-5156D01*
X66401Y-3857D01*
X68998Y-5156D02*
Y-7753D01*
Y-6454D01*
X70297D01*
X67699D01*
X71596Y-7104D02*
X71271Y-7428D01*
X70946Y-7104D01*
X71596Y-7753D01*
X71271Y-7428D01*
X70297Y-8402D01*
Y-9052D01*
D15*
X-14174Y-32945D02*
Y-31895D01*
Y-32420D01*
X-16798D01*
X-17322Y-31895D01*
Y-31371D01*
X-16798Y-30846D01*
X-14174Y-33994D02*
X-17322D01*
Y-36094D01*
X-14698Y-39242D02*
X-14174Y-38717D01*
Y-37668D01*
X-14698Y-37143D01*
X-16798D01*
X-17322Y-37668D01*
Y-38717D01*
X-16798Y-39242D01*
X-14174Y-42391D02*
Y-41341D01*
Y-41866D01*
X-16798D01*
X-17322Y-41341D01*
Y-40816D01*
X-16798Y-40292D01*
X-14174Y-43440D02*
X-17322D01*
Y-45539D01*
X-14698Y-48688D02*
X-14174Y-48163D01*
Y-47113D01*
X-14698Y-46589D01*
X-16798D01*
X-17322Y-47113D01*
Y-48163D01*
X-16798Y-48688D01*
X-14174Y-51836D02*
Y-50787D01*
Y-51312D01*
X-16798D01*
X-17322Y-50787D01*
Y-50262D01*
X-16798Y-49737D01*
X-14174Y-52886D02*
X-17322D01*
Y-54985D01*
X-14698Y-58134D02*
X-14174Y-57609D01*
Y-56559D01*
X-14698Y-56035D01*
X-16798D01*
X-17322Y-56559D01*
Y-57609D01*
X-16798Y-58134D01*
X-14174Y-61282D02*
Y-60233D01*
Y-60757D01*
X-16798D01*
X-17322Y-60233D01*
Y-59708D01*
X-16798Y-59183D01*
X-14174Y-62332D02*
X-17322D01*
Y-64431D01*
X-14698Y-67579D02*
X-14174Y-67055D01*
Y-66005D01*
X-14698Y-65480D01*
X-16798D01*
X-17322Y-66005D01*
Y-67055D01*
X-16798Y-67579D01*
M02*
