G04*
G04 #@! TF.GenerationSoftware,Altium Limited,Altium Designer,23.9.2 (47)*
G04*
G04 Layer_Physical_Order=1*
G04 Layer_Color=255*
%FSLAX25Y25*%
%MOIN*%
G70*
G04*
G04 #@! TF.SameCoordinates,B9D28BA6-00D3-483F-BACE-1505689BD4AF*
G04*
G04*
G04 #@! TF.FilePolarity,Positive*
G04*
G01*
G75*
%ADD10C,0.00984*%
%ADD13C,0.00787*%
%ADD15C,0.00591*%
%ADD17C,0.02953*%
%ADD32C,0.01181*%
%ADD33R,0.02520X0.02520*%
%ADD34R,0.05709X0.01772*%
%ADD35R,0.15354X0.02402*%
%ADD36R,0.03347X0.01575*%
%ADD37R,0.03937X0.02362*%
%ADD38R,0.02165X0.02362*%
%ADD39R,0.02520X0.02520*%
%ADD40R,0.07087X0.05118*%
%ADD41R,0.07087X0.03937*%
G04:AMPARAMS|DCode=42|XSize=41.34mil|YSize=86.61mil|CornerRadius=0mil|HoleSize=0mil|Usage=FLASHONLY|Rotation=315.000|XOffset=0mil|YOffset=0mil|HoleType=Round|Shape=Rectangle|*
%AMROTATEDRECTD42*
4,1,4,-0.04524,-0.01601,0.01601,0.04524,0.04524,0.01601,-0.01601,-0.04524,-0.04524,-0.01601,0.0*
%
%ADD42ROTATEDRECTD42*%

G04:AMPARAMS|DCode=43|XSize=39.37mil|YSize=47.24mil|CornerRadius=0mil|HoleSize=0mil|Usage=FLASHONLY|Rotation=315.000|XOffset=0mil|YOffset=0mil|HoleType=Round|Shape=Rectangle|*
%AMROTATEDRECTD43*
4,1,4,-0.03062,-0.00278,0.00278,0.03062,0.03062,0.00278,-0.00278,-0.03062,-0.03062,-0.00278,0.0*
%
%ADD43ROTATEDRECTD43*%

%ADD44R,0.02362X0.02165*%
%ADD45C,0.01968*%
%ADD46C,0.15748*%
%ADD47C,0.23622*%
%ADD48C,0.02362*%
G36*
X25989Y-3136D02*
X25905Y-3165D01*
X25832Y-3215D01*
X25768Y-3285D01*
X25714Y-3375D01*
X25669Y-3484D01*
X25635Y-3614D01*
X25610Y-3763D01*
X25596Y-3933D01*
X25591Y-4122D01*
X24606D01*
X24601Y-3933D01*
X24587Y-3763D01*
X24562Y-3614D01*
X24528Y-3484D01*
X24483Y-3375D01*
X24429Y-3285D01*
X24365Y-3215D01*
X24291Y-3165D01*
X24208Y-3136D01*
X24114Y-3126D01*
X26083D01*
X25989Y-3136D01*
D02*
G37*
G36*
X22249D02*
X22165Y-3165D01*
X22092Y-3215D01*
X22028Y-3285D01*
X21973Y-3375D01*
X21929Y-3484D01*
X21895Y-3614D01*
X21870Y-3763D01*
X21855Y-3933D01*
X21850Y-4122D01*
X20866D01*
X20861Y-3933D01*
X20846Y-3763D01*
X20822Y-3614D01*
X20787Y-3484D01*
X20743Y-3375D01*
X20689Y-3285D01*
X20625Y-3215D01*
X20551Y-3165D01*
X20468Y-3136D01*
X20374Y-3126D01*
X22343D01*
X22249Y-3136D01*
D02*
G37*
G36*
X21854Y-6998D02*
X21864Y-7112D01*
X21881Y-7220D01*
X21904Y-7322D01*
X21934Y-7419D01*
X21971Y-7510D01*
X22014Y-7596D01*
X22065Y-7675D01*
X22121Y-7750D01*
X22185Y-7818D01*
X20531D01*
X20595Y-7750D01*
X20652Y-7675D01*
X20702Y-7596D01*
X20746Y-7510D01*
X20783Y-7419D01*
X20813Y-7322D01*
X20836Y-7220D01*
X20853Y-7112D01*
X20863Y-6998D01*
X20866Y-6879D01*
X21850D01*
X21854Y-6998D01*
D02*
G37*
G36*
X50749Y-7135D02*
X50837Y-7208D01*
X50925Y-7273D01*
X51014Y-7329D01*
X51104Y-7376D01*
X51194Y-7414D01*
X51285Y-7444D01*
X51377Y-7465D01*
X51470Y-7477D01*
X51563Y-7480D01*
X50394Y-8650D01*
X50390Y-8556D01*
X50378Y-8464D01*
X50357Y-8372D01*
X50328Y-8281D01*
X50289Y-8190D01*
X50242Y-8100D01*
X50186Y-8011D01*
X50122Y-7923D01*
X50049Y-7836D01*
X49966Y-7749D01*
X50662Y-7053D01*
X50749Y-7135D01*
D02*
G37*
G36*
X52759Y-8767D02*
X52771Y-8859D01*
X52792Y-8951D01*
X52822Y-9042D01*
X52860Y-9133D01*
X52907Y-9222D01*
X52963Y-9311D01*
X53028Y-9399D01*
X53101Y-9487D01*
X53183Y-9574D01*
X52487Y-10270D01*
X52400Y-10188D01*
X52313Y-10114D01*
X52225Y-10050D01*
X52136Y-9994D01*
X52046Y-9947D01*
X51956Y-9909D01*
X51864Y-9879D01*
X51773Y-9858D01*
X51680Y-9846D01*
X51587Y-9843D01*
X52756Y-8673D01*
X52759Y-8767D01*
D02*
G37*
G36*
X35142Y-16654D02*
X35132Y-16560D01*
X35102Y-16476D01*
X35052Y-16403D01*
X34983Y-16339D01*
X34893Y-16285D01*
X34784Y-16240D01*
X34654Y-16206D01*
X34505Y-16181D01*
X34335Y-16166D01*
X34146Y-16161D01*
Y-15177D01*
X34335Y-15172D01*
X34505Y-15157D01*
X34654Y-15133D01*
X34784Y-15098D01*
X34893Y-15054D01*
X34983Y-15000D01*
X35052Y-14936D01*
X35102Y-14862D01*
X35132Y-14778D01*
X35142Y-14685D01*
Y-16654D01*
D02*
G37*
G36*
Y-70748D02*
X35132Y-70654D01*
X35102Y-70571D01*
X35052Y-70497D01*
X34983Y-70433D01*
X34893Y-70379D01*
X34784Y-70335D01*
X34654Y-70300D01*
X34505Y-70276D01*
X34335Y-70261D01*
X34146Y-70256D01*
Y-69272D01*
X34335Y-69267D01*
X34505Y-69252D01*
X34654Y-69227D01*
X34784Y-69193D01*
X34893Y-69149D01*
X34983Y-69095D01*
X35052Y-69030D01*
X35102Y-68957D01*
X35132Y-68873D01*
X35142Y-68779D01*
Y-70748D01*
D02*
G37*
G36*
X14444Y7769D02*
X14387Y7695D01*
X14337Y7615D01*
X14294Y7530D01*
X14257Y7439D01*
X14227Y7342D01*
X14203Y7240D01*
X14187Y7132D01*
X14177Y7018D01*
X14173Y6899D01*
X13189D01*
X13186Y7018D01*
X13176Y7132D01*
X13159Y7240D01*
X13135Y7342D01*
X13105Y7439D01*
X13069Y7530D01*
X13025Y7615D01*
X12975Y7695D01*
X12918Y7769D01*
X12854Y7838D01*
X14508D01*
X14444Y7769D01*
D02*
G37*
G36*
X14178Y3933D02*
X14193Y3763D01*
X14218Y3614D01*
X14252Y3484D01*
X14296Y3375D01*
X14350Y3285D01*
X14414Y3215D01*
X14488Y3165D01*
X14572Y3136D01*
X14665Y3126D01*
X12697D01*
X12790Y3136D01*
X12874Y3165D01*
X12948Y3215D01*
X13012Y3285D01*
X13066Y3375D01*
X13110Y3484D01*
X13145Y3614D01*
X13169Y3763D01*
X13184Y3933D01*
X13189Y4122D01*
X14173D01*
X14178Y3933D01*
D02*
G37*
G36*
X30968Y1142D02*
X30899Y1205D01*
X30825Y1262D01*
X30745Y1312D01*
X30660Y1356D01*
X30569Y1393D01*
X30472Y1423D01*
X30370Y1446D01*
X30262Y1463D01*
X30148Y1473D01*
X30029Y1476D01*
Y2461D01*
X30148Y2464D01*
X30262Y2474D01*
X30370Y2491D01*
X30472Y2514D01*
X30569Y2544D01*
X30660Y2581D01*
X30745Y2625D01*
X30825Y2675D01*
X30899Y2732D01*
X30968Y2795D01*
Y1142D01*
D02*
G37*
G36*
X26167Y2859D02*
X26197Y2776D01*
X26247Y2702D01*
X26316Y2638D01*
X26406Y2584D01*
X26516Y2539D01*
X26645Y2505D01*
X26795Y2480D01*
X26964Y2466D01*
X27153Y2461D01*
Y1476D01*
X26964Y1471D01*
X26795Y1457D01*
X26645Y1432D01*
X26516Y1398D01*
X26406Y1353D01*
X26316Y1299D01*
X26247Y1235D01*
X26197Y1161D01*
X26167Y1078D01*
X26157Y984D01*
Y2953D01*
X26167Y2859D01*
D02*
G37*
G36*
X8870Y984D02*
X8860Y1078D01*
X8831Y1161D01*
X8782Y1235D01*
X8713Y1299D01*
X8624Y1353D01*
X8516Y1398D01*
X8388Y1432D01*
X8240Y1457D01*
X8073Y1471D01*
X7886Y1476D01*
Y2461D01*
X8073Y2466D01*
X8240Y2480D01*
X8388Y2505D01*
X8516Y2539D01*
X8624Y2584D01*
X8713Y2638D01*
X8782Y2702D01*
X8831Y2776D01*
X8860Y2859D01*
X8870Y2953D01*
Y984D01*
D02*
G37*
G36*
X20288Y799D02*
X20276Y802D01*
X20240Y805D01*
X19709Y813D01*
X19106Y814D01*
Y1995D01*
X19331Y2001D01*
X19532Y2019D01*
X19709Y2048D01*
X19862Y2090D01*
X19992Y2143D01*
X20099Y2208D01*
X20181Y2285D01*
X20240Y2373D01*
X20276Y2474D01*
X20288Y2586D01*
Y799D01*
D02*
G37*
G36*
X18978Y820D02*
X18890Y729D01*
X18742Y554D01*
X18682Y470D01*
X18631Y389D01*
X18589Y311D01*
X18557Y236D01*
X18535Y163D01*
X18521Y93D01*
X18517Y25D01*
X17348Y1194D01*
X17415Y1198D01*
X17486Y1212D01*
X17559Y1235D01*
X17634Y1267D01*
X17712Y1308D01*
X17793Y1359D01*
X17876Y1419D01*
X17963Y1488D01*
X18143Y1655D01*
X18978Y820D01*
D02*
G37*
G36*
X17324Y-1168D02*
X17257Y-1172D01*
X17187Y-1185D01*
X17114Y-1208D01*
X17039Y-1240D01*
X16960Y-1281D01*
X16879Y-1332D01*
X16796Y-1392D01*
X16710Y-1462D01*
X16529Y-1629D01*
X15933Y-1032D01*
Y-1969D01*
X15709Y-1974D01*
X15508Y-1992D01*
X15330Y-2022D01*
X15177Y-2063D01*
X15047Y-2116D01*
X14941Y-2181D01*
X14858Y-2258D01*
X14799Y-2347D01*
X14764Y-2447D01*
X14752Y-2559D01*
Y-799D01*
X14764Y-797D01*
X14799Y-795D01*
X15698Y-789D01*
X15782Y-702D01*
X15931Y-527D01*
X15991Y-443D01*
X16042Y-362D01*
X16083Y-284D01*
X16115Y-209D01*
X16138Y-136D01*
X16151Y-66D01*
X16155Y2D01*
X17324Y-1168D01*
D02*
G37*
G36*
X8882Y-2953D02*
X8872Y-2859D01*
X8842Y-2776D01*
X8793Y-2702D01*
X8723Y-2638D01*
X8633Y-2584D01*
X8524Y-2539D01*
X8394Y-2505D01*
X8245Y-2480D01*
X8075Y-2466D01*
X7886Y-2461D01*
Y-1476D01*
X8075Y-1471D01*
X8245Y-1457D01*
X8394Y-1432D01*
X8524Y-1398D01*
X8633Y-1353D01*
X8723Y-1299D01*
X8793Y-1235D01*
X8842Y-1161D01*
X8872Y-1078D01*
X8882Y-984D01*
Y-2953D01*
D02*
G37*
G36*
X35142Y77835D02*
X35132Y77928D01*
X35102Y78012D01*
X35052Y78086D01*
X34983Y78150D01*
X34893Y78204D01*
X34784Y78248D01*
X34654Y78282D01*
X34505Y78307D01*
X34335Y78322D01*
X34146Y78327D01*
Y79311D01*
X34335Y79316D01*
X34505Y79331D01*
X34654Y79355D01*
X34784Y79390D01*
X34893Y79434D01*
X34983Y79488D01*
X35052Y79552D01*
X35102Y79626D01*
X35132Y79710D01*
X35142Y79803D01*
Y77835D01*
D02*
G37*
G36*
X33983Y58047D02*
X34057Y57990D01*
X34137Y57940D01*
X34222Y57896D01*
X34313Y57859D01*
X34410Y57829D01*
X34512Y57806D01*
X34620Y57789D01*
X34734Y57779D01*
X34853Y57776D01*
Y56791D01*
X34734Y56788D01*
X34620Y56778D01*
X34512Y56761D01*
X34410Y56738D01*
X34313Y56708D01*
X34222Y56671D01*
X34137Y56627D01*
X34057Y56577D01*
X33983Y56520D01*
X33914Y56457D01*
Y58110D01*
X33983Y58047D01*
D02*
G37*
G36*
X36402Y56299D02*
X36392Y56393D01*
X36362Y56476D01*
X36312Y56550D01*
X36243Y56614D01*
X36153Y56668D01*
X36043Y56713D01*
X35914Y56747D01*
X35764Y56772D01*
X35595Y56786D01*
X35406Y56791D01*
Y57776D01*
X35595Y57780D01*
X35764Y57795D01*
X35914Y57820D01*
X36043Y57854D01*
X36153Y57899D01*
X36243Y57953D01*
X36312Y58017D01*
X36362Y58091D01*
X36392Y58174D01*
X36402Y58268D01*
Y56299D01*
D02*
G37*
G36*
X51718Y54159D02*
X51748Y54075D01*
X51798Y54001D01*
X51868Y53937D01*
X51957Y53883D01*
X52067Y53839D01*
X52196Y53804D01*
X52346Y53780D01*
X52515Y53765D01*
X52705Y53760D01*
Y52776D01*
X52515Y52771D01*
X52346Y52756D01*
X52196Y52731D01*
X52067Y52697D01*
X51957Y52653D01*
X51868Y52598D01*
X51798Y52534D01*
X51748Y52461D01*
X51718Y52377D01*
X51708Y52284D01*
Y54252D01*
X51718Y54159D01*
D02*
G37*
G36*
Y50143D02*
X51748Y50059D01*
X51798Y49985D01*
X51868Y49921D01*
X51957Y49867D01*
X52067Y49823D01*
X52196Y49788D01*
X52346Y49764D01*
X52515Y49749D01*
X52705Y49744D01*
Y48760D01*
X52515Y48755D01*
X52346Y48740D01*
X52196Y48715D01*
X52067Y48681D01*
X51957Y48637D01*
X51868Y48583D01*
X51798Y48519D01*
X51748Y48445D01*
X51718Y48361D01*
X51708Y48268D01*
Y50236D01*
X51718Y50143D01*
D02*
G37*
G36*
X36402Y44252D02*
X36392Y44346D01*
X36362Y44429D01*
X36312Y44503D01*
X36243Y44567D01*
X36153Y44621D01*
X36043Y44665D01*
X35914Y44700D01*
X35764Y44724D01*
X35595Y44739D01*
X35406Y44744D01*
Y45728D01*
X35595Y45733D01*
X35764Y45748D01*
X35914Y45773D01*
X36043Y45807D01*
X36153Y45851D01*
X36243Y45906D01*
X36312Y45970D01*
X36362Y46043D01*
X36392Y46127D01*
X36402Y46220D01*
Y44252D01*
D02*
G37*
G36*
Y40236D02*
X36392Y40330D01*
X36362Y40413D01*
X36312Y40487D01*
X36243Y40551D01*
X36153Y40605D01*
X36043Y40650D01*
X35914Y40684D01*
X35764Y40709D01*
X35595Y40723D01*
X35406Y40728D01*
Y41713D01*
X35595Y41717D01*
X35764Y41732D01*
X35914Y41757D01*
X36043Y41791D01*
X36153Y41836D01*
X36243Y41890D01*
X36312Y41954D01*
X36362Y42028D01*
X36392Y42111D01*
X36402Y42205D01*
Y40236D01*
D02*
G37*
G36*
X33983Y37968D02*
X34057Y37911D01*
X34137Y37861D01*
X34222Y37817D01*
X34313Y37780D01*
X34410Y37750D01*
X34512Y37727D01*
X34620Y37710D01*
X34734Y37700D01*
X34853Y37697D01*
Y36713D01*
X34734Y36709D01*
X34620Y36699D01*
X34512Y36683D01*
X34410Y36659D01*
X34313Y36629D01*
X34222Y36592D01*
X34137Y36549D01*
X34057Y36498D01*
X33983Y36441D01*
X33914Y36378D01*
Y38032D01*
X33983Y37968D01*
D02*
G37*
G36*
X36402Y36220D02*
X36392Y36314D01*
X36362Y36398D01*
X36312Y36471D01*
X36243Y36535D01*
X36153Y36590D01*
X36043Y36634D01*
X35914Y36668D01*
X35764Y36693D01*
X35595Y36708D01*
X35406Y36713D01*
Y37697D01*
X35595Y37702D01*
X35764Y37716D01*
X35914Y37741D01*
X36043Y37776D01*
X36153Y37820D01*
X36243Y37874D01*
X36312Y37938D01*
X36362Y38012D01*
X36392Y38096D01*
X36402Y38189D01*
Y36220D01*
D02*
G37*
G36*
X80506Y36311D02*
X80466Y36252D01*
X80431Y36184D01*
X80400Y36108D01*
X80374Y36024D01*
X80353Y35930D01*
X80336Y35829D01*
X80324Y35719D01*
X80319Y35579D01*
X80321Y35509D01*
X80339Y35307D01*
X80368Y35128D01*
X80409Y34972D01*
X80463Y34841D01*
X80528Y34734D01*
X80604Y34650D01*
X80693Y34591D01*
X80793Y34555D01*
X80905Y34543D01*
X78543D01*
X78655Y34555D01*
X78756Y34591D01*
X78844Y34650D01*
X78921Y34734D01*
X78986Y34841D01*
X79039Y34972D01*
X79081Y35128D01*
X79110Y35307D01*
X79128Y35509D01*
X79131Y35611D01*
X79113Y35829D01*
X79096Y35930D01*
X79075Y36024D01*
X79049Y36108D01*
X79018Y36184D01*
X78983Y36252D01*
X78943Y36311D01*
X78898Y36361D01*
X80551D01*
X80506Y36311D01*
D02*
G37*
G36*
X82414Y32059D02*
X82402Y32169D01*
X82366Y32267D01*
X82307Y32354D01*
X82225Y32430D01*
X82118Y32493D01*
X81988Y32545D01*
X81835Y32586D01*
X81693Y32609D01*
X81551Y32586D01*
X81397Y32545D01*
X81267Y32493D01*
X81161Y32430D01*
X81078Y32354D01*
X81020Y32267D01*
X80984Y32169D01*
X80972Y32059D01*
X80960Y34409D01*
X80973Y34297D01*
X81009Y34197D01*
X81069Y34108D01*
X81153Y34032D01*
X81260Y33967D01*
X81391Y33913D01*
X81546Y33872D01*
X81693Y33848D01*
X81840Y33872D01*
X81995Y33913D01*
X82126Y33967D01*
X82233Y34032D01*
X82317Y34108D01*
X82377Y34197D01*
X82413Y34297D01*
X82426Y34409D01*
X82414Y32059D01*
D02*
G37*
G36*
X33983Y33952D02*
X34057Y33895D01*
X34137Y33845D01*
X34222Y33802D01*
X34313Y33765D01*
X34410Y33735D01*
X34512Y33711D01*
X34620Y33694D01*
X34734Y33684D01*
X34853Y33681D01*
Y32697D01*
X34734Y32693D01*
X34620Y32684D01*
X34512Y32667D01*
X34410Y32643D01*
X34313Y32613D01*
X34222Y32576D01*
X34137Y32533D01*
X34057Y32483D01*
X33983Y32426D01*
X33914Y32362D01*
Y34016D01*
X33983Y33952D01*
D02*
G37*
G36*
X36402Y32205D02*
X36392Y32298D01*
X36362Y32382D01*
X36312Y32456D01*
X36243Y32520D01*
X36153Y32574D01*
X36043Y32618D01*
X35914Y32653D01*
X35764Y32677D01*
X35595Y32692D01*
X35406Y32697D01*
Y33681D01*
X35595Y33686D01*
X35764Y33701D01*
X35914Y33725D01*
X36043Y33760D01*
X36153Y33804D01*
X36243Y33858D01*
X36312Y33922D01*
X36362Y33996D01*
X36392Y34080D01*
X36402Y34173D01*
Y32205D01*
D02*
G37*
G36*
X28716Y26647D02*
X28659Y26573D01*
X28609Y26493D01*
X28565Y26408D01*
X28529Y26317D01*
X28498Y26220D01*
X28475Y26118D01*
X28458Y26010D01*
X28448Y25896D01*
X28445Y25777D01*
X27461D01*
X27457Y25896D01*
X27447Y26010D01*
X27430Y26118D01*
X27407Y26220D01*
X27377Y26317D01*
X27340Y26408D01*
X27297Y26493D01*
X27246Y26573D01*
X27190Y26647D01*
X27126Y26716D01*
X28780D01*
X28716Y26647D01*
D02*
G37*
G36*
X32723Y25488D02*
X32797Y25431D01*
X32877Y25381D01*
X32962Y25337D01*
X33053Y25300D01*
X33150Y25270D01*
X33252Y25247D01*
X33360Y25230D01*
X33474Y25220D01*
X33593Y25216D01*
Y24232D01*
X33474Y24229D01*
X33360Y24219D01*
X33252Y24202D01*
X33150Y24179D01*
X33053Y24149D01*
X32962Y24112D01*
X32877Y24068D01*
X32797Y24018D01*
X32723Y23961D01*
X32655Y23898D01*
Y25551D01*
X32723Y25488D01*
D02*
G37*
G36*
X35142Y23740D02*
X35132Y23834D01*
X35102Y23917D01*
X35052Y23991D01*
X34983Y24055D01*
X34893Y24109D01*
X34784Y24153D01*
X34654Y24188D01*
X34505Y24213D01*
X34335Y24227D01*
X34146Y24232D01*
Y25216D01*
X34335Y25221D01*
X34505Y25236D01*
X34654Y25261D01*
X34784Y25295D01*
X34893Y25340D01*
X34983Y25394D01*
X35052Y25458D01*
X35102Y25532D01*
X35132Y25615D01*
X35142Y25709D01*
Y23740D01*
D02*
G37*
G36*
X83671Y16794D02*
X83748Y16740D01*
X83829Y16692D01*
X83916Y16650D01*
X84009Y16615D01*
X84106Y16587D01*
X84209Y16564D01*
X84318Y16548D01*
X84432Y16539D01*
X84551Y16535D01*
X84598Y15551D01*
X84478Y15548D01*
X84364Y15537D01*
X84257Y15520D01*
X84155Y15495D01*
X84060Y15464D01*
X83970Y15426D01*
X83887Y15380D01*
X83809Y15328D01*
X83737Y15269D01*
X83672Y15203D01*
X83600Y16855D01*
X83671Y16794D01*
D02*
G37*
G36*
X91547Y33913D02*
X91571Y33907D01*
X91748Y33880D01*
X91949Y33864D01*
X92173Y33858D01*
Y32677D01*
X91949Y32671D01*
X91748Y32654D01*
X91571Y32624D01*
X91547Y32618D01*
Y32099D01*
X91536Y32208D01*
X91500Y32307D01*
X91441Y32394D01*
X91359Y32469D01*
X91272Y32520D01*
X91181Y32465D01*
X91098Y32388D01*
X91039Y32299D01*
X91004Y32199D01*
X90992Y32087D01*
Y32619D01*
X90969Y32625D01*
X90791Y32654D01*
X90591Y32671D01*
X90366Y32677D01*
Y33858D01*
X90591Y33864D01*
X90791Y33881D01*
X90969Y33910D01*
X90992Y33917D01*
Y34398D01*
X91004Y34295D01*
X91039Y34203D01*
X91098Y34122D01*
X91181Y34052D01*
X91261Y34008D01*
X91359Y34067D01*
X91441Y34142D01*
X91500Y34229D01*
X91536Y34327D01*
X91547Y34437D01*
Y33913D01*
D02*
G37*
G36*
X84910Y34297D02*
X84946Y34197D01*
X85006Y34108D01*
X85090Y34032D01*
X85197Y33967D01*
X85328Y33913D01*
X85483Y33872D01*
X85662Y33843D01*
X85864Y33825D01*
X85995Y33821D01*
X86122Y33825D01*
X86323Y33842D01*
X86500Y33871D01*
X86654Y33911D01*
X86784Y33964D01*
X86890Y34027D01*
X86973Y34102D01*
X87032Y34189D01*
X87067Y34288D01*
X87079Y34398D01*
Y32059D01*
X87067Y32169D01*
X87032Y32267D01*
X86973Y32354D01*
X86890Y32430D01*
X86784Y32493D01*
X86654Y32545D01*
X86500Y32586D01*
X86323Y32615D01*
X86122Y32632D01*
X85994Y32635D01*
X85866Y32632D01*
X85665Y32615D01*
X85488Y32586D01*
X85334Y32545D01*
X85204Y32493D01*
X85098Y32430D01*
X85016Y32354D01*
X84957Y32267D01*
X84921Y32169D01*
X84909Y32059D01*
X84897Y34409D01*
X84910Y34297D01*
D02*
G37*
G36*
X93628Y32963D02*
X93604Y32902D01*
X93607Y32825D01*
X93635Y32732D01*
X93689Y32624D01*
X93768Y32500D01*
X93874Y32359D01*
X94005Y32203D01*
X94344Y31844D01*
X93393Y31403D01*
X93220Y31571D01*
X92909Y31842D01*
X92771Y31945D01*
X92645Y32027D01*
X92530Y32087D01*
X92427Y32125D01*
X92336Y32142D01*
X92256Y32137D01*
X92189Y32111D01*
X93677Y33008D01*
X93628Y32963D01*
D02*
G37*
G36*
X91002Y26678D02*
X91031Y26594D01*
X91080Y26521D01*
X91149Y26457D01*
X91238Y26403D01*
X91346Y26358D01*
X91474Y26324D01*
X91622Y26299D01*
X91789Y26285D01*
X91976Y26280D01*
Y25295D01*
X91789Y25290D01*
X91622Y25276D01*
X91474Y25251D01*
X91346Y25217D01*
X91238Y25172D01*
X91149Y25118D01*
X91080Y25054D01*
X91031Y24980D01*
X91002Y24897D01*
X90992Y24803D01*
Y26772D01*
X91002Y26678D01*
D02*
G37*
G36*
X96961Y15059D02*
X96951Y15153D01*
X96921Y15236D01*
X96872Y15310D01*
X96803Y15374D01*
X96715Y15428D01*
X96606Y15472D01*
X96478Y15507D01*
X96331Y15531D01*
X96164Y15546D01*
X96062Y15549D01*
X95960Y15546D01*
X95791Y15531D01*
X95641Y15507D01*
X95512Y15472D01*
X95402Y15428D01*
X95313Y15374D01*
X95243Y15310D01*
X95193Y15236D01*
X95163Y15153D01*
X95153Y15059D01*
Y17028D01*
X95163Y16934D01*
X95193Y16850D01*
X95243Y16777D01*
X95313Y16713D01*
X95402Y16658D01*
X95512Y16614D01*
X95641Y16580D01*
X95791Y16555D01*
X95960Y16540D01*
X96062Y16538D01*
X96164Y16540D01*
X96331Y16555D01*
X96478Y16580D01*
X96606Y16614D01*
X96715Y16658D01*
X96803Y16713D01*
X96872Y16777D01*
X96921Y16850D01*
X96951Y16934D01*
X96961Y17028D01*
Y15059D01*
D02*
G37*
G36*
X92839D02*
X92829Y15153D01*
X92799Y15236D01*
X92749Y15310D01*
X92680Y15374D01*
X92590Y15428D01*
X92480Y15472D01*
X92351Y15507D01*
X92201Y15531D01*
X92032Y15546D01*
X91843Y15551D01*
Y16535D01*
X92032Y16540D01*
X92201Y16555D01*
X92351Y16580D01*
X92480Y16614D01*
X92590Y16658D01*
X92680Y16713D01*
X92749Y16777D01*
X92799Y16850D01*
X92829Y16934D01*
X92839Y17028D01*
Y15059D01*
D02*
G37*
G36*
X95163Y13194D02*
X95193Y13110D01*
X95243Y13036D01*
X95313Y12972D01*
X95402Y12918D01*
X95512Y12874D01*
X95641Y12840D01*
X95791Y12815D01*
X95960Y12800D01*
X96149Y12795D01*
Y11811D01*
X95960Y11806D01*
X95791Y11791D01*
X95641Y11767D01*
X95512Y11732D01*
X95402Y11688D01*
X95313Y11634D01*
X95243Y11570D01*
X95193Y11496D01*
X95163Y11412D01*
X95153Y11319D01*
Y13287D01*
X95163Y13194D01*
D02*
G37*
G36*
X96961Y7579D02*
X96951Y7672D01*
X96921Y7756D01*
X96872Y7830D01*
X96803Y7894D01*
X96715Y7948D01*
X96606Y7992D01*
X96478Y8027D01*
X96331Y8051D01*
X96164Y8066D01*
X96062Y8069D01*
X95960Y8066D01*
X95791Y8051D01*
X95641Y8027D01*
X95512Y7992D01*
X95402Y7948D01*
X95313Y7894D01*
X95243Y7830D01*
X95193Y7756D01*
X95163Y7672D01*
X95153Y7579D01*
Y9547D01*
X95163Y9454D01*
X95193Y9370D01*
X95243Y9296D01*
X95313Y9232D01*
X95402Y9178D01*
X95512Y9134D01*
X95641Y9099D01*
X95791Y9075D01*
X95960Y9060D01*
X96062Y9057D01*
X96164Y9060D01*
X96331Y9075D01*
X96478Y9099D01*
X96606Y9134D01*
X96715Y9178D01*
X96803Y9232D01*
X96872Y9296D01*
X96921Y9370D01*
X96951Y9454D01*
X96961Y9547D01*
Y7579D01*
D02*
G37*
G36*
X85359Y9447D02*
X85396Y9365D01*
X85465Y9292D01*
X85566Y9229D01*
X85698Y9176D01*
X85863Y9132D01*
X86059Y9099D01*
X86287Y9075D01*
X86838Y9055D01*
X86625Y8071D01*
X86352Y8066D01*
X85890Y8027D01*
X85700Y7993D01*
X85538Y7950D01*
X85403Y7897D01*
X85296Y7834D01*
X85217Y7761D01*
X85165Y7679D01*
X85140Y7587D01*
X85353Y9539D01*
X85359Y9447D01*
D02*
G37*
G36*
X92839Y7579D02*
X92829Y7672D01*
X92799Y7756D01*
X92749Y7830D01*
X92680Y7894D01*
X92590Y7948D01*
X92480Y7992D01*
X92351Y8027D01*
X92201Y8051D01*
X92032Y8066D01*
X91843Y8071D01*
Y9055D01*
X92032Y9060D01*
X92201Y9075D01*
X92351Y9099D01*
X92480Y9134D01*
X92590Y9178D01*
X92680Y9232D01*
X92749Y9296D01*
X92799Y9370D01*
X92829Y9454D01*
X92839Y9547D01*
Y7579D01*
D02*
G37*
G36*
X99815Y-8649D02*
X99805Y-8577D01*
X99776Y-8512D01*
X99727Y-8455D01*
X99658Y-8405D01*
X99569Y-8363D01*
X99461Y-8329D01*
X99333Y-8302D01*
X99185Y-8283D01*
X99018Y-8271D01*
X98831Y-8268D01*
Y-7283D01*
X99018Y-7280D01*
X99333Y-7249D01*
X99461Y-7222D01*
X99569Y-7188D01*
X99658Y-7146D01*
X99727Y-7096D01*
X99776Y-7039D01*
X99805Y-6974D01*
X99815Y-6902D01*
Y-8649D01*
D02*
G37*
G36*
Y-11208D02*
X99805Y-11136D01*
X99776Y-11071D01*
X99727Y-11014D01*
X99658Y-10964D01*
X99569Y-10922D01*
X99461Y-10888D01*
X99333Y-10861D01*
X99185Y-10842D01*
X99018Y-10830D01*
X98831Y-10827D01*
Y-9843D01*
X99018Y-9839D01*
X99333Y-9808D01*
X99461Y-9781D01*
X99569Y-9747D01*
X99658Y-9705D01*
X99727Y-9655D01*
X99776Y-9598D01*
X99805Y-9533D01*
X99815Y-9461D01*
Y-11208D01*
D02*
G37*
G36*
Y-13768D02*
X99805Y-13695D01*
X99776Y-13630D01*
X99727Y-13573D01*
X99658Y-13523D01*
X99569Y-13481D01*
X99461Y-13447D01*
X99333Y-13420D01*
X99185Y-13401D01*
X99018Y-13390D01*
X98831Y-13386D01*
Y-12402D01*
X99018Y-12398D01*
X99333Y-12367D01*
X99461Y-12341D01*
X99569Y-12306D01*
X99658Y-12264D01*
X99727Y-12214D01*
X99776Y-12157D01*
X99805Y-12092D01*
X99815Y-12020D01*
Y-13768D01*
D02*
G37*
G36*
Y-21445D02*
X99805Y-21372D01*
X99776Y-21307D01*
X99727Y-21250D01*
X99658Y-21200D01*
X99569Y-21158D01*
X99461Y-21124D01*
X99333Y-21097D01*
X99185Y-21078D01*
X99018Y-21067D01*
X98831Y-21063D01*
Y-20079D01*
X99018Y-20075D01*
X99333Y-20044D01*
X99461Y-20018D01*
X99569Y-19983D01*
X99658Y-19941D01*
X99727Y-19892D01*
X99776Y-19834D01*
X99805Y-19770D01*
X99815Y-19697D01*
Y-21445D01*
D02*
G37*
G36*
Y-26563D02*
X99805Y-26490D01*
X99776Y-26425D01*
X99727Y-26368D01*
X99658Y-26318D01*
X99569Y-26276D01*
X99461Y-26242D01*
X99333Y-26215D01*
X99185Y-26196D01*
X99018Y-26185D01*
X98831Y-26181D01*
Y-25197D01*
X99018Y-25193D01*
X99333Y-25163D01*
X99461Y-25136D01*
X99569Y-25101D01*
X99658Y-25059D01*
X99727Y-25010D01*
X99776Y-24952D01*
X99805Y-24888D01*
X99815Y-24815D01*
Y-26563D01*
D02*
G37*
G36*
X120918Y36374D02*
X120873Y36324D01*
X120832Y36265D01*
X120796Y36198D01*
X120765Y36122D01*
X120739Y36037D01*
X120717Y35944D01*
X120701Y35843D01*
X120689Y35733D01*
X120683Y35587D01*
X120685Y35509D01*
X120703Y35307D01*
X120732Y35128D01*
X120774Y34972D01*
X120827Y34841D01*
X120892Y34734D01*
X120968Y34650D01*
X121057Y34591D01*
X121158Y34555D01*
X121270Y34543D01*
X118907D01*
X119020Y34555D01*
X119120Y34591D01*
X119209Y34650D01*
X119285Y34734D01*
X119350Y34841D01*
X119404Y34972D01*
X119445Y35128D01*
X119474Y35307D01*
X119492Y35509D01*
X119495Y35631D01*
X119477Y35854D01*
X119461Y35956D01*
X119440Y36049D01*
X119414Y36134D01*
X119384Y36210D01*
X119349Y36278D01*
X119309Y36337D01*
X119265Y36388D01*
X120918Y36374D01*
D02*
G37*
G36*
X131904Y33936D02*
X131945Y33926D01*
X132122Y33900D01*
X132323Y33883D01*
X132547Y33878D01*
Y32697D01*
X132323Y32691D01*
X132122Y32673D01*
X131945Y32644D01*
X131911Y32635D01*
X131914Y32106D01*
X131901Y32219D01*
X131865Y32319D01*
X131805Y32408D01*
X131721Y32484D01*
X131638Y32535D01*
X131555Y32484D01*
X131472Y32408D01*
X131413Y32319D01*
X131378Y32219D01*
X131366Y32106D01*
Y32634D01*
X131328Y32644D01*
X131149Y32673D01*
X130947Y32691D01*
X130721Y32697D01*
Y33878D01*
X130945Y33884D01*
X131146Y33900D01*
X131323Y33928D01*
X131366Y33939D01*
Y34417D01*
X131378Y34315D01*
X131413Y34223D01*
X131472Y34142D01*
X131555Y34072D01*
X131629Y34031D01*
X131713Y34079D01*
X131796Y34152D01*
X131854Y34236D01*
X131890Y34331D01*
X131902Y34437D01*
X131904Y33936D01*
D02*
G37*
G36*
X122780Y32067D02*
X122768Y32179D01*
X122732Y32280D01*
X122672Y32368D01*
X122589Y32445D01*
X122482Y32510D01*
X122350Y32563D01*
X122195Y32604D01*
X122047Y32629D01*
X121899Y32604D01*
X121744Y32563D01*
X121613Y32510D01*
X121505Y32445D01*
X121422Y32368D01*
X121362Y32280D01*
X121326Y32179D01*
X121315Y32067D01*
Y34429D01*
X121326Y34317D01*
X121362Y34216D01*
X121422Y34128D01*
X121505Y34051D01*
X121613Y33986D01*
X121744Y33933D01*
X121899Y33892D01*
X122047Y33867D01*
X122195Y33892D01*
X122350Y33933D01*
X122482Y33986D01*
X122589Y34051D01*
X122672Y34128D01*
X122732Y34216D01*
X122768Y34317D01*
X122780Y34429D01*
Y32067D01*
D02*
G37*
G36*
X125264Y34317D02*
X125299Y34216D01*
X125359Y34128D01*
X125443Y34051D01*
X125550Y33986D01*
X125681Y33933D01*
X125836Y33892D01*
X126015Y33862D01*
X126218Y33845D01*
X126359Y33841D01*
X126496Y33844D01*
X126697Y33862D01*
X126874Y33891D01*
X127028Y33931D01*
X127158Y33983D01*
X127264Y34047D01*
X127347Y34122D01*
X127406Y34209D01*
X127441Y34307D01*
X127453Y34417D01*
Y32079D01*
X127441Y32189D01*
X127406Y32287D01*
X127347Y32374D01*
X127264Y32449D01*
X127158Y32513D01*
X127028Y32565D01*
X126874Y32605D01*
X126697Y32634D01*
X126496Y32652D01*
X126359Y32655D01*
X126218Y32652D01*
X126015Y32634D01*
X125836Y32604D01*
X125681Y32563D01*
X125550Y32510D01*
X125443Y32445D01*
X125359Y32368D01*
X125299Y32280D01*
X125264Y32179D01*
X125252Y32067D01*
Y34429D01*
X125264Y34317D01*
D02*
G37*
G36*
X133988Y32965D02*
X133969Y32906D01*
X133976Y32831D01*
X134007Y32740D01*
X134063Y32633D01*
X134144Y32511D01*
X134250Y32373D01*
X134537Y32049D01*
X134718Y31864D01*
X133787Y31403D01*
X133616Y31569D01*
X133175Y31941D01*
X133053Y32023D01*
X132942Y32083D01*
X132844Y32122D01*
X132758Y32139D01*
X132684Y32136D01*
X132622Y32111D01*
X134031Y33008D01*
X133988Y32965D01*
D02*
G37*
G36*
X131376Y26698D02*
X131405Y26614D01*
X131455Y26540D01*
X131523Y26476D01*
X131612Y26422D01*
X131720Y26378D01*
X131848Y26344D01*
X131996Y26319D01*
X132163Y26304D01*
X132350Y26299D01*
Y25315D01*
X132163Y25310D01*
X131996Y25295D01*
X131848Y25271D01*
X131720Y25236D01*
X131612Y25192D01*
X131523Y25138D01*
X131455Y25074D01*
X131405Y25000D01*
X131376Y24916D01*
X131366Y24823D01*
Y26791D01*
X131376Y26698D01*
D02*
G37*
G36*
X105721Y11528D02*
X105711Y11582D01*
X105681Y11630D01*
X105632Y11672D01*
X105563Y11709D01*
X105475Y11740D01*
X105366Y11766D01*
X105238Y11785D01*
X105091Y11800D01*
X104736Y11811D01*
Y12795D01*
X104923Y12798D01*
X105238Y12821D01*
X105366Y12841D01*
X105475Y12866D01*
X105563Y12897D01*
X105632Y12934D01*
X105681Y12977D01*
X105711Y13025D01*
X105721Y13079D01*
Y11528D01*
D02*
G37*
G36*
X208095Y3543D02*
X208083Y3655D01*
X208047Y3756D01*
X207987Y3844D01*
X207904Y3921D01*
X207797Y3986D01*
X207665Y4039D01*
X207510Y4081D01*
X207331Y4110D01*
X207129Y4128D01*
X206902Y4134D01*
Y5315D01*
X207129Y5321D01*
X207331Y5339D01*
X207510Y5368D01*
X207665Y5409D01*
X207797Y5463D01*
X207904Y5528D01*
X207987Y5604D01*
X208047Y5693D01*
X208083Y5793D01*
X208095Y5906D01*
Y3543D01*
D02*
G37*
G36*
X205315Y5793D02*
X205350Y5693D01*
X205409Y5604D01*
X205492Y5528D01*
X205598Y5463D01*
X205728Y5409D01*
X205882Y5368D01*
X206059Y5339D01*
X206260Y5321D01*
X206484Y5315D01*
Y4134D01*
X206260Y4128D01*
X206059Y4110D01*
X205882Y4081D01*
X205728Y4039D01*
X205598Y3986D01*
X205492Y3921D01*
X205409Y3844D01*
X205350Y3756D01*
X205315Y3655D01*
X205303Y3543D01*
Y5906D01*
X205315Y5793D01*
D02*
G37*
G36*
X208095Y-5906D02*
X208083Y-5793D01*
X208047Y-5693D01*
X207987Y-5604D01*
X207904Y-5528D01*
X207797Y-5463D01*
X207665Y-5409D01*
X207510Y-5368D01*
X207331Y-5339D01*
X207129Y-5321D01*
X206902Y-5315D01*
Y-4134D01*
X207129Y-4128D01*
X207331Y-4110D01*
X207510Y-4081D01*
X207665Y-4039D01*
X207797Y-3986D01*
X207904Y-3921D01*
X207987Y-3844D01*
X208047Y-3756D01*
X208083Y-3655D01*
X208095Y-3543D01*
Y-5906D01*
D02*
G37*
G36*
X205315Y-3655D02*
X205350Y-3756D01*
X205409Y-3844D01*
X205492Y-3921D01*
X205598Y-3986D01*
X205728Y-4039D01*
X205882Y-4081D01*
X206059Y-4110D01*
X206260Y-4128D01*
X206484Y-4134D01*
Y-5315D01*
X206260Y-5321D01*
X206059Y-5339D01*
X205882Y-5368D01*
X205728Y-5409D01*
X205598Y-5463D01*
X205492Y-5528D01*
X205409Y-5604D01*
X205350Y-5693D01*
X205315Y-5793D01*
X205303Y-5906D01*
Y-3543D01*
X205315Y-3655D01*
D02*
G37*
G36*
X128539Y-22417D02*
X128563Y-22484D01*
X128602Y-22543D01*
X128657Y-22594D01*
X128728Y-22638D01*
X128815Y-22673D01*
X128917Y-22701D01*
X129035Y-22720D01*
X129169Y-22732D01*
X129319Y-22736D01*
Y-23524D01*
X129169Y-23528D01*
X129035Y-23539D01*
X128917Y-23559D01*
X128815Y-23587D01*
X128728Y-23622D01*
X128657Y-23665D01*
X128602Y-23717D01*
X128563Y-23776D01*
X128539Y-23843D01*
X128531Y-23917D01*
Y-22343D01*
X128539Y-22417D01*
D02*
G37*
G36*
X133999Y-23957D02*
X133913Y-23874D01*
X133824Y-23801D01*
X133733Y-23736D01*
X133639Y-23679D01*
X133542Y-23632D01*
X133443Y-23593D01*
X133341Y-23563D01*
X133237Y-23541D01*
X133130Y-23528D01*
X133020Y-23524D01*
Y-22736D01*
X133130Y-22732D01*
X133237Y-22719D01*
X133341Y-22697D01*
X133443Y-22667D01*
X133542Y-22628D01*
X133639Y-22580D01*
X133733Y-22524D01*
X133824Y-22459D01*
X133913Y-22385D01*
X133999Y-22303D01*
Y-23957D01*
D02*
G37*
G36*
X128539Y-27535D02*
X128563Y-27602D01*
X128602Y-27661D01*
X128657Y-27713D01*
X128728Y-27756D01*
X128815Y-27791D01*
X128917Y-27819D01*
X129035Y-27839D01*
X129169Y-27850D01*
X129319Y-27854D01*
Y-28642D01*
X129169Y-28646D01*
X129035Y-28657D01*
X128917Y-28677D01*
X128815Y-28705D01*
X128728Y-28740D01*
X128657Y-28783D01*
X128602Y-28835D01*
X128563Y-28894D01*
X128539Y-28961D01*
X128531Y-29035D01*
Y-27461D01*
X128539Y-27535D01*
D02*
G37*
G36*
X133999Y-29075D02*
X133913Y-28993D01*
X133824Y-28919D01*
X133733Y-28854D01*
X133639Y-28798D01*
X133542Y-28750D01*
X133443Y-28711D01*
X133341Y-28681D01*
X133237Y-28659D01*
X133130Y-28646D01*
X133020Y-28642D01*
Y-27854D01*
X133130Y-27850D01*
X133237Y-27837D01*
X133341Y-27815D01*
X133443Y-27785D01*
X133542Y-27746D01*
X133639Y-27698D01*
X133733Y-27642D01*
X133824Y-27577D01*
X133913Y-27503D01*
X133999Y-27421D01*
Y-29075D01*
D02*
G37*
D10*
X145689Y25610D02*
Y29705D01*
X171260Y-26575D02*
X173228Y-24606D01*
Y0D01*
X165197Y-30512D02*
Y-26575D01*
Y-26575D02*
X171260D01*
X165197Y-22638D02*
Y-18701D01*
X167059Y-16405D02*
X167323Y-16142D01*
X165197Y-18701D02*
X167059Y-16838D01*
Y-16405D01*
X145689Y29705D02*
X149626D01*
X92224Y33268D02*
X93996Y31496D01*
X21260Y21654D02*
X63484Y-20571D01*
X21358Y-8661D02*
Y-1969D01*
Y-8681D02*
Y-8661D01*
X21260Y21654D02*
Y34252D01*
X63484Y-20571D02*
X102657D01*
X13681Y1969D02*
Y8681D01*
X25098Y1969D02*
X31811D01*
X30236Y-15669D02*
X42795D01*
X25098Y-10531D02*
Y-1969D01*
Y-10531D02*
X30236Y-15669D01*
X-5906Y-33465D02*
Y-5906D01*
X30394Y-69764D02*
X42795D01*
X-5906Y-33465D02*
X30394Y-69764D01*
X29606Y78819D02*
X42795D01*
X-5906Y5906D02*
Y43307D01*
X29606Y78819D01*
X-1969Y1969D02*
X9941D01*
X-5906Y5906D02*
X-1969Y1969D01*
X-5906Y-5906D02*
X-1969Y-1969D01*
X9941D01*
X31811Y24724D02*
X42795D01*
X60630Y-1181D02*
Y46850D01*
X44055Y53268D02*
X54213D01*
X60630Y46850D01*
X54291Y49252D02*
X57874Y45669D01*
X44055Y49252D02*
X54291D01*
X60630Y-1181D02*
X67224Y-7775D01*
X57874Y-2362D02*
X65846Y-10335D01*
X57874Y-2362D02*
Y45669D01*
X65846Y-10335D02*
X102657D01*
X67224Y-7775D02*
X102657D01*
X27953Y18504D02*
Y27559D01*
Y18504D02*
X59350Y-12894D01*
X102657D01*
X28228Y41221D02*
X44055D01*
X21260Y34252D02*
X28228Y41221D01*
X18898Y20472D02*
X65059Y-25689D01*
X102657D01*
X18898Y35433D02*
X28701Y45236D01*
X18898Y20472D02*
Y35433D01*
X28701Y45236D02*
X44055D01*
X33071Y57284D02*
X44055D01*
X33071Y37205D02*
X44055D01*
X33071Y33189D02*
X44055D01*
X93996Y27559D02*
Y31496D01*
X210827Y4724D02*
X211614Y5512D01*
X210827Y-4724D02*
X211614Y-5512D01*
X112205Y-5217D02*
X125689D01*
X102657D02*
X112205D01*
X112362Y-5059D01*
Y-984D01*
Y12067D02*
X115157Y14862D01*
X116043D01*
X112362Y-984D02*
Y12067D01*
X116043Y14862D02*
Y19685D01*
X116043Y19685D02*
X116043Y19685D01*
X105315Y5413D02*
Y8563D01*
X106496Y9744D01*
X101772Y8563D02*
X105315D01*
X106496Y9744D02*
X107382D01*
X101821Y19636D02*
X109852D01*
X101772Y19587D02*
X101821Y19636D01*
X109852D02*
X109901Y19685D01*
X101772Y16043D02*
Y19587D01*
X81226Y8391D02*
X81504Y8670D01*
X83592D01*
X83699Y8563D01*
X98032D01*
X83366Y16043D02*
X93996D01*
Y12303D02*
X107382D01*
X98032Y8563D02*
X98032Y8563D01*
X93996Y16043D02*
X98032D01*
X132598Y33287D02*
X134370Y31516D01*
Y27579D02*
Y31516D01*
X129449Y25807D02*
X132598D01*
X134370Y27579D01*
X120098Y29705D02*
X120177Y29626D01*
X129370D02*
X129449Y29547D01*
X145689Y29705D02*
X149626D01*
X145689Y25610D02*
Y29705D01*
X124035Y25610D02*
Y29626D01*
Y29705D01*
X120177Y29626D02*
X124035D01*
X129370D01*
X83661Y29606D02*
X88996D01*
X79803D02*
X83661D01*
Y29685D01*
Y25591D02*
Y29606D01*
X105315Y25591D02*
Y29685D01*
X109252D01*
X88996Y29606D02*
X89075Y29528D01*
X79724Y29685D02*
X79803Y29606D01*
X92224Y25787D02*
X93996Y27559D01*
X89075Y25787D02*
X92224D01*
X121161Y-7775D02*
X125689D01*
X119095Y-9843D02*
X121161Y-7775D01*
X70866Y11811D02*
X74634Y8043D01*
X72665D02*
X80878Y-169D01*
X115984Y-984D02*
X120079D01*
X119095Y-20669D02*
Y-17717D01*
Y-23622D02*
Y-20669D01*
X119193Y-20571D02*
X125689D01*
X119095Y-20669D02*
X119193Y-20571D01*
X119095Y-17717D02*
Y-9843D01*
Y-17717D02*
X119390Y-18012D01*
X125689D01*
Y-7775D02*
X125738Y-7726D01*
X121161Y-25689D02*
X125689D01*
X119095Y-23622D02*
X121161Y-25689D01*
X109252Y-23622D02*
Y-17717D01*
Y-26575D02*
Y-23622D01*
X108760Y-23130D02*
X109252Y-23622D01*
X102657Y-23130D02*
X108760D01*
X102657Y-18012D02*
X108957D01*
X109252Y-17717D01*
X107579Y-28248D02*
X109252Y-26575D01*
X106988Y-15453D02*
X109252Y-17717D01*
X102657Y-15453D02*
X106988D01*
X102657Y-28248D02*
X107579D01*
X125738Y-7726D02*
X130856D01*
X130905Y-7677D01*
X97146Y-28248D02*
X102657D01*
D13*
X125689Y-12894D02*
X134843D01*
X138779Y-12795D02*
Y0D01*
X125689Y-15453D02*
X136122D01*
X138779Y-12795D01*
X132382Y-10335D02*
X134843Y-7874D01*
X125689Y-10335D02*
X132382D01*
X166339Y12795D02*
X170276Y8858D01*
X134843Y9843D02*
X137795Y12795D01*
X166339D01*
X134843Y-7874D02*
Y9843D01*
X156496Y0D02*
X167323D01*
X170276Y2953D01*
X176181D02*
X179134Y0D01*
X170276Y-23130D02*
Y-8858D01*
X176181Y-28248D02*
Y-8858D01*
X170276Y14764D02*
X176181Y8858D01*
X127854Y9744D02*
X132874Y14764D01*
X170276D01*
X116043Y9744D02*
X127854D01*
X125689Y-28248D02*
X134843D01*
X125689Y-23130D02*
X134843D01*
D15*
X175205Y19685D02*
X174922Y20704D01*
X174154Y21431D01*
X173121Y21658D01*
X172119Y21320D01*
X171434Y20514D01*
X173726Y17772D02*
X174491Y18165D01*
X175017Y18845D01*
X175205Y19685D01*
X172138Y16921D02*
X173396Y17443D01*
X172138Y16921D02*
X173396Y17443D01*
X153164Y31528D02*
X154133Y31334D01*
X155074Y31633D01*
X155754Y32351D01*
X156000Y33307D01*
X155754Y34264D01*
X155074Y34981D01*
X154133Y35280D01*
X153164Y35087D01*
X214701Y11811D02*
X213583Y12106D01*
X212465Y11811D01*
X210764D02*
X209646Y12106D01*
X208528Y11811D01*
X171116Y15605D02*
X170276Y15953D01*
X171116Y15605D02*
X170276Y15953D01*
X135280Y26668D02*
X135658Y27579D01*
X135280Y26668D02*
X135658Y27579D01*
X132598Y24520D02*
X133509Y24897D01*
X121554Y35887D02*
X122075Y37224D01*
X121848Y38143D01*
X121221Y38851D01*
X120335Y39186D01*
X119396Y39072D01*
X118618Y38533D01*
X118179Y37695D01*
X118180Y36749D01*
X118621Y35912D01*
X112850Y34287D02*
X111870Y34693D01*
X114909Y31654D02*
X114503Y32634D01*
X114909Y31654D02*
X114503Y32634D01*
X112850Y34287D02*
X111870Y34693D01*
X81191Y35880D02*
X81701Y37205D01*
X132598Y24520D02*
X133509Y24897D01*
X121187Y17905D02*
X122156Y17711D01*
X123098Y18011D01*
X123777Y18728D01*
X124023Y19685D01*
X123777Y20641D01*
X123098Y21359D01*
X122156Y21658D01*
X121187Y21464D01*
X132874Y15953D02*
X132033Y15605D01*
X132874Y15953D02*
X132033Y15605D01*
X111452Y12977D02*
X111075Y12067D01*
X111452Y12977D02*
X111075Y12067D01*
X94906Y26649D02*
X95284Y27559D01*
X94906Y26649D02*
X95284Y27559D01*
X92224Y24500D02*
X93135Y24877D01*
X92224Y24500D02*
X93135Y24877D01*
X84063Y17507D02*
X83155Y17935D01*
X82153Y17862D01*
X81317Y17307D01*
X80862Y16412D01*
X80905Y15409D01*
X81435Y14557D01*
X82315Y14075D01*
X83319Y14087D01*
X84187Y14591D01*
X212465Y-11811D02*
X213583Y-12106D01*
X214701Y-11811D01*
X208528D02*
X209646Y-12106D01*
X210764Y-11811D01*
X160709Y-9625D02*
X160976Y-10430D01*
X161417Y-11154D01*
X160709Y-9625D02*
X160433Y-9600D01*
X165937Y-14733D02*
X165417Y-15619D01*
X165412Y-16646D01*
X162074Y-11811D02*
X162957Y-12321D01*
X163944Y-12574D01*
X164962Y-12551D01*
X165937Y-12254D01*
X160433Y-9600D02*
X159389Y-9738D01*
X158415Y-10141D01*
X157580Y-10782D01*
X156938Y-11618D01*
X156535Y-12591D01*
X156398Y-13636D01*
X174231Y-28568D02*
X174618Y-29458D01*
X175384Y-30056D01*
X176341Y-30218D01*
X177260Y-29904D01*
X177919Y-29190D01*
X178157Y-28248D01*
X171260Y-27862D02*
X171916Y-27683D01*
X171260Y-27862D02*
X171916Y-27683D01*
X178157Y-28248D02*
X177950Y-27366D01*
X177370Y-26669D01*
X138500Y-45874D02*
X139504Y-45846D01*
X140504Y-45761D01*
X141498Y-45621D01*
X142483Y-45425D01*
X143455Y-45175D01*
X144411Y-44870D01*
X145349Y-44512D01*
X146265Y-44102D01*
X147157Y-43641D01*
X148022Y-43131D01*
X148857Y-42573D01*
X149659Y-41969D01*
X150426Y-41322D01*
X151156Y-40632D01*
X151845Y-39902D01*
X152493Y-39135D01*
X153097Y-38333D01*
X153654Y-37498D01*
X154165Y-36634D01*
X154625Y-35742D01*
X155035Y-34825D01*
X155393Y-33887D01*
X155698Y-32931D01*
X155949Y-31959D01*
X156145Y-30974D01*
X156285Y-29980D01*
X156369Y-28980D01*
X156398Y-27976D01*
X127854Y8555D02*
X128695Y8903D01*
X127854Y8555D02*
X128695Y8903D01*
X81701Y37205D02*
X81473Y38125D01*
X80843Y38834D01*
X79955Y39168D01*
X79014Y39049D01*
X78237Y38506D01*
X77802Y37663D01*
X77810Y36715D01*
X78258Y35880D01*
X61917Y46850D02*
X61540Y47761D01*
X61917Y46850D02*
X61540Y47761D01*
X55123Y54178D02*
X54213Y54555D01*
X55123Y54178D02*
X54213Y54555D01*
X29606Y80106D02*
X28696Y79729D01*
X29606Y80106D02*
X28696Y79729D01*
X34404Y58743D02*
X33515Y59209D01*
X32511Y59179D01*
X31652Y58660D01*
X31159Y57785D01*
Y56782D01*
X31652Y55907D01*
X32511Y55388D01*
X33515Y55358D01*
X34404Y55824D01*
X28701Y46524D02*
X27790Y46147D01*
X28701Y46524D02*
X27790Y46147D01*
X-6816Y44217D02*
X-7193Y43307D01*
X-6816Y44217D02*
X-7193Y43307D01*
X34404Y34648D02*
X33515Y35115D01*
X32511Y35085D01*
X31652Y34565D01*
X31159Y33691D01*
Y32687D01*
X31652Y31813D01*
X32511Y31293D01*
X33515Y31263D01*
X34404Y31730D01*
X34404Y38664D02*
X33515Y39131D01*
X32511Y39100D01*
X31652Y38581D01*
X31159Y37707D01*
Y36703D01*
X31652Y35829D01*
X32511Y35309D01*
X33515Y35279D01*
X34404Y35745D01*
X33144Y26184D02*
X32255Y26650D01*
X31252Y26620D01*
X30393Y26101D01*
X29899Y25226D01*
Y24223D01*
X30393Y23348D01*
X31252Y22829D01*
X32255Y22798D01*
X33144Y23265D01*
X29412Y26226D02*
X29929Y27559D01*
X29701Y28481D01*
X29069Y29190D01*
X28180Y29522D01*
X27238Y29402D01*
X26461Y28856D01*
X26029Y28010D01*
X26040Y27061D01*
X26493Y26226D01*
X26665Y18504D02*
X26797Y17937D01*
X26665Y18504D02*
X26797Y17937D01*
X17987Y36343D02*
X17610Y35433D01*
X17987Y36343D02*
X17610Y35433D01*
Y20472D02*
X17987Y19562D01*
X17610Y20472D02*
X17987Y19562D01*
X15141Y7348D02*
X15657Y8681D01*
X15429Y9603D01*
X14798Y10312D01*
X13908Y10644D01*
X12966Y10524D01*
X12190Y9978D01*
X11757Y9132D01*
X11768Y8183D01*
X12222Y7348D01*
X-7193Y5906D02*
X-6816Y4995D01*
X-7193Y5906D02*
X-6816Y4995D01*
X64149Y-26599D02*
X65059Y-26976D01*
X64149Y-26599D02*
X65059Y-26976D01*
X77658Y-45874D02*
X76976Y-46555D01*
X68590Y-54941D02*
X69601Y-54880D01*
X70597Y-54697D01*
X71564Y-54396D01*
X72488Y-53980D01*
X73354Y-53456D01*
X74151Y-52832D01*
X74867Y-52116D01*
X75492Y-51319D01*
X76016Y-50452D01*
X76431Y-49529D01*
X76733Y-48562D01*
X76915Y-47566D01*
X76976Y-46555D01*
X54341Y-31171D02*
X53996Y-30876D01*
X54341Y-31171D02*
X53996Y-30876D01*
Y-55580D02*
X54341Y-55286D01*
X53996Y-55580D02*
X54341Y-55286D01*
X33787Y1969D02*
X33580Y2850D01*
X33002Y3546D01*
X32173Y3911D01*
X31269Y3869D01*
X30478Y3428D01*
X30478Y509D02*
X31269Y68D01*
X32173Y26D01*
X33002Y391D01*
X33580Y1087D01*
X33787Y1969D01*
X18728Y2791D02*
X17748Y2385D01*
X18728Y2791D02*
X17748Y2385D01*
X17436Y-1960D02*
X18353Y-1681D01*
X19031Y-1003D01*
X19310Y-86D01*
X16035Y-2761D02*
X16925Y-2358D01*
X17236Y1987D02*
X16246Y1662D01*
X15559Y878D01*
X16035Y-2761D02*
X16925Y-2358D01*
X23811Y-10531D02*
X24188Y-11442D01*
X23811Y-10531D02*
X24188Y-11442D01*
X23335Y-8661D02*
X22818Y-7329D01*
X19899Y-7329D02*
X19446Y-8163D01*
X19434Y-9113D01*
X19867Y-9958D01*
X20643Y-10504D01*
X21585Y-10625D01*
X22475Y-10292D01*
X23107Y-9583D01*
X23335Y-8661D01*
X-2879Y1058D02*
X-2288Y721D01*
X-2879Y1058D02*
X-2288Y721D01*
Y-721D02*
X-2879Y-1058D01*
X-2288Y-721D02*
X-2879Y-1058D01*
X-6816Y-4995D02*
X-7193Y-5906D01*
X-6816Y-4995D02*
X-7193Y-5906D01*
X29326Y-16580D02*
X30236Y-16957D01*
X29326Y-16580D02*
X30236Y-16957D01*
X-7193Y-33465D02*
X-6816Y-34375D01*
X-7193Y-33465D02*
X-6816Y-34375D01*
X29483Y-70674D02*
X30394Y-71051D01*
X29483Y-70674D02*
X30394Y-71051D01*
X198830Y99188D02*
X215330Y82688D01*
X201614Y99188D02*
X215330Y85472D01*
X193263Y99188D02*
X215330Y77121D01*
X196046Y99188D02*
X215330Y79905D01*
X187695Y99188D02*
X215330Y71553D01*
X190479Y99188D02*
X215330Y74337D01*
X184911Y99188D02*
X215330Y68769D01*
X182127Y99188D02*
X215330Y65985D01*
Y86614D02*
Y87438D01*
X176559Y99188D02*
X215330Y60417D01*
X179343Y99188D02*
X215330Y63201D01*
X170992Y99188D02*
X215330Y54850D01*
X173775Y99188D02*
X215330Y57634D01*
X168208Y99188D02*
X215330Y52066D01*
X206806Y98546D02*
X208329Y97915D01*
X205214Y98973D02*
X206806Y98546D01*
X208626Y97744D02*
X213886Y92484D01*
X208329Y97915D02*
X209756Y97091D01*
X203580Y99188D02*
X205214Y98973D01*
X202756Y99188D02*
X203580D01*
X204522Y99064D02*
X215206Y88380D01*
X214057Y92187D02*
X214688Y90664D01*
X213233Y93615D02*
X214057Y92187D01*
X215114Y89072D02*
X215330Y87438D01*
X214688Y90664D02*
X215114Y89072D01*
X211064Y96088D02*
X212230Y94922D01*
X209756Y97091D02*
X211064Y96088D01*
X212230Y94922D02*
X213233Y93615D01*
X167252Y24564D02*
X215330Y72642D01*
X165424Y99188D02*
X215330Y49282D01*
X215330Y11811D02*
X215330Y86614D01*
X167252Y21780D02*
X215330Y69858D01*
X150289Y15953D02*
X215330Y80994D01*
X164597Y24693D02*
X215330Y75426D01*
X153073Y15953D02*
X215330Y78210D01*
X173056Y13665D02*
X215330Y55939D01*
X174759Y20936D02*
X215330Y61507D01*
X176770Y11811D02*
X215330Y50371D01*
X174448Y12273D02*
X215330Y53155D01*
X168736Y20480D02*
X215330Y67074D01*
X172597Y21558D02*
X215330Y64290D01*
X171664Y15057D02*
X215330Y58723D01*
X159856Y99188D02*
X215330Y43714D01*
X162640Y99188D02*
X215330Y46498D01*
X154288Y99188D02*
X215330Y38146D01*
X157072Y99188D02*
X215330Y40930D01*
X151504Y99188D02*
X215330Y35363D01*
X150211Y35362D02*
X210992Y96143D01*
X148721Y99188D02*
X215330Y32579D01*
X182337Y11811D02*
X215330Y44803D01*
X179553Y11811D02*
X215330Y47587D01*
X185121Y11811D02*
X215330Y42019D01*
X155263Y34847D02*
X213525Y93109D01*
X152719Y35087D02*
X212371Y94738D01*
X155907Y32707D02*
X214447Y91246D01*
X122372Y35362D02*
X186198Y99188D01*
X121998Y37771D02*
X183414Y99188D01*
X127802Y35224D02*
X191766Y99188D01*
X125156Y35362D02*
X188982Y99188D01*
X120583Y39140D02*
X180630Y99188D01*
X108453Y35362D02*
X172278Y99188D01*
X111237Y35362D02*
X175062Y99188D01*
X147427Y35362D02*
X209376Y97311D01*
X144643Y35362D02*
X207528Y98247D01*
X141721Y35224D02*
X205416Y98919D01*
X138938Y35224D02*
X202901Y99188D01*
X136173Y35244D02*
X200117Y99188D01*
X133390Y35244D02*
X197333Y99188D01*
X130586Y35224D02*
X194550Y99188D01*
X84691Y99188D02*
X148517Y35362D01*
X83398D02*
X147223Y99188D01*
X90259Y99188D02*
X154169Y35278D01*
X87475Y99188D02*
X151301Y35362D01*
X81385Y36134D02*
X144440Y99188D01*
X81096Y38628D02*
X141656Y99188D01*
X81907Y99188D02*
X145733Y35362D01*
X105669D02*
X169495Y99188D01*
X105669Y35362D02*
X169495Y99188D01*
X97199Y35244D02*
X161143Y99188D01*
X94415Y35244D02*
X158359Y99188D01*
X91631Y35244D02*
X155575Y99188D01*
X88808Y35205D02*
X152791Y99188D01*
X132017Y99188D02*
X215330Y15875D01*
X134801Y99188D02*
X215330Y18659D01*
X129233Y99188D02*
X215330Y13092D01*
X126449Y99188D02*
X213532Y12106D01*
X118098Y99188D02*
X205475Y11811D01*
X115314Y99188D02*
X202691Y11811D01*
X120882Y99188D02*
X208259Y11811D01*
X143153Y99188D02*
X215330Y27011D01*
X145937Y99188D02*
X215330Y29795D01*
X147505Y15953D02*
X215330Y83778D01*
X144721Y15953D02*
X215330Y86562D01*
X137585Y99188D02*
X215330Y21443D01*
X140369Y99188D02*
X215330Y24227D01*
X141937Y15953D02*
X215102Y89118D01*
X101394Y99188D02*
X188771Y11811D01*
X98611Y99188D02*
X185987Y11811D01*
X106962Y99188D02*
X194339Y11811D01*
X104178Y99188D02*
X191555Y11811D01*
X95827Y99188D02*
X173357Y21657D01*
X79124Y99188D02*
X143225Y35087D01*
X93043Y99188D02*
X171532Y20699D01*
X109746Y99188D02*
X197123Y11811D01*
X112898Y34239D02*
X177846Y99188D01*
X112530Y99188D02*
X199907Y11811D01*
X102626Y35103D02*
X166711Y99188D01*
X99944Y35205D02*
X163927Y99188D01*
X85716Y34897D02*
X150007Y99188D01*
X167252Y22195D02*
X168967Y20480D01*
X167252Y20756D02*
Y24693D01*
Y20480D02*
X171400D01*
X166976Y20756D02*
X167252D01*
X163142Y24693D02*
X167252D01*
X166976Y20583D02*
X167252D01*
X173396Y17443D02*
X173726Y17772D01*
X167252Y16921D02*
X172138D01*
X163142Y16646D02*
X167252D01*
Y16921D01*
X155995Y33452D02*
X164754Y24693D01*
X155047Y31616D02*
X163142Y23521D01*
X151661Y31528D02*
X153164D01*
X151661Y31252D02*
Y31528D01*
X152351D02*
X163142Y20737D01*
Y20583D02*
X163417D01*
X163142Y20737D02*
X163296Y20583D01*
X163270D02*
X163417Y20730D01*
X163142Y16646D02*
Y20583D01*
Y20756D02*
X163417D01*
X163142D02*
Y24693D01*
X161424Y15953D02*
X163142Y17670D01*
X199041Y11811D02*
X215330Y28100D01*
X196257Y11811D02*
X215330Y30884D01*
X204608Y11811D02*
X215330Y22532D01*
X201824Y11811D02*
X215330Y25316D01*
X190689Y11811D02*
X215330Y36452D01*
X187905Y11811D02*
X215330Y39235D01*
X193473Y11811D02*
X215330Y33668D01*
X213227Y12078D02*
X215330Y14181D01*
X214701Y11811D02*
X215330D01*
X214701D02*
X215330D01*
X207392D02*
X215330Y19748D01*
X210357Y11992D02*
X215330Y16964D01*
X210764Y11811D02*
X212465D01*
X166992Y15953D02*
X167960Y16921D01*
X164450Y16646D02*
X165143Y15953D01*
X169742Y16921D02*
X170869Y15794D01*
X169776Y15953D02*
X170744Y16921D01*
X158640Y15953D02*
X163142Y20454D01*
X155856Y15953D02*
X163142Y23238D01*
X164208Y15953D02*
X164901Y16646D01*
X174910Y11811D02*
X208528D01*
X210764D02*
X212465D01*
X167233Y16646D02*
X167926Y15953D01*
X151661Y35087D02*
Y35362D01*
X147724D02*
X151661D01*
Y35087D02*
X153164D01*
X147724Y35087D02*
Y35362D01*
X143614D02*
X147551D01*
X143614Y35087D02*
Y35362D01*
X147551Y35087D02*
Y35362D01*
Y31252D02*
Y31528D01*
X143614Y31252D02*
X147551D01*
X147724D02*
X151661D01*
X147724D02*
Y31528D01*
X143614Y31252D02*
Y31528D01*
X143000D02*
X143614D01*
X142593Y27744D02*
X146101Y31252D01*
X143000Y35087D02*
X143614D01*
X138591Y35224D02*
X143000D01*
X139809Y27744D02*
X143592Y31528D01*
X143000Y31272D02*
Y31528D01*
X134850Y35244D02*
X138591D01*
X131916D02*
X134835D01*
X135658Y27579D02*
Y31291D01*
X137472Y27744D02*
X143000D01*
X137472Y31272D02*
X143000D01*
X138688D02*
X142216Y27744D01*
X135658Y29160D02*
X137769Y31272D01*
X135658Y31291D02*
X137472D01*
X135884D02*
X139432Y27744D01*
X149843Y31252D02*
X163142Y17954D01*
X143000Y25367D02*
X148885Y31252D01*
X147059D02*
X162359Y15953D01*
X144275Y31252D02*
X159575Y15953D01*
X139153D02*
X154624Y31424D01*
X136369Y15953D02*
X151944Y31528D01*
X141472Y31272D02*
X156791Y15953D01*
X140601Y23791D02*
X148439Y15953D01*
X143000Y23791D02*
Y27744D01*
Y26960D02*
X154007Y15953D01*
X143000Y24176D02*
X151223Y15953D01*
X132874D02*
X170276D01*
X137472Y23791D02*
X143000D01*
X137817D02*
X145655Y15953D01*
X135658Y28734D02*
X137472Y26919D01*
Y23791D02*
Y27744D01*
X135110Y26498D02*
X137472Y24136D01*
X133509Y24897D02*
X135280Y26668D01*
X133718Y25106D02*
X142871Y15953D01*
X137472Y24136D02*
X137817Y23791D01*
X133585Y15953D02*
X141424Y23791D01*
X129465D02*
X137304Y15953D01*
X126681Y23791D02*
X134520Y15953D01*
X132173Y23867D02*
X140088Y15953D01*
X131095Y35244D02*
X131880D01*
X122134Y35362D02*
X126071D01*
X126646Y34675D02*
Y35224D01*
X126071Y34675D02*
Y35362D01*
X122028Y36796D02*
X123462Y35362D01*
X131095Y35224D02*
X131348D01*
X127471D02*
X131095D01*
X132173Y31291D02*
X132688D01*
X127471Y31272D02*
X132173D01*
X126646Y35224D02*
X127435D01*
X126646Y31272D02*
Y31821D01*
Y31272D02*
X127435D01*
X121515Y35362D02*
X121961D01*
X118024D02*
X118662D01*
X114290Y32847D02*
X118182Y36740D01*
X111307Y34693D02*
X111870D01*
X107370Y35362D02*
X111307D01*
X103260D02*
X107197D01*
X111307Y34693D02*
Y35362D01*
X112850Y34287D02*
X114503Y32634D01*
X103260Y31252D02*
X107197D01*
X111307D02*
Y31910D01*
X130336Y31272D02*
X133083Y28525D01*
X132688Y31291D02*
X133071Y30968D01*
X128674Y27744D02*
X132221Y31291D01*
X127552Y31272D02*
X131080Y27744D01*
X116826Y21464D02*
X126646Y31284D01*
X126071Y31252D02*
Y31821D01*
X119610Y21464D02*
X129417Y31272D01*
X133083Y28112D02*
Y30957D01*
X122134Y31252D02*
X126071D01*
X131457Y27744D02*
X133083Y29369D01*
X124788Y31252D02*
X128296Y27744D01*
X119221Y31252D02*
X126646Y23827D01*
X122004Y31252D02*
X126646Y26611D01*
X114909Y29996D02*
X130667Y14238D01*
X118024Y31252D02*
Y35362D01*
X111307Y31910D02*
X112137Y31080D01*
X114909Y30683D02*
X118024Y33797D01*
X114909Y21740D02*
Y31654D01*
X110869Y31252D02*
X112137Y29984D01*
X107370Y31252D02*
X111307D01*
X108085D02*
X112137Y27200D01*
X118024Y31252D02*
X121961D01*
X114909Y25115D02*
X121046Y31252D01*
X114909Y22331D02*
X123830Y31252D01*
X114909Y27899D02*
X118262Y31252D01*
X105301D02*
X112137Y24416D01*
Y21740D02*
Y31080D01*
X102626Y34673D02*
Y35205D01*
X98236D02*
X102626D01*
X103260Y34673D02*
Y35362D01*
X102626Y34673D02*
X103260D01*
X91565Y35244D02*
X94480D01*
X90740D02*
X91529D01*
X94496D02*
X98236D01*
X102626Y31902D02*
X103260D01*
X95284Y31291D02*
X97098D01*
X102626Y31252D02*
Y31902D01*
X97098Y31252D02*
X102626D01*
X91799Y31291D02*
X92290D01*
X91565D02*
X91799D01*
X87097Y31252D02*
X91799D01*
X81779Y35362D02*
X85716D01*
X86272Y34655D02*
Y35205D01*
X85716Y34655D02*
Y35362D01*
X81151D02*
X81606D01*
X77830D02*
X78289Y35821D01*
X81189Y35877D02*
X81704Y35362D01*
X90740Y35205D02*
X90974D01*
X87097D02*
X90740D01*
X86272Y31252D02*
X87061D01*
X86272Y35205D02*
X87061D01*
X86272Y31252D02*
Y31802D01*
X80994Y31252D02*
X81606D01*
X103260D02*
Y31902D01*
X96910Y31291D02*
X100477Y27724D01*
X98031D02*
X101559Y31252D01*
X98031Y27724D02*
X101559Y31252D01*
X95284Y27761D02*
X98775Y31252D01*
X95284Y30544D02*
X96030Y31291D01*
X95284Y27559D02*
Y31291D01*
X102626Y26752D02*
X107126Y31252D01*
X100815Y27724D02*
X104342Y31252D01*
X102517Y31252D02*
X112029Y21740D01*
X102626Y23968D02*
X109910Y31252D01*
X99733Y31252D02*
X111468Y19517D01*
X95284Y30134D02*
X97693Y27724D01*
X99462Y18020D02*
X112137Y30695D01*
X91382Y31252D02*
X92709Y29925D01*
X85716Y31349D02*
X89342Y27724D01*
X88598Y31252D02*
X92233Y27617D01*
X86896Y27724D02*
X90423Y31252D01*
X82428Y31252D02*
X84895D01*
X81779D02*
X82392D01*
X85716D02*
Y31802D01*
X92709Y28092D02*
Y30937D01*
X92399Y31211D02*
X92671Y30974D01*
X89679Y27724D02*
X92709Y30754D01*
X83030Y31252D02*
X86558Y27724D01*
X84931Y31252D02*
X85716D01*
X80246D02*
X86272Y25227D01*
X132173Y27203D02*
X133083Y28112D01*
X126646Y27744D02*
X132173D01*
Y27203D02*
Y27744D01*
X122531Y21601D02*
X126646Y25716D01*
Y23791D02*
Y27744D01*
X114909Y27212D02*
X120656Y21464D01*
X132173Y23791D02*
Y24497D01*
X126646Y23791D02*
X132173D01*
X123946Y20233D02*
X127505Y23791D01*
X116043Y21464D02*
X121187D01*
X117331Y17905D02*
X121187D01*
X111534Y21740D02*
X112137Y22343D01*
X111468Y21740D02*
X112137D01*
X114909Y24428D02*
X117873Y21464D01*
X114909Y21740D02*
X115578D01*
X102626Y23772D02*
Y27724D01*
X102430Y23772D02*
X102626Y23968D01*
X111468Y17630D02*
Y21740D01*
X115578Y21464D02*
X116043D01*
X115578D02*
Y21740D01*
X114590Y16445D02*
X114756Y16610D01*
X111468Y17630D02*
X114756D01*
X113356D02*
X114541Y16445D01*
X113575D02*
X114756D01*
X117374D02*
X118835Y17905D01*
X117331Y16445D02*
Y17905D01*
X123626Y18495D02*
X129275Y12846D01*
X118512Y14799D02*
X121499Y17786D01*
X114756Y16445D02*
Y17630D01*
X102626Y25576D02*
X113338Y14863D01*
X109850Y14489D02*
X112991Y17630D01*
X117331Y16445D02*
X118512D01*
Y13280D02*
Y16445D01*
X115395Y13280D02*
X118512D01*
X113575Y15100D02*
Y16445D01*
X111452Y12977D02*
X113575Y15100D01*
X109023Y16445D02*
X111468Y18890D01*
X106239Y16445D02*
X111468Y21674D01*
X109850Y15567D02*
X111946Y13472D01*
X109850Y13886D02*
Y16445D01*
X104913D02*
X109850D01*
X104913Y13886D02*
Y16445D01*
X103384Y13590D02*
X104913Y15120D01*
X109850Y13280D02*
Y13886D01*
X104913Y13610D02*
Y13886D01*
Y13610D02*
Y13886D01*
X109850Y13280D02*
Y13886D01*
X97098Y27724D02*
X102626D01*
X97098Y23772D02*
Y27724D01*
X95269Y27365D02*
X97098Y25535D01*
X90510Y23772D02*
X96263Y18020D01*
X92529Y24537D02*
X99046Y18020D01*
X97098Y23772D02*
X102626D01*
X96153Y18020D02*
X99910D01*
X96678D02*
X102430Y23772D01*
X96153Y17354D02*
Y18020D01*
X93796Y17921D02*
X99646Y23772D01*
X92020Y17921D02*
X95972D01*
Y17353D02*
Y17921D01*
X93135Y24877D02*
X94906Y26649D01*
X91799Y27183D02*
Y27724D01*
Y27183D02*
X92709Y28092D01*
X86272Y27724D02*
X91799D01*
X86272Y23772D02*
Y27724D01*
X91799Y24276D02*
X92010Y24488D01*
X91799Y23772D02*
Y24477D01*
X92020Y17353D02*
Y17921D01*
X86272Y23772D02*
X91799D01*
X82706Y17967D02*
X88511Y23772D01*
X87727D02*
X93577Y17921D01*
X101646Y23772D02*
X108973Y16445D01*
X98862Y23772D02*
X106189Y16445D01*
X100601Y13590D02*
X112137Y25127D01*
X99910Y15683D02*
X112137Y27911D01*
X90421Y17331D02*
X97098Y24008D01*
X87637Y17331D02*
X97098Y26792D01*
X94054Y25796D02*
X104913Y14936D01*
X99910Y14067D02*
Y18020D01*
X97817Y13590D02*
X98293Y14067D01*
X99910Y17156D02*
X103475Y13590D01*
X99910Y14373D02*
X100692Y13590D01*
X96238D02*
X104652D01*
X96153Y14067D02*
X99910D01*
X97431D02*
X97908Y13590D01*
X96008Y17350D02*
X96153Y17495D01*
X84854Y17331D02*
X91294Y23772D01*
X87637Y17331D02*
X97098Y26792D01*
X91175Y14756D02*
X92020Y13911D01*
X84695Y14756D02*
X91754D01*
X84640Y17331D02*
X91754D01*
X96153Y14067D02*
Y14733D01*
X95972Y13613D02*
Y14165D01*
Y13613D02*
Y14165D01*
Y14530D02*
X96153Y14711D01*
X92020Y14181D02*
Y14733D01*
X95972Y14181D02*
Y14733D01*
X177370Y-11811D02*
X208528D01*
X175200Y19814D02*
X183204Y11811D01*
X177370Y-15427D02*
X180986Y-11811D01*
X177370Y-12643D02*
X178202Y-11811D01*
X174242Y17988D02*
X180420Y11811D01*
X172490Y16957D02*
X177636Y11811D01*
X174910D02*
X208528D01*
X215177Y-11811D02*
X215330Y-11963D01*
X214701Y-11811D02*
X215330D01*
X212393D02*
X215330Y-14747D01*
X210764Y-11811D02*
X212465D01*
X209891Y-12093D02*
X215330Y-17531D01*
X171116Y15605D02*
X174910Y11811D01*
X161417Y-11811D02*
X162074D01*
X161417D02*
Y-11154D01*
X160088Y-9615D02*
X161047Y-10574D01*
X158060Y-10372D02*
X164334Y-16646D01*
X165937Y-14733D02*
Y-12254D01*
X165635Y-12378D02*
X165937Y-12681D01*
X165016Y-16646D02*
X165354Y-16308D01*
X162654Y-12182D02*
X165617Y-15144D01*
X163142Y-16646D02*
X165412D01*
X204042Y-11811D02*
X215330Y-23099D01*
X206826Y-11811D02*
X215330Y-20315D01*
X198474Y-11811D02*
X215330Y-28667D01*
X201258Y-11811D02*
X215330Y-25883D01*
X192906Y-11811D02*
X215330Y-34234D01*
X195690Y-11811D02*
X215330Y-31451D01*
X190122Y-11811D02*
X215330Y-37018D01*
X184555Y-11811D02*
X215330Y-42586D01*
X187338Y-11811D02*
X215330Y-39802D01*
X215330Y-86614D02*
X215330Y-11811D01*
X181771D02*
X215330Y-45370D01*
X178987Y-11811D02*
X215330Y-48154D01*
X177370Y-21330D02*
X215330Y-59289D01*
X177370Y-24114D02*
X215330Y-62073D01*
X177370Y-23779D02*
X189338Y-11811D01*
X177370Y-20995D02*
X186554Y-11811D01*
X178128Y-28589D02*
X194906Y-11811D01*
X177370Y-26563D02*
X192122Y-11811D01*
X177370Y-18211D02*
X183770Y-11811D01*
X156795Y-11890D02*
X163142Y-18237D01*
X177370Y-26669D02*
Y-11811D01*
Y-15762D02*
X215330Y-53721D01*
X177370Y-12978D02*
X215330Y-50938D01*
X177370Y-18546D02*
X215330Y-56505D01*
X163142Y-24520D02*
Y-20756D01*
Y-20583D02*
Y-16646D01*
Y-28457D02*
Y-24693D01*
X125782Y10933D02*
X138640Y23791D01*
X127990Y8563D02*
X133653Y2900D01*
Y-7382D02*
Y9506D01*
X125214Y8555D02*
X133653Y116D01*
X123665Y99188D02*
X211042Y11811D01*
X120214Y10933D02*
X140553Y31272D01*
X122998Y10933D02*
X137472Y25408D01*
X128017Y-3535D02*
X133653Y2101D01*
X125233Y-3535D02*
X133653Y4885D01*
X128466Y-8653D02*
X133653Y-3466D01*
X129339Y-4997D02*
X133653Y-682D01*
X122449Y-3535D02*
X133653Y7669D01*
X122430Y8555D02*
X133653Y-2668D01*
X119646Y8555D02*
X133653Y-5452D01*
X129236Y9444D02*
X133653Y9506D01*
X127362Y10933D02*
X132033Y15605D01*
X129884Y9453D02*
X133653Y5683D01*
X132629Y9492D02*
X133653Y8467D01*
X117824Y11327D02*
X130289Y23791D01*
X116487Y-3929D02*
X129869Y9453D01*
X119271Y-3929D02*
X132693Y9493D01*
X129339Y-3921D02*
X133226Y-7809D01*
X129339Y-6705D02*
X131779Y-9146D01*
X129339D02*
X131889D01*
X128953Y-3535D02*
X129339Y-3921D01*
X122039Y-3535D02*
X129339D01*
X122039Y-6898D02*
X129339D01*
X121448Y-99188D02*
X208725Y-11911D01*
X118664Y-99188D02*
X206041Y-11811D01*
X127016Y-99188D02*
X214177Y-12027D01*
X124232Y-99188D02*
X211609Y-11811D01*
X113097Y-99188D02*
X200473Y-11811D01*
X110313Y-99188D02*
X197690Y-11811D01*
X115881Y-99188D02*
X203257Y-11811D01*
X156398Y-22480D02*
X165937Y-12941D01*
X156398Y-19696D02*
X163580Y-12514D01*
X140936Y-99188D02*
X215330Y-24794D01*
X138152Y-99188D02*
X215330Y-22010D01*
X132584Y-99188D02*
X215330Y-16442D01*
X129800Y-99188D02*
X215330Y-13658D01*
X135368Y-99188D02*
X215330Y-19226D01*
X156398Y-16913D02*
X161499Y-11811D01*
X156398Y-14129D02*
X160746Y-9781D01*
X156398Y-14277D02*
X163142Y-21021D01*
X156398Y-27976D02*
Y-13636D01*
X131889Y-9146D02*
X133653Y-7382D01*
X130758Y-9146D02*
X133653Y-6250D01*
X156398Y-19845D02*
X163142Y-26589D01*
X156398Y-25264D02*
X163142Y-18520D01*
X156398Y-22628D02*
X163142Y-29372D01*
X156397Y-28048D02*
X163142Y-21304D01*
X156398Y-17061D02*
X163142Y-23805D01*
X156122Y-31108D02*
X163142Y-24088D01*
X178035Y-27562D02*
X215330Y-64857D01*
X173472Y-28568D02*
X215330Y-70425D01*
X177451Y-29762D02*
X215330Y-67641D01*
X167252Y-27915D02*
X215330Y-75993D01*
X169983Y-27862D02*
X215330Y-73209D01*
X167252Y-30699D02*
X215330Y-78777D01*
X215114Y-89072D02*
X215330Y-87438D01*
X215330Y-86614D02*
X215330Y-87438D01*
X214688Y-90664D02*
X215114Y-89072D01*
X214057Y-92187D02*
X214688Y-90664D01*
X163552Y-32567D02*
X215330Y-84344D01*
X166336Y-32567D02*
X215330Y-81560D01*
X213233Y-93615D02*
X214057Y-92187D01*
X171916Y-27683D02*
X172707Y-28474D01*
X167252Y-28329D02*
X167719Y-27862D01*
X167252Y-28457D02*
Y-27862D01*
Y-31113D02*
X170503Y-27862D01*
X172707Y-28474D02*
X172933Y-28568D01*
X167252Y-27862D02*
X171260D01*
X172933Y-28568D02*
X174231D01*
X167252Y-32567D02*
Y-28630D01*
X163142Y-32156D02*
X163552Y-32567D01*
X163142D02*
Y-28630D01*
Y-32567D02*
X167252D01*
X171558Y-99188D02*
X215330Y-55416D01*
X165990Y-99188D02*
X215330Y-49849D01*
X177126Y-99188D02*
X215330Y-60984D01*
X174342Y-99188D02*
X215330Y-58200D01*
X160423Y-99188D02*
X215330Y-44281D01*
X157639Y-99188D02*
X215330Y-41497D01*
X163207Y-99188D02*
X215330Y-47065D01*
X196613Y-99188D02*
X215330Y-80471D01*
X193829Y-99188D02*
X215330Y-77688D01*
X202181Y-99188D02*
X215330Y-86039D01*
X199397Y-99188D02*
X215330Y-83255D01*
X188261Y-99188D02*
X215330Y-72120D01*
X185477Y-99188D02*
X215330Y-69336D01*
X191045Y-99188D02*
X215330Y-74904D01*
X212230Y-94922D02*
X213233Y-93615D01*
X211064Y-96088D02*
X212230Y-94922D01*
X205175Y-98978D02*
X215120Y-89033D01*
X210138Y-96799D02*
X212940Y-93996D01*
X179910Y-99188D02*
X215330Y-63768D01*
X168774Y-99188D02*
X215330Y-52632D01*
X182694Y-99188D02*
X215330Y-66552D01*
X209756Y-97091D02*
X211064Y-96088D01*
X208329Y-97915D02*
X209756Y-97091D01*
X206806Y-98546D02*
X208329Y-97915D01*
X205214Y-98973D02*
X206806Y-98546D01*
X202756Y-99188D02*
X203580D01*
X205214Y-98973D01*
X156396Y-28195D02*
X215330Y-87128D01*
X156179Y-30762D02*
X214983Y-89565D01*
X155668Y-33034D02*
X214281Y-91647D01*
X154928Y-35078D02*
X213318Y-93468D01*
X153997Y-36931D02*
X212109Y-95043D01*
X152894Y-38612D02*
X210671Y-96389D01*
X154855Y-99188D02*
X215330Y-38713D01*
X151634Y-40135D02*
X209017Y-97518D01*
X150219Y-41504D02*
X207127Y-98413D01*
X148649Y-42718D02*
X204939Y-99009D01*
X121182Y-45874D02*
X174496Y-99188D01*
X115614Y-45874D02*
X168928Y-99188D01*
X112830Y-45874D02*
X166144Y-99188D01*
X118398Y-45874D02*
X171712Y-99188D01*
X154923Y-35091D02*
X163142Y-26872D01*
X156398Y-25412D02*
X163142Y-32156D01*
X110046Y-45874D02*
X163360Y-99188D01*
X87775Y-45874D02*
X141089Y-99188D01*
X84991Y-45874D02*
X138305Y-99188D01*
X90559Y-45874D02*
X143873Y-99188D01*
X104479Y-45874D02*
X157792Y-99188D01*
X101695Y-45874D02*
X155009Y-99188D01*
X107263Y-45874D02*
X160576Y-99188D01*
X96127Y-45874D02*
X149441Y-99188D01*
X93343Y-45874D02*
X146657Y-99188D01*
X98911Y-45874D02*
X152225Y-99188D01*
X146503D02*
X215330Y-30362D01*
X146918Y-43771D02*
X202334Y-99188D01*
X152071D02*
X215330Y-35929D01*
X149287Y-99188D02*
X215330Y-33145D01*
X143719Y-99188D02*
X215330Y-27578D01*
X142903Y-45324D02*
X196767Y-99188D01*
X145011Y-44648D02*
X199551Y-99188D01*
X135101Y-45874D02*
X188415Y-99188D01*
X132317Y-45874D02*
X185631Y-99188D01*
X140551Y-45756D02*
X193983Y-99188D01*
X137885Y-45874D02*
X191199Y-99188D01*
X126750Y-45874D02*
X180063Y-99188D01*
X123966Y-45874D02*
X177280Y-99188D01*
X129534Y-45874D02*
X182847Y-99188D01*
X101961Y-99188D02*
X172691Y-28458D01*
X99177Y-99188D02*
X165798Y-32567D01*
X107529Y-99188D02*
X176522Y-30195D01*
X104745Y-99188D02*
X174558Y-29375D01*
X93609Y-99188D02*
X163142Y-29656D01*
X90826Y-99188D02*
X145614Y-44399D01*
X96393Y-99188D02*
X163142Y-32440D01*
X85258Y-99188D02*
X138572Y-45874D01*
X82474Y-99188D02*
X135788Y-45874D01*
X88042Y-99188D02*
X141632Y-45598D01*
X79690Y-99188D02*
X133004Y-45874D01*
X79424Y-45874D02*
X132738Y-99188D01*
X82208Y-45874D02*
X135521Y-99188D01*
X121570Y17767D02*
X127883Y11454D01*
X118512Y15258D02*
X122836Y10933D01*
X118648Y17905D02*
X125620Y10933D01*
X118512D02*
Y11327D01*
X113650D02*
X118512D01*
X115040D02*
X116993Y13280D01*
X117706D02*
X120052Y10933D01*
X128695Y8903D02*
X129236Y9444D01*
X118512Y8555D02*
X127854D01*
X118512Y10933D02*
X127362D01*
X113650Y8161D02*
X118512D01*
Y8555D01*
X113650Y11534D02*
X115395Y13280D01*
X113650Y11327D02*
Y11534D01*
X115159Y13043D02*
X116875Y11327D01*
X113767Y11651D02*
X114091Y11327D01*
X109850Y11705D02*
X113575Y15429D01*
X109850Y12783D02*
X111075Y11559D01*
X109850Y10721D02*
Y13280D01*
X109129Y10721D02*
X111075Y8775D01*
X105739Y10721D02*
X109850D01*
X113650Y7153D02*
X114658Y8161D01*
X106345Y10721D02*
X111075Y5991D01*
X104913Y10721D02*
Y10994D01*
X104710Y11001D02*
X104913Y10994D01*
Y10721D02*
X105703D01*
X114472Y8161D02*
X126169Y-3535D01*
X114417Y-431D02*
X123404Y8555D01*
X117256Y8161D02*
X128953Y-3535D01*
X113704Y-3929D02*
X126188Y8555D01*
X113650Y1585D02*
X120620Y8555D01*
X113650Y4369D02*
X117442Y8161D01*
X113650Y6200D02*
X123385Y-3535D01*
X114417Y-135D02*
X118211Y-3929D01*
X114417Y-3039D02*
Y1071D01*
X129339Y-6898D02*
Y-3535D01*
X114417Y-2919D02*
X115427Y-3929D01*
X113650Y-3039D02*
X114417D01*
X113650Y1071D02*
X114417D01*
X113650Y3416D02*
X120995Y-3929D01*
X110352Y1071D02*
X111075Y1794D01*
X110307Y1071D02*
X111075D01*
X113650D02*
Y8161D01*
X111075Y1071D02*
Y12067D01*
X103266Y11016D02*
X111075Y3207D01*
X110307Y-3039D02*
Y1071D01*
X102962Y-3535D02*
X111075Y4578D01*
Y-3929D02*
Y-3039D01*
X110307D02*
X111075D01*
X113650Y-3929D02*
Y-3039D01*
X105746Y-3535D02*
X110307Y1026D01*
X106307Y-3929D02*
Y-3535D01*
X108136Y-3929D02*
X110307Y-1758D01*
X97699Y11016D02*
X98175Y10539D01*
X97549D02*
X98026Y11016D01*
X99910Y7332D02*
X103594Y11016D01*
X99910Y10116D02*
X100810Y11016D01*
X96238D02*
X104645D01*
X92020Y10441D02*
Y14165D01*
X88509Y9850D02*
X92020Y13361D01*
X96153Y10539D02*
X99910D01*
X95972Y10441D02*
Y10993D01*
X96153Y9873D02*
Y10539D01*
X95972Y9873D02*
Y10425D01*
Y10441D02*
Y10993D01*
X92020Y9873D02*
Y10425D01*
X91293Y9850D02*
X92020Y10577D01*
Y10441D02*
Y14165D01*
X88391Y14756D02*
X92020Y11127D01*
X85963Y10088D02*
X90630Y14756D01*
X85607D02*
X90512Y9850D01*
X84571Y11480D02*
X87846Y14756D01*
X83451Y14128D02*
X87729Y9850D01*
X79007Y8113D02*
X83473Y12578D01*
X86776Y7276D02*
X91754D01*
X86931Y9850D02*
X91754D01*
X86394Y7256D02*
X86639Y7260D01*
X86344Y9884D02*
X86867Y9866D01*
X83473Y12578D02*
X86144Y9907D01*
X85995Y7222D02*
X86394Y7256D01*
X100483Y11016D02*
X110427Y1071D01*
X99910Y6587D02*
Y10539D01*
X100178Y-3535D02*
X111075Y7362D01*
X99910Y8805D02*
X110307Y-1593D01*
X91657Y-6488D02*
X108866Y10721D01*
X88873Y-6488D02*
X106082Y10721D01*
X94441Y-6488D02*
X111075Y10146D01*
X96560Y6587D02*
X107076Y-3929D01*
X96153Y6587D02*
X99910D01*
X99344D02*
X109860Y-3929D01*
X99008Y-6094D02*
Y-3535D01*
X93678Y6685D02*
X103898Y-3535D01*
X90303Y7276D02*
X101114Y-3535D01*
X86090Y-6488D02*
X99164Y6587D01*
X95972Y7174D02*
X96153Y6993D01*
X92020Y6685D02*
Y7253D01*
X96153Y6587D02*
Y7253D01*
X95972Y6685D02*
Y7253D01*
X82916Y4204D02*
X85921Y7209D01*
X79007Y8113D02*
X82916Y4204D01*
X87519Y7276D02*
X99008Y-4213D01*
X96153Y6993D02*
X96560Y6587D01*
X92020Y6685D02*
X95972D01*
X85361Y6650D02*
X98499Y-6488D01*
X83306D02*
X96380Y6587D01*
X80522Y-6488D02*
X93695Y6685D01*
X83969Y5258D02*
X95715Y-6488D01*
X123964Y-6898D02*
X125719Y-8653D01*
X122898D02*
X124654Y-6898D01*
X126748D02*
X128503Y-8653D01*
X125682D02*
X127438Y-6898D01*
X120786Y-6504D02*
X122936Y-8653D01*
X122039Y-11213D02*
Y-8653D01*
X115218Y-6504D02*
X122039Y-13325D01*
X129339Y-9146D02*
Y-8653D01*
X122039Y-13772D02*
Y-12016D01*
Y-14575D02*
Y-13772D01*
Y-14575D02*
Y-13772D01*
Y-8653D02*
X129339D01*
X122039Y-12016D02*
Y-11213D01*
Y-12016D02*
Y-11213D01*
X113650Y-3929D02*
X122039D01*
X110920D02*
X111075Y-3774D01*
X122039Y-3929D02*
Y-3535D01*
X106307Y-8542D02*
X108345Y-6504D01*
X106307Y-3929D02*
X111075D01*
X106307Y-6898D02*
Y-6504D01*
Y-6898D02*
Y-6504D01*
X122039Y-6898D02*
Y-6504D01*
X112205D02*
X122039D01*
X118002D02*
X122039Y-10541D01*
X106307Y-6504D02*
X112205D01*
X106307Y-11326D02*
X111129Y-6504D01*
X106307Y-14109D02*
X113913Y-6504D01*
X122039Y-21449D02*
X122712D01*
X122039Y-17134D02*
X122712D01*
X122039Y-24811D02*
X122712D01*
Y-21449D02*
Y-17134D01*
X108415Y-31488D02*
X122712Y-17192D01*
X109651Y-6504D02*
X122712Y-19565D01*
X111199Y-31488D02*
X122712Y-19976D01*
Y-26567D02*
Y-24811D01*
X122390D02*
X122712Y-25133D01*
Y-31488D02*
Y-29929D01*
X122335Y-31488D02*
X122712Y-31111D01*
X122039Y-29929D02*
X122712D01*
X122039Y-26567D02*
X122712D01*
X116767Y-31488D02*
X122712Y-25543D01*
X122039Y-17134D02*
Y-14575D01*
X112434Y-6504D02*
X122039Y-16109D01*
Y-24811D02*
Y-21449D01*
X106867Y-6504D02*
X122039Y-21677D01*
X106307Y-19677D02*
X119480Y-6504D01*
X106307Y-22252D02*
Y-18890D01*
Y-19864D02*
X117931Y-31488D01*
X122039Y-24461D02*
X122390Y-24811D01*
X122039Y-29929D02*
Y-26567D01*
X119551Y-31488D02*
X122039Y-29000D01*
X106307Y-25431D02*
X112364Y-31488D01*
X106307Y-27370D02*
Y-24008D01*
X113983Y-31488D02*
X122039Y-23432D01*
X106307Y-12016D02*
Y-11213D01*
Y-9457D01*
Y-25245D02*
X122039Y-9513D01*
X106307Y-12016D02*
Y-11213D01*
X104760Y-24008D02*
X122039Y-6729D01*
X104311Y-18890D02*
X116697Y-6504D01*
X106307Y-8728D02*
X122039Y-24461D01*
X106307Y-14575D02*
Y-12016D01*
X105842Y-14575D02*
X106307Y-14109D01*
Y-11512D02*
X122039Y-27244D01*
X102977Y-24008D02*
X106307D01*
X102977Y-18890D02*
X106307D01*
X102977Y-14575D02*
X106307D01*
X102977Y-22252D02*
X106307D01*
Y-8653D02*
Y-6898D01*
X99008Y-6466D02*
Y-6094D01*
X106307Y-9457D02*
Y-8653D01*
Y-9457D02*
Y-8653D01*
X99008Y-3535D02*
X106307D01*
X99008Y-6466D02*
Y-6094D01*
X97225Y-6488D02*
X99008Y-4705D01*
X102977Y-23007D02*
X103732Y-22252D01*
X102977Y-24008D02*
Y-22252D01*
X103128D02*
X104883Y-24008D01*
X102977Y-17439D02*
X105842Y-14575D01*
X102977Y-18890D02*
Y-14575D01*
Y-16534D02*
X105333Y-18890D01*
X106307Y-14296D02*
X122712Y-30701D01*
X103802Y-14575D02*
X120715Y-31488D01*
X105632D02*
X122039Y-15080D01*
X105911Y-22252D02*
X115148Y-31488D01*
X96716Y-26976D02*
X101228Y-31488D01*
X99008Y-27370D02*
Y-26997D01*
X102848Y-31488D02*
X122039Y-12297D01*
X100064Y-31488D02*
X104182Y-27370D01*
X99894D02*
X104012Y-31488D01*
X105462Y-27370D02*
X109580Y-31488D01*
X102678Y-27370D02*
X106796Y-31488D01*
X99833Y-27370D02*
X106307D01*
X99008D02*
X99797D01*
X97280Y-31488D02*
X101398Y-27370D01*
X83361Y-31488D02*
X87872Y-26976D01*
X82797D02*
X87309Y-31488D01*
X86144D02*
X90656Y-26976D01*
X85581D02*
X90093Y-31488D01*
X80013Y-26976D02*
X84525Y-31488D01*
X77793D02*
X82305Y-26976D01*
X80577Y-31488D02*
X85088Y-26976D01*
X93932D02*
X98444Y-31488D01*
X91712D02*
X96224Y-26976D01*
X94496Y-31488D02*
X98989Y-26996D01*
X88928Y-31488D02*
X93440Y-26976D01*
X88365D02*
X92877Y-31488D01*
X91149Y-26976D02*
X95661Y-31488D01*
X52528Y54602D02*
X97114Y99188D01*
X52528Y57386D02*
X94330Y99188D01*
X56397Y52904D02*
X102681Y99188D01*
X54998Y54288D02*
X99898Y99188D01*
X52528Y62953D02*
X88762Y99188D01*
X50086Y63295D02*
X85978Y99188D01*
X52528Y60170D02*
X91546Y99188D01*
X68898D02*
X202756Y99188D01*
X61860Y47231D02*
X113817Y99188D01*
X61917Y41721D02*
X119385Y99188D01*
X61917Y44504D02*
X116601Y99188D01*
X59181Y50120D02*
X108249Y99188D01*
X57789Y51512D02*
X105465Y99188D01*
X60573Y48728D02*
X111033Y99188D01*
X48118Y80815D02*
X66491Y99188D01*
X45334Y80815D02*
X63707Y99188D01*
X51268Y78397D02*
X72059Y99188D01*
X50902Y80815D02*
X69275Y99188D01*
X41734Y63295D02*
X77627Y99188D01*
X42550Y80815D02*
X60923Y99188D01*
X44518Y63295D02*
X80410Y99188D01*
X52528Y55287D02*
Y59280D01*
Y59303D02*
Y63295D01*
Y56187D02*
X54159Y54555D01*
X52528Y54578D02*
Y55264D01*
X47302Y63295D02*
X83194Y99188D01*
X51268Y76823D02*
Y80815D01*
X52219Y59280D02*
X52528Y58971D01*
X67988Y99188D02*
X131932Y35244D01*
X65204Y99188D02*
X129167Y35224D01*
X61917Y30585D02*
X130520Y99188D01*
X62420D02*
X126646Y34962D01*
X61917Y36153D02*
X124952Y99188D01*
X61917Y38937D02*
X122169Y99188D01*
X61917Y33369D02*
X127736Y99188D01*
X73556D02*
X137499Y35244D01*
X70772Y99188D02*
X134716Y35244D01*
X76340Y99188D02*
X140303Y35224D01*
X61917Y22233D02*
X138872Y99188D01*
X61917Y25017D02*
X136088Y99188D01*
X61917Y27801D02*
X133304Y99188D01*
X48501D02*
X132059Y15630D01*
X59636Y99188D02*
X119670Y39154D01*
X56852Y99188D02*
X118216Y37825D01*
X51285Y99188D02*
X118024Y32449D01*
X54068Y99188D02*
X118024Y35233D01*
X45717Y99188D02*
X109543Y35362D01*
X42933Y99188D02*
X106759Y35362D01*
X51268Y79718D02*
X95741Y35244D01*
X51268Y76934D02*
X92957Y35244D01*
X52528Y61755D02*
X77952Y36330D01*
X52528Y58971D02*
X77669Y33829D01*
X45811Y76823D02*
X87429Y35205D01*
X43027Y76823D02*
X84488Y35362D01*
X48595Y76823D02*
X90213Y35205D01*
X39766Y80815D02*
X58139Y99188D01*
X36983Y80815D02*
X55356Y99188D01*
X38950Y63295D02*
X74843Y99188D01*
X33490Y80106D02*
X52572Y99188D01*
X-18541D02*
X68898D01*
X31798D02*
X50170Y80815D01*
X30706Y80106D02*
X49788Y99188D01*
X37459Y76823D02*
X50987Y63295D01*
X36166D02*
X49694Y76823D01*
X35583Y59280D02*
X52528D01*
X35583Y59303D02*
X52528D01*
X34323Y76823D02*
X51268D01*
X34323Y80815D02*
X51268D01*
X35583Y63295D02*
X52528D01*
X29014Y99188D02*
X47387Y80815D01*
X26230Y99188D02*
X44603Y80815D01*
X31183Y77531D02*
X45419Y63295D01*
X34323Y77175D02*
X34675Y76823D01*
X20662Y99188D02*
X39035Y80815D01*
X17878Y99188D02*
X36251Y80815D01*
X23446Y99188D02*
X41819Y80815D01*
X34675Y76823D02*
X48203Y63295D01*
X29269Y76661D02*
X42635Y63295D01*
X35583Y59303D02*
Y63295D01*
X27877Y75269D02*
X39851Y63295D01*
X26485Y73877D02*
X37067Y63295D01*
X25093Y72485D02*
X35583Y61996D01*
X40149Y99188D02*
X103975Y35362D01*
X34581Y99188D02*
X98564Y35205D01*
X37365Y99188D02*
X101348Y35205D01*
X-30290Y21894D02*
X47004Y99188D01*
X-30290Y27461D02*
X41436Y99188D01*
X-30290Y30245D02*
X38652Y99188D01*
X-30290Y24678D02*
X44220Y99188D01*
X35583Y55264D02*
X52528D01*
X35583Y55287D02*
X52528D01*
X40243Y76823D02*
X78397Y38669D01*
X-4618Y25295D02*
X46910Y76823D01*
X-4618Y30863D02*
X41342Y76823D01*
X-4618Y33647D02*
X38558Y76823D01*
X-4618Y28079D02*
X44126Y76823D01*
X34400Y58746D02*
X35583Y59928D01*
X23701Y71093D02*
X35583Y59212D01*
X18134Y65526D02*
X35583Y48077D01*
X19526Y66918D02*
X35583Y50861D01*
X-30290Y33029D02*
X35868Y99188D01*
X-4618Y36430D02*
X35774Y76823D01*
X-4618Y22511D02*
X35583Y62712D01*
Y55287D02*
Y55974D01*
Y58593D02*
Y59280D01*
Y51272D02*
Y55264D01*
X34943Y55996D02*
X35317D01*
X34943Y58571D02*
X35317D01*
X33786Y55441D02*
X35583Y53645D01*
X77669Y35201D02*
X77830Y35362D01*
X61917Y38445D02*
X82428Y17935D01*
X77669Y31252D02*
Y35362D01*
X55123Y54178D02*
X61540Y47761D01*
X77669Y31252D02*
X80958D01*
X77669Y35362D02*
X78298D01*
X61917Y19449D02*
X77669Y35201D01*
X51268Y24040D02*
X56587Y18721D01*
X49683Y31193D02*
X56587Y24289D01*
X51268Y25503D02*
X56587Y30822D01*
X46899Y31193D02*
X56587Y21505D01*
X52793Y54555D02*
X54213D01*
X52528Y32869D02*
X56587D01*
X52528Y32331D02*
X53066Y32869D01*
X52528Y31193D02*
Y32869D01*
X49701Y26720D02*
X55850Y32869D01*
X53574D02*
X56587Y29857D01*
X56358Y32869D02*
X56587Y32641D01*
X52467Y31193D02*
X56587Y27073D01*
X51268Y22728D02*
Y26720D01*
X44133D02*
X48606Y31193D01*
X44115D02*
X48587Y26720D01*
X46917D02*
X51390Y31193D01*
X61917Y35662D02*
X80929Y16649D01*
X61917Y16666D02*
X77669Y32418D01*
X61917Y5530D02*
X87639Y31252D01*
X61917Y32878D02*
X82845Y11950D01*
X61917Y46797D02*
X91384Y17331D01*
X61917Y44013D02*
X88600Y17331D01*
X61917Y41229D02*
X85816Y17331D01*
X61917Y30094D02*
X81453Y10558D01*
X61917Y27310D02*
X80061Y9166D01*
X61917Y2746D02*
X86272Y27101D01*
X61917Y8314D02*
X84855Y31252D01*
X61917Y13882D02*
X79288Y31252D01*
X46908Y15575D02*
X56587Y25254D01*
X61917Y11098D02*
X82072Y31252D01*
X49796Y22728D02*
X56587Y15937D01*
X44228Y22728D02*
X51381Y15575D01*
X56587D02*
Y32869D01*
X47012Y22728D02*
X54165Y15575D01*
X41444Y22728D02*
X48597Y15575D01*
X41734Y15969D02*
X48493Y22728D01*
X44124Y15575D02*
X56587Y28038D01*
X52476Y15575D02*
X56587Y19687D01*
X49692Y15575D02*
X56587Y22470D01*
X55260Y15575D02*
X56587Y16903D01*
X43021Y15895D02*
X43341Y15575D01*
X42795Y15989D02*
X43021Y15895D01*
X43341Y15575D02*
X56587D01*
X35583Y47232D02*
X43736D01*
X35583Y39224D02*
Y39911D01*
Y39224D02*
X43736D01*
X35583Y38515D02*
Y39201D01*
Y51248D02*
X43736D01*
X35583Y51272D02*
X43736D01*
X35583Y47256D02*
X43736D01*
X35583Y35185D02*
X43736D01*
X35583Y35209D02*
X43736D01*
X35583Y34873D02*
X35895Y35185D01*
X35583Y34499D02*
Y35185D01*
Y39201D02*
X43736D01*
X35583Y35209D02*
Y35895D01*
X35186Y34476D02*
X35583Y34873D01*
Y46546D02*
Y47232D01*
Y47256D02*
Y51248D01*
X33314Y46524D02*
X35583Y48792D01*
X34058Y38917D02*
X35075Y39933D01*
X30530Y46524D02*
X35583Y51576D01*
X28701Y46524D02*
X35317D01*
X28762Y39933D02*
X35317D01*
X35390Y39918D02*
X35583Y39725D01*
X34943Y38492D02*
X35317D01*
X34943Y35917D02*
X35317D01*
X34943Y34476D02*
X35317D01*
X34175Y35565D02*
X35264Y34476D01*
X34943Y31902D02*
X35317D01*
X38566Y26720D02*
X43038Y31193D01*
X38547D02*
X43020Y26720D01*
X41350D02*
X45822Y31193D01*
X41331D02*
X45803Y26720D01*
X35583Y31193D02*
X52528D01*
X35763D02*
X40236Y26720D01*
X35782D02*
X40254Y31193D01*
X36166Y15969D02*
X42925Y22728D01*
X35876D02*
X42635Y15969D01*
X38660Y22728D02*
X45813Y15575D01*
X38950Y15969D02*
X45709Y22728D01*
X34323D02*
X51268D01*
X34323Y26720D02*
X51268D01*
X32308Y15969D02*
X42748D01*
X35583Y31193D02*
Y31879D01*
X35055Y31902D02*
X35583Y31374D01*
X32956Y31216D02*
X37452Y26720D01*
X35583Y31374D02*
X35763Y31193D01*
X29256Y25762D02*
X35381Y31887D01*
X25109Y36280D02*
X34668Y26720D01*
X-4618Y14159D02*
X35583Y54360D01*
X32805Y23016D02*
X39851Y15969D01*
X32744Y26467D02*
X37470Y31193D01*
X33382Y15969D02*
X40141Y22728D01*
X31453Y16824D02*
X37357Y22728D01*
X30061Y18216D02*
X34574Y22728D01*
X29240Y23797D02*
X37068Y15969D01*
X34323Y80129D02*
Y80815D01*
X29606Y80106D02*
X34057D01*
X15094Y99188D02*
X34160Y80123D01*
X12310Y99188D02*
X31392Y80106D01*
X9527Y99188D02*
X28852Y79862D01*
X33967Y77531D02*
X34323Y77175D01*
X30140Y77531D02*
X34057D01*
X34323Y76823D02*
Y77509D01*
X22310Y69701D02*
X32774Y59237D01*
X20918Y68310D02*
X31229Y57999D01*
X16742Y64134D02*
X34352Y46524D01*
X-4393Y99188D02*
X21881Y72914D01*
X-7177Y99188D02*
X20489Y71522D01*
X-9961Y99188D02*
X19097Y70130D01*
X-12744Y99188D02*
X17705Y68738D01*
X-15528Y99188D02*
X16313Y67346D01*
X-20175Y98973D02*
X-18541Y99188D01*
X-18312D02*
X14921Y65954D01*
X6743Y99188D02*
X27449Y78482D01*
X3959Y99188D02*
X26057Y77090D01*
X13958Y61350D02*
X28784Y46524D01*
X1175Y99188D02*
X24665Y75698D01*
X-1609Y99188D02*
X23273Y74306D01*
X-21767Y98546D02*
X-20175Y98973D01*
X-20732Y98823D02*
X13529Y64562D01*
X15350Y62742D02*
X31568Y46524D01*
X12566Y59958D02*
X27084Y45440D01*
X-4618Y39214D02*
X33699Y77531D01*
X11174Y58566D02*
X25692Y44048D01*
X-4618Y42774D02*
X30140Y77531D01*
X-6816Y44217D02*
X28696Y79729D01*
X-4618Y41998D02*
X30915Y77531D01*
X17987Y36343D02*
X27790Y46147D01*
X9782Y57174D02*
X24300Y42656D01*
X-4618Y19727D02*
X31609Y55954D01*
X8390Y55782D02*
X22908Y41264D01*
X-4618Y16943D02*
X33954Y55515D01*
X6998Y54390D02*
X21516Y39872D01*
X5606Y52998D02*
X20124Y38480D01*
X4214Y51606D02*
X18732Y37088D01*
X2822Y50214D02*
X17610Y35427D01*
X39Y47431D02*
X17610Y29859D01*
X1431Y48822D02*
X17610Y32643D01*
X-1353Y46039D02*
X17610Y27075D01*
X-4137Y43255D02*
X17610Y21507D01*
X-2745Y44647D02*
X17610Y24291D01*
X-4618Y6439D02*
Y42774D01*
X-7193Y5906D02*
Y43307D01*
X-30290Y72004D02*
X-3106Y99188D01*
X-30290Y74787D02*
X-5890Y99188D01*
X-30290Y66436D02*
X2462Y99188D01*
X-30290Y69220D02*
X-322Y99188D01*
X-30290Y80355D02*
X-11458Y99188D01*
X-30290Y83139D02*
X-14242Y99188D01*
X-30290Y77571D02*
X-8674Y99188D01*
X-22807Y98115D02*
X12137Y63171D01*
X-24622Y97146D02*
X10745Y61779D01*
X-26186Y95926D02*
X9353Y60387D01*
X-27527Y94483D02*
X7961Y58995D01*
X-30290Y60868D02*
X8029Y99188D01*
X-30290Y63652D02*
X5246Y99188D01*
X-30290Y58084D02*
X10813Y99188D01*
X-23290Y97915D02*
X-21767Y98546D01*
X-24717Y97091D02*
X-23290Y97915D01*
X-26025Y96088D02*
X-24717Y97091D01*
X-27190Y94922D02*
X-26025Y96088D01*
X-30098Y88899D02*
X-20002Y98996D01*
X-28231Y93550D02*
X-24652Y97129D01*
X-30290Y85923D02*
X-17025Y99188D01*
X-28194Y93615D02*
X-27190Y94922D01*
X-29018Y92187D02*
X-28194Y93615D01*
X-29649Y90664D02*
X-29018Y92187D01*
X-30075Y89072D02*
X-29649Y90664D01*
X-30290Y87438D02*
X-30075Y89072D01*
X-30290Y86614D02*
Y87438D01*
Y44165D02*
X24733Y99188D01*
X-30290Y46949D02*
X21949Y99188D01*
X-30290Y38597D02*
X30301Y99188D01*
X-30290Y41381D02*
X27517Y99188D01*
X-30290Y52517D02*
X16381Y99188D01*
X-30290Y55300D02*
X13597Y99188D01*
X-30290Y49733D02*
X19165Y99188D01*
X-28651Y92823D02*
X6570Y57603D01*
X-29539Y90928D02*
X5178Y56211D01*
X-30121Y88725D02*
X3786Y54819D01*
X-30290Y80543D02*
X-390Y50643D01*
X-30290Y86111D02*
X2394Y53427D01*
X-30290Y83327D02*
X1002Y52035D01*
X-30290Y35813D02*
X33084Y99188D01*
X-30290Y69408D02*
X-5958Y45075D01*
X-30290Y66624D02*
X-7177Y43510D01*
X-30290Y61056D02*
X-7193Y37959D01*
X-30290Y63840D02*
X-7193Y40743D01*
X-30290Y77759D02*
X-1782Y49251D01*
X-30290Y74975D02*
X-3174Y47859D01*
X-30290Y72192D02*
X-4566Y46467D01*
X-30290Y47137D02*
X-7193Y24039D01*
X-30290Y49920D02*
X-7193Y26823D01*
X-30290Y44353D02*
X-7193Y21255D01*
X-30290Y55488D02*
X-7193Y32391D01*
X-30290Y58272D02*
X-7193Y35175D01*
X-30290Y52704D02*
X-7193Y29607D01*
X32591Y39933D02*
X33365Y39159D01*
X29807Y39933D02*
X31431Y38309D01*
X22547Y30189D02*
X32291Y39933D01*
X27892Y39064D02*
X32066Y34891D01*
X22547Y27405D02*
X31359Y36217D01*
X34323Y26034D02*
Y26720D01*
X33683Y26012D02*
X34057D01*
X34323Y22728D02*
Y23415D01*
X33683Y23437D02*
X34057D01*
X29499Y28790D02*
X32150Y31440D01*
X23717Y34888D02*
X31906Y26698D01*
X26500Y37672D02*
X31098Y33075D01*
X27375Y29449D02*
X31095Y33169D01*
X22547Y33274D02*
X26718Y29102D01*
X22547Y30490D02*
X26066Y26971D01*
X22547Y32973D02*
X29507Y39933D01*
X22547Y33719D02*
X28762Y39933D01*
X22547Y22187D02*
Y33719D01*
X29496Y26324D02*
X30103Y25718D01*
X29240Y22963D02*
X30069Y23791D01*
X22547Y24621D02*
X26063Y28137D01*
X22547Y27706D02*
X26665Y23588D01*
X29240Y20179D02*
X31809Y22748D01*
X29240Y19037D02*
Y25687D01*
Y21013D02*
X34284Y15969D01*
X29240Y19037D02*
X32308Y15969D01*
X24142Y3945D02*
X28873Y8676D01*
X21358Y3945D02*
X27481Y10068D01*
X26926Y3945D02*
X30265Y7284D01*
X32403Y3854D02*
X33049Y4501D01*
X26976Y3789D02*
X27510Y3256D01*
X29021D02*
X31657Y5892D01*
X27242Y3256D02*
X29939D01*
X26821Y3945D02*
X26976Y3789D01*
X23236Y3945D02*
X26976D01*
Y3278D02*
Y3945D01*
X24114Y20620D02*
X26665Y23172D01*
X22722Y22012D02*
X26639Y25929D01*
X26665Y18504D02*
Y25687D01*
X25506Y19228D02*
X26665Y20388D01*
X22547Y24922D02*
X26665Y20804D01*
X17610Y20472D02*
Y35433D01*
X22547Y22187D02*
X26797Y17937D01*
X19480Y3945D02*
X23221D01*
X19480Y2832D02*
Y3945D01*
X19085Y2806D02*
X19285Y2811D01*
X18728Y2791D02*
X19018D01*
X-4303Y6123D02*
X17610Y28036D01*
X-4618Y24248D02*
X12020Y7610D01*
X-4618Y11376D02*
X17610Y33604D01*
X-4618Y27032D02*
X12310Y10104D01*
X-4618Y8592D02*
X17610Y30820D01*
X15563Y9285D02*
X21913Y15636D01*
X14105Y10611D02*
X20522Y17028D01*
X14968Y5907D02*
X23305Y14244D01*
X-30290Y13542D02*
X-7193Y36639D01*
X-30290Y38785D02*
X-7193Y15688D01*
X-30290Y10758D02*
X-7193Y33856D01*
X-30290Y36001D02*
X-7193Y12904D01*
X-30290Y41569D02*
X-7193Y18472D01*
X-30290Y19110D02*
X-7193Y42207D01*
X-30290Y16326D02*
X-7193Y39423D01*
X-30290Y5190D02*
X-7193Y28288D01*
X-30290Y7974D02*
X-7193Y31072D01*
X-30290Y33217D02*
X-7193Y10120D01*
X-30290Y30433D02*
X-7193Y7336D01*
X-4618Y32600D02*
X24037Y3945D01*
X-2911Y4731D02*
X17610Y25252D01*
X-4618Y29816D02*
X21253Y3945D01*
X-1519Y3339D02*
X17610Y22468D01*
X-4618Y40952D02*
X32520Y3813D01*
X-4618Y35384D02*
X26821Y3945D01*
X-4618Y38168D02*
X30254Y3296D01*
X14991Y3945D02*
X15559D01*
X14968Y4211D02*
Y6809D01*
X15559Y3714D02*
X24697Y12852D01*
X15112Y7302D02*
X19480Y2934D01*
X1182Y3256D02*
X17773Y19847D01*
X10222Y3945D02*
X12394Y6116D01*
X3966Y3256D02*
X19129Y18420D01*
X-4618Y13113D02*
X5239Y3256D01*
X-4618Y10329D02*
X2455Y3256D01*
X6750D02*
X11751Y8257D01*
X-4618Y7545D02*
X-329Y3256D01*
X-4618Y21464D02*
X12394Y4453D01*
X-4618Y18681D02*
X10118Y3945D01*
X-4618Y15897D02*
X8004Y3275D01*
X12394Y4211D02*
Y6809D01*
X8063Y3945D02*
X11803D01*
X11819D02*
X12371D01*
X8063Y3279D02*
Y3945D01*
X-4618Y6439D02*
X-1435Y3256D01*
X7797D01*
X65788Y-4519D02*
X85063Y14756D01*
X65788Y-4519D02*
X85063Y14756D01*
X61917Y18958D02*
X87364Y-6488D01*
X61917Y16174D02*
X84580Y-6488D01*
X61917Y24526D02*
X92931Y-6488D01*
X61917Y-38D02*
X86272Y24317D01*
X61917Y21742D02*
X90148Y-6488D01*
X72170D02*
X82889Y4231D01*
X69386Y-6488D02*
X81497Y5623D01*
X77738Y-6488D02*
X91502Y7276D01*
X74954Y-6488D02*
X88718Y7276D01*
X64396Y-3127D02*
X81804Y14281D01*
X61917Y13390D02*
X81796Y-6488D01*
X67758D02*
X98744D01*
X63004Y-1735D02*
X80819Y16080D01*
X67180Y-5911D02*
X80105Y7015D01*
X61917Y5039D02*
X73444Y-6488D01*
X61917Y2255D02*
X70661Y-6488D01*
X61917Y10607D02*
X79012Y-6488D01*
X61917Y-648D02*
Y46850D01*
Y7823D02*
X76228Y-6488D01*
X61917Y-529D02*
X67877Y-6488D01*
X61917Y-648D02*
X67758Y-6488D01*
X51268Y-13718D02*
X64149Y-26599D01*
X51268Y-16255D02*
X52536Y-14987D01*
X48282Y-13673D02*
X49752Y-12203D01*
X45498Y-13673D02*
X48360Y-10811D01*
X51268Y-17665D02*
Y-13718D01*
X66094Y-26976D02*
X70606Y-31488D01*
X68878Y-26976D02*
X73390Y-31488D01*
X66657D02*
X71169Y-26976D01*
X51268Y-14934D02*
X67822Y-31488D01*
X61089D02*
X65601Y-26976D01*
X63873Y-31488D02*
X68385Y-26976D01*
X74445D02*
X78957Y-31488D01*
X72225D02*
X76737Y-26976D01*
X77229D02*
X81741Y-31488D01*
X75009D02*
X79521Y-26976D01*
X65059D02*
X98744D01*
X69441Y-31488D02*
X73953Y-26976D01*
X71662D02*
X76173Y-31488D01*
X48934Y-29724D02*
X58104Y-20554D01*
X46150Y-29724D02*
X56712Y-19162D01*
X51215Y-17665D02*
X65038Y-31488D01*
X48431Y-17665D02*
X62254Y-31488D01*
X45647Y-17665D02*
X59470Y-31488D01*
X43366Y-29724D02*
X55320Y-17771D01*
X42863Y-17665D02*
X56686Y-31488D01*
X58306Y-31488D02*
X63672Y-26122D01*
X55522Y-31488D02*
X62280Y-24730D01*
X53996Y-30230D02*
X60888Y-23338D01*
X51718Y-29724D02*
X59496Y-21946D01*
X53996Y-30876D02*
Y-29724D01*
X33656Y2678D02*
X50007Y-13673D01*
X33089Y461D02*
X47223Y-13673D01*
X37146D02*
X44184Y-6635D01*
X34362Y-13673D02*
X42792Y-5243D01*
X17987Y19562D02*
X51223Y-13673D01*
X27301Y681D02*
X41655Y-13673D01*
X30103Y663D02*
X44439Y-13673D01*
X42714D02*
X46968Y-9419D01*
X39930Y-13673D02*
X45576Y-8027D01*
X40582Y-29724D02*
X53928Y-16379D01*
X40582Y-29724D02*
X53928Y-16379D01*
X34323Y-17665D02*
X51268D01*
X34323Y-13673D02*
X51223D01*
X37296Y-17665D02*
X49355Y-29724D01*
X28036Y-11648D02*
X38617Y-1067D01*
X33738Y2406D02*
X34441Y3108D01*
X30870Y-14382D02*
X41401Y-3851D01*
X29428Y-13040D02*
X40009Y-2459D01*
X26644Y-10256D02*
X37225Y325D01*
X26386Y-7730D02*
X35833Y1717D01*
X26976Y-1778D02*
X38871Y-13673D01*
X34323Y-17665D02*
Y-16979D01*
Y-14359D02*
Y-13673D01*
Y-17477D02*
X34512Y-17665D01*
X26405Y-3991D02*
X36087Y-13673D01*
X33654Y-14382D02*
X34323Y-13713D01*
X33803Y-16957D02*
X34323Y-17477D01*
X34512Y-17665D02*
X46571Y-29724D01*
X31019Y-16957D02*
X43787Y-29724D01*
X35015D02*
X47074Y-17665D01*
X12203Y-49752D02*
X44290Y-17665D01*
X-30290Y-11325D02*
X57573Y-99188D01*
X-30290Y-14109D02*
X54789Y-99188D01*
X-30290Y-16893D02*
X52005Y-99188D01*
X34114Y-29724D02*
X53996D01*
X37798D02*
X49857Y-17665D01*
X40080D02*
X52139Y-29724D01*
X-4618Y-20294D02*
X42856Y-67768D01*
X-30290Y-19677D02*
X49221Y-99188D01*
X-30290Y-22460D02*
X46437Y-99188D01*
X-30290Y-25244D02*
X43653Y-99188D01*
X12440Y-3945D02*
X38219Y-29724D01*
X9656Y-3945D02*
X35435Y-29724D01*
X21853Y-10575D02*
X41003Y-29724D01*
X9419Y-46968D02*
X38722Y-17665D01*
X8027Y-45576D02*
X35938Y-17665D01*
X-4586Y-6407D02*
X34795Y-45787D01*
X-3194Y-5015D02*
X37579Y-45787D01*
X10811Y-48360D02*
X41506Y-17665D01*
X34114Y-30625D02*
X35015Y-29724D01*
X-4618Y-28645D02*
X34504Y-67768D01*
X-4618Y-23078D02*
X40072Y-67768D01*
X-4618Y-25861D02*
X37288Y-67768D01*
X-30290Y-28028D02*
X40870Y-99188D01*
X77658Y-45874D02*
X138500Y-45874D01*
X56774Y-31488D02*
X122712D01*
X76416Y-49568D02*
X80110Y-45874D01*
X51851Y-99188D02*
X105165Y-45874D01*
X46284Y-99188D02*
X99597Y-45874D01*
X54635Y-99188D02*
X107949Y-45874D01*
X54686Y-54941D02*
X68590D01*
X53996Y-56637D02*
X96547Y-99188D01*
X51308Y-56732D02*
X93763Y-99188D01*
X49865Y-67768D02*
X62692Y-54941D01*
X47081Y-67768D02*
X59908Y-54941D01*
X51268Y-69149D02*
X65476Y-54941D01*
X54659Y-31488D02*
X56766D01*
X54341Y-31171D02*
X54659Y-31488D01*
X46380Y-40669D02*
X50862Y-45151D01*
X49164Y-40669D02*
X50862Y-42367D01*
Y-45787D02*
Y-40669D01*
X54341Y-55286D02*
X54686Y-54941D01*
X53996Y-56732D02*
Y-55580D01*
X49574Y-45787D02*
X50862Y-44500D01*
X46790Y-45787D02*
X50862Y-41716D01*
X51268Y-71760D02*
Y-67768D01*
X71338Y-99188D02*
X124652Y-45874D01*
X68555Y-99188D02*
X121869Y-45874D01*
X76906Y-99188D02*
X130220Y-45874D01*
X74122Y-99188D02*
X127436Y-45874D01*
X62987Y-99188D02*
X116301Y-45874D01*
X60203Y-99188D02*
X113517Y-45874D01*
X65771Y-99188D02*
X119085Y-45874D01*
X75887Y-50689D02*
X124386Y-99188D01*
X74707Y-52292D02*
X121602Y-99188D01*
X77038Y-46272D02*
X129954Y-99188D01*
X76694Y-48712D02*
X127170Y-99188D01*
X68898D02*
X202756Y-99188D01*
X71328Y-54482D02*
X116034Y-99188D01*
X73194Y-53564D02*
X118818Y-99188D01*
X60652Y-54941D02*
X104899Y-99188D01*
X57868Y-54941D02*
X102115Y-99188D01*
X68994Y-54931D02*
X113250Y-99188D01*
X63436Y-54941D02*
X107683Y-99188D01*
X49067D02*
X102381Y-45874D01*
X55084Y-54941D02*
X99331Y-99188D01*
X57419D02*
X110733Y-45874D01*
X51268Y-67828D02*
X82628Y-99188D01*
X51268Y-70612D02*
X79844Y-99188D01*
X66220Y-54941D02*
X110467Y-99188D01*
X48524Y-56732D02*
X90979Y-99188D01*
X46848Y-71760D02*
X74276Y-99188D01*
X49632Y-71760D02*
X77060Y-99188D01*
X43596Y-40669D02*
X48714Y-45787D01*
X41223D02*
X46341Y-40669D01*
X44297Y-67768D02*
X57124Y-54941D01*
X44006Y-45787D02*
X49125Y-40669D01*
X34114Y-45787D02*
X50862D01*
X34114Y-40669D02*
X50862D01*
X40812D02*
X45930Y-45787D01*
X38729Y-67768D02*
X49765Y-56732D01*
X37388D02*
X48424Y-67768D01*
X41513D02*
X52549Y-56732D01*
X40172D02*
X51208Y-67768D01*
X34114Y-56732D02*
X53996D01*
X34323Y-67768D02*
X51268D01*
X35945D02*
X46981Y-56732D01*
X35655Y-45787D02*
X40773Y-40669D01*
X35245D02*
X40363Y-45787D01*
X38439D02*
X43557Y-40669D01*
X38028D02*
X43147Y-45787D01*
X34114Y-39539D02*
X35245Y-40669D01*
X19162Y-56712D02*
X35205Y-40669D01*
X20554Y-58104D02*
X37989Y-40669D01*
X34604Y-56732D02*
X45640Y-67768D01*
X34114Y-56242D02*
X34604Y-56732D01*
X34323Y-68454D02*
Y-67768D01*
X28906Y-66456D02*
X38629Y-56732D01*
X27514Y-65064D02*
X35845Y-56732D01*
X30298Y-67847D02*
X41413Y-56732D01*
X37932Y-99188D02*
X91246Y-45874D01*
X35148Y-99188D02*
X88462Y-45874D01*
X43500Y-99188D02*
X96813Y-45874D01*
X40716Y-99188D02*
X94030Y-45874D01*
X29580Y-99188D02*
X82894Y-45874D01*
X26796Y-99188D02*
X71603Y-54381D01*
X32364Y-99188D02*
X85678Y-45874D01*
X42956Y-56732D02*
X85412Y-99188D01*
X41280Y-71760D02*
X68708Y-99188D01*
X45740Y-56732D02*
X88196Y-99188D01*
X44064Y-71760D02*
X71492Y-99188D01*
X-18541D02*
X68898D01*
X24013D02*
X68260Y-54941D01*
X38496Y-71760D02*
X65924Y-99188D01*
X32453Y-68476D02*
X44197Y-56732D01*
X34323Y-71760D02*
Y-71074D01*
X32220Y-71051D02*
X60357Y-99188D01*
X10093D02*
X37521Y-71760D01*
X-30290Y-30812D02*
X38086Y-99188D01*
X-30290Y-33596D02*
X35302Y-99188D01*
X7309D02*
X34737Y-71760D01*
X34323D02*
X51268D01*
X21229Y-99188D02*
X48657Y-71760D01*
X35713D02*
X63140Y-99188D01*
X15661D02*
X43089Y-71760D01*
X12877Y-99188D02*
X40305Y-71760D01*
X18445Y-99188D02*
X45873Y-71760D01*
X27242Y681D02*
X29939D01*
X26976Y-1572D02*
X29230Y681D01*
X16362Y1733D02*
X26089Y11460D01*
X26976Y8D02*
Y659D01*
X19480Y-3945D02*
Y-8D01*
X26976Y-3945D02*
Y-8D01*
X26408Y-3945D02*
X26976D01*
X19480Y2D02*
X19702Y2D01*
X18459Y-1613D02*
X19480Y-2634D01*
X17432Y2102D02*
X17592Y2250D01*
X15559Y1287D02*
X15710Y1136D01*
X17080Y-2224D02*
X17240Y-2076D01*
X14968Y4662D02*
X17482Y2148D01*
X15559Y878D02*
Y3945D01*
X15755Y-2784D02*
X15954Y-2779D01*
X15559Y-3945D02*
Y-2806D01*
X11819Y-3945D02*
X15559D01*
X8063D02*
Y-3278D01*
X-1435Y-3256D02*
X7797D01*
X8063Y-3945D02*
X11803D01*
X26386Y-4947D02*
X31374Y41D01*
X26386Y-9998D02*
Y-4211D01*
Y-6756D02*
X34012Y-14382D01*
X23811Y-10531D02*
Y-4211D01*
X3399Y-3256D02*
X34114Y-33971D01*
X6183Y-3256D02*
X34114Y-31187D01*
X615Y-3256D02*
X34114Y-36755D01*
X26386Y-9539D02*
X31228Y-14382D01*
X26386Y-9998D02*
X30770Y-14382D01*
X24188Y-11442D02*
X29326Y-16580D01*
X23260Y-9198D02*
X23811Y-9748D01*
X-1717Y-35833D02*
X23811Y-10305D01*
X23236Y-3945D02*
X23788D01*
X22668D02*
X23221D01*
X23575D02*
X23802Y-4172D01*
X20071Y-6790D02*
Y-4211D01*
X16640Y-2577D02*
X20071Y-6008D01*
X19480Y-3945D02*
X20048D01*
X15224D02*
X19445Y-8166D01*
X23248Y-8084D02*
X23811Y-7521D01*
X22646Y-5799D02*
X23811Y-6965D01*
X22646Y-5903D02*
X23811Y-4737D01*
X22646Y-6790D02*
Y-4211D01*
X-6816Y4995D02*
X-2879Y1058D01*
X-2288Y-721D02*
Y721D01*
X-30290Y27650D02*
X-2288Y-353D01*
X-30290Y24866D02*
X-3623Y-1802D01*
X-30290Y22082D02*
X-5015Y-3194D01*
X-4618Y-13679D02*
X5805Y-3256D01*
X-4618Y-10896D02*
X3022Y-3256D01*
X-4618Y-6439D02*
X-1435Y-3256D01*
X-6816Y-4995D02*
X-2879Y-1058D01*
X-4618Y-8112D02*
X238Y-3256D01*
X-30290Y19298D02*
X-6407Y-4586D01*
X-30290Y-5945D02*
X-7193Y17152D01*
X-30290Y-8729D02*
X-7193Y14368D01*
X-30290Y16514D02*
X-7193Y-6583D01*
X-30290Y-377D02*
X-7193Y22720D01*
X-30290Y2407D02*
X-7193Y25504D01*
X-30290Y-3161D02*
X-7193Y19936D01*
X-30290Y-14297D02*
X-7193Y8801D01*
X-30290Y-11513D02*
X-7193Y11585D01*
X-30290Y13730D02*
X-7193Y-9367D01*
X-30290Y10946D02*
X-7193Y-12151D01*
X-4618Y-24815D02*
X19480Y-716D01*
X-4618Y-16463D02*
X8063Y-3782D01*
X-1802Y-3623D02*
X34114Y-39539D01*
X-4618Y-27599D02*
X19480Y-3500D01*
X-30290Y-25432D02*
X-3339Y1519D01*
X-30290Y-22648D02*
X-4731Y2911D01*
X-30290Y-28216D02*
X-2288Y-214D01*
X-4501Y-33049D02*
X19434Y-9114D01*
X-4618Y-32931D02*
Y-6439D01*
Y-9158D02*
X34114Y-47890D01*
X-3108Y-34441D02*
X20781Y-10552D01*
X-4618Y-22031D02*
X13468Y-3945D01*
X-4618Y-19247D02*
X10684Y-3945D01*
X-4618Y-30383D02*
X20071Y-5694D01*
X-30290Y-19864D02*
X-6123Y4303D01*
X-30290Y5378D02*
X-7193Y-17719D01*
X-30290Y-189D02*
X-7193Y-23287D01*
X-30290Y2595D02*
X-7193Y-20503D01*
X-30290Y-17081D02*
X-7193Y6017D01*
X-30290Y8162D02*
X-7193Y-14935D01*
X-30290Y-86614D02*
Y86614D01*
X-7193Y-33465D02*
Y-5906D01*
X-30290Y-8541D02*
X-7193Y-31638D01*
X-30290Y-33784D02*
X-7193Y-10687D01*
X-30290Y-5757D02*
X-7193Y-28854D01*
X-30290Y-2973D02*
X-7193Y-26071D01*
X-30290Y-31000D02*
X-7193Y-7903D01*
X34114Y-36654D02*
Y-33740D01*
Y-36654D02*
Y-33740D01*
X14987Y-52536D02*
X34114Y-33409D01*
X13595Y-51144D02*
X34114Y-30625D01*
X-4618Y-14726D02*
X34114Y-53458D01*
X-4618Y-11942D02*
X34114Y-50674D01*
X-4618Y-17510D02*
X34114Y-56242D01*
Y-49803D02*
Y-45787D01*
Y-40669D02*
Y-36654D01*
Y-52716D02*
Y-49803D01*
Y-52716D02*
Y-49803D01*
X16379Y-53928D02*
X34114Y-36193D01*
X16379Y-53928D02*
X34114Y-36193D01*
X17771Y-55320D02*
X34114Y-38976D01*
X30770Y-14382D02*
X34057D01*
X3851Y-41401D02*
X28999Y-16253D01*
X1067Y-38617D02*
X26215Y-13469D01*
X-325Y-37225D02*
X24823Y-12077D01*
X2459Y-40009D02*
X27607Y-14861D01*
X34114Y-33740D02*
Y-29724D01*
X30236Y-16957D02*
X34057D01*
X6635Y-44184D02*
X33863Y-16957D01*
X5243Y-42792D02*
X31079Y-16957D01*
X21946Y-59496D02*
X34114Y-47328D01*
Y-56732D02*
Y-52716D01*
X24730Y-62280D02*
X34114Y-52896D01*
X23338Y-60888D02*
X34114Y-50112D01*
X-4618Y-31429D02*
X32429Y-68476D01*
X-4618Y-32931D02*
X30927Y-68476D01*
X-6816Y-34375D02*
X29483Y-70674D01*
X30394Y-71051D02*
X34057D01*
X30927Y-68476D02*
X34057D01*
X26122Y-63672D02*
X34114Y-55680D01*
X1742Y-99188D02*
X29955Y-70974D01*
X4525Y-99188D02*
X32662Y-71051D01*
X-14962Y-99188D02*
X21518Y-62708D01*
X-17746Y-99188D02*
X20126Y-61317D01*
X-9394Y-99188D02*
X24302Y-65492D01*
X-12178Y-99188D02*
X22910Y-64100D01*
X-22407Y-98281D02*
X17342Y-58533D01*
X-24263Y-97354D02*
X15950Y-57141D01*
X-20285Y-98943D02*
X18734Y-59925D01*
X-3826Y-99188D02*
X27085Y-68276D01*
X-6610Y-99188D02*
X25694Y-66884D01*
X-1042Y-99188D02*
X28477Y-69668D01*
X-21767Y-98546D02*
X-20175Y-98973D01*
X-23290Y-97915D02*
X-21767Y-98546D01*
X-20175Y-98973D02*
X-18541Y-99188D01*
X-30290Y-69974D02*
X-753Y-40437D01*
X-30290Y-67190D02*
X-2145Y-39045D01*
X-30290Y-75542D02*
X2031Y-43221D01*
X-30290Y-72758D02*
X639Y-41829D01*
X-30290Y-61623D02*
X-4929Y-36261D01*
X-30290Y-58839D02*
X-6321Y-34870D01*
X-30290Y-64407D02*
X-3537Y-37653D01*
X-30038Y-89210D02*
X8990Y-50181D01*
X-30290Y-86677D02*
X7598Y-48789D01*
X-28443Y-93182D02*
X11774Y-52965D01*
X-29373Y-91329D02*
X10382Y-51573D01*
X-30290Y-81110D02*
X4814Y-46005D01*
X-30290Y-78326D02*
X3422Y-44613D01*
X-30290Y-83894D02*
X6206Y-47397D01*
X-30290Y-47703D02*
X-7193Y-24606D01*
X-30290Y-44919D02*
X-7193Y-21822D01*
X-30290Y-53271D02*
X-7193Y-30174D01*
X-30290Y-50487D02*
X-7193Y-27390D01*
X-30290Y-39352D02*
X-7193Y-16254D01*
X-30290Y-36568D02*
X-7193Y-13470D01*
X-30290Y-42135D02*
X-7193Y-19038D01*
X-29649Y-90664D02*
X-29018Y-92187D01*
X-30075Y-89072D02*
X-29649Y-90664D01*
X-29018Y-92187D02*
X-28194Y-93615D01*
X-30290Y-56055D02*
X-7193Y-32958D01*
X-30290Y-87438D02*
Y-86614D01*
Y-87438D02*
X-30075Y-89072D01*
X-30290Y-44731D02*
X24166Y-99188D01*
X-30290Y-47515D02*
X21382Y-99188D01*
X-30290Y-50299D02*
X18598Y-99188D01*
X-30290Y-53083D02*
X15815Y-99188D01*
X-30290Y-36380D02*
X32518Y-99188D01*
X-30290Y-39164D02*
X29734Y-99188D01*
X-30290Y-41947D02*
X26950Y-99188D01*
X-25887Y-96194D02*
X14558Y-55749D01*
X-27281Y-94804D02*
X13166Y-54357D01*
X-25887Y-96194D02*
X14558Y-55749D01*
X-30290Y-64219D02*
X4679Y-99188D01*
X-30290Y-55867D02*
X13031Y-99188D01*
X-30290Y-58651D02*
X10247Y-99188D01*
X-30290Y-61435D02*
X7463Y-99188D01*
X-30290Y-75354D02*
X-6456Y-99188D01*
X-30290Y-78138D02*
X-9240Y-99188D01*
X-30290Y-80922D02*
X-12024Y-99188D01*
X-30290Y-83706D02*
X-14808Y-99188D01*
X-30290Y-67002D02*
X1895Y-99188D01*
X-30290Y-69786D02*
X-889Y-99188D01*
X-30290Y-72570D02*
X-3673Y-99188D01*
X-26025Y-96088D02*
X-24717Y-97091D01*
X-27190Y-94922D02*
X-26025Y-96088D01*
X-24717Y-97091D02*
X-23290Y-97915D01*
X-29923Y-89641D02*
X-20743Y-98820D01*
X-28194Y-93615D02*
X-27190Y-94922D01*
X-30290Y-86490D02*
X-17592Y-99188D01*
X200197Y-4724D02*
X201772D01*
X198425Y-2953D02*
X200197Y-4724D01*
X182087Y-2953D02*
X198425D01*
X200197Y4724D02*
X201772D01*
X198425Y2953D02*
X200197Y4724D01*
X182087Y2953D02*
X198425D01*
D17*
X182087Y-8858D02*
D03*
X176181D02*
D03*
X170276D02*
D03*
X164370D02*
D03*
X182087Y-2953D02*
D03*
X176181D02*
D03*
X170276D02*
D03*
X164370D02*
D03*
X182087Y2953D02*
D03*
X176181D02*
D03*
X170276D02*
D03*
X164370D02*
D03*
X182087Y8858D02*
D03*
X176181D02*
D03*
X170276D02*
D03*
X164370D02*
D03*
D32*
X156653Y6746D02*
X155635Y6702D01*
X154625Y6569D01*
X153630Y6348D01*
X152658Y6042D01*
X151717Y5652D01*
X150813Y5181D01*
X149953Y4634D01*
X149145Y4013D01*
X148394Y3325D01*
X147705Y2573D01*
X147085Y1765D01*
X146537Y905D01*
X146067Y2D01*
X145677Y-940D01*
X145370Y-1912D01*
X145150Y-2907D01*
X145017Y-3917D01*
X144973Y-4935D01*
X160433Y6746D02*
X161573Y6896D01*
X162636Y7336D01*
X163548Y8036D01*
X156653Y5065D02*
X155673Y5017D01*
X154703Y4873D01*
X153751Y4634D01*
X152827Y4304D01*
X151940Y3884D01*
X151098Y3380D01*
X150310Y2795D01*
X149583Y2136D01*
X148924Y1409D01*
X148339Y621D01*
X147834Y-221D01*
X147415Y-1108D01*
X147084Y-2032D01*
X146846Y-2984D01*
X146702Y-3955D01*
X146653Y-4935D01*
X163548Y3775D02*
X162636Y4475D01*
X161573Y4915D01*
X160433Y5065D01*
X135079Y-36024D02*
X136088Y-35980D01*
X137089Y-35848D01*
X138075Y-35629D01*
X139038Y-35326D01*
X139971Y-34939D01*
X140866Y-34473D01*
X141718Y-33930D01*
X142519Y-33316D01*
X143263Y-32633D01*
X143946Y-31889D01*
X144560Y-31088D01*
X145103Y-30236D01*
X145569Y-29340D01*
X145956Y-28408D01*
X146259Y-27445D01*
X146478Y-26459D01*
X146609Y-25458D01*
X146653Y-24449D01*
X135079Y-34343D02*
X136048Y-34295D01*
X137009Y-34152D01*
X137951Y-33917D01*
X138865Y-33589D01*
X139743Y-33174D01*
X140575Y-32675D01*
X141355Y-32097D01*
X142075Y-31445D01*
X142727Y-30725D01*
X143305Y-29945D01*
X143804Y-29113D01*
X144219Y-28235D01*
X144546Y-27321D01*
X144782Y-26379D01*
X144925Y-25419D01*
X144973Y-24449D01*
X138500Y-43020D02*
X139484Y-42987D01*
X140464Y-42891D01*
X141435Y-42731D01*
X142394Y-42507D01*
X143335Y-42221D01*
X144257Y-41875D01*
X145153Y-41468D01*
X146022Y-41004D01*
X146858Y-40484D01*
X147658Y-39911D01*
X148419Y-39287D01*
X149137Y-38614D01*
X149810Y-37895D01*
X150435Y-37134D01*
X151008Y-36334D01*
X151528Y-35498D01*
X151992Y-34630D01*
X152398Y-33733D01*
X152745Y-32812D01*
X153031Y-31870D01*
X153254Y-30911D01*
X153415Y-29940D01*
X153511Y-28960D01*
X153543Y-27976D01*
X160433Y-6746D02*
X159453Y-6816D01*
X158492Y-7025D01*
X157571Y-7369D01*
X156708Y-7840D01*
X155921Y-8429D01*
X155226Y-9124D01*
X154637Y-9911D01*
X154166Y-10774D01*
X153822Y-11695D01*
X153613Y-12655D01*
X153543Y-13636D01*
X163548Y-8036D02*
X162636Y-7336D01*
X161573Y-6896D01*
X160433Y-6746D01*
X138500Y-41339D02*
X139499Y-41301D01*
X140491Y-41189D01*
X141473Y-41004D01*
X142439Y-40745D01*
X143382Y-40415D01*
X144298Y-40015D01*
X145181Y-39548D01*
X146027Y-39017D01*
X146831Y-38423D01*
X147589Y-37772D01*
X148295Y-37065D01*
X148947Y-36308D01*
X149540Y-35504D01*
X150072Y-34657D01*
X150539Y-33774D01*
X150938Y-32858D01*
X151269Y-31915D01*
X151527Y-30950D01*
X151713Y-29968D01*
X151825Y-28975D01*
X151862Y-27976D01*
X160433Y-5065D02*
X159400Y-5127D01*
X158382Y-5314D01*
X157394Y-5622D01*
X156450Y-6047D01*
X155564Y-6582D01*
X154750Y-7220D01*
X154018Y-7952D01*
X153379Y-8767D01*
X152844Y-9653D01*
X152419Y-10597D01*
X152111Y-11585D01*
X151925Y-12603D01*
X151862Y-13636D01*
X160433Y-5065D02*
X161573Y-4915D01*
X162636Y-4475D01*
X163548Y-3775D01*
X68590Y-52087D02*
X69551Y-52003D01*
X70482Y-51753D01*
X71356Y-51345D01*
X72146Y-50792D01*
X72828Y-50111D01*
X73381Y-49321D01*
X73788Y-48447D01*
X74038Y-47516D01*
X74122Y-46555D01*
X77658Y-41339D02*
X76640Y-41439D01*
X75661Y-41736D01*
X74759Y-42218D01*
X73969Y-42867D01*
X73320Y-43657D01*
X72838Y-44559D01*
X72541Y-45537D01*
X72441Y-46555D01*
X68590Y-50406D02*
X69587Y-50274D01*
X70516Y-49890D01*
X71313Y-49278D01*
X71925Y-48480D01*
X72310Y-47552D01*
X72441Y-46555D01*
X77658Y-43020D02*
X76742Y-43140D01*
X75890Y-43493D01*
X75158Y-44055D01*
X74596Y-44787D01*
X74243Y-45640D01*
X74122Y-46555D01*
X173228Y0D02*
X176181Y-2953D01*
Y-2953D02*
Y-2953D01*
X163548Y-8036D02*
X164370Y-8858D01*
X163548Y3775D02*
X164370Y2953D01*
X144973Y-24449D02*
Y-4935D01*
X156653Y6746D02*
X160433D01*
X163548Y8036D02*
X164370Y8858D01*
X146653Y-24449D02*
Y-4935D01*
X156653Y5065D02*
X160433D01*
X53476Y-34343D02*
X56774D01*
X53504Y-36024D02*
X57470D01*
X52323Y-33189D02*
X53476Y-34343D01*
X57470Y-36024D02*
X135079D01*
X56774Y-34343D02*
X135079D01*
X56774Y-34343D02*
X56774Y-34343D01*
X52323Y-37205D02*
X53504Y-36024D01*
X57470D02*
X57470Y-36024D01*
X44055Y-37205D02*
X52323D01*
X44055Y-33189D02*
X52323D01*
X44055Y-49252D02*
X52323D01*
X44055Y-53268D02*
X52323D01*
X53504Y-52087D01*
X52323Y-49252D02*
X53476Y-50406D01*
X153543Y-27976D02*
Y-13636D01*
X151862Y-27976D02*
Y-13636D01*
X163548Y-3775D02*
X164370Y-2953D01*
X77658Y-41339D02*
X138500Y-41339D01*
X77658Y-43020D02*
X138500Y-43020D01*
X53504Y-52087D02*
X68590D01*
X53476Y-50406D02*
X68590D01*
X167323Y-5906D02*
X170276Y-2953D01*
X167323Y-16142D02*
Y-5906D01*
X17336Y13D02*
X18728Y1405D01*
X15945Y-1378D02*
X17336Y13D01*
X18728Y1405D02*
X20866D01*
X14173Y-1378D02*
X15945D01*
X20866Y1405D02*
X21358Y1897D01*
Y1969D01*
X13681Y-1870D02*
X14173Y-1378D01*
X13681Y-1969D02*
Y-1870D01*
X120089Y33258D02*
Y37215D01*
X120098Y33248D02*
X129409D01*
X120089Y33258D02*
X120098Y33248D01*
X120089Y37215D02*
X120098Y37224D01*
X79724Y33228D02*
X89035D01*
X79724Y33307D02*
Y37205D01*
Y33228D02*
Y33307D01*
X136713Y33268D02*
X140256D01*
X96358D02*
X99902D01*
X89075Y25787D02*
X89155Y25868D01*
X89075Y33268D02*
X92224D01*
X99921Y33287D02*
X109232D01*
X201772Y4724D02*
X210827D01*
X201772Y-4724D02*
X210827D01*
X140295Y33307D02*
X149606D01*
X113523Y19685D02*
X116043D01*
X149606Y33307D02*
X149606Y33307D01*
X111870D02*
X113523Y31654D01*
Y19685D02*
Y31654D01*
X109252Y33307D02*
X111870D01*
X129409Y33248D02*
X129449Y33287D01*
X140276D02*
X140295Y33307D01*
X129449Y33287D02*
X132598D01*
X129449Y25807D02*
X129529Y25887D01*
X99902Y33268D02*
X99921Y33287D01*
X109232D02*
X109252Y33307D01*
X89035Y33228D02*
X89075Y33268D01*
D33*
X165197Y22638D02*
D03*
X161575D02*
D03*
X165197Y18701D02*
D03*
X161575D02*
D03*
X165197Y-26575D02*
D03*
X161575D02*
D03*
X165197Y-30512D02*
D03*
X161575D02*
D03*
X165197Y-18701D02*
D03*
X161575D02*
D03*
X165197Y-22638D02*
D03*
X161575D02*
D03*
X109901Y19685D02*
D03*
X113523D02*
D03*
X115984Y-984D02*
D03*
X112362D02*
D03*
D34*
X102657Y-5217D02*
D03*
Y-7775D02*
D03*
Y-10335D02*
D03*
Y-12894D02*
D03*
Y-15453D02*
D03*
Y-18012D02*
D03*
Y-20571D02*
D03*
Y-23130D02*
D03*
Y-25689D02*
D03*
Y-28248D02*
D03*
X125689Y-5217D02*
D03*
Y-7775D02*
D03*
Y-10335D02*
D03*
Y-12894D02*
D03*
Y-15453D02*
D03*
Y-18012D02*
D03*
Y-20571D02*
D03*
Y-23130D02*
D03*
Y-25689D02*
D03*
Y-28248D02*
D03*
D35*
X42795Y-69764D02*
D03*
Y-24724D02*
D03*
Y-15669D02*
D03*
Y-78819D02*
D03*
X44055Y-33189D02*
D03*
Y-37205D02*
D03*
Y-41221D02*
D03*
Y-45236D02*
D03*
Y-49252D02*
D03*
Y-53268D02*
D03*
Y-57284D02*
D03*
Y-61299D02*
D03*
Y33189D02*
D03*
Y37205D02*
D03*
Y41221D02*
D03*
Y45236D02*
D03*
Y49252D02*
D03*
Y53268D02*
D03*
Y57284D02*
D03*
Y61299D02*
D03*
X42795Y15669D02*
D03*
Y78819D02*
D03*
Y69764D02*
D03*
Y24724D02*
D03*
D36*
X107382Y14862D02*
D03*
Y12303D02*
D03*
Y9744D02*
D03*
X116043D02*
D03*
Y14862D02*
D03*
D37*
X129409Y33248D02*
D03*
Y29508D02*
D03*
Y25768D02*
D03*
X140236D02*
D03*
Y33248D02*
D03*
X89035Y33228D02*
D03*
Y29488D02*
D03*
Y25748D02*
D03*
X99862D02*
D03*
Y33228D02*
D03*
D38*
X136713Y33268D02*
D03*
X132972D02*
D03*
X96358D02*
D03*
X92618D02*
D03*
X13681Y1969D02*
D03*
X9941D02*
D03*
X25098D02*
D03*
X21358D02*
D03*
Y-1969D02*
D03*
X25098D02*
D03*
X9941D02*
D03*
X13681D02*
D03*
X101772Y16043D02*
D03*
X98032D02*
D03*
X101772Y8563D02*
D03*
X98032D02*
D03*
D39*
X149606Y33307D02*
D03*
Y29685D02*
D03*
X145669Y33307D02*
D03*
Y29685D02*
D03*
X124016Y33307D02*
D03*
Y29685D02*
D03*
X120079Y33307D02*
D03*
Y29685D02*
D03*
X105315Y33307D02*
D03*
Y29685D02*
D03*
X109252Y33307D02*
D03*
Y29685D02*
D03*
X83661Y33307D02*
D03*
Y29685D02*
D03*
X79724Y33307D02*
D03*
Y29685D02*
D03*
X192421Y-1811D02*
D03*
Y1811D02*
D03*
D40*
X211614Y5512D02*
D03*
Y-5512D02*
D03*
D41*
X201772Y-4724D02*
D03*
Y4724D02*
D03*
D42*
X82846Y-169D02*
D03*
X74634Y8043D02*
D03*
D43*
X83194Y8391D02*
D03*
D44*
X93996Y12303D02*
D03*
Y16043D02*
D03*
Y12303D02*
D03*
Y8563D02*
D03*
D45*
X113523Y19685D02*
X116043D01*
X122047D01*
X140276Y33287D02*
X140295Y33307D01*
X149606D02*
X149606Y33307D01*
X154024D01*
X172138Y18701D02*
X173122Y19685D01*
X165197Y18701D02*
X172138D01*
X173122Y19685D02*
X173228D01*
X165197Y18701D02*
Y22638D01*
X136713Y33268D02*
X140256D01*
X140295Y33307D02*
X149606D01*
X161575Y-30512D02*
Y-26575D01*
Y-22638D01*
Y-18701D01*
Y-35591D02*
Y-30512D01*
X182087Y-35236D02*
Y-8858D01*
X175827Y29685D02*
X182087Y23425D01*
Y8858D02*
Y23425D01*
X161575Y29685D02*
X175827D01*
X161575Y18701D02*
Y29685D01*
X149606D02*
X161575D01*
X181980Y-35236D02*
X182087D01*
X161575Y-35591D02*
X181626D01*
X181980Y-35236D01*
D46*
X4961Y-16417D02*
D03*
Y-78071D02*
D03*
Y16417D02*
D03*
Y78071D02*
D03*
D47*
X68898Y86614D02*
D03*
Y-86614D02*
D03*
X202756D02*
D03*
Y86614D02*
D03*
D48*
X134843Y-12894D02*
D03*
X138779Y0D02*
D03*
X122047Y19685D02*
D03*
X176181Y-28248D02*
D03*
X170276Y-23130D02*
D03*
X179134Y0D02*
D03*
X173228D02*
D03*
X156496D02*
D03*
X173228Y19685D02*
D03*
X167323Y-16142D02*
D03*
X154024Y33307D02*
D03*
X161575Y29685D02*
D03*
Y-35591D02*
D03*
X182087Y-35236D02*
D03*
X53150Y27559D02*
D03*
X24094Y24724D02*
D03*
Y30394D02*
D03*
X53150Y19685D02*
D03*
X51575Y-8661D02*
D03*
X21358D02*
D03*
X17336Y13D02*
D03*
X13681Y8681D02*
D03*
X31811Y1969D02*
D03*
X120098Y37224D02*
D03*
X79724Y37205D02*
D03*
X31811Y24724D02*
D03*
X27953Y27559D02*
D03*
X33071Y57284D02*
D03*
Y37205D02*
D03*
Y33189D02*
D03*
X82793Y15992D02*
D03*
X134843Y-23130D02*
D03*
Y-28248D02*
D03*
X105315Y5413D02*
D03*
X101772Y19587D02*
D03*
X145689Y25610D02*
D03*
X124035D02*
D03*
X83661Y25591D02*
D03*
X105315D02*
D03*
X70866Y11811D02*
D03*
X202756Y-77165D02*
D03*
X196063Y-79921D02*
D03*
X193307Y-86614D02*
D03*
X196063Y-93307D02*
D03*
X202756Y-96063D02*
D03*
X209449Y-93307D02*
D03*
Y-79921D02*
D03*
X212205Y-86614D02*
D03*
X202756Y96063D02*
D03*
X196063Y93307D02*
D03*
X193307Y86614D02*
D03*
X196063Y79921D02*
D03*
X202756Y77165D02*
D03*
X209449Y79921D02*
D03*
Y93307D02*
D03*
X212205Y86614D02*
D03*
X120079Y-984D02*
D03*
X130905Y-7677D02*
D03*
X97146Y-28248D02*
D03*
X68898Y-77165D02*
D03*
X62205Y-79921D02*
D03*
X59449Y-86614D02*
D03*
X62205Y-93307D02*
D03*
X68898Y-96063D02*
D03*
X75590Y-93307D02*
D03*
Y-79921D02*
D03*
X78347Y-86614D02*
D03*
Y86614D02*
D03*
X75590Y93307D02*
D03*
Y79921D02*
D03*
X68898Y77165D02*
D03*
X62205Y79921D02*
D03*
X59449Y86614D02*
D03*
X62205Y93307D02*
D03*
X68898Y96063D02*
D03*
M02*
