G04*
G04 #@! TF.GenerationSoftware,Altium Limited,Altium Designer,23.9.2 (47)*
G04*
G04 Layer_Physical_Order=3*
G04 Layer_Color=16440176*
%FSLAX25Y25*%
%MOIN*%
G70*
G04*
G04 #@! TF.SameCoordinates,DB150F01-C1B0-45C9-8F7E-E1995157BF99*
G04*
G04*
G04 #@! TF.FilePolarity,Positive*
G04*
G01*
G75*
%ADD28C,0.01968*%
%ADD31C,0.01968*%
G36*
X97623Y74488D02*
X96638Y74292D01*
X96624Y74326D01*
X96177Y74774D01*
X95592Y75016D01*
X94959D01*
X94375Y74774D01*
X93927Y74326D01*
X92884D01*
X92436Y74774D01*
X91852Y75016D01*
X91219D01*
X90635Y74774D01*
X90187Y74326D01*
X89945Y73742D01*
Y73109D01*
X90187Y72524D01*
X90635Y72077D01*
Y71033D01*
X90187Y70586D01*
X89945Y70001D01*
Y69369D01*
X90187Y68784D01*
X90635Y68337D01*
X91219Y68094D01*
X91852D01*
X92436Y68337D01*
X92884Y68784D01*
X93126Y69369D01*
Y70001D01*
X92884Y70586D01*
X92436Y71033D01*
Y72077D01*
X92884Y72524D01*
X93927D01*
X94375Y72077D01*
X94959Y71835D01*
X95592D01*
X96177Y72077D01*
X96624Y72524D01*
X96638Y72558D01*
X97623Y72363D01*
Y40173D01*
X40173D01*
Y54252D01*
X41157Y54448D01*
X41171Y54414D01*
X41619Y53967D01*
X42203Y53724D01*
X42836D01*
X43421Y53967D01*
X43868Y54414D01*
X44110Y54999D01*
Y55631D01*
X43868Y56216D01*
X43421Y56663D01*
X42836Y56906D01*
X42203D01*
X41619Y56663D01*
X41171Y56216D01*
X41157Y56182D01*
X40173Y56378D01*
Y72363D01*
X41157Y72558D01*
X41171Y72524D01*
X41619Y72077D01*
X42203Y71835D01*
X42836D01*
X43421Y72077D01*
X43868Y72524D01*
X44560D01*
X45152Y71932D01*
Y70827D01*
X44912Y70586D01*
X44669Y70001D01*
Y69369D01*
X44912Y68784D01*
X45359Y68337D01*
X45943Y68094D01*
X46576D01*
X47161Y68337D01*
X47608Y68784D01*
X47850Y69369D01*
Y70001D01*
X47608Y70586D01*
X47161Y71033D01*
Y72077D01*
X47608Y72524D01*
X47850Y73109D01*
Y73742D01*
X47608Y74326D01*
X47161Y74774D01*
X46576Y75016D01*
X45943D01*
X45359Y74774D01*
X44912Y74326D01*
X43868D01*
X43421Y74774D01*
X42836Y75016D01*
X42203D01*
X41619Y74774D01*
X41171Y74326D01*
X41157Y74292D01*
X40173Y74488D01*
Y97623D01*
X97623D01*
Y74488D01*
D02*
G37*
G36*
X28725D02*
X27741Y74292D01*
X27726Y74326D01*
X27279Y74774D01*
X26694Y75016D01*
X26062D01*
X25477Y74774D01*
X25030Y74326D01*
X23986D01*
X23539Y74774D01*
X22954Y75016D01*
X22321D01*
X21737Y74774D01*
X21289Y74326D01*
X21047Y73742D01*
Y73109D01*
X21289Y72524D01*
X21737Y72077D01*
Y71033D01*
X21289Y70586D01*
X21047Y70001D01*
Y69369D01*
X21289Y68784D01*
X21737Y68337D01*
X22321Y68094D01*
X22954D01*
X23539Y68337D01*
X23986Y68784D01*
X24228Y69369D01*
Y70001D01*
X23986Y70586D01*
X23539Y71033D01*
Y72077D01*
X23986Y72524D01*
X25030D01*
X25477Y72077D01*
X26062Y71835D01*
X26694D01*
X27279Y72077D01*
X27726Y72524D01*
X27741Y72558D01*
X28725Y72363D01*
Y40173D01*
X-28725D01*
Y54252D01*
X-27740Y54448D01*
X-27726Y54414D01*
X-27279Y53967D01*
X-26694Y53724D01*
X-26062D01*
X-25477Y53967D01*
X-25030Y54414D01*
X-24787Y54999D01*
Y55631D01*
X-25030Y56216D01*
X-25477Y56663D01*
X-26062Y56906D01*
X-26694D01*
X-27279Y56663D01*
X-27726Y56216D01*
X-27740Y56182D01*
X-28725Y56378D01*
Y72363D01*
X-27740Y72558D01*
X-27726Y72524D01*
X-27279Y72077D01*
X-26694Y71835D01*
X-26062D01*
X-25477Y72077D01*
X-25030Y72524D01*
X-24338D01*
X-23745Y71932D01*
Y70827D01*
X-23986Y70586D01*
X-24228Y70001D01*
Y69369D01*
X-23986Y68784D01*
X-23539Y68337D01*
X-22954Y68094D01*
X-22321D01*
X-21737Y68337D01*
X-21289Y68784D01*
X-21047Y69369D01*
Y70001D01*
X-21289Y70586D01*
X-21737Y71033D01*
Y72077D01*
X-21289Y72524D01*
X-21047Y73109D01*
Y73742D01*
X-21289Y74326D01*
X-21737Y74774D01*
X-22321Y75016D01*
X-22954D01*
X-23539Y74774D01*
X-23986Y74326D01*
X-25030D01*
X-25477Y74774D01*
X-26062Y75016D01*
X-26694D01*
X-27279Y74774D01*
X-27726Y74326D01*
X-27740Y74292D01*
X-28725Y74488D01*
Y97623D01*
X28725D01*
Y74488D01*
D02*
G37*
G36*
X-40173D02*
X-41157Y74292D01*
X-41171Y74326D01*
X-41619Y74774D01*
X-42203Y75016D01*
X-42836D01*
X-43421Y74774D01*
X-43868Y74326D01*
X-44911D01*
X-45359Y74774D01*
X-45943Y75016D01*
X-46576D01*
X-47161Y74774D01*
X-47608Y74326D01*
X-47850Y73742D01*
Y73109D01*
X-47608Y72524D01*
X-47161Y72077D01*
Y71033D01*
X-47608Y70586D01*
X-47850Y70001D01*
Y69369D01*
X-47608Y68784D01*
X-47161Y68337D01*
X-46576Y68094D01*
X-45943D01*
X-45359Y68337D01*
X-44911Y68784D01*
X-44669Y69369D01*
Y70001D01*
X-44911Y70586D01*
X-45359Y71033D01*
Y72077D01*
X-44911Y72524D01*
X-43868D01*
X-43421Y72077D01*
X-42836Y71835D01*
X-42203D01*
X-41619Y72077D01*
X-41171Y72524D01*
X-41157Y72558D01*
X-40173Y72363D01*
Y40173D01*
X-97622D01*
Y54252D01*
X-96638Y54448D01*
X-96624Y54414D01*
X-96176Y53967D01*
X-95592Y53724D01*
X-94959D01*
X-94375Y53967D01*
X-93927Y54414D01*
X-93685Y54999D01*
Y55631D01*
X-93927Y56216D01*
X-94375Y56663D01*
X-94959Y56906D01*
X-95592D01*
X-96176Y56663D01*
X-96624Y56216D01*
X-96638Y56182D01*
X-97622Y56378D01*
Y72363D01*
X-96638Y72558D01*
X-96624Y72524D01*
X-96176Y72077D01*
X-95592Y71835D01*
X-94959D01*
X-94375Y72077D01*
X-93927Y72524D01*
X-93235D01*
X-92643Y71932D01*
Y70827D01*
X-92884Y70586D01*
X-93126Y70001D01*
Y69369D01*
X-92884Y68784D01*
X-92436Y68337D01*
X-91852Y68094D01*
X-91219D01*
X-90635Y68337D01*
X-90187Y68784D01*
X-89945Y69369D01*
Y70001D01*
X-90187Y70586D01*
X-90635Y71033D01*
Y72077D01*
X-90187Y72524D01*
X-89945Y73109D01*
Y73742D01*
X-90187Y74326D01*
X-90635Y74774D01*
X-91219Y75016D01*
X-91852D01*
X-92436Y74774D01*
X-92884Y74326D01*
X-93927D01*
X-94375Y74774D01*
X-94959Y75016D01*
X-95592D01*
X-96176Y74774D01*
X-96624Y74326D01*
X-96638Y74292D01*
X-97622Y74488D01*
Y97623D01*
X-40173D01*
Y74488D01*
D02*
G37*
G36*
Y5590D02*
X-41157Y5394D01*
X-41171Y5429D01*
X-41619Y5876D01*
X-42203Y6118D01*
X-42836D01*
X-43421Y5876D01*
X-43868Y5429D01*
X-44911D01*
X-45359Y5876D01*
X-45943Y6118D01*
X-46576D01*
X-47161Y5876D01*
X-47608Y5429D01*
X-47850Y4844D01*
Y4211D01*
X-47608Y3627D01*
X-47161Y3179D01*
Y2136D01*
X-47608Y1688D01*
X-47850Y1104D01*
Y471D01*
X-47608Y-114D01*
X-47161Y-561D01*
X-46576Y-803D01*
X-45943D01*
X-45359Y-561D01*
X-44911Y-114D01*
X-44669Y471D01*
Y1104D01*
X-44911Y1688D01*
X-45359Y2136D01*
Y3179D01*
X-44911Y3627D01*
X-43868D01*
X-43421Y3179D01*
X-42836Y2937D01*
X-42203D01*
X-41619Y3179D01*
X-41171Y3627D01*
X-41157Y3661D01*
X-40173Y3465D01*
Y-28725D01*
X-97622D01*
Y-14645D01*
X-96638Y-14449D01*
X-96624Y-14484D01*
X-96176Y-14931D01*
X-95592Y-15173D01*
X-94959D01*
X-94375Y-14931D01*
X-93927Y-14484D01*
X-93685Y-13899D01*
Y-13266D01*
X-93927Y-12682D01*
X-94375Y-12234D01*
X-94959Y-11992D01*
X-95592D01*
X-96176Y-12234D01*
X-96624Y-12682D01*
X-96638Y-12716D01*
X-97622Y-12520D01*
Y3465D01*
X-96638Y3661D01*
X-96624Y3627D01*
X-96176Y3179D01*
X-95592Y2937D01*
X-94959D01*
X-94375Y3179D01*
X-93927Y3627D01*
X-93235D01*
X-92643Y3034D01*
Y1929D01*
X-92884Y1688D01*
X-93126Y1104D01*
Y471D01*
X-92884Y-114D01*
X-92436Y-561D01*
X-91852Y-803D01*
X-91219D01*
X-90635Y-561D01*
X-90187Y-114D01*
X-89945Y471D01*
Y1104D01*
X-90187Y1688D01*
X-90635Y2136D01*
Y3179D01*
X-90187Y3627D01*
X-89945Y4211D01*
Y4844D01*
X-90187Y5429D01*
X-90635Y5876D01*
X-91219Y6118D01*
X-91852D01*
X-92436Y5876D01*
X-92884Y5429D01*
X-93927D01*
X-94375Y5876D01*
X-94959Y6118D01*
X-95592D01*
X-96176Y5876D01*
X-96624Y5429D01*
X-96638Y5394D01*
X-97622Y5590D01*
Y28725D01*
X-40173D01*
Y5590D01*
D02*
G37*
G36*
X97623Y5590D02*
X96638Y5394D01*
X96624Y5429D01*
X96177Y5876D01*
X95592Y6118D01*
X94959D01*
X94375Y5876D01*
X93927Y5429D01*
X92884D01*
X92436Y5876D01*
X91852Y6118D01*
X91219D01*
X90635Y5876D01*
X90187Y5429D01*
X89945Y4844D01*
Y4211D01*
X90187Y3627D01*
X90635Y3179D01*
Y2136D01*
X90187Y1688D01*
X89945Y1104D01*
Y471D01*
X90187Y-114D01*
X90635Y-561D01*
X91219Y-803D01*
X91852D01*
X92436Y-561D01*
X92884Y-114D01*
X93126Y471D01*
Y1104D01*
X92884Y1688D01*
X92436Y2136D01*
Y3179D01*
X92884Y3627D01*
X93927D01*
X94375Y3179D01*
X94959Y2937D01*
X95592D01*
X96177Y3179D01*
X96624Y3627D01*
X96638Y3661D01*
X97623Y3465D01*
Y-28725D01*
X40173D01*
Y-14645D01*
X41157Y-14449D01*
X41171Y-14484D01*
X41619Y-14931D01*
X42203Y-15173D01*
X42836D01*
X43421Y-14931D01*
X43868Y-14484D01*
X44110Y-13899D01*
Y-13266D01*
X43868Y-12682D01*
X43421Y-12234D01*
X42836Y-11992D01*
X42203D01*
X41619Y-12234D01*
X41171Y-12682D01*
X41157Y-12716D01*
X40173Y-12520D01*
Y3465D01*
X41157Y3661D01*
X41171Y3627D01*
X41619Y3179D01*
X42203Y2937D01*
X42836D01*
X43421Y3179D01*
X43868Y3627D01*
X44560D01*
X45152Y3034D01*
Y1929D01*
X44912Y1688D01*
X44669Y1104D01*
Y471D01*
X44912Y-114D01*
X45359Y-561D01*
X45943Y-803D01*
X46576D01*
X47161Y-561D01*
X47608Y-114D01*
X47850Y471D01*
Y1104D01*
X47608Y1688D01*
X47161Y2136D01*
Y3179D01*
X47608Y3627D01*
X47850Y4211D01*
Y4844D01*
X47608Y5429D01*
X47161Y5876D01*
X46576Y6118D01*
X45943D01*
X45359Y5876D01*
X44912Y5429D01*
X43868D01*
X43421Y5876D01*
X42836Y6118D01*
X42203D01*
X41619Y5876D01*
X41171Y5429D01*
X41157Y5394D01*
X40173Y5590D01*
Y28725D01*
X97623D01*
Y5590D01*
D02*
G37*
G36*
X28725D02*
X27741Y5394D01*
X27726Y5429D01*
X27279Y5876D01*
X26694Y6118D01*
X26062D01*
X25477Y5876D01*
X25030Y5429D01*
X23986D01*
X23539Y5876D01*
X22954Y6118D01*
X22321D01*
X21737Y5876D01*
X21289Y5429D01*
X21047Y4844D01*
Y4211D01*
X21289Y3627D01*
X21737Y3179D01*
Y2136D01*
X21289Y1688D01*
X21047Y1104D01*
Y471D01*
X21289Y-114D01*
X21737Y-561D01*
X22321Y-803D01*
X22954D01*
X23539Y-561D01*
X23986Y-114D01*
X24228Y471D01*
Y1104D01*
X23986Y1688D01*
X23539Y2136D01*
Y3179D01*
X23986Y3627D01*
X25030D01*
X25477Y3179D01*
X26062Y2937D01*
X26694D01*
X27279Y3179D01*
X27726Y3627D01*
X27741Y3661D01*
X28725Y3465D01*
Y-28725D01*
X-28725D01*
Y-14645D01*
X-27740Y-14449D01*
X-27726Y-14484D01*
X-27279Y-14931D01*
X-26694Y-15173D01*
X-26062D01*
X-25477Y-14931D01*
X-25030Y-14484D01*
X-24787Y-13899D01*
Y-13266D01*
X-25030Y-12682D01*
X-25477Y-12234D01*
X-26062Y-11992D01*
X-26694D01*
X-27279Y-12234D01*
X-27726Y-12682D01*
X-27740Y-12716D01*
X-28725Y-12520D01*
Y3465D01*
X-27740Y3661D01*
X-27726Y3627D01*
X-27279Y3179D01*
X-26694Y2937D01*
X-26062D01*
X-25477Y3179D01*
X-25030Y3627D01*
X-24338D01*
X-23745Y3034D01*
Y1929D01*
X-23986Y1688D01*
X-24228Y1104D01*
Y471D01*
X-23986Y-114D01*
X-23539Y-561D01*
X-22954Y-803D01*
X-22321D01*
X-21737Y-561D01*
X-21289Y-114D01*
X-21047Y471D01*
Y1104D01*
X-21289Y1688D01*
X-21737Y2136D01*
Y3179D01*
X-21289Y3627D01*
X-21047Y4211D01*
Y4844D01*
X-21289Y5429D01*
X-21737Y5876D01*
X-22321Y6118D01*
X-22954D01*
X-23539Y5876D01*
X-23986Y5429D01*
X-25030D01*
X-25477Y5876D01*
X-26062Y6118D01*
X-26694D01*
X-27279Y5876D01*
X-27726Y5429D01*
X-27740Y5394D01*
X-28725Y5590D01*
Y28725D01*
X28725D01*
Y5590D01*
D02*
G37*
G36*
X97623Y-63308D02*
X96638Y-63503D01*
X96624Y-63469D01*
X96177Y-63022D01*
X95592Y-62779D01*
X94959D01*
X94375Y-63022D01*
X93927Y-63469D01*
X92884D01*
X92436Y-63022D01*
X91852Y-62779D01*
X91219D01*
X90635Y-63022D01*
X90187Y-63469D01*
X89945Y-64054D01*
Y-64687D01*
X90187Y-65271D01*
X90635Y-65719D01*
Y-66762D01*
X90187Y-67209D01*
X89945Y-67794D01*
Y-68427D01*
X90187Y-69011D01*
X90635Y-69459D01*
X91219Y-69701D01*
X91852D01*
X92436Y-69459D01*
X92884Y-69011D01*
X93126Y-68427D01*
Y-67794D01*
X92884Y-67209D01*
X92436Y-66762D01*
Y-65719D01*
X92884Y-65271D01*
X93927D01*
X94375Y-65719D01*
X94959Y-65961D01*
X95592D01*
X96177Y-65719D01*
X96624Y-65271D01*
X96638Y-65237D01*
X97623Y-65433D01*
Y-97622D01*
X40173D01*
Y-83543D01*
X41157Y-83347D01*
X41171Y-83381D01*
X41619Y-83829D01*
X42203Y-84071D01*
X42836D01*
X43421Y-83829D01*
X43868Y-83381D01*
X44110Y-82797D01*
Y-82164D01*
X43868Y-81579D01*
X43421Y-81132D01*
X42836Y-80890D01*
X42203D01*
X41619Y-81132D01*
X41171Y-81579D01*
X41157Y-81614D01*
X40173Y-81418D01*
Y-65433D01*
X41157Y-65237D01*
X41171Y-65271D01*
X41619Y-65719D01*
X42203Y-65961D01*
X42836D01*
X43421Y-65719D01*
X43868Y-65271D01*
X44560D01*
X45152Y-65863D01*
Y-66969D01*
X44912Y-67209D01*
X44669Y-67794D01*
Y-68427D01*
X44912Y-69011D01*
X45359Y-69459D01*
X45943Y-69701D01*
X46576D01*
X47161Y-69459D01*
X47608Y-69011D01*
X47850Y-68427D01*
Y-67794D01*
X47608Y-67209D01*
X47161Y-66762D01*
Y-65719D01*
X47608Y-65271D01*
X47850Y-64687D01*
Y-64054D01*
X47608Y-63469D01*
X47161Y-63022D01*
X46576Y-62779D01*
X45943D01*
X45359Y-63022D01*
X44912Y-63469D01*
X43868D01*
X43421Y-63022D01*
X42836Y-62779D01*
X42203D01*
X41619Y-63022D01*
X41171Y-63469D01*
X41157Y-63503D01*
X40173Y-63308D01*
Y-40173D01*
X97623D01*
Y-63308D01*
D02*
G37*
G36*
X28725D02*
X27741Y-63503D01*
X27726Y-63469D01*
X27279Y-63022D01*
X26694Y-62779D01*
X26062D01*
X25477Y-63022D01*
X25030Y-63469D01*
X23986D01*
X23539Y-63022D01*
X22954Y-62779D01*
X22321D01*
X21737Y-63022D01*
X21289Y-63469D01*
X21047Y-64054D01*
Y-64687D01*
X21289Y-65271D01*
X21737Y-65719D01*
Y-66762D01*
X21289Y-67209D01*
X21047Y-67794D01*
Y-68427D01*
X21289Y-69011D01*
X21737Y-69459D01*
X22321Y-69701D01*
X22954D01*
X23539Y-69459D01*
X23986Y-69011D01*
X24228Y-68427D01*
Y-67794D01*
X23986Y-67209D01*
X23539Y-66762D01*
Y-65719D01*
X23986Y-65271D01*
X25030D01*
X25477Y-65719D01*
X26062Y-65961D01*
X26694D01*
X27279Y-65719D01*
X27726Y-65271D01*
X27741Y-65237D01*
X28725Y-65433D01*
Y-97622D01*
X-28725D01*
Y-83543D01*
X-27740Y-83347D01*
X-27726Y-83381D01*
X-27279Y-83829D01*
X-26694Y-84071D01*
X-26062D01*
X-25477Y-83829D01*
X-25030Y-83381D01*
X-24787Y-82797D01*
Y-82164D01*
X-25030Y-81579D01*
X-25477Y-81132D01*
X-26062Y-80890D01*
X-26694D01*
X-27279Y-81132D01*
X-27726Y-81579D01*
X-27740Y-81614D01*
X-28725Y-81418D01*
Y-65433D01*
X-27740Y-65237D01*
X-27726Y-65271D01*
X-27279Y-65719D01*
X-26694Y-65961D01*
X-26062D01*
X-25477Y-65719D01*
X-25030Y-65271D01*
X-24338D01*
X-23745Y-65863D01*
Y-66969D01*
X-23986Y-67209D01*
X-24228Y-67794D01*
Y-68427D01*
X-23986Y-69011D01*
X-23539Y-69459D01*
X-22954Y-69701D01*
X-22321D01*
X-21737Y-69459D01*
X-21289Y-69011D01*
X-21047Y-68427D01*
Y-67794D01*
X-21289Y-67209D01*
X-21737Y-66762D01*
Y-65719D01*
X-21289Y-65271D01*
X-21047Y-64687D01*
Y-64054D01*
X-21289Y-63469D01*
X-21737Y-63022D01*
X-22321Y-62779D01*
X-22954D01*
X-23539Y-63022D01*
X-23986Y-63469D01*
X-25030D01*
X-25477Y-63022D01*
X-26062Y-62779D01*
X-26694D01*
X-27279Y-63022D01*
X-27726Y-63469D01*
X-27740Y-63503D01*
X-28725Y-63308D01*
Y-40173D01*
X28725D01*
Y-63308D01*
D02*
G37*
G36*
X-40173D02*
X-41157Y-63503D01*
X-41171Y-63469D01*
X-41619Y-63022D01*
X-42203Y-62779D01*
X-42836D01*
X-43421Y-63022D01*
X-43868Y-63469D01*
X-44911D01*
X-45359Y-63022D01*
X-45943Y-62779D01*
X-46576D01*
X-47161Y-63022D01*
X-47608Y-63469D01*
X-47850Y-64054D01*
Y-64687D01*
X-47608Y-65271D01*
X-47161Y-65719D01*
Y-66762D01*
X-47608Y-67209D01*
X-47850Y-67794D01*
Y-68427D01*
X-47608Y-69011D01*
X-47161Y-69459D01*
X-46576Y-69701D01*
X-45943D01*
X-45359Y-69459D01*
X-44911Y-69011D01*
X-44669Y-68427D01*
Y-67794D01*
X-44911Y-67209D01*
X-45359Y-66762D01*
Y-65719D01*
X-44911Y-65271D01*
X-43868D01*
X-43421Y-65719D01*
X-42836Y-65961D01*
X-42203D01*
X-41619Y-65719D01*
X-41171Y-65271D01*
X-41157Y-65237D01*
X-40173Y-65433D01*
Y-97622D01*
X-97622D01*
Y-83543D01*
X-96638Y-83347D01*
X-96624Y-83381D01*
X-96176Y-83829D01*
X-95592Y-84071D01*
X-94959D01*
X-94375Y-83829D01*
X-93927Y-83381D01*
X-93685Y-82797D01*
Y-82164D01*
X-93927Y-81579D01*
X-94375Y-81132D01*
X-94959Y-80890D01*
X-95592D01*
X-96176Y-81132D01*
X-96624Y-81579D01*
X-96638Y-81614D01*
X-97622Y-81418D01*
Y-65433D01*
X-96638Y-65237D01*
X-96624Y-65271D01*
X-96176Y-65719D01*
X-95592Y-65961D01*
X-94959D01*
X-94375Y-65719D01*
X-93927Y-65271D01*
X-93235D01*
X-92643Y-65863D01*
Y-66969D01*
X-92884Y-67209D01*
X-93126Y-67794D01*
Y-68427D01*
X-92884Y-69011D01*
X-92436Y-69459D01*
X-91852Y-69701D01*
X-91219D01*
X-90635Y-69459D01*
X-90187Y-69011D01*
X-89945Y-68427D01*
Y-67794D01*
X-90187Y-67209D01*
X-90635Y-66762D01*
Y-65719D01*
X-90187Y-65271D01*
X-89945Y-64687D01*
Y-64054D01*
X-90187Y-63469D01*
X-90635Y-63022D01*
X-91219Y-62779D01*
X-91852D01*
X-92436Y-63022D01*
X-92884Y-63469D01*
X-93927D01*
X-94375Y-63022D01*
X-94959Y-62779D01*
X-95592D01*
X-96176Y-63022D01*
X-96624Y-63469D01*
X-96638Y-63503D01*
X-97622Y-63308D01*
Y-40173D01*
X-40173D01*
Y-63308D01*
D02*
G37*
%LPC*%
G36*
X91852Y93126D02*
X91219D01*
X90635Y92884D01*
X90187Y92436D01*
X89945Y91852D01*
Y91219D01*
X90187Y90635D01*
X90635Y90187D01*
X91219Y89945D01*
X91852D01*
X92436Y90187D01*
X92884Y90635D01*
X93126Y91219D01*
Y91852D01*
X92884Y92436D01*
X92436Y92884D01*
X91852Y93126D01*
D02*
G37*
G36*
X82797D02*
X82164D01*
X81579Y92884D01*
X81132Y92436D01*
X80890Y91852D01*
Y91219D01*
X81132Y90635D01*
X81579Y90187D01*
X82164Y89945D01*
X82797D01*
X83381Y90187D01*
X83829Y90635D01*
X84071Y91219D01*
Y91852D01*
X83829Y92436D01*
X83381Y92884D01*
X82797Y93126D01*
D02*
G37*
G36*
X73742D02*
X73109D01*
X72524Y92884D01*
X72077Y92436D01*
X71835Y91852D01*
Y91219D01*
X72077Y90635D01*
X72524Y90187D01*
X73109Y89945D01*
X73742D01*
X74326Y90187D01*
X74774Y90635D01*
X75016Y91219D01*
Y91852D01*
X74774Y92436D01*
X74326Y92884D01*
X73742Y93126D01*
D02*
G37*
G36*
X64687D02*
X64054D01*
X63469Y92884D01*
X63022Y92436D01*
X62779Y91852D01*
Y91219D01*
X63022Y90635D01*
X63469Y90187D01*
X64054Y89945D01*
X64687D01*
X65271Y90187D01*
X65719Y90635D01*
X65961Y91219D01*
Y91852D01*
X65719Y92436D01*
X65271Y92884D01*
X64687Y93126D01*
D02*
G37*
G36*
X55631D02*
X54999D01*
X54414Y92884D01*
X53967Y92436D01*
X53724Y91852D01*
Y91219D01*
X53967Y90635D01*
X54414Y90187D01*
X54999Y89945D01*
X55631D01*
X56216Y90187D01*
X56663Y90635D01*
X56906Y91219D01*
Y91852D01*
X56663Y92436D01*
X56216Y92884D01*
X55631Y93126D01*
D02*
G37*
G36*
X46576D02*
X45943D01*
X45359Y92884D01*
X44912Y92436D01*
X44669Y91852D01*
Y91219D01*
X44912Y90635D01*
X45359Y90187D01*
X45943Y89945D01*
X46576D01*
X47161Y90187D01*
X47608Y90635D01*
X47850Y91219D01*
Y91852D01*
X47608Y92436D01*
X47161Y92884D01*
X46576Y93126D01*
D02*
G37*
G36*
X91852Y84071D02*
X91219D01*
X90635Y83829D01*
X90187Y83381D01*
X89945Y82797D01*
Y82164D01*
X90187Y81579D01*
X90635Y81132D01*
X91219Y80890D01*
X91852D01*
X92436Y81132D01*
X92884Y81579D01*
X93126Y82164D01*
Y82797D01*
X92884Y83381D01*
X92436Y83829D01*
X91852Y84071D01*
D02*
G37*
G36*
X46576D02*
X45943D01*
X45359Y83829D01*
X44912Y83381D01*
X44669Y82797D01*
Y82164D01*
X44912Y81579D01*
X45359Y81132D01*
X45943Y80890D01*
X46576D01*
X47161Y81132D01*
X47608Y81579D01*
X47850Y82164D01*
Y82797D01*
X47608Y83381D01*
X47161Y83829D01*
X46576Y84071D01*
D02*
G37*
G36*
X64883Y88598D02*
X64251D01*
X63666Y88356D01*
X63218Y87909D01*
X62976Y87324D01*
Y86691D01*
X63156Y86259D01*
Y81687D01*
X53362Y71894D01*
X52378Y72265D01*
X52136Y72850D01*
X51688Y73297D01*
X51104Y73539D01*
X50471D01*
X49886Y73297D01*
X49439Y72850D01*
X49197Y72265D01*
Y71632D01*
X49439Y71048D01*
X49886Y70600D01*
X50471Y70358D01*
X50843Y69374D01*
X50319Y68850D01*
X49886Y68671D01*
X49439Y68224D01*
X49197Y67639D01*
Y67006D01*
X49439Y66422D01*
X49886Y65974D01*
X50471Y65732D01*
X51104D01*
X51688Y65974D01*
X52136Y66422D01*
X52315Y66854D01*
X65565Y80104D01*
X65871Y80562D01*
X65978Y81102D01*
Y86259D01*
X66158Y86691D01*
Y87324D01*
X65915Y87909D01*
X65468Y88356D01*
X64883Y88598D01*
D02*
G37*
G36*
X73545D02*
X72912D01*
X72327Y88356D01*
X71880Y87909D01*
X71638Y87324D01*
Y86691D01*
X71817Y86259D01*
Y81102D01*
X71924Y80562D01*
X72230Y80104D01*
X79583Y72752D01*
X79422Y72172D01*
X79215Y71728D01*
X78725Y71526D01*
X78278Y71078D01*
X78035Y70494D01*
Y69861D01*
X78278Y69276D01*
X78725Y68829D01*
X79310Y68587D01*
X79942D01*
X80483Y67745D01*
X80541Y67603D01*
X80989Y67156D01*
X81573Y66913D01*
X82206D01*
X82791Y67156D01*
X83238Y67603D01*
X83268Y67675D01*
X84390Y67945D01*
X85480Y66854D01*
X85659Y66422D01*
X86107Y65974D01*
X86691Y65732D01*
X87324D01*
X87909Y65974D01*
X88356Y66422D01*
X88598Y67006D01*
Y67639D01*
X88356Y68224D01*
X87909Y68671D01*
X87476Y68850D01*
X74640Y81687D01*
Y86259D01*
X74819Y86691D01*
Y87324D01*
X74577Y87909D01*
X74129Y88356D01*
X73545Y88598D01*
D02*
G37*
G36*
X56616Y61236D02*
X55983D01*
X55398Y60994D01*
X54951Y60547D01*
X54709Y59962D01*
Y59329D01*
X54951Y58745D01*
X55398Y58297D01*
X55983Y58055D01*
X56616D01*
X57200Y58297D01*
X57648Y58745D01*
X57890Y59329D01*
Y59962D01*
X57648Y60547D01*
X57200Y60994D01*
X56616Y61236D01*
D02*
G37*
G36*
X86673Y63144D02*
X86040D01*
X85456Y62902D01*
X85008Y62454D01*
X84766Y61870D01*
Y61237D01*
X85008Y60652D01*
X85456Y60205D01*
X86040Y59963D01*
X86565D01*
X86889Y59730D01*
X87386Y59193D01*
Y58739D01*
X87628Y58154D01*
X88072Y57711D01*
X88071Y57688D01*
X87870Y56726D01*
X83229D01*
X82797Y56906D01*
X82164D01*
X81731Y56726D01*
X69784D01*
X69243Y56619D01*
X68786Y56313D01*
X68429Y55957D01*
X68149Y55840D01*
X60592D01*
X60159Y56020D01*
X59526D01*
X58942Y55778D01*
X58494Y55330D01*
X58252Y54746D01*
Y54113D01*
X58494Y53528D01*
X58942Y53081D01*
X59526Y52839D01*
X60159D01*
X60592Y53018D01*
X63065D01*
X63296Y52513D01*
X63367Y52034D01*
X63022Y51688D01*
X62779Y51104D01*
Y50471D01*
X63022Y49886D01*
X63469Y49439D01*
X64054Y49197D01*
X64687D01*
X65271Y49439D01*
X65719Y49886D01*
X65961Y50471D01*
Y51104D01*
X65719Y51688D01*
X65373Y52034D01*
X65444Y52513D01*
X65675Y53018D01*
X68149D01*
X68581Y52839D01*
X69214D01*
X69799Y53081D01*
X70246Y53528D01*
X70402Y53904D01*
X81731D01*
X82164Y53724D01*
X82797D01*
X83229Y53904D01*
X90786D01*
X91219Y53724D01*
X91852D01*
X92436Y53967D01*
X92884Y54414D01*
X93126Y54999D01*
Y55631D01*
X92884Y56216D01*
X92436Y56663D01*
X91852Y56906D01*
X91219D01*
X91027Y56826D01*
X90546Y57002D01*
X90302Y58131D01*
X90325Y58154D01*
X90567Y58739D01*
Y59372D01*
X90325Y59956D01*
X89877Y60404D01*
X89293Y60646D01*
X88767D01*
X88444Y60879D01*
X87947Y61416D01*
Y61870D01*
X87705Y62454D01*
X87257Y62902D01*
X86673Y63144D01*
D02*
G37*
G36*
X55631Y56906D02*
X54999D01*
X54414Y56663D01*
X53967Y56216D01*
X53724Y55631D01*
Y54999D01*
X53967Y54414D01*
X54414Y53967D01*
X54999Y53724D01*
X55631D01*
X56216Y53967D01*
X56663Y54414D01*
X56906Y54999D01*
Y55631D01*
X56663Y56216D01*
X56216Y56663D01*
X55631Y56906D01*
D02*
G37*
G36*
Y52378D02*
X54999D01*
X54414Y52136D01*
X53967Y51688D01*
X53724Y51104D01*
Y50471D01*
X53967Y49886D01*
X54414Y49439D01*
X54999Y49197D01*
X55631D01*
X56216Y49439D01*
X56663Y49886D01*
X56906Y50471D01*
Y51104D01*
X56663Y51688D01*
X56216Y52136D01*
X55631Y52378D01*
D02*
G37*
G36*
X46576Y47850D02*
X45943D01*
X45359Y47608D01*
X44912Y47161D01*
X44669Y46576D01*
Y45943D01*
X44912Y45359D01*
X45359Y44912D01*
X45943Y44669D01*
X46576D01*
X47161Y44912D01*
X47608Y45359D01*
X47850Y45943D01*
Y46576D01*
X47608Y47161D01*
X47161Y47608D01*
X46576Y47850D01*
D02*
G37*
G36*
X73742Y47850D02*
X73109D01*
X72524Y47608D01*
X72077Y47161D01*
X71835Y46576D01*
Y45943D01*
X72077Y45359D01*
X72524Y44912D01*
X73109Y44669D01*
X73742D01*
X74326Y44912D01*
X74774Y45359D01*
X75016Y45943D01*
Y46576D01*
X74774Y47161D01*
X74326Y47608D01*
X73742Y47850D01*
D02*
G37*
G36*
X64687D02*
X64054D01*
X63469Y47608D01*
X63022Y47161D01*
X62779Y46576D01*
Y45943D01*
X63022Y45359D01*
X63469Y44912D01*
X64054Y44669D01*
X64687D01*
X65271Y44912D01*
X65719Y45359D01*
X65961Y45943D01*
Y46576D01*
X65719Y47161D01*
X65271Y47608D01*
X64687Y47850D01*
D02*
G37*
G36*
X22954Y93126D02*
X22321D01*
X21737Y92884D01*
X21289Y92436D01*
X21047Y91852D01*
Y91219D01*
X21289Y90635D01*
X21737Y90187D01*
X22321Y89945D01*
X22954D01*
X23539Y90187D01*
X23986Y90635D01*
X24228Y91219D01*
Y91852D01*
X23986Y92436D01*
X23539Y92884D01*
X22954Y93126D01*
D02*
G37*
G36*
X13899D02*
X13266D01*
X12682Y92884D01*
X12234Y92436D01*
X11992Y91852D01*
Y91219D01*
X12234Y90635D01*
X12682Y90187D01*
X13266Y89945D01*
X13899D01*
X14484Y90187D01*
X14931Y90635D01*
X15173Y91219D01*
Y91852D01*
X14931Y92436D01*
X14484Y92884D01*
X13899Y93126D01*
D02*
G37*
G36*
X4844D02*
X4211D01*
X3627Y92884D01*
X3179Y92436D01*
X2937Y91852D01*
Y91219D01*
X3179Y90635D01*
X3627Y90187D01*
X4211Y89945D01*
X4844D01*
X5429Y90187D01*
X5876Y90635D01*
X6118Y91219D01*
Y91852D01*
X5876Y92436D01*
X5429Y92884D01*
X4844Y93126D01*
D02*
G37*
G36*
X-4211D02*
X-4844D01*
X-5429Y92884D01*
X-5876Y92436D01*
X-6118Y91852D01*
Y91219D01*
X-5876Y90635D01*
X-5429Y90187D01*
X-4844Y89945D01*
X-4211D01*
X-3627Y90187D01*
X-3179Y90635D01*
X-2937Y91219D01*
Y91852D01*
X-3179Y92436D01*
X-3627Y92884D01*
X-4211Y93126D01*
D02*
G37*
G36*
X-13266D02*
X-13899D01*
X-14484Y92884D01*
X-14931Y92436D01*
X-15173Y91852D01*
Y91219D01*
X-14931Y90635D01*
X-14484Y90187D01*
X-13899Y89945D01*
X-13266D01*
X-12682Y90187D01*
X-12234Y90635D01*
X-11992Y91219D01*
Y91852D01*
X-12234Y92436D01*
X-12682Y92884D01*
X-13266Y93126D01*
D02*
G37*
G36*
X-22321D02*
X-22954D01*
X-23539Y92884D01*
X-23986Y92436D01*
X-24228Y91852D01*
Y91219D01*
X-23986Y90635D01*
X-23539Y90187D01*
X-22954Y89945D01*
X-22321D01*
X-21737Y90187D01*
X-21289Y90635D01*
X-21047Y91219D01*
Y91852D01*
X-21289Y92436D01*
X-21737Y92884D01*
X-22321Y93126D01*
D02*
G37*
G36*
X22954Y84071D02*
X22321D01*
X21737Y83829D01*
X21289Y83381D01*
X21047Y82797D01*
Y82164D01*
X21289Y81579D01*
X21737Y81132D01*
X22321Y80890D01*
X22954D01*
X23539Y81132D01*
X23986Y81579D01*
X24228Y82164D01*
Y82797D01*
X23986Y83381D01*
X23539Y83829D01*
X22954Y84071D01*
D02*
G37*
G36*
X-22321D02*
X-22954D01*
X-23539Y83829D01*
X-23986Y83381D01*
X-24228Y82797D01*
Y82164D01*
X-23986Y81579D01*
X-23539Y81132D01*
X-22954Y80890D01*
X-22321D01*
X-21737Y81132D01*
X-21289Y81579D01*
X-21047Y82164D01*
Y82797D01*
X-21289Y83381D01*
X-21737Y83829D01*
X-22321Y84071D01*
D02*
G37*
G36*
X-4014Y88598D02*
X-4647D01*
X-5232Y88356D01*
X-5679Y87909D01*
X-5921Y87324D01*
Y86691D01*
X-5742Y86259D01*
Y81687D01*
X-15535Y71894D01*
X-16520Y72265D01*
X-16762Y72850D01*
X-17209Y73297D01*
X-17794Y73539D01*
X-18427D01*
X-19011Y73297D01*
X-19459Y72850D01*
X-19701Y72265D01*
Y71632D01*
X-19459Y71048D01*
X-19011Y70600D01*
X-18427Y70358D01*
X-18055Y69374D01*
X-18579Y68850D01*
X-19011Y68671D01*
X-19459Y68224D01*
X-19701Y67639D01*
Y67006D01*
X-19459Y66422D01*
X-19011Y65974D01*
X-18427Y65732D01*
X-17794D01*
X-17209Y65974D01*
X-16762Y66422D01*
X-16583Y66854D01*
X-3333Y80104D01*
X-3027Y80562D01*
X-2919Y81102D01*
Y86259D01*
X-2740Y86691D01*
Y87324D01*
X-2982Y87909D01*
X-3430Y88356D01*
X-4014Y88598D01*
D02*
G37*
G36*
X4647D02*
X4014D01*
X3430Y88356D01*
X2982Y87909D01*
X2740Y87324D01*
Y86691D01*
X2919Y86259D01*
Y81102D01*
X3027Y80562D01*
X3333Y80104D01*
X10685Y72752D01*
X10524Y72172D01*
X10317Y71728D01*
X9827Y71526D01*
X9380Y71078D01*
X9138Y70494D01*
Y69861D01*
X9380Y69276D01*
X9827Y68829D01*
X10412Y68587D01*
X11045D01*
X11585Y67745D01*
X11644Y67603D01*
X12091Y67156D01*
X12676Y66913D01*
X13308D01*
X13893Y67156D01*
X14341Y67603D01*
X14370Y67675D01*
X15492Y67945D01*
X16583Y66854D01*
X16762Y66422D01*
X17209Y65974D01*
X17794Y65732D01*
X18427D01*
X19011Y65974D01*
X19459Y66422D01*
X19701Y67006D01*
Y67639D01*
X19459Y68224D01*
X19011Y68671D01*
X18579Y68850D01*
X5742Y81687D01*
Y86259D01*
X5921Y86691D01*
Y87324D01*
X5679Y87909D01*
X5232Y88356D01*
X4647Y88598D01*
D02*
G37*
G36*
X-12282Y61236D02*
X-12915D01*
X-13499Y60994D01*
X-13947Y60547D01*
X-14189Y59962D01*
Y59329D01*
X-13947Y58745D01*
X-13499Y58297D01*
X-12915Y58055D01*
X-12282D01*
X-11698Y58297D01*
X-11250Y58745D01*
X-11008Y59329D01*
Y59962D01*
X-11250Y60547D01*
X-11698Y60994D01*
X-12282Y61236D01*
D02*
G37*
G36*
X17775Y63144D02*
X17142D01*
X16558Y62902D01*
X16111Y62454D01*
X15868Y61870D01*
Y61237D01*
X16111Y60652D01*
X16558Y60205D01*
X17142Y59963D01*
X17668D01*
X17991Y59730D01*
X18488Y59193D01*
Y58739D01*
X18730Y58154D01*
X19174Y57711D01*
X19174Y57688D01*
X18973Y56726D01*
X14332D01*
X13899Y56906D01*
X13266D01*
X12834Y56726D01*
X886D01*
X346Y56619D01*
X-112Y56313D01*
X-468Y55957D01*
X-749Y55840D01*
X-8306D01*
X-8739Y56020D01*
X-9371D01*
X-9956Y55778D01*
X-10403Y55330D01*
X-10646Y54746D01*
Y54113D01*
X-10403Y53528D01*
X-9956Y53081D01*
X-9371Y52839D01*
X-8739D01*
X-8306Y53018D01*
X-5833D01*
X-5601Y52513D01*
X-5531Y52034D01*
X-5876Y51688D01*
X-6118Y51104D01*
Y50471D01*
X-5876Y49886D01*
X-5429Y49439D01*
X-4844Y49197D01*
X-4211D01*
X-3627Y49439D01*
X-3179Y49886D01*
X-2937Y50471D01*
Y51104D01*
X-3179Y51688D01*
X-3524Y52034D01*
X-3454Y52513D01*
X-3223Y53018D01*
X-749D01*
X-316Y52839D01*
X316D01*
X901Y53081D01*
X1348Y53528D01*
X1504Y53904D01*
X12834D01*
X13266Y53724D01*
X13899D01*
X14332Y53904D01*
X21889D01*
X22321Y53724D01*
X22954D01*
X23539Y53967D01*
X23986Y54414D01*
X24228Y54999D01*
Y55631D01*
X23986Y56216D01*
X23539Y56663D01*
X22954Y56906D01*
X22321D01*
X22129Y56826D01*
X21648Y57002D01*
X21404Y58131D01*
X21427Y58154D01*
X21669Y58739D01*
Y59372D01*
X21427Y59956D01*
X20980Y60404D01*
X20395Y60646D01*
X19870D01*
X19547Y60879D01*
X19049Y61416D01*
Y61870D01*
X18807Y62454D01*
X18360Y62902D01*
X17775Y63144D01*
D02*
G37*
G36*
X-13266Y56906D02*
X-13899D01*
X-14484Y56663D01*
X-14931Y56216D01*
X-15173Y55631D01*
Y54999D01*
X-14931Y54414D01*
X-14484Y53967D01*
X-13899Y53724D01*
X-13266D01*
X-12682Y53967D01*
X-12234Y54414D01*
X-11992Y54999D01*
Y55631D01*
X-12234Y56216D01*
X-12682Y56663D01*
X-13266Y56906D01*
D02*
G37*
G36*
Y52378D02*
X-13899D01*
X-14484Y52136D01*
X-14931Y51688D01*
X-15173Y51104D01*
Y50471D01*
X-14931Y49886D01*
X-14484Y49439D01*
X-13899Y49197D01*
X-13266D01*
X-12682Y49439D01*
X-12234Y49886D01*
X-11992Y50471D01*
Y51104D01*
X-12234Y51688D01*
X-12682Y52136D01*
X-13266Y52378D01*
D02*
G37*
G36*
X-22321Y47850D02*
X-22954D01*
X-23539Y47608D01*
X-23986Y47161D01*
X-24228Y46576D01*
Y45943D01*
X-23986Y45359D01*
X-23539Y44912D01*
X-22954Y44669D01*
X-22321D01*
X-21737Y44912D01*
X-21289Y45359D01*
X-21047Y45943D01*
Y46576D01*
X-21289Y47161D01*
X-21737Y47608D01*
X-22321Y47850D01*
D02*
G37*
G36*
X4844Y47850D02*
X4211D01*
X3627Y47608D01*
X3179Y47161D01*
X2937Y46576D01*
Y45943D01*
X3179Y45359D01*
X3627Y44912D01*
X4211Y44669D01*
X4844D01*
X5429Y44912D01*
X5876Y45359D01*
X6118Y45943D01*
Y46576D01*
X5876Y47161D01*
X5429Y47608D01*
X4844Y47850D01*
D02*
G37*
G36*
X-4211D02*
X-4844D01*
X-5429Y47608D01*
X-5876Y47161D01*
X-6118Y46576D01*
Y45943D01*
X-5876Y45359D01*
X-5429Y44912D01*
X-4844Y44669D01*
X-4211D01*
X-3627Y44912D01*
X-3179Y45359D01*
X-2937Y45943D01*
Y46576D01*
X-3179Y47161D01*
X-3627Y47608D01*
X-4211Y47850D01*
D02*
G37*
G36*
X-45943Y93126D02*
X-46576D01*
X-47161Y92884D01*
X-47608Y92436D01*
X-47850Y91852D01*
Y91219D01*
X-47608Y90635D01*
X-47161Y90187D01*
X-46576Y89945D01*
X-45943D01*
X-45359Y90187D01*
X-44911Y90635D01*
X-44669Y91219D01*
Y91852D01*
X-44911Y92436D01*
X-45359Y92884D01*
X-45943Y93126D01*
D02*
G37*
G36*
X-54999D02*
X-55631D01*
X-56216Y92884D01*
X-56663Y92436D01*
X-56906Y91852D01*
Y91219D01*
X-56663Y90635D01*
X-56216Y90187D01*
X-55631Y89945D01*
X-54999D01*
X-54414Y90187D01*
X-53966Y90635D01*
X-53724Y91219D01*
Y91852D01*
X-53966Y92436D01*
X-54414Y92884D01*
X-54999Y93126D01*
D02*
G37*
G36*
X-64054D02*
X-64687D01*
X-65271Y92884D01*
X-65719Y92436D01*
X-65961Y91852D01*
Y91219D01*
X-65719Y90635D01*
X-65271Y90187D01*
X-64687Y89945D01*
X-64054D01*
X-63469Y90187D01*
X-63022Y90635D01*
X-62779Y91219D01*
Y91852D01*
X-63022Y92436D01*
X-63469Y92884D01*
X-64054Y93126D01*
D02*
G37*
G36*
X-73109D02*
X-73742D01*
X-74326Y92884D01*
X-74774Y92436D01*
X-75016Y91852D01*
Y91219D01*
X-74774Y90635D01*
X-74326Y90187D01*
X-73742Y89945D01*
X-73109D01*
X-72524Y90187D01*
X-72077Y90635D01*
X-71835Y91219D01*
Y91852D01*
X-72077Y92436D01*
X-72524Y92884D01*
X-73109Y93126D01*
D02*
G37*
G36*
X-82164D02*
X-82797D01*
X-83381Y92884D01*
X-83829Y92436D01*
X-84071Y91852D01*
Y91219D01*
X-83829Y90635D01*
X-83381Y90187D01*
X-82797Y89945D01*
X-82164D01*
X-81579Y90187D01*
X-81132Y90635D01*
X-80890Y91219D01*
Y91852D01*
X-81132Y92436D01*
X-81579Y92884D01*
X-82164Y93126D01*
D02*
G37*
G36*
X-91219D02*
X-91852D01*
X-92436Y92884D01*
X-92884Y92436D01*
X-93126Y91852D01*
Y91219D01*
X-92884Y90635D01*
X-92436Y90187D01*
X-91852Y89945D01*
X-91219D01*
X-90635Y90187D01*
X-90187Y90635D01*
X-89945Y91219D01*
Y91852D01*
X-90187Y92436D01*
X-90635Y92884D01*
X-91219Y93126D01*
D02*
G37*
G36*
X-45943Y84071D02*
X-46576D01*
X-47161Y83829D01*
X-47608Y83381D01*
X-47850Y82797D01*
Y82164D01*
X-47608Y81579D01*
X-47161Y81132D01*
X-46576Y80890D01*
X-45943D01*
X-45359Y81132D01*
X-44911Y81579D01*
X-44669Y82164D01*
Y82797D01*
X-44911Y83381D01*
X-45359Y83829D01*
X-45943Y84071D01*
D02*
G37*
G36*
X-91219D02*
X-91852D01*
X-92436Y83829D01*
X-92884Y83381D01*
X-93126Y82797D01*
Y82164D01*
X-92884Y81579D01*
X-92436Y81132D01*
X-91852Y80890D01*
X-91219D01*
X-90635Y81132D01*
X-90187Y81579D01*
X-89945Y82164D01*
Y82797D01*
X-90187Y83381D01*
X-90635Y83829D01*
X-91219Y84071D01*
D02*
G37*
G36*
X-72912Y88598D02*
X-73545D01*
X-74129Y88356D01*
X-74577Y87909D01*
X-74819Y87324D01*
Y86691D01*
X-74640Y86259D01*
Y81687D01*
X-84433Y71894D01*
X-85417Y72265D01*
X-85659Y72850D01*
X-86107Y73297D01*
X-86691Y73539D01*
X-87324D01*
X-87909Y73297D01*
X-88356Y72850D01*
X-88598Y72265D01*
Y71632D01*
X-88356Y71048D01*
X-87909Y70600D01*
X-87324Y70358D01*
X-86953Y69374D01*
X-87476Y68850D01*
X-87909Y68671D01*
X-88356Y68224D01*
X-88598Y67639D01*
Y67006D01*
X-88356Y66422D01*
X-87909Y65974D01*
X-87324Y65732D01*
X-86691D01*
X-86107Y65974D01*
X-85659Y66422D01*
X-85480Y66854D01*
X-72230Y80104D01*
X-71924Y80562D01*
X-71817Y81102D01*
Y86259D01*
X-71638Y86691D01*
Y87324D01*
X-71880Y87909D01*
X-72327Y88356D01*
X-72912Y88598D01*
D02*
G37*
G36*
X-64250D02*
X-64883D01*
X-65468Y88356D01*
X-65915Y87909D01*
X-66158Y87324D01*
Y86691D01*
X-65978Y86259D01*
Y81102D01*
X-65871Y80562D01*
X-65565Y80104D01*
X-58213Y72752D01*
X-58373Y72172D01*
X-58581Y71728D01*
X-59070Y71526D01*
X-59518Y71078D01*
X-59760Y70494D01*
Y69861D01*
X-59518Y69276D01*
X-59070Y68829D01*
X-58486Y68587D01*
X-57853D01*
X-57313Y67745D01*
X-57254Y67603D01*
X-56806Y67156D01*
X-56222Y66913D01*
X-55589D01*
X-55005Y67156D01*
X-54557Y67603D01*
X-54527Y67675D01*
X-53406Y67945D01*
X-52315Y66854D01*
X-52136Y66422D01*
X-51688Y65974D01*
X-51104Y65732D01*
X-50471D01*
X-49886Y65974D01*
X-49439Y66422D01*
X-49197Y67006D01*
Y67639D01*
X-49439Y68224D01*
X-49886Y68671D01*
X-50319Y68850D01*
X-63156Y81687D01*
Y86259D01*
X-62976Y86691D01*
Y87324D01*
X-63218Y87909D01*
X-63666Y88356D01*
X-64250Y88598D01*
D02*
G37*
G36*
X-81180Y61236D02*
X-81812D01*
X-82397Y60994D01*
X-82845Y60547D01*
X-83087Y59962D01*
Y59329D01*
X-82845Y58745D01*
X-82397Y58297D01*
X-81812Y58055D01*
X-81180D01*
X-80595Y58297D01*
X-80148Y58745D01*
X-79905Y59329D01*
Y59962D01*
X-80148Y60547D01*
X-80595Y60994D01*
X-81180Y61236D01*
D02*
G37*
G36*
X-51122Y63144D02*
X-51755D01*
X-52340Y62902D01*
X-52787Y62454D01*
X-53029Y61870D01*
Y61237D01*
X-52787Y60652D01*
X-52340Y60205D01*
X-51755Y59963D01*
X-51230D01*
X-50907Y59730D01*
X-50409Y59193D01*
Y58739D01*
X-50167Y58154D01*
X-49724Y57711D01*
X-49724Y57688D01*
X-49925Y56726D01*
X-54566D01*
X-54999Y56906D01*
X-55631D01*
X-56064Y56726D01*
X-68012D01*
X-68552Y56619D01*
X-69010Y56313D01*
X-69366Y55957D01*
X-69647Y55840D01*
X-77204D01*
X-77636Y56020D01*
X-78269D01*
X-78854Y55778D01*
X-79301Y55330D01*
X-79543Y54746D01*
Y54113D01*
X-79301Y53528D01*
X-78854Y53081D01*
X-78269Y52839D01*
X-77636D01*
X-77204Y53018D01*
X-74730D01*
X-74499Y52513D01*
X-74428Y52034D01*
X-74774Y51688D01*
X-75016Y51104D01*
Y50471D01*
X-74774Y49886D01*
X-74326Y49439D01*
X-73742Y49197D01*
X-73109D01*
X-72524Y49439D01*
X-72077Y49886D01*
X-71835Y50471D01*
Y51104D01*
X-72077Y51688D01*
X-72422Y52034D01*
X-72351Y52513D01*
X-72120Y53018D01*
X-69647D01*
X-69214Y52839D01*
X-68581D01*
X-67997Y53081D01*
X-67549Y53528D01*
X-67394Y53904D01*
X-56064D01*
X-55631Y53724D01*
X-54999D01*
X-54566Y53904D01*
X-47009D01*
X-46576Y53724D01*
X-45943D01*
X-45359Y53967D01*
X-44911Y54414D01*
X-44669Y54999D01*
Y55631D01*
X-44911Y56216D01*
X-45359Y56663D01*
X-45943Y56906D01*
X-46576D01*
X-46769Y56826D01*
X-47250Y57002D01*
X-47493Y58131D01*
X-47471Y58154D01*
X-47228Y58739D01*
Y59372D01*
X-47471Y59956D01*
X-47918Y60404D01*
X-48502Y60646D01*
X-49028D01*
X-49351Y60879D01*
X-49848Y61416D01*
Y61870D01*
X-50090Y62454D01*
X-50538Y62902D01*
X-51122Y63144D01*
D02*
G37*
G36*
X-82164Y56906D02*
X-82797D01*
X-83381Y56663D01*
X-83829Y56216D01*
X-84071Y55631D01*
Y54999D01*
X-83829Y54414D01*
X-83381Y53967D01*
X-82797Y53724D01*
X-82164D01*
X-81579Y53967D01*
X-81132Y54414D01*
X-80890Y54999D01*
Y55631D01*
X-81132Y56216D01*
X-81579Y56663D01*
X-82164Y56906D01*
D02*
G37*
G36*
Y52378D02*
X-82797D01*
X-83381Y52136D01*
X-83829Y51688D01*
X-84071Y51104D01*
Y50471D01*
X-83829Y49886D01*
X-83381Y49439D01*
X-82797Y49197D01*
X-82164D01*
X-81579Y49439D01*
X-81132Y49886D01*
X-80890Y50471D01*
Y51104D01*
X-81132Y51688D01*
X-81579Y52136D01*
X-82164Y52378D01*
D02*
G37*
G36*
X-91219Y47850D02*
X-91852D01*
X-92436Y47608D01*
X-92884Y47161D01*
X-93126Y46576D01*
Y45943D01*
X-92884Y45359D01*
X-92436Y44912D01*
X-91852Y44669D01*
X-91219D01*
X-90635Y44912D01*
X-90187Y45359D01*
X-89945Y45943D01*
Y46576D01*
X-90187Y47161D01*
X-90635Y47608D01*
X-91219Y47850D01*
D02*
G37*
G36*
X-64054Y47850D02*
X-64687D01*
X-65271Y47608D01*
X-65719Y47161D01*
X-65961Y46576D01*
Y45943D01*
X-65719Y45359D01*
X-65271Y44912D01*
X-64687Y44669D01*
X-64054D01*
X-63469Y44912D01*
X-63022Y45359D01*
X-62779Y45943D01*
Y46576D01*
X-63022Y47161D01*
X-63469Y47608D01*
X-64054Y47850D01*
D02*
G37*
G36*
X-73109D02*
X-73742D01*
X-74326Y47608D01*
X-74774Y47161D01*
X-75016Y46576D01*
Y45943D01*
X-74774Y45359D01*
X-74326Y44912D01*
X-73742Y44669D01*
X-73109D01*
X-72524Y44912D01*
X-72077Y45359D01*
X-71835Y45943D01*
Y46576D01*
X-72077Y47161D01*
X-72524Y47608D01*
X-73109Y47850D01*
D02*
G37*
G36*
X-45943Y24228D02*
X-46576D01*
X-47161Y23986D01*
X-47608Y23539D01*
X-47850Y22954D01*
Y22321D01*
X-47608Y21737D01*
X-47161Y21289D01*
X-46576Y21047D01*
X-45943D01*
X-45359Y21289D01*
X-44911Y21737D01*
X-44669Y22321D01*
Y22954D01*
X-44911Y23539D01*
X-45359Y23986D01*
X-45943Y24228D01*
D02*
G37*
G36*
X-54999D02*
X-55631D01*
X-56216Y23986D01*
X-56663Y23539D01*
X-56906Y22954D01*
Y22321D01*
X-56663Y21737D01*
X-56216Y21289D01*
X-55631Y21047D01*
X-54999D01*
X-54414Y21289D01*
X-53966Y21737D01*
X-53724Y22321D01*
Y22954D01*
X-53966Y23539D01*
X-54414Y23986D01*
X-54999Y24228D01*
D02*
G37*
G36*
X-64054D02*
X-64687D01*
X-65271Y23986D01*
X-65719Y23539D01*
X-65961Y22954D01*
Y22321D01*
X-65719Y21737D01*
X-65271Y21289D01*
X-64687Y21047D01*
X-64054D01*
X-63469Y21289D01*
X-63022Y21737D01*
X-62779Y22321D01*
Y22954D01*
X-63022Y23539D01*
X-63469Y23986D01*
X-64054Y24228D01*
D02*
G37*
G36*
X-73109D02*
X-73742D01*
X-74326Y23986D01*
X-74774Y23539D01*
X-75016Y22954D01*
Y22321D01*
X-74774Y21737D01*
X-74326Y21289D01*
X-73742Y21047D01*
X-73109D01*
X-72524Y21289D01*
X-72077Y21737D01*
X-71835Y22321D01*
Y22954D01*
X-72077Y23539D01*
X-72524Y23986D01*
X-73109Y24228D01*
D02*
G37*
G36*
X-82164D02*
X-82797D01*
X-83381Y23986D01*
X-83829Y23539D01*
X-84071Y22954D01*
Y22321D01*
X-83829Y21737D01*
X-83381Y21289D01*
X-82797Y21047D01*
X-82164D01*
X-81579Y21289D01*
X-81132Y21737D01*
X-80890Y22321D01*
Y22954D01*
X-81132Y23539D01*
X-81579Y23986D01*
X-82164Y24228D01*
D02*
G37*
G36*
X-91219D02*
X-91852D01*
X-92436Y23986D01*
X-92884Y23539D01*
X-93126Y22954D01*
Y22321D01*
X-92884Y21737D01*
X-92436Y21289D01*
X-91852Y21047D01*
X-91219D01*
X-90635Y21289D01*
X-90187Y21737D01*
X-89945Y22321D01*
Y22954D01*
X-90187Y23539D01*
X-90635Y23986D01*
X-91219Y24228D01*
D02*
G37*
G36*
X-45943Y15173D02*
X-46576D01*
X-47161Y14931D01*
X-47608Y14484D01*
X-47850Y13899D01*
Y13266D01*
X-47608Y12682D01*
X-47161Y12234D01*
X-46576Y11992D01*
X-45943D01*
X-45359Y12234D01*
X-44911Y12682D01*
X-44669Y13266D01*
Y13899D01*
X-44911Y14484D01*
X-45359Y14931D01*
X-45943Y15173D01*
D02*
G37*
G36*
X-91219D02*
X-91852D01*
X-92436Y14931D01*
X-92884Y14484D01*
X-93126Y13899D01*
Y13266D01*
X-92884Y12682D01*
X-92436Y12234D01*
X-91852Y11992D01*
X-91219D01*
X-90635Y12234D01*
X-90187Y12682D01*
X-89945Y13266D01*
Y13899D01*
X-90187Y14484D01*
X-90635Y14931D01*
X-91219Y15173D01*
D02*
G37*
G36*
X-72912Y19701D02*
X-73545D01*
X-74129Y19459D01*
X-74577Y19011D01*
X-74819Y18427D01*
Y17794D01*
X-74640Y17361D01*
Y12789D01*
X-84433Y2996D01*
X-85417Y3368D01*
X-85659Y3952D01*
X-86107Y4400D01*
X-86691Y4642D01*
X-87324D01*
X-87909Y4400D01*
X-88356Y3952D01*
X-88598Y3368D01*
Y2735D01*
X-88356Y2150D01*
X-87909Y1703D01*
X-87324Y1461D01*
X-86953Y476D01*
X-87476Y-47D01*
X-87909Y-226D01*
X-88356Y-674D01*
X-88598Y-1258D01*
Y-1891D01*
X-88356Y-2476D01*
X-87909Y-2923D01*
X-87324Y-3165D01*
X-86691D01*
X-86107Y-2923D01*
X-85659Y-2476D01*
X-85480Y-2043D01*
X-72230Y11207D01*
X-71924Y11665D01*
X-71817Y12205D01*
Y17361D01*
X-71638Y17794D01*
Y18427D01*
X-71880Y19011D01*
X-72327Y19459D01*
X-72912Y19701D01*
D02*
G37*
G36*
X-64250D02*
X-64883D01*
X-65468Y19459D01*
X-65915Y19011D01*
X-66158Y18427D01*
Y17794D01*
X-65978Y17361D01*
Y12205D01*
X-65871Y11665D01*
X-65565Y11207D01*
X-58213Y3854D01*
X-58373Y3275D01*
X-58581Y2831D01*
X-59070Y2628D01*
X-59518Y2180D01*
X-59760Y1596D01*
Y963D01*
X-59518Y379D01*
X-59070Y-69D01*
X-58486Y-311D01*
X-57853D01*
X-57313Y-1153D01*
X-57254Y-1295D01*
X-56806Y-1742D01*
X-56222Y-1984D01*
X-55589D01*
X-55005Y-1742D01*
X-54557Y-1295D01*
X-54527Y-1223D01*
X-53406Y-953D01*
X-52315Y-2043D01*
X-52136Y-2476D01*
X-51688Y-2923D01*
X-51104Y-3165D01*
X-50471D01*
X-49886Y-2923D01*
X-49439Y-2476D01*
X-49197Y-1891D01*
Y-1258D01*
X-49439Y-674D01*
X-49886Y-226D01*
X-50319Y-47D01*
X-63156Y12789D01*
Y17361D01*
X-62976Y17794D01*
Y18427D01*
X-63218Y19011D01*
X-63666Y19459D01*
X-64250Y19701D01*
D02*
G37*
G36*
X-81180Y-7661D02*
X-81812D01*
X-82397Y-7903D01*
X-82845Y-8351D01*
X-83087Y-8936D01*
Y-9568D01*
X-82845Y-10153D01*
X-82397Y-10600D01*
X-81812Y-10842D01*
X-81180D01*
X-80595Y-10600D01*
X-80148Y-10153D01*
X-79905Y-9568D01*
Y-8936D01*
X-80148Y-8351D01*
X-80595Y-7903D01*
X-81180Y-7661D01*
D02*
G37*
G36*
X-51122Y-5754D02*
X-51755D01*
X-52340Y-5996D01*
X-52787Y-6443D01*
X-53029Y-7028D01*
Y-7661D01*
X-52787Y-8245D01*
X-52340Y-8693D01*
X-51755Y-8935D01*
X-51230D01*
X-50907Y-9168D01*
X-50409Y-9705D01*
Y-10159D01*
X-50167Y-10744D01*
X-49724Y-11187D01*
X-49724Y-11210D01*
X-49925Y-12171D01*
X-54566D01*
X-54999Y-11992D01*
X-55631D01*
X-56064Y-12171D01*
X-68012D01*
X-68552Y-12279D01*
X-69010Y-12585D01*
X-69366Y-12941D01*
X-69647Y-13057D01*
X-77204D01*
X-77636Y-12878D01*
X-78269D01*
X-78854Y-13120D01*
X-79301Y-13567D01*
X-79543Y-14152D01*
Y-14785D01*
X-79301Y-15370D01*
X-78854Y-15817D01*
X-78269Y-16059D01*
X-77636D01*
X-77204Y-15880D01*
X-74730D01*
X-74499Y-16385D01*
X-74428Y-16864D01*
X-74774Y-17209D01*
X-75016Y-17794D01*
Y-18427D01*
X-74774Y-19011D01*
X-74326Y-19459D01*
X-73742Y-19701D01*
X-73109D01*
X-72524Y-19459D01*
X-72077Y-19011D01*
X-71835Y-18427D01*
Y-17794D01*
X-72077Y-17209D01*
X-72422Y-16864D01*
X-72351Y-16385D01*
X-72120Y-15880D01*
X-69647D01*
X-69214Y-16059D01*
X-68581D01*
X-67997Y-15817D01*
X-67549Y-15370D01*
X-67394Y-14994D01*
X-56064D01*
X-55631Y-15173D01*
X-54999D01*
X-54566Y-14994D01*
X-47009D01*
X-46576Y-15173D01*
X-45943D01*
X-45359Y-14931D01*
X-44911Y-14484D01*
X-44669Y-13899D01*
Y-13266D01*
X-44911Y-12682D01*
X-45359Y-12234D01*
X-45943Y-11992D01*
X-46576D01*
X-46769Y-12072D01*
X-47250Y-11896D01*
X-47493Y-10766D01*
X-47471Y-10744D01*
X-47228Y-10159D01*
Y-9526D01*
X-47471Y-8941D01*
X-47918Y-8494D01*
X-48502Y-8252D01*
X-49028D01*
X-49351Y-8019D01*
X-49848Y-7482D01*
Y-7028D01*
X-50090Y-6443D01*
X-50538Y-5996D01*
X-51122Y-5754D01*
D02*
G37*
G36*
X-82164Y-11992D02*
X-82797D01*
X-83381Y-12234D01*
X-83829Y-12682D01*
X-84071Y-13266D01*
Y-13899D01*
X-83829Y-14484D01*
X-83381Y-14931D01*
X-82797Y-15173D01*
X-82164D01*
X-81579Y-14931D01*
X-81132Y-14484D01*
X-80890Y-13899D01*
Y-13266D01*
X-81132Y-12682D01*
X-81579Y-12234D01*
X-82164Y-11992D01*
D02*
G37*
G36*
Y-16520D02*
X-82797D01*
X-83381Y-16762D01*
X-83829Y-17209D01*
X-84071Y-17794D01*
Y-18427D01*
X-83829Y-19011D01*
X-83381Y-19459D01*
X-82797Y-19701D01*
X-82164D01*
X-81579Y-19459D01*
X-81132Y-19011D01*
X-80890Y-18427D01*
Y-17794D01*
X-81132Y-17209D01*
X-81579Y-16762D01*
X-82164Y-16520D01*
D02*
G37*
G36*
X-91219Y-21047D02*
X-91852D01*
X-92436Y-21289D01*
X-92884Y-21737D01*
X-93126Y-22321D01*
Y-22954D01*
X-92884Y-23539D01*
X-92436Y-23986D01*
X-91852Y-24228D01*
X-91219D01*
X-90635Y-23986D01*
X-90187Y-23539D01*
X-89945Y-22954D01*
Y-22321D01*
X-90187Y-21737D01*
X-90635Y-21289D01*
X-91219Y-21047D01*
D02*
G37*
G36*
X-64054Y-21047D02*
X-64687D01*
X-65271Y-21289D01*
X-65719Y-21737D01*
X-65961Y-22321D01*
Y-22954D01*
X-65719Y-23539D01*
X-65271Y-23986D01*
X-64687Y-24228D01*
X-64054D01*
X-63469Y-23986D01*
X-63022Y-23539D01*
X-62779Y-22954D01*
Y-22321D01*
X-63022Y-21737D01*
X-63469Y-21289D01*
X-64054Y-21047D01*
D02*
G37*
G36*
X-73109D02*
X-73742D01*
X-74326Y-21289D01*
X-74774Y-21737D01*
X-75016Y-22321D01*
Y-22954D01*
X-74774Y-23539D01*
X-74326Y-23986D01*
X-73742Y-24228D01*
X-73109D01*
X-72524Y-23986D01*
X-72077Y-23539D01*
X-71835Y-22954D01*
Y-22321D01*
X-72077Y-21737D01*
X-72524Y-21289D01*
X-73109Y-21047D01*
D02*
G37*
G36*
X91852Y24228D02*
X91219D01*
X90635Y23986D01*
X90187Y23539D01*
X89945Y22954D01*
Y22321D01*
X90187Y21737D01*
X90635Y21289D01*
X91219Y21047D01*
X91852D01*
X92436Y21289D01*
X92884Y21737D01*
X93126Y22321D01*
Y22954D01*
X92884Y23539D01*
X92436Y23986D01*
X91852Y24228D01*
D02*
G37*
G36*
X82797D02*
X82164D01*
X81579Y23986D01*
X81132Y23539D01*
X80890Y22954D01*
Y22321D01*
X81132Y21737D01*
X81579Y21289D01*
X82164Y21047D01*
X82797D01*
X83381Y21289D01*
X83829Y21737D01*
X84071Y22321D01*
Y22954D01*
X83829Y23539D01*
X83381Y23986D01*
X82797Y24228D01*
D02*
G37*
G36*
X73742D02*
X73109D01*
X72524Y23986D01*
X72077Y23539D01*
X71835Y22954D01*
Y22321D01*
X72077Y21737D01*
X72524Y21289D01*
X73109Y21047D01*
X73742D01*
X74326Y21289D01*
X74774Y21737D01*
X75016Y22321D01*
Y22954D01*
X74774Y23539D01*
X74326Y23986D01*
X73742Y24228D01*
D02*
G37*
G36*
X64687D02*
X64054D01*
X63469Y23986D01*
X63022Y23539D01*
X62779Y22954D01*
Y22321D01*
X63022Y21737D01*
X63469Y21289D01*
X64054Y21047D01*
X64687D01*
X65271Y21289D01*
X65719Y21737D01*
X65961Y22321D01*
Y22954D01*
X65719Y23539D01*
X65271Y23986D01*
X64687Y24228D01*
D02*
G37*
G36*
X55631D02*
X54999D01*
X54414Y23986D01*
X53967Y23539D01*
X53724Y22954D01*
Y22321D01*
X53967Y21737D01*
X54414Y21289D01*
X54999Y21047D01*
X55631D01*
X56216Y21289D01*
X56663Y21737D01*
X56906Y22321D01*
Y22954D01*
X56663Y23539D01*
X56216Y23986D01*
X55631Y24228D01*
D02*
G37*
G36*
X46576D02*
X45943D01*
X45359Y23986D01*
X44912Y23539D01*
X44669Y22954D01*
Y22321D01*
X44912Y21737D01*
X45359Y21289D01*
X45943Y21047D01*
X46576D01*
X47161Y21289D01*
X47608Y21737D01*
X47850Y22321D01*
Y22954D01*
X47608Y23539D01*
X47161Y23986D01*
X46576Y24228D01*
D02*
G37*
G36*
X91852Y15173D02*
X91219D01*
X90635Y14931D01*
X90187Y14484D01*
X89945Y13899D01*
Y13266D01*
X90187Y12682D01*
X90635Y12234D01*
X91219Y11992D01*
X91852D01*
X92436Y12234D01*
X92884Y12682D01*
X93126Y13266D01*
Y13899D01*
X92884Y14484D01*
X92436Y14931D01*
X91852Y15173D01*
D02*
G37*
G36*
X46576D02*
X45943D01*
X45359Y14931D01*
X44912Y14484D01*
X44669Y13899D01*
Y13266D01*
X44912Y12682D01*
X45359Y12234D01*
X45943Y11992D01*
X46576D01*
X47161Y12234D01*
X47608Y12682D01*
X47850Y13266D01*
Y13899D01*
X47608Y14484D01*
X47161Y14931D01*
X46576Y15173D01*
D02*
G37*
G36*
X64883Y19701D02*
X64251D01*
X63666Y19459D01*
X63218Y19011D01*
X62976Y18427D01*
Y17794D01*
X63156Y17361D01*
Y12789D01*
X53362Y2996D01*
X52378Y3368D01*
X52136Y3952D01*
X51688Y4400D01*
X51104Y4642D01*
X50471D01*
X49886Y4400D01*
X49439Y3952D01*
X49197Y3368D01*
Y2735D01*
X49439Y2150D01*
X49886Y1703D01*
X50471Y1461D01*
X50843Y476D01*
X50319Y-47D01*
X49886Y-226D01*
X49439Y-674D01*
X49197Y-1258D01*
Y-1891D01*
X49439Y-2476D01*
X49886Y-2923D01*
X50471Y-3165D01*
X51104D01*
X51688Y-2923D01*
X52136Y-2476D01*
X52315Y-2043D01*
X65565Y11207D01*
X65871Y11665D01*
X65978Y12205D01*
Y17361D01*
X66158Y17794D01*
Y18427D01*
X65915Y19011D01*
X65468Y19459D01*
X64883Y19701D01*
D02*
G37*
G36*
X73545D02*
X72912D01*
X72327Y19459D01*
X71880Y19011D01*
X71638Y18427D01*
Y17794D01*
X71817Y17361D01*
Y12205D01*
X71924Y11665D01*
X72230Y11207D01*
X79583Y3854D01*
X79422Y3275D01*
X79215Y2831D01*
X78725Y2628D01*
X78278Y2180D01*
X78035Y1596D01*
Y963D01*
X78278Y379D01*
X78725Y-69D01*
X79310Y-311D01*
X79942D01*
X80483Y-1153D01*
X80541Y-1295D01*
X80989Y-1742D01*
X81573Y-1984D01*
X82206D01*
X82791Y-1742D01*
X83238Y-1295D01*
X83268Y-1223D01*
X84390Y-953D01*
X85480Y-2043D01*
X85659Y-2476D01*
X86107Y-2923D01*
X86691Y-3165D01*
X87324D01*
X87909Y-2923D01*
X88356Y-2476D01*
X88598Y-1891D01*
Y-1258D01*
X88356Y-674D01*
X87909Y-226D01*
X87476Y-47D01*
X74640Y12789D01*
Y17361D01*
X74819Y17794D01*
Y18427D01*
X74577Y19011D01*
X74129Y19459D01*
X73545Y19701D01*
D02*
G37*
G36*
X56616Y-7661D02*
X55983D01*
X55398Y-7904D01*
X54951Y-8351D01*
X54709Y-8936D01*
Y-9568D01*
X54951Y-10153D01*
X55398Y-10600D01*
X55983Y-10842D01*
X56616D01*
X57200Y-10600D01*
X57648Y-10153D01*
X57890Y-9568D01*
Y-8936D01*
X57648Y-8351D01*
X57200Y-7904D01*
X56616Y-7661D01*
D02*
G37*
G36*
X86673Y-5754D02*
X86040D01*
X85456Y-5996D01*
X85008Y-6443D01*
X84766Y-7028D01*
Y-7661D01*
X85008Y-8245D01*
X85456Y-8693D01*
X86040Y-8935D01*
X86565D01*
X86889Y-9168D01*
X87386Y-9705D01*
Y-10159D01*
X87628Y-10744D01*
X88072Y-11187D01*
X88071Y-11210D01*
X87870Y-12171D01*
X83229D01*
X82797Y-11992D01*
X82164D01*
X81731Y-12171D01*
X69784D01*
X69243Y-12279D01*
X68786Y-12585D01*
X68429Y-12941D01*
X68149Y-13057D01*
X60592D01*
X60159Y-12878D01*
X59526D01*
X58942Y-13120D01*
X58494Y-13567D01*
X58252Y-14152D01*
Y-14785D01*
X58494Y-15370D01*
X58942Y-15817D01*
X59526Y-16059D01*
X60159D01*
X60592Y-15880D01*
X63065D01*
X63296Y-16385D01*
X63367Y-16864D01*
X63022Y-17209D01*
X62779Y-17794D01*
Y-18427D01*
X63022Y-19011D01*
X63469Y-19459D01*
X64054Y-19701D01*
X64687D01*
X65271Y-19459D01*
X65719Y-19011D01*
X65961Y-18427D01*
Y-17794D01*
X65719Y-17209D01*
X65373Y-16864D01*
X65444Y-16385D01*
X65675Y-15880D01*
X68149D01*
X68581Y-16059D01*
X69214D01*
X69799Y-15817D01*
X70246Y-15370D01*
X70402Y-14994D01*
X81731D01*
X82164Y-15173D01*
X82797D01*
X83229Y-14994D01*
X90786D01*
X91219Y-15173D01*
X91852D01*
X92436Y-14931D01*
X92884Y-14484D01*
X93126Y-13899D01*
Y-13266D01*
X92884Y-12682D01*
X92436Y-12234D01*
X91852Y-11992D01*
X91219D01*
X91027Y-12072D01*
X90546Y-11896D01*
X90302Y-10766D01*
X90325Y-10744D01*
X90567Y-10159D01*
Y-9526D01*
X90325Y-8941D01*
X89877Y-8494D01*
X89293Y-8252D01*
X88767D01*
X88444Y-8019D01*
X87947Y-7482D01*
Y-7028D01*
X87705Y-6443D01*
X87257Y-5996D01*
X86673Y-5754D01*
D02*
G37*
G36*
X55631Y-11992D02*
X54999D01*
X54414Y-12234D01*
X53967Y-12682D01*
X53724Y-13266D01*
Y-13899D01*
X53967Y-14484D01*
X54414Y-14931D01*
X54999Y-15173D01*
X55631D01*
X56216Y-14931D01*
X56663Y-14484D01*
X56906Y-13899D01*
Y-13266D01*
X56663Y-12682D01*
X56216Y-12234D01*
X55631Y-11992D01*
D02*
G37*
G36*
Y-16520D02*
X54999D01*
X54414Y-16762D01*
X53967Y-17209D01*
X53724Y-17794D01*
Y-18427D01*
X53967Y-19011D01*
X54414Y-19459D01*
X54999Y-19701D01*
X55631D01*
X56216Y-19459D01*
X56663Y-19011D01*
X56906Y-18427D01*
Y-17794D01*
X56663Y-17209D01*
X56216Y-16762D01*
X55631Y-16520D01*
D02*
G37*
G36*
X46576Y-21047D02*
X45943D01*
X45359Y-21289D01*
X44912Y-21737D01*
X44669Y-22321D01*
Y-22954D01*
X44912Y-23539D01*
X45359Y-23986D01*
X45943Y-24228D01*
X46576D01*
X47161Y-23986D01*
X47608Y-23539D01*
X47850Y-22954D01*
Y-22321D01*
X47608Y-21737D01*
X47161Y-21289D01*
X46576Y-21047D01*
D02*
G37*
G36*
X73742Y-21047D02*
X73109D01*
X72524Y-21289D01*
X72077Y-21737D01*
X71835Y-22321D01*
Y-22954D01*
X72077Y-23539D01*
X72524Y-23986D01*
X73109Y-24228D01*
X73742D01*
X74326Y-23986D01*
X74774Y-23539D01*
X75016Y-22954D01*
Y-22321D01*
X74774Y-21737D01*
X74326Y-21289D01*
X73742Y-21047D01*
D02*
G37*
G36*
X64687D02*
X64054D01*
X63469Y-21289D01*
X63022Y-21737D01*
X62779Y-22321D01*
Y-22954D01*
X63022Y-23539D01*
X63469Y-23986D01*
X64054Y-24228D01*
X64687D01*
X65271Y-23986D01*
X65719Y-23539D01*
X65961Y-22954D01*
Y-22321D01*
X65719Y-21737D01*
X65271Y-21289D01*
X64687Y-21047D01*
D02*
G37*
G36*
X22954Y24228D02*
X22321D01*
X21737Y23986D01*
X21289Y23539D01*
X21047Y22954D01*
Y22321D01*
X21289Y21737D01*
X21737Y21289D01*
X22321Y21047D01*
X22954D01*
X23539Y21289D01*
X23986Y21737D01*
X24228Y22321D01*
Y22954D01*
X23986Y23539D01*
X23539Y23986D01*
X22954Y24228D01*
D02*
G37*
G36*
X13899D02*
X13266D01*
X12682Y23986D01*
X12234Y23539D01*
X11992Y22954D01*
Y22321D01*
X12234Y21737D01*
X12682Y21289D01*
X13266Y21047D01*
X13899D01*
X14484Y21289D01*
X14931Y21737D01*
X15173Y22321D01*
Y22954D01*
X14931Y23539D01*
X14484Y23986D01*
X13899Y24228D01*
D02*
G37*
G36*
X4844D02*
X4211D01*
X3627Y23986D01*
X3179Y23539D01*
X2937Y22954D01*
Y22321D01*
X3179Y21737D01*
X3627Y21289D01*
X4211Y21047D01*
X4844D01*
X5429Y21289D01*
X5876Y21737D01*
X6118Y22321D01*
Y22954D01*
X5876Y23539D01*
X5429Y23986D01*
X4844Y24228D01*
D02*
G37*
G36*
X-4211D02*
X-4844D01*
X-5429Y23986D01*
X-5876Y23539D01*
X-6118Y22954D01*
Y22321D01*
X-5876Y21737D01*
X-5429Y21289D01*
X-4844Y21047D01*
X-4211D01*
X-3627Y21289D01*
X-3179Y21737D01*
X-2937Y22321D01*
Y22954D01*
X-3179Y23539D01*
X-3627Y23986D01*
X-4211Y24228D01*
D02*
G37*
G36*
X-13266D02*
X-13899D01*
X-14484Y23986D01*
X-14931Y23539D01*
X-15173Y22954D01*
Y22321D01*
X-14931Y21737D01*
X-14484Y21289D01*
X-13899Y21047D01*
X-13266D01*
X-12682Y21289D01*
X-12234Y21737D01*
X-11992Y22321D01*
Y22954D01*
X-12234Y23539D01*
X-12682Y23986D01*
X-13266Y24228D01*
D02*
G37*
G36*
X-22321D02*
X-22954D01*
X-23539Y23986D01*
X-23986Y23539D01*
X-24228Y22954D01*
Y22321D01*
X-23986Y21737D01*
X-23539Y21289D01*
X-22954Y21047D01*
X-22321D01*
X-21737Y21289D01*
X-21289Y21737D01*
X-21047Y22321D01*
Y22954D01*
X-21289Y23539D01*
X-21737Y23986D01*
X-22321Y24228D01*
D02*
G37*
G36*
X22954Y15173D02*
X22321D01*
X21737Y14931D01*
X21289Y14484D01*
X21047Y13899D01*
Y13266D01*
X21289Y12682D01*
X21737Y12234D01*
X22321Y11992D01*
X22954D01*
X23539Y12234D01*
X23986Y12682D01*
X24228Y13266D01*
Y13899D01*
X23986Y14484D01*
X23539Y14931D01*
X22954Y15173D01*
D02*
G37*
G36*
X-22321D02*
X-22954D01*
X-23539Y14931D01*
X-23986Y14484D01*
X-24228Y13899D01*
Y13266D01*
X-23986Y12682D01*
X-23539Y12234D01*
X-22954Y11992D01*
X-22321D01*
X-21737Y12234D01*
X-21289Y12682D01*
X-21047Y13266D01*
Y13899D01*
X-21289Y14484D01*
X-21737Y14931D01*
X-22321Y15173D01*
D02*
G37*
G36*
X-4014Y19701D02*
X-4647D01*
X-5232Y19459D01*
X-5679Y19011D01*
X-5921Y18427D01*
Y17794D01*
X-5742Y17361D01*
Y12789D01*
X-15535Y2996D01*
X-16520Y3368D01*
X-16762Y3952D01*
X-17209Y4400D01*
X-17794Y4642D01*
X-18427D01*
X-19011Y4400D01*
X-19459Y3952D01*
X-19701Y3368D01*
Y2735D01*
X-19459Y2150D01*
X-19011Y1703D01*
X-18427Y1461D01*
X-18055Y476D01*
X-18579Y-47D01*
X-19011Y-226D01*
X-19459Y-674D01*
X-19701Y-1258D01*
Y-1891D01*
X-19459Y-2476D01*
X-19011Y-2923D01*
X-18427Y-3165D01*
X-17794D01*
X-17209Y-2923D01*
X-16762Y-2476D01*
X-16583Y-2043D01*
X-3333Y11207D01*
X-3027Y11665D01*
X-2919Y12205D01*
Y17361D01*
X-2740Y17794D01*
Y18427D01*
X-2982Y19011D01*
X-3430Y19459D01*
X-4014Y19701D01*
D02*
G37*
G36*
X4647D02*
X4014D01*
X3430Y19459D01*
X2982Y19011D01*
X2740Y18427D01*
Y17794D01*
X2919Y17361D01*
Y12205D01*
X3027Y11665D01*
X3333Y11207D01*
X10685Y3854D01*
X10524Y3275D01*
X10317Y2831D01*
X9827Y2628D01*
X9380Y2180D01*
X9138Y1596D01*
Y963D01*
X9380Y379D01*
X9827Y-69D01*
X10412Y-311D01*
X11045D01*
X11585Y-1153D01*
X11644Y-1295D01*
X12091Y-1742D01*
X12676Y-1984D01*
X13308D01*
X13893Y-1742D01*
X14341Y-1295D01*
X14370Y-1223D01*
X15492Y-953D01*
X16583Y-2043D01*
X16762Y-2476D01*
X17209Y-2923D01*
X17794Y-3165D01*
X18427D01*
X19011Y-2923D01*
X19459Y-2476D01*
X19701Y-1891D01*
Y-1258D01*
X19459Y-674D01*
X19011Y-226D01*
X18579Y-47D01*
X5742Y12789D01*
Y17361D01*
X5921Y17794D01*
Y18427D01*
X5679Y19011D01*
X5232Y19459D01*
X4647Y19701D01*
D02*
G37*
G36*
X-12282Y-7661D02*
X-12915D01*
X-13499Y-7904D01*
X-13947Y-8351D01*
X-14189Y-8936D01*
Y-9568D01*
X-13947Y-10153D01*
X-13499Y-10600D01*
X-12915Y-10842D01*
X-12282D01*
X-11698Y-10600D01*
X-11250Y-10153D01*
X-11008Y-9568D01*
Y-8936D01*
X-11250Y-8351D01*
X-11698Y-7904D01*
X-12282Y-7661D01*
D02*
G37*
G36*
X17775Y-5754D02*
X17142D01*
X16558Y-5996D01*
X16111Y-6443D01*
X15868Y-7028D01*
Y-7661D01*
X16111Y-8245D01*
X16558Y-8693D01*
X17142Y-8935D01*
X17668D01*
X17991Y-9168D01*
X18488Y-9705D01*
Y-10159D01*
X18730Y-10744D01*
X19174Y-11187D01*
X19174Y-11210D01*
X18973Y-12171D01*
X14332D01*
X13899Y-11992D01*
X13266D01*
X12834Y-12171D01*
X886D01*
X346Y-12279D01*
X-112Y-12585D01*
X-468Y-12941D01*
X-749Y-13057D01*
X-8306D01*
X-8739Y-12878D01*
X-9371D01*
X-9956Y-13120D01*
X-10403Y-13567D01*
X-10646Y-14152D01*
Y-14785D01*
X-10403Y-15370D01*
X-9956Y-15817D01*
X-9371Y-16059D01*
X-8739D01*
X-8306Y-15880D01*
X-5833D01*
X-5601Y-16385D01*
X-5531Y-16864D01*
X-5876Y-17209D01*
X-6118Y-17794D01*
Y-18427D01*
X-5876Y-19011D01*
X-5429Y-19459D01*
X-4844Y-19701D01*
X-4211D01*
X-3627Y-19459D01*
X-3179Y-19011D01*
X-2937Y-18427D01*
Y-17794D01*
X-3179Y-17209D01*
X-3524Y-16864D01*
X-3454Y-16385D01*
X-3223Y-15880D01*
X-749D01*
X-316Y-16059D01*
X316D01*
X901Y-15817D01*
X1348Y-15370D01*
X1504Y-14994D01*
X12834D01*
X13266Y-15173D01*
X13899D01*
X14332Y-14994D01*
X21889D01*
X22321Y-15173D01*
X22954D01*
X23539Y-14931D01*
X23986Y-14484D01*
X24228Y-13899D01*
Y-13266D01*
X23986Y-12682D01*
X23539Y-12234D01*
X22954Y-11992D01*
X22321D01*
X22129Y-12072D01*
X21648Y-11896D01*
X21404Y-10766D01*
X21427Y-10744D01*
X21669Y-10159D01*
Y-9526D01*
X21427Y-8941D01*
X20980Y-8494D01*
X20395Y-8252D01*
X19870D01*
X19547Y-8019D01*
X19049Y-7482D01*
Y-7028D01*
X18807Y-6443D01*
X18360Y-5996D01*
X17775Y-5754D01*
D02*
G37*
G36*
X-13266Y-11992D02*
X-13899D01*
X-14484Y-12234D01*
X-14931Y-12682D01*
X-15173Y-13266D01*
Y-13899D01*
X-14931Y-14484D01*
X-14484Y-14931D01*
X-13899Y-15173D01*
X-13266D01*
X-12682Y-14931D01*
X-12234Y-14484D01*
X-11992Y-13899D01*
Y-13266D01*
X-12234Y-12682D01*
X-12682Y-12234D01*
X-13266Y-11992D01*
D02*
G37*
G36*
Y-16520D02*
X-13899D01*
X-14484Y-16762D01*
X-14931Y-17209D01*
X-15173Y-17794D01*
Y-18427D01*
X-14931Y-19011D01*
X-14484Y-19459D01*
X-13899Y-19701D01*
X-13266D01*
X-12682Y-19459D01*
X-12234Y-19011D01*
X-11992Y-18427D01*
Y-17794D01*
X-12234Y-17209D01*
X-12682Y-16762D01*
X-13266Y-16520D01*
D02*
G37*
G36*
X-22321Y-21047D02*
X-22954D01*
X-23539Y-21289D01*
X-23986Y-21737D01*
X-24228Y-22321D01*
Y-22954D01*
X-23986Y-23539D01*
X-23539Y-23986D01*
X-22954Y-24228D01*
X-22321D01*
X-21737Y-23986D01*
X-21289Y-23539D01*
X-21047Y-22954D01*
Y-22321D01*
X-21289Y-21737D01*
X-21737Y-21289D01*
X-22321Y-21047D01*
D02*
G37*
G36*
X4844Y-21047D02*
X4211D01*
X3627Y-21289D01*
X3179Y-21737D01*
X2937Y-22321D01*
Y-22954D01*
X3179Y-23539D01*
X3627Y-23986D01*
X4211Y-24228D01*
X4844D01*
X5429Y-23986D01*
X5876Y-23539D01*
X6118Y-22954D01*
Y-22321D01*
X5876Y-21737D01*
X5429Y-21289D01*
X4844Y-21047D01*
D02*
G37*
G36*
X-4211D02*
X-4844D01*
X-5429Y-21289D01*
X-5876Y-21737D01*
X-6118Y-22321D01*
Y-22954D01*
X-5876Y-23539D01*
X-5429Y-23986D01*
X-4844Y-24228D01*
X-4211D01*
X-3627Y-23986D01*
X-3179Y-23539D01*
X-2937Y-22954D01*
Y-22321D01*
X-3179Y-21737D01*
X-3627Y-21289D01*
X-4211Y-21047D01*
D02*
G37*
G36*
X91852Y-44669D02*
X91219D01*
X90635Y-44911D01*
X90187Y-45359D01*
X89945Y-45943D01*
Y-46576D01*
X90187Y-47161D01*
X90635Y-47608D01*
X91219Y-47850D01*
X91852D01*
X92436Y-47608D01*
X92884Y-47161D01*
X93126Y-46576D01*
Y-45943D01*
X92884Y-45359D01*
X92436Y-44911D01*
X91852Y-44669D01*
D02*
G37*
G36*
X82797D02*
X82164D01*
X81579Y-44911D01*
X81132Y-45359D01*
X80890Y-45943D01*
Y-46576D01*
X81132Y-47161D01*
X81579Y-47608D01*
X82164Y-47850D01*
X82797D01*
X83381Y-47608D01*
X83829Y-47161D01*
X84071Y-46576D01*
Y-45943D01*
X83829Y-45359D01*
X83381Y-44911D01*
X82797Y-44669D01*
D02*
G37*
G36*
X73742D02*
X73109D01*
X72524Y-44911D01*
X72077Y-45359D01*
X71835Y-45943D01*
Y-46576D01*
X72077Y-47161D01*
X72524Y-47608D01*
X73109Y-47850D01*
X73742D01*
X74326Y-47608D01*
X74774Y-47161D01*
X75016Y-46576D01*
Y-45943D01*
X74774Y-45359D01*
X74326Y-44911D01*
X73742Y-44669D01*
D02*
G37*
G36*
X64687D02*
X64054D01*
X63469Y-44911D01*
X63022Y-45359D01*
X62779Y-45943D01*
Y-46576D01*
X63022Y-47161D01*
X63469Y-47608D01*
X64054Y-47850D01*
X64687D01*
X65271Y-47608D01*
X65719Y-47161D01*
X65961Y-46576D01*
Y-45943D01*
X65719Y-45359D01*
X65271Y-44911D01*
X64687Y-44669D01*
D02*
G37*
G36*
X55631D02*
X54999D01*
X54414Y-44911D01*
X53967Y-45359D01*
X53724Y-45943D01*
Y-46576D01*
X53967Y-47161D01*
X54414Y-47608D01*
X54999Y-47850D01*
X55631D01*
X56216Y-47608D01*
X56663Y-47161D01*
X56906Y-46576D01*
Y-45943D01*
X56663Y-45359D01*
X56216Y-44911D01*
X55631Y-44669D01*
D02*
G37*
G36*
X46576D02*
X45943D01*
X45359Y-44911D01*
X44912Y-45359D01*
X44669Y-45943D01*
Y-46576D01*
X44912Y-47161D01*
X45359Y-47608D01*
X45943Y-47850D01*
X46576D01*
X47161Y-47608D01*
X47608Y-47161D01*
X47850Y-46576D01*
Y-45943D01*
X47608Y-45359D01*
X47161Y-44911D01*
X46576Y-44669D01*
D02*
G37*
G36*
X91852Y-53724D02*
X91219D01*
X90635Y-53966D01*
X90187Y-54414D01*
X89945Y-54999D01*
Y-55631D01*
X90187Y-56216D01*
X90635Y-56663D01*
X91219Y-56906D01*
X91852D01*
X92436Y-56663D01*
X92884Y-56216D01*
X93126Y-55631D01*
Y-54999D01*
X92884Y-54414D01*
X92436Y-53966D01*
X91852Y-53724D01*
D02*
G37*
G36*
X46576D02*
X45943D01*
X45359Y-53966D01*
X44912Y-54414D01*
X44669Y-54999D01*
Y-55631D01*
X44912Y-56216D01*
X45359Y-56663D01*
X45943Y-56906D01*
X46576D01*
X47161Y-56663D01*
X47608Y-56216D01*
X47850Y-55631D01*
Y-54999D01*
X47608Y-54414D01*
X47161Y-53966D01*
X46576Y-53724D01*
D02*
G37*
G36*
X64883Y-49197D02*
X64251D01*
X63666Y-49439D01*
X63218Y-49886D01*
X62976Y-50471D01*
Y-51104D01*
X63156Y-51536D01*
Y-56108D01*
X53362Y-65902D01*
X52378Y-65530D01*
X52136Y-64946D01*
X51688Y-64498D01*
X51104Y-64256D01*
X50471D01*
X49886Y-64498D01*
X49439Y-64946D01*
X49197Y-65530D01*
Y-66163D01*
X49439Y-66747D01*
X49886Y-67195D01*
X50471Y-67437D01*
X50843Y-68421D01*
X50319Y-68945D01*
X49886Y-69124D01*
X49439Y-69572D01*
X49197Y-70156D01*
Y-70789D01*
X49439Y-71373D01*
X49886Y-71821D01*
X50471Y-72063D01*
X51104D01*
X51688Y-71821D01*
X52136Y-71373D01*
X52315Y-70941D01*
X65565Y-57691D01*
X65871Y-57233D01*
X65978Y-56693D01*
Y-51536D01*
X66158Y-51104D01*
Y-50471D01*
X65915Y-49886D01*
X65468Y-49439D01*
X64883Y-49197D01*
D02*
G37*
G36*
X73545D02*
X72912D01*
X72327Y-49439D01*
X71880Y-49886D01*
X71638Y-50471D01*
Y-51104D01*
X71817Y-51536D01*
Y-56693D01*
X71924Y-57233D01*
X72230Y-57691D01*
X79583Y-65043D01*
X79422Y-65623D01*
X79215Y-66067D01*
X78725Y-66270D01*
X78278Y-66717D01*
X78035Y-67302D01*
Y-67935D01*
X78278Y-68519D01*
X78725Y-68967D01*
X79310Y-69209D01*
X79942D01*
X80483Y-70050D01*
X80541Y-70192D01*
X80989Y-70640D01*
X81573Y-70882D01*
X82206D01*
X82791Y-70640D01*
X83238Y-70192D01*
X83268Y-70120D01*
X84390Y-69850D01*
X85480Y-70941D01*
X85659Y-71373D01*
X86107Y-71821D01*
X86691Y-72063D01*
X87324D01*
X87909Y-71821D01*
X88356Y-71373D01*
X88598Y-70789D01*
Y-70156D01*
X88356Y-69572D01*
X87909Y-69124D01*
X87476Y-68945D01*
X74640Y-56108D01*
Y-51536D01*
X74819Y-51104D01*
Y-50471D01*
X74577Y-49886D01*
X74129Y-49439D01*
X73545Y-49197D01*
D02*
G37*
G36*
X56616Y-76559D02*
X55983D01*
X55398Y-76801D01*
X54951Y-77249D01*
X54709Y-77833D01*
Y-78466D01*
X54951Y-79051D01*
X55398Y-79498D01*
X55983Y-79740D01*
X56616D01*
X57200Y-79498D01*
X57648Y-79051D01*
X57890Y-78466D01*
Y-77833D01*
X57648Y-77249D01*
X57200Y-76801D01*
X56616Y-76559D01*
D02*
G37*
G36*
X86673Y-74651D02*
X86040D01*
X85456Y-74893D01*
X85008Y-75341D01*
X84766Y-75925D01*
Y-76558D01*
X85008Y-77143D01*
X85456Y-77590D01*
X86040Y-77832D01*
X86565D01*
X86889Y-78065D01*
X87386Y-78602D01*
Y-79057D01*
X87628Y-79641D01*
X88072Y-80085D01*
X88071Y-80108D01*
X87870Y-81069D01*
X83229D01*
X82797Y-80890D01*
X82164D01*
X81731Y-81069D01*
X69784D01*
X69243Y-81176D01*
X68786Y-81482D01*
X68429Y-81839D01*
X68149Y-81955D01*
X60592D01*
X60159Y-81776D01*
X59526D01*
X58942Y-82018D01*
X58494Y-82465D01*
X58252Y-83050D01*
Y-83683D01*
X58494Y-84267D01*
X58942Y-84715D01*
X59526Y-84957D01*
X60159D01*
X60592Y-84777D01*
X63065D01*
X63296Y-85282D01*
X63367Y-85762D01*
X63022Y-86107D01*
X62779Y-86691D01*
Y-87324D01*
X63022Y-87909D01*
X63469Y-88356D01*
X64054Y-88598D01*
X64687D01*
X65271Y-88356D01*
X65719Y-87909D01*
X65961Y-87324D01*
Y-86691D01*
X65719Y-86107D01*
X65373Y-85762D01*
X65444Y-85282D01*
X65675Y-84777D01*
X68149D01*
X68581Y-84957D01*
X69214D01*
X69799Y-84715D01*
X70246Y-84267D01*
X70402Y-83892D01*
X81731D01*
X82164Y-84071D01*
X82797D01*
X83229Y-83892D01*
X90786D01*
X91219Y-84071D01*
X91852D01*
X92436Y-83829D01*
X92884Y-83381D01*
X93126Y-82797D01*
Y-82164D01*
X92884Y-81579D01*
X92436Y-81132D01*
X91852Y-80890D01*
X91219D01*
X91027Y-80970D01*
X90546Y-80794D01*
X90302Y-79664D01*
X90325Y-79641D01*
X90567Y-79057D01*
Y-78424D01*
X90325Y-77839D01*
X89877Y-77392D01*
X89293Y-77150D01*
X88767D01*
X88444Y-76917D01*
X87947Y-76380D01*
Y-75925D01*
X87705Y-75341D01*
X87257Y-74893D01*
X86673Y-74651D01*
D02*
G37*
G36*
X55631Y-80890D02*
X54999D01*
X54414Y-81132D01*
X53967Y-81579D01*
X53724Y-82164D01*
Y-82797D01*
X53967Y-83381D01*
X54414Y-83829D01*
X54999Y-84071D01*
X55631D01*
X56216Y-83829D01*
X56663Y-83381D01*
X56906Y-82797D01*
Y-82164D01*
X56663Y-81579D01*
X56216Y-81132D01*
X55631Y-80890D01*
D02*
G37*
G36*
Y-85417D02*
X54999D01*
X54414Y-85659D01*
X53967Y-86107D01*
X53724Y-86691D01*
Y-87324D01*
X53967Y-87909D01*
X54414Y-88356D01*
X54999Y-88598D01*
X55631D01*
X56216Y-88356D01*
X56663Y-87909D01*
X56906Y-87324D01*
Y-86691D01*
X56663Y-86107D01*
X56216Y-85659D01*
X55631Y-85417D01*
D02*
G37*
G36*
X46576Y-89945D02*
X45943D01*
X45359Y-90187D01*
X44912Y-90635D01*
X44669Y-91219D01*
Y-91852D01*
X44912Y-92436D01*
X45359Y-92884D01*
X45943Y-93126D01*
X46576D01*
X47161Y-92884D01*
X47608Y-92436D01*
X47850Y-91852D01*
Y-91219D01*
X47608Y-90635D01*
X47161Y-90187D01*
X46576Y-89945D01*
D02*
G37*
G36*
X73742Y-89945D02*
X73109D01*
X72524Y-90187D01*
X72077Y-90635D01*
X71835Y-91219D01*
Y-91852D01*
X72077Y-92436D01*
X72524Y-92884D01*
X73109Y-93126D01*
X73742D01*
X74326Y-92884D01*
X74774Y-92436D01*
X75016Y-91852D01*
Y-91219D01*
X74774Y-90635D01*
X74326Y-90187D01*
X73742Y-89945D01*
D02*
G37*
G36*
X64687D02*
X64054D01*
X63469Y-90187D01*
X63022Y-90635D01*
X62779Y-91219D01*
Y-91852D01*
X63022Y-92436D01*
X63469Y-92884D01*
X64054Y-93126D01*
X64687D01*
X65271Y-92884D01*
X65719Y-92436D01*
X65961Y-91852D01*
Y-91219D01*
X65719Y-90635D01*
X65271Y-90187D01*
X64687Y-89945D01*
D02*
G37*
G36*
X22954Y-44669D02*
X22321D01*
X21737Y-44911D01*
X21289Y-45359D01*
X21047Y-45943D01*
Y-46576D01*
X21289Y-47161D01*
X21737Y-47608D01*
X22321Y-47850D01*
X22954D01*
X23539Y-47608D01*
X23986Y-47161D01*
X24228Y-46576D01*
Y-45943D01*
X23986Y-45359D01*
X23539Y-44911D01*
X22954Y-44669D01*
D02*
G37*
G36*
X13899D02*
X13266D01*
X12682Y-44911D01*
X12234Y-45359D01*
X11992Y-45943D01*
Y-46576D01*
X12234Y-47161D01*
X12682Y-47608D01*
X13266Y-47850D01*
X13899D01*
X14484Y-47608D01*
X14931Y-47161D01*
X15173Y-46576D01*
Y-45943D01*
X14931Y-45359D01*
X14484Y-44911D01*
X13899Y-44669D01*
D02*
G37*
G36*
X4844D02*
X4211D01*
X3627Y-44911D01*
X3179Y-45359D01*
X2937Y-45943D01*
Y-46576D01*
X3179Y-47161D01*
X3627Y-47608D01*
X4211Y-47850D01*
X4844D01*
X5429Y-47608D01*
X5876Y-47161D01*
X6118Y-46576D01*
Y-45943D01*
X5876Y-45359D01*
X5429Y-44911D01*
X4844Y-44669D01*
D02*
G37*
G36*
X-4211D02*
X-4844D01*
X-5429Y-44911D01*
X-5876Y-45359D01*
X-6118Y-45943D01*
Y-46576D01*
X-5876Y-47161D01*
X-5429Y-47608D01*
X-4844Y-47850D01*
X-4211D01*
X-3627Y-47608D01*
X-3179Y-47161D01*
X-2937Y-46576D01*
Y-45943D01*
X-3179Y-45359D01*
X-3627Y-44911D01*
X-4211Y-44669D01*
D02*
G37*
G36*
X-13266D02*
X-13899D01*
X-14484Y-44911D01*
X-14931Y-45359D01*
X-15173Y-45943D01*
Y-46576D01*
X-14931Y-47161D01*
X-14484Y-47608D01*
X-13899Y-47850D01*
X-13266D01*
X-12682Y-47608D01*
X-12234Y-47161D01*
X-11992Y-46576D01*
Y-45943D01*
X-12234Y-45359D01*
X-12682Y-44911D01*
X-13266Y-44669D01*
D02*
G37*
G36*
X-22321D02*
X-22954D01*
X-23539Y-44911D01*
X-23986Y-45359D01*
X-24228Y-45943D01*
Y-46576D01*
X-23986Y-47161D01*
X-23539Y-47608D01*
X-22954Y-47850D01*
X-22321D01*
X-21737Y-47608D01*
X-21289Y-47161D01*
X-21047Y-46576D01*
Y-45943D01*
X-21289Y-45359D01*
X-21737Y-44911D01*
X-22321Y-44669D01*
D02*
G37*
G36*
X22954Y-53724D02*
X22321D01*
X21737Y-53966D01*
X21289Y-54414D01*
X21047Y-54999D01*
Y-55631D01*
X21289Y-56216D01*
X21737Y-56663D01*
X22321Y-56906D01*
X22954D01*
X23539Y-56663D01*
X23986Y-56216D01*
X24228Y-55631D01*
Y-54999D01*
X23986Y-54414D01*
X23539Y-53966D01*
X22954Y-53724D01*
D02*
G37*
G36*
X-22321D02*
X-22954D01*
X-23539Y-53966D01*
X-23986Y-54414D01*
X-24228Y-54999D01*
Y-55631D01*
X-23986Y-56216D01*
X-23539Y-56663D01*
X-22954Y-56906D01*
X-22321D01*
X-21737Y-56663D01*
X-21289Y-56216D01*
X-21047Y-55631D01*
Y-54999D01*
X-21289Y-54414D01*
X-21737Y-53966D01*
X-22321Y-53724D01*
D02*
G37*
G36*
X-4014Y-49197D02*
X-4647D01*
X-5232Y-49439D01*
X-5679Y-49886D01*
X-5921Y-50471D01*
Y-51104D01*
X-5742Y-51536D01*
Y-56108D01*
X-15535Y-65902D01*
X-16520Y-65530D01*
X-16762Y-64946D01*
X-17209Y-64498D01*
X-17794Y-64256D01*
X-18427D01*
X-19011Y-64498D01*
X-19459Y-64946D01*
X-19701Y-65530D01*
Y-66163D01*
X-19459Y-66747D01*
X-19011Y-67195D01*
X-18427Y-67437D01*
X-18055Y-68421D01*
X-18579Y-68945D01*
X-19011Y-69124D01*
X-19459Y-69572D01*
X-19701Y-70156D01*
Y-70789D01*
X-19459Y-71373D01*
X-19011Y-71821D01*
X-18427Y-72063D01*
X-17794D01*
X-17209Y-71821D01*
X-16762Y-71373D01*
X-16583Y-70941D01*
X-3333Y-57691D01*
X-3027Y-57233D01*
X-2919Y-56693D01*
Y-51536D01*
X-2740Y-51104D01*
Y-50471D01*
X-2982Y-49886D01*
X-3430Y-49439D01*
X-4014Y-49197D01*
D02*
G37*
G36*
X4647D02*
X4014D01*
X3430Y-49439D01*
X2982Y-49886D01*
X2740Y-50471D01*
Y-51104D01*
X2919Y-51536D01*
Y-56693D01*
X3027Y-57233D01*
X3333Y-57691D01*
X10685Y-65043D01*
X10524Y-65623D01*
X10317Y-66067D01*
X9827Y-66270D01*
X9380Y-66717D01*
X9138Y-67302D01*
Y-67935D01*
X9380Y-68519D01*
X9827Y-68967D01*
X10412Y-69209D01*
X11045D01*
X11585Y-70050D01*
X11644Y-70192D01*
X12091Y-70640D01*
X12676Y-70882D01*
X13308D01*
X13893Y-70640D01*
X14341Y-70192D01*
X14370Y-70120D01*
X15492Y-69850D01*
X16583Y-70941D01*
X16762Y-71373D01*
X17209Y-71821D01*
X17794Y-72063D01*
X18427D01*
X19011Y-71821D01*
X19459Y-71373D01*
X19701Y-70789D01*
Y-70156D01*
X19459Y-69572D01*
X19011Y-69124D01*
X18579Y-68945D01*
X5742Y-56108D01*
Y-51536D01*
X5921Y-51104D01*
Y-50471D01*
X5679Y-49886D01*
X5232Y-49439D01*
X4647Y-49197D01*
D02*
G37*
G36*
X-12282Y-76559D02*
X-12915D01*
X-13499Y-76801D01*
X-13947Y-77249D01*
X-14189Y-77833D01*
Y-78466D01*
X-13947Y-79051D01*
X-13499Y-79498D01*
X-12915Y-79740D01*
X-12282D01*
X-11698Y-79498D01*
X-11250Y-79051D01*
X-11008Y-78466D01*
Y-77833D01*
X-11250Y-77249D01*
X-11698Y-76801D01*
X-12282Y-76559D01*
D02*
G37*
G36*
X17775Y-74651D02*
X17142D01*
X16558Y-74893D01*
X16111Y-75341D01*
X15868Y-75925D01*
Y-76558D01*
X16111Y-77143D01*
X16558Y-77590D01*
X17142Y-77832D01*
X17668D01*
X17991Y-78065D01*
X18488Y-78602D01*
Y-79057D01*
X18730Y-79641D01*
X19174Y-80085D01*
X19174Y-80108D01*
X18973Y-81069D01*
X14332D01*
X13899Y-80890D01*
X13266D01*
X12834Y-81069D01*
X886D01*
X346Y-81176D01*
X-112Y-81482D01*
X-468Y-81839D01*
X-749Y-81955D01*
X-8306D01*
X-8739Y-81776D01*
X-9371D01*
X-9956Y-82018D01*
X-10403Y-82465D01*
X-10646Y-83050D01*
Y-83683D01*
X-10403Y-84267D01*
X-9956Y-84715D01*
X-9371Y-84957D01*
X-8739D01*
X-8306Y-84777D01*
X-5833D01*
X-5601Y-85282D01*
X-5531Y-85762D01*
X-5876Y-86107D01*
X-6118Y-86691D01*
Y-87324D01*
X-5876Y-87909D01*
X-5429Y-88356D01*
X-4844Y-88598D01*
X-4211D01*
X-3627Y-88356D01*
X-3179Y-87909D01*
X-2937Y-87324D01*
Y-86691D01*
X-3179Y-86107D01*
X-3524Y-85762D01*
X-3454Y-85282D01*
X-3223Y-84777D01*
X-749D01*
X-316Y-84957D01*
X316D01*
X901Y-84715D01*
X1348Y-84267D01*
X1504Y-83892D01*
X12834D01*
X13266Y-84071D01*
X13899D01*
X14332Y-83892D01*
X21889D01*
X22321Y-84071D01*
X22954D01*
X23539Y-83829D01*
X23986Y-83381D01*
X24228Y-82797D01*
Y-82164D01*
X23986Y-81579D01*
X23539Y-81132D01*
X22954Y-80890D01*
X22321D01*
X22129Y-80970D01*
X21648Y-80794D01*
X21404Y-79664D01*
X21427Y-79641D01*
X21669Y-79057D01*
Y-78424D01*
X21427Y-77839D01*
X20980Y-77392D01*
X20395Y-77150D01*
X19870D01*
X19547Y-76917D01*
X19049Y-76380D01*
Y-75925D01*
X18807Y-75341D01*
X18360Y-74893D01*
X17775Y-74651D01*
D02*
G37*
G36*
X-13266Y-80890D02*
X-13899D01*
X-14484Y-81132D01*
X-14931Y-81579D01*
X-15173Y-82164D01*
Y-82797D01*
X-14931Y-83381D01*
X-14484Y-83829D01*
X-13899Y-84071D01*
X-13266D01*
X-12682Y-83829D01*
X-12234Y-83381D01*
X-11992Y-82797D01*
Y-82164D01*
X-12234Y-81579D01*
X-12682Y-81132D01*
X-13266Y-80890D01*
D02*
G37*
G36*
Y-85417D02*
X-13899D01*
X-14484Y-85659D01*
X-14931Y-86107D01*
X-15173Y-86691D01*
Y-87324D01*
X-14931Y-87909D01*
X-14484Y-88356D01*
X-13899Y-88598D01*
X-13266D01*
X-12682Y-88356D01*
X-12234Y-87909D01*
X-11992Y-87324D01*
Y-86691D01*
X-12234Y-86107D01*
X-12682Y-85659D01*
X-13266Y-85417D01*
D02*
G37*
G36*
X-22321Y-89945D02*
X-22954D01*
X-23539Y-90187D01*
X-23986Y-90635D01*
X-24228Y-91219D01*
Y-91852D01*
X-23986Y-92436D01*
X-23539Y-92884D01*
X-22954Y-93126D01*
X-22321D01*
X-21737Y-92884D01*
X-21289Y-92436D01*
X-21047Y-91852D01*
Y-91219D01*
X-21289Y-90635D01*
X-21737Y-90187D01*
X-22321Y-89945D01*
D02*
G37*
G36*
X4844Y-89945D02*
X4211D01*
X3627Y-90187D01*
X3179Y-90635D01*
X2937Y-91219D01*
Y-91852D01*
X3179Y-92436D01*
X3627Y-92884D01*
X4211Y-93126D01*
X4844D01*
X5429Y-92884D01*
X5876Y-92436D01*
X6118Y-91852D01*
Y-91219D01*
X5876Y-90635D01*
X5429Y-90187D01*
X4844Y-89945D01*
D02*
G37*
G36*
X-4211D02*
X-4844D01*
X-5429Y-90187D01*
X-5876Y-90635D01*
X-6118Y-91219D01*
Y-91852D01*
X-5876Y-92436D01*
X-5429Y-92884D01*
X-4844Y-93126D01*
X-4211D01*
X-3627Y-92884D01*
X-3179Y-92436D01*
X-2937Y-91852D01*
Y-91219D01*
X-3179Y-90635D01*
X-3627Y-90187D01*
X-4211Y-89945D01*
D02*
G37*
G36*
X-45943Y-44669D02*
X-46576D01*
X-47161Y-44911D01*
X-47608Y-45359D01*
X-47850Y-45943D01*
Y-46576D01*
X-47608Y-47161D01*
X-47161Y-47608D01*
X-46576Y-47850D01*
X-45943D01*
X-45359Y-47608D01*
X-44911Y-47161D01*
X-44669Y-46576D01*
Y-45943D01*
X-44911Y-45359D01*
X-45359Y-44911D01*
X-45943Y-44669D01*
D02*
G37*
G36*
X-54999D02*
X-55631D01*
X-56216Y-44911D01*
X-56663Y-45359D01*
X-56906Y-45943D01*
Y-46576D01*
X-56663Y-47161D01*
X-56216Y-47608D01*
X-55631Y-47850D01*
X-54999D01*
X-54414Y-47608D01*
X-53966Y-47161D01*
X-53724Y-46576D01*
Y-45943D01*
X-53966Y-45359D01*
X-54414Y-44911D01*
X-54999Y-44669D01*
D02*
G37*
G36*
X-64054D02*
X-64687D01*
X-65271Y-44911D01*
X-65719Y-45359D01*
X-65961Y-45943D01*
Y-46576D01*
X-65719Y-47161D01*
X-65271Y-47608D01*
X-64687Y-47850D01*
X-64054D01*
X-63469Y-47608D01*
X-63022Y-47161D01*
X-62779Y-46576D01*
Y-45943D01*
X-63022Y-45359D01*
X-63469Y-44911D01*
X-64054Y-44669D01*
D02*
G37*
G36*
X-73109D02*
X-73742D01*
X-74326Y-44911D01*
X-74774Y-45359D01*
X-75016Y-45943D01*
Y-46576D01*
X-74774Y-47161D01*
X-74326Y-47608D01*
X-73742Y-47850D01*
X-73109D01*
X-72524Y-47608D01*
X-72077Y-47161D01*
X-71835Y-46576D01*
Y-45943D01*
X-72077Y-45359D01*
X-72524Y-44911D01*
X-73109Y-44669D01*
D02*
G37*
G36*
X-82164D02*
X-82797D01*
X-83381Y-44911D01*
X-83829Y-45359D01*
X-84071Y-45943D01*
Y-46576D01*
X-83829Y-47161D01*
X-83381Y-47608D01*
X-82797Y-47850D01*
X-82164D01*
X-81579Y-47608D01*
X-81132Y-47161D01*
X-80890Y-46576D01*
Y-45943D01*
X-81132Y-45359D01*
X-81579Y-44911D01*
X-82164Y-44669D01*
D02*
G37*
G36*
X-91219D02*
X-91852D01*
X-92436Y-44911D01*
X-92884Y-45359D01*
X-93126Y-45943D01*
Y-46576D01*
X-92884Y-47161D01*
X-92436Y-47608D01*
X-91852Y-47850D01*
X-91219D01*
X-90635Y-47608D01*
X-90187Y-47161D01*
X-89945Y-46576D01*
Y-45943D01*
X-90187Y-45359D01*
X-90635Y-44911D01*
X-91219Y-44669D01*
D02*
G37*
G36*
X-45943Y-53724D02*
X-46576D01*
X-47161Y-53966D01*
X-47608Y-54414D01*
X-47850Y-54999D01*
Y-55631D01*
X-47608Y-56216D01*
X-47161Y-56663D01*
X-46576Y-56906D01*
X-45943D01*
X-45359Y-56663D01*
X-44911Y-56216D01*
X-44669Y-55631D01*
Y-54999D01*
X-44911Y-54414D01*
X-45359Y-53966D01*
X-45943Y-53724D01*
D02*
G37*
G36*
X-91219D02*
X-91852D01*
X-92436Y-53966D01*
X-92884Y-54414D01*
X-93126Y-54999D01*
Y-55631D01*
X-92884Y-56216D01*
X-92436Y-56663D01*
X-91852Y-56906D01*
X-91219D01*
X-90635Y-56663D01*
X-90187Y-56216D01*
X-89945Y-55631D01*
Y-54999D01*
X-90187Y-54414D01*
X-90635Y-53966D01*
X-91219Y-53724D01*
D02*
G37*
G36*
X-72912Y-49197D02*
X-73545D01*
X-74129Y-49439D01*
X-74577Y-49886D01*
X-74819Y-50471D01*
Y-51104D01*
X-74640Y-51536D01*
Y-56108D01*
X-84433Y-65902D01*
X-85417Y-65530D01*
X-85659Y-64946D01*
X-86107Y-64498D01*
X-86691Y-64256D01*
X-87324D01*
X-87909Y-64498D01*
X-88356Y-64946D01*
X-88598Y-65530D01*
Y-66163D01*
X-88356Y-66747D01*
X-87909Y-67195D01*
X-87324Y-67437D01*
X-86953Y-68421D01*
X-87476Y-68945D01*
X-87909Y-69124D01*
X-88356Y-69572D01*
X-88598Y-70156D01*
Y-70789D01*
X-88356Y-71373D01*
X-87909Y-71821D01*
X-87324Y-72063D01*
X-86691D01*
X-86107Y-71821D01*
X-85659Y-71373D01*
X-85480Y-70941D01*
X-72230Y-57691D01*
X-71924Y-57233D01*
X-71817Y-56693D01*
Y-51536D01*
X-71638Y-51104D01*
Y-50471D01*
X-71880Y-49886D01*
X-72327Y-49439D01*
X-72912Y-49197D01*
D02*
G37*
G36*
X-64250D02*
X-64883D01*
X-65468Y-49439D01*
X-65915Y-49886D01*
X-66158Y-50471D01*
Y-51104D01*
X-65978Y-51536D01*
Y-56693D01*
X-65871Y-57233D01*
X-65565Y-57691D01*
X-58213Y-65043D01*
X-58373Y-65623D01*
X-58581Y-66067D01*
X-59070Y-66270D01*
X-59518Y-66717D01*
X-59760Y-67302D01*
Y-67935D01*
X-59518Y-68519D01*
X-59070Y-68967D01*
X-58486Y-69209D01*
X-57853D01*
X-57313Y-70050D01*
X-57254Y-70192D01*
X-56806Y-70640D01*
X-56222Y-70882D01*
X-55589D01*
X-55005Y-70640D01*
X-54557Y-70192D01*
X-54527Y-70120D01*
X-53406Y-69850D01*
X-52315Y-70941D01*
X-52136Y-71373D01*
X-51688Y-71821D01*
X-51104Y-72063D01*
X-50471D01*
X-49886Y-71821D01*
X-49439Y-71373D01*
X-49197Y-70789D01*
Y-70156D01*
X-49439Y-69572D01*
X-49886Y-69124D01*
X-50319Y-68945D01*
X-63156Y-56108D01*
Y-51536D01*
X-62976Y-51104D01*
Y-50471D01*
X-63218Y-49886D01*
X-63666Y-49439D01*
X-64250Y-49197D01*
D02*
G37*
G36*
X-81180Y-76559D02*
X-81812D01*
X-82397Y-76801D01*
X-82845Y-77249D01*
X-83087Y-77833D01*
Y-78466D01*
X-82845Y-79051D01*
X-82397Y-79498D01*
X-81812Y-79740D01*
X-81180D01*
X-80595Y-79498D01*
X-80148Y-79051D01*
X-79905Y-78466D01*
Y-77833D01*
X-80148Y-77249D01*
X-80595Y-76801D01*
X-81180Y-76559D01*
D02*
G37*
G36*
X-51122Y-74651D02*
X-51755D01*
X-52340Y-74893D01*
X-52787Y-75341D01*
X-53029Y-75925D01*
Y-76558D01*
X-52787Y-77143D01*
X-52340Y-77590D01*
X-51755Y-77832D01*
X-51230D01*
X-50907Y-78065D01*
X-50409Y-78602D01*
Y-79057D01*
X-50167Y-79641D01*
X-49724Y-80085D01*
X-49724Y-80108D01*
X-49925Y-81069D01*
X-54566D01*
X-54999Y-80890D01*
X-55631D01*
X-56064Y-81069D01*
X-68012D01*
X-68552Y-81176D01*
X-69010Y-81482D01*
X-69366Y-81839D01*
X-69647Y-81955D01*
X-77204D01*
X-77636Y-81776D01*
X-78269D01*
X-78854Y-82018D01*
X-79301Y-82465D01*
X-79543Y-83050D01*
Y-83683D01*
X-79301Y-84267D01*
X-78854Y-84715D01*
X-78269Y-84957D01*
X-77636D01*
X-77204Y-84777D01*
X-74730D01*
X-74499Y-85282D01*
X-74428Y-85762D01*
X-74774Y-86107D01*
X-75016Y-86691D01*
Y-87324D01*
X-74774Y-87909D01*
X-74326Y-88356D01*
X-73742Y-88598D01*
X-73109D01*
X-72524Y-88356D01*
X-72077Y-87909D01*
X-71835Y-87324D01*
Y-86691D01*
X-72077Y-86107D01*
X-72422Y-85762D01*
X-72351Y-85282D01*
X-72120Y-84777D01*
X-69647D01*
X-69214Y-84957D01*
X-68581D01*
X-67997Y-84715D01*
X-67549Y-84267D01*
X-67394Y-83892D01*
X-56064D01*
X-55631Y-84071D01*
X-54999D01*
X-54566Y-83892D01*
X-47009D01*
X-46576Y-84071D01*
X-45943D01*
X-45359Y-83829D01*
X-44911Y-83381D01*
X-44669Y-82797D01*
Y-82164D01*
X-44911Y-81579D01*
X-45359Y-81132D01*
X-45943Y-80890D01*
X-46576D01*
X-46769Y-80970D01*
X-47250Y-80794D01*
X-47493Y-79664D01*
X-47471Y-79641D01*
X-47228Y-79057D01*
Y-78424D01*
X-47471Y-77839D01*
X-47918Y-77392D01*
X-48502Y-77150D01*
X-49028D01*
X-49351Y-76917D01*
X-49848Y-76380D01*
Y-75925D01*
X-50090Y-75341D01*
X-50538Y-74893D01*
X-51122Y-74651D01*
D02*
G37*
G36*
X-82164Y-80890D02*
X-82797D01*
X-83381Y-81132D01*
X-83829Y-81579D01*
X-84071Y-82164D01*
Y-82797D01*
X-83829Y-83381D01*
X-83381Y-83829D01*
X-82797Y-84071D01*
X-82164D01*
X-81579Y-83829D01*
X-81132Y-83381D01*
X-80890Y-82797D01*
Y-82164D01*
X-81132Y-81579D01*
X-81579Y-81132D01*
X-82164Y-80890D01*
D02*
G37*
G36*
Y-85417D02*
X-82797D01*
X-83381Y-85659D01*
X-83829Y-86107D01*
X-84071Y-86691D01*
Y-87324D01*
X-83829Y-87909D01*
X-83381Y-88356D01*
X-82797Y-88598D01*
X-82164D01*
X-81579Y-88356D01*
X-81132Y-87909D01*
X-80890Y-87324D01*
Y-86691D01*
X-81132Y-86107D01*
X-81579Y-85659D01*
X-82164Y-85417D01*
D02*
G37*
G36*
X-91219Y-89945D02*
X-91852D01*
X-92436Y-90187D01*
X-92884Y-90635D01*
X-93126Y-91219D01*
Y-91852D01*
X-92884Y-92436D01*
X-92436Y-92884D01*
X-91852Y-93126D01*
X-91219D01*
X-90635Y-92884D01*
X-90187Y-92436D01*
X-89945Y-91852D01*
Y-91219D01*
X-90187Y-90635D01*
X-90635Y-90187D01*
X-91219Y-89945D01*
D02*
G37*
G36*
X-64054Y-89945D02*
X-64687D01*
X-65271Y-90187D01*
X-65719Y-90635D01*
X-65961Y-91219D01*
Y-91852D01*
X-65719Y-92436D01*
X-65271Y-92884D01*
X-64687Y-93126D01*
X-64054D01*
X-63469Y-92884D01*
X-63022Y-92436D01*
X-62779Y-91852D01*
Y-91219D01*
X-63022Y-90635D01*
X-63469Y-90187D01*
X-64054Y-89945D01*
D02*
G37*
G36*
X-73109D02*
X-73742D01*
X-74326Y-90187D01*
X-74774Y-90635D01*
X-75016Y-91219D01*
Y-91852D01*
X-74774Y-92436D01*
X-74326Y-92884D01*
X-73742Y-93126D01*
X-73109D01*
X-72524Y-92884D01*
X-72077Y-92436D01*
X-71835Y-91852D01*
Y-91219D01*
X-72077Y-90635D01*
X-72524Y-90187D01*
X-73109Y-89945D01*
D02*
G37*
%LPD*%
D28*
X59842Y54429D02*
X68898D01*
X82480Y55315D02*
X91536D01*
X69784D02*
X82480D01*
X68898Y54429D02*
X69784Y55315D01*
X73228Y81102D02*
Y87008D01*
Y81102D02*
X87008Y67323D01*
X64567Y81102D02*
Y87008D01*
X50787Y67323D02*
X64567Y81102D01*
X-9055Y54429D02*
X0D01*
X13583Y55315D02*
X22638D01*
X886D02*
X13583D01*
X0Y54429D02*
X886Y55315D01*
X4331Y81102D02*
Y87008D01*
Y81102D02*
X18110Y67323D01*
X-4331Y81102D02*
Y87008D01*
X-18110Y67323D02*
X-4331Y81102D01*
X-77953Y54429D02*
X-68898D01*
X-55315Y55315D02*
X-46260D01*
X-68012D02*
X-55315D01*
X-68898Y54429D02*
X-68012Y55315D01*
X-64567Y81102D02*
Y87008D01*
Y81102D02*
X-50787Y67323D01*
X-73228Y81102D02*
Y87008D01*
X-87008Y67323D02*
X-73228Y81102D01*
X-77953Y-14469D02*
X-68898D01*
X-55315Y-13583D02*
X-46260D01*
X-68012D02*
X-55315D01*
X-68898Y-14469D02*
X-68012Y-13583D01*
X-64567Y12205D02*
Y18110D01*
Y12205D02*
X-50787Y-1575D01*
X-73228Y12205D02*
Y18110D01*
X-87008Y-1575D02*
X-73228Y12205D01*
X-9055Y-14469D02*
X0D01*
X13583Y-13583D02*
X22638D01*
X886D02*
X13583D01*
X0Y-14469D02*
X886Y-13583D01*
X4331Y12205D02*
Y18110D01*
Y12205D02*
X18110Y-1575D01*
X-4331Y12205D02*
Y18110D01*
X-18110Y-1575D02*
X-4331Y12205D01*
X59842Y-14469D02*
X68898D01*
X82480Y-13583D02*
X91536D01*
X69784D02*
X82480D01*
X68898Y-14469D02*
X69784Y-13583D01*
X73228Y12205D02*
Y18110D01*
Y12205D02*
X87008Y-1575D01*
X64567Y12205D02*
Y18110D01*
X50787Y-1575D02*
X64567Y12205D01*
X59842Y-83366D02*
X68898D01*
X82480Y-82480D02*
X91536D01*
X69784D02*
X82480D01*
X68898Y-83366D02*
X69784Y-82480D01*
X73228Y-56693D02*
Y-50787D01*
Y-56693D02*
X87008Y-70472D01*
X64567Y-56693D02*
Y-50787D01*
X50787Y-70472D02*
X64567Y-56693D01*
X-9055Y-83366D02*
X0D01*
X13583Y-82480D02*
X22638D01*
X886D02*
X13583D01*
X0Y-83366D02*
X886Y-82480D01*
X4331Y-56693D02*
Y-50787D01*
Y-56693D02*
X18110Y-70472D01*
X-4331Y-56693D02*
Y-50787D01*
X-18110Y-70472D02*
X-4331Y-56693D01*
X-77953Y-83366D02*
X-68898D01*
X-55315Y-82480D02*
X-46260D01*
X-68012D02*
X-55315D01*
X-68898Y-83366D02*
X-68012Y-82480D01*
X-64567Y-56693D02*
Y-50787D01*
Y-56693D02*
X-50787Y-70472D01*
X-73228Y-56693D02*
Y-50787D01*
X-87008Y-70472D02*
X-73228Y-56693D01*
D31*
X62795Y59449D02*
D03*
X59842Y54429D02*
D03*
X68898D02*
D03*
X94882Y59449D02*
D03*
X42913Y59449D02*
D03*
X68898Y66536D02*
D03*
Y64173D02*
D03*
Y71260D02*
D03*
Y74016D02*
D03*
X66142Y68898D02*
D03*
X71654D02*
D03*
X68898D02*
D03*
X87008Y43898D02*
D03*
X77953D02*
D03*
X59842D02*
D03*
X50787Y43799D02*
D03*
X82480Y55315D02*
D03*
X91536D02*
D03*
X50787Y67323D02*
D03*
X73228Y87008D02*
D03*
X64567D02*
D03*
X87008Y67323D02*
D03*
X-6102Y59449D02*
D03*
X-9055Y54429D02*
D03*
X0D02*
D03*
X25984Y59449D02*
D03*
X-25984Y59449D02*
D03*
X0Y66536D02*
D03*
Y64173D02*
D03*
Y71260D02*
D03*
Y74016D02*
D03*
X-2756Y68898D02*
D03*
X2756D02*
D03*
X0D02*
D03*
X18110Y43898D02*
D03*
X9055D02*
D03*
X-9055D02*
D03*
X-18110Y43799D02*
D03*
X13583Y55315D02*
D03*
X22638D02*
D03*
X-18110Y67323D02*
D03*
X4331Y87008D02*
D03*
X-4331D02*
D03*
X18110Y67323D02*
D03*
X-75000Y59449D02*
D03*
X-77953Y54429D02*
D03*
X-68898D02*
D03*
X-42913Y59449D02*
D03*
X-94882Y59449D02*
D03*
X-68898Y66536D02*
D03*
Y64173D02*
D03*
Y71260D02*
D03*
Y74016D02*
D03*
X-71653Y68898D02*
D03*
X-66142D02*
D03*
X-68898D02*
D03*
X-50787Y43898D02*
D03*
X-59842D02*
D03*
X-77953D02*
D03*
X-87008Y43799D02*
D03*
X-55315Y55315D02*
D03*
X-46260D02*
D03*
X-87008Y67323D02*
D03*
X-64567Y87008D02*
D03*
X-73228D02*
D03*
X-50787Y67323D02*
D03*
X-75000Y-9449D02*
D03*
X-77953Y-14469D02*
D03*
X-68898D02*
D03*
X-42913Y-9449D02*
D03*
X-94882Y-9449D02*
D03*
X-68898Y-2362D02*
D03*
Y-4724D02*
D03*
Y2362D02*
D03*
Y5118D02*
D03*
X-71653Y0D02*
D03*
X-66142D02*
D03*
X-68898D02*
D03*
X-50787Y-25000D02*
D03*
X-59842D02*
D03*
X-77953D02*
D03*
X-87008Y-25098D02*
D03*
X-55315Y-13583D02*
D03*
X-46260D02*
D03*
X-87008Y-1575D02*
D03*
X-64567Y18110D02*
D03*
X-73228D02*
D03*
X-50787Y-1575D02*
D03*
X-6102Y-9449D02*
D03*
X-9055Y-14469D02*
D03*
X0D02*
D03*
X25984Y-9449D02*
D03*
X-25984Y-9449D02*
D03*
X0Y-2362D02*
D03*
Y-4724D02*
D03*
Y2362D02*
D03*
Y5118D02*
D03*
X-2756Y0D02*
D03*
X2756D02*
D03*
X0D02*
D03*
X18110Y-25000D02*
D03*
X9055D02*
D03*
X-9055D02*
D03*
X-18110Y-25098D02*
D03*
X13583Y-13583D02*
D03*
X22638D02*
D03*
X-18110Y-1575D02*
D03*
X4331Y18110D02*
D03*
X-4331D02*
D03*
X18110Y-1575D02*
D03*
X62795Y-9449D02*
D03*
X59842Y-14469D02*
D03*
X68898D02*
D03*
X94882Y-9449D02*
D03*
X42913Y-9449D02*
D03*
X68898Y-2362D02*
D03*
Y-4724D02*
D03*
Y2362D02*
D03*
Y5118D02*
D03*
X66142Y0D02*
D03*
X71654D02*
D03*
X68898D02*
D03*
X87008Y-25000D02*
D03*
X77953D02*
D03*
X59842D02*
D03*
X50787Y-25098D02*
D03*
X82480Y-13583D02*
D03*
X91536D02*
D03*
X50787Y-1575D02*
D03*
X73228Y18110D02*
D03*
X64567D02*
D03*
X87008Y-1575D02*
D03*
X62795Y-78347D02*
D03*
X59842Y-83366D02*
D03*
X68898D02*
D03*
X94882Y-78347D02*
D03*
X42913Y-78347D02*
D03*
X68898Y-71260D02*
D03*
Y-73622D02*
D03*
Y-66535D02*
D03*
Y-63779D02*
D03*
X66142Y-68898D02*
D03*
X71654D02*
D03*
X68898D02*
D03*
X87008Y-93898D02*
D03*
X77953D02*
D03*
X59842D02*
D03*
X50787Y-93996D02*
D03*
X82480Y-82480D02*
D03*
X91536D02*
D03*
X50787Y-70472D02*
D03*
X73228Y-50787D02*
D03*
X64567D02*
D03*
X87008Y-70472D02*
D03*
X-6102Y-78347D02*
D03*
X-9055Y-83366D02*
D03*
X0D02*
D03*
X25984Y-78347D02*
D03*
X-25984Y-78347D02*
D03*
X0Y-71260D02*
D03*
Y-73622D02*
D03*
Y-66535D02*
D03*
Y-63779D02*
D03*
X-2756Y-68898D02*
D03*
X2756D02*
D03*
X0D02*
D03*
X18110Y-93898D02*
D03*
X9055D02*
D03*
X-9055D02*
D03*
X-18110Y-93996D02*
D03*
X13583Y-82480D02*
D03*
X22638D02*
D03*
X-18110Y-70472D02*
D03*
X4331Y-50787D02*
D03*
X-4331D02*
D03*
X18110Y-70472D02*
D03*
X-75000Y-78347D02*
D03*
X-77953Y-83366D02*
D03*
X-68898D02*
D03*
X-42913Y-78347D02*
D03*
X-94882Y-78347D02*
D03*
X-68898Y-71260D02*
D03*
Y-73622D02*
D03*
Y-66535D02*
D03*
Y-63779D02*
D03*
X-71653Y-68898D02*
D03*
X-66142D02*
D03*
X-68898D02*
D03*
X-50787Y-93898D02*
D03*
X-59842D02*
D03*
X-77953D02*
D03*
X-87008Y-93996D02*
D03*
X-55315Y-82480D02*
D03*
X-46260D02*
D03*
X-87008Y-70472D02*
D03*
X-64567Y-50787D02*
D03*
X-73228D02*
D03*
X-50787Y-70472D02*
D03*
M02*
