M48
;Layer_Color=9474304
;FILE_FORMAT=2:4
INCH,TZ
;TYPE=PLATED
T01F00S00C0.0079
T02F00S00C0.0118
T03F00S00C0.1280
T04F00S00C0.1457
%
T01
X5984Y-217
X6417
Y217
X5984
T02
X-8858Y-14764
X-7874
X-6890
X-5906
X-4921
X-3937
X-2953
X-1969
X-984
X0
X984
X1476Y-13780
X492
X-492
X-1476
X-2461
X-3445
X-4429
X-5413
X-6398
X-7382
X-8366
X2461
X3445
X4429
X5413
X6398
X7382
X8366
X9350
X8858Y-14764
X7874
X6890
X5906
X4921
X3937
X2953
X1969
X2953Y-12795
X3937
X4921
X5906
X6890
X6398Y-11811
X5413
X4429
X3445
X2953Y-10827
X1969
X2461Y-9843
X3445
X4122Y-9843
Y-9449
X4524
Y-9843
Y-10236
Y-10630
X4122
Y-10236
X4921Y-10827
X5728Y-10630
Y-10236
Y-9843
Y-9449
X6130
Y-9843
Y-10236
Y-10630
X6890Y-10827
X7874
X8858
X9350Y-9843
X8366
X7382
Y-7874
X8366
X9350
X8858Y-6890
X7874
X6890
X5906
X6398Y-5906
X7480Y-5906
X8366Y-5906
X9350
X8858Y-4921
X7874
X6890
X5906
X6398Y-3937
X7382
X8366
X9350
X8858Y-2953
X7874
X6890
X5906
X4921
X5413Y-1969
X4429
X3937Y-984
Y984
X4429Y1969
X5413Y0
X7382
X8366
X8366Y-886
X8858Y-984
X9350Y0
X8957Y984
X9350Y1969
X8366
Y-1969
X9350
X7382
X6451Y-1772
X1969Y-4921
X1969Y-5906
X2461Y-5906
X2953Y-6890
X8858Y-8858
X9350Y-11811
X8858Y-12795
X0
X492Y-11811
X-492
X0Y-10827
X984
X1476Y-9843
X984Y-8858
X0
X-984
X-1969
X-2953
X-3720Y-9449
Y-9843
Y-10236
Y-10630
X-4122Y-11024
X-4921Y-10827
X-5728Y-11024
X-6130Y-10630
Y-10236
Y-9843
Y-9449
X-5413Y-9843
X-4429
X-2461
X-1969Y-10827
X-984
X-492Y-7874
X492
X669Y-6496
X0Y-6772
X-669Y-6496
X-945Y-5827
X-669Y-5157
X0Y-4882
X669Y-5157
X945Y-5827
X492Y-3937
X-492
X-1476
X-984Y-2953
X0
X492Y-1969
X0Y-984
X492Y0
X0Y984
X-984
X-492Y1969
X-3445
X-4429
X-3937Y984
X-2756Y797
X-2953Y-984
X-1969
X-2461Y-1969
X-1969Y-2953
X-2953
X-3937
X-4429Y-1969
X-3937Y-984
X-4429Y0
X-5305Y0
X-5817
X-6329
X-6841
X-8366Y0
X-7874Y984
X-8858
X-8366Y1969
X-7874Y2067
X-6063Y2165
X-6378Y2559
X-7874Y-984
X-8858
X-8366Y-1969
X-7382
X-6890Y-2953
X-7874
X-8858
X-8366Y-3937
X-7382
X-6398
X-6890Y-4921
X-7874
X-8858
X-8366Y-5906
X-7480Y-5906
X-6398Y-5906
X-6890Y-6890
X-7874
X-8858
X-8366Y-7874
X-8858Y-8858
X-8366Y-9843
X-7874Y-10827
X-8858
Y-12795
X-6890
X-5906
X-4921
X-3937
X-2953
X-3445Y-11811
X-4429
X-5413
X-6398
X-2953Y-6890
X-2461Y-5906
X-1969Y-5906
Y-4921
X-2953
Y2953
X-3937
X-3445Y3937
X-2461
X-1969Y4921
X-984
Y2953
X-1811Y6260
Y7165
Y8071
X-906
X0
Y7165
X-886Y7146
X906
Y8071
X0Y8976
X0Y10827
X984
X-984
X-1969
X-2953
X-3937
X-4921
X-5906
X-6890
X-7874
X-8858
X-8366Y11811
X-7382
X-6398
X-5413
X-4429
X-3445
X-2461
X-1969Y12795
X-2953
X-3937
X-4921
X-5906
X-6890
X-7402Y13307
X-7126Y13976
X-6398Y13780
X-5413
X-4429
X-3445
X-2461
X-1476
X-1969Y14764
X-2953
X-3937
X-4921
X-5906
X-6890
X-7402Y14646
X-8071Y14921
X-8740Y14646
X-9016Y13976
X-8740Y13307
X-8858Y12795
X-8071Y13032
X-8366Y9843
X-7874Y8858
X-8858
X-8366Y7874
X-8858Y6890
X-8366Y5906
X-7579Y6004
X-6398Y5906
X-5413
X-4921Y6890
X-5906
X-6398Y7874
Y9843
X-3986Y9843
X-3986Y8366
X-3642Y8366
Y7776
X-3986Y7776
X-4331Y7776
Y8366
X-5906Y4921
X-6890
X-7874
X-8858
X-8366Y3937
X-7382
X-6398
X-6693Y2953
X-7874Y2953
X-8858
X1476Y13780
X2461
X3445
X4429
X5413
X6398
X7126Y13976
X7402Y13307
X8071Y13032
X8740Y13307
X8858Y12795
X9016Y13976
X8740Y14646
X8071Y14921
X7402Y14646
X6890Y14764
X5906
X4921
X3937
X2953
X1969
Y12795
X2953
X3937
X4921
X5906
X6890
X7382Y11811
X8366
X9350
X8858Y10827
X7874
X6890
X5906
X4921
X3937
X2953
X1969
X2461Y11811
X3445
X4429
X5413
X6398
X6398Y8366
Y7677
Y7087
Y6496
Y5906
X4429Y5906
X3445
X3937Y4921
X4921
X5413Y3937
X6004Y3937
X6890
X7382Y3937
X8366
X9350
X8858Y4921
X7874
X8366Y5906
X9350
X8858Y6890
X9350Y7874
X8366
X8858Y8858
X7874
X8366Y9843
X9350
X3986Y9429
X3986Y8366
X3642Y8366
Y7776
X3986Y7776
X4331Y7776
Y8366
X1811Y8071
Y7146
X2953Y4921
X3445Y3937
X4429
X4921Y2953
X5906
X6890
X7874
X8858
X3937
X2461Y3937
T03
X7807Y-12102
X1642
X-1642
X-7807
T04
X0Y-5827
X-8071Y13976
X8071
M30
