M48
;Layer_Color=9474304
;FILE_FORMAT=2:4
INCH,TZ
;TYPE=PLATED
T01F00S00C0.0079
T02F00S00C0.0118
T03F00S00C0.0157
T04F00S00C0.0276
T05F00S00C0.0315
T06F00S00C0.0591
T07F00S00C0.1457
%
T01
X5984Y-217
X6417
Y217
X5984
T02
X-9449Y-14370
X-5906
X-4724
X-3543
X-1181
X-0
X1181
X3543
X4724
X5906
X6496Y-13189
X5315
X4134
X2953
X4134Y-10827
X5315
X5610Y-12303
X6496
X7087Y-12008
X7382Y-12303
X8268Y-12008
X7677Y-10827
X8268Y-9646
X6939Y-9744
X6053Y-9744
X6063Y-7480
X6496Y-7480
X6929Y-7480
X7382Y-7480
X7677Y-6102
X6939Y-4921
X6053
X4724Y-4921
X3543
X4134Y-3740
X5315
X6496
X7677
X7087Y-2559
X5906
X4724
X3543
X4134Y-1378
X4035Y-295
X3543Y-197
X4035Y394
X4134Y984
X2953
X3543Y2165
X4724
X5906
X7087
X8268
X8957Y984
X7087Y-197
X8366Y-1575
X2953Y-1378
Y-3740
X3543Y-7283
X4134Y-8465
X2953
X3543Y-9646
X5610Y-7480
X5315Y-6102
X591
X-591
X-1772
X-2953
X-3740Y-5906
Y-6496
Y-7087
X-2362Y-7283
X-1181
X-591Y-8465
X591
X1181Y-7283
Y-4921
X-1181
X-2362
X-1772Y-3740
X-591
X-1181Y-2559
X-1476Y-2067
X-2067
X-2362Y-2559
X-2386Y-1107
X-2756Y-984
X-3839
X-4528
X-4134Y-1378
X-3839Y-2067
X-4626Y-2854
X-5512
X-6398
X-7283
X-8268Y-2362
X-7677Y-1378
X-6201Y-1870
X-5787Y472
X-5315
X-5709Y2067
X-6063Y2165
X-6043Y2539
X-6378Y2559
X-8268Y2362
Y1969
X-4528Y2264
X-3543Y2165
X-1870Y2165
X-2756Y394
X-2362Y-197
X-1181Y-1378
X-591Y-1378
X-861Y-2042
X-2953Y-3740
Y-8465
X-1772
X-1181Y-9646
X-2362
X-4528Y-10630
X-4921Y-11122
X-5315Y-10827
X-5315Y-9941
X-6447Y-9843
X-7333
X-8268Y-9646
X-7677Y-8465
X-8268Y-7283
Y-4921
X-6496Y-6102
Y-10827
X-7677
X-8268Y-12008
X-9449
X-6299Y-12303
X-6004Y-12598
X-5413Y-12303
X-5118Y-12598
X-4724Y-12008
X-4134Y-12205
X-3740Y-11614
X-3346Y-11909
X1181Y-9646
Y-197
X591Y984
X1181Y2165
X591Y3346
X-591
X-886Y4921
X-1870
X-1811Y6260
X-1457
Y7165
X-1811Y7165
Y8071
X-1457Y8071
X-906Y8071
X-591Y8071
X0Y8071
X591Y8071
X906Y8071
Y7146
X0Y7165
X-886Y7146
X0Y8976
X-3642Y8465
X-3986
X-4331
X-4331Y7677
X-3986Y7677
X-3642
X-3986Y9843
X-3543Y11614
X-2362
X-1772Y12795
X-2953
X-4134
X-5315
X-6496
X-5906Y13976
X-4724
X-3543
X-2362
X-4724Y11614
X-5906
X-7087
X-8268
X-9449
X-8858Y12795
X-9449Y13976
X-8858Y10433
X-7677
X-8071Y9941
Y9350
Y8366
Y7776
Y7185
X-8268Y6890
X-9449
X-8858Y8071
X-7677
X-6496
X-6201Y6890
X-4823Y6299
X-5315Y5709
X-7480Y6004
X-8858Y5709
X-8268Y4528
X-9449
X-7677Y3346
X-7087Y2854
X-6693Y2953
X-6368Y2923
X-2657Y4232
X1181Y4528
X-6496Y10433
X-9449Y9252
X1811Y8071
Y7146
X3642Y7677
X3986
X4331Y7677
Y8465
X3986Y8465
X3642
X3986Y9429
X3543Y11614
X4724
X5906
X7087
X8268
X8858Y12795
Y10433
X7677
X8071Y9941
Y9350
Y8366
Y7776
Y7185
X8268Y6890
X8858Y8071
X7677
X6398Y8366
Y7677
Y7087
Y6496
Y5906
X7087Y4528
X6890Y3937
X6004
X5315Y3346
X4134
X2953
X4724Y4528
X4134Y5709
X8858
X8268Y4528
X8858Y3346
X7677
X6496Y10433
Y12795
X5315
X4134
X2953
X1772
X2362Y13976
X3543
X4724
X5906
X2362Y11614
T03
X-8740Y-14646
X-8071Y-14921
X-7402Y-14646
X-7126Y-13976
X-7402Y-13307
X-8071Y-13032
X-8740Y-13307
X-9016Y-13976
X7126
X7402Y-13307
X8071Y-13032
X8740Y-13307
X9016Y-13976
X8740Y-14646
X8071Y-14921
X7402Y-14646
X-7402Y13307
X-7126Y13976
X-7402Y14646
X-8071Y14921
X-8740Y14646
X-9016Y13976
X-8740Y13307
X-8071Y13032
X7402Y13307
X7126Y13976
X7402Y14646
X8071Y14921
X8740Y14646
X9016Y13976
X8740Y13307
X8071Y13032
T04
X-500Y-13614
X500
X1000Y-12614
X0
X-1000
X-500Y-11614
X500
X1500
X1000Y-10614
X0
X-1000
X-1500Y-11614
X-500Y-9614
X500
T05
X-2500Y-14114
X2500
Y-9114
X-2500
T06
X-1969Y15059
X1939Y15030
T07
X-8071Y-13976
X8071
X-8071Y13976
X8071
M30
