G04*
G04 #@! TF.GenerationSoftware,Altium Limited,Altium Designer,23.11.1 (41)*
G04*
G04 Layer_Color=65535*
%FSLAX25Y25*%
%MOIN*%
G70*
G04*
G04 #@! TF.SameCoordinates,29EA51B2-5BA9-446F-9376-B5E75E75F833*
G04*
G04*
G04 #@! TF.FilePolarity,Positive*
G04*
G01*
G75*
%ADD10C,0.01000*%
%ADD11C,0.00984*%
%ADD12C,0.00984*%
%ADD13C,0.02362*%
%ADD14C,0.01968*%
%ADD15C,0.00787*%
%ADD16C,0.00394*%
%ADD17C,0.00787*%
%ADD18C,0.00602*%
%ADD19C,0.00591*%
D10*
X322244Y97441D02*
X321457D01*
X322244D01*
X325000Y101378D02*
X324213D01*
X325000D01*
X322244D02*
X321457D01*
X322244D01*
X325000Y105315D02*
X324213D01*
X325000D01*
X322244D02*
X321457D01*
X322244D01*
X327756D02*
X326969D01*
X327756D01*
X189370Y96457D02*
X188583D01*
X189370D01*
X185433Y99213D02*
X184646D01*
X185433D01*
Y96457D02*
X184646D01*
X185433D01*
X181496Y99213D02*
X180709D01*
X181496D01*
Y96457D02*
X180709D01*
X181496D01*
Y101969D02*
X180709D01*
X181496D01*
D11*
X282382Y-94685D02*
X281644Y-94259D01*
Y-95111D01*
X282382Y-94685D01*
X239272Y128150D02*
X238533Y128576D01*
Y127723D01*
X239272Y128150D01*
X207344Y44640D02*
X206606Y45067D01*
Y44214D01*
X207344Y44640D01*
X219882Y69862D02*
X219144Y70288D01*
Y69436D01*
X219882Y69862D01*
X162913Y126870D02*
X162175Y127296D01*
Y126444D01*
X162913Y126870D01*
X117598Y105413D02*
X116860Y105840D01*
Y104987D01*
X117598Y105413D01*
X169980Y-82284D02*
X169242Y-81857D01*
Y-82710D01*
X169980Y-82284D01*
Y-32087D02*
X169242Y-31660D01*
Y-32513D01*
X169980Y-32087D01*
X282382Y-27756D02*
X281644Y-27330D01*
Y-28182D01*
X282382Y-27756D01*
D12*
X131102Y46260D02*
D03*
Y63976D02*
D03*
D13*
X212205Y74803D02*
X211760Y75727D01*
X210761Y75955D01*
X209960Y75316D01*
Y74291D01*
X210761Y73652D01*
X211760Y73880D01*
X212205Y74803D01*
X158661Y118504D02*
X158217Y119427D01*
X157218Y119655D01*
X156416Y119016D01*
Y117991D01*
X157218Y117352D01*
X158217Y117580D01*
X158661Y118504D01*
X123228Y113779D02*
X122784Y114703D01*
X121784Y114931D01*
X120983Y114292D01*
Y113267D01*
X121784Y112628D01*
X122784Y112856D01*
X123228Y113779D01*
D14*
X12008Y-59055D02*
D03*
D15*
X244094Y-120079D02*
X310039D01*
X244094Y-53150D02*
X310039D01*
Y-120079D02*
Y-53150D01*
X244094Y-120079D02*
Y-53150D01*
X72835Y-8858D02*
X114173D01*
X72835Y69882D02*
X114173D01*
Y-8858D02*
Y69882D01*
X72835Y-8858D02*
Y69882D01*
X130905Y-120079D02*
X191929D01*
X130905Y-19685D02*
X191929D01*
Y-120079D02*
Y-19685D01*
X130905Y-120079D02*
Y-19685D01*
X103347Y87598D02*
X176181D01*
X103347Y143701D02*
X176181D01*
Y87598D02*
Y143701D01*
X103347Y87598D02*
Y143701D01*
X392717Y-102362D02*
Y-51181D01*
X331693Y-102362D02*
Y-51181D01*
X392717D01*
X331693Y-102362D02*
X392717D01*
X218504Y96457D02*
X281496D01*
X218504Y143701D02*
X281496D01*
Y96457D02*
Y143701D01*
X218504Y96457D02*
Y143701D01*
X303150Y75787D02*
X354331D01*
X303150Y125984D02*
X354331D01*
Y75787D02*
Y125984D01*
X303150Y75787D02*
Y125984D01*
X244094Y-53150D02*
X310039D01*
X244094Y13780D02*
X310039D01*
Y-53150D02*
Y13780D01*
X244094Y-53150D02*
Y13780D01*
X279331Y-95276D02*
Y-93602D01*
X277658Y-95276D02*
X279331D01*
X262008D02*
X263681D01*
X262008D02*
Y-93602D01*
Y-79626D02*
Y-77953D01*
X263681D01*
X279331Y-79626D02*
Y-77953D01*
X277658D02*
X279331D01*
X241339Y111417D02*
X243996D01*
X241339D02*
Y114075D01*
X256004Y111417D02*
X258661D01*
Y114075D01*
Y126083D02*
Y128740D01*
X256004D02*
X258661D01*
X241339D02*
X243996D01*
X241339Y126083D02*
Y128740D01*
X193907Y23622D02*
X208661Y8867D01*
Y38377D02*
X223416Y23622D01*
X208661Y8867D02*
X223416Y23622D01*
X193907D02*
X208661Y38377D01*
X202362Y90551D02*
X214961D01*
X202362Y70866D02*
X214961D01*
X202362D02*
Y90551D01*
X214961Y70866D02*
Y90551D01*
X141732Y122441D02*
X161417D01*
X141732Y109843D02*
X161417D01*
Y122441D01*
X141732Y109843D02*
Y122441D01*
X118110Y109843D02*
X137795D01*
X118110Y122441D02*
X137795D01*
X118110Y109843D02*
Y122441D01*
X137795Y109843D02*
Y122441D01*
X130905Y-69882D02*
X191929Y-69882D01*
X148819Y-86614D02*
Y-84842D01*
X150591D01*
X148819Y-106102D02*
Y-104331D01*
Y-106102D02*
X150591D01*
X168307D02*
X170079D01*
Y-104331D01*
Y-86614D02*
Y-84842D01*
X168307D02*
X170079D01*
X148819Y-36417D02*
Y-34646D01*
X150591D01*
X148819Y-55905D02*
Y-54134D01*
Y-55905D02*
X150591D01*
X168307D02*
X170079D01*
Y-54134D01*
Y-36417D02*
Y-34646D01*
X168307D02*
X170079D01*
X277658Y-11024D02*
X279331D01*
Y-12697D02*
Y-11024D01*
X262008D02*
X263681D01*
X262008Y-12697D02*
Y-11024D01*
Y-28346D02*
Y-26673D01*
Y-28346D02*
X263681D01*
X277658D02*
X279331D01*
Y-26673D01*
X360236Y85433D02*
Y116929D01*
X391732D01*
Y85433D02*
Y116929D01*
X360236Y85433D02*
X391732D01*
X392717Y-94508D02*
Y-59035D01*
X356221D02*
X392717D01*
X356221Y-94508D02*
Y-59035D01*
Y-94508D02*
X392717D01*
X367126Y-94488D02*
Y-59035D01*
X14764Y-61614D02*
X44291D01*
X14764Y-99803D02*
Y-61614D01*
Y-99803D02*
X44291D01*
Y-61614D01*
X80709Y-155512D02*
X112205D01*
Y-124016D01*
X80709D02*
X112205D01*
X80709Y-155512D02*
Y-124016D01*
D16*
X347441Y-73819D02*
X356299Y-82677D01*
X331693Y-73819D02*
X340551Y-82677D01*
X340551Y-78740D02*
X340551D01*
X331693Y-69882D02*
X340551Y-78740D01*
X331693Y-65945D02*
X340551Y-74803D01*
X331693Y-62008D02*
X340551Y-70866D01*
X331693Y-54134D02*
X344488Y-66929D01*
X331693Y-58071D02*
X340551Y-66929D01*
X356299Y-90551D02*
Y-90551D01*
X331693Y-81693D02*
X352362Y-102362D01*
X336614Y-51181D02*
X356299Y-70866D01*
X331693Y-77756D02*
X356299Y-102362D01*
X332677Y-51181D02*
X356299Y-74803D01*
X340551Y-51181D02*
X356299Y-66929D01*
X344488Y-51181D02*
X356299Y-62992D01*
X347441Y-85630D02*
X356221Y-94409D01*
X343504Y-85630D02*
X360236Y-102362D01*
X347441Y-69882D02*
X356299Y-78740D01*
X347441Y-77756D02*
X356299Y-86614D01*
X347441Y-81693D02*
X356299Y-90551D01*
X356221Y-94409D02*
X364173Y-102362D01*
X371969Y-94409D02*
X379921Y-102362D01*
X375905Y-94409D02*
X383858Y-102362D01*
X379642Y-94386D02*
X387595Y-102339D01*
X392717Y-100394D02*
Y-99586D01*
X360157Y-94409D02*
X368110Y-102362D01*
X364094Y-94409D02*
X372047Y-102362D01*
X368032Y-94409D02*
X375984Y-102362D01*
X356299Y-85630D02*
Y-85630D01*
X331693Y-97441D02*
X336614Y-102362D01*
X331693Y-93504D02*
X340551Y-102362D01*
X331693Y-89567D02*
X344488Y-102362D01*
X331693Y-85630D02*
X348425Y-102362D01*
X356221Y-94508D02*
Y-94409D01*
X368110Y-51181D02*
X375984Y-59055D01*
X352362Y-51181D02*
X360236Y-59055D01*
X364173Y-51181D02*
X372047Y-59055D01*
X348425Y-51181D02*
X356250Y-59006D01*
X387732Y-51214D02*
X392668Y-56151D01*
X372047Y-51181D02*
X379921Y-59055D01*
X356299Y-51181D02*
X364173Y-59055D01*
X383579Y-94386D02*
X391532Y-102339D01*
X387516Y-94386D02*
X392717Y-99586D01*
X360236Y-51181D02*
X368110Y-59055D01*
X383795Y-51214D02*
X391669Y-59088D01*
X375921Y-51214D02*
X383795Y-59088D01*
X379858Y-51214D02*
X387732Y-59088D01*
X342520Y92913D02*
Y98032D01*
D17*
X319095Y30315D02*
X460827D01*
X319095Y-30315D02*
X460827D01*
X319095D02*
Y30315D01*
X460827Y-30315D02*
Y30315D01*
D18*
X173288Y-118492D02*
Y-115868D01*
X174600Y-114556D01*
X175911Y-115868D01*
Y-118492D01*
Y-116524D01*
X173288D01*
X177223Y-114556D02*
Y-118492D01*
X179191D01*
X179847Y-117836D01*
Y-115212D01*
X179191Y-114556D01*
X177223D01*
X183783Y-115212D02*
X183127Y-114556D01*
X181815D01*
X181159Y-115212D01*
Y-117836D01*
X181815Y-118492D01*
X183127D01*
X183783Y-117836D01*
X189031Y-114556D02*
X190342D01*
X189687D01*
Y-118492D01*
X189031D01*
X190342D01*
X171976Y-68295D02*
Y-65671D01*
X173288Y-64359D01*
X174600Y-65671D01*
Y-68295D01*
Y-66327D01*
X171976D01*
X175911Y-64359D02*
Y-68295D01*
X177879D01*
X178535Y-67639D01*
Y-65016D01*
X177879Y-64359D01*
X175911D01*
X182471Y-65016D02*
X181815Y-64359D01*
X180503D01*
X179847Y-65016D01*
Y-67639D01*
X180503Y-68295D01*
X181815D01*
X182471Y-67639D01*
X190342D02*
Y-65016D01*
X189687Y-64359D01*
X188375D01*
X187719Y-65016D01*
Y-67639D01*
X188375Y-68295D01*
X189687D01*
X189031Y-66983D02*
X190342Y-68295D01*
X189687D02*
X190342Y-67639D01*
X371392Y81824D02*
X368769D01*
Y79856D01*
X370081D01*
X368769D01*
Y77888D01*
X372705D02*
Y81824D01*
X374672D01*
X375328Y81168D01*
Y79856D01*
X374672Y79200D01*
X372705D01*
X374016D02*
X375328Y77888D01*
X379264Y81824D02*
X376640D01*
Y77888D01*
X379264D01*
X376640Y79856D02*
X377952D01*
X383200Y81824D02*
X380576D01*
Y79856D01*
X381888D01*
X380576D01*
Y77888D01*
X373360Y75655D02*
X370737D01*
Y71719D01*
X373360D01*
X370737Y73687D02*
X372048D01*
X374672Y75655D02*
X377296Y71719D01*
Y75655D02*
X374672Y71719D01*
X378608Y75655D02*
X381232D01*
X379920D01*
Y71719D01*
X336954Y86102D02*
X335098Y84247D01*
X337881Y81464D01*
X339737Y83319D01*
X336490Y82855D02*
X337418Y83783D01*
X337881Y87030D02*
X342520Y86102D01*
X339737Y88885D02*
X340664Y84247D01*
Y89813D02*
X342520Y91668D01*
X341592Y90740D01*
X344375Y87957D01*
X24280Y-112205D02*
X22968D01*
X22312Y-112861D01*
Y-115485D01*
X22968Y-116141D01*
X24280D01*
X24936Y-115485D01*
Y-112861D01*
X24280Y-112205D01*
X28872Y-112861D02*
X28216Y-112205D01*
X26904D01*
X26248Y-112861D01*
Y-115485D01*
X26904Y-116141D01*
X28216D01*
X28872Y-115485D01*
X30184Y-112205D02*
X32807Y-116141D01*
Y-112205D02*
X30184Y-116141D01*
X36087Y-112205D02*
X34775D01*
X34119Y-112861D01*
Y-115485D01*
X34775Y-116141D01*
X36087D01*
X36743Y-115485D01*
Y-112861D01*
X36087Y-112205D01*
X343957Y-83987D02*
Y-81363D01*
X342645Y-82675D02*
X345269D01*
X341989Y-77428D02*
Y-80051D01*
X343957D01*
X343301Y-78740D01*
Y-78083D01*
X343957Y-77428D01*
X345269D01*
X345924Y-78083D01*
Y-79396D01*
X345269Y-80051D01*
X342645Y-76116D02*
X341989Y-75460D01*
Y-74148D01*
X342645Y-73492D01*
X345269D01*
X345924Y-74148D01*
Y-75460D01*
X345269Y-76116D01*
X342645D01*
X341989Y-72180D02*
X344613D01*
X345924Y-70868D01*
X344613Y-69556D01*
X341989D01*
X369751Y-87270D02*
X369095Y-87925D01*
Y-89237D01*
X369751Y-89893D01*
X372375D01*
X373031Y-89237D01*
Y-87925D01*
X372375Y-87270D01*
X371063D01*
Y-88581D01*
X373031Y-85958D02*
X369095D01*
X373031Y-83334D01*
X369095D01*
Y-82022D02*
X373031D01*
Y-80054D01*
X372375Y-79398D01*
X369751D01*
X369095Y-80054D01*
Y-82022D01*
X371063Y-76113D02*
Y-73489D01*
X369751Y-74801D02*
X372375D01*
X369095Y-69554D02*
Y-72177D01*
X371063D01*
X370407Y-70865D01*
Y-70209D01*
X371063Y-69554D01*
X372375D01*
X373031Y-70209D01*
Y-71522D01*
X372375Y-72177D01*
X369751Y-68242D02*
X369095Y-67586D01*
Y-66274D01*
X369751Y-65618D01*
X372375D01*
X373031Y-66274D01*
Y-67586D01*
X372375Y-68242D01*
X369751D01*
X369095Y-64306D02*
X371719D01*
X373031Y-62994D01*
X371719Y-61682D01*
X369095D01*
X162131Y89185D02*
Y93121D01*
X160163Y91153D01*
X162787D01*
X164099Y89185D02*
Y93121D01*
X165411Y91809D01*
X166723Y93121D01*
Y89185D01*
X168035Y93121D02*
Y89185D01*
Y91153D01*
X170659D01*
Y93121D01*
Y89185D01*
X171971Y91809D02*
X174594D01*
X171971Y89185D01*
X174594D01*
X220091Y142114D02*
Y138178D01*
X222714D01*
X224026D02*
Y142114D01*
X225994D01*
X226650Y141458D01*
Y140146D01*
X225994Y139490D01*
X224026D01*
X230586Y142114D02*
X227962D01*
Y140146D01*
X229274D01*
X227962D01*
Y138178D01*
X203414Y25590D02*
Y21654D01*
X205382D01*
X206038Y22310D01*
Y24934D01*
X205382Y25590D01*
X203414D01*
X207349Y21654D02*
Y24278D01*
X208661Y25590D01*
X209973Y24278D01*
Y21654D01*
Y23622D01*
X207349D01*
X213909Y24934D02*
X213253Y25590D01*
X211941D01*
X211285Y24934D01*
Y22310D01*
X211941Y21654D01*
X213253D01*
X213909Y22310D01*
X36090Y-34831D02*
Y-30895D01*
X38058D01*
X38714Y-31551D01*
Y-32863D01*
X38058Y-33519D01*
X36090D01*
X37402D02*
X38714Y-34831D01*
X40026Y-30895D02*
X42650Y-34831D01*
Y-30895D02*
X40026Y-34831D01*
X36090Y-51784D02*
X38714D01*
X37402D01*
Y-55719D01*
X40026Y-51784D02*
X42650Y-55719D01*
Y-51784D02*
X40026Y-55719D01*
X37402Y-3227D02*
X36746Y-2571D01*
X35434D01*
X34778Y-3227D01*
Y-3883D01*
X35434Y-4539D01*
X36746D01*
X37402Y-5195D01*
Y-5851D01*
X36746Y-6507D01*
X35434D01*
X34778Y-5851D01*
X38714Y-6507D02*
Y-2571D01*
X40682D01*
X41338Y-3227D01*
Y-4539D01*
X40682Y-5195D01*
X38714D01*
X42650Y-2571D02*
X43962D01*
X43306D01*
Y-6507D01*
X42650D01*
X43962D01*
X46533Y20997D02*
X45877Y21653D01*
X44565D01*
X43909Y20997D01*
Y18373D01*
X44565Y17717D01*
X45877D01*
X46533Y18373D01*
X47845Y21653D02*
Y17717D01*
X50469D01*
X51781Y21653D02*
Y17717D01*
Y19029D01*
X54405Y21653D01*
X52437Y19685D01*
X54405Y17717D01*
X46533Y13123D02*
X45877Y13779D01*
X44565D01*
X43909Y13123D01*
Y10499D01*
X44565Y9843D01*
X45877D01*
X46533Y10499D01*
X50469Y13123D02*
X49813Y13779D01*
X48501D01*
X47845Y13123D01*
Y12467D01*
X48501Y11811D01*
X49813D01*
X50469Y11155D01*
Y10499D01*
X49813Y9843D01*
X48501D01*
X47845Y10499D01*
X43909Y5905D02*
Y1969D01*
X45877D01*
X46533Y2625D01*
Y5249D01*
X45877Y5905D01*
X43909D01*
X47845Y1969D02*
Y4593D01*
X49157Y5905D01*
X50469Y4593D01*
Y1969D01*
Y3937D01*
X47845D01*
X51781Y5905D02*
X54405D01*
X53093D01*
Y1969D01*
X55717D02*
Y4593D01*
X57029Y5905D01*
X58341Y4593D01*
Y1969D01*
Y3937D01*
X55717D01*
X262199Y98043D02*
X263510D01*
X262855D01*
Y101979D01*
X262199Y101323D01*
X268102Y98043D02*
X265478D01*
X268102Y100667D01*
Y101323D01*
X267446Y101979D01*
X266134D01*
X265478Y101323D01*
X269414Y98043D02*
Y101979D01*
X270726Y100667D01*
X272038Y101979D01*
Y98043D01*
X273350Y101979D02*
Y98043D01*
Y100011D01*
X275974D01*
Y101979D01*
Y98043D01*
X277286Y100667D02*
X279909D01*
X277286Y98043D01*
X279909D01*
X104933Y142114D02*
Y138178D01*
X107557D01*
X108869D02*
Y142114D01*
X110837D01*
X111493Y141458D01*
Y140146D01*
X110837Y139490D01*
X108869D01*
X115428Y142114D02*
X112804D01*
Y140146D01*
X114117D01*
X112804D01*
Y138178D01*
X245681Y-114556D02*
Y-118492D01*
X248305D01*
X249617D02*
Y-114556D01*
X251585D01*
X252241Y-115212D01*
Y-116524D01*
X251585Y-117180D01*
X249617D01*
X256176Y-114556D02*
X253553D01*
Y-116524D01*
X254865D01*
X253553D01*
Y-118492D01*
X261424Y-114556D02*
X262736D01*
X262080D01*
Y-118492D01*
X261424D01*
X262736D01*
X245681Y-47627D02*
Y-51563D01*
X248305D01*
X249617D02*
Y-47627D01*
X251585D01*
X252241Y-48283D01*
Y-49595D01*
X251585Y-50251D01*
X249617D01*
X256176Y-47627D02*
X253553D01*
Y-49595D01*
X254865D01*
X253553D01*
Y-51563D01*
X264048Y-50907D02*
Y-48283D01*
X263392Y-47627D01*
X262080D01*
X261424Y-48283D01*
Y-50907D01*
X262080Y-51563D01*
X263392D01*
X262736Y-50251D02*
X264048Y-51563D01*
X263392D02*
X264048Y-50907D01*
X80058Y-116798D02*
X79402Y-116142D01*
X78090D01*
X77434Y-116798D01*
Y-119422D01*
X78090Y-120078D01*
X79402D01*
X80058Y-119422D01*
X81370Y-116142D02*
Y-120078D01*
X83994D01*
X85305Y-116142D02*
Y-120078D01*
Y-118766D01*
X87929Y-116142D01*
X85961Y-118110D01*
X87929Y-120078D01*
X93177Y-118110D02*
X95801D01*
X103672Y-116798D02*
X103016Y-116142D01*
X101704D01*
X101048Y-116798D01*
Y-117454D01*
X101704Y-118110D01*
X103016D01*
X103672Y-118766D01*
Y-119422D01*
X103016Y-120078D01*
X101704D01*
X101048Y-119422D01*
X104984Y-116142D02*
Y-116798D01*
X106296Y-118110D01*
X107608Y-116798D01*
Y-116142D01*
X106296Y-118110D02*
Y-120078D01*
X108920D02*
Y-116142D01*
X111544Y-120078D01*
Y-116142D01*
X115479Y-116798D02*
X114823Y-116142D01*
X113512D01*
X112856Y-116798D01*
Y-119422D01*
X113512Y-120078D01*
X114823D01*
X115479Y-119422D01*
X308344Y123413D02*
X305720D01*
Y121446D01*
X307032D01*
X305720D01*
Y119478D01*
X309656D02*
Y123413D01*
X311624D01*
X312280Y122757D01*
Y121446D01*
X311624Y120790D01*
X309656D01*
X310968D02*
X312280Y119478D01*
X316216Y123413D02*
X313592D01*
Y119478D01*
X316216D01*
X313592Y121446D02*
X314904D01*
X320151Y123413D02*
X317528D01*
Y121446D01*
X318840D01*
X317528D01*
Y119478D01*
X79401Y62992D02*
X76777D01*
Y61024D01*
X78089D01*
X76777D01*
Y59056D01*
X80713D02*
Y62992D01*
X82681D01*
X83337Y62336D01*
Y61024D01*
X82681Y60368D01*
X80713D01*
X87272Y62336D02*
X86616Y62992D01*
X85304D01*
X84649Y62336D01*
Y59712D01*
X85304Y59056D01*
X86616D01*
X87272Y59712D01*
Y61024D01*
X85960D01*
X88584Y59056D02*
Y61680D01*
X89896Y62992D01*
X91208Y61680D01*
Y59056D01*
Y61024D01*
X88584D01*
X96456D02*
X99080D01*
X97768Y62336D02*
Y59712D01*
X100391Y59056D02*
X101703D01*
X101048D01*
Y62992D01*
X100391Y62336D01*
X106295Y59056D02*
X103671D01*
X106295Y61680D01*
Y62336D01*
X105639Y62992D01*
X104327D01*
X103671Y62336D01*
X107607Y62992D02*
Y60368D01*
X108919Y59056D01*
X110231Y60368D01*
Y62992D01*
X79073Y47243D02*
X76449D01*
Y45276D01*
X77761D01*
X76449D01*
Y43308D01*
X80385D02*
Y47243D01*
X82353D01*
X83009Y46587D01*
Y45276D01*
X82353Y44620D01*
X80385D01*
X86944Y46587D02*
X86288Y47243D01*
X84977D01*
X84321Y46587D01*
Y43964D01*
X84977Y43308D01*
X86288D01*
X86944Y43964D01*
Y45276D01*
X85632D01*
X88256Y43308D02*
Y45932D01*
X89568Y47243D01*
X90880Y45932D01*
Y43308D01*
Y45276D01*
X88256D01*
X96128D02*
X98752D01*
X97440Y46587D02*
Y43964D01*
X100064Y46587D02*
X100719Y47243D01*
X102031D01*
X102687Y46587D01*
Y45932D01*
X102031Y45276D01*
X101375D01*
X102031D01*
X102687Y44620D01*
Y43964D01*
X102031Y43308D01*
X100719D01*
X100064Y43964D01*
X103999Y47243D02*
Y44620D01*
X105311Y43308D01*
X106623Y44620D01*
Y47243D01*
X107935Y46587D02*
X108591Y47243D01*
X109903D01*
X110559Y46587D01*
Y45932D01*
X109903Y45276D01*
X109247D01*
X109903D01*
X110559Y44620D01*
Y43964D01*
X109903Y43308D01*
X108591D01*
X107935Y43964D01*
X88256Y29528D02*
X90880D01*
X89568Y30839D02*
Y28216D01*
X94816Y31495D02*
X92192D01*
Y29528D01*
X93504Y30184D01*
X94160D01*
X94816Y29528D01*
Y28216D01*
X94160Y27560D01*
X92848D01*
X92192Y28216D01*
X96128Y31495D02*
Y28872D01*
X97440Y27560D01*
X98752Y28872D01*
Y31495D01*
X86288Y13780D02*
X88912D01*
X87600Y15091D02*
Y12468D01*
X90224Y15091D02*
X90880Y15747D01*
X92192D01*
X92848Y15091D01*
Y14435D01*
X92192Y13780D01*
X91536D01*
X92192D01*
X92848Y13124D01*
Y12468D01*
X92192Y11812D01*
X90880D01*
X90224Y12468D01*
X94160Y15747D02*
Y13124D01*
X95472Y11812D01*
X96784Y13124D01*
Y15747D01*
X98096Y15091D02*
X98752Y15747D01*
X100064D01*
X100719Y15091D01*
Y14435D01*
X100064Y13780D01*
X99408D01*
X100064D01*
X100719Y13124D01*
Y12468D01*
X100064Y11812D01*
X98752D01*
X98096Y12468D01*
X88256Y-6889D02*
Y-2953D01*
X90224D01*
X90880Y-3609D01*
Y-4921D01*
X90224Y-5577D01*
X88256D01*
X92192Y-2953D02*
Y-6889D01*
X93504Y-5577D01*
X94816Y-6889D01*
Y-2953D01*
X96128Y-6889D02*
Y-2953D01*
X98096D01*
X98752Y-3609D01*
Y-4921D01*
X98096Y-5577D01*
X96128D01*
X97440D02*
X98752Y-6889D01*
D19*
X385237Y-16268D02*
Y-17317D01*
Y-16793D01*
X387861D01*
X388385Y-17317D01*
Y-17842D01*
X387861Y-18367D01*
X385237Y-15218D02*
X388385D01*
Y-13119D01*
X385761Y-9971D02*
X385237Y-10495D01*
Y-11545D01*
X385761Y-12070D01*
X387861D01*
X388385Y-11545D01*
Y-10495D01*
X387861Y-9971D01*
X385237Y-6822D02*
Y-7871D01*
Y-7347D01*
X387861D01*
X388385Y-7871D01*
Y-8396D01*
X387861Y-8921D01*
X385237Y-5772D02*
X388385D01*
Y-3673D01*
X385761Y-525D02*
X385237Y-1049D01*
Y-2099D01*
X385761Y-2624D01*
X387861D01*
X388385Y-2099D01*
Y-1049D01*
X387861Y-525D01*
X385237Y2624D02*
Y1574D01*
Y2099D01*
X387861D01*
X388385Y1574D01*
Y1049D01*
X387861Y525D01*
X385237Y3673D02*
X388385D01*
Y5772D01*
X385761Y8921D02*
X385237Y8396D01*
Y7347D01*
X385761Y6822D01*
X387861D01*
X388385Y7347D01*
Y8396D01*
X387861Y8921D01*
X385237Y12070D02*
Y11020D01*
Y11545D01*
X387861D01*
X388385Y11020D01*
Y10495D01*
X387861Y9971D01*
X385237Y13119D02*
X388385D01*
Y15218D01*
X385761Y18367D02*
X385237Y17842D01*
Y16793D01*
X385761Y16268D01*
X387861D01*
X388385Y16793D01*
Y17842D01*
X387861Y18367D01*
M02*
