G04*
G04 #@! TF.GenerationSoftware,Altium Limited,Altium Designer,23.11.1 (41)*
G04*
G04 Layer_Physical_Order=5*
G04 Layer_Color=16737945*
%FSLAX25Y25*%
%MOIN*%
G70*
G04*
G04 #@! TF.SameCoordinates,29EA51B2-5BA9-446F-9376-B5E75E75F833*
G04*
G04*
G04 #@! TF.FilePolarity,Positive*
G04*
G01*
G75*
%ADD14C,0.01968*%
%ADD15C,0.00787*%
%ADD73C,0.05118*%
%ADD75C,0.08661*%
%ADD76C,0.07874*%
%ADD78C,0.02362*%
%ADD82C,0.23622*%
%ADD83C,0.15748*%
%ADD84C,0.01772*%
%ADD85C,0.03150*%
G36*
X104331Y96457D02*
X104378Y95492D01*
X104754Y93599D01*
X105493Y91817D01*
X106565Y90213D01*
X107929Y88848D01*
X109533Y87776D01*
X111316Y87038D01*
X113208Y86661D01*
X114173Y86614D01*
X114173Y86614D01*
Y86614D01*
X114718Y86497D01*
X115768Y86128D01*
X116764Y85630D01*
X117690Y85011D01*
X118110Y84646D01*
X134906Y67321D01*
X134906Y67321D01*
X134906Y67321D01*
X135489Y67004D01*
X136712Y66490D01*
X137991Y66142D01*
X139306Y65967D01*
X139969Y65945D01*
X184834D01*
X184834Y65945D01*
X184834Y65945D01*
X185819Y65945D01*
X187751Y65561D01*
X189571Y64807D01*
X191209Y63712D01*
X191905Y63016D01*
X201796Y53126D01*
Y53126D01*
X202523Y52467D01*
X204153Y51378D01*
X205964Y50627D01*
X207886Y50245D01*
X208867Y50197D01*
X335799D01*
X335799Y50197D01*
X335799Y50197D01*
X336461Y50197D01*
X337759Y49939D01*
X338982Y49432D01*
X340083Y48696D01*
X340551Y48228D01*
X375024Y13756D01*
X375024Y13756D01*
X375024Y13756D01*
X375720Y13059D01*
X376815Y11421D01*
X377569Y9601D01*
X377953Y7670D01*
X377953Y6685D01*
X377953Y-7669D01*
X377953Y-7669D01*
X377953Y-8654D01*
X377568Y-10586D01*
X376815Y-12406D01*
X375720Y-14043D01*
X375024Y-14740D01*
X340527Y-49236D01*
X340527Y-49237D01*
X339831Y-49933D01*
X338193Y-51027D01*
X336373Y-51781D01*
X334441Y-52165D01*
X325709D01*
X325631Y-51772D01*
X325807Y-51699D01*
X326305Y-51200D01*
X326575Y-50549D01*
Y-49845D01*
X326305Y-49193D01*
X325807Y-48695D01*
X325156Y-48425D01*
X324451D01*
X323800Y-48695D01*
X323301Y-49193D01*
X323031Y-49845D01*
Y-50549D01*
X323301Y-51200D01*
X323800Y-51699D01*
X323975Y-51772D01*
X323897Y-52165D01*
X206504D01*
X204572Y-51781D01*
X202752Y-51027D01*
X201114Y-49933D01*
X200417Y-49236D01*
X190579Y-39398D01*
X190579Y-39398D01*
X190579Y-39398D01*
X189888Y-38772D01*
X188339Y-37736D01*
X186617Y-37023D01*
X184790Y-36660D01*
X183858Y-36614D01*
X181653Y-36614D01*
X181653Y-36614D01*
X180673Y-36663D01*
X178751Y-37045D01*
X176939Y-37795D01*
X175310Y-38884D01*
X173923Y-40270D01*
X172834Y-41900D01*
X172084Y-43711D01*
X171702Y-45634D01*
X171653Y-46614D01*
Y-47401D01*
X171457Y-47876D01*
Y-48581D01*
X171653Y-49056D01*
Y-75956D01*
X171290Y-76107D01*
X171279Y-76096D01*
X170628Y-75827D01*
X169923D01*
X169272Y-76096D01*
X168774Y-76595D01*
X168504Y-77246D01*
Y-77951D01*
X168774Y-78602D01*
X169272Y-79100D01*
X169923Y-79370D01*
X170628D01*
X171279Y-79100D01*
X171290Y-79090D01*
X171653Y-79240D01*
Y-97598D01*
X171457Y-98073D01*
Y-98778D01*
X171653Y-99253D01*
Y-115748D01*
Y-116368D01*
X171412Y-117585D01*
X171194Y-118110D01*
X170868D01*
X170145Y-118410D01*
X169591Y-118964D01*
X169291Y-119687D01*
Y-120470D01*
X169364Y-120645D01*
X168338Y-121330D01*
X167192Y-121805D01*
X165975Y-122047D01*
X137953D01*
X137953Y-122047D01*
X136973Y-122095D01*
X135050Y-122478D01*
X133239Y-123228D01*
X131609Y-124317D01*
X130223Y-125703D01*
X129133Y-127333D01*
X128383Y-129144D01*
X128001Y-131067D01*
X127983Y-131424D01*
X127953Y-131498D01*
Y-132281D01*
X127953Y-132281D01*
Y-156677D01*
X16081D01*
X803Y-141400D01*
Y141400D01*
X16081Y156677D01*
X104331D01*
X104331Y96457D01*
D02*
G37*
G36*
X392898Y141400D02*
Y-141400D01*
X377620Y-156677D01*
X128756D01*
Y-132281D01*
X128755Y-132281D01*
Y-131582D01*
X128785Y-131464D01*
X128800Y-131166D01*
X129155Y-129379D01*
X129845Y-127714D01*
X130846Y-126215D01*
X132121Y-124941D01*
X133619Y-123940D01*
X135284Y-123250D01*
X137071Y-122894D01*
X137973Y-122850D01*
X165975D01*
X166052Y-122835D01*
X166131D01*
X167348Y-122593D01*
X167421Y-122562D01*
X167499Y-122547D01*
X168645Y-122072D01*
X168711Y-122028D01*
X168784Y-121998D01*
X169810Y-121313D01*
X169866Y-121257D01*
X169931Y-121213D01*
X169975Y-121147D01*
X170031Y-121091D01*
X170061Y-121018D01*
X170105Y-120952D01*
X170121Y-120875D01*
X170151Y-120802D01*
Y-120723D01*
X170167Y-120645D01*
X170151Y-120568D01*
Y-120489D01*
X170121Y-120415D01*
X170105Y-120338D01*
X170094Y-120311D01*
Y-119847D01*
X170272Y-119419D01*
X170599Y-119091D01*
X171028Y-118913D01*
X171194D01*
X171501Y-118852D01*
X171762Y-118678D01*
X171936Y-118418D01*
X172153Y-117893D01*
X172169Y-117815D01*
X172199Y-117742D01*
X172441Y-116525D01*
Y-116446D01*
X172456Y-116368D01*
Y-115748D01*
Y-99253D01*
X172395Y-98946D01*
X172259Y-98618D01*
Y-98233D01*
X172395Y-97905D01*
X172456Y-97598D01*
Y-79240D01*
X172395Y-78933D01*
X172221Y-78673D01*
X171961Y-78499D01*
X171975Y-78125D01*
X172047Y-77951D01*
Y-77246D01*
X171975Y-77072D01*
X171961Y-76698D01*
X172221Y-76524D01*
X172395Y-76264D01*
X172456Y-75956D01*
Y-49056D01*
X172395Y-48749D01*
X172259Y-48421D01*
Y-48036D01*
X172395Y-47708D01*
X172456Y-47401D01*
Y-46634D01*
X172501Y-45733D01*
X172856Y-43946D01*
X173546Y-42281D01*
X174547Y-40782D01*
X175821Y-39508D01*
X177320Y-38506D01*
X178985Y-37817D01*
X180772Y-37461D01*
X181676Y-37417D01*
X183839Y-37417D01*
X184691Y-37459D01*
X186383Y-37795D01*
X187958Y-38448D01*
X189393Y-39406D01*
X190028Y-39982D01*
X199850Y-49804D01*
X200546Y-50501D01*
X200612Y-50545D01*
X200668Y-50600D01*
X202306Y-51695D01*
X202379Y-51725D01*
X202445Y-51769D01*
X204264Y-52523D01*
X204342Y-52538D01*
X204415Y-52568D01*
X206347Y-52953D01*
X206426D01*
X206504Y-52968D01*
X217674D01*
X218112Y-53150D01*
X218896D01*
X219334Y-52968D01*
X220627D01*
X221065Y-53150D01*
X221848D01*
X222286Y-52968D01*
X323897D01*
X323975Y-52953D01*
X324054D01*
X324127Y-52922D01*
X324204Y-52907D01*
X324270Y-52863D01*
X324343Y-52833D01*
X324399Y-52777D01*
X324465Y-52733D01*
X324509Y-52667D01*
X324565Y-52611D01*
X324587Y-52558D01*
X324692Y-52522D01*
X324915D01*
X325019Y-52558D01*
X325042Y-52611D01*
X325097Y-52667D01*
X325141Y-52733D01*
X325207Y-52777D01*
X325263Y-52833D01*
X325336Y-52863D01*
X325402Y-52907D01*
X325479Y-52922D01*
X325553Y-52953D01*
X325632D01*
X325709Y-52968D01*
X334441D01*
X334519Y-52953D01*
X334598D01*
X336530Y-52569D01*
X336603Y-52538D01*
X336680Y-52523D01*
X338500Y-51769D01*
X338566Y-51725D01*
X338639Y-51695D01*
X340277Y-50600D01*
X340333Y-50545D01*
X340399Y-50501D01*
X341095Y-49804D01*
X341095Y-49804D01*
X375591Y-15308D01*
X375591Y-15308D01*
X376288Y-14611D01*
X376332Y-14546D01*
X376388Y-14490D01*
X377482Y-12852D01*
X377512Y-12779D01*
X377556Y-12713D01*
X378310Y-10893D01*
X378326Y-10815D01*
X378356Y-10742D01*
X378740Y-8811D01*
Y-8731D01*
X378755Y-8654D01*
X378755Y-7670D01*
X378756Y-7669D01*
X378756Y6685D01*
X378756Y7670D01*
X378740Y7747D01*
Y7826D01*
X378356Y9758D01*
X378326Y9831D01*
X378310Y9909D01*
X377556Y11729D01*
X377512Y11794D01*
X377482Y11867D01*
X376388Y13505D01*
X376332Y13561D01*
X376288Y13627D01*
X375592Y14323D01*
X375591Y14323D01*
X341119Y48796D01*
X341119Y48796D01*
X340651Y49264D01*
X340585Y49308D01*
X340529Y49364D01*
X339428Y50099D01*
X339355Y50130D01*
X339289Y50174D01*
X338066Y50680D01*
X337989Y50696D01*
X337916Y50726D01*
X336617Y50984D01*
X336538Y50984D01*
X336461Y51000D01*
X335799Y50999D01*
X335799Y51000D01*
X208886D01*
X207985Y51044D01*
X206198Y51399D01*
X204533Y52089D01*
X204360Y52204D01*
X204404Y52649D01*
X204744Y52789D01*
X205242Y53288D01*
X205512Y53939D01*
Y54644D01*
X205242Y55295D01*
X204744Y55793D01*
X204093Y56063D01*
X203388D01*
X202737Y55793D01*
X202238Y55295D01*
X201969Y54644D01*
Y54602D01*
X201605Y54452D01*
X192473Y63584D01*
X192473Y63584D01*
X191777Y64280D01*
X191711Y64324D01*
X191655Y64380D01*
X190017Y65474D01*
X189944Y65505D01*
X189878Y65548D01*
X188058Y66302D01*
X187981Y66318D01*
X187908Y66348D01*
X185976Y66732D01*
X185897D01*
X185819Y66748D01*
X184835Y66747D01*
X184834Y66748D01*
X160431D01*
X160353Y67141D01*
X160564Y67229D01*
X161118Y67782D01*
X161417Y68506D01*
Y69289D01*
X161118Y70013D01*
X160564Y70566D01*
X159840Y70866D01*
X159057D01*
X158334Y70566D01*
X157780Y70013D01*
X157480Y69289D01*
Y68506D01*
X157780Y67782D01*
X158334Y67229D01*
X158544Y67141D01*
X158466Y66748D01*
X148620D01*
X148542Y67141D01*
X148753Y67229D01*
X149306Y67782D01*
X149606Y68506D01*
Y69289D01*
X149306Y70013D01*
X148753Y70566D01*
X148029Y70866D01*
X147246D01*
X146523Y70566D01*
X145969Y70013D01*
X145669Y69289D01*
Y68506D01*
X145969Y67782D01*
X146523Y67229D01*
X146733Y67141D01*
X146655Y66748D01*
X139982D01*
X139372Y66768D01*
X138151Y66931D01*
X137404Y67134D01*
X137287Y67574D01*
X137496Y67782D01*
X137795Y68506D01*
Y69289D01*
X137496Y70013D01*
X136942Y70566D01*
X136218Y70866D01*
X135435D01*
X134712Y70566D01*
X134158Y70013D01*
X134073Y69807D01*
X133686Y69733D01*
X118687Y85204D01*
X118658Y85224D01*
X118637Y85251D01*
X118217Y85617D01*
X118173Y85642D01*
X118136Y85678D01*
X117211Y86298D01*
X117164Y86317D01*
X117123Y86348D01*
X116127Y86846D01*
X116078Y86860D01*
X116034Y86886D01*
X114983Y87255D01*
X114933Y87262D01*
X114886Y87282D01*
X114342Y87399D01*
X114336Y87399D01*
X114331Y87401D01*
X114271Y87401D01*
X114213Y87416D01*
X113307Y87460D01*
X111550Y87810D01*
X109914Y88488D01*
X108441Y89472D01*
X107188Y90724D01*
X106204Y92197D01*
X105526Y93834D01*
X105177Y95591D01*
X105133Y96476D01*
X105133Y156677D01*
X377620D01*
X392898Y141400D01*
D02*
G37*
%LPC*%
G36*
X20646Y150006D02*
X20276D01*
Y138386D01*
X31896D01*
Y138756D01*
X31595Y140655D01*
X31001Y142483D01*
X30129Y144195D01*
X28999Y145750D01*
X27640Y147109D01*
X26085Y148239D01*
X24372Y149112D01*
X22545Y149706D01*
X20646Y150006D01*
D02*
G37*
G36*
X19094D02*
X18724D01*
X16826Y149706D01*
X14998Y149112D01*
X13285Y148239D01*
X11730Y147109D01*
X10371Y145750D01*
X9241Y144195D01*
X8369Y142483D01*
X7775Y140655D01*
X7474Y138756D01*
Y138386D01*
X19094D01*
Y150006D01*
D02*
G37*
G36*
X87006Y131890D02*
X86223D01*
X85499Y131590D01*
X84945Y131036D01*
X84646Y130313D01*
Y129530D01*
X84945Y128806D01*
X85499Y128252D01*
X86223Y127953D01*
X87006D01*
X87729Y128252D01*
X88283Y128806D01*
X88583Y129530D01*
Y130313D01*
X88283Y131036D01*
X87729Y131590D01*
X87006Y131890D01*
D02*
G37*
G36*
X31896Y137205D02*
X20276D01*
Y125584D01*
X20646D01*
X22545Y125885D01*
X24372Y126479D01*
X26085Y127351D01*
X27640Y128481D01*
X28999Y129840D01*
X30129Y131395D01*
X31001Y133108D01*
X31595Y134936D01*
X31896Y136834D01*
Y137205D01*
D02*
G37*
G36*
X19094D02*
X7474D01*
Y136834D01*
X7775Y134936D01*
X8369Y133108D01*
X9241Y131395D01*
X10371Y129840D01*
X11730Y128481D01*
X13285Y127351D01*
X14998Y126479D01*
X16826Y125885D01*
X18724Y125584D01*
X19094D01*
Y137205D01*
D02*
G37*
G36*
X48059Y132294D02*
X47835D01*
Y124610D01*
X55518D01*
Y124835D01*
X55200Y126433D01*
X54576Y127939D01*
X53671Y129294D01*
X52518Y130447D01*
X51163Y131352D01*
X49657Y131976D01*
X48059Y132294D01*
D02*
G37*
G36*
X46654D02*
X46429D01*
X44831Y131976D01*
X43325Y131352D01*
X41970Y130447D01*
X40817Y129294D01*
X39912Y127939D01*
X39288Y126433D01*
X38970Y124835D01*
Y124610D01*
X46654D01*
Y132294D01*
D02*
G37*
G36*
X55518Y123429D02*
X47835D01*
Y115746D01*
X48059D01*
X49657Y116064D01*
X51163Y116687D01*
X52518Y117593D01*
X53671Y118745D01*
X54576Y120100D01*
X55200Y121606D01*
X55518Y123205D01*
Y123429D01*
D02*
G37*
G36*
X46654D02*
X38970D01*
Y123205D01*
X39288Y121606D01*
X39912Y120100D01*
X40817Y118745D01*
X41970Y117593D01*
X43325Y116687D01*
X44831Y116064D01*
X46429Y115746D01*
X46654D01*
Y123429D01*
D02*
G37*
G36*
X51839Y110551D02*
X50917D01*
X50027Y110313D01*
X49229Y109852D01*
X48577Y109200D01*
X48116Y108402D01*
X47878Y107512D01*
Y106590D01*
X48116Y105700D01*
X48577Y104902D01*
X49229Y104251D01*
X50027Y103790D01*
X50917Y103551D01*
X51839D01*
X52729Y103790D01*
X53527Y104251D01*
X54179Y104902D01*
X54639Y105700D01*
X54878Y106590D01*
Y107512D01*
X54639Y108402D01*
X54179Y109200D01*
X53527Y109852D01*
X52729Y110313D01*
X51839Y110551D01*
D02*
G37*
G36*
X52223Y99272D02*
X51518D01*
X50867Y99002D01*
X50368Y98504D01*
X50098Y97852D01*
Y97148D01*
X50368Y96496D01*
X50867Y95998D01*
X51518Y95728D01*
X52223D01*
X52874Y95998D01*
X53372Y96496D01*
X53642Y97148D01*
Y97852D01*
X53372Y98504D01*
X52874Y99002D01*
X52223Y99272D01*
D02*
G37*
G36*
X32223D02*
X31518D01*
X30867Y99002D01*
X30368Y98504D01*
X30098Y97852D01*
Y97148D01*
X30368Y96496D01*
X30867Y95998D01*
X31518Y95728D01*
X32223D01*
X32874Y95998D01*
X33372Y96496D01*
X33642Y97148D01*
Y97852D01*
X33372Y98504D01*
X32874Y99002D01*
X32223Y99272D01*
D02*
G37*
G36*
X47223Y94272D02*
X46518D01*
X45867Y94002D01*
X45368Y93504D01*
X45098Y92852D01*
Y92148D01*
X45368Y91496D01*
X45867Y90998D01*
X46518Y90728D01*
X47223D01*
X47874Y90998D01*
X48372Y91496D01*
X48642Y92148D01*
Y92852D01*
X48372Y93504D01*
X47874Y94002D01*
X47223Y94272D01*
D02*
G37*
G36*
X27222D02*
X26518D01*
X25866Y94002D01*
X25368Y93504D01*
X25098Y92852D01*
Y92148D01*
X25368Y91496D01*
X25866Y90998D01*
X26518Y90728D01*
X27222D01*
X27874Y90998D01*
X28372Y91496D01*
X28642Y92148D01*
Y92852D01*
X28372Y93504D01*
X27874Y94002D01*
X27222Y94272D01*
D02*
G37*
G36*
X32223Y89272D02*
X31518D01*
X30867Y89002D01*
X30368Y88504D01*
X30098Y87852D01*
Y87148D01*
X30368Y86496D01*
X30867Y85998D01*
X31518Y85728D01*
X32223D01*
X32874Y85998D01*
X33372Y86496D01*
X33642Y87148D01*
Y87852D01*
X33372Y88504D01*
X32874Y89002D01*
X32223Y89272D01*
D02*
G37*
G36*
X27222Y84272D02*
X26518D01*
X25866Y84002D01*
X25368Y83504D01*
X25098Y82852D01*
Y82148D01*
X25368Y81496D01*
X25866Y80998D01*
X26518Y80728D01*
X27222D01*
X27874Y80998D01*
X28372Y81496D01*
X28642Y82148D01*
Y82852D01*
X28372Y83504D01*
X27874Y84002D01*
X27222Y84272D01*
D02*
G37*
G36*
X108620Y83465D02*
X107915D01*
X107264Y83195D01*
X106766Y82696D01*
X106496Y82045D01*
Y81340D01*
X106766Y80689D01*
X107264Y80191D01*
X107915Y79921D01*
X108620D01*
X109271Y80191D01*
X109770Y80689D01*
X110039Y81340D01*
Y82045D01*
X109770Y82696D01*
X109271Y83195D01*
X108620Y83465D01*
D02*
G37*
G36*
X32223Y79272D02*
X31518D01*
X30867Y79002D01*
X30368Y78504D01*
X30098Y77852D01*
Y77148D01*
X30368Y76496D01*
X30867Y75998D01*
X31518Y75728D01*
X32223D01*
X32874Y75998D01*
X33372Y76496D01*
X33642Y77148D01*
Y77852D01*
X33372Y78504D01*
X32874Y79002D01*
X32223Y79272D01*
D02*
G37*
G36*
X112557Y75748D02*
X111852D01*
X111201Y75478D01*
X110703Y74980D01*
X110433Y74329D01*
Y73624D01*
X110703Y72973D01*
X111201Y72474D01*
X111852Y72205D01*
X112557D01*
X113208Y72474D01*
X113707Y72973D01*
X113976Y73624D01*
Y74329D01*
X113707Y74980D01*
X113208Y75478D01*
X112557Y75748D01*
D02*
G37*
G36*
X108620D02*
X107915D01*
X107264Y75478D01*
X106766Y74980D01*
X106496Y74329D01*
Y73624D01*
X106766Y72973D01*
X107264Y72474D01*
X107915Y72205D01*
X108620D01*
X109271Y72474D01*
X109770Y72973D01*
X110039Y73624D01*
Y74329D01*
X109770Y74980D01*
X109271Y75478D01*
X108620Y75748D01*
D02*
G37*
G36*
X27222Y74272D02*
X26518D01*
X25866Y74002D01*
X25368Y73504D01*
X25098Y72852D01*
Y72148D01*
X25368Y71496D01*
X25866Y70998D01*
X26518Y70728D01*
X27222D01*
X27874Y70998D01*
X28372Y71496D01*
X28642Y72148D01*
Y72852D01*
X28372Y73504D01*
X27874Y74002D01*
X27222Y74272D01*
D02*
G37*
G36*
X32223Y59272D02*
X31518D01*
X30867Y59002D01*
X30368Y58504D01*
X30098Y57852D01*
Y57148D01*
X30368Y56496D01*
X30867Y55998D01*
X31518Y55728D01*
X32223D01*
X32874Y55998D01*
X33372Y56496D01*
X33642Y57148D01*
Y57852D01*
X33372Y58504D01*
X32874Y59002D01*
X32223Y59272D01*
D02*
G37*
G36*
X189309Y60319D02*
X188644D01*
X188029Y60064D01*
X187558Y59593D01*
X187303Y58978D01*
Y58505D01*
X187242Y58465D01*
X186577D01*
X185962Y58210D01*
X185491Y57739D01*
X185236Y57124D01*
Y56458D01*
X185491Y55844D01*
X185962Y55373D01*
X186577Y55118D01*
X187242D01*
X187857Y55373D01*
X188328Y55844D01*
X188583Y56458D01*
Y56932D01*
X188644Y56972D01*
X189309D01*
X189924Y57227D01*
X190395Y57698D01*
X190650Y58313D01*
Y58978D01*
X190395Y59593D01*
X189924Y60064D01*
X189309Y60319D01*
D02*
G37*
G36*
X181699Y56510D02*
X181033D01*
X180418Y56256D01*
X179948Y55785D01*
X179693Y55170D01*
Y54504D01*
X179711Y54461D01*
X179492Y54134D01*
X179490D01*
X178875Y53879D01*
X178404Y53408D01*
X178150Y52793D01*
Y52128D01*
X178404Y51513D01*
X178875Y51042D01*
X179490Y50787D01*
X180156D01*
X180771Y51042D01*
X181241Y51513D01*
X181496Y52128D01*
Y52793D01*
X181478Y52837D01*
X181697Y53164D01*
X181699D01*
X182314Y53418D01*
X182785Y53889D01*
X183039Y54504D01*
Y55170D01*
X182785Y55785D01*
X182314Y56256D01*
X181699Y56510D01*
D02*
G37*
G36*
X174841Y51968D02*
X174175D01*
X173560Y51714D01*
X173089Y51243D01*
X172835Y50628D01*
Y49962D01*
X172728Y49803D01*
X172403D01*
X171788Y49548D01*
X171318Y49078D01*
X171063Y48463D01*
Y47797D01*
X171318Y47182D01*
X171788Y46711D01*
X172403Y46457D01*
X173069D01*
X173684Y46711D01*
X174155Y47182D01*
X174409Y47797D01*
Y48463D01*
X174516Y48622D01*
X174841D01*
X175456Y48877D01*
X175926Y49347D01*
X176181Y49962D01*
Y50628D01*
X175926Y51243D01*
X175456Y51714D01*
X174841Y51968D01*
D02*
G37*
G36*
X167754Y47638D02*
X167088D01*
X166473Y47383D01*
X166003Y46912D01*
X165748Y46297D01*
Y45632D01*
X166003Y45017D01*
X166473Y44546D01*
X167088Y44291D01*
X167754D01*
X168369Y44546D01*
X168840Y45017D01*
X169095Y45632D01*
Y46297D01*
X168840Y46912D01*
X168369Y47383D01*
X167754Y47638D01*
D02*
G37*
G36*
X337006Y47244D02*
X336223D01*
X335499Y46944D01*
X334945Y46391D01*
X334646Y45667D01*
Y44884D01*
X334945Y44160D01*
X335499Y43607D01*
X336223Y43307D01*
X337006D01*
X337729Y43607D01*
X338283Y44160D01*
X338582Y44884D01*
Y45667D01*
X338283Y46391D01*
X337729Y46944D01*
X337006Y47244D01*
D02*
G37*
G36*
X325195D02*
X324412D01*
X323688Y46944D01*
X323134Y46391D01*
X322834Y45667D01*
Y44884D01*
X323134Y44160D01*
X323688Y43607D01*
X324412Y43307D01*
X325195D01*
X325918Y43607D01*
X326472Y44160D01*
X326771Y44884D01*
Y45667D01*
X326472Y46391D01*
X325918Y46944D01*
X325195Y47244D01*
D02*
G37*
G36*
X313384D02*
X312600D01*
X311877Y46944D01*
X311323Y46391D01*
X311023Y45667D01*
Y44884D01*
X311323Y44160D01*
X311877Y43607D01*
X312600Y43307D01*
X313384D01*
X314107Y43607D01*
X314661Y44160D01*
X314961Y44884D01*
Y45667D01*
X314661Y46391D01*
X314107Y46944D01*
X313384Y47244D01*
D02*
G37*
G36*
X301572D02*
X300789D01*
X300066Y46944D01*
X299512Y46391D01*
X299213Y45667D01*
Y44884D01*
X299512Y44160D01*
X300066Y43607D01*
X300789Y43307D01*
X301572D01*
X302296Y43607D01*
X302850Y44160D01*
X303150Y44884D01*
Y45667D01*
X302850Y46391D01*
X302296Y46944D01*
X301572Y47244D01*
D02*
G37*
G36*
X277951D02*
X277167D01*
X276444Y46944D01*
X275890Y46391D01*
X275590Y45667D01*
Y44884D01*
X275890Y44160D01*
X276444Y43607D01*
X277167Y43307D01*
X277951D01*
X278674Y43607D01*
X279228Y44160D01*
X279527Y44884D01*
Y45667D01*
X279228Y46391D01*
X278674Y46944D01*
X277951Y47244D01*
D02*
G37*
G36*
X266140D02*
X265356D01*
X264633Y46944D01*
X264079Y46391D01*
X263779Y45667D01*
Y44884D01*
X264079Y44160D01*
X264633Y43607D01*
X265356Y43307D01*
X266140D01*
X266863Y43607D01*
X267417Y44160D01*
X267716Y44884D01*
Y45667D01*
X267417Y46391D01*
X266863Y46944D01*
X266140Y47244D01*
D02*
G37*
G36*
X162636Y44488D02*
X161970D01*
X161355Y44233D01*
X160885Y43763D01*
X160630Y43148D01*
Y42482D01*
X160523Y42323D01*
X160199D01*
X159584Y42068D01*
X159113Y41597D01*
X158858Y40982D01*
Y40317D01*
X159113Y39702D01*
X159584Y39231D01*
X160199Y38976D01*
X160864D01*
X161479Y39231D01*
X161950Y39702D01*
X162205Y40317D01*
Y40982D01*
X162311Y41142D01*
X162636D01*
X163251Y41396D01*
X163722Y41867D01*
X163976Y42482D01*
Y43148D01*
X163722Y43763D01*
X163251Y44233D01*
X162636Y44488D01*
D02*
G37*
G36*
X229722Y41339D02*
X228939D01*
X228216Y41039D01*
X227662Y40485D01*
X227362Y39762D01*
Y38978D01*
X227662Y38255D01*
X228216Y37701D01*
X228939Y37402D01*
X229722D01*
X230446Y37701D01*
X230999Y38255D01*
X231299Y38978D01*
Y39762D01*
X230999Y40485D01*
X230446Y41039D01*
X229722Y41339D01*
D02*
G37*
G36*
X155321Y40369D02*
X154655D01*
X154040Y40114D01*
X153570Y39643D01*
X153315Y39028D01*
Y38363D01*
X153333Y38320D01*
X153114Y37992D01*
X153112D01*
X152497Y37737D01*
X152026Y37267D01*
X151772Y36652D01*
Y35986D01*
X152026Y35371D01*
X152497Y34900D01*
X153112Y34646D01*
X153778D01*
X154393Y34900D01*
X154863Y35371D01*
X155118Y35986D01*
Y36652D01*
X155100Y36695D01*
X155319Y37022D01*
X155321D01*
X155936Y37277D01*
X156407Y37747D01*
X156661Y38363D01*
Y39028D01*
X156407Y39643D01*
X155936Y40114D01*
X155321Y40369D01*
D02*
G37*
G36*
X235290Y35771D02*
X234507D01*
X233783Y35471D01*
X233230Y34917D01*
X232930Y34194D01*
Y33411D01*
X233230Y32687D01*
X233783Y32133D01*
X234507Y31834D01*
X235290D01*
X236014Y32133D01*
X236567Y32687D01*
X236867Y33411D01*
Y34194D01*
X236567Y34917D01*
X236014Y35471D01*
X235290Y35771D01*
D02*
G37*
G36*
X342911Y35433D02*
X342128D01*
X341405Y35133D01*
X340851Y34580D01*
X340551Y33856D01*
Y33073D01*
X340851Y32349D01*
X341405Y31796D01*
X342128Y31496D01*
X342911D01*
X343635Y31796D01*
X344188Y32349D01*
X344488Y33073D01*
Y33856D01*
X344188Y34580D01*
X343635Y35133D01*
X342911Y35433D01*
D02*
G37*
G36*
X148463Y35827D02*
X147797D01*
X147182Y35572D01*
X146711Y35101D01*
X146457Y34486D01*
Y33997D01*
X146396Y33957D01*
X145730D01*
X145115Y33702D01*
X144644Y33231D01*
X144390Y32616D01*
Y31951D01*
X144644Y31336D01*
X145115Y30865D01*
X145730Y30610D01*
X146396D01*
X147011Y30865D01*
X147482Y31336D01*
X147736Y31951D01*
Y32440D01*
X147797Y32480D01*
X148463D01*
X149078Y32735D01*
X149548Y33206D01*
X149803Y33821D01*
Y34486D01*
X149548Y35101D01*
X149078Y35572D01*
X148463Y35827D01*
D02*
G37*
G36*
X143640Y30413D02*
X142974D01*
X142359Y30159D01*
X141889Y29688D01*
X141634Y29073D01*
Y28407D01*
X141889Y27792D01*
X142359Y27322D01*
X142974Y27067D01*
X143640D01*
X144255Y27322D01*
X144726Y27792D01*
X144980Y28407D01*
Y29073D01*
X144726Y29688D01*
X144255Y30159D01*
X143640Y30413D01*
D02*
G37*
G36*
X27222Y29272D02*
X26518D01*
X25866Y29002D01*
X25368Y28504D01*
X25098Y27852D01*
Y27148D01*
X25368Y26496D01*
X25866Y25998D01*
X26518Y25728D01*
X27222D01*
X27874Y25998D01*
X28372Y26496D01*
X28642Y27148D01*
Y27852D01*
X28372Y28504D01*
X27874Y29002D01*
X27222Y29272D01*
D02*
G37*
G36*
X138423Y28356D02*
X137758D01*
X137143Y28102D01*
X136672Y27631D01*
X136417Y27016D01*
Y26350D01*
X136672Y25735D01*
X137143Y25265D01*
X137758Y25010D01*
X138423D01*
X139038Y25265D01*
X139509Y25735D01*
X139764Y26350D01*
Y27016D01*
X139509Y27631D01*
X139038Y28102D01*
X138423Y28356D01*
D02*
G37*
G36*
X328590Y28346D02*
X327709D01*
X326858Y28118D01*
X326095Y27678D01*
X325472Y27055D01*
X325031Y26292D01*
X324803Y25441D01*
Y24559D01*
X325031Y23708D01*
X325472Y22945D01*
X326095Y22322D01*
X326858Y21882D01*
X327709Y21654D01*
X328590D01*
X329441Y21882D01*
X330204Y22322D01*
X330827Y22945D01*
X331268Y23708D01*
X331496Y24559D01*
Y25441D01*
X331268Y26292D01*
X330827Y27055D01*
X330204Y27678D01*
X329441Y28118D01*
X328590Y28346D01*
D02*
G37*
G36*
X360628Y23622D02*
X359844D01*
X359121Y23322D01*
X358567Y22769D01*
X358268Y22045D01*
Y21262D01*
X358567Y20538D01*
X359121Y19985D01*
X359844Y19685D01*
X360628D01*
X361351Y19985D01*
X361905Y20538D01*
X362205Y21262D01*
Y22045D01*
X361905Y22769D01*
X361351Y23322D01*
X360628Y23622D01*
D02*
G37*
G36*
X337006D02*
X336223D01*
X335499Y23322D01*
X334945Y22769D01*
X334646Y22045D01*
Y21262D01*
X334945Y20538D01*
X335499Y19985D01*
X336223Y19685D01*
X337006D01*
X337729Y19985D01*
X338283Y20538D01*
X338582Y21262D01*
Y22045D01*
X338283Y22769D01*
X337729Y23322D01*
X337006Y23622D01*
D02*
G37*
G36*
X125392Y25591D02*
X124608D01*
X123885Y25291D01*
X123331Y24737D01*
X123031Y24014D01*
Y23231D01*
X123331Y22507D01*
X123885Y21953D01*
X124094Y21867D01*
Y21441D01*
X123885Y21354D01*
X123331Y20800D01*
X123031Y20077D01*
Y19294D01*
X123331Y18570D01*
X123885Y18016D01*
X124133Y17913D01*
Y17520D01*
X123885Y17417D01*
X123331Y16863D01*
X123031Y16140D01*
Y15357D01*
X123331Y14633D01*
X123885Y14079D01*
X124608Y13780D01*
X125392D01*
X126115Y14079D01*
X126669Y14633D01*
X126969Y15357D01*
Y16140D01*
X126669Y16863D01*
X126115Y17417D01*
X125867Y17520D01*
Y17913D01*
X126115Y18016D01*
X126669Y18570D01*
X126969Y19294D01*
Y20077D01*
X126669Y20800D01*
X126115Y21354D01*
X125906Y21441D01*
Y21867D01*
X126115Y21953D01*
X126669Y22507D01*
X126969Y23231D01*
Y24014D01*
X126669Y24737D01*
X126115Y25291D01*
X125392Y25591D01*
D02*
G37*
G36*
X353720Y19331D02*
X352579D01*
X351478Y19035D01*
X350491Y18465D01*
X349684Y17659D01*
X349114Y16671D01*
X348819Y15570D01*
Y14430D01*
X349114Y13329D01*
X349684Y12341D01*
X350491Y11535D01*
X351478Y10965D01*
X352579Y10669D01*
X353720D01*
X354821Y10965D01*
X355809Y11535D01*
X356615Y12341D01*
X357185Y13329D01*
X357480Y14430D01*
Y15570D01*
X357185Y16671D01*
X356615Y17659D01*
X355809Y18465D01*
X354821Y19035D01*
X353720Y19331D01*
D02*
G37*
G36*
X236612Y11811D02*
X235829D01*
X235105Y11511D01*
X234552Y10958D01*
X234252Y10234D01*
Y9451D01*
X234552Y8727D01*
X235105Y8174D01*
X235829Y7874D01*
X236612D01*
X237335Y8174D01*
X237889Y8727D01*
X238189Y9451D01*
Y10234D01*
X237889Y10958D01*
X237335Y11511D01*
X236612Y11811D01*
D02*
G37*
G36*
X106652Y10531D02*
X105947D01*
X105296Y10262D01*
X104797Y9763D01*
X104528Y9112D01*
Y8407D01*
X104797Y7756D01*
X105296Y7258D01*
X105947Y6988D01*
X106652D01*
X107303Y7258D01*
X107801Y7756D01*
X108071Y8407D01*
Y9112D01*
X107801Y9763D01*
X107303Y10262D01*
X106652Y10531D01*
D02*
G37*
G36*
X27222Y9272D02*
X26518D01*
X25866Y9002D01*
X25368Y8504D01*
X25098Y7852D01*
Y7148D01*
X25368Y6496D01*
X25866Y5998D01*
X26518Y5728D01*
X27222D01*
X27874Y5998D01*
X28372Y6496D01*
X28642Y7148D01*
Y7852D01*
X28372Y8504D01*
X27874Y9002D01*
X27222Y9272D01*
D02*
G37*
G36*
X343720Y14331D02*
X342580D01*
X341478Y14035D01*
X340491Y13465D01*
X339684Y12659D01*
X339114Y11671D01*
X338819Y10570D01*
Y9430D01*
X339114Y8328D01*
X339684Y7341D01*
X340491Y6535D01*
X341478Y5965D01*
X342580Y5669D01*
X343720D01*
X344821Y5965D01*
X345809Y6535D01*
X346615Y7341D01*
X347185Y8328D01*
X347480Y9430D01*
Y10570D01*
X347185Y11671D01*
X346615Y12659D01*
X345809Y13465D01*
X344821Y14035D01*
X343720Y14331D01*
D02*
G37*
G36*
X100746Y8661D02*
X100041D01*
X99390Y8392D01*
X98892Y7893D01*
X98622Y7242D01*
Y6537D01*
X98892Y5886D01*
X99390Y5388D01*
X100041Y5118D01*
X100746D01*
X101397Y5388D01*
X101896Y5886D01*
X102165Y6537D01*
Y7242D01*
X101896Y7893D01*
X101397Y8392D01*
X100746Y8661D01*
D02*
G37*
G36*
X114526Y6850D02*
X113821D01*
X113170Y6581D01*
X112671Y6082D01*
X112402Y5431D01*
Y4726D01*
X112671Y4075D01*
X113170Y3577D01*
X113821Y3307D01*
X114526D01*
X115177Y3577D01*
X115675Y4075D01*
X115945Y4726D01*
Y5431D01*
X115675Y6082D01*
X115177Y6581D01*
X114526Y6850D01*
D02*
G37*
G36*
X110589D02*
X109884D01*
X109233Y6581D01*
X108734Y6082D01*
X108465Y5431D01*
Y4726D01*
X108734Y4075D01*
X109233Y3577D01*
X109884Y3307D01*
X110589D01*
X111240Y3577D01*
X111738Y4075D01*
X112008Y4726D01*
Y5431D01*
X111738Y6082D01*
X111240Y6581D01*
X110589Y6850D01*
D02*
G37*
G36*
X363564Y13149D02*
X362735D01*
X361934Y12935D01*
X361216Y12520D01*
X360630Y11934D01*
X360215Y11216D01*
X360000Y10415D01*
Y9585D01*
X360215Y8784D01*
X360630Y8066D01*
X361216Y7480D01*
X361934Y7065D01*
X362735Y6851D01*
X363564D01*
X364365Y7065D01*
X365083Y7480D01*
X365670Y8066D01*
X365793Y8280D01*
X366231Y8251D01*
X366441Y7743D01*
X366803Y7382D01*
X366441Y7021D01*
X366142Y6297D01*
Y5514D01*
X366441Y4790D01*
X366803Y4429D01*
X366441Y4068D01*
X366142Y3344D01*
Y2561D01*
X366441Y1838D01*
X366803Y1476D01*
X366503Y1176D01*
X366195Y1200D01*
X366068Y1243D01*
X365670Y1934D01*
X365083Y2520D01*
X364365Y2935D01*
X363564Y3149D01*
X362735D01*
X361934Y2935D01*
X361216Y2520D01*
X360630Y1934D01*
X360215Y1216D01*
X360000Y415D01*
Y-415D01*
X360215Y-1216D01*
X360630Y-1934D01*
X361216Y-2520D01*
X361934Y-2935D01*
X362735Y-3149D01*
X363564D01*
X364365Y-2935D01*
X365083Y-2520D01*
X365670Y-1934D01*
X366068Y-1243D01*
X366195Y-1200D01*
X366503Y-1176D01*
X366803Y-1476D01*
X366441Y-1838D01*
X366142Y-2561D01*
Y-3344D01*
X366441Y-4068D01*
X366803Y-4429D01*
X366441Y-4790D01*
X366142Y-5514D01*
Y-6297D01*
X366441Y-7021D01*
X366803Y-7382D01*
X366441Y-7743D01*
X366231Y-8251D01*
X365793Y-8280D01*
X365670Y-8066D01*
X365083Y-7480D01*
X364365Y-7065D01*
X363564Y-6851D01*
X362735D01*
X361934Y-7065D01*
X361216Y-7480D01*
X360630Y-8066D01*
X360215Y-8784D01*
X360000Y-9585D01*
Y-10415D01*
X360215Y-11216D01*
X360630Y-11934D01*
X361216Y-12520D01*
X361934Y-12935D01*
X362735Y-13149D01*
X363564D01*
X364365Y-12935D01*
X365083Y-12520D01*
X365670Y-11934D01*
X366084Y-11216D01*
X366299Y-10415D01*
Y-10388D01*
X366693Y-10225D01*
X366995Y-10527D01*
X367719Y-10827D01*
X368502D01*
X369225Y-10527D01*
X369779Y-9973D01*
X370079Y-9250D01*
Y-8467D01*
X369779Y-7743D01*
X369418Y-7382D01*
X369779Y-7021D01*
X369965Y-6571D01*
X370403Y-6542D01*
X370630Y-6934D01*
X371216Y-7520D01*
X371934Y-7935D01*
X372735Y-8149D01*
X373564D01*
X374365Y-7935D01*
X375083Y-7520D01*
X375670Y-6934D01*
X376084Y-6216D01*
X376299Y-5415D01*
Y-4585D01*
X376084Y-3784D01*
X375670Y-3066D01*
X375083Y-2480D01*
X374365Y-2065D01*
X373564Y-1851D01*
X372735D01*
X371934Y-2065D01*
X371216Y-2480D01*
X370630Y-3066D01*
X370472Y-3338D01*
X370079Y-3233D01*
Y-2561D01*
X369779Y-1838D01*
X369418Y-1476D01*
X369779Y-1115D01*
X370079Y-392D01*
Y392D01*
X369779Y1115D01*
X369418Y1476D01*
X369779Y1838D01*
X370079Y2561D01*
Y3233D01*
X370472Y3338D01*
X370630Y3066D01*
X371216Y2480D01*
X371934Y2065D01*
X372735Y1851D01*
X373564D01*
X374365Y2065D01*
X375083Y2480D01*
X375670Y3066D01*
X376084Y3784D01*
X376299Y4585D01*
Y5415D01*
X376084Y6216D01*
X375670Y6934D01*
X375083Y7520D01*
X374365Y7935D01*
X373564Y8149D01*
X372735D01*
X371934Y7935D01*
X371216Y7520D01*
X370630Y6934D01*
X370403Y6542D01*
X369965Y6571D01*
X369779Y7021D01*
X369418Y7382D01*
X369779Y7743D01*
X370079Y8467D01*
Y9250D01*
X369779Y9973D01*
X369225Y10527D01*
X368502Y10827D01*
X367719D01*
X366995Y10527D01*
X366693Y10225D01*
X366299Y10388D01*
Y10415D01*
X366084Y11216D01*
X365670Y11934D01*
X365083Y12520D01*
X364365Y12935D01*
X363564Y13149D01*
D02*
G37*
G36*
X353564Y8149D02*
X352735D01*
X351934Y7935D01*
X351216Y7520D01*
X350629Y6934D01*
X350215Y6216D01*
X350000Y5415D01*
Y4585D01*
X350215Y3784D01*
X350629Y3066D01*
X351216Y2480D01*
X351934Y2065D01*
X352735Y1851D01*
X353564D01*
X354365Y2065D01*
X355083Y2480D01*
X355670Y3066D01*
X356084Y3784D01*
X356299Y4585D01*
Y5415D01*
X356084Y6216D01*
X355670Y6934D01*
X355083Y7520D01*
X354365Y7935D01*
X353564Y8149D01*
D02*
G37*
G36*
X333720Y9330D02*
X332579D01*
X331478Y9035D01*
X330491Y8465D01*
X329684Y7659D01*
X329114Y6672D01*
X328819Y5570D01*
Y4430D01*
X329114Y3328D01*
X329684Y2341D01*
X330491Y1535D01*
X331478Y965D01*
X332579Y669D01*
X333720D01*
X334821Y965D01*
X335809Y1535D01*
X336615Y2341D01*
X337185Y3328D01*
X337480Y4430D01*
Y5570D01*
X337185Y6672D01*
X336615Y7659D01*
X335809Y8465D01*
X334821Y9035D01*
X333720Y9330D01*
D02*
G37*
G36*
X343564Y3149D02*
X342735D01*
X341934Y2935D01*
X341216Y2520D01*
X340630Y1934D01*
X340215Y1216D01*
X340000Y415D01*
Y-415D01*
X340215Y-1216D01*
X340630Y-1934D01*
X341216Y-2520D01*
X341934Y-2935D01*
X342735Y-3149D01*
X343564D01*
X344365Y-2935D01*
X345083Y-2520D01*
X345670Y-1934D01*
X346084Y-1216D01*
X346299Y-415D01*
Y415D01*
X346084Y1216D01*
X345670Y1934D01*
X345083Y2520D01*
X344365Y2935D01*
X343564Y3149D01*
D02*
G37*
G36*
X234644Y0D02*
X233860D01*
X233137Y-300D01*
X232583Y-853D01*
X232283Y-1577D01*
Y-2360D01*
X232583Y-3084D01*
X233137Y-3637D01*
X233860Y-3937D01*
X234644D01*
X235367Y-3637D01*
X235921Y-3084D01*
X236221Y-2360D01*
Y-1577D01*
X235921Y-853D01*
X235367Y-300D01*
X234644Y0D01*
D02*
G37*
G36*
X353564Y-1851D02*
X352735D01*
X351934Y-2065D01*
X351216Y-2480D01*
X350629Y-3066D01*
X350215Y-3784D01*
X350000Y-4585D01*
Y-5415D01*
X350215Y-6216D01*
X350629Y-6934D01*
X351216Y-7520D01*
X351934Y-7935D01*
X352735Y-8149D01*
X353564D01*
X354365Y-7935D01*
X355083Y-7520D01*
X355670Y-6934D01*
X356084Y-6216D01*
X356299Y-5415D01*
Y-4585D01*
X356084Y-3784D01*
X355670Y-3066D01*
X355083Y-2480D01*
X354365Y-2065D01*
X353564Y-1851D01*
D02*
G37*
G36*
X213935Y-5276D02*
X213230D01*
X212579Y-5545D01*
X212081Y-6044D01*
X211811Y-6695D01*
Y-7400D01*
X212081Y-8051D01*
X212579Y-8549D01*
X213230Y-8819D01*
X213935D01*
X214586Y-8549D01*
X215085Y-8051D01*
X215354Y-7400D01*
Y-6695D01*
X215085Y-6044D01*
X214586Y-5545D01*
X213935Y-5276D01*
D02*
G37*
G36*
X333720Y-669D02*
X332579D01*
X331478Y-965D01*
X330491Y-1535D01*
X329684Y-2341D01*
X329114Y-3328D01*
X328819Y-4430D01*
Y-5570D01*
X329114Y-6672D01*
X329684Y-7659D01*
X330491Y-8465D01*
X331478Y-9035D01*
X332579Y-9330D01*
X333720D01*
X334821Y-9035D01*
X335809Y-8465D01*
X336615Y-7659D01*
X337185Y-6672D01*
X337480Y-5570D01*
Y-4430D01*
X337185Y-3328D01*
X336615Y-2341D01*
X335809Y-1535D01*
X334821Y-965D01*
X333720Y-669D01*
D02*
G37*
G36*
X343564Y-6851D02*
X342735D01*
X341934Y-7065D01*
X341216Y-7480D01*
X340630Y-8066D01*
X340215Y-8784D01*
X340000Y-9585D01*
Y-10415D01*
X340215Y-11216D01*
X340630Y-11934D01*
X341216Y-12520D01*
X341934Y-12935D01*
X342735Y-13149D01*
X343564D01*
X344365Y-12935D01*
X345083Y-12520D01*
X345670Y-11934D01*
X346084Y-11216D01*
X346299Y-10415D01*
Y-9585D01*
X346084Y-8784D01*
X345670Y-8066D01*
X345083Y-7480D01*
X344365Y-7065D01*
X343564Y-6851D01*
D02*
G37*
G36*
X27222Y-10728D02*
X26518D01*
X25866Y-10998D01*
X25368Y-11496D01*
X25098Y-12148D01*
Y-12852D01*
X25368Y-13504D01*
X25866Y-14002D01*
X26518Y-14272D01*
X27222D01*
X27874Y-14002D01*
X28372Y-13504D01*
X28642Y-12852D01*
Y-12148D01*
X28372Y-11496D01*
X27874Y-10998D01*
X27222Y-10728D01*
D02*
G37*
G36*
X236612Y-11811D02*
X235829D01*
X235105Y-12111D01*
X234552Y-12664D01*
X234252Y-13388D01*
Y-14171D01*
X234552Y-14895D01*
X235105Y-15448D01*
X235829Y-15748D01*
X236612D01*
X237335Y-15448D01*
X237889Y-14895D01*
X238189Y-14171D01*
Y-13388D01*
X237889Y-12664D01*
X237335Y-12111D01*
X236612Y-11811D01*
D02*
G37*
G36*
X353564Y-11851D02*
X352735D01*
X351934Y-12065D01*
X351216Y-12480D01*
X350629Y-13066D01*
X350215Y-13784D01*
X350000Y-14585D01*
Y-15415D01*
X350215Y-16216D01*
X350629Y-16934D01*
X351216Y-17520D01*
X351934Y-17935D01*
X352735Y-18149D01*
X353564D01*
X354365Y-17935D01*
X355083Y-17520D01*
X355670Y-16934D01*
X356084Y-16216D01*
X356299Y-15415D01*
Y-14585D01*
X356084Y-13784D01*
X355670Y-13066D01*
X355083Y-12480D01*
X354365Y-12065D01*
X353564Y-11851D01*
D02*
G37*
G36*
X52259Y-14547D02*
X51481D01*
X50730Y-14749D01*
X50057Y-15137D01*
X49507Y-15687D01*
X49119Y-16360D01*
X48917Y-17111D01*
Y-17889D01*
X49119Y-18640D01*
X49507Y-19313D01*
X49943Y-19749D01*
X50017Y-20000D01*
X49943Y-20251D01*
X49507Y-20687D01*
X49119Y-21360D01*
X48917Y-22111D01*
Y-22889D01*
X49119Y-23640D01*
X49507Y-24313D01*
X50057Y-24863D01*
X50730Y-25251D01*
X51481Y-25453D01*
X52259D01*
X53010Y-25251D01*
X53683Y-24863D01*
X54233Y-24313D01*
X54622Y-23640D01*
X54823Y-22889D01*
Y-22111D01*
X54622Y-21360D01*
X54233Y-20687D01*
X53797Y-20251D01*
X53723Y-20000D01*
X53797Y-19749D01*
X54233Y-19313D01*
X54622Y-18640D01*
X54823Y-17889D01*
Y-17111D01*
X54622Y-16360D01*
X54233Y-15687D01*
X53683Y-15137D01*
X53010Y-14749D01*
X52259Y-14547D01*
D02*
G37*
G36*
X229683Y-23661D02*
X228978D01*
X228327Y-23931D01*
X227829Y-24430D01*
X227559Y-25081D01*
Y-25785D01*
X227829Y-26437D01*
X228327Y-26935D01*
X228978Y-27205D01*
X229683D01*
X230334Y-26935D01*
X230833Y-26437D01*
X231102Y-25785D01*
Y-25081D01*
X230833Y-24430D01*
X230334Y-23931D01*
X229683Y-23661D01*
D02*
G37*
G36*
X348817Y-23622D02*
X348033D01*
X347310Y-23922D01*
X346756Y-24476D01*
X346457Y-25199D01*
Y-25982D01*
X346756Y-26706D01*
X347310Y-27259D01*
X348033Y-27559D01*
X348817D01*
X349540Y-27259D01*
X350094Y-26706D01*
X350394Y-25982D01*
Y-25199D01*
X350094Y-24476D01*
X349540Y-23922D01*
X348817Y-23622D01*
D02*
G37*
G36*
X151927Y-21850D02*
X151222D01*
X150571Y-22120D01*
X150073Y-22618D01*
X149803Y-23270D01*
Y-23974D01*
X150073Y-24626D01*
X150571Y-25124D01*
X151222Y-25394D01*
X151927D01*
X152452Y-25176D01*
X152578Y-25124D01*
X152915Y-25344D01*
X153026Y-25610D01*
X153524Y-26108D01*
X154175Y-26378D01*
X154880D01*
X155405Y-26160D01*
X155531Y-26108D01*
X155868Y-26328D01*
X155978Y-26594D01*
X156477Y-27092D01*
X157128Y-27362D01*
X157833D01*
X158358Y-27145D01*
X158484Y-27092D01*
X158821Y-27312D01*
X158931Y-27578D01*
X159430Y-28077D01*
X160081Y-28346D01*
X160785D01*
X161437Y-28077D01*
X161935Y-27578D01*
X162205Y-26927D01*
Y-26222D01*
X161935Y-25571D01*
X161437Y-25073D01*
X160785Y-24803D01*
X160081D01*
X159556Y-25021D01*
X159430Y-25073D01*
X159092Y-24853D01*
X158982Y-24587D01*
X158484Y-24089D01*
X157833Y-23819D01*
X157128D01*
X156603Y-24036D01*
X156477Y-24089D01*
X156140Y-23869D01*
X156029Y-23603D01*
X155531Y-23104D01*
X154880Y-22835D01*
X154175D01*
X153650Y-23052D01*
X153524Y-23104D01*
X153187Y-22885D01*
X153077Y-22618D01*
X152578Y-22120D01*
X151927Y-21850D01*
D02*
G37*
G36*
X170628Y-25630D02*
X169923D01*
X169272Y-25900D01*
X168774Y-26398D01*
X168504Y-27049D01*
Y-27754D01*
X168774Y-28405D01*
X169272Y-28903D01*
X169923Y-29173D01*
X170628D01*
X171279Y-28903D01*
X171777Y-28405D01*
X172047Y-27754D01*
Y-27049D01*
X171777Y-26398D01*
X171279Y-25900D01*
X170628Y-25630D01*
D02*
G37*
G36*
X163738Y-22008D02*
X163033D01*
X162382Y-22278D01*
X161884Y-22776D01*
X161614Y-23427D01*
Y-24132D01*
X161884Y-24783D01*
X162382Y-25282D01*
X163033Y-25551D01*
X163738D01*
X164389Y-25282D01*
X164862Y-24809D01*
X165335Y-25282D01*
X165567Y-25378D01*
Y-25804D01*
X165335Y-25900D01*
X164837Y-26398D01*
X164567Y-27049D01*
Y-27754D01*
X164837Y-28405D01*
X165335Y-28903D01*
X165986Y-29173D01*
X166691D01*
X167342Y-28903D01*
X167841Y-28405D01*
X168110Y-27754D01*
Y-27049D01*
X167841Y-26398D01*
X167342Y-25900D01*
X167110Y-25804D01*
Y-25378D01*
X167342Y-25282D01*
X167841Y-24783D01*
X168110Y-24132D01*
Y-23427D01*
X167841Y-22776D01*
X167342Y-22278D01*
X166691Y-22008D01*
X165986D01*
X165335Y-22278D01*
X164862Y-22750D01*
X164389Y-22278D01*
X163738Y-22008D01*
D02*
G37*
G36*
X32259Y-24547D02*
X31481D01*
X30730Y-24748D01*
X30057Y-25137D01*
X29507Y-25687D01*
X29118Y-26360D01*
X28917Y-27111D01*
Y-27889D01*
X29118Y-28640D01*
X29507Y-29313D01*
X29943Y-29749D01*
X30017Y-30000D01*
X29943Y-30251D01*
X29507Y-30687D01*
X29118Y-31360D01*
X28971Y-31913D01*
X28556Y-31940D01*
X28372Y-31496D01*
X27874Y-30998D01*
X27222Y-30728D01*
X26518D01*
X25866Y-30998D01*
X25368Y-31496D01*
X25098Y-32148D01*
Y-32852D01*
X25368Y-33504D01*
X25866Y-34002D01*
X26518Y-34272D01*
X27222D01*
X27874Y-34002D01*
X28372Y-33504D01*
X28556Y-33060D01*
X28971Y-33087D01*
X29118Y-33640D01*
X29507Y-34313D01*
X30057Y-34863D01*
X30730Y-35252D01*
X31481Y-35453D01*
X32259D01*
X33010Y-35252D01*
X33683Y-34863D01*
X34233Y-34313D01*
X34622Y-33640D01*
X34823Y-32889D01*
Y-32111D01*
X34622Y-31360D01*
X34233Y-30687D01*
X33797Y-30251D01*
X33723Y-30000D01*
X33797Y-29749D01*
X34233Y-29313D01*
X34622Y-28640D01*
X34823Y-27889D01*
Y-27111D01*
X34622Y-26360D01*
X34233Y-25687D01*
X33683Y-25137D01*
X33010Y-24748D01*
X32259Y-24547D01*
D02*
G37*
G36*
X303929Y9661D02*
X253110D01*
X253032Y9646D01*
X252953D01*
X251021Y9261D01*
X250948Y9231D01*
X250870Y9216D01*
X249050Y8462D01*
X248985Y8418D01*
X248912Y8388D01*
X247274Y7293D01*
X247218Y7237D01*
X247152Y7193D01*
X245759Y5801D01*
X245715Y5735D01*
X245659Y5679D01*
X244565Y4041D01*
X244535Y3968D01*
X244491Y3902D01*
X243737Y2082D01*
X243722Y2005D01*
X243691Y1932D01*
X243307Y-0D01*
Y-79D01*
X243292Y-157D01*
Y-1142D01*
Y-21496D01*
Y-22481D01*
X243307Y-22558D01*
Y-22638D01*
X243691Y-24570D01*
X243722Y-24643D01*
X243737Y-24720D01*
X244491Y-26540D01*
X244535Y-26606D01*
X244565Y-26679D01*
X245659Y-28317D01*
X245715Y-28373D01*
X245759Y-28438D01*
X247152Y-29831D01*
X247218Y-29875D01*
X247274Y-29931D01*
X248912Y-31025D01*
X248985Y-31056D01*
X249050Y-31100D01*
X250870Y-31854D01*
X250948Y-31869D01*
X251021Y-31899D01*
X252953Y-32283D01*
X253032D01*
X253110Y-32299D01*
X327547D01*
X327625Y-32283D01*
X327704D01*
X329225Y-31981D01*
X329298Y-31951D01*
X329376Y-31935D01*
X330809Y-31342D01*
X330874Y-31298D01*
X330947Y-31267D01*
X332237Y-30406D01*
X332293Y-30350D01*
X332359Y-30306D01*
X333455Y-29209D01*
X333499Y-29143D01*
X333555Y-29087D01*
X334417Y-27798D01*
X334447Y-27725D01*
X334491Y-27659D01*
X335085Y-26226D01*
X335100Y-26149D01*
X335131Y-26075D01*
X335433Y-24554D01*
Y-24475D01*
X335449Y-24398D01*
Y-20823D01*
X335433Y-20745D01*
Y-20666D01*
X335175Y-19368D01*
X335144Y-19295D01*
X335129Y-19217D01*
X334623Y-17994D01*
X334578Y-17928D01*
X334548Y-17855D01*
X333813Y-16754D01*
X333757Y-16698D01*
X333713Y-16633D01*
X333245Y-16165D01*
X333245Y-16165D01*
X310583Y6497D01*
X310583Y6497D01*
X309887Y7193D01*
X309821Y7237D01*
X309765Y7293D01*
X308127Y8388D01*
X308054Y8418D01*
X307989Y8462D01*
X306169Y9216D01*
X306091Y9231D01*
X306018Y9261D01*
X304086Y9646D01*
X304007D01*
X303929Y9661D01*
D02*
G37*
G36*
X52259Y-29547D02*
X51481D01*
X50730Y-29748D01*
X50057Y-30137D01*
X49507Y-30687D01*
X49119Y-31360D01*
X48917Y-32111D01*
Y-32889D01*
X49119Y-33640D01*
X49507Y-34313D01*
X49943Y-34749D01*
X50017Y-35000D01*
X49943Y-35251D01*
X49621Y-35573D01*
X49370Y-35647D01*
X49119Y-35573D01*
X48683Y-35137D01*
X48010Y-34749D01*
X47259Y-34547D01*
X46481D01*
X45730Y-34749D01*
X45057Y-35137D01*
X44507Y-35687D01*
X44118Y-36360D01*
X43917Y-37111D01*
Y-37889D01*
X44118Y-38640D01*
X44507Y-39313D01*
X44943Y-39749D01*
X45017Y-40000D01*
X44943Y-40251D01*
X44507Y-40687D01*
X44118Y-41360D01*
X43917Y-42111D01*
Y-42889D01*
X44118Y-43640D01*
X44507Y-44313D01*
X45057Y-44863D01*
X45730Y-45252D01*
X46481Y-45453D01*
X47259D01*
X48010Y-45252D01*
X48683Y-44863D01*
X49233Y-44313D01*
X49622Y-43640D01*
X49823Y-42889D01*
Y-42111D01*
X49622Y-41360D01*
X49233Y-40687D01*
X48797Y-40251D01*
X48723Y-40000D01*
X48797Y-39749D01*
X49119Y-39427D01*
X49370Y-39353D01*
X49621Y-39427D01*
X50057Y-39863D01*
X50730Y-40251D01*
X51481Y-40453D01*
X52259D01*
X53010Y-40251D01*
X53683Y-39863D01*
X54233Y-39313D01*
X54622Y-38640D01*
X54823Y-37889D01*
Y-37111D01*
X54622Y-36360D01*
X54233Y-35687D01*
X53797Y-35251D01*
X53723Y-35000D01*
X53797Y-34749D01*
X54233Y-34313D01*
X54622Y-33640D01*
X54823Y-32889D01*
Y-32111D01*
X54622Y-31360D01*
X54233Y-30687D01*
X53683Y-30137D01*
X53010Y-29748D01*
X52259Y-29547D01*
D02*
G37*
G36*
X234644Y-35433D02*
X233860D01*
X233137Y-35733D01*
X232583Y-36287D01*
X232283Y-37010D01*
Y-37793D01*
X232583Y-38517D01*
X233137Y-39070D01*
X233860Y-39370D01*
X234644D01*
X235367Y-39070D01*
X235921Y-38517D01*
X236221Y-37793D01*
Y-37010D01*
X235921Y-36287D01*
X235367Y-35733D01*
X234644Y-35433D01*
D02*
G37*
G36*
X287754Y-40846D02*
X287049D01*
X286398Y-41116D01*
X285900Y-41615D01*
X285630Y-42266D01*
Y-42970D01*
X285900Y-43622D01*
X286398Y-44120D01*
X287049Y-44390D01*
X287754D01*
X288405Y-44120D01*
X288903Y-43622D01*
X289173Y-42970D01*
Y-42266D01*
X288903Y-41615D01*
X288405Y-41116D01*
X287754Y-40846D01*
D02*
G37*
G36*
X268108Y-42323D02*
X267325D01*
X266601Y-42623D01*
X266048Y-43176D01*
X265748Y-43900D01*
Y-44683D01*
X266048Y-45406D01*
X266601Y-45960D01*
X267325Y-46260D01*
X268108D01*
X268832Y-45960D01*
X269385Y-45406D01*
X269685Y-44683D01*
Y-43900D01*
X269385Y-43176D01*
X268832Y-42623D01*
X268108Y-42323D01*
D02*
G37*
G36*
X141927Y-43504D02*
X141222D01*
X140571Y-43774D01*
X140073Y-44272D01*
X139803Y-44923D01*
Y-45628D01*
X140073Y-46279D01*
X140571Y-46777D01*
X141222Y-47047D01*
X141927D01*
X142578Y-46777D01*
X143077Y-46279D01*
X143347Y-45628D01*
Y-44923D01*
X143077Y-44272D01*
X142578Y-43774D01*
X141927Y-43504D01*
D02*
G37*
G36*
X277911Y-44390D02*
X277207D01*
X276555Y-44660D01*
X276057Y-45158D01*
X275787Y-45809D01*
Y-46514D01*
X276057Y-47165D01*
X276555Y-47663D01*
X277207Y-47933D01*
X277911D01*
X278563Y-47663D01*
X279061Y-47165D01*
X279331Y-46514D01*
Y-45809D01*
X279061Y-45158D01*
X278563Y-44660D01*
X277911Y-44390D01*
D02*
G37*
G36*
X272045Y-44291D02*
X271262D01*
X270538Y-44591D01*
X269985Y-45145D01*
X269685Y-45868D01*
Y-46651D01*
X269985Y-47375D01*
X270538Y-47929D01*
X271262Y-48228D01*
X272045D01*
X272769Y-47929D01*
X273322Y-47375D01*
X273622Y-46651D01*
Y-45868D01*
X273322Y-45145D01*
X272769Y-44591D01*
X272045Y-44291D01*
D02*
G37*
G36*
X218896Y-45669D02*
X218112D01*
X217389Y-45969D01*
X216835Y-46523D01*
X216535Y-47246D01*
Y-48029D01*
X216835Y-48753D01*
X217389Y-49307D01*
X218112Y-49606D01*
X218896D01*
X219619Y-49307D01*
X220173Y-48753D01*
X220472Y-48029D01*
Y-47246D01*
X220173Y-46523D01*
X219619Y-45969D01*
X218896Y-45669D01*
D02*
G37*
G36*
X266140Y-47244D02*
X265356D01*
X264633Y-47544D01*
X264079Y-48098D01*
X263779Y-48821D01*
Y-49604D01*
X264079Y-50328D01*
X264633Y-50881D01*
X265356Y-51181D01*
X266140D01*
X266863Y-50881D01*
X267417Y-50328D01*
X267716Y-49604D01*
Y-48821D01*
X267417Y-48098D01*
X266863Y-47544D01*
X266140Y-47244D01*
D02*
G37*
G36*
X254328D02*
X253545D01*
X252822Y-47544D01*
X252268Y-48098D01*
X251968Y-48821D01*
Y-49604D01*
X252268Y-50328D01*
X252822Y-50881D01*
X253545Y-51181D01*
X254328D01*
X255052Y-50881D01*
X255606Y-50328D01*
X255905Y-49604D01*
Y-48821D01*
X255606Y-48098D01*
X255052Y-47544D01*
X254328Y-47244D01*
D02*
G37*
G36*
X27222Y-50728D02*
X26518D01*
X25866Y-50998D01*
X25368Y-51496D01*
X25098Y-52148D01*
Y-52852D01*
X25368Y-53504D01*
X25866Y-54002D01*
X26518Y-54272D01*
X27222D01*
X27874Y-54002D01*
X28372Y-53504D01*
X28642Y-52852D01*
Y-52148D01*
X28372Y-51496D01*
X27874Y-50998D01*
X27222Y-50728D01*
D02*
G37*
G36*
X158817Y-60394D02*
X158112D01*
X157461Y-60663D01*
X156963Y-61162D01*
X156693Y-61813D01*
Y-62518D01*
X156963Y-63169D01*
X157461Y-63667D01*
X158112Y-63937D01*
X158817D01*
X159468Y-63667D01*
X159967Y-63169D01*
X160236Y-62518D01*
Y-61813D01*
X159967Y-61162D01*
X159468Y-60663D01*
X158817Y-60394D01*
D02*
G37*
G36*
X154880D02*
X154175D01*
X153524Y-60663D01*
X153026Y-61162D01*
X152756Y-61813D01*
Y-62518D01*
X153026Y-63169D01*
X153524Y-63667D01*
X154175Y-63937D01*
X154880D01*
X155531Y-63667D01*
X156029Y-63169D01*
X156299Y-62518D01*
Y-61813D01*
X156029Y-61162D01*
X155531Y-60663D01*
X154880Y-60394D01*
D02*
G37*
G36*
X32259Y-54547D02*
X31481D01*
X30730Y-54748D01*
X30057Y-55137D01*
X29507Y-55687D01*
X29118Y-56360D01*
X28917Y-57111D01*
Y-57889D01*
X29118Y-58640D01*
X29507Y-59313D01*
X29943Y-59749D01*
X30017Y-60000D01*
X29943Y-60251D01*
X29507Y-60687D01*
X29118Y-61360D01*
X28917Y-62111D01*
Y-62889D01*
X29118Y-63640D01*
X29507Y-64313D01*
X30057Y-64863D01*
X30730Y-65251D01*
X31481Y-65453D01*
X32259D01*
X33010Y-65251D01*
X33683Y-64863D01*
X34233Y-64313D01*
X34622Y-63640D01*
X34823Y-62889D01*
Y-62111D01*
X34622Y-61360D01*
X34233Y-60687D01*
X33797Y-60251D01*
X33723Y-60000D01*
X33797Y-59749D01*
X34233Y-59313D01*
X34622Y-58640D01*
X34823Y-57889D01*
Y-57111D01*
X34622Y-56360D01*
X34233Y-55687D01*
X33683Y-55137D01*
X33010Y-54748D01*
X32259Y-54547D01*
D02*
G37*
G36*
X52259Y-59547D02*
X51481D01*
X50730Y-59749D01*
X50057Y-60137D01*
X49507Y-60687D01*
X49119Y-61360D01*
X48917Y-62111D01*
Y-62889D01*
X49119Y-63640D01*
X49507Y-64313D01*
X49943Y-64749D01*
X50017Y-65000D01*
X49943Y-65251D01*
X49621Y-65573D01*
X49370Y-65647D01*
X49119Y-65573D01*
X48683Y-65137D01*
X48010Y-64749D01*
X47259Y-64547D01*
X46481D01*
X45730Y-64749D01*
X45057Y-65137D01*
X44507Y-65687D01*
X44118Y-66360D01*
X43917Y-67111D01*
Y-67889D01*
X44118Y-68640D01*
X44507Y-69313D01*
X44943Y-69749D01*
X45017Y-70000D01*
X44943Y-70251D01*
X44507Y-70687D01*
X44118Y-71360D01*
X43917Y-72111D01*
Y-72889D01*
X44118Y-73640D01*
X44507Y-74313D01*
X45057Y-74863D01*
X45730Y-75252D01*
X46481Y-75453D01*
X47259D01*
X48010Y-75252D01*
X48683Y-74863D01*
X49233Y-74313D01*
X49622Y-73640D01*
X49823Y-72889D01*
Y-72111D01*
X49622Y-71360D01*
X49233Y-70687D01*
X48797Y-70251D01*
X48723Y-70000D01*
X48797Y-69749D01*
X49119Y-69427D01*
X49370Y-69353D01*
X49621Y-69427D01*
X50057Y-69863D01*
X50730Y-70252D01*
X51481Y-70453D01*
X52259D01*
X53010Y-70252D01*
X53683Y-69863D01*
X54233Y-69313D01*
X54622Y-68640D01*
X54823Y-67889D01*
Y-67111D01*
X54622Y-66360D01*
X54233Y-65687D01*
X53797Y-65251D01*
X53723Y-65000D01*
X53797Y-64749D01*
X54233Y-64313D01*
X54622Y-63640D01*
X54823Y-62889D01*
Y-62111D01*
X54622Y-61360D01*
X54233Y-60687D01*
X53683Y-60137D01*
X53010Y-59749D01*
X52259Y-59547D01*
D02*
G37*
G36*
X37754Y-67126D02*
X37049D01*
X36398Y-67396D01*
X35900Y-67894D01*
X35630Y-68545D01*
Y-69250D01*
X35900Y-69901D01*
X36398Y-70400D01*
X37049Y-70669D01*
X37754D01*
X38405Y-70400D01*
X38903Y-69901D01*
X39173Y-69250D01*
Y-68545D01*
X38903Y-67894D01*
X38405Y-67396D01*
X37754Y-67126D01*
D02*
G37*
G36*
X166691Y-72205D02*
X165986D01*
X165335Y-72474D01*
X164862Y-72947D01*
X164389Y-72474D01*
X163738Y-72205D01*
X163033D01*
X162382Y-72474D01*
X161884Y-72973D01*
X161614Y-73624D01*
Y-74329D01*
X161884Y-74980D01*
X162382Y-75478D01*
X163033Y-75748D01*
X163738D01*
X164389Y-75478D01*
X164862Y-75006D01*
X165335Y-75478D01*
X165567Y-75574D01*
Y-76000D01*
X165335Y-76096D01*
X164837Y-76595D01*
X164567Y-77246D01*
Y-77951D01*
X164837Y-78602D01*
X165335Y-79100D01*
X165986Y-79370D01*
X166691D01*
X167342Y-79100D01*
X167841Y-78602D01*
X168110Y-77951D01*
Y-77246D01*
X167841Y-76595D01*
X167342Y-76096D01*
X167110Y-76000D01*
Y-75574D01*
X167342Y-75478D01*
X167841Y-74980D01*
X168110Y-74329D01*
Y-73624D01*
X167841Y-72973D01*
X167342Y-72474D01*
X166691Y-72205D01*
D02*
G37*
G36*
X151927Y-72047D02*
X151222D01*
X150571Y-72317D01*
X150073Y-72815D01*
X149803Y-73466D01*
Y-74171D01*
X150073Y-74822D01*
X150571Y-75321D01*
X151222Y-75590D01*
X151927D01*
X152452Y-75373D01*
X152578Y-75321D01*
X152915Y-75541D01*
X153026Y-75807D01*
X153524Y-76305D01*
X154175Y-76575D01*
X154880D01*
X155405Y-76357D01*
X155531Y-76305D01*
X155868Y-76525D01*
X155978Y-76791D01*
X156477Y-77289D01*
X157128Y-77559D01*
X157833D01*
X158358Y-77342D01*
X158484Y-77289D01*
X158821Y-77509D01*
X158931Y-77775D01*
X159430Y-78274D01*
X160081Y-78543D01*
X160785D01*
X161437Y-78274D01*
X161935Y-77775D01*
X162205Y-77124D01*
Y-76419D01*
X161935Y-75768D01*
X161437Y-75270D01*
X160785Y-75000D01*
X160081D01*
X159556Y-75217D01*
X159430Y-75270D01*
X159092Y-75050D01*
X158982Y-74784D01*
X158484Y-74286D01*
X157833Y-74016D01*
X157128D01*
X156603Y-74233D01*
X156477Y-74286D01*
X156140Y-74066D01*
X156029Y-73800D01*
X155531Y-73301D01*
X154880Y-73032D01*
X154175D01*
X153650Y-73249D01*
X153524Y-73301D01*
X153187Y-73081D01*
X153077Y-72815D01*
X152578Y-72317D01*
X151927Y-72047D01*
D02*
G37*
G36*
X52259Y-74547D02*
X51481D01*
X50730Y-74748D01*
X50057Y-75137D01*
X49507Y-75687D01*
X49119Y-76360D01*
X48917Y-77111D01*
Y-77889D01*
X49119Y-78640D01*
X49507Y-79313D01*
X49943Y-79749D01*
X50017Y-80000D01*
X49943Y-80251D01*
X49507Y-80687D01*
X49119Y-81360D01*
X48917Y-82111D01*
Y-82889D01*
X49119Y-83640D01*
X49507Y-84313D01*
X50057Y-84863D01*
X50730Y-85251D01*
X51481Y-85453D01*
X52259D01*
X53010Y-85251D01*
X53683Y-84863D01*
X54233Y-84313D01*
X54622Y-83640D01*
X54823Y-82889D01*
Y-82111D01*
X54622Y-81360D01*
X54233Y-80687D01*
X53797Y-80251D01*
X53723Y-80000D01*
X53797Y-79749D01*
X54233Y-79313D01*
X54622Y-78640D01*
X54823Y-77889D01*
Y-77111D01*
X54622Y-76360D01*
X54233Y-75687D01*
X53683Y-75137D01*
X53010Y-74748D01*
X52259Y-74547D01*
D02*
G37*
G36*
X37793Y-90551D02*
X37010D01*
X36287Y-90851D01*
X35733Y-91405D01*
X35433Y-92128D01*
Y-92911D01*
X35733Y-93635D01*
X36287Y-94188D01*
X37010Y-94488D01*
X37793D01*
X38517Y-94188D01*
X39070Y-93635D01*
X39370Y-92911D01*
Y-92128D01*
X39070Y-91405D01*
X38517Y-90851D01*
X37793Y-90551D01*
D02*
G37*
G36*
X141927Y-93701D02*
X141222D01*
X140571Y-93971D01*
X140073Y-94469D01*
X139803Y-95120D01*
Y-95825D01*
X140073Y-96476D01*
X140571Y-96974D01*
X141222Y-97244D01*
X141927D01*
X142578Y-96974D01*
X143077Y-96476D01*
X143347Y-95825D01*
Y-95120D01*
X143077Y-94469D01*
X142578Y-93971D01*
X141927Y-93701D01*
D02*
G37*
G36*
X82026Y-103799D02*
X81360D01*
X80745Y-104054D01*
X80274Y-104525D01*
X80020Y-105140D01*
Y-105805D01*
X80274Y-106420D01*
X80745Y-106891D01*
X81360Y-107146D01*
X82026D01*
X82641Y-106891D01*
X83111Y-106420D01*
X83366Y-105805D01*
Y-105140D01*
X83111Y-104525D01*
X82641Y-104054D01*
X82026Y-103799D01*
D02*
G37*
G36*
X39831Y-103543D02*
X38909D01*
X38019Y-103782D01*
X37221Y-104243D01*
X36569Y-104894D01*
X36109Y-105692D01*
X35870Y-106582D01*
Y-107504D01*
X36109Y-108394D01*
X36569Y-109192D01*
X37221Y-109844D01*
X38019Y-110305D01*
X38909Y-110543D01*
X39831D01*
X40721Y-110305D01*
X41519Y-109844D01*
X42171Y-109192D01*
X42632Y-108394D01*
X42870Y-107504D01*
Y-106582D01*
X42632Y-105692D01*
X42171Y-104894D01*
X41519Y-104243D01*
X40721Y-103782D01*
X39831Y-103543D01*
D02*
G37*
G36*
X101711Y-107480D02*
X101045D01*
X100430Y-107735D01*
X99959Y-108206D01*
X99705Y-108821D01*
Y-109486D01*
X99959Y-110101D01*
X100430Y-110572D01*
X101045Y-110827D01*
X101711D01*
X102326Y-110572D01*
X102796Y-110101D01*
X103051Y-109486D01*
Y-108821D01*
X102796Y-108206D01*
X102326Y-107735D01*
X101711Y-107480D01*
D02*
G37*
G36*
X158817Y-110591D02*
X158112D01*
X157461Y-110860D01*
X156963Y-111359D01*
X156693Y-112010D01*
Y-112715D01*
X156963Y-113366D01*
X157461Y-113864D01*
X158112Y-114134D01*
X158817D01*
X159468Y-113864D01*
X159967Y-113366D01*
X160236Y-112715D01*
Y-112010D01*
X159967Y-111359D01*
X159468Y-110860D01*
X158817Y-110591D01*
D02*
G37*
G36*
X154880D02*
X154175D01*
X153524Y-110860D01*
X153026Y-111359D01*
X152756Y-112010D01*
Y-112715D01*
X153026Y-113366D01*
X153524Y-113864D01*
X154175Y-114134D01*
X154880D01*
X155531Y-113864D01*
X156029Y-113366D01*
X156299Y-112715D01*
Y-112010D01*
X156029Y-111359D01*
X155531Y-110860D01*
X154880Y-110591D01*
D02*
G37*
G36*
X48059Y-115738D02*
X47835D01*
Y-123421D01*
X55518D01*
Y-123197D01*
X55200Y-121598D01*
X54576Y-120093D01*
X53671Y-118737D01*
X52518Y-117585D01*
X51163Y-116680D01*
X49657Y-116056D01*
X48059Y-115738D01*
D02*
G37*
G36*
X46654D02*
X46429D01*
X44831Y-116056D01*
X43325Y-116680D01*
X41970Y-117585D01*
X40817Y-118737D01*
X39912Y-120093D01*
X39288Y-121598D01*
X38970Y-123197D01*
Y-123421D01*
X46654D01*
Y-115738D01*
D02*
G37*
G36*
X107119Y-124994D02*
X107087D01*
Y-129134D01*
X111227D01*
Y-129102D01*
X110904Y-127898D01*
X110282Y-126820D01*
X109401Y-125939D01*
X108322Y-125316D01*
X107119Y-124994D01*
D02*
G37*
G36*
X105905D02*
X105873D01*
X104670Y-125316D01*
X103591Y-125939D01*
X102710Y-126820D01*
X102088Y-127898D01*
X101765Y-129102D01*
Y-129134D01*
X105905D01*
Y-124994D01*
D02*
G37*
G36*
X87040D02*
X87008D01*
Y-129134D01*
X91148D01*
Y-129102D01*
X90826Y-127898D01*
X90203Y-126820D01*
X89322Y-125939D01*
X88243Y-125316D01*
X87040Y-124994D01*
D02*
G37*
G36*
X85827D02*
X85795D01*
X84591Y-125316D01*
X83513Y-125939D01*
X82632Y-126820D01*
X82009Y-127898D01*
X81687Y-129102D01*
Y-129134D01*
X85827D01*
Y-124994D01*
D02*
G37*
G36*
X55518Y-124602D02*
X47835D01*
Y-132286D01*
X48059D01*
X49657Y-131968D01*
X51163Y-131344D01*
X52518Y-130439D01*
X53671Y-129286D01*
X54576Y-127931D01*
X55200Y-126425D01*
X55518Y-124827D01*
Y-124602D01*
D02*
G37*
G36*
X46654D02*
X38970D01*
Y-124827D01*
X39288Y-126425D01*
X39912Y-127931D01*
X40817Y-129286D01*
X41970Y-130439D01*
X43325Y-131344D01*
X44831Y-131968D01*
X46429Y-132286D01*
X46654D01*
Y-124602D01*
D02*
G37*
G36*
X111227Y-130315D02*
X107087D01*
Y-134455D01*
X107119D01*
X108322Y-134133D01*
X109401Y-133510D01*
X110282Y-132629D01*
X110904Y-131550D01*
X111227Y-130347D01*
Y-130315D01*
D02*
G37*
G36*
X105905D02*
X101765D01*
Y-130347D01*
X102088Y-131550D01*
X102710Y-132629D01*
X103591Y-133510D01*
X104670Y-134133D01*
X105873Y-134455D01*
X105905D01*
Y-130315D01*
D02*
G37*
G36*
X91148D02*
X87008D01*
Y-134455D01*
X87040D01*
X88243Y-134133D01*
X89322Y-133510D01*
X90203Y-132629D01*
X90826Y-131550D01*
X91148Y-130347D01*
Y-130315D01*
D02*
G37*
G36*
X85827D02*
X81687D01*
Y-130347D01*
X82009Y-131550D01*
X82632Y-132629D01*
X83513Y-133510D01*
X84591Y-134133D01*
X85795Y-134455D01*
X85827D01*
Y-130315D01*
D02*
G37*
G36*
X20646Y-125584D02*
X20276D01*
Y-137205D01*
X31896D01*
Y-136834D01*
X31595Y-134936D01*
X31001Y-133108D01*
X30129Y-131395D01*
X28999Y-129840D01*
X27640Y-128481D01*
X26085Y-127351D01*
X24372Y-126479D01*
X22545Y-125885D01*
X20646Y-125584D01*
D02*
G37*
G36*
X19094D02*
X18724D01*
X16826Y-125885D01*
X14998Y-126479D01*
X13285Y-127351D01*
X11730Y-128481D01*
X10371Y-129840D01*
X9241Y-131395D01*
X8369Y-133108D01*
X7775Y-134936D01*
X7474Y-136834D01*
Y-137205D01*
X19094D01*
Y-125584D01*
D02*
G37*
G36*
X97079Y-135039D02*
X95835D01*
X94633Y-135361D01*
X93556Y-135983D01*
X92676Y-136863D01*
X92054Y-137940D01*
X91732Y-139142D01*
Y-140386D01*
X92054Y-141587D01*
X92676Y-142665D01*
X93556Y-143544D01*
X94633Y-144166D01*
X95835Y-144488D01*
X97079D01*
X98280Y-144166D01*
X99358Y-143544D01*
X100237Y-142665D01*
X100859Y-141587D01*
X101181Y-140386D01*
Y-139142D01*
X100859Y-137940D01*
X100237Y-136863D01*
X99358Y-135983D01*
X98280Y-135361D01*
X97079Y-135039D01*
D02*
G37*
G36*
X107119Y-145072D02*
X107087D01*
Y-149213D01*
X111227D01*
Y-149180D01*
X110904Y-147977D01*
X110282Y-146898D01*
X109401Y-146018D01*
X108322Y-145395D01*
X107119Y-145072D01*
D02*
G37*
G36*
X105905D02*
X105873D01*
X104670Y-145395D01*
X103591Y-146018D01*
X102710Y-146898D01*
X102088Y-147977D01*
X101765Y-149180D01*
Y-149213D01*
X105905D01*
Y-145072D01*
D02*
G37*
G36*
X87040D02*
X87008D01*
Y-149213D01*
X91148D01*
Y-149180D01*
X90826Y-147977D01*
X90203Y-146898D01*
X89322Y-146018D01*
X88243Y-145395D01*
X87040Y-145072D01*
D02*
G37*
G36*
X85827D02*
X85795D01*
X84591Y-145395D01*
X83513Y-146018D01*
X82632Y-146898D01*
X82009Y-147977D01*
X81687Y-149180D01*
Y-149213D01*
X85827D01*
Y-145072D01*
D02*
G37*
G36*
X31896Y-138386D02*
X20276D01*
Y-150006D01*
X20646D01*
X22545Y-149706D01*
X24372Y-149112D01*
X26085Y-148239D01*
X27640Y-147109D01*
X28999Y-145750D01*
X30129Y-144195D01*
X31001Y-142483D01*
X31595Y-140655D01*
X31896Y-138756D01*
Y-138386D01*
D02*
G37*
G36*
X19094D02*
X7474D01*
Y-138756D01*
X7775Y-140655D01*
X8369Y-142483D01*
X9241Y-144195D01*
X10371Y-145750D01*
X11730Y-147109D01*
X13285Y-148239D01*
X14998Y-149112D01*
X16826Y-149706D01*
X18724Y-150006D01*
X19094D01*
Y-138386D01*
D02*
G37*
G36*
X61024Y-145669D02*
X36417D01*
Y-153543D01*
X61024D01*
Y-145669D01*
D02*
G37*
G36*
X111227Y-150394D02*
X107087D01*
Y-154534D01*
X107119D01*
X108322Y-154211D01*
X109401Y-153589D01*
X110282Y-152708D01*
X110904Y-151629D01*
X111227Y-150426D01*
Y-150394D01*
D02*
G37*
G36*
X105905D02*
X101765D01*
Y-150426D01*
X102088Y-151629D01*
X102710Y-152708D01*
X103591Y-153589D01*
X104670Y-154211D01*
X105873Y-154534D01*
X105905D01*
Y-150394D01*
D02*
G37*
G36*
X91148D02*
X87008D01*
Y-154534D01*
X87040D01*
X88243Y-154211D01*
X89322Y-153589D01*
X90203Y-152708D01*
X90826Y-151629D01*
X91148Y-150426D01*
Y-150394D01*
D02*
G37*
G36*
X85827D02*
X81687D01*
Y-150426D01*
X82009Y-151629D01*
X82632Y-152708D01*
X83513Y-153589D01*
X84591Y-154211D01*
X85795Y-154534D01*
X85827D01*
Y-150394D01*
D02*
G37*
%LPD*%
G36*
X368771Y9847D02*
X369098Y9519D01*
X369276Y9090D01*
Y8626D01*
X369098Y8198D01*
X368850Y7950D01*
X368676Y7689D01*
X368615Y7382D01*
X368676Y7075D01*
X368850Y6814D01*
X369098Y6566D01*
X369224Y6264D01*
X369296Y6155D01*
X369362Y6041D01*
X369383Y6025D01*
X369398Y6003D01*
X369506Y5931D01*
X369610Y5851D01*
X369636Y5844D01*
X369658Y5829D01*
X369701Y5821D01*
X369865Y5661D01*
X370000Y5415D01*
Y4585D01*
X370094Y4234D01*
X369772Y3974D01*
X369684Y3916D01*
X369590Y3870D01*
X369555Y3830D01*
X369511Y3800D01*
X369453Y3713D01*
X369384Y3634D01*
X369366Y3584D01*
X369337Y3540D01*
X369317Y3437D01*
X369283Y3337D01*
X369286Y3285D01*
X369276Y3233D01*
Y2721D01*
X369098Y2293D01*
X368850Y2044D01*
X368676Y1784D01*
X368615Y1476D01*
X368676Y1169D01*
X368850Y909D01*
X369098Y660D01*
X369276Y232D01*
Y-232D01*
X369098Y-660D01*
X368850Y-909D01*
X368676Y-1169D01*
X368615Y-1476D01*
X368676Y-1784D01*
X368850Y-2044D01*
X369098Y-2293D01*
X369276Y-2721D01*
Y-3233D01*
X369286Y-3285D01*
X369283Y-3337D01*
X369317Y-3437D01*
X369337Y-3540D01*
X369366Y-3584D01*
X369384Y-3634D01*
X369453Y-3713D01*
X369511Y-3800D01*
X369555Y-3830D01*
X369590Y-3870D01*
X369684Y-3916D01*
X369772Y-3974D01*
X370094Y-4234D01*
X370000Y-4585D01*
Y-5415D01*
X369865Y-5661D01*
X369701Y-5821D01*
X369658Y-5829D01*
X369636Y-5844D01*
X369610Y-5851D01*
X369506Y-5931D01*
X369398Y-6003D01*
X369383Y-6025D01*
X369362Y-6041D01*
X369296Y-6155D01*
X369224Y-6264D01*
X369098Y-6566D01*
X368850Y-6814D01*
X368676Y-7075D01*
X368615Y-7382D01*
X368676Y-7689D01*
X368850Y-7950D01*
X369098Y-8198D01*
X369276Y-8626D01*
Y-9090D01*
X369098Y-9519D01*
X368771Y-9847D01*
X368342Y-10024D01*
X367878D01*
X367450Y-9847D01*
X367260Y-9657D01*
X367000Y-9483D01*
X366693Y-9422D01*
X366654Y-9357D01*
X366586Y-8971D01*
X366690Y-8891D01*
X366799Y-8819D01*
X366813Y-8797D01*
X366835Y-8780D01*
X366900Y-8667D01*
X366973Y-8558D01*
X367122Y-8198D01*
X367370Y-7950D01*
X367545Y-7689D01*
X367606Y-7382D01*
X367545Y-7075D01*
X367370Y-6814D01*
X367122Y-6566D01*
X366945Y-6137D01*
Y-5674D01*
X367122Y-5245D01*
X367370Y-4997D01*
X367370Y-4997D01*
X367544Y-4736D01*
X367606Y-4429D01*
X367544Y-4122D01*
X367370Y-3861D01*
X367122Y-3613D01*
X366945Y-3185D01*
Y-2721D01*
X367122Y-2293D01*
X367370Y-2044D01*
X367545Y-1784D01*
X367606Y-1476D01*
X367545Y-1169D01*
X367370Y-909D01*
X367070Y-609D01*
X367044Y-591D01*
X367025Y-567D01*
X366915Y-505D01*
X366810Y-434D01*
X366779Y-428D01*
X366752Y-413D01*
X366626Y-398D01*
X366503Y-373D01*
X366299Y-58D01*
Y58D01*
X366503Y373D01*
X366627Y398D01*
X366752Y413D01*
X366779Y428D01*
X366810Y434D01*
X366915Y505D01*
X367025Y567D01*
X367044Y591D01*
X367070Y609D01*
X367370Y909D01*
X367545Y1169D01*
X367606Y1476D01*
X367545Y1784D01*
X367370Y2044D01*
X367122Y2293D01*
X366945Y2721D01*
Y3185D01*
X367122Y3613D01*
X367370Y3861D01*
X367544Y4122D01*
X367605Y4429D01*
X367544Y4736D01*
X367370Y4997D01*
X367370Y4997D01*
X367122Y5245D01*
X366945Y5674D01*
Y6137D01*
X367122Y6566D01*
X367370Y6814D01*
X367545Y7075D01*
X367606Y7382D01*
X367545Y7689D01*
X367370Y7950D01*
X367122Y8198D01*
X366973Y8558D01*
X366900Y8667D01*
X366835Y8780D01*
X366814Y8797D01*
X366799Y8819D01*
X366690Y8891D01*
X366586Y8971D01*
X366560Y8978D01*
X366538Y8993D01*
X366469Y9007D01*
X366256Y9255D01*
X366282Y9354D01*
X366386Y9483D01*
X366693Y9422D01*
X367000Y9483D01*
X367260Y9657D01*
X367450Y9847D01*
X367878Y10024D01*
X368342D01*
X368771Y9847D01*
D02*
G37*
G36*
X305861Y8474D02*
X307681Y7720D01*
X307747Y7676D01*
X309319Y6626D01*
X309375Y6570D01*
X309375Y6570D01*
X310016Y5929D01*
X310016Y5929D01*
X310016Y5929D01*
X332677Y-16732D01*
X332677Y-16732D01*
X332677Y-16732D01*
X332677Y-16732D01*
X333089Y-17144D01*
X333089Y-17144D01*
X333145Y-17200D01*
D01*
X333145Y-17200D01*
X333881Y-18301D01*
X334387Y-19524D01*
X334646Y-20823D01*
Y-21485D01*
Y-23622D01*
Y-24398D01*
X334630Y-24475D01*
Y-24475D01*
X334494Y-25158D01*
X334343Y-25919D01*
X334313Y-25992D01*
D01*
X333750Y-27352D01*
Y-27352D01*
X333706Y-27418D01*
X332888Y-28641D01*
X332832Y-28697D01*
X332832Y-28697D01*
X331847Y-29682D01*
D01*
X331791Y-29738D01*
X330501Y-30600D01*
X330428Y-30630D01*
X329141Y-31163D01*
D01*
X329068Y-31194D01*
X328991Y-31209D01*
D01*
X327625Y-31481D01*
X327547Y-31496D01*
X253110D01*
X253032Y-31481D01*
X251666Y-31209D01*
X251178Y-31112D01*
X251104Y-31082D01*
X249431Y-30388D01*
D01*
X249358Y-30358D01*
X247720Y-29264D01*
X247664Y-29208D01*
X246327Y-27871D01*
X245233Y-26233D01*
X245076Y-25854D01*
X244509Y-24486D01*
X244479Y-24413D01*
X244094Y-22481D01*
Y-22402D01*
Y-21496D01*
Y-1142D01*
Y-236D01*
Y-157D01*
X244110Y-79D01*
X244231Y527D01*
X244479Y1775D01*
X245233Y3595D01*
X245540Y4055D01*
X246327Y5233D01*
X247720Y6626D01*
X249358Y7720D01*
X251178Y8474D01*
X253110Y8858D01*
X303929D01*
X305861Y8474D01*
D02*
G37*
%LPC*%
G36*
X264132Y4882D02*
X263427D01*
X262776Y4612D01*
X262278Y4114D01*
X262008Y3463D01*
Y2758D01*
X262278Y2107D01*
X262776Y1608D01*
X263427Y1339D01*
X264132D01*
X264783Y1608D01*
X265281Y2107D01*
X265551Y2758D01*
Y3463D01*
X265281Y4114D01*
X264783Y4612D01*
X264132Y4882D01*
D02*
G37*
G36*
X297597Y4823D02*
X296892D01*
X296240Y4553D01*
X295742Y4055D01*
X295472Y3404D01*
Y2699D01*
X295742Y2048D01*
X296240Y1549D01*
X296892Y1280D01*
X297597D01*
X298248Y1549D01*
X298746Y2048D01*
X299016Y2699D01*
Y3404D01*
X298746Y4055D01*
X298248Y4553D01*
X297597Y4823D01*
D02*
G37*
G36*
X287754D02*
X287049D01*
X286398Y4553D01*
X285900Y4055D01*
X285630Y3404D01*
Y2699D01*
X285900Y2048D01*
X286398Y1549D01*
X287049Y1280D01*
X287754D01*
X288405Y1549D01*
X288903Y2048D01*
X289173Y2699D01*
Y3404D01*
X288903Y4055D01*
X288405Y4553D01*
X287754Y4823D01*
D02*
G37*
G36*
X277951Y827D02*
X277168D01*
X276444Y527D01*
X275890Y-27D01*
X275590Y-750D01*
Y-1533D01*
X275890Y-2257D01*
X276444Y-2811D01*
X277168Y-3110D01*
X277951D01*
X278674Y-2811D01*
X279228Y-2257D01*
X279528Y-1533D01*
Y-750D01*
X279228Y-27D01*
X278674Y527D01*
X277951Y827D01*
D02*
G37*
G36*
X264132Y-2992D02*
X263427D01*
X262776Y-3262D01*
X262278Y-3760D01*
X262008Y-4411D01*
Y-5116D01*
X262278Y-5767D01*
X262776Y-6266D01*
X263427Y-6535D01*
X264132D01*
X264783Y-6266D01*
X265281Y-5767D01*
X265551Y-5116D01*
Y-4411D01*
X265281Y-3760D01*
X264783Y-3262D01*
X264132Y-2992D01*
D02*
G37*
G36*
X254289Y-8169D02*
X253585D01*
X252933Y-8439D01*
X252435Y-8937D01*
X252165Y-9589D01*
Y-10293D01*
X252435Y-10944D01*
X252933Y-11443D01*
X253585Y-11713D01*
X254289D01*
X254941Y-11443D01*
X255439Y-10944D01*
X255709Y-10293D01*
Y-9589D01*
X255439Y-8937D01*
X254941Y-8439D01*
X254289Y-8169D01*
D02*
G37*
G36*
X249368Y-11850D02*
X248663D01*
X248012Y-12120D01*
X247514Y-12618D01*
X247244Y-13270D01*
Y-13974D01*
X247514Y-14626D01*
X248012Y-15124D01*
X248663Y-15394D01*
X249368D01*
X250019Y-15124D01*
X250518Y-14626D01*
X250787Y-13974D01*
Y-13270D01*
X250518Y-12618D01*
X250019Y-12120D01*
X249368Y-11850D01*
D02*
G37*
G36*
X287808Y-11668D02*
X287025D01*
X286301Y-11968D01*
X285748Y-12522D01*
X285448Y-13245D01*
Y-14028D01*
X285748Y-14752D01*
X286301Y-15306D01*
X287025Y-15605D01*
X287808D01*
X288531Y-15306D01*
X289085Y-14752D01*
X289385Y-14028D01*
Y-13245D01*
X289085Y-12522D01*
X288531Y-11968D01*
X287808Y-11668D01*
D02*
G37*
G36*
X292675Y-19724D02*
X291970D01*
X291319Y-19994D01*
X290821Y-20493D01*
X290551Y-21144D01*
Y-21848D01*
X290821Y-22500D01*
X291319Y-22998D01*
X291970Y-23268D01*
X292675D01*
X293326Y-22998D01*
X293825Y-22500D01*
X294094Y-21848D01*
Y-21144D01*
X293825Y-20493D01*
X293326Y-19994D01*
X292675Y-19724D01*
D02*
G37*
G36*
X328740Y-22095D02*
Y-24409D01*
X331055D01*
X330907Y-23858D01*
X330517Y-23183D01*
X329966Y-22632D01*
X329292Y-22243D01*
X328740Y-22095D01*
D02*
G37*
G36*
X327559D02*
X327008Y-22243D01*
X326333Y-22632D01*
X325782Y-23183D01*
X325392Y-23858D01*
X325244Y-24409D01*
X327559D01*
Y-22095D01*
D02*
G37*
G36*
X331055Y-25591D02*
X328740D01*
Y-27905D01*
X329292Y-27757D01*
X329966Y-27368D01*
X330517Y-26817D01*
X330907Y-26142D01*
X331055Y-25591D01*
D02*
G37*
G36*
X327559D02*
X325244D01*
X325392Y-26142D01*
X325782Y-26817D01*
X326333Y-27368D01*
X327008Y-27757D01*
X327559Y-27905D01*
Y-25591D01*
D02*
G37*
G36*
X374977Y150006D02*
X374606D01*
Y138386D01*
X386227D01*
Y138756D01*
X385926Y140655D01*
X385332Y142483D01*
X384459Y144195D01*
X383330Y145750D01*
X381971Y147109D01*
X380416Y148239D01*
X378703Y149112D01*
X376875Y149706D01*
X374977Y150006D01*
D02*
G37*
G36*
X373425D02*
X373055D01*
X371156Y149706D01*
X369328Y149112D01*
X367616Y148239D01*
X366061Y147109D01*
X364702Y145750D01*
X363572Y144195D01*
X362699Y142483D01*
X362105Y140655D01*
X361805Y138756D01*
Y138386D01*
X373425D01*
Y150006D01*
D02*
G37*
G36*
X252163Y140551D02*
X251459D01*
X250807Y140281D01*
X250309Y139783D01*
X250039Y139132D01*
Y138427D01*
X250309Y137776D01*
X250807Y137278D01*
X251459Y137008D01*
X252163D01*
X252815Y137278D01*
X253313Y137776D01*
X253583Y138427D01*
Y139132D01*
X253313Y139783D01*
X252815Y140281D01*
X252163Y140551D01*
D02*
G37*
G36*
X189466Y131516D02*
X188683D01*
X187960Y131216D01*
X187406Y130662D01*
X187106Y129939D01*
Y129156D01*
X187406Y128432D01*
X187960Y127878D01*
X188683Y127579D01*
X189466D01*
X190190Y127878D01*
X190744Y128432D01*
X191043Y129156D01*
Y129939D01*
X190744Y130662D01*
X190190Y131216D01*
X189466Y131516D01*
D02*
G37*
G36*
X181494Y130591D02*
X180711D01*
X179987Y130291D01*
X179434Y129737D01*
X179134Y129014D01*
Y128231D01*
X179434Y127507D01*
X179987Y126953D01*
X180711Y126654D01*
X181494D01*
X182217Y126953D01*
X182771Y127507D01*
X183071Y128231D01*
Y129014D01*
X182771Y129737D01*
X182217Y130291D01*
X181494Y130591D01*
D02*
G37*
G36*
X386227Y137205D02*
X374606D01*
Y125584D01*
X374977D01*
X376875Y125885D01*
X378703Y126479D01*
X380416Y127351D01*
X381971Y128481D01*
X383330Y129840D01*
X384459Y131395D01*
X385332Y133108D01*
X385926Y134936D01*
X386227Y136834D01*
Y137205D01*
D02*
G37*
G36*
X373425D02*
X361805D01*
Y136834D01*
X362105Y134936D01*
X362699Y133108D01*
X363572Y131395D01*
X364702Y129840D01*
X366061Y128481D01*
X367616Y127351D01*
X369328Y126479D01*
X371156Y125885D01*
X373055Y125584D01*
X373425D01*
Y137205D01*
D02*
G37*
G36*
X166888Y125984D02*
X166104D01*
X165381Y125685D01*
X164827Y125131D01*
X164528Y124407D01*
Y123624D01*
X164827Y122901D01*
X165381Y122347D01*
X166104Y122047D01*
X166888D01*
X167611Y122347D01*
X168165Y122901D01*
X168465Y123624D01*
Y124407D01*
X168165Y125131D01*
X167611Y125685D01*
X166888Y125984D01*
D02*
G37*
G36*
X113423D02*
X112640D01*
X111916Y125685D01*
X111363Y125131D01*
X111063Y124407D01*
Y123624D01*
X111363Y122901D01*
X111916Y122347D01*
X112640Y122047D01*
X113423D01*
X114147Y122347D01*
X114700Y122901D01*
X115000Y123624D01*
Y124407D01*
X114700Y125131D01*
X114147Y125685D01*
X113423Y125984D01*
D02*
G37*
G36*
X265274Y122835D02*
X264569D01*
X263918Y122565D01*
X263419Y122067D01*
X263150Y121415D01*
Y120711D01*
X263419Y120059D01*
X263918Y119561D01*
X264569Y119291D01*
X265274D01*
X265925Y119561D01*
X266423Y120059D01*
X266693Y120711D01*
Y121415D01*
X266423Y122067D01*
X265925Y122565D01*
X265274Y122835D01*
D02*
G37*
G36*
X235431Y120866D02*
X234726D01*
X234075Y120596D01*
X233577Y120098D01*
X233307Y119447D01*
Y118742D01*
X233577Y118091D01*
X234075Y117593D01*
X234726Y117323D01*
X235431D01*
X236082Y117593D01*
X236581Y118091D01*
X236850Y118742D01*
Y119447D01*
X236581Y120098D01*
X236082Y120596D01*
X235431Y120866D01*
D02*
G37*
G36*
X386646Y115951D02*
X386614D01*
Y111811D01*
X390754D01*
Y111843D01*
X390432Y113047D01*
X389809Y114125D01*
X388928Y115006D01*
X387850Y115629D01*
X386646Y115951D01*
D02*
G37*
G36*
X385433D02*
X385401D01*
X384198Y115629D01*
X383119Y115006D01*
X382238Y114125D01*
X381615Y113047D01*
X381293Y111843D01*
Y111811D01*
X385433D01*
Y115951D01*
D02*
G37*
G36*
X366568D02*
X366535D01*
Y111811D01*
X370676D01*
Y111843D01*
X370353Y113047D01*
X369730Y114125D01*
X368850Y115006D01*
X367771Y115629D01*
X366568Y115951D01*
D02*
G37*
G36*
X365354D02*
X365322D01*
X364119Y115629D01*
X363040Y115006D01*
X362159Y114125D01*
X361537Y113047D01*
X361214Y111843D01*
Y111811D01*
X365354D01*
Y115951D01*
D02*
G37*
G36*
X126376Y113189D02*
X125593D01*
X124869Y112889D01*
X124315Y112336D01*
X124016Y111612D01*
Y110829D01*
X124315Y110105D01*
X124869Y109552D01*
X125593Y109252D01*
X126376D01*
X127099Y109552D01*
X127653Y110105D01*
X127953Y110829D01*
Y111612D01*
X127653Y112336D01*
X127099Y112889D01*
X126376Y113189D01*
D02*
G37*
G36*
X166888Y111221D02*
X166104D01*
X165381Y110921D01*
X164827Y110367D01*
X164528Y109643D01*
Y108860D01*
X164827Y108137D01*
X165381Y107583D01*
X166104Y107283D01*
X166888D01*
X167611Y107583D01*
X168165Y108137D01*
X168465Y108860D01*
Y109643D01*
X168165Y110367D01*
X167611Y110921D01*
X166888Y111221D01*
D02*
G37*
G36*
X390754Y110630D02*
X386614D01*
Y106490D01*
X386646D01*
X387850Y106812D01*
X388928Y107435D01*
X389809Y108316D01*
X390432Y109395D01*
X390754Y110598D01*
Y110630D01*
D02*
G37*
G36*
X385433D02*
X381293D01*
Y110598D01*
X381615Y109395D01*
X382238Y108316D01*
X383119Y107435D01*
X384198Y106812D01*
X385401Y106490D01*
X385433D01*
Y110630D01*
D02*
G37*
G36*
X370676D02*
X366535D01*
Y106490D01*
X366568D01*
X367771Y106812D01*
X368850Y107435D01*
X369730Y108316D01*
X370353Y109395D01*
X370676Y110598D01*
Y110630D01*
D02*
G37*
G36*
X365354D02*
X361214D01*
Y110598D01*
X361537Y109395D01*
X362159Y108316D01*
X363040Y107435D01*
X364119Y106812D01*
X365322Y106490D01*
X365354D01*
Y110630D01*
D02*
G37*
G36*
X314427Y107087D02*
X313722D01*
X313071Y106817D01*
X312573Y106318D01*
X312303Y105667D01*
Y104963D01*
X312573Y104311D01*
X313071Y103813D01*
X313722Y103543D01*
X314427D01*
X315078Y103813D01*
X315577Y104311D01*
X315846Y104963D01*
Y105667D01*
X315577Y106318D01*
X315078Y106817D01*
X314427Y107087D01*
D02*
G37*
G36*
X154466Y107382D02*
X153683D01*
X152960Y107082D01*
X152406Y106528D01*
X152106Y105805D01*
Y105022D01*
X152406Y104298D01*
X152960Y103745D01*
X153683Y103445D01*
X154466D01*
X155190Y103745D01*
X155744Y104298D01*
X156043Y105022D01*
Y105805D01*
X155744Y106528D01*
X155190Y107082D01*
X154466Y107382D01*
D02*
G37*
G36*
X248541Y103150D02*
X247837D01*
X247185Y102880D01*
X246687Y102382D01*
X246417Y101730D01*
Y101026D01*
X246687Y100374D01*
X247185Y99876D01*
X247837Y99606D01*
X248541D01*
X249193Y99876D01*
X249691Y100374D01*
X249961Y101026D01*
Y101730D01*
X249691Y102382D01*
X249193Y102880D01*
X248541Y103150D01*
D02*
G37*
G36*
X211967Y103150D02*
X211262D01*
X210611Y102880D01*
X210112Y102382D01*
X209842Y101730D01*
Y101025D01*
X210112Y100374D01*
X210611Y99876D01*
X211262Y99606D01*
X211967D01*
X212618Y99876D01*
X213116Y100374D01*
X213386Y101025D01*
Y101730D01*
X213116Y102382D01*
X212618Y102880D01*
X211967Y103150D01*
D02*
G37*
G36*
X376606Y105905D02*
X375362D01*
X374161Y105584D01*
X373083Y104962D01*
X372204Y104082D01*
X371582Y103005D01*
X371260Y101803D01*
Y100559D01*
X371582Y99357D01*
X372204Y98280D01*
X373083Y97401D01*
X374161Y96779D01*
X375362Y96457D01*
X376606D01*
X377808Y96779D01*
X378885Y97401D01*
X379765Y98280D01*
X380387Y99357D01*
X380709Y100559D01*
Y101803D01*
X380387Y103005D01*
X379765Y104082D01*
X378885Y104962D01*
X377808Y105584D01*
X376606Y105905D01*
D02*
G37*
G36*
X386646Y95872D02*
X386614D01*
Y91732D01*
X390754D01*
Y91764D01*
X390432Y92968D01*
X389809Y94046D01*
X388928Y94927D01*
X387850Y95550D01*
X386646Y95872D01*
D02*
G37*
G36*
X385433D02*
X385401D01*
X384198Y95550D01*
X383119Y94927D01*
X382238Y94046D01*
X381615Y92968D01*
X381293Y91764D01*
Y91732D01*
X385433D01*
Y95872D01*
D02*
G37*
G36*
X366568D02*
X366535D01*
Y91732D01*
X370676D01*
Y91764D01*
X370353Y92968D01*
X369730Y94046D01*
X368850Y94927D01*
X367771Y95550D01*
X366568Y95872D01*
D02*
G37*
G36*
X365354D02*
X365322D01*
X364119Y95550D01*
X363040Y94927D01*
X362159Y94046D01*
X361537Y92968D01*
X361214Y91764D01*
Y91732D01*
X365354D01*
Y95872D01*
D02*
G37*
G36*
X390754Y90551D02*
X386614D01*
Y86411D01*
X386646D01*
X387850Y86733D01*
X388928Y87356D01*
X389809Y88237D01*
X390432Y89316D01*
X390754Y90519D01*
Y90551D01*
D02*
G37*
G36*
X385433D02*
X381293D01*
Y90519D01*
X381615Y89316D01*
X382238Y88237D01*
X383119Y87356D01*
X384198Y86733D01*
X385401Y86411D01*
X385433D01*
Y90551D01*
D02*
G37*
G36*
X370676D02*
X366535D01*
Y86411D01*
X366568D01*
X367771Y86733D01*
X368850Y87356D01*
X369730Y88237D01*
X370353Y89316D01*
X370676Y90519D01*
Y90551D01*
D02*
G37*
G36*
X365354D02*
X361214D01*
Y90519D01*
X361537Y89316D01*
X362159Y88237D01*
X363040Y87356D01*
X364119Y86733D01*
X365322Y86411D01*
X365354D01*
Y90551D01*
D02*
G37*
G36*
X233620Y89272D02*
X232915D01*
X232264Y89002D01*
X231766Y88504D01*
X231496Y87852D01*
Y87148D01*
X231766Y86496D01*
X232264Y85998D01*
X232915Y85728D01*
X233620D01*
X234271Y85998D01*
X234770Y86496D01*
X235039Y87148D01*
Y87852D01*
X234770Y88504D01*
X234271Y89002D01*
X233620Y89272D01*
D02*
G37*
G36*
X153935Y82677D02*
X153152D01*
X152428Y82377D01*
X151874Y81824D01*
X151575Y81100D01*
Y80317D01*
X151874Y79593D01*
X152428Y79040D01*
X153152Y78740D01*
X153935D01*
X154658Y79040D01*
X155212Y79593D01*
X155512Y80317D01*
Y81100D01*
X155212Y81824D01*
X154658Y82377D01*
X153935Y82677D01*
D02*
G37*
G36*
X142124D02*
X141341D01*
X140617Y82377D01*
X140063Y81824D01*
X139764Y81100D01*
Y80317D01*
X140063Y79593D01*
X140617Y79040D01*
X141341Y78740D01*
X142124D01*
X142847Y79040D01*
X143401Y79593D01*
X143701Y80317D01*
Y81100D01*
X143401Y81824D01*
X142847Y82377D01*
X142124Y82677D01*
D02*
G37*
G36*
X264171Y80709D02*
X263388D01*
X262665Y80409D01*
X262111Y79855D01*
X261811Y79132D01*
Y78349D01*
X262111Y77625D01*
X262665Y77071D01*
X263388Y76772D01*
X264171D01*
X264895Y77071D01*
X265448Y77625D01*
X265748Y78349D01*
Y79132D01*
X265448Y79855D01*
X264895Y80409D01*
X264171Y80709D01*
D02*
G37*
G36*
X183423Y79528D02*
X182719D01*
X182067Y79258D01*
X181569Y78759D01*
X181299Y78108D01*
Y77403D01*
X181569Y76752D01*
X182067Y76254D01*
X182719Y75984D01*
X183423D01*
X184074Y76254D01*
X184573Y76752D01*
X184843Y77403D01*
Y78108D01*
X184573Y78759D01*
X184074Y79258D01*
X183423Y79528D01*
D02*
G37*
G36*
X311415Y74803D02*
X310632D01*
X309909Y74503D01*
X309355Y73950D01*
X309055Y73226D01*
Y72443D01*
X309355Y71720D01*
X309909Y71166D01*
X310632Y70866D01*
X311415D01*
X312139Y71166D01*
X312692Y71720D01*
X312992Y72443D01*
Y73226D01*
X312692Y73950D01*
X312139Y74503D01*
X311415Y74803D01*
D02*
G37*
G36*
X207045Y66732D02*
X206341D01*
X205689Y66463D01*
X205191Y65964D01*
X204921Y65313D01*
Y64608D01*
X205191Y63957D01*
X205689Y63459D01*
X206341Y63189D01*
X207045D01*
X207697Y63459D01*
X208195Y63957D01*
X208465Y64608D01*
Y65313D01*
X208195Y65964D01*
X207697Y66463D01*
X207045Y66732D01*
D02*
G37*
G36*
X378740Y27905D02*
Y25591D01*
X381055D01*
X380907Y26142D01*
X380517Y26817D01*
X379966Y27368D01*
X379292Y27757D01*
X378740Y27905D01*
D02*
G37*
G36*
X377559D02*
X377008Y27757D01*
X376333Y27368D01*
X375782Y26817D01*
X375392Y26142D01*
X375244Y25591D01*
X377559D01*
Y27905D01*
D02*
G37*
G36*
X381055Y24409D02*
X378740D01*
Y22095D01*
X379292Y22243D01*
X379966Y22632D01*
X380517Y23183D01*
X380907Y23858D01*
X381055Y24409D01*
D02*
G37*
G36*
X377559D02*
X375244D01*
X375392Y23858D01*
X375782Y23183D01*
X376333Y22632D01*
X377008Y22243D01*
X377559Y22095D01*
Y24409D01*
D02*
G37*
G36*
X378740Y-22095D02*
Y-24409D01*
X381055D01*
X380907Y-23858D01*
X380517Y-23183D01*
X379966Y-22632D01*
X379292Y-22243D01*
X378740Y-22095D01*
D02*
G37*
G36*
X377559D02*
X377008Y-22243D01*
X376333Y-22632D01*
X375782Y-23183D01*
X375392Y-23858D01*
X375244Y-24409D01*
X377559D01*
Y-22095D01*
D02*
G37*
G36*
X381055Y-25591D02*
X378740D01*
Y-27905D01*
X379292Y-27757D01*
X379966Y-27368D01*
X380517Y-26817D01*
X380907Y-26142D01*
X381055Y-25591D01*
D02*
G37*
G36*
X377559D02*
X375244D01*
X375392Y-26142D01*
X375782Y-26817D01*
X376333Y-27368D01*
X377008Y-27757D01*
X377559Y-27905D01*
Y-25591D01*
D02*
G37*
G36*
X178502Y-43504D02*
X177797D01*
X177146Y-43774D01*
X176648Y-44272D01*
X176378Y-44923D01*
Y-45628D01*
X176648Y-46279D01*
X177146Y-46777D01*
X177797Y-47047D01*
X178502D01*
X179153Y-46777D01*
X179651Y-46279D01*
X179921Y-45628D01*
Y-44923D01*
X179651Y-44272D01*
X179153Y-43774D01*
X178502Y-43504D01*
D02*
G37*
G36*
X179644Y-49409D02*
X178939D01*
X178288Y-49679D01*
X177789Y-50178D01*
X177520Y-50829D01*
Y-51534D01*
X177789Y-52185D01*
X178288Y-52683D01*
X178939Y-52953D01*
X179644D01*
X180295Y-52683D01*
X180793Y-52185D01*
X181063Y-51534D01*
Y-50829D01*
X180793Y-50178D01*
X180295Y-49679D01*
X179644Y-49409D01*
D02*
G37*
G36*
X264132Y-62047D02*
X263427D01*
X262776Y-62317D01*
X262278Y-62815D01*
X262008Y-63467D01*
Y-64171D01*
X262278Y-64822D01*
X262776Y-65321D01*
X263427Y-65591D01*
X264132D01*
X264783Y-65321D01*
X265282Y-64822D01*
X265551Y-64171D01*
Y-63467D01*
X265282Y-62815D01*
X264783Y-62317D01*
X264132Y-62047D01*
D02*
G37*
G36*
X297597Y-62106D02*
X296892D01*
X296240Y-62376D01*
X295742Y-62874D01*
X295472Y-63525D01*
Y-64230D01*
X295742Y-64881D01*
X296240Y-65380D01*
X296892Y-65650D01*
X297597D01*
X298248Y-65380D01*
X298746Y-64881D01*
X299016Y-64230D01*
Y-63525D01*
X298746Y-62874D01*
X298248Y-62376D01*
X297597Y-62106D01*
D02*
G37*
G36*
X287754D02*
X287049D01*
X286398Y-62376D01*
X285900Y-62874D01*
X285630Y-63525D01*
Y-64230D01*
X285900Y-64881D01*
X286398Y-65380D01*
X287049Y-65650D01*
X287754D01*
X288405Y-65380D01*
X288903Y-64881D01*
X289173Y-64230D01*
Y-63525D01*
X288903Y-62874D01*
X288405Y-62376D01*
X287754Y-62106D01*
D02*
G37*
G36*
X233620Y-63386D02*
X232915D01*
X232264Y-63656D01*
X231766Y-64154D01*
X231496Y-64805D01*
Y-65510D01*
X231766Y-66161D01*
X232264Y-66659D01*
X232915Y-66929D01*
X233620D01*
X234271Y-66659D01*
X234770Y-66161D01*
X235039Y-65510D01*
Y-64805D01*
X234770Y-64154D01*
X234271Y-63656D01*
X233620Y-63386D01*
D02*
G37*
G36*
X277951Y-66102D02*
X277168D01*
X276444Y-66402D01*
X275890Y-66956D01*
X275591Y-67679D01*
Y-68462D01*
X275890Y-69186D01*
X276444Y-69740D01*
X277168Y-70039D01*
X277951D01*
X278674Y-69740D01*
X279228Y-69186D01*
X279528Y-68462D01*
Y-67679D01*
X279228Y-66956D01*
X278674Y-66402D01*
X277951Y-66102D01*
D02*
G37*
G36*
X264132Y-69921D02*
X263427D01*
X262776Y-70191D01*
X262278Y-70689D01*
X262008Y-71341D01*
Y-72045D01*
X262278Y-72697D01*
X262776Y-73195D01*
X263427Y-73465D01*
X264132D01*
X264783Y-73195D01*
X265282Y-72697D01*
X265551Y-72045D01*
Y-71341D01*
X265282Y-70689D01*
X264783Y-70191D01*
X264132Y-69921D01*
D02*
G37*
G36*
X363189Y-64524D02*
X359252D01*
X358533Y-64618D01*
X357862Y-64896D01*
X357286Y-65338D01*
X356845Y-65913D01*
X356567Y-66584D01*
X356472Y-67303D01*
Y-71240D01*
X356567Y-71960D01*
X356845Y-72630D01*
X357286Y-73206D01*
X357862Y-73647D01*
X358533Y-73925D01*
X359252Y-74020D01*
X363189D01*
X363908Y-73925D01*
X364579Y-73647D01*
X365155Y-73206D01*
X365596Y-72630D01*
X365874Y-71960D01*
X365969Y-71240D01*
Y-67303D01*
X365874Y-66584D01*
X365596Y-65913D01*
X365155Y-65338D01*
X364579Y-64896D01*
X363908Y-64618D01*
X363189Y-64524D01*
D02*
G37*
G36*
X254289Y-75098D02*
X253585D01*
X252933Y-75368D01*
X252435Y-75867D01*
X252165Y-76518D01*
Y-77223D01*
X252435Y-77874D01*
X252933Y-78372D01*
X253585Y-78642D01*
X254289D01*
X254941Y-78372D01*
X255439Y-77874D01*
X255709Y-77223D01*
Y-76518D01*
X255439Y-75867D01*
X254941Y-75368D01*
X254289Y-75098D01*
D02*
G37*
G36*
X299604Y-74803D02*
X298821D01*
X298097Y-75103D01*
X297544Y-75657D01*
X297244Y-76380D01*
Y-77163D01*
X297544Y-77887D01*
X298097Y-78440D01*
X298821Y-78740D01*
X299604D01*
X300328Y-78440D01*
X300881Y-77887D01*
X301181Y-77163D01*
Y-76380D01*
X300881Y-75657D01*
X300328Y-75103D01*
X299604Y-74803D01*
D02*
G37*
G36*
X249368Y-78780D02*
X248663D01*
X248012Y-79049D01*
X247514Y-79548D01*
X247244Y-80199D01*
Y-80904D01*
X247514Y-81555D01*
X248012Y-82053D01*
X248663Y-82323D01*
X249368D01*
X250019Y-82053D01*
X250518Y-81555D01*
X250787Y-80904D01*
Y-80199D01*
X250518Y-79548D01*
X250019Y-79049D01*
X249368Y-78780D01*
D02*
G37*
G36*
X287808Y-78597D02*
X287025D01*
X286301Y-78897D01*
X285748Y-79451D01*
X285448Y-80174D01*
Y-80958D01*
X285748Y-81681D01*
X286301Y-82235D01*
X287025Y-82534D01*
X287808D01*
X288531Y-82235D01*
X289085Y-81681D01*
X289385Y-80958D01*
Y-80174D01*
X289085Y-79451D01*
X288531Y-78897D01*
X287808Y-78597D01*
D02*
G37*
G36*
X361811Y-79940D02*
Y-83681D01*
X365552D01*
X365262Y-82598D01*
X364691Y-81609D01*
X363883Y-80801D01*
X362895Y-80230D01*
X361811Y-79940D01*
D02*
G37*
G36*
X360630Y-79940D02*
X359546Y-80230D01*
X358558Y-80801D01*
X357750Y-81609D01*
X357179Y-82598D01*
X356889Y-83681D01*
X360630D01*
Y-79940D01*
D02*
G37*
G36*
Y-84862D02*
X356889D01*
X357179Y-85946D01*
X357750Y-86935D01*
X358558Y-87742D01*
X359546Y-88313D01*
X360630Y-88603D01*
Y-84862D01*
D02*
G37*
G36*
X365552D02*
X361811D01*
Y-88603D01*
X362895Y-88313D01*
X363883Y-87742D01*
X364691Y-86935D01*
X365262Y-85946D01*
X365552Y-84862D01*
D02*
G37*
G36*
X292675Y-86654D02*
X291970D01*
X291319Y-86923D01*
X290821Y-87422D01*
X290551Y-88073D01*
Y-88778D01*
X290821Y-89429D01*
X291319Y-89927D01*
X291970Y-90197D01*
X292675D01*
X293326Y-89927D01*
X293825Y-89429D01*
X294094Y-88778D01*
Y-88073D01*
X293825Y-87422D01*
X293326Y-86923D01*
X292675Y-86654D01*
D02*
G37*
G36*
X216888Y-86713D02*
X216183D01*
X215532Y-86982D01*
X215034Y-87481D01*
X214764Y-88132D01*
Y-88837D01*
X215034Y-89488D01*
X215532Y-89986D01*
X216183Y-90256D01*
X216888D01*
X217539Y-89986D01*
X218037Y-89488D01*
X218307Y-88837D01*
Y-88132D01*
X218037Y-87481D01*
X217539Y-86982D01*
X216888Y-86713D01*
D02*
G37*
G36*
X178502Y-93701D02*
X177797D01*
X177146Y-93971D01*
X176648Y-94469D01*
X176378Y-95120D01*
Y-95825D01*
X176648Y-96476D01*
X177146Y-96974D01*
X177797Y-97244D01*
X178502D01*
X179153Y-96974D01*
X179651Y-96476D01*
X179921Y-95825D01*
Y-95120D01*
X179651Y-94469D01*
X179153Y-93971D01*
X178502Y-93701D01*
D02*
G37*
G36*
X179644Y-99606D02*
X178939D01*
X178288Y-99876D01*
X177789Y-100374D01*
X177520Y-101026D01*
Y-101730D01*
X177789Y-102382D01*
X178288Y-102880D01*
X178939Y-103150D01*
X179644D01*
X180295Y-102880D01*
X180793Y-102382D01*
X181063Y-101730D01*
Y-101026D01*
X180793Y-100374D01*
X180295Y-99876D01*
X179644Y-99606D01*
D02*
G37*
G36*
X299604Y-99410D02*
X298821D01*
X298097Y-99709D01*
X297544Y-100263D01*
X297244Y-100986D01*
Y-101769D01*
X297544Y-102493D01*
X298097Y-103047D01*
X298821Y-103347D01*
X299604D01*
X300328Y-103047D01*
X300881Y-102493D01*
X301181Y-101769D01*
Y-100986D01*
X300881Y-100263D01*
X300328Y-99709D01*
X299604Y-99410D01*
D02*
G37*
G36*
X348817Y-100394D02*
X348034D01*
X347310Y-100693D01*
X346756Y-101247D01*
X346457Y-101971D01*
Y-102754D01*
X346756Y-103477D01*
X347310Y-104031D01*
X348034Y-104331D01*
X348817D01*
X349540Y-104031D01*
X350094Y-103477D01*
X350394Y-102754D01*
Y-101971D01*
X350094Y-101247D01*
X349540Y-100693D01*
X348817Y-100394D01*
D02*
G37*
G36*
X287754Y-107579D02*
X287049D01*
X286398Y-107848D01*
X285900Y-108347D01*
X285630Y-108998D01*
Y-109703D01*
X285900Y-110354D01*
X286398Y-110852D01*
X287049Y-111122D01*
X287754D01*
X288405Y-110852D01*
X288903Y-110354D01*
X289173Y-109703D01*
Y-108998D01*
X288903Y-108347D01*
X288405Y-107848D01*
X287754Y-107579D01*
D02*
G37*
G36*
X268108Y-109252D02*
X267325D01*
X266601Y-109552D01*
X266048Y-110105D01*
X265748Y-110829D01*
Y-111612D01*
X266048Y-112336D01*
X266601Y-112889D01*
X267325Y-113189D01*
X268108D01*
X268832Y-112889D01*
X269385Y-112336D01*
X269685Y-111612D01*
Y-110829D01*
X269385Y-110105D01*
X268832Y-109552D01*
X268108Y-109252D01*
D02*
G37*
G36*
X277911Y-111319D02*
X277207D01*
X276555Y-111589D01*
X276057Y-112087D01*
X275787Y-112738D01*
Y-113443D01*
X276057Y-114094D01*
X276555Y-114593D01*
X277207Y-114862D01*
X277911D01*
X278563Y-114593D01*
X279061Y-114094D01*
X279331Y-113443D01*
Y-112738D01*
X279061Y-112087D01*
X278563Y-111589D01*
X277911Y-111319D01*
D02*
G37*
G36*
X342872Y-114272D02*
X342167D01*
X341516Y-114541D01*
X341018Y-115040D01*
X340748Y-115691D01*
Y-116396D01*
X341018Y-117047D01*
X341516Y-117545D01*
X342167Y-117815D01*
X342872D01*
X343523Y-117545D01*
X344022Y-117047D01*
X344291Y-116396D01*
Y-115691D01*
X344022Y-115040D01*
X343523Y-114541D01*
X342872Y-114272D01*
D02*
G37*
G36*
X229722Y-115157D02*
X228939D01*
X228216Y-115457D01*
X227662Y-116011D01*
X227362Y-116734D01*
Y-117517D01*
X227662Y-118241D01*
X228216Y-118795D01*
X228939Y-119095D01*
X229722D01*
X230446Y-118795D01*
X230999Y-118241D01*
X231299Y-117517D01*
Y-116734D01*
X230999Y-116011D01*
X230446Y-115457D01*
X229722Y-115157D01*
D02*
G37*
G36*
X221848D02*
X221065D01*
X220342Y-115457D01*
X219788Y-116011D01*
X219488Y-116734D01*
Y-117517D01*
X219788Y-118241D01*
X220342Y-118795D01*
X221065Y-119095D01*
X221848D01*
X222572Y-118795D01*
X223126Y-118241D01*
X223425Y-117517D01*
Y-116734D01*
X223126Y-116011D01*
X222572Y-115457D01*
X221848Y-115157D01*
D02*
G37*
G36*
X191336Y-127953D02*
X190553D01*
X189830Y-128252D01*
X189276Y-128806D01*
X188976Y-129530D01*
Y-130313D01*
X189276Y-131036D01*
X189830Y-131590D01*
X190553Y-131890D01*
X191336D01*
X192060Y-131590D01*
X192614Y-131036D01*
X192913Y-130313D01*
Y-129530D01*
X192614Y-128806D01*
X192060Y-128252D01*
X191336Y-127953D01*
D02*
G37*
G36*
X177518Y-132913D02*
X176813D01*
X176162Y-133183D01*
X175663Y-133681D01*
X175394Y-134333D01*
Y-135037D01*
X175663Y-135689D01*
X176162Y-136187D01*
X176813Y-136457D01*
X177518D01*
X178169Y-136187D01*
X178667Y-135689D01*
X178937Y-135037D01*
Y-134333D01*
X178667Y-133681D01*
X178169Y-133183D01*
X177518Y-132913D01*
D02*
G37*
G36*
X140116D02*
X139411D01*
X138760Y-133183D01*
X138262Y-133681D01*
X137992Y-134333D01*
Y-135037D01*
X138262Y-135689D01*
X138760Y-136187D01*
X139411Y-136457D01*
X140116D01*
X140767Y-136187D01*
X141266Y-135689D01*
X141535Y-135037D01*
Y-134333D01*
X141266Y-133681D01*
X140767Y-133183D01*
X140116Y-132913D01*
D02*
G37*
G36*
X374977Y-125584D02*
X374606D01*
Y-137205D01*
X386227D01*
Y-136834D01*
X385926Y-134936D01*
X385332Y-133108D01*
X384460Y-131395D01*
X383330Y-129840D01*
X381971Y-128481D01*
X380416Y-127351D01*
X378703Y-126479D01*
X376875Y-125885D01*
X374977Y-125584D01*
D02*
G37*
G36*
X373425D02*
X373055D01*
X371156Y-125885D01*
X369328Y-126479D01*
X367616Y-127351D01*
X366061Y-128481D01*
X364702Y-129840D01*
X363572Y-131395D01*
X362699Y-133108D01*
X362105Y-134936D01*
X361805Y-136834D01*
Y-137205D01*
X373425D01*
Y-125584D01*
D02*
G37*
G36*
X386227Y-138386D02*
X374606D01*
Y-150006D01*
X374977D01*
X376875Y-149706D01*
X378703Y-149112D01*
X380416Y-148239D01*
X381971Y-147109D01*
X383330Y-145750D01*
X384460Y-144195D01*
X385332Y-142483D01*
X385926Y-140655D01*
X386227Y-138756D01*
Y-138386D01*
D02*
G37*
G36*
X373425D02*
X361805D01*
Y-138756D01*
X362105Y-140655D01*
X362699Y-142483D01*
X363572Y-144195D01*
X364702Y-145750D01*
X366061Y-147109D01*
X367616Y-148239D01*
X369328Y-149112D01*
X371156Y-149706D01*
X373055Y-150006D01*
X373425D01*
Y-138386D01*
D02*
G37*
%LPD*%
D14*
X72441Y-59449D02*
D03*
X67716Y-54724D02*
D03*
X149606Y111221D02*
D03*
X158465D02*
D03*
X152559D02*
D03*
X150591Y100394D02*
D03*
X155512Y111221D02*
D03*
X270669Y-30512D02*
D03*
X259842Y-19685D02*
D03*
X259842Y-86614D02*
D03*
X270669Y-97441D02*
D03*
X104331Y14862D02*
D03*
Y77658D02*
D03*
X31870Y-52500D02*
D03*
X248031Y54961D02*
D03*
X238189Y55020D02*
D03*
X169685Y-105512D02*
D03*
X154528Y-115984D02*
D03*
X221457Y-102205D02*
D03*
X137953Y-95473D02*
D03*
X173228Y-48228D02*
D03*
X139764Y-131063D02*
D03*
X263779Y-1142D02*
D03*
X263779Y-68071D02*
D03*
X112205Y77559D02*
D03*
X51889Y-87343D02*
D03*
X31870Y-22500D02*
D03*
X182913Y-51181D02*
D03*
Y-39370D02*
D03*
X184055Y-45276D02*
D03*
X279528Y62106D02*
D03*
X260827Y118799D02*
D03*
X251811Y105315D02*
D03*
X210531Y129547D02*
D03*
X181102Y125000D02*
D03*
Y118937D02*
D03*
X189075Y124547D02*
D03*
Y119547D02*
D03*
X210531D02*
D03*
X207677Y-117126D02*
D03*
X230315Y-124016D02*
D03*
Y-141732D02*
D03*
X221358Y-140374D02*
D03*
X190945Y-141732D02*
D03*
Y-124016D02*
D03*
X143701Y-129035D02*
D03*
X177165Y-131063D02*
D03*
X313090Y-106752D02*
D03*
X305118Y-106142D02*
D03*
Y-112362D02*
D03*
X299213Y-107283D02*
D03*
X51870Y77500D02*
D03*
X46870Y57500D02*
D03*
X51870Y47500D02*
D03*
X46870Y42500D02*
D03*
X51870Y32500D02*
D03*
X46870Y27500D02*
D03*
X51870Y62500D02*
D03*
Y92500D02*
D03*
X26870Y2500D02*
D03*
X51870D02*
D03*
X26870Y-2500D02*
D03*
X31870Y7500D02*
D03*
X46870Y-2500D02*
D03*
X26870Y97500D02*
D03*
X31870Y92500D02*
D03*
X26870Y87500D02*
D03*
X31870Y82500D02*
D03*
X26870Y77500D02*
D03*
X46870Y87500D02*
D03*
Y72500D02*
D03*
Y97500D02*
D03*
X26870Y17500D02*
D03*
X51870D02*
D03*
X46870Y12500D02*
D03*
X31870Y22500D02*
D03*
X26870Y62500D02*
D03*
Y57500D02*
D03*
X31870Y37500D02*
D03*
X26870D02*
D03*
Y42500D02*
D03*
Y22500D02*
D03*
Y-57500D02*
D03*
Y-97500D02*
D03*
Y-22500D02*
D03*
Y-62500D02*
D03*
X46870D02*
D03*
X26870Y-37500D02*
D03*
X31870D02*
D03*
X26870Y-42500D02*
D03*
X31870Y-7500D02*
D03*
X108268Y77559D02*
D03*
X121161Y92520D02*
D03*
X183071Y71850D02*
D03*
X188976Y72992D02*
D03*
X223425Y-21811D02*
D03*
X229331D02*
D03*
X213583Y-10669D02*
D03*
X203740D02*
D03*
X249016Y-10000D02*
D03*
X268701Y-60197D02*
D03*
X263779D02*
D03*
X292323Y-84803D02*
D03*
X249016Y-76929D02*
D03*
X206850Y96457D02*
D03*
X205709Y101378D02*
D03*
X229331Y87500D02*
D03*
X252953Y63878D02*
D03*
X257874Y55118D02*
D03*
X243110Y63878D02*
D03*
X238189Y63878D02*
D03*
X224410D02*
D03*
X203740Y57913D02*
D03*
X208661D02*
D03*
X213583D02*
D03*
X208661Y-10669D02*
D03*
X268701Y6732D02*
D03*
X263779D02*
D03*
X292323Y-17874D02*
D03*
X170276Y-23779D02*
D03*
X158465Y-65787D02*
D03*
X154528D02*
D03*
X137953Y-45276D02*
D03*
X169685Y-55315D02*
D03*
X173228Y-98425D02*
D03*
X158465Y-115984D02*
D03*
X182913Y-89567D02*
D03*
X184055Y-95473D02*
D03*
X182913Y-101378D02*
D03*
X170276Y-73976D02*
D03*
X114173Y8701D02*
D03*
X110236D02*
D03*
X268543Y124843D02*
D03*
X248721Y130905D02*
D03*
X251279Y109252D02*
D03*
X239173Y121358D02*
D03*
X227205Y119095D02*
D03*
X231457D02*
D03*
Y115157D02*
D03*
X251811Y101378D02*
D03*
X248189Y138779D02*
D03*
Y134843D02*
D03*
X272795Y121063D02*
D03*
X268543D02*
D03*
D15*
X55446Y-147836D02*
X52822D01*
Y-149804D01*
X54134Y-149148D01*
X54790D01*
X55446Y-149804D01*
Y-151116D01*
X54790Y-151772D01*
X53478D01*
X52822Y-151116D01*
D73*
X328150Y-25000D02*
D03*
X378150D02*
D03*
Y25000D02*
D03*
D75*
X365945Y91142D02*
D03*
X386024D02*
D03*
Y111221D02*
D03*
X365945D02*
D03*
X86417Y-129724D02*
D03*
X106496D02*
D03*
Y-149803D02*
D03*
X86417D02*
D03*
D76*
X361221Y-84272D02*
D03*
D78*
X171260Y21654D02*
D03*
X161417Y25591D02*
D03*
X383858Y68897D02*
D03*
Y45276D02*
D03*
Y21654D02*
D03*
Y-72835D02*
D03*
X377953Y80709D02*
D03*
X372047Y68897D02*
D03*
X377953Y57086D02*
D03*
X372047Y45276D02*
D03*
X377953Y33465D02*
D03*
X372047Y-25591D02*
D03*
X377953Y-37402D02*
D03*
X372047Y-49213D02*
D03*
X377953Y-61024D02*
D03*
X372047Y-96457D02*
D03*
Y-120079D02*
D03*
X366142Y80709D02*
D03*
X360236Y68897D02*
D03*
X366142Y57086D02*
D03*
X360236Y45276D02*
D03*
X366142Y33465D02*
D03*
Y-37402D02*
D03*
X360236Y-49213D02*
D03*
Y-96457D02*
D03*
Y-120079D02*
D03*
X354331Y127953D02*
D03*
Y80709D02*
D03*
X348425Y68897D02*
D03*
X354331Y57086D02*
D03*
X348425Y-49213D02*
D03*
X354331Y-61024D02*
D03*
Y-131890D02*
D03*
X348425Y-143701D02*
D03*
X342519Y80709D02*
D03*
X336614Y68897D02*
D03*
X342519Y57086D02*
D03*
Y-131890D02*
D03*
X336614Y-143701D02*
D03*
X330709Y-131890D02*
D03*
X324803Y-143701D02*
D03*
X318898Y80709D02*
D03*
Y57086D02*
D03*
X312992Y-96457D02*
D03*
X318898Y-131890D02*
D03*
X312992Y-143701D02*
D03*
X301181Y-25591D02*
D03*
X307086Y-131890D02*
D03*
X301181Y-143701D02*
D03*
X295275Y104331D02*
D03*
Y80709D02*
D03*
X289370Y-120079D02*
D03*
X295275Y-131890D02*
D03*
X289370Y-143701D02*
D03*
X283464Y104331D02*
D03*
Y57086D02*
D03*
X277559Y-120079D02*
D03*
X283464Y-131890D02*
D03*
X277559Y-143701D02*
D03*
X265748Y139764D02*
D03*
X271653Y104331D02*
D03*
Y57086D02*
D03*
X265748Y-120079D02*
D03*
X271653Y-131890D02*
D03*
X265748Y-143701D02*
D03*
X253937Y68897D02*
D03*
Y-1969D02*
D03*
Y-25591D02*
D03*
X259842Y-108268D02*
D03*
X253937Y-120079D02*
D03*
X259842Y-131890D02*
D03*
X253937Y-143701D02*
D03*
X242126Y139764D02*
D03*
X248031Y80709D02*
D03*
X242126Y68897D02*
D03*
X248031Y-61024D02*
D03*
Y-131890D02*
D03*
X242126Y-143701D02*
D03*
X230315Y139764D02*
D03*
X218504D02*
D03*
Y-72835D02*
D03*
X206693Y139764D02*
D03*
X212598Y80709D02*
D03*
X206693Y-72835D02*
D03*
Y-143701D02*
D03*
X194882Y139764D02*
D03*
X200787Y127953D02*
D03*
X194882Y-49213D02*
D03*
Y-72835D02*
D03*
Y-96457D02*
D03*
X183071Y139764D02*
D03*
Y-72835D02*
D03*
Y-120079D02*
D03*
Y-143701D02*
D03*
X171260Y139764D02*
D03*
X177165Y80709D02*
D03*
X171260Y-120079D02*
D03*
Y-143701D02*
D03*
X159449D02*
D03*
X135827D02*
D03*
X124016Y139764D02*
D03*
X129921Y-131890D02*
D03*
X112205Y139764D02*
D03*
X224409Y-13780D02*
D03*
X218504Y-25591D02*
D03*
X206693D02*
D03*
X194882D02*
D03*
X183071D02*
D03*
X147638Y-1969D02*
D03*
X135827Y21654D02*
D03*
Y-1969D02*
D03*
X124016Y68897D02*
D03*
Y-143701D02*
D03*
X118110Y-131890D02*
D03*
X112205Y-143701D02*
D03*
X100394Y139764D02*
D03*
Y92520D02*
D03*
Y68897D02*
D03*
X88583Y139764D02*
D03*
X94488Y104331D02*
D03*
X88583Y92520D02*
D03*
X94488Y80709D02*
D03*
X88583Y68897D02*
D03*
X94488Y-131890D02*
D03*
X76772Y139764D02*
D03*
Y116142D02*
D03*
X82677Y104331D02*
D03*
X76772Y92520D02*
D03*
X82677Y80709D02*
D03*
X76772Y-143701D02*
D03*
X64961Y139764D02*
D03*
X70866Y127953D02*
D03*
X64961Y116142D02*
D03*
X70866Y104331D02*
D03*
X64961Y92520D02*
D03*
X70866Y80709D02*
D03*
X64961Y45276D02*
D03*
X70866Y-131890D02*
D03*
X64961Y-143701D02*
D03*
X53150Y139764D02*
D03*
X59055Y127953D02*
D03*
Y104331D02*
D03*
Y57086D02*
D03*
Y-131890D02*
D03*
X41339Y139764D02*
D03*
Y92520D02*
D03*
Y68897D02*
D03*
X35433Y127953D02*
D03*
X29528Y116142D02*
D03*
X35433Y104331D02*
D03*
Y-84646D02*
D03*
X29528Y-120079D02*
D03*
X35433Y-131890D02*
D03*
X17717Y116142D02*
D03*
X23622Y104331D02*
D03*
X17717Y92520D02*
D03*
Y68897D02*
D03*
Y45276D02*
D03*
Y21654D02*
D03*
Y-1969D02*
D03*
Y-25591D02*
D03*
Y-49213D02*
D03*
Y-120079D02*
D03*
X5906Y116142D02*
D03*
X11811Y104331D02*
D03*
X5906Y92520D02*
D03*
X11811Y80709D02*
D03*
X5906Y68897D02*
D03*
X11811Y57086D02*
D03*
X5906Y45276D02*
D03*
X11811Y33465D02*
D03*
X5906Y21654D02*
D03*
X11811Y9842D02*
D03*
X5906Y-1969D02*
D03*
X11811Y-13780D02*
D03*
X5906Y-25591D02*
D03*
X11811Y-37402D02*
D03*
X5906Y-49213D02*
D03*
X11811Y-61024D02*
D03*
X5906Y-72835D02*
D03*
X11811Y-84646D02*
D03*
X5906Y-96457D02*
D03*
X11811Y-108268D02*
D03*
X5906Y-120079D02*
D03*
X109252Y91535D02*
D03*
X105315Y87598D02*
D03*
X229331Y-6890D02*
D03*
X193898Y68898D02*
D03*
X197835Y65945D02*
D03*
X108268Y153543D02*
D03*
X101378D02*
D03*
X131890Y-154528D02*
D03*
X125000D02*
D03*
X310039Y109252D02*
D03*
X313976D02*
D03*
X310039Y105315D02*
D03*
X192913Y-1969D02*
D03*
X190945Y-3701D02*
D03*
X171260D02*
D03*
X175197D02*
D03*
X163386D02*
D03*
X179134D02*
D03*
X167323D02*
D03*
X183071D02*
D03*
X187008D02*
D03*
X100394Y0D02*
D03*
X102362Y1969D02*
D03*
X98425D02*
D03*
X231299Y-33465D02*
D03*
X221457Y-51181D02*
D03*
X218504D02*
D03*
X234252Y-33465D02*
D03*
X91339Y-70866D02*
D03*
X96063D02*
D03*
X86614D02*
D03*
X103150Y-69291D02*
D03*
X105512Y-70866D02*
D03*
X93701Y-69291D02*
D03*
X98425D02*
D03*
X100787Y-70866D02*
D03*
X88976Y-69291D02*
D03*
X84252D02*
D03*
X81890Y-67716D02*
D03*
X79527Y-66142D02*
D03*
X77165Y-64567D02*
D03*
X320866Y-63976D02*
D03*
X93307Y-59449D02*
D03*
X368110Y-8858D02*
D03*
Y-5906D02*
D03*
Y-2953D02*
D03*
Y0D02*
D03*
Y2953D02*
D03*
Y5906D02*
D03*
Y8858D02*
D03*
X271654Y-113189D02*
D03*
X68898Y0D02*
D03*
X70866Y1969D02*
D03*
X72835Y0D02*
D03*
X74803Y1969D02*
D03*
X90551D02*
D03*
X86614D02*
D03*
X161417Y-1969D02*
D03*
X82677Y1969D02*
D03*
X78740D02*
D03*
X76772Y0D02*
D03*
X80709D02*
D03*
X84646D02*
D03*
X88583D02*
D03*
X94488Y1969D02*
D03*
X92520Y0D02*
D03*
X96457D02*
D03*
X159449D02*
D03*
X188976Y-1969D02*
D03*
X185039D02*
D03*
X181102D02*
D03*
X165354D02*
D03*
X177165D02*
D03*
X173228D02*
D03*
X169291D02*
D03*
X157480Y1969D02*
D03*
X155512Y3937D02*
D03*
X153543Y5906D02*
D03*
X149606D02*
D03*
X145669D02*
D03*
X141732D02*
D03*
X137795D02*
D03*
X133858D02*
D03*
X129921D02*
D03*
X151575Y7874D02*
D03*
X147638D02*
D03*
X143701D02*
D03*
X139764D02*
D03*
X135827D02*
D03*
X131890D02*
D03*
X51870Y-27500D02*
D03*
X46870Y-17500D02*
D03*
Y-32500D02*
D03*
X227362Y-105315D02*
D03*
X342520Y-106142D02*
D03*
X299213Y-70866D02*
D03*
X116142Y50197D02*
D03*
Y32874D02*
D03*
Y59646D02*
D03*
Y42323D02*
D03*
X104331Y32874D02*
D03*
X269685Y73976D02*
D03*
X263779Y72835D02*
D03*
X311024Y78740D02*
D03*
X305118Y77598D02*
D03*
X297047Y69882D02*
D03*
Y66142D02*
D03*
X92520Y117953D02*
D03*
X100492Y124547D02*
D03*
X92520Y126142D02*
D03*
X86614Y124016D02*
D03*
X139764D02*
D03*
X135827Y119095D02*
D03*
X348425Y-108268D02*
D03*
X334547Y-87224D02*
D03*
X348425Y-88583D02*
D03*
X299213D02*
D03*
X348425Y-70866D02*
D03*
X104331Y59646D02*
D03*
X134685Y96457D02*
D03*
X170118Y104331D02*
D03*
Y109252D02*
D03*
Y119095D02*
D03*
Y124016D02*
D03*
X109409Y113189D02*
D03*
Y124016D02*
D03*
Y128937D02*
D03*
X272835Y-88779D02*
D03*
X268504D02*
D03*
X272835Y-84449D02*
D03*
X268504D02*
D03*
X183071Y7874D02*
D03*
X190945Y1969D02*
D03*
X252165Y117913D02*
D03*
X247835D02*
D03*
X252165Y122244D02*
D03*
X247835D02*
D03*
X104331Y50197D02*
D03*
Y42323D02*
D03*
X186024Y62992D02*
D03*
X152559Y29528D02*
D03*
X134646Y26378D02*
D03*
X192913Y59055D02*
D03*
X189961Y62008D02*
D03*
X208465Y-135039D02*
D03*
X212795D02*
D03*
X208465Y-130709D02*
D03*
X212795D02*
D03*
X321654Y-81890D02*
D03*
X325984D02*
D03*
X321654Y-77559D02*
D03*
X325984D02*
D03*
X155118Y-99803D02*
D03*
Y-95473D02*
D03*
Y-91142D02*
D03*
X159449Y-99803D02*
D03*
Y-95473D02*
D03*
Y-91142D02*
D03*
X163779Y-99803D02*
D03*
Y-95473D02*
D03*
Y-91142D02*
D03*
X155118Y-49606D02*
D03*
Y-45276D02*
D03*
Y-40945D02*
D03*
X159449Y-49606D02*
D03*
Y-45276D02*
D03*
Y-40945D02*
D03*
X163779Y-49606D02*
D03*
Y-45276D02*
D03*
Y-40945D02*
D03*
X268504Y-17520D02*
D03*
X272835D02*
D03*
X268504Y-21850D02*
D03*
X272835D02*
D03*
X156299Y-135039D02*
D03*
X160630D02*
D03*
X156299Y-130709D02*
D03*
X160630D02*
D03*
D82*
X374016Y137795D02*
D03*
X19685Y137795D02*
D03*
X374016Y-137795D02*
D03*
X19685D02*
D03*
D83*
X47244Y-124012D02*
D03*
X47244Y124020D02*
D03*
D84*
X141339Y26683D02*
D03*
X157760Y39650D02*
D03*
X184138Y55791D02*
D03*
X146063Y29134D02*
D03*
X143307Y31890D02*
D03*
X150787Y35433D02*
D03*
X165748Y43701D02*
D03*
X177165Y51575D02*
D03*
X164173Y45669D02*
D03*
X170079Y47244D02*
D03*
D85*
X364567Y137795D02*
D03*
X374016Y128347D02*
D03*
X383465Y137795D02*
D03*
X374016Y147244D02*
D03*
X10236Y137795D02*
D03*
X19685Y147244D02*
D03*
X29134Y137795D02*
D03*
X19685Y128347D02*
D03*
X383465Y-137795D02*
D03*
X374016Y-147244D02*
D03*
X364567Y-137795D02*
D03*
X374016Y-128347D02*
D03*
X19685D02*
D03*
X29134Y-137795D02*
D03*
X19685Y-147244D02*
D03*
X10236Y-137795D02*
D03*
M02*
