G04*
G04 #@! TF.GenerationSoftware,Altium Limited,Altium Designer,23.11.1 (41)*
G04*
G04 Layer_Color=32896*
%FSLAX25Y25*%
%MOIN*%
G70*
G04*
G04 #@! TF.SameCoordinates,29EA51B2-5BA9-446F-9376-B5E75E75F833*
G04*
G04*
G04 #@! TF.FilePolarity,Positive*
G04*
G01*
G75*
%ADD11C,0.00984*%
%ADD12C,0.00984*%
%ADD13C,0.02362*%
%ADD15C,0.00787*%
%ADD16C,0.00394*%
%ADD18C,0.00602*%
%ADD111C,0.00610*%
D11*
X297146Y76772D02*
X296408Y77198D01*
Y76345D01*
X297146Y76772D01*
X221850Y-122028D02*
X221112Y-121601D01*
Y-122454D01*
X221850Y-122028D01*
X335039Y-68878D02*
X334301Y-68452D01*
Y-69304D01*
X335039Y-68878D01*
X313583Y-120098D02*
X312844Y-119672D01*
Y-120525D01*
X313583Y-120098D01*
X150197Y-139862D02*
X149459Y-139436D01*
Y-140288D01*
X150197Y-139862D01*
X100984Y111201D02*
X100246Y111627D01*
Y110775D01*
X100984Y111201D01*
X99213Y-30315D02*
X98474Y-29889D01*
Y-30741D01*
X99213Y-30315D01*
X122343Y67028D02*
X121604Y67454D01*
Y66601D01*
X122343Y67028D01*
X241142Y-31693D02*
X240404Y-31267D01*
Y-32119D01*
X241142Y-31693D01*
X218012Y-108661D02*
X217274Y-108235D01*
Y-109088D01*
X218012Y-108661D01*
X211024Y132894D02*
X210285Y133320D01*
Y132467D01*
X211024Y132894D01*
D12*
X131102Y46260D02*
D03*
Y28543D02*
D03*
X382087Y-118110D02*
D03*
D13*
X322638Y-115157D02*
X322193Y-114234D01*
X321194Y-114006D01*
X320393Y-114645D01*
Y-115670D01*
X321194Y-116309D01*
X322193Y-116081D01*
X322638Y-115157D01*
X110039Y116142D02*
X109595Y117065D01*
X108595Y117293D01*
X107794Y116654D01*
Y115629D01*
X108595Y114990D01*
X109595Y115218D01*
X110039Y116142D01*
X108268Y-24803D02*
X107823Y-23880D01*
X106824Y-23652D01*
X106023Y-24291D01*
Y-25316D01*
X106824Y-25955D01*
X107823Y-25727D01*
X108268Y-24803D01*
X114764Y61614D02*
X114319Y62538D01*
X113320Y62766D01*
X112519Y62127D01*
Y61102D01*
X113320Y60463D01*
X114319Y60691D01*
X114764Y61614D01*
X233071Y-33661D02*
X232626Y-32738D01*
X231627Y-32510D01*
X230826Y-33149D01*
Y-34174D01*
X231627Y-34813D01*
X232626Y-34585D01*
X233071Y-33661D01*
X203346Y127953D02*
X202902Y128876D01*
X201903Y129104D01*
X201101Y128465D01*
Y127440D01*
X201903Y126801D01*
X202902Y127029D01*
X203346Y127953D01*
D15*
X27165Y-111984D02*
X26378D01*
X27165D01*
X316929Y-37402D02*
X392717D01*
X316929Y35433D02*
X392717D01*
Y-37402D02*
Y35433D01*
X316929Y-37402D02*
Y35433D01*
X392638Y-108268D02*
Y-45276D01*
X368110Y-108268D02*
Y-45276D01*
X392638D01*
X368110Y-108268D02*
X392638D01*
X368110D02*
Y-45276D01*
X355315Y-108268D02*
Y-45276D01*
X368110D01*
X355315Y-108268D02*
X368110D01*
X292323Y-45276D02*
X355315D01*
Y-128937D02*
Y-45276D01*
X204331Y-142717D02*
X216929D01*
X204331Y-123031D02*
X216929D01*
X204331Y-142717D02*
Y-123031D01*
X216929Y-142717D02*
Y-123031D01*
X317520Y-89567D02*
X330118D01*
X317520Y-69882D02*
X330118D01*
X317520Y-89567D02*
Y-69882D01*
X330118Y-89567D02*
Y-69882D01*
X368307Y-118504D02*
X379724D01*
X368307Y-111811D02*
X379724D01*
X368307Y-118504D02*
Y-117913D01*
X379724Y-118504D02*
Y-117913D01*
X368307Y-112402D02*
Y-111811D01*
X379724Y-112402D02*
Y-111811D01*
X317520Y-119095D02*
Y-99410D01*
X330118Y-119095D02*
Y-99410D01*
X317520Y-119095D02*
X330118D01*
X317520Y-99410D02*
X330118D01*
X153937Y-138976D02*
X162992D01*
X153937Y-126772D02*
X162992D01*
X292323Y-128937D02*
Y-45276D01*
Y-128937D02*
X355315D01*
X104921Y131890D02*
X117520D01*
X104921Y112205D02*
X117520D01*
Y131890D01*
X104921Y112205D02*
Y131890D01*
X103150Y-2756D02*
X117323D01*
X103150Y-28740D02*
X117323D01*
Y-2756D01*
X103150Y-28740D02*
Y-2756D01*
X117520Y26969D02*
Y65551D01*
X102953Y26969D02*
Y65551D01*
X117520D01*
X102953Y26969D02*
X117520D01*
X235827Y-55315D02*
Y-29724D01*
X216929Y-55315D02*
Y-29724D01*
X235827D01*
X216929Y-55315D02*
X235827D01*
X193504Y112205D02*
X206102D01*
X193504Y131890D02*
X206102D01*
X193504Y112205D02*
Y131890D01*
X206102Y112205D02*
Y131890D01*
D16*
X290945Y75787D02*
X293602D01*
X290945Y63976D02*
X293602D01*
Y75787D01*
X290945Y63976D02*
Y75787D01*
X368110Y-105315D02*
X371063Y-108268D01*
X368110Y-101378D02*
X375000Y-108268D01*
X368110Y-97441D02*
X378937Y-108268D01*
X368110Y-93504D02*
X382874Y-108268D01*
X390748Y-45276D02*
X392717Y-47244D01*
X386811Y-45276D02*
X392717Y-51181D01*
X382874Y-45276D02*
X392717Y-55118D01*
X378937Y-45276D02*
X392717Y-59055D01*
X374016Y-45276D02*
X375000D01*
X368110Y-46260D02*
Y-45276D01*
X379921Y-85630D02*
X392717Y-98425D01*
X225394Y-64961D02*
X226378D01*
Y-81693D02*
Y-64961D01*
X220472Y-71850D02*
X221457D01*
Y-81693D02*
Y-71850D01*
X216535Y-81693D02*
Y-78740D01*
X215551D02*
X216535D01*
X383858Y-69882D02*
X392717Y-78740D01*
X368110Y-73819D02*
X376969Y-82677D01*
X368110Y-85630D02*
X390748Y-108268D01*
X368110Y-89567D02*
X386811Y-108268D01*
X368110Y-81693D02*
X392717Y-106299D01*
X368110Y-77756D02*
X392717Y-102362D01*
X368110Y-58071D02*
X376969Y-66929D01*
X368110Y-46260D02*
X392717Y-70866D01*
X368110Y-65945D02*
X376969Y-74803D01*
X368110Y-54134D02*
X380906Y-66929D01*
X383858Y-77756D02*
X392717Y-86614D01*
X368110Y-50197D02*
X392717Y-74803D01*
X371063Y-45276D02*
X392717Y-66929D01*
X368110Y-62008D02*
X376969Y-70866D01*
X383858Y-81693D02*
X392717Y-90551D01*
X383858Y-85630D02*
X392638Y-94410D01*
X368110Y-69882D02*
X376969Y-78740D01*
X376969D01*
X383858Y-73819D02*
X392717Y-82677D01*
X375000Y-45276D02*
X392717Y-62992D01*
X366929Y0D02*
X383661D01*
X359055Y-18701D02*
Y-12795D01*
X355118Y-7874D02*
X359055Y-12795D01*
X355118Y7874D02*
X359055Y12795D01*
Y18701D01*
X325591Y0D02*
X339370D01*
X10472Y109807D02*
X47244D01*
X10472Y-109799D02*
Y109807D01*
Y-109799D02*
X33465D01*
X55118Y109807D02*
X68268D01*
Y-109799D02*
Y109807D01*
X45276Y-109799D02*
X68268D01*
X204724Y-102953D02*
X216535D01*
X204724Y-105709D02*
X216535D01*
X204724D02*
Y-102953D01*
X216535Y-105709D02*
Y-102953D01*
D18*
X299538Y58071D02*
X296915D01*
X298226Y59383D02*
Y56759D01*
X292979Y56103D02*
X295603D01*
X292979Y58727D01*
Y59383D01*
X293635Y60039D01*
X294947D01*
X295603Y59383D01*
X291667Y60039D02*
Y57415D01*
X290355Y56103D01*
X289043Y57415D01*
Y60039D01*
X285107D02*
X287731D01*
Y58071D01*
X286419Y58727D01*
X285763D01*
X285107Y58071D01*
Y56759D01*
X285763Y56103D01*
X287075D01*
X287731Y56759D01*
X253664Y34776D02*
X254320Y35432D01*
X255631D01*
X256287Y34776D01*
Y32153D01*
X255631Y31497D01*
X254320D01*
X253664Y32153D01*
X252352Y35432D02*
Y31497D01*
X249728D01*
X248416Y35432D02*
Y31497D01*
Y32809D01*
X245792Y35432D01*
X247760Y33465D01*
X245792Y31497D01*
X253664Y25918D02*
X254320Y26574D01*
X255631D01*
X256287Y25918D01*
Y23294D01*
X255631Y22638D01*
X254320D01*
X253664Y23294D01*
X249728Y25918D02*
X250384Y26574D01*
X251696D01*
X252352Y25918D01*
Y25262D01*
X251696Y24606D01*
X250384D01*
X249728Y23950D01*
Y23294D01*
X250384Y22638D01*
X251696D01*
X252352Y23294D01*
X256287Y17716D02*
Y13780D01*
X254320D01*
X253664Y14436D01*
Y17060D01*
X254320Y17716D01*
X256287D01*
X252352Y13780D02*
Y16404D01*
X251040Y17716D01*
X249728Y16404D01*
Y13780D01*
Y15748D01*
X252352D01*
X248416Y17716D02*
X245792D01*
X247104D01*
Y13780D01*
X244480D02*
Y16404D01*
X243168Y17716D01*
X241856Y16404D01*
Y13780D01*
Y15748D01*
X244480D01*
X315287Y-50197D02*
X312663D01*
X313975Y-48885D02*
Y-51509D01*
X308728Y-48229D02*
X311351D01*
Y-50197D01*
X310039Y-49541D01*
X309383D01*
X308728Y-50197D01*
Y-51509D01*
X309383Y-52165D01*
X310695D01*
X311351Y-51509D01*
X307416Y-48229D02*
Y-50853D01*
X306104Y-52165D01*
X304792Y-50853D01*
Y-48229D01*
X348751Y-50197D02*
X346127D01*
X347439Y-48885D02*
Y-51509D01*
X344815Y-48885D02*
X344159Y-48229D01*
X342847D01*
X342191Y-48885D01*
Y-49541D01*
X342847Y-50197D01*
X343503D01*
X342847D01*
X342191Y-50853D01*
Y-51509D01*
X342847Y-52165D01*
X344159D01*
X344815Y-51509D01*
X340880Y-48229D02*
Y-50853D01*
X339568Y-52165D01*
X338256Y-50853D01*
Y-48229D01*
X336944Y-48885D02*
X336288Y-48229D01*
X334976D01*
X334320Y-48885D01*
Y-49541D01*
X334976Y-50197D01*
X335632D01*
X334976D01*
X334320Y-50853D01*
Y-51509D01*
X334976Y-52165D01*
X336288D01*
X336944Y-51509D01*
X185035Y-63374D02*
Y-59438D01*
X182411Y-63374D01*
Y-59438D01*
X178476D02*
X181099D01*
Y-63374D01*
X178476D01*
X181099Y-61406D02*
X179788D01*
X177164Y-59438D02*
X174540D01*
X175852D01*
Y-63374D01*
X169292Y-59438D02*
X166668D01*
X167980D01*
Y-63374D01*
X165357Y-59438D02*
X164045D01*
X164701D01*
Y-63374D01*
X165357D01*
X164045D01*
X159453Y-59438D02*
X162077D01*
Y-63374D01*
X159453D01*
X162077Y-61406D02*
X160765D01*
X294947Y83005D02*
X295603Y83661D01*
X296915D01*
X297570Y83005D01*
Y80381D01*
X296915Y79725D01*
X295603D01*
X294947Y80381D01*
X293635Y79725D02*
Y83661D01*
X292323Y82349D01*
X291011Y83661D01*
Y79725D01*
X289699Y83661D02*
Y81037D01*
X288387Y79725D01*
X287075Y81037D01*
Y83661D01*
X116468Y106299D02*
X113844D01*
X115156Y107611D02*
Y104987D01*
X109909Y108267D02*
X112532D01*
Y106299D01*
X111221Y106955D01*
X110564D01*
X109909Y106299D01*
Y104987D01*
X110564Y104331D01*
X111876D01*
X112532Y104987D01*
X108597Y108267D02*
Y105643D01*
X107285Y104331D01*
X105973Y105643D01*
Y108267D01*
X218886Y-69883D02*
Y-73818D01*
X216262D01*
X214950Y-69883D02*
Y-73818D01*
X212982D01*
X212326Y-73162D01*
Y-70539D01*
X212982Y-69883D01*
X214950D01*
X211014D02*
Y-73818D01*
X208390D01*
X223807Y-66928D02*
Y-64305D01*
X222495Y-62993D01*
X221183Y-64305D01*
Y-66928D01*
Y-64961D01*
X223807D01*
X219871Y-62993D02*
Y-66928D01*
X217903D01*
X217248Y-66272D01*
Y-63649D01*
X217903Y-62993D01*
X219871D01*
X215936Y-66928D02*
Y-62993D01*
X214624Y-64305D01*
X213312Y-62993D01*
Y-66928D01*
X211341Y-76772D02*
X213965D01*
Y-78740D01*
X212653D01*
X213965D01*
Y-80708D01*
X210029D02*
Y-76772D01*
X208717Y-78084D01*
X207405Y-76772D01*
Y-80708D01*
X203469Y-77428D02*
X204125Y-76772D01*
X205437D01*
X206093Y-77428D01*
Y-80052D01*
X205437Y-80708D01*
X204125D01*
X203469Y-80052D01*
X211012Y-85630D02*
X208388D01*
X209700Y-84318D02*
Y-86942D01*
X207076Y-84318D02*
X206420Y-83662D01*
X205108D01*
X204452Y-84318D01*
Y-84974D01*
X205108Y-85630D01*
X205764D01*
X205108D01*
X204452Y-86286D01*
Y-86942D01*
X205108Y-87598D01*
X206420D01*
X207076Y-86942D01*
X203140Y-83662D02*
Y-86286D01*
X201828Y-87598D01*
X200517Y-86286D01*
Y-83662D01*
X199205Y-84318D02*
X198549Y-83662D01*
X197237D01*
X196581Y-84318D01*
Y-84974D01*
X197237Y-85630D01*
X197893D01*
X197237D01*
X196581Y-86286D01*
Y-86942D01*
X197237Y-87598D01*
X198549D01*
X199205Y-86942D01*
X361603Y-47846D02*
Y-50470D01*
X360291Y-49158D02*
X362915D01*
X359635Y-54406D02*
Y-51782D01*
X361603D01*
X360947Y-53094D01*
Y-53750D01*
X361603Y-54406D01*
X362915D01*
X363571Y-53750D01*
Y-52438D01*
X362915Y-51782D01*
X360291Y-55718D02*
X359635Y-56374D01*
Y-57686D01*
X360291Y-58342D01*
X362915D01*
X363571Y-57686D01*
Y-56374D01*
X362915Y-55718D01*
X360291D01*
X359635Y-59654D02*
X362259D01*
X363571Y-60966D01*
X362259Y-62278D01*
X359635D01*
X360291Y-95857D02*
X359635Y-95201D01*
Y-93889D01*
X360291Y-93233D01*
X362915D01*
X363571Y-93889D01*
Y-95201D01*
X362915Y-95857D01*
X361603D01*
Y-94545D01*
X363571Y-97169D02*
X359635D01*
X363571Y-99793D01*
X359635D01*
Y-101104D02*
X363571D01*
Y-103072D01*
X362915Y-103728D01*
X360291D01*
X359635Y-103072D01*
Y-101104D01*
X276957Y-32480D02*
Y-28544D01*
X274989D01*
X274333Y-29200D01*
Y-30512D01*
X274989Y-31168D01*
X276957D01*
X275645D02*
X274333Y-32480D01*
X273021Y-28544D02*
X270397Y-32480D01*
Y-28544D02*
X273021Y-32480D01*
X277941Y-41339D02*
X275317D01*
X276629D01*
Y-45275D01*
X274005Y-41339D02*
X271381Y-45275D01*
Y-41339D02*
X274005Y-45275D01*
X380374Y-69556D02*
Y-72180D01*
X379062Y-70868D02*
X381686D01*
X378406Y-76116D02*
Y-73492D01*
X380374D01*
X379718Y-74804D01*
Y-75460D01*
X380374Y-76116D01*
X381686D01*
X382342Y-75460D01*
Y-74148D01*
X381686Y-73492D01*
X379062Y-77428D02*
X378406Y-78084D01*
Y-79396D01*
X379062Y-80051D01*
X381686D01*
X382342Y-79396D01*
Y-78084D01*
X381686Y-77428D01*
X379062D01*
X378406Y-81363D02*
X381030D01*
X382342Y-82675D01*
X381030Y-83987D01*
X378406D01*
X166336Y-144685D02*
X163713D01*
X165024Y-143373D02*
Y-145997D01*
X162401Y-146653D02*
X161089D01*
X161745D01*
Y-142717D01*
X162401Y-143373D01*
X159121Y-142717D02*
Y-145341D01*
X157809Y-146653D01*
X156497Y-145341D01*
Y-142717D01*
X155185Y-143373D02*
X154529Y-142717D01*
X153217D01*
X152561Y-143373D01*
Y-144029D01*
X153217Y-144685D01*
X152561Y-145341D01*
Y-145997D01*
X153217Y-146653D01*
X154529D01*
X155185Y-145997D01*
Y-145341D01*
X154529Y-144685D01*
X155185Y-144029D01*
Y-143373D01*
X154529Y-144685D02*
X153217D01*
X205051Y106299D02*
X202427D01*
X198491Y108267D02*
X201115D01*
Y106299D01*
X199803Y106955D01*
X199147D01*
X198491Y106299D01*
Y104987D01*
X199147Y104331D01*
X200459D01*
X201115Y104987D01*
X197179Y108267D02*
Y105643D01*
X195867Y104331D01*
X194555Y105643D01*
Y108267D01*
X304405Y-127350D02*
Y-123415D01*
X302437D01*
X301781Y-124071D01*
Y-125382D01*
X302437Y-126039D01*
X304405D01*
X300469Y-123415D02*
Y-127350D01*
X299157Y-126039D01*
X297845Y-127350D01*
Y-123415D01*
X296533Y-127350D02*
Y-123415D01*
X294565D01*
X293910Y-124071D01*
Y-125382D01*
X294565Y-126039D01*
X296533D01*
X295221D02*
X293910Y-127350D01*
X329067Y-123819D02*
X326443D01*
X327755Y-122507D02*
Y-125131D01*
X322507Y-121851D02*
X325131D01*
Y-123819D01*
X323819Y-123163D01*
X323163D01*
X322507Y-123819D01*
Y-125131D01*
X323163Y-125787D01*
X324475D01*
X325131Y-125131D01*
X321195Y-121851D02*
Y-124475D01*
X319883Y-125787D01*
X318571Y-124475D01*
Y-121851D01*
X331034Y-93898D02*
X328411D01*
X329722Y-92586D02*
Y-95210D01*
X327099Y-92586D02*
X326443Y-91930D01*
X325131D01*
X324475Y-92586D01*
Y-93242D01*
X325131Y-93898D01*
X325787D01*
X325131D01*
X324475Y-94554D01*
Y-95210D01*
X325131Y-95865D01*
X326443D01*
X327099Y-95210D01*
X323163Y-91930D02*
Y-94554D01*
X321851Y-95865D01*
X320539Y-94554D01*
Y-91930D01*
X319227Y-92586D02*
X318571Y-91930D01*
X317259D01*
X316603Y-92586D01*
Y-93242D01*
X317259Y-93898D01*
X317915D01*
X317259D01*
X316603Y-94554D01*
Y-95210D01*
X317259Y-95865D01*
X318571D01*
X319227Y-95210D01*
D111*
X325966Y-9469D02*
Y-10780D01*
Y-10125D01*
X329902D01*
Y-9469D01*
Y-10780D01*
X327934Y-12748D02*
Y-15372D01*
X326622Y-14060D02*
X329246D01*
X338104Y14482D02*
X335480D01*
X334824Y15138D01*
Y16450D01*
X335480Y17106D01*
X338104D01*
X338760Y16450D01*
Y15138D01*
X337448Y15794D02*
X338760Y14482D01*
Y15138D02*
X338104Y14482D01*
X336792Y13171D02*
Y10547D01*
X335480Y11859D02*
X338104D01*
X347946Y21372D02*
X345323D01*
X344667Y22028D01*
Y23340D01*
X345323Y23996D01*
X347946D01*
X348602Y23340D01*
Y22028D01*
X347290Y22684D02*
X348602Y21372D01*
Y22028D02*
X347946Y21372D01*
X346635Y20060D02*
Y17436D01*
X325966Y10451D02*
Y9139D01*
Y9795D01*
X329902D01*
Y10451D01*
Y9139D01*
X327934Y7171D02*
Y4547D01*
X379115Y-3169D02*
Y-5793D01*
X377803Y-4481D02*
X380427D01*
X377147Y-9729D02*
Y-7105D01*
X379115D01*
X378459Y-8417D01*
Y-9073D01*
X379115Y-9729D01*
X380427D01*
X381083Y-9073D01*
Y-7761D01*
X380427Y-7105D01*
X377803Y-11041D02*
X377147Y-11697D01*
Y-13009D01*
X377803Y-13665D01*
X380427D01*
X381083Y-13009D01*
Y-11697D01*
X380427Y-11041D01*
X377803D01*
X377147Y-14976D02*
X379771D01*
X381083Y-16288D01*
X379771Y-17600D01*
X377147D01*
X379115Y17500D02*
Y14876D01*
X377803Y16188D02*
X380427D01*
X377147Y10940D02*
Y13564D01*
X379115D01*
X378459Y12252D01*
Y11596D01*
X379115Y10940D01*
X380427D01*
X381083Y11596D01*
Y12908D01*
X380427Y13564D01*
X377803Y9629D02*
X377147Y8973D01*
Y7661D01*
X377803Y7005D01*
X380427D01*
X381083Y7661D01*
Y8973D01*
X380427Y9629D01*
X377803D01*
X377147Y5693D02*
X379771D01*
X381083Y4381D01*
X379771Y3069D01*
X377147D01*
X367960Y17388D02*
X367304Y18044D01*
Y19355D01*
X367960Y20011D01*
X370584D01*
X371240Y19355D01*
Y18044D01*
X370584Y17388D01*
X369272D01*
Y18699D01*
X371240Y16076D02*
X367304D01*
X371240Y13452D01*
X367304D01*
Y12140D02*
X371240D01*
Y10172D01*
X370584Y9516D01*
X367960D01*
X367304Y10172D01*
Y12140D01*
X367304Y-12141D02*
Y-9517D01*
X369272D01*
Y-10829D01*
Y-9517D01*
X371240D01*
Y-13453D02*
X367304D01*
Y-15420D01*
X367960Y-16076D01*
X369272D01*
X369928Y-15420D01*
Y-13453D01*
Y-14764D02*
X371240Y-16076D01*
X367304Y-20012D02*
Y-17388D01*
X371240D01*
Y-20012D01*
X369272Y-17388D02*
Y-18700D01*
X367304Y-23948D02*
Y-21324D01*
X369272D01*
Y-22636D01*
Y-21324D01*
X371240D01*
X386989Y15087D02*
Y12463D01*
X385677Y13775D02*
X388301D01*
X385021Y8527D02*
Y11151D01*
X386989D01*
X386333Y9839D01*
Y9183D01*
X386989Y8527D01*
X388301D01*
X388957Y9183D01*
Y10495D01*
X388301Y11151D01*
X385021Y7215D02*
X387645D01*
X388957Y5904D01*
X387645Y4592D01*
X385021D01*
X388957Y3280D02*
X386333Y656D01*
X386989Y-656D02*
Y-3280D01*
X385677Y-1968D02*
X388301D01*
X385677Y-4592D02*
X385021Y-5248D01*
Y-6560D01*
X385677Y-7215D01*
X386333D01*
X386989Y-6560D01*
Y-5904D01*
Y-6560D01*
X387645Y-7215D01*
X388301D01*
X388957Y-6560D01*
Y-5248D01*
X388301Y-4592D01*
X385021Y-8527D02*
X387645D01*
X388957Y-9839D01*
X387645Y-11151D01*
X385021D01*
X385677Y-12463D02*
X385021Y-13119D01*
Y-14431D01*
X385677Y-15087D01*
X386333D01*
X386989Y-14431D01*
Y-13775D01*
Y-14431D01*
X387645Y-15087D01*
X388301D01*
X388957Y-14431D01*
Y-13119D01*
X388301Y-12463D01*
X348602Y-20295D02*
X344667D01*
Y-22263D01*
X345323Y-22919D01*
X346635D01*
X347290Y-22263D01*
Y-20295D01*
Y-21607D02*
X348602Y-22919D01*
X344667Y-24231D02*
X348602Y-26855D01*
X344667D02*
X348602Y-24231D01*
X335480Y-17014D02*
X334824Y-16358D01*
Y-15046D01*
X335480Y-14390D01*
X338104D01*
X338760Y-15046D01*
Y-16358D01*
X338104Y-17014D01*
X335480Y-20949D02*
X334824Y-20293D01*
Y-18981D01*
X335480Y-18326D01*
X336136D01*
X336792Y-18981D01*
Y-20293D01*
X337448Y-20949D01*
X338104D01*
X338760Y-20293D01*
Y-18981D01*
X338104Y-18326D01*
X356478Y-19311D02*
Y-21935D01*
Y-20623D01*
X360413D01*
X356478Y-23247D02*
X360413Y-25871D01*
X356478D02*
X360413Y-23247D01*
X357134Y27278D02*
X356478Y27934D01*
Y29246D01*
X357134Y29902D01*
X359757D01*
X360413Y29246D01*
Y27934D01*
X359757Y27278D01*
X356478Y25966D02*
X360413D01*
Y23342D01*
X356478Y22030D02*
X360413D01*
X359102D01*
X356478Y19406D01*
X358446Y21374D01*
X360413Y19406D01*
X320060Y7215D02*
X323996D01*
Y5248D01*
X323340Y4592D01*
X320716D01*
X320060Y5248D01*
Y7215D01*
X323996Y3280D02*
X321372D01*
X320060Y1968D01*
X321372Y656D01*
X323996D01*
X322028D01*
Y3280D01*
X320060Y-656D02*
Y-3280D01*
Y-1968D01*
X323996D01*
Y-4592D02*
X321372D01*
X320060Y-5904D01*
X321372Y-7215D01*
X323996D01*
X322028D01*
Y-4592D01*
M02*
