M48
;Layer_Color=9474304
;FILE_FORMAT=2:4
INCH,TZ
;TYPE=PLATED
T01F00S00C0.0118
T02F00S00C0.0157
T03F00S00C0.0276
T04F00S00C0.0315
T05F00S00C0.0472
T06F00S00C0.0551
T07F00S00C0.0591
T08F00S00C0.1220
T09F00S00C0.1457
;TYPE=NON_PLATED
T10F00S00C0.0500
%
T01
X3543Y-13189
X5906
X7087
X7677Y-14370
X6496
X9449Y-13189
X11811
X12992
X13976Y-13106
Y-13469
X13583Y-14370
X12402
X11220
X12500Y-15453
X13189
X15945Y-14370
X16063Y-13504
X15630
Y-13071
X16063
X17717Y-13106
Y-13469
X18307Y-14370
X19094Y-14173
Y-12992
X20846Y-13071
Y-13504
X20669Y-14370
X17126
X21280Y-13504
Y-13071
X22136Y-14037
X23031Y-14173
X24213Y-14370
X25394
X26575
X27756
X28937
X30118
X31299
X32480
X33661
X34843
X35433Y-13189
X34252
X33071
X31890
X30709
X29528
X28346
X27165
X25984
X24803
X37205Y-12008
Y-9646
X38386Y-7283
X37795Y-6102
X37205Y-4921
X37795Y-3740
X37205Y-2559
X38386Y2165
X36024
X36811Y886
Y591
Y295
Y0
Y-295
Y-591
Y-886
X36614Y-3740
X36024Y-4921
X34843
X35433Y-6102
X34843Y-7087
Y-8858
Y-10236
Y-10827
X34252Y-10614
Y-11604
X36024Y-12008
Y-9646
X33455Y-8722
X32598Y-8189
Y-7756
X32165
Y-8189
X32087Y-6398
X32480Y-5020
X29724Y-6388
X29921Y-7087
Y-7677
Y-8858
X29232Y-8843
Y-8480
X28742Y-8057
X28740Y-6388
X27756Y-6807
X26378Y-6807
Y-7169
Y-6382
Y-6020
X26870
X26575Y-4921
X26772Y-4429
X27165Y-4626
X27756Y-4616
X28740Y-4262
X29232Y-2150
Y-1787
X28742Y-1364
X28740Y305
X29724
X27756Y-114
X26378Y-114
Y-476
Y311
Y673
X26870
X25394Y-197
X25394Y-994
X24902Y-1000
Y-1362
X23622Y-1378
X22441
X22343Y-2181
X22933
Y-2543
X23130Y-3346
X23425
Y-3740
X21850Y-4764
Y-5118
X22146
X21850Y-7283
X21654Y-8848
X22146Y-10220
X22736Y-10532
X22933Y-11713
X22146
X23031Y-12402
X25394Y-12008
X26575
X26772Y-11122
X27165Y-11319
X27756Y-11309
X27756Y-12008
X28937
X28740Y-10935
X29921Y-10728
Y-10138
X30512Y-10614
Y-11236
X31309Y-10675
X31299Y-9646
X27067Y-9744
X26850Y-8878
X27283
Y-8445
X26850
X25984Y-8661
X25394Y-7687
X24902Y-7693
Y-8055
X24803Y-6102
X25394Y-4921
Y-2559
X25984Y-1969
X26850Y-1752
X27283
Y-2185
X26850
X27067Y-3051
X30118Y-2559
X34843
X33661Y2165
X23622Y984
X23425Y-197
X22933Y-689
X21358Y-705
Y-1067
X21850Y-2559
X23327Y-6516
X25984Y-10827
X20768Y-11713
X19094Y-12402
X18307Y-12008
X17126
X16968Y-10551
X17323Y-9843
X17815Y-9547
X18406
X18291Y-10138
X17929
X18291Y-8957
X18307Y-7283
X19488
X20669
X19488Y-4921
X18291Y-5118
X17929
X17815Y-4528
X18406
X18291Y-3937
X18307Y-2559
X19488
X20669
X20866Y-1067
X20374
X19291Y-197
X19094Y-370
X18898Y-197
X18701Y-370
X18504Y-197
X18307Y-370
X18110Y-197
X17913Y-370
X17717Y-197
X17520Y-370
X17323Y-197
X17126Y-370
X16929Y-197
X16732Y-370
X16535Y-197
X16339Y-370
X16142Y-197
X15945Y0
X15748Y197
X15551Y394
X15354Y591
X15157Y787
X14961Y591
X14764Y787
X14567Y591
X14173
X14370Y787
X13976
X13780Y591
X13386
X13583Y787
X13189
X12992Y591
X13583Y-197
X14764
X15157Y-2362
X15453Y-2461
X15748Y-2559
X16043Y-2657
X16339Y-2378
X16634Y-2378
Y-2740
X17028
Y-2378
X16378Y-4094
X15945
X15512
Y-4528
Y-4961
X15945
Y-4528
X16378
Y-4961
X17323Y-4823
X16968Y-5531
X15846Y-6217
Y-6579
X15453
Y-6217
Y-7480
X15748Y-7579
X16043Y-7677
X16339Y-7398
X16634
Y-7760
X17028
Y-7398
X15157Y-7382
X15512Y-9114
Y-9547
Y-9980
X15945
Y-9547
Y-9114
X16378
Y-9547
Y-9980
X15846Y-11236
Y-11598
X15453
Y-11236
X14370Y-12904
X14157Y-9547
X13795
Y-4528
X14157
X10551Y-7087
X10315Y-6929
X10079Y-7087
X9843Y-6929
X9606Y-7087
X9370Y-6929
X9134Y-7087
X8898Y-6929
X8661Y-7087
X8425Y-6929
X8189Y-6772
X7953Y-6614
X7717Y-6457
X7244Y-5945
X6772Y-5472
X9331Y-5945
X8169Y-10547
X10138Y-10915
X19488Y-9646
X19094Y197
X18307Y787
X17126Y2165
X16142Y2559
X14134Y2668
X13809
X13465Y2638
X13583Y2165
X12500Y1969
Y1575
Y2362
X11417Y870
Y508
X11024
Y870
X10630Y876
X10039Y689
Y0
X10236Y197
X9843
X9449
X9252Y0
X9646
X9055Y197
X8858Y0
X8661Y197
X8268
X8465Y0
X8071
X7874Y197
X7480
X7283Y0
X7677
X6890
X7087Y197
X10433Y1486
X5187Y1750
X4687Y1250
X5187Y250
X4687Y-250
Y-1750
X5187
Y-2250
Y-2750
Y-3250
X4687
Y-3750
Y-4250
X5187Y-3750
X3187
Y-3250
Y-2750
Y-2250
X2687
Y-1250
Y-250
Y250
Y750
X3187
X2687Y1750
Y2250
X3187
X1772Y2165
X591
X1181Y984
X1772Y-197
X591
X1181Y-1378
X1772Y-2559
X591
X1181Y-3740
X2687Y-3750
Y-3250
Y-4250
Y-5250
X3187
Y-5750
Y-6250
X2687
Y-5750
X1772Y-4921
X591
X1181Y-6102
X591Y-7283
X1181Y-8465
X591Y-9646
X1181Y-10827
X1772Y-12008
X2953
X591
X2687Y-9750
X3740Y-9252
X3543Y-8465
X3740Y-6890
X4687Y-6750
X5187
Y-6250
X4687
Y-7250
X5187Y-7750
Y-8250
X5189Y-8734
X3187Y-750
X2687Y2750
Y3750
X3187
X2687Y4250
X1772Y4528
X591
X1181Y5709
X2687Y5750
Y6250
Y7250
Y7750
Y8250
Y8750
Y9250
Y9750
X3187
Y9250
Y8750
Y8250
Y7750
X4134Y6890
X4687Y7250
X5187Y7750
Y6250
X4687Y5750
X5187Y4750
X4687Y4250
X5187Y3250
X4687Y2750
X1181Y3346
X1772Y6890
X591
X1181Y8071
X1772Y9252
X591
X1181Y10433
X2362
X3543
X4134Y9252
X4687Y9250
X5187
Y9750
X4687
Y8750
X3187Y5750
X2953Y11614
X1772
X591
X3543Y12795
X4134Y13976
X5315
X6496
X7677
X8858
X8661Y12992
Y12402
X9252Y12614
Y11795
X10049Y12455
X10941Y12402
X11303
X10941Y12894
X11220Y13976
X12402
X10039
X10138Y15354
X10827
X10941Y11319
X12598Y11122
X13583Y11909
X13976Y12402
X14961Y11122
X15256
X15551
X15846
X16650Y10925
X17012
Y10433
Y11909
Y12402
X16650
X18110Y12500
Y12862
X18907Y12955
Y12455
Y11955
X18110Y11894
X18307Y13976
X19488
X20669
X21053Y12955
Y11955
X20079Y12795
X20571Y10138
X21161
X20685Y9646
X20669Y6496
X20866Y5791
X20374
Y5429
X19291Y5906
X18898Y5865
X18691Y5679
X18414Y5579
X18137Y5484
X17982Y5246
X17717Y5157
X17451Y5030
X17274Y4813
X17008Y4724
X16742Y4596
X16417Y4567
X16575Y4370
X16230Y4281
X16053Y4065
X15776Y3965
X15499Y3870
X15344Y3632
X15079Y3543
X14813Y3415
X14606Y3228
Y2913
X14331Y2874
Y3189
X15256Y2953
X11614Y3287
Y4232
Y5020
Y5965
X10433
Y5020
Y4232
Y3287
X10039Y6890
X8858
X9449Y8071
X8268
X7087
X7677Y9252
X8858
X10039
X10532Y8760
X10925Y9154
X10827Y8169
Y7756
Y7398
X11220
Y7756
X10433Y7766
X12402Y6890
X13583
X14764
X15945
X15354Y8071
X14173
X13469Y9646
X12116Y9252
X15059Y10039
X15407Y10541
X17717Y8071
X18307Y7776
Y7185
X18898Y7299
X19390Y6890
X19783Y6594
X18996Y6201
X18602Y6299
X17126Y13976
X9449Y10433
X8268
X7087
X5906
X6496Y11614
X7677
X7087Y12795
X5906
X6496Y9252
X5906Y5709
X6496Y4528
X21358Y5791
X22441Y6388
X23819
X24311Y6388
X24213Y6890
X25394
X25295Y6388
X25787Y5512
X24803Y5496
X23819Y5502
X22933Y3937
X23490Y3380
X26575Y4528
X27756
X28346Y5709
X27953Y6211
X27165Y5709
X26969Y7398
X26378Y7283
Y7874
X24803Y8071
X24819Y10138
X25181
Y10532
X25128Y10925
X25217Y11791
X24783
Y12224
X25217
X26083Y11880
X26492Y12106
X26854
Y12484
X27280Y12106
X27165Y10433
X28346
X29528
X31004Y10532
Y10925
X31398
X31407Y10532
X31890Y8071
X31102Y7874
Y7283
X30512Y7760
X29528Y8071
X29705Y6988
Y6614
X30118Y4528
X31299
X32480
X33661
X34252Y5709
X35433
X36614
X36024Y6890
X34843
X33661
X34252Y8071
X35433
X36614
X36024Y4528
X36614Y3346
X34252
X31890Y5709
X35433Y12795
X26575Y13976
X25181Y13878
X24819
Y13484
X24872Y13091
X24213Y13976
X23031
X21850
X22720Y11909
X23146
X23508
X23917Y12136
X23146Y11516
X23327Y8750
X22933
X21260Y8071
X37795
X38386Y6890
X37205
X37795Y5709
X38386Y4528
X37205
X37795Y3346
T02
X1299Y-14449
X1969Y-14724
X2638Y-14449
X2913Y-13780
X2638Y-13110
X1299
X1024Y-13780
X36457
X36732Y-14449
Y-13110
X38071
X38346Y-13780
X38071Y-14449
X37402Y-14724
Y-12835
X1969
Y12835
X2638Y13110
X2913Y13780
X2638Y14449
X1969Y14724
X1299Y14449
X1024Y13780
X1299Y13110
X36732Y13110
X36457Y13780
X36732Y14449
X37402Y14724
X38071Y14449
X38346Y13780
X38071Y13110
X37402Y12835
T03
X37315Y-500
Y500
X36315Y1000
Y0
Y-1000
X35315Y-1500
Y-500
Y500
Y1500
X34315Y1000
Y0
Y-1000
X33315Y-500
Y500
T04
X37815Y-2500
Y2500
X32815
Y-2500
T05
X36122Y-8427
Y-6927
T06
X9646Y-13976
X37598Y10118
T07
X8642Y-14980
Y-12972
X10650
Y-14980
X36594Y9114
Y11122
X38602
Y9114
T08
X4724Y-12401
X4724Y12402
T09
X1969Y-13780
X37402
X1969Y13780
X37402Y13780
T10
X3937Y-10704
X5138Y10705
M30
