G04*
G04 #@! TF.GenerationSoftware,Altium Limited,Altium Designer,23.11.1 (41)*
G04*
G04 Layer_Color=8421504*
%FSLAX25Y25*%
%MOIN*%
G70*
G04*
G04 #@! TF.SameCoordinates,29EA51B2-5BA9-446F-9376-B5E75E75F833*
G04*
G04*
G04 #@! TF.FilePolarity,Positive*
G04*
G01*
G75*
%ADD20R,0.02049X0.02246*%
%ADD21R,0.03165X0.03559*%
%ADD22R,0.02390X0.02390*%
%ADD23R,0.04249X0.00903*%
%ADD24R,0.00903X0.04249*%
%ADD25R,0.10039X0.10039*%
%ADD26R,0.02246X0.02049*%
%ADD27R,0.02390X0.02390*%
%ADD28R,0.01087X0.04236*%
%ADD29R,0.04236X0.01087*%
%ADD30R,0.07843X0.07843*%
G04:AMPARAMS|DCode=31|XSize=10.74mil|YSize=81.61mil|CornerRadius=0mil|HoleSize=0mil|Usage=FLASHONLY|Rotation=45.000|XOffset=0mil|YOffset=0mil|HoleType=Round|Shape=Round|*
%AMOVALD31*
21,1,0.07087,0.01074,0.00000,0.00000,135.0*
1,1,0.01074,0.02506,-0.02506*
1,1,0.01074,-0.02506,0.02506*
%
%ADD31OVALD31*%

G04:AMPARAMS|DCode=32|XSize=10.74mil|YSize=81.61mil|CornerRadius=0mil|HoleSize=0mil|Usage=FLASHONLY|Rotation=315.000|XOffset=0mil|YOffset=0mil|HoleType=Round|Shape=Round|*
%AMOVALD32*
21,1,0.07087,0.01074,0.00000,0.00000,45.0*
1,1,0.01074,-0.02506,-0.02506*
1,1,0.01074,0.02506,0.02506*
%
%ADD32OVALD32*%

%ADD33R,0.02476X0.01099*%
%ADD34R,0.03927X0.03730*%
%ADD35R,0.03730X0.03927*%
%ADD36R,0.05538X0.02192*%
%ADD37R,0.02192X0.05538*%
%ADD38R,0.18787X0.14850*%
%ADD39R,0.11578X0.11578*%
%ADD40O,0.03476X0.00720*%
%ADD41O,0.00720X0.03476*%
%ADD42C,0.05603*%
G04:AMPARAMS|DCode=43|XSize=22.46mil|YSize=20.49mil|CornerRadius=0mil|HoleSize=0mil|Usage=FLASHONLY|Rotation=225.000|XOffset=0mil|YOffset=0mil|HoleType=Round|Shape=Rectangle|*
%AMROTATEDRECTD43*
4,1,4,0.00070,0.01519,0.01519,0.00070,-0.00070,-0.01519,-0.01519,-0.00070,0.00070,0.01519,0.0*
%
%ADD43ROTATEDRECTD43*%

G04:AMPARAMS|DCode=44|XSize=22.46mil|YSize=20.49mil|CornerRadius=0mil|HoleSize=0mil|Usage=FLASHONLY|Rotation=135.000|XOffset=0mil|YOffset=0mil|HoleType=Round|Shape=Rectangle|*
%AMROTATEDRECTD44*
4,1,4,0.01519,-0.00070,0.00070,-0.01519,-0.01519,0.00070,-0.00070,0.01519,0.01519,-0.00070,0.0*
%
%ADD44ROTATEDRECTD44*%

G36*
X19685Y-129921D02*
X20461D01*
X21982Y-130224D01*
X23415Y-130817D01*
X24704Y-131679D01*
X25801Y-132776D01*
X26663Y-134065D01*
X27256Y-135498D01*
X27559Y-137020D01*
Y-137795D01*
Y-138571D01*
X27256Y-140092D01*
X26663Y-141525D01*
X25801Y-142815D01*
X24704Y-143911D01*
X23415Y-144773D01*
X21982Y-145367D01*
X20460Y-145669D01*
X19685D01*
X18910Y-145669D01*
X17388Y-145367D01*
X15955Y-144773D01*
X14666Y-143911D01*
X13569Y-142815D01*
X12707Y-141525D01*
X12114Y-140092D01*
X11811Y-138571D01*
Y-137795D01*
X11811Y-137020D01*
X12114Y-135498D01*
X12707Y-134065D01*
X13569Y-132776D01*
X14666Y-131679D01*
X15955Y-130817D01*
X17388Y-130224D01*
X18910Y-129921D01*
X19685D01*
D01*
D02*
G37*
G36*
Y145669D02*
X20461D01*
X21982Y145367D01*
X23415Y144773D01*
X24704Y143911D01*
X25801Y142815D01*
X26663Y141525D01*
X27256Y140092D01*
X27559Y138571D01*
Y137795D01*
Y137020D01*
X27256Y135498D01*
X26663Y134065D01*
X25801Y132776D01*
X24704Y131679D01*
X23415Y130817D01*
X21982Y130224D01*
X20460Y129921D01*
X19685D01*
X18910Y129921D01*
X17388Y130224D01*
X15955Y130817D01*
X14666Y131679D01*
X13569Y132776D01*
X12707Y134065D01*
X12114Y135498D01*
X11811Y137020D01*
Y137795D01*
X11811Y138571D01*
X12114Y140092D01*
X12707Y141525D01*
X13569Y142815D01*
X14666Y143911D01*
X15955Y144773D01*
X17388Y145367D01*
X18910Y145669D01*
X19685D01*
D01*
D02*
G37*
G36*
X374016Y-129921D02*
X374791D01*
X376312Y-130224D01*
X377746Y-130817D01*
X379035Y-131679D01*
X380132Y-132776D01*
X380994Y-134065D01*
X381587Y-135498D01*
X381890Y-137020D01*
Y-137795D01*
Y-138571D01*
X381587Y-140092D01*
X380994Y-141525D01*
X380132Y-142815D01*
X379035Y-143911D01*
X377746Y-144773D01*
X376312Y-145367D01*
X374791Y-145669D01*
X374016D01*
X373240Y-145669D01*
X371719Y-145367D01*
X370286Y-144773D01*
X368996Y-143911D01*
X367900Y-142815D01*
X367038Y-141525D01*
X366444Y-140092D01*
X366142Y-138571D01*
Y-137795D01*
X366142Y-137020D01*
X366444Y-135498D01*
X367038Y-134065D01*
X367900Y-132776D01*
X368996Y-131679D01*
X370286Y-130817D01*
X371719Y-130224D01*
X373240Y-129921D01*
X374016D01*
D01*
D02*
G37*
G36*
X374016Y145669D02*
X374791D01*
X376312Y145367D01*
X377746Y144773D01*
X379035Y143911D01*
X380132Y142815D01*
X380994Y141525D01*
X381587Y140092D01*
X381890Y138571D01*
Y137795D01*
Y137020D01*
X381587Y135498D01*
X380994Y134065D01*
X380132Y132776D01*
X379035Y131679D01*
X377746Y130817D01*
X376312Y130224D01*
X374791Y129921D01*
X374016D01*
X373240Y129921D01*
X371719Y130224D01*
X370286Y130817D01*
X368996Y131679D01*
X367900Y132776D01*
X367038Y134065D01*
X366444Y135498D01*
X366142Y137020D01*
Y137795D01*
X366142Y138571D01*
X366444Y140092D01*
X367038Y141525D01*
X367900Y142815D01*
X368996Y143911D01*
X370286Y144773D01*
X371719Y145367D01*
X373240Y145669D01*
X374016D01*
D01*
D02*
G37*
D20*
X314075Y105315D02*
D03*
X317815D02*
D03*
Y97441D02*
D03*
X314075D02*
D03*
X317717Y101378D02*
D03*
X313976D02*
D03*
X96555Y38386D02*
D03*
X100295D02*
D03*
X113091Y108268D02*
D03*
X109350D02*
D03*
Y103347D02*
D03*
X113091D02*
D03*
X272736Y116142D02*
D03*
X276476D02*
D03*
X272736Y125000D02*
D03*
X276476D02*
D03*
X227264Y124016D02*
D03*
X223524D02*
D03*
Y115157D02*
D03*
X227264D02*
D03*
X272736Y112205D02*
D03*
X276476D02*
D03*
X227264Y127953D02*
D03*
X223524D02*
D03*
X206594Y64961D02*
D03*
X202854D02*
D03*
X378839Y-114173D02*
D03*
X375098D02*
D03*
X375098Y-106299D02*
D03*
X378839D02*
D03*
X340650Y105315D02*
D03*
X344390D02*
D03*
X166437Y128937D02*
D03*
X170177D02*
D03*
X96555Y22638D02*
D03*
X100295D02*
D03*
X96555Y6890D02*
D03*
X100295D02*
D03*
X96555Y54134D02*
D03*
X100295D02*
D03*
X340650Y101378D02*
D03*
X344390D02*
D03*
X121161Y92520D02*
D03*
X124902D02*
D03*
Y96457D02*
D03*
X121161D02*
D03*
X170177Y114173D02*
D03*
X166437D02*
D03*
X144783Y134843D02*
D03*
X148524D02*
D03*
X131004D02*
D03*
X134744D02*
D03*
Y92520D02*
D03*
X131004D02*
D03*
X210728Y64961D02*
D03*
X214469D02*
D03*
D21*
X84547Y38386D02*
D03*
X90650D02*
D03*
X358169Y-106299D02*
D03*
X364272D02*
D03*
X364272Y-114173D02*
D03*
X358169D02*
D03*
X84547Y22638D02*
D03*
X90650D02*
D03*
X84547Y6890D02*
D03*
X90650D02*
D03*
X84547Y54134D02*
D03*
X90650D02*
D03*
D22*
X166496Y104331D02*
D03*
X170118D02*
D03*
X166496Y109252D02*
D03*
X170118D02*
D03*
Y119095D02*
D03*
X166496D02*
D03*
X170118Y124016D02*
D03*
X166496D02*
D03*
X109409Y113189D02*
D03*
X113031D02*
D03*
X109409Y124016D02*
D03*
X113031D02*
D03*
X109409Y128937D02*
D03*
X113031D02*
D03*
X301339Y-63976D02*
D03*
X304961D02*
D03*
X301339Y-60039D02*
D03*
X304961D02*
D03*
X229488Y55118D02*
D03*
X233110D02*
D03*
X304961Y2953D02*
D03*
X301339D02*
D03*
X304961Y6890D02*
D03*
X301339D02*
D03*
X264921Y125000D02*
D03*
X268543D02*
D03*
X264921Y121063D02*
D03*
X268543D02*
D03*
X248189Y105315D02*
D03*
X251811D02*
D03*
X248189Y101378D02*
D03*
X251811D02*
D03*
X154685Y134843D02*
D03*
X158307D02*
D03*
X231457Y115157D02*
D03*
X235079D02*
D03*
X231457Y119095D02*
D03*
X235079D02*
D03*
X251811Y134843D02*
D03*
X248189D02*
D03*
X251811Y138779D02*
D03*
X248189D02*
D03*
X276417Y121063D02*
D03*
X272795D02*
D03*
X227205Y119095D02*
D03*
X223583D02*
D03*
X141575Y-95473D02*
D03*
X137953D02*
D03*
X141575Y-45276D02*
D03*
X137953D02*
D03*
X158307Y138779D02*
D03*
X154685D02*
D03*
X179291Y-101378D02*
D03*
X182913D02*
D03*
X179291Y-51181D02*
D03*
X182913D02*
D03*
X179291Y-89567D02*
D03*
X182913D02*
D03*
X179291Y-39370D02*
D03*
X182913D02*
D03*
X144843Y96457D02*
D03*
X148465D02*
D03*
X131063D02*
D03*
X134685D02*
D03*
X158307D02*
D03*
X154685D02*
D03*
X109409Y119095D02*
D03*
X113031D02*
D03*
X206850Y96457D02*
D03*
X210472D02*
D03*
D23*
X278740Y-91535D02*
D03*
Y-89567D02*
D03*
Y-87598D02*
D03*
Y-85630D02*
D03*
Y-83661D02*
D03*
Y-81693D02*
D03*
X262598D02*
D03*
Y-83661D02*
D03*
Y-85630D02*
D03*
Y-87598D02*
D03*
Y-89567D02*
D03*
Y-91535D02*
D03*
X262598Y-24606D02*
D03*
Y-22638D02*
D03*
Y-20669D02*
D03*
Y-18701D02*
D03*
Y-16732D02*
D03*
Y-14764D02*
D03*
X278740D02*
D03*
Y-16732D02*
D03*
Y-18701D02*
D03*
Y-20669D02*
D03*
Y-22638D02*
D03*
Y-24606D02*
D03*
D24*
X275591Y-78543D02*
D03*
X273622D02*
D03*
X271654D02*
D03*
X269685D02*
D03*
X267717D02*
D03*
X265748D02*
D03*
Y-94685D02*
D03*
X267717D02*
D03*
X269685D02*
D03*
X271654D02*
D03*
X273622D02*
D03*
X275591D02*
D03*
X275590Y-27756D02*
D03*
X273622D02*
D03*
X271654D02*
D03*
X269685D02*
D03*
X267717D02*
D03*
X265748D02*
D03*
Y-11614D02*
D03*
X267717D02*
D03*
X269685D02*
D03*
X271654D02*
D03*
X273622D02*
D03*
X275590D02*
D03*
D25*
X270669Y-86614D02*
D03*
X270669Y-19685D02*
D03*
D26*
X277559Y-109350D02*
D03*
Y-113091D02*
D03*
X287402D02*
D03*
Y-109350D02*
D03*
X267717Y-105217D02*
D03*
Y-101476D02*
D03*
X253937Y-76870D02*
D03*
Y-80610D02*
D03*
X272638Y-101476D02*
D03*
Y-105217D02*
D03*
Y-71752D02*
D03*
Y-68012D02*
D03*
X277559Y-63878D02*
D03*
Y-60138D02*
D03*
X287402D02*
D03*
Y-63878D02*
D03*
X282480Y-101476D02*
D03*
Y-105217D02*
D03*
X287402Y-101476D02*
D03*
Y-105217D02*
D03*
X282480Y-71752D02*
D03*
Y-68012D02*
D03*
X292323Y-80610D02*
D03*
Y-76870D02*
D03*
X287402Y-71752D02*
D03*
Y-68012D02*
D03*
X292323Y-92618D02*
D03*
Y-96358D02*
D03*
X297244Y-60138D02*
D03*
Y-63878D02*
D03*
X233268Y87500D02*
D03*
Y83760D02*
D03*
X229331Y87500D02*
D03*
Y83760D02*
D03*
X297244Y6791D02*
D03*
Y3051D02*
D03*
X188976Y92421D02*
D03*
Y88681D02*
D03*
X185039Y92421D02*
D03*
Y88681D02*
D03*
X181102D02*
D03*
Y92421D02*
D03*
X287402Y3051D02*
D03*
Y6791D02*
D03*
X243110Y60138D02*
D03*
Y63878D02*
D03*
X224410Y60138D02*
D03*
Y63878D02*
D03*
X272638Y-34547D02*
D03*
Y-38287D02*
D03*
X292323Y-13681D02*
D03*
Y-9941D02*
D03*
X282480Y-34547D02*
D03*
Y-38287D02*
D03*
X277559Y-42421D02*
D03*
Y-46161D02*
D03*
X287402Y-4823D02*
D03*
Y-1083D02*
D03*
Y-34547D02*
D03*
Y-38287D02*
D03*
Y-46161D02*
D03*
Y-42421D02*
D03*
X282480Y-4823D02*
D03*
Y-1083D02*
D03*
X277559Y3051D02*
D03*
Y6791D02*
D03*
X292323Y-25689D02*
D03*
Y-29429D02*
D03*
X272638Y-4823D02*
D03*
Y-1083D02*
D03*
X267717Y-38287D02*
D03*
Y-34547D02*
D03*
X253937Y-9941D02*
D03*
Y-13681D02*
D03*
X229331Y60138D02*
D03*
Y63878D02*
D03*
X233268Y60138D02*
D03*
Y63878D02*
D03*
X238189Y60138D02*
D03*
Y63878D02*
D03*
Y55020D02*
D03*
Y51279D02*
D03*
X252953Y63878D02*
D03*
Y60138D02*
D03*
X257874Y55118D02*
D03*
Y51378D02*
D03*
D27*
X282480Y-109409D02*
D03*
Y-113031D02*
D03*
X263779Y-60197D02*
D03*
Y-63819D02*
D03*
Y-71693D02*
D03*
Y-68071D02*
D03*
X249016Y-76929D02*
D03*
Y-80551D02*
D03*
X268701Y-60197D02*
D03*
Y-63819D02*
D03*
X277559Y-101535D02*
D03*
Y-105157D02*
D03*
X287402Y-96299D02*
D03*
Y-92677D02*
D03*
X277559Y-71693D02*
D03*
Y-68071D02*
D03*
X287402Y-84803D02*
D03*
Y-88425D02*
D03*
X292323Y-84803D02*
D03*
Y-88425D02*
D03*
X282480Y-60197D02*
D03*
Y-63819D02*
D03*
X287402Y-76929D02*
D03*
Y-80551D02*
D03*
X268701Y115984D02*
D03*
Y112362D02*
D03*
X231299Y124173D02*
D03*
Y127795D02*
D03*
X154528Y-112362D02*
D03*
Y-115984D02*
D03*
X166339Y-77598D02*
D03*
Y-73976D02*
D03*
X170276Y-77598D02*
D03*
Y-73976D02*
D03*
X154528Y-62165D02*
D03*
Y-65787D02*
D03*
X166339Y-27402D02*
D03*
Y-23779D02*
D03*
X170276Y-27402D02*
D03*
Y-23779D02*
D03*
X158465Y-112362D02*
D03*
Y-115984D02*
D03*
Y-62165D02*
D03*
Y-65787D02*
D03*
X208661Y57913D02*
D03*
Y54291D02*
D03*
X263779Y-1142D02*
D03*
Y-4764D02*
D03*
X249016Y-10000D02*
D03*
Y-13622D02*
D03*
X292323Y-17874D02*
D03*
Y-21496D02*
D03*
X287402Y-17874D02*
D03*
Y-21496D02*
D03*
X263779Y6732D02*
D03*
Y3110D02*
D03*
X268701Y6732D02*
D03*
Y3110D02*
D03*
X277559Y-34606D02*
D03*
Y-38228D02*
D03*
X287402Y-10000D02*
D03*
Y-13622D02*
D03*
X282480Y-42480D02*
D03*
Y-46102D02*
D03*
Y6732D02*
D03*
Y3110D02*
D03*
X287402Y-29370D02*
D03*
Y-25748D02*
D03*
X277559Y-4764D02*
D03*
Y-1142D02*
D03*
X188976Y72992D02*
D03*
Y76614D02*
D03*
X203740Y57913D02*
D03*
Y54291D02*
D03*
X213583Y57913D02*
D03*
Y54291D02*
D03*
X243110Y51339D02*
D03*
Y54961D02*
D03*
X252953Y51339D02*
D03*
Y54961D02*
D03*
X248031Y51339D02*
D03*
Y54961D02*
D03*
X203740Y-7047D02*
D03*
Y-10669D02*
D03*
X208661Y-7047D02*
D03*
Y-10669D02*
D03*
X213583Y-7047D02*
D03*
Y-10669D02*
D03*
D28*
X246161Y127165D02*
D03*
X248721D02*
D03*
X251279D02*
D03*
X253839D02*
D03*
Y112992D02*
D03*
X251279D02*
D03*
X248721D02*
D03*
X246161D02*
D03*
D29*
X257087Y123917D02*
D03*
X242913Y121358D02*
D03*
Y123917D02*
D03*
X257087Y121358D02*
D03*
Y118799D02*
D03*
Y116240D02*
D03*
X242913D02*
D03*
Y118799D02*
D03*
D30*
X250000Y120079D02*
D03*
D31*
X204903Y42692D02*
D03*
X203511Y41300D02*
D03*
X202119Y39908D02*
D03*
X200727Y38516D02*
D03*
X199335Y37124D02*
D03*
X197943Y35732D02*
D03*
X196552Y34340D02*
D03*
X195160Y32948D02*
D03*
X193768Y31556D02*
D03*
X192376Y30164D02*
D03*
X190984Y28772D02*
D03*
X189592Y27380D02*
D03*
X227731Y19864D02*
D03*
X226339Y18472D02*
D03*
X224947Y17080D02*
D03*
X223555Y15688D02*
D03*
X222163Y14296D02*
D03*
X220771Y12904D02*
D03*
X219379Y11512D02*
D03*
X217987Y10120D02*
D03*
X216596Y8728D02*
D03*
X215203Y7336D02*
D03*
X213812Y5944D02*
D03*
X212420Y4552D02*
D03*
D32*
Y42692D02*
D03*
X213812Y41300D02*
D03*
X215203Y39908D02*
D03*
X216596Y38516D02*
D03*
X217987Y37124D02*
D03*
X219379Y35732D02*
D03*
X220771Y34340D02*
D03*
X222163Y32948D02*
D03*
X223555Y31556D02*
D03*
X224947Y30164D02*
D03*
X226339Y28772D02*
D03*
X227731Y27380D02*
D03*
X204903Y4552D02*
D03*
X203511Y5944D02*
D03*
X202119Y7336D02*
D03*
X200727Y8728D02*
D03*
X199335Y10120D02*
D03*
X197943Y11512D02*
D03*
X196552Y12904D02*
D03*
X195160Y14296D02*
D03*
X193768Y15688D02*
D03*
X192376Y17080D02*
D03*
X190984Y18472D02*
D03*
X189592Y19864D02*
D03*
D33*
X138091Y44291D02*
D03*
Y42323D02*
D03*
Y40354D02*
D03*
Y38386D02*
D03*
Y36417D02*
D03*
Y34449D02*
D03*
Y32480D02*
D03*
Y30512D02*
D03*
X133563D02*
D03*
Y32480D02*
D03*
Y34449D02*
D03*
Y36417D02*
D03*
Y38386D02*
D03*
Y40354D02*
D03*
Y42323D02*
D03*
Y44291D02*
D03*
Y62008D02*
D03*
Y60039D02*
D03*
Y58071D02*
D03*
Y56102D02*
D03*
Y54134D02*
D03*
Y52165D02*
D03*
Y50197D02*
D03*
Y48228D02*
D03*
X138091D02*
D03*
Y50197D02*
D03*
Y52165D02*
D03*
Y54134D02*
D03*
Y56102D02*
D03*
Y58071D02*
D03*
Y60039D02*
D03*
Y62008D02*
D03*
D34*
X205709Y101378D02*
D03*
X211614D02*
D03*
X184055Y-95473D02*
D03*
X178150D02*
D03*
X184055Y-45276D02*
D03*
X178150D02*
D03*
D35*
X183071Y71850D02*
D03*
Y77756D02*
D03*
D36*
X197933Y88209D02*
D03*
Y83209D02*
D03*
Y78209D02*
D03*
Y73209D02*
D03*
X219390Y88209D02*
D03*
Y83209D02*
D03*
Y78209D02*
D03*
Y73209D02*
D03*
D37*
X159075Y126870D02*
D03*
X154075D02*
D03*
X149075D02*
D03*
X144075D02*
D03*
X159075Y105413D02*
D03*
X154075D02*
D03*
X149075D02*
D03*
X144075D02*
D03*
X120453Y105413D02*
D03*
X125453D02*
D03*
X130453D02*
D03*
X135453D02*
D03*
X120453Y126870D02*
D03*
X125453D02*
D03*
X130453D02*
D03*
X135453D02*
D03*
D38*
X39370Y43307D02*
D03*
D39*
X159449Y-95473D02*
D03*
Y-45276D02*
D03*
D40*
X169488Y-88583D02*
D03*
Y-90551D02*
D03*
Y-92520D02*
D03*
Y-94488D02*
D03*
Y-96457D02*
D03*
Y-98425D02*
D03*
Y-100394D02*
D03*
Y-102362D02*
D03*
X149409D02*
D03*
Y-100394D02*
D03*
Y-98425D02*
D03*
Y-96457D02*
D03*
Y-94488D02*
D03*
Y-92520D02*
D03*
Y-90551D02*
D03*
Y-88583D02*
D03*
X169488Y-38386D02*
D03*
Y-40354D02*
D03*
Y-42323D02*
D03*
Y-44291D02*
D03*
Y-46260D02*
D03*
Y-48228D02*
D03*
Y-50197D02*
D03*
Y-52165D02*
D03*
X149409D02*
D03*
Y-50197D02*
D03*
Y-48228D02*
D03*
Y-46260D02*
D03*
Y-44291D02*
D03*
Y-42323D02*
D03*
Y-40354D02*
D03*
Y-38386D02*
D03*
D41*
X166339Y-105512D02*
D03*
X164370D02*
D03*
X162402D02*
D03*
X160433D02*
D03*
X158465D02*
D03*
X156496D02*
D03*
X154528D02*
D03*
X152559D02*
D03*
Y-85433D02*
D03*
X154528D02*
D03*
X156496D02*
D03*
X158465D02*
D03*
X160433D02*
D03*
X162402D02*
D03*
X164370D02*
D03*
X166339D02*
D03*
Y-55315D02*
D03*
X164370D02*
D03*
X162402D02*
D03*
X160433D02*
D03*
X158465D02*
D03*
X156496D02*
D03*
X154528D02*
D03*
X152559D02*
D03*
Y-35236D02*
D03*
X154528D02*
D03*
X156496D02*
D03*
X158465D02*
D03*
X160433D02*
D03*
X162402D02*
D03*
X164370D02*
D03*
X166339D02*
D03*
D42*
X37402Y-68898D02*
D03*
Y-92520D02*
D03*
X21654D02*
D03*
Y-68898D02*
D03*
D43*
X146204Y-61165D02*
D03*
X143560Y-58520D02*
D03*
X146204Y-111362D02*
D03*
X143560Y-108717D02*
D03*
D44*
X143363Y-82031D02*
D03*
X146007Y-79386D02*
D03*
X143363Y-31834D02*
D03*
X146007Y-29190D02*
D03*
M02*
