G04*
G04 #@! TF.GenerationSoftware,Altium Limited,Altium Designer,23.11.1 (41)*
G04*
G04 Layer_Physical_Order=3*
G04 Layer_Color=36540*
%FSLAX25Y25*%
%MOIN*%
G70*
G04*
G04 #@! TF.SameCoordinates,29EA51B2-5BA9-446F-9376-B5E75E75F833*
G04*
G04*
G04 #@! TF.FilePolarity,Positive*
G04*
G01*
G75*
%ADD11C,0.00984*%
%ADD14C,0.01968*%
%ADD15C,0.00787*%
%ADD78C,0.02362*%
%ADD81C,0.01968*%
%ADD84C,0.01772*%
G36*
X113776Y123086D02*
X113702Y122997D01*
X113637Y122906D01*
X113581Y122812D01*
X113533Y122715D01*
X113495Y122616D01*
X113464Y122514D01*
X113443Y122410D01*
X113429Y122303D01*
X113425Y122194D01*
X112638D01*
X112634Y122303D01*
X112620Y122410D01*
X112599Y122514D01*
X112568Y122616D01*
X112530Y122715D01*
X112482Y122812D01*
X112426Y122906D01*
X112361Y122997D01*
X112287Y123086D01*
X112205Y123172D01*
X113858D01*
X113776Y123086D01*
D02*
G37*
G36*
X127168Y111090D02*
X127179Y110975D01*
X127198Y110864D01*
X127224Y110758D01*
X127259Y110656D01*
X127301Y110558D01*
X127352Y110465D01*
X127410Y110376D01*
X127477Y110291D01*
X127551Y110210D01*
X126994Y109654D01*
X126914Y109728D01*
X126829Y109794D01*
X126740Y109853D01*
X126646Y109903D01*
X126549Y109946D01*
X126447Y109981D01*
X126341Y110007D01*
X126230Y110026D01*
X126115Y110037D01*
X125996Y110039D01*
X127165Y111209D01*
X127168Y111090D01*
D02*
G37*
G36*
X314726Y104570D02*
X314693Y104521D01*
X314663Y104464D01*
X314638Y104401D01*
X314616Y104331D01*
X314598Y104253D01*
X314585Y104168D01*
X314575Y104077D01*
X314567Y103872D01*
X313583D01*
X313581Y103978D01*
X313565Y104168D01*
X313551Y104253D01*
X313533Y104331D01*
X313512Y104401D01*
X313486Y104464D01*
X313457Y104521D01*
X313423Y104570D01*
X313386Y104612D01*
X314764D01*
X314726Y104570D01*
D02*
G37*
G36*
X155259Y105308D02*
X155271Y105216D01*
X155292Y105124D01*
X155322Y105033D01*
X155360Y104942D01*
X155407Y104852D01*
X155463Y104763D01*
X155528Y104675D01*
X155601Y104588D01*
X155683Y104501D01*
X154987Y103805D01*
X154900Y103887D01*
X154813Y103960D01*
X154725Y104025D01*
X154636Y104081D01*
X154546Y104128D01*
X154456Y104166D01*
X154365Y104196D01*
X154273Y104217D01*
X154180Y104229D01*
X154087Y104232D01*
X155256Y105402D01*
X155259Y105308D01*
D02*
G37*
G36*
X126567Y24632D02*
X126493Y24552D01*
X126426Y24467D01*
X126368Y24378D01*
X126317Y24284D01*
X126275Y24187D01*
X126240Y24085D01*
X126213Y23978D01*
X126195Y23868D01*
X126184Y23753D01*
X126181Y23634D01*
X125012Y24803D01*
X125131Y24806D01*
X125246Y24817D01*
X125356Y24835D01*
X125463Y24862D01*
X125565Y24896D01*
X125662Y24939D01*
X125756Y24990D01*
X125845Y25048D01*
X125930Y25115D01*
X126010Y25189D01*
X126567Y24632D01*
D02*
G37*
G36*
X125930Y20429D02*
X126019Y20356D01*
X126110Y20291D01*
X126204Y20235D01*
X126300Y20187D01*
X126400Y20148D01*
X126501Y20118D01*
X126606Y20096D01*
X126713Y20083D01*
X126822Y20079D01*
Y19291D01*
X126713Y19287D01*
X126606Y19274D01*
X126501Y19252D01*
X126400Y19222D01*
X126300Y19183D01*
X126204Y19135D01*
X126110Y19079D01*
X126019Y19014D01*
X125930Y18940D01*
X125844Y18858D01*
Y20512D01*
X125930Y20429D01*
D02*
G37*
G36*
X124156Y14921D02*
X124070Y15004D01*
X123981Y15077D01*
X123890Y15142D01*
X123796Y15198D01*
X123700Y15246D01*
X123600Y15285D01*
X123499Y15315D01*
X123394Y15337D01*
X123287Y15350D01*
X123178Y15354D01*
Y16142D01*
X123287Y16146D01*
X123394Y16159D01*
X123499Y16181D01*
X123600Y16211D01*
X123700Y16250D01*
X123796Y16298D01*
X123890Y16354D01*
X123981Y16419D01*
X124070Y16492D01*
X124156Y16575D01*
Y14921D01*
D02*
G37*
G36*
X101157Y7523D02*
X101221Y7472D01*
X101289Y7428D01*
X101362Y7390D01*
X101439Y7357D01*
X101520Y7331D01*
X101605Y7310D01*
X101695Y7295D01*
X101788Y7286D01*
X101886Y7283D01*
Y6496D01*
X101788Y6493D01*
X101695Y6484D01*
X101605Y6470D01*
X101520Y6449D01*
X101439Y6422D01*
X101362Y6390D01*
X101289Y6351D01*
X101221Y6307D01*
X101157Y6257D01*
X101097Y6201D01*
Y7579D01*
X101157Y7523D01*
D02*
G37*
G36*
X114936Y5712D02*
X115000Y5661D01*
X115069Y5617D01*
X115141Y5579D01*
X115218Y5546D01*
X115299Y5520D01*
X115385Y5499D01*
X115474Y5484D01*
X115568Y5475D01*
X115666Y5472D01*
Y4685D01*
X115568Y4682D01*
X115474Y4673D01*
X115385Y4659D01*
X115299Y4638D01*
X115218Y4611D01*
X115141Y4579D01*
X115069Y4540D01*
X115000Y4496D01*
X114936Y4446D01*
X114876Y4390D01*
Y5768D01*
X114936Y5712D01*
D02*
G37*
G36*
X296541Y2362D02*
X296499Y2400D01*
X296450Y2433D01*
X296394Y2463D01*
X296330Y2488D01*
X296260Y2510D01*
X296182Y2528D01*
X296097Y2541D01*
X296006Y2551D01*
X295801Y2559D01*
Y3543D01*
X295907Y3545D01*
X296097Y3561D01*
X296182Y3575D01*
X296260Y3593D01*
X296330Y3614D01*
X296394Y3640D01*
X296450Y3669D01*
X296499Y3703D01*
X296541Y3740D01*
Y2362D01*
D02*
G37*
G36*
X288147Y3703D02*
X288196Y3669D01*
X288252Y3640D01*
X288316Y3614D01*
X288386Y3593D01*
X288463Y3575D01*
X288548Y3561D01*
X288640Y3551D01*
X288844Y3543D01*
Y2559D01*
X288739Y2557D01*
X288548Y2541D01*
X288463Y2528D01*
X288386Y2510D01*
X288316Y2488D01*
X288252Y2463D01*
X288196Y2433D01*
X288147Y2400D01*
X288105Y2362D01*
Y3740D01*
X288147Y3703D01*
D02*
G37*
G36*
X278322Y-2054D02*
X278265Y-2128D01*
X278215Y-2207D01*
X278172Y-2293D01*
X278135Y-2384D01*
X278105Y-2481D01*
X278081Y-2583D01*
X278065Y-2691D01*
X278054Y-2805D01*
X278051Y-2924D01*
X277067D01*
X277064Y-2805D01*
X277053Y-2691D01*
X277037Y-2583D01*
X277013Y-2481D01*
X276983Y-2384D01*
X276946Y-2293D01*
X276903Y-2207D01*
X276853Y-2128D01*
X276796Y-2054D01*
X276732Y-1985D01*
X278386D01*
X278322Y-2054D01*
D02*
G37*
G36*
X212880Y-7736D02*
X212820Y-7680D01*
X212756Y-7630D01*
X212687Y-7586D01*
X212614Y-7547D01*
X212538Y-7515D01*
X212457Y-7488D01*
X212371Y-7468D01*
X212282Y-7453D01*
X212188Y-7444D01*
X212090Y-7441D01*
Y-6654D01*
X212188Y-6651D01*
X212282Y-6642D01*
X212371Y-6627D01*
X212457Y-6606D01*
X212538Y-6580D01*
X212614Y-6547D01*
X212687Y-6509D01*
X212756Y-6465D01*
X212820Y-6414D01*
X212880Y-6358D01*
Y-7736D01*
D02*
G37*
G36*
X288238Y-14485D02*
X288174Y-14554D01*
X288117Y-14627D01*
X288066Y-14707D01*
X288022Y-14792D01*
X287985Y-14883D01*
X287955Y-14979D01*
X287931Y-15081D01*
X287914Y-15190D01*
X287904Y-15303D01*
X287901Y-15423D01*
X286917Y-15416D01*
X286913Y-15296D01*
X286904Y-15183D01*
X286887Y-15075D01*
X286864Y-14972D01*
X286834Y-14875D01*
X286797Y-14784D01*
X286754Y-14698D01*
X286704Y-14618D01*
X286648Y-14544D01*
X286584Y-14475D01*
X288238Y-14485D01*
D02*
G37*
G36*
X154924Y-23212D02*
X154933Y-23305D01*
X154948Y-23395D01*
X154969Y-23480D01*
X154995Y-23561D01*
X155028Y-23638D01*
X155066Y-23711D01*
X155110Y-23779D01*
X155160Y-23843D01*
X155217Y-23903D01*
X153839D01*
X153895Y-23843D01*
X153945Y-23779D01*
X153989Y-23711D01*
X154028Y-23638D01*
X154060Y-23561D01*
X154087Y-23480D01*
X154107Y-23395D01*
X154122Y-23305D01*
X154131Y-23212D01*
X154134Y-23114D01*
X154921D01*
X154924Y-23212D01*
D02*
G37*
G36*
X150872Y-24311D02*
X150812Y-24255D01*
X150748Y-24205D01*
X150679Y-24160D01*
X150607Y-24122D01*
X150530Y-24090D01*
X150449Y-24063D01*
X150363Y-24042D01*
X150274Y-24028D01*
X150180Y-24019D01*
X150082Y-24016D01*
Y-23228D01*
X150180Y-23225D01*
X150274Y-23216D01*
X150363Y-23202D01*
X150449Y-23181D01*
X150530Y-23155D01*
X150607Y-23122D01*
X150679Y-23084D01*
X150748Y-23039D01*
X150812Y-22989D01*
X150872Y-22933D01*
Y-24311D01*
D02*
G37*
G36*
X157877Y-24196D02*
X157886Y-24290D01*
X157901Y-24379D01*
X157921Y-24464D01*
X157948Y-24545D01*
X157980Y-24622D01*
X158019Y-24695D01*
X158063Y-24764D01*
X158113Y-24828D01*
X158169Y-24888D01*
X156791D01*
X156847Y-24828D01*
X156898Y-24764D01*
X156942Y-24695D01*
X156980Y-24622D01*
X157013Y-24545D01*
X157039Y-24464D01*
X157060Y-24379D01*
X157075Y-24290D01*
X157084Y-24196D01*
X157087Y-24098D01*
X157874D01*
X157877Y-24196D01*
D02*
G37*
G36*
X160830Y-25180D02*
X160839Y-25274D01*
X160853Y-25363D01*
X160874Y-25449D01*
X160901Y-25530D01*
X160933Y-25607D01*
X160971Y-25679D01*
X161016Y-25748D01*
X161066Y-25812D01*
X161122Y-25872D01*
X159744D01*
X159800Y-25812D01*
X159850Y-25748D01*
X159895Y-25679D01*
X159933Y-25607D01*
X159966Y-25530D01*
X159992Y-25449D01*
X160013Y-25363D01*
X160028Y-25274D01*
X160036Y-25180D01*
X160039Y-25082D01*
X160827D01*
X160830Y-25180D01*
D02*
G37*
G36*
X233995Y-38554D02*
X233903Y-38539D01*
X233810Y-38531D01*
X233716Y-38533D01*
X233621Y-38543D01*
X233524Y-38561D01*
X233427Y-38589D01*
X233328Y-38625D01*
X233228Y-38670D01*
X233128Y-38723D01*
X233026Y-38786D01*
X232489Y-37960D01*
X232588Y-37892D01*
X232677Y-37822D01*
X232759Y-37749D01*
X232832Y-37674D01*
X232897Y-37596D01*
X232953Y-37515D01*
X233001Y-37432D01*
X233040Y-37347D01*
X233071Y-37259D01*
X233094Y-37168D01*
X233995Y-38554D01*
D02*
G37*
G36*
X287901Y-41179D02*
X287903Y-41285D01*
X287919Y-41476D01*
X287932Y-41561D01*
X287950Y-41638D01*
X287971Y-41709D01*
X287997Y-41772D01*
X288026Y-41829D01*
X288059Y-41878D01*
X288096Y-41920D01*
X286718Y-41910D01*
X286756Y-41868D01*
X286789Y-41819D01*
X286819Y-41763D01*
X286845Y-41700D01*
X286867Y-41629D01*
X286885Y-41552D01*
X286899Y-41467D01*
X286909Y-41376D01*
X286917Y-41171D01*
X287901Y-41179D01*
D02*
G37*
G36*
X278053Y-44824D02*
X278069Y-45015D01*
X278083Y-45099D01*
X278100Y-45177D01*
X278122Y-45248D01*
X278148Y-45311D01*
X278177Y-45367D01*
X278211Y-45416D01*
X278248Y-45458D01*
X276870D01*
X276907Y-45416D01*
X276941Y-45367D01*
X276971Y-45311D01*
X276996Y-45248D01*
X277018Y-45177D01*
X277035Y-45099D01*
X277049Y-45015D01*
X277059Y-44923D01*
X277067Y-44719D01*
X278051D01*
X278053Y-44824D01*
D02*
G37*
G36*
X220267Y-47079D02*
X220168Y-47147D01*
X220078Y-47217D01*
X219997Y-47290D01*
X219924Y-47366D01*
X219859Y-47444D01*
X219803Y-47524D01*
X219755Y-47607D01*
X219716Y-47693D01*
X219685Y-47781D01*
X219662Y-47871D01*
X218761Y-46485D01*
X218853Y-46501D01*
X218946Y-46508D01*
X219040Y-46507D01*
X219135Y-46497D01*
X219232Y-46478D01*
X219329Y-46451D01*
X219428Y-46414D01*
X219528Y-46370D01*
X219628Y-46316D01*
X219730Y-46254D01*
X220267Y-47079D01*
D02*
G37*
G36*
X296541Y-64567D02*
X296499Y-64530D01*
X296450Y-64496D01*
X296394Y-64467D01*
X296330Y-64441D01*
X296260Y-64419D01*
X296182Y-64402D01*
X296098Y-64388D01*
X296006Y-64378D01*
X295801Y-64370D01*
Y-63386D01*
X295907Y-63384D01*
X296098Y-63368D01*
X296182Y-63354D01*
X296260Y-63337D01*
X296330Y-63315D01*
X296394Y-63289D01*
X296450Y-63260D01*
X296499Y-63226D01*
X296541Y-63189D01*
Y-64567D01*
D02*
G37*
G36*
X288147Y-63226D02*
X288196Y-63260D01*
X288252Y-63289D01*
X288316Y-63315D01*
X288386Y-63337D01*
X288463Y-63354D01*
X288548Y-63368D01*
X288640Y-63378D01*
X288844Y-63386D01*
Y-64370D01*
X288739Y-64372D01*
X288548Y-64388D01*
X288463Y-64402D01*
X288386Y-64419D01*
X288316Y-64441D01*
X288252Y-64467D01*
X288196Y-64496D01*
X288147Y-64530D01*
X288105Y-64567D01*
Y-63189D01*
X288147Y-63226D01*
D02*
G37*
G36*
X278322Y-68983D02*
X278265Y-69057D01*
X278215Y-69137D01*
X278172Y-69222D01*
X278135Y-69313D01*
X278105Y-69410D01*
X278081Y-69512D01*
X278065Y-69620D01*
X278054Y-69734D01*
X278051Y-69853D01*
X277067D01*
X277064Y-69734D01*
X277053Y-69620D01*
X277037Y-69512D01*
X277013Y-69410D01*
X276983Y-69313D01*
X276946Y-69222D01*
X276903Y-69137D01*
X276853Y-69057D01*
X276796Y-68983D01*
X276732Y-68914D01*
X278386D01*
X278322Y-68983D01*
D02*
G37*
G36*
X151565Y-74803D02*
X151483Y-74806D01*
X151402Y-74816D01*
X151322Y-74833D01*
X151244Y-74857D01*
X151166Y-74888D01*
X151090Y-74927D01*
X151015Y-74973D01*
X150942Y-75025D01*
X150869Y-75086D01*
X150798Y-75153D01*
X150241Y-74596D01*
X150308Y-74525D01*
X150368Y-74452D01*
X150421Y-74378D01*
X150467Y-74303D01*
X150505Y-74227D01*
X150537Y-74150D01*
X150561Y-74071D01*
X150578Y-73992D01*
X150588Y-73911D01*
X150591Y-73829D01*
X151565Y-74803D01*
D02*
G37*
G36*
X154518Y-75787D02*
X154436Y-75790D01*
X154355Y-75800D01*
X154275Y-75817D01*
X154197Y-75841D01*
X154119Y-75873D01*
X154043Y-75911D01*
X153968Y-75957D01*
X153894Y-76010D01*
X153822Y-76070D01*
X153751Y-76137D01*
X153194Y-75580D01*
X153261Y-75509D01*
X153321Y-75436D01*
X153374Y-75363D01*
X153419Y-75288D01*
X153458Y-75212D01*
X153489Y-75134D01*
X153514Y-75056D01*
X153531Y-74976D01*
X153541Y-74895D01*
X153543Y-74813D01*
X154518Y-75787D01*
D02*
G37*
G36*
X157471Y-76772D02*
X157388Y-76774D01*
X157308Y-76784D01*
X157228Y-76801D01*
X157149Y-76826D01*
X157072Y-76857D01*
X156996Y-76895D01*
X156921Y-76941D01*
X156847Y-76994D01*
X156775Y-77054D01*
X156703Y-77121D01*
X156147Y-76565D01*
X156214Y-76493D01*
X156274Y-76421D01*
X156326Y-76347D01*
X156372Y-76272D01*
X156411Y-76196D01*
X156442Y-76118D01*
X156466Y-76040D01*
X156483Y-75960D01*
X156493Y-75879D01*
X156496Y-75797D01*
X157471Y-76772D01*
D02*
G37*
G36*
X160423Y-77756D02*
X160341Y-77759D01*
X160260Y-77768D01*
X160180Y-77786D01*
X160102Y-77810D01*
X160025Y-77841D01*
X159949Y-77880D01*
X159874Y-77925D01*
X159800Y-77978D01*
X159727Y-78038D01*
X159656Y-78105D01*
X159099Y-77549D01*
X159166Y-77477D01*
X159226Y-77405D01*
X159279Y-77331D01*
X159325Y-77256D01*
X159363Y-77180D01*
X159395Y-77103D01*
X159419Y-77024D01*
X159436Y-76945D01*
X159446Y-76864D01*
X159449Y-76781D01*
X160423Y-77756D01*
D02*
G37*
G36*
X288238Y-81415D02*
X288174Y-81483D01*
X288117Y-81556D01*
X288066Y-81636D01*
X288022Y-81721D01*
X287985Y-81812D01*
X287955Y-81908D01*
X287931Y-82011D01*
X287915Y-82119D01*
X287904Y-82232D01*
X287901Y-82352D01*
X286917Y-82345D01*
X286913Y-82226D01*
X286904Y-82112D01*
X286887Y-82004D01*
X286864Y-81901D01*
X286834Y-81804D01*
X286797Y-81713D01*
X286754Y-81628D01*
X286704Y-81547D01*
X286648Y-81473D01*
X286584Y-81404D01*
X288238Y-81415D01*
D02*
G37*
G36*
X287901Y-107912D02*
X287903Y-108018D01*
X287919Y-108208D01*
X287932Y-108293D01*
X287950Y-108371D01*
X287971Y-108441D01*
X287997Y-108505D01*
X288026Y-108561D01*
X288059Y-108610D01*
X288096Y-108653D01*
X286718Y-108642D01*
X286756Y-108600D01*
X286789Y-108551D01*
X286819Y-108495D01*
X286845Y-108432D01*
X286867Y-108361D01*
X286885Y-108284D01*
X286899Y-108200D01*
X286909Y-108108D01*
X286917Y-107903D01*
X287901Y-107912D01*
D02*
G37*
G36*
X278053Y-111753D02*
X278069Y-111944D01*
X278083Y-112029D01*
X278100Y-112106D01*
X278122Y-112177D01*
X278148Y-112240D01*
X278177Y-112296D01*
X278211Y-112346D01*
X278248Y-112388D01*
X276870D01*
X276907Y-112346D01*
X276941Y-112296D01*
X276971Y-112240D01*
X276996Y-112177D01*
X277018Y-112106D01*
X277035Y-112029D01*
X277049Y-111944D01*
X277059Y-111852D01*
X277067Y-111648D01*
X278051D01*
X278053Y-111753D01*
D02*
G37*
D11*
X314075Y101476D02*
Y105315D01*
X166969Y92520D02*
X305118D01*
X314075Y101476D01*
X218504Y-47638D02*
X234252Y-37402D01*
X287402Y-63878D02*
X297244D01*
X287409Y-42414D02*
Y-13644D01*
X277559Y-46161D02*
Y-1142D01*
X277559Y-113091D02*
Y-68071D01*
X287409Y-109343D02*
Y-80573D01*
X287416Y-80566D01*
X287402Y-109350D02*
X287409Y-109343D01*
X287402Y3051D02*
X297244D01*
X154075Y105413D02*
X166969Y92520D01*
D14*
X314075Y105315D02*
D03*
X100394Y6890D02*
D03*
X287402Y-63878D02*
D03*
X37402Y-68898D02*
D03*
X154528Y-74803D02*
D03*
X287402Y-42618D02*
D03*
X287402Y-109350D02*
D03*
X297244Y-63878D02*
D03*
X277559Y-113091D02*
D03*
X213583Y-7047D02*
D03*
X297244Y3051D02*
D03*
X287402D02*
D03*
X277559Y-46161D02*
D03*
X151575Y-23622D02*
D03*
X154528Y-24606D02*
D03*
X157480Y-25591D02*
D03*
X160433Y-26575D02*
D03*
Y-76772D02*
D03*
X157480Y-75787D02*
D03*
X151575Y-73819D02*
D03*
X114173Y5079D02*
D03*
D15*
X121063Y-76772D02*
X133858Y-89567D01*
X125000Y-74803D02*
X135827Y-85630D01*
X128937Y-72835D02*
X137795Y-81693D01*
X132874Y-70866D02*
X139764Y-77756D01*
X147638D01*
X151575Y-73819D01*
X133858Y-89567D02*
X147638D01*
X137795Y-81693D02*
X147638D01*
X135827Y-85630D02*
X147638D01*
Y-89567D02*
X160433Y-76772D01*
X147638Y-85630D02*
X157480Y-75787D01*
X147638Y-81693D02*
X154528Y-74803D01*
X103347Y6890D02*
X117283Y-7047D01*
X213583D01*
X121063Y-25591D02*
X134843Y-11811D01*
X156496D01*
X160433Y-15748D01*
X125000Y19685D02*
X127953D01*
X129921Y13780D02*
Y17717D01*
X127953Y19685D02*
X129921Y17717D01*
X121221Y5079D02*
X129921Y13780D01*
X114173Y5079D02*
X121221D01*
X100394Y6890D02*
X103347D01*
X125000Y23622D02*
X130905Y29528D01*
X123031Y15748D02*
X125000D01*
X121063Y17717D02*
Y81693D01*
Y17717D02*
X123031Y15748D01*
X113031Y89724D02*
X121063Y81693D01*
X113031Y89724D02*
Y124016D01*
X125984Y111221D02*
X130905Y106299D01*
Y29528D02*
Y106299D01*
X121063Y-76772D02*
Y-25591D01*
X136811Y-15748D02*
X154527D01*
X125000Y-27559D02*
X136811Y-15748D01*
X125000Y-74803D02*
Y-27559D01*
X160433Y-26575D02*
Y-15748D01*
X157480Y-25591D02*
Y-18701D01*
X154527Y-15748D02*
X157480Y-18701D01*
X128937Y-72835D02*
Y-29528D01*
X152559Y-19685D02*
X154528Y-21654D01*
X128937Y-29528D02*
X138779Y-19685D01*
X152559D01*
X132874Y-31496D02*
X140748Y-23622D01*
X132874Y-70866D02*
Y-31496D01*
X140748Y-23622D02*
X151575D01*
X154528Y-24606D02*
Y-21654D01*
X44948Y-148492D02*
X45604Y-147836D01*
X46916D01*
X47572Y-148492D01*
Y-149148D01*
X46916Y-149804D01*
X46260D01*
X46916D01*
X47572Y-150460D01*
Y-151116D01*
X46916Y-151772D01*
X45604D01*
X44948Y-151116D01*
D78*
X125000Y19685D02*
D03*
Y23622D02*
D03*
Y15748D02*
D03*
X218504Y-47638D02*
D03*
X277559Y-1142D02*
D03*
X287416Y-13637D02*
D03*
X287416Y-80566D02*
D03*
X277559Y-68071D02*
D03*
X234252Y-37402D02*
D03*
X125984Y111221D02*
D03*
X154075Y105413D02*
D03*
X113031Y124016D02*
D03*
D81*
X37402Y-80709D02*
X62165Y-105473D01*
X81693D01*
X37402Y-80709D02*
Y-68898D01*
D84*
X81693Y-105473D02*
D03*
M02*
