G04*
G04 #@! TF.GenerationSoftware,Altium Limited,Altium Designer,23.11.1 (41)*
G04*
G04 Layer_Color=128*
%FSLAX25Y25*%
%MOIN*%
G70*
G04*
G04 #@! TF.SameCoordinates,29EA51B2-5BA9-446F-9376-B5E75E75F833*
G04*
G04*
G04 #@! TF.FilePolarity,Positive*
G04*
G01*
G75*
%ADD16C,0.00394*%
%ADD20R,0.02049X0.02246*%
%ADD22R,0.02390X0.02390*%
%ADD26R,0.02246X0.02049*%
%ADD27R,0.02390X0.02390*%
%ADD33R,0.02476X0.01099*%
%ADD34R,0.03927X0.03730*%
%ADD35R,0.03730X0.03927*%
%ADD36R,0.05538X0.02192*%
%ADD38R,0.18787X0.14850*%
%ADD101R,0.04563X0.02201*%
%ADD102R,0.08590X0.08590*%
%ADD103R,0.05427X0.00900*%
%ADD104R,0.05571X0.01634*%
%ADD105C,0.02390*%
%ADD106R,0.06342X0.01815*%
%ADD107R,0.02201X0.04563*%
%ADD108R,0.03372X0.02979*%
%ADD109R,0.05168X0.01822*%
%ADD110R,0.06835X0.06835*%
G36*
X19685Y-129921D02*
X20460D01*
X21982Y-130224D01*
X23415Y-130817D01*
X24704Y-131679D01*
X25801Y-132776D01*
X26663Y-134065D01*
X27256Y-135498D01*
X27559Y-137020D01*
Y-137795D01*
Y-138571D01*
X27256Y-140092D01*
X26663Y-141525D01*
X25801Y-142815D01*
X24704Y-143911D01*
X23415Y-144773D01*
X21982Y-145367D01*
X20460Y-145669D01*
X19685D01*
X18910Y-145669D01*
X17388Y-145367D01*
X15955Y-144773D01*
X14666Y-143911D01*
X13569Y-142815D01*
X12707Y-141525D01*
X12114Y-140092D01*
X11811Y-138571D01*
Y-137795D01*
X11811Y-137020D01*
X12114Y-135498D01*
X12707Y-134065D01*
X13569Y-132776D01*
X14666Y-131679D01*
X15955Y-130817D01*
X17388Y-130224D01*
X18910Y-129921D01*
X19685D01*
D01*
D02*
G37*
G36*
Y145669D02*
X20460D01*
X21982Y145367D01*
X23415Y144773D01*
X24704Y143911D01*
X25801Y142815D01*
X26663Y141525D01*
X27256Y140092D01*
X27559Y138571D01*
Y137795D01*
Y137020D01*
X27256Y135498D01*
X26663Y134065D01*
X25801Y132776D01*
X24704Y131679D01*
X23415Y130817D01*
X21982Y130224D01*
X20460Y129921D01*
X19685D01*
X18910Y129921D01*
X17388Y130224D01*
X15955Y130817D01*
X14666Y131679D01*
X13569Y132776D01*
X12707Y134065D01*
X12114Y135498D01*
X11811Y137020D01*
Y137795D01*
X11811Y138571D01*
X12114Y140092D01*
X12707Y141525D01*
X13569Y142815D01*
X14666Y143911D01*
X15955Y144773D01*
X17388Y145367D01*
X18910Y145669D01*
X19685D01*
D01*
D02*
G37*
G36*
X374016Y-129921D02*
X374791D01*
X376312Y-130224D01*
X377746Y-130817D01*
X379035Y-131679D01*
X380132Y-132776D01*
X380994Y-134065D01*
X381587Y-135498D01*
X381890Y-137020D01*
Y-137795D01*
Y-138571D01*
X381587Y-140092D01*
X380994Y-141525D01*
X380132Y-142815D01*
X379035Y-143911D01*
X377746Y-144773D01*
X376312Y-145367D01*
X374791Y-145669D01*
X374016D01*
X373240Y-145669D01*
X371719Y-145367D01*
X370286Y-144773D01*
X368996Y-143911D01*
X367900Y-142815D01*
X367038Y-141525D01*
X366444Y-140092D01*
X366142Y-138571D01*
Y-137795D01*
X366142Y-137020D01*
X366444Y-135498D01*
X367038Y-134065D01*
X367900Y-132776D01*
X368996Y-131679D01*
X370286Y-130817D01*
X371719Y-130224D01*
X373240Y-129921D01*
X374016D01*
D01*
D02*
G37*
G36*
X374016Y145669D02*
X374791D01*
X376312Y145367D01*
X377746Y144773D01*
X379035Y143911D01*
X380132Y142815D01*
X380994Y141525D01*
X381587Y140092D01*
X381890Y138571D01*
Y137795D01*
Y137020D01*
X381587Y135498D01*
X380994Y134065D01*
X380132Y132776D01*
X379035Y131679D01*
X377746Y130817D01*
X376312Y130224D01*
X374791Y129921D01*
X374016D01*
X373240Y129921D01*
X371719Y130224D01*
X370286Y130817D01*
X368996Y131679D01*
X367900Y132776D01*
X367038Y134065D01*
X366444Y135498D01*
X366142Y137020D01*
Y137795D01*
X366142Y138571D01*
X366444Y140092D01*
X367038Y141525D01*
X367900Y142815D01*
X368996Y143911D01*
X370286Y144773D01*
X371719Y145367D01*
X373240Y145669D01*
X374016D01*
D01*
D02*
G37*
D16*
X381890Y-137795D02*
X381825Y-136788D01*
X381632Y-135798D01*
X381314Y-134840D01*
X380876Y-133931D01*
X380326Y-133086D01*
X379672Y-132317D01*
X378925Y-131639D01*
X378098Y-131062D01*
X377203Y-130595D01*
X376256Y-130247D01*
X375272Y-130022D01*
X374268Y-129925D01*
X373260Y-129958D01*
X372264Y-130119D01*
X371296Y-130406D01*
X370374Y-130814D01*
X369511Y-131337D01*
X368722Y-131966D01*
X368020Y-132691D01*
X367417Y-133500D01*
X366921Y-134379D01*
X366543Y-135314D01*
X366287Y-136290D01*
X366158Y-137291D01*
Y-138300D01*
X366287Y-139301D01*
X366543Y-140276D01*
X366921Y-141212D01*
X367417Y-142091D01*
X368020Y-142899D01*
X368722Y-143624D01*
X369511Y-144253D01*
X370374Y-144776D01*
X371296Y-145185D01*
X372264Y-145472D01*
X373260Y-145633D01*
X374268Y-145665D01*
X375272Y-145568D01*
X376256Y-145344D01*
X377203Y-144995D01*
X378098Y-144529D01*
X378925Y-143951D01*
X379672Y-143273D01*
X380326Y-142505D01*
X380876Y-141659D01*
X381314Y-140750D01*
X381632Y-139793D01*
X381825Y-138802D01*
X381890Y-137795D01*
Y-137795D02*
X381825Y-136788D01*
X381632Y-135798D01*
X381314Y-134840D01*
X380876Y-133931D01*
X380326Y-133086D01*
X379672Y-132317D01*
X378925Y-131639D01*
X378098Y-131062D01*
X377203Y-130595D01*
X376256Y-130247D01*
X375272Y-130022D01*
X374268Y-129925D01*
X373260Y-129958D01*
X372264Y-130119D01*
X371296Y-130406D01*
X370374Y-130814D01*
X369511Y-131337D01*
X368722Y-131966D01*
X368020Y-132691D01*
X367417Y-133500D01*
X366921Y-134379D01*
X366543Y-135314D01*
X366287Y-136290D01*
X366158Y-137291D01*
Y-138300D01*
X366287Y-139301D01*
X366543Y-140276D01*
X366921Y-141212D01*
X367417Y-142091D01*
X368020Y-142899D01*
X368722Y-143624D01*
X369511Y-144253D01*
X370374Y-144776D01*
X371296Y-145185D01*
X372264Y-145472D01*
X373260Y-145633D01*
X374268Y-145665D01*
X375272Y-145568D01*
X376256Y-145344D01*
X377203Y-144995D01*
X378098Y-144529D01*
X378925Y-143951D01*
X379672Y-143273D01*
X380326Y-142505D01*
X380876Y-141659D01*
X381314Y-140750D01*
X381632Y-139793D01*
X381825Y-138802D01*
X381890Y-137795D01*
D20*
X256004Y-34843D02*
D03*
X259744D02*
D03*
X256004Y-39370D02*
D03*
X259744D02*
D03*
X147736Y-7874D02*
D03*
X151476D02*
D03*
X147736Y-19685D02*
D03*
X151476D02*
D03*
X147736Y-13780D02*
D03*
X151476D02*
D03*
X147736Y-30512D02*
D03*
X151476D02*
D03*
X147736Y-34449D02*
D03*
X151476D02*
D03*
X328543Y-50197D02*
D03*
X324803D02*
D03*
X170374Y-65945D02*
D03*
X174114D02*
D03*
X320965Y-50197D02*
D03*
X324705D02*
D03*
D22*
X233228Y-70669D02*
D03*
X236850D02*
D03*
X233228Y-75394D02*
D03*
X236850D02*
D03*
D26*
X104331Y73917D02*
D03*
Y77658D02*
D03*
X116142Y14862D02*
D03*
Y18602D02*
D03*
X104331D02*
D03*
Y14862D02*
D03*
X116142Y77658D02*
D03*
Y73917D02*
D03*
X101378Y-109154D02*
D03*
Y-105413D02*
D03*
X279528Y62106D02*
D03*
Y65847D02*
D03*
X279528Y77658D02*
D03*
Y73917D02*
D03*
X221457Y-88484D02*
D03*
Y-84744D02*
D03*
X226378Y-88484D02*
D03*
Y-84744D02*
D03*
X216535Y-88484D02*
D03*
Y-84744D02*
D03*
X129921Y118012D02*
D03*
X342520Y-112303D02*
D03*
Y-116043D02*
D03*
X106299Y5020D02*
D03*
Y8760D02*
D03*
X129921Y114272D02*
D03*
D27*
X81693Y-109095D02*
D03*
Y-105473D02*
D03*
X86614Y-109095D02*
D03*
Y-105473D02*
D03*
X305118Y77598D02*
D03*
Y73976D02*
D03*
X274606Y77598D02*
D03*
Y73976D02*
D03*
X269685D02*
D03*
Y77598D02*
D03*
X181102Y125000D02*
D03*
Y128622D02*
D03*
X114173Y5079D02*
D03*
X112205Y73976D02*
D03*
X218504Y118937D02*
D03*
Y115315D02*
D03*
X92520Y114331D02*
D03*
X305118Y-115984D02*
D03*
X221457Y-98583D02*
D03*
X305118Y-112362D02*
D03*
Y-106142D02*
D03*
Y-102520D02*
D03*
X342520Y-106142D02*
D03*
Y-102520D02*
D03*
X92520Y117953D02*
D03*
X177165Y-134685D02*
D03*
Y-131063D02*
D03*
X139764Y-134685D02*
D03*
Y-131063D02*
D03*
X129921Y129764D02*
D03*
Y126142D02*
D03*
X92520Y129764D02*
D03*
Y126142D02*
D03*
X181102Y115315D02*
D03*
Y118937D02*
D03*
X221457Y-102205D02*
D03*
Y-110079D02*
D03*
Y-106457D02*
D03*
X223425Y-25433D02*
D03*
Y-21811D02*
D03*
X229331Y-25433D02*
D03*
Y-21811D02*
D03*
X112205Y77598D02*
D03*
X108268Y73976D02*
D03*
Y77598D02*
D03*
X114173Y8701D02*
D03*
X110236Y5079D02*
D03*
Y8701D02*
D03*
D33*
X133563Y48228D02*
D03*
Y50197D02*
D03*
Y52165D02*
D03*
Y54134D02*
D03*
Y56102D02*
D03*
Y58071D02*
D03*
Y60039D02*
D03*
Y62008D02*
D03*
X138091D02*
D03*
Y60039D02*
D03*
Y58071D02*
D03*
Y56102D02*
D03*
Y54134D02*
D03*
Y52165D02*
D03*
Y50197D02*
D03*
Y48228D02*
D03*
X133563Y30512D02*
D03*
Y32480D02*
D03*
Y34449D02*
D03*
Y36417D02*
D03*
Y38386D02*
D03*
Y40354D02*
D03*
Y42323D02*
D03*
Y44291D02*
D03*
X138091D02*
D03*
Y42323D02*
D03*
Y40354D02*
D03*
Y38386D02*
D03*
Y36417D02*
D03*
Y34449D02*
D03*
Y32480D02*
D03*
Y30512D02*
D03*
D34*
X239173Y-65158D02*
D03*
X233268D02*
D03*
X213583Y-117126D02*
D03*
X207677D02*
D03*
X320866Y-63976D02*
D03*
X326772D02*
D03*
D35*
X92520Y-112205D02*
D03*
Y-106299D02*
D03*
X311024Y72835D02*
D03*
Y78740D02*
D03*
X263779Y78740D02*
D03*
Y72835D02*
D03*
X190945Y-135827D02*
D03*
Y-141732D02*
D03*
Y-129921D02*
D03*
Y-124016D02*
D03*
X230315Y-129921D02*
D03*
Y-124016D02*
D03*
Y-135827D02*
D03*
Y-141732D02*
D03*
X227362Y-99410D02*
D03*
X299213Y-101378D02*
D03*
Y-107283D02*
D03*
X348425Y-102362D02*
D03*
Y-108268D02*
D03*
Y-70866D02*
D03*
Y-76772D02*
D03*
X299213Y-88583D02*
D03*
Y-82677D02*
D03*
X348425Y-88583D02*
D03*
Y-82677D02*
D03*
X299213Y-70866D02*
D03*
Y-76772D02*
D03*
X135827Y124016D02*
D03*
Y129921D02*
D03*
X86614Y124016D02*
D03*
Y129921D02*
D03*
X227362Y-105315D02*
D03*
D36*
X199902Y-140374D02*
D03*
Y-135374D02*
D03*
Y-130374D02*
D03*
Y-125374D02*
D03*
X221358Y-140374D02*
D03*
Y-135374D02*
D03*
Y-130374D02*
D03*
Y-125374D02*
D03*
X313091Y-87224D02*
D03*
Y-82224D02*
D03*
Y-77224D02*
D03*
Y-72224D02*
D03*
X334547Y-87224D02*
D03*
Y-82224D02*
D03*
Y-77224D02*
D03*
Y-72224D02*
D03*
X210531Y124547D02*
D03*
Y114547D02*
D03*
X100492D02*
D03*
X313090Y-116752D02*
D03*
X121949Y119547D02*
D03*
X334547Y-111752D02*
D03*
X313090D02*
D03*
Y-106752D02*
D03*
Y-101752D02*
D03*
X334547Y-116752D02*
D03*
Y-106752D02*
D03*
Y-101752D02*
D03*
X121949Y129547D02*
D03*
Y124547D02*
D03*
Y114547D02*
D03*
X100492Y129547D02*
D03*
Y124547D02*
D03*
Y119547D02*
D03*
X189075Y114547D02*
D03*
Y119547D02*
D03*
Y124547D02*
D03*
Y129547D02*
D03*
X210531Y119547D02*
D03*
Y129547D02*
D03*
D38*
X184055Y23622D02*
D03*
D101*
X297047Y73622D02*
D03*
Y69882D02*
D03*
Y66142D02*
D03*
X287598Y73622D02*
D03*
Y66142D02*
D03*
D102*
X210630Y-132874D02*
D03*
X323819Y-79724D02*
D03*
D103*
X121850Y37598D02*
D03*
Y54921D02*
D03*
Y64370D02*
D03*
Y62795D02*
D03*
Y61221D02*
D03*
Y59646D02*
D03*
Y58071D02*
D03*
Y56496D02*
D03*
Y53347D02*
D03*
Y51772D02*
D03*
Y50197D02*
D03*
Y48622D02*
D03*
Y47047D02*
D03*
Y45472D02*
D03*
Y43898D02*
D03*
Y42323D02*
D03*
Y40748D02*
D03*
Y39173D02*
D03*
Y36024D02*
D03*
Y34449D02*
D03*
Y32874D02*
D03*
Y31299D02*
D03*
Y29724D02*
D03*
Y28150D02*
D03*
X98622Y64370D02*
D03*
Y62795D02*
D03*
Y61221D02*
D03*
Y59646D02*
D03*
Y58071D02*
D03*
Y56496D02*
D03*
Y54921D02*
D03*
Y53347D02*
D03*
Y51772D02*
D03*
Y50197D02*
D03*
Y48622D02*
D03*
Y47047D02*
D03*
Y45472D02*
D03*
Y43898D02*
D03*
Y42323D02*
D03*
Y40748D02*
D03*
Y39173D02*
D03*
Y37598D02*
D03*
Y36024D02*
D03*
Y34449D02*
D03*
Y32874D02*
D03*
Y31299D02*
D03*
Y29724D02*
D03*
Y28150D02*
D03*
D104*
X121752Y-24705D02*
D03*
Y-4232D02*
D03*
Y-6791D02*
D03*
Y-9350D02*
D03*
Y-11909D02*
D03*
Y-14469D02*
D03*
Y-17028D02*
D03*
Y-19587D02*
D03*
Y-22146D02*
D03*
Y-27264D02*
D03*
X98721Y-4232D02*
D03*
Y-6791D02*
D03*
Y-9350D02*
D03*
Y-11909D02*
D03*
Y-14469D02*
D03*
Y-17028D02*
D03*
Y-19587D02*
D03*
Y-22146D02*
D03*
Y-24705D02*
D03*
Y-27264D02*
D03*
D105*
X31870Y97500D02*
D03*
Y87500D02*
D03*
Y77500D02*
D03*
Y57500D02*
D03*
X26870Y92500D02*
D03*
Y-97500D02*
D03*
Y-92500D02*
D03*
Y-87500D02*
D03*
Y-82500D02*
D03*
Y-77500D02*
D03*
Y-72500D02*
D03*
Y-67500D02*
D03*
Y-62500D02*
D03*
Y-57500D02*
D03*
Y-52500D02*
D03*
Y-47500D02*
D03*
Y-42500D02*
D03*
Y-37500D02*
D03*
Y-32500D02*
D03*
Y-27500D02*
D03*
Y-22500D02*
D03*
Y-17500D02*
D03*
Y-12500D02*
D03*
Y-7500D02*
D03*
Y-2500D02*
D03*
Y2500D02*
D03*
Y7500D02*
D03*
Y12500D02*
D03*
Y17500D02*
D03*
Y22500D02*
D03*
Y27500D02*
D03*
Y32500D02*
D03*
Y37500D02*
D03*
Y42500D02*
D03*
Y47500D02*
D03*
Y52500D02*
D03*
Y57500D02*
D03*
Y62500D02*
D03*
Y67500D02*
D03*
Y72500D02*
D03*
Y77500D02*
D03*
Y82500D02*
D03*
Y87500D02*
D03*
Y97500D02*
D03*
X31870Y-97500D02*
D03*
Y-92500D02*
D03*
Y-87500D02*
D03*
Y-82500D02*
D03*
Y-77500D02*
D03*
Y-72500D02*
D03*
Y-67500D02*
D03*
Y-62500D02*
D03*
Y-57500D02*
D03*
Y-52500D02*
D03*
Y-47500D02*
D03*
Y-42500D02*
D03*
Y-37500D02*
D03*
Y-32500D02*
D03*
Y-27500D02*
D03*
Y-22500D02*
D03*
Y-17500D02*
D03*
Y-12500D02*
D03*
Y-7500D02*
D03*
Y-2500D02*
D03*
Y2500D02*
D03*
Y7500D02*
D03*
Y12500D02*
D03*
Y17500D02*
D03*
Y22500D02*
D03*
Y27500D02*
D03*
Y32500D02*
D03*
Y37500D02*
D03*
Y42500D02*
D03*
Y47500D02*
D03*
Y52500D02*
D03*
Y62500D02*
D03*
Y67500D02*
D03*
Y72500D02*
D03*
Y82500D02*
D03*
Y92500D02*
D03*
X46870Y-97500D02*
D03*
Y-92500D02*
D03*
Y-87500D02*
D03*
Y-82500D02*
D03*
Y-77500D02*
D03*
Y-72500D02*
D03*
Y-67500D02*
D03*
Y-62500D02*
D03*
Y-57500D02*
D03*
Y-52500D02*
D03*
Y-47500D02*
D03*
Y-42500D02*
D03*
Y-37500D02*
D03*
Y-32500D02*
D03*
Y-27500D02*
D03*
Y-22500D02*
D03*
Y-17500D02*
D03*
Y-12500D02*
D03*
Y-7500D02*
D03*
Y-2500D02*
D03*
Y2500D02*
D03*
Y7500D02*
D03*
Y12500D02*
D03*
Y17500D02*
D03*
Y22500D02*
D03*
Y27500D02*
D03*
Y32500D02*
D03*
Y37500D02*
D03*
Y42500D02*
D03*
Y47500D02*
D03*
Y52500D02*
D03*
Y57500D02*
D03*
Y62500D02*
D03*
Y67500D02*
D03*
Y72500D02*
D03*
Y77500D02*
D03*
Y82500D02*
D03*
Y87500D02*
D03*
Y92500D02*
D03*
Y97500D02*
D03*
X51870Y-97500D02*
D03*
Y-92500D02*
D03*
Y-87500D02*
D03*
Y-82500D02*
D03*
Y-77500D02*
D03*
Y-72500D02*
D03*
Y-67500D02*
D03*
Y-62500D02*
D03*
Y-57500D02*
D03*
Y-52500D02*
D03*
Y-47500D02*
D03*
Y-42500D02*
D03*
Y-37500D02*
D03*
Y-32500D02*
D03*
Y-27500D02*
D03*
Y-22500D02*
D03*
Y-17500D02*
D03*
Y-12500D02*
D03*
Y-7500D02*
D03*
Y-2500D02*
D03*
Y2500D02*
D03*
Y7500D02*
D03*
Y12500D02*
D03*
Y17500D02*
D03*
Y22500D02*
D03*
Y27500D02*
D03*
Y32500D02*
D03*
Y37500D02*
D03*
Y42500D02*
D03*
Y47500D02*
D03*
Y52500D02*
D03*
Y57500D02*
D03*
Y62500D02*
D03*
Y67500D02*
D03*
Y72500D02*
D03*
Y77500D02*
D03*
Y82500D02*
D03*
Y87500D02*
D03*
Y92500D02*
D03*
Y97500D02*
D03*
D106*
X212106Y-37402D02*
D03*
X240650Y-39961D02*
D03*
X212106Y-45079D02*
D03*
X240650Y-47638D02*
D03*
Y-34843D02*
D03*
Y-37402D02*
D03*
Y-42520D02*
D03*
Y-45079D02*
D03*
Y-50197D02*
D03*
X212106Y-34843D02*
D03*
Y-39961D02*
D03*
Y-42520D02*
D03*
Y-47638D02*
D03*
Y-50197D02*
D03*
D107*
X214370Y-99606D02*
D03*
X206890D02*
D03*
Y-109055D02*
D03*
X210630D02*
D03*
X214370D02*
D03*
D108*
X367815Y-115157D02*
D03*
X380217D02*
D03*
D109*
X149705Y-136713D02*
D03*
Y-134153D02*
D03*
Y-131595D02*
D03*
Y-129035D02*
D03*
X167224Y-136713D02*
D03*
Y-134153D02*
D03*
Y-131595D02*
D03*
Y-129035D02*
D03*
D110*
X158465Y-132874D02*
D03*
M02*
