G04*
G04 #@! TF.GenerationSoftware,Altium Limited,Altium Designer,23.11.1 (41)*
G04*
G04 Layer_Color=8388736*
%FSLAX25Y25*%
%MOIN*%
G70*
G04*
G04 #@! TF.SameCoordinates,29EA51B2-5BA9-446F-9376-B5E75E75F833*
G04*
G04*
G04 #@! TF.FilePolarity,Negative*
G04*
G01*
G75*
%ADD25R,0.10039X0.10039*%
%ADD45R,0.02165X0.02362*%
%ADD46R,0.03347X0.03740*%
%ADD47C,0.04724*%
%ADD48R,0.02520X0.02520*%
%ADD49R,0.04331X0.00984*%
%ADD50R,0.00984X0.04331*%
%ADD51R,0.02362X0.02165*%
%ADD52R,0.02520X0.02520*%
%ADD53R,0.01181X0.04331*%
%ADD54R,0.04331X0.01181*%
%ADD55R,0.08268X0.08268*%
G04:AMPARAMS|DCode=56|XSize=11.81mil|YSize=82.68mil|CornerRadius=0mil|HoleSize=0mil|Usage=FLASHONLY|Rotation=45.000|XOffset=0mil|YOffset=0mil|HoleType=Round|Shape=Round|*
%AMOVALD56*
21,1,0.07087,0.01181,0.00000,0.00000,135.0*
1,1,0.01181,0.02506,-0.02506*
1,1,0.01181,-0.02506,0.02506*
%
%ADD56OVALD56*%

G04:AMPARAMS|DCode=57|XSize=11.81mil|YSize=82.68mil|CornerRadius=0mil|HoleSize=0mil|Usage=FLASHONLY|Rotation=315.000|XOffset=0mil|YOffset=0mil|HoleType=Round|Shape=Round|*
%AMOVALD57*
21,1,0.07087,0.01181,0.00000,0.00000,45.0*
1,1,0.01181,-0.02506,-0.02506*
1,1,0.01181,0.02506,0.02506*
%
%ADD57OVALD57*%

%ADD58R,0.02559X0.01181*%
%ADD59R,0.04134X0.03937*%
%ADD60R,0.03937X0.04134*%
%ADD61R,0.05709X0.02362*%
%ADD62R,0.02362X0.05709*%
%ADD63R,0.19685X0.15748*%
%ADD64R,0.12205X0.12205*%
%ADD65O,0.03543X0.00787*%
%ADD66O,0.00787X0.03543*%
%ADD67C,0.05906*%
G04:AMPARAMS|DCode=68|XSize=23.62mil|YSize=21.65mil|CornerRadius=0mil|HoleSize=0mil|Usage=FLASHONLY|Rotation=225.000|XOffset=0mil|YOffset=0mil|HoleType=Round|Shape=Rectangle|*
%AMROTATEDRECTD68*
4,1,4,0.00070,0.01601,0.01601,0.00070,-0.00070,-0.01601,-0.01601,-0.00070,0.00070,0.01601,0.0*
%
%ADD68ROTATEDRECTD68*%

G04:AMPARAMS|DCode=69|XSize=23.62mil|YSize=21.65mil|CornerRadius=0mil|HoleSize=0mil|Usage=FLASHONLY|Rotation=135.000|XOffset=0mil|YOffset=0mil|HoleType=Round|Shape=Rectangle|*
%AMROTATEDRECTD69*
4,1,4,0.01601,-0.00070,0.00070,-0.01601,-0.01601,0.00070,-0.00070,0.01601,0.01601,-0.00070,0.0*
%
%ADD69ROTATEDRECTD69*%

%ADD70C,0.24422*%
%ADD71C,0.16548*%
%ADD72C,0.04724*%
%ADD73C,0.05118*%
%ADD74C,0.02500*%
%ADD75C,0.08661*%
%ADD76C,0.07874*%
G04:AMPARAMS|DCode=77|XSize=78.74mil|YSize=78.74mil|CornerRadius=19.68mil|HoleSize=0mil|Usage=FLASHONLY|Rotation=90.000|XOffset=0mil|YOffset=0mil|HoleType=Round|Shape=RoundedRectangle|*
%AMROUNDEDRECTD77*
21,1,0.07874,0.03937,0,0,90.0*
21,1,0.03937,0.07874,0,0,90.0*
1,1,0.03937,0.01968,0.01968*
1,1,0.03937,0.01968,-0.01968*
1,1,0.03937,-0.01968,-0.01968*
1,1,0.03937,-0.01968,0.01968*
%
%ADD77ROUNDEDRECTD77*%
%ADD78C,0.02362*%
D25*
X270669Y-86614D02*
D03*
X270669Y-19685D02*
D03*
D45*
X314075Y105315D02*
D03*
X317815D02*
D03*
Y97441D02*
D03*
X314075D02*
D03*
X317717Y101378D02*
D03*
X313976D02*
D03*
X96555Y38386D02*
D03*
X100295D02*
D03*
X113091Y108268D02*
D03*
X109350D02*
D03*
Y103347D02*
D03*
X113091D02*
D03*
X272736Y116142D02*
D03*
X276476D02*
D03*
X272736Y125000D02*
D03*
X276476D02*
D03*
X227264Y124016D02*
D03*
X223524D02*
D03*
Y115157D02*
D03*
X227264D02*
D03*
X272736Y112205D02*
D03*
X276476D02*
D03*
X227264Y127953D02*
D03*
X223524D02*
D03*
X206594Y64961D02*
D03*
X202854D02*
D03*
X378839Y-114173D02*
D03*
X375098D02*
D03*
X375098Y-106299D02*
D03*
X378839D02*
D03*
X340650Y105315D02*
D03*
X344390D02*
D03*
X166437Y128937D02*
D03*
X170177D02*
D03*
X96555Y22638D02*
D03*
X100295D02*
D03*
X96555Y6890D02*
D03*
X100295D02*
D03*
X96555Y54134D02*
D03*
X100295D02*
D03*
X340650Y101378D02*
D03*
X344390D02*
D03*
X121161Y92520D02*
D03*
X124902D02*
D03*
Y96457D02*
D03*
X121161D02*
D03*
X170177Y114173D02*
D03*
X166437D02*
D03*
X144783Y134843D02*
D03*
X148524D02*
D03*
X131004D02*
D03*
X134744D02*
D03*
Y92520D02*
D03*
X131004D02*
D03*
X210728Y64961D02*
D03*
X214469D02*
D03*
D46*
X84547Y38386D02*
D03*
X90650D02*
D03*
X358169Y-106299D02*
D03*
X364272D02*
D03*
X364272Y-114173D02*
D03*
X358169D02*
D03*
X84547Y22638D02*
D03*
X90650D02*
D03*
X84547Y6890D02*
D03*
X90650D02*
D03*
X84547Y54134D02*
D03*
X90650D02*
D03*
D47*
X328740Y112205D02*
D03*
X185039Y83661D02*
D03*
X29528Y-107283D02*
D03*
X39370Y-39370D02*
D03*
Y-47244D02*
D03*
Y3937D02*
D03*
Y11811D02*
D03*
Y19685D02*
D03*
D48*
X166496Y104331D02*
D03*
X170118D02*
D03*
X166496Y109252D02*
D03*
X170118D02*
D03*
Y119095D02*
D03*
X166496D02*
D03*
X170118Y124016D02*
D03*
X166496D02*
D03*
X109409Y113189D02*
D03*
X113031D02*
D03*
X109409Y124016D02*
D03*
X113031D02*
D03*
X109409Y128937D02*
D03*
X113031D02*
D03*
X301339Y-63976D02*
D03*
X304961D02*
D03*
X301339Y-60039D02*
D03*
X304961D02*
D03*
X229488Y55118D02*
D03*
X233110D02*
D03*
X304961Y2953D02*
D03*
X301339D02*
D03*
X304961Y6890D02*
D03*
X301339D02*
D03*
X264921Y125000D02*
D03*
X268543D02*
D03*
X264921Y121063D02*
D03*
X268543D02*
D03*
X248189Y105315D02*
D03*
X251811D02*
D03*
X248189Y101378D02*
D03*
X251811D02*
D03*
X154685Y134843D02*
D03*
X158307D02*
D03*
X231457Y115157D02*
D03*
X235079D02*
D03*
X231457Y119095D02*
D03*
X235079D02*
D03*
X251811Y134843D02*
D03*
X248189D02*
D03*
X251811Y138779D02*
D03*
X248189D02*
D03*
X276417Y121063D02*
D03*
X272795D02*
D03*
X227205Y119095D02*
D03*
X223583D02*
D03*
X141575Y-95473D02*
D03*
X137953D02*
D03*
X141575Y-45276D02*
D03*
X137953D02*
D03*
X158307Y138779D02*
D03*
X154685D02*
D03*
X179291Y-101378D02*
D03*
X182913D02*
D03*
X179291Y-51181D02*
D03*
X182913D02*
D03*
X179291Y-89567D02*
D03*
X182913D02*
D03*
X179291Y-39370D02*
D03*
X182913D02*
D03*
X144843Y96457D02*
D03*
X148465D02*
D03*
X131063D02*
D03*
X134685D02*
D03*
X158307D02*
D03*
X154685D02*
D03*
X109409Y119095D02*
D03*
X113031D02*
D03*
X206850Y96457D02*
D03*
X210472D02*
D03*
D49*
X278740Y-91535D02*
D03*
Y-89567D02*
D03*
Y-87598D02*
D03*
Y-85630D02*
D03*
Y-83661D02*
D03*
Y-81693D02*
D03*
X262598D02*
D03*
Y-83661D02*
D03*
Y-85630D02*
D03*
Y-87598D02*
D03*
Y-89567D02*
D03*
Y-91535D02*
D03*
X262598Y-24606D02*
D03*
Y-22638D02*
D03*
Y-20669D02*
D03*
Y-18701D02*
D03*
Y-16732D02*
D03*
Y-14764D02*
D03*
X278740D02*
D03*
Y-16732D02*
D03*
Y-18701D02*
D03*
Y-20669D02*
D03*
Y-22638D02*
D03*
Y-24606D02*
D03*
D50*
X275591Y-78543D02*
D03*
X273622D02*
D03*
X271654D02*
D03*
X269685D02*
D03*
X267717D02*
D03*
X265748D02*
D03*
Y-94685D02*
D03*
X267717D02*
D03*
X269685D02*
D03*
X271654D02*
D03*
X273622D02*
D03*
X275591D02*
D03*
X275590Y-27756D02*
D03*
X273622D02*
D03*
X271654D02*
D03*
X269685D02*
D03*
X267717D02*
D03*
X265748D02*
D03*
Y-11614D02*
D03*
X267717D02*
D03*
X269685D02*
D03*
X271654D02*
D03*
X273622D02*
D03*
X275590D02*
D03*
D51*
X277559Y-109350D02*
D03*
Y-113091D02*
D03*
X287402D02*
D03*
Y-109350D02*
D03*
X267717Y-105217D02*
D03*
Y-101476D02*
D03*
X253937Y-76870D02*
D03*
Y-80610D02*
D03*
X272638Y-101476D02*
D03*
Y-105217D02*
D03*
Y-71752D02*
D03*
Y-68012D02*
D03*
X277559Y-63878D02*
D03*
Y-60138D02*
D03*
X287402D02*
D03*
Y-63878D02*
D03*
X282480Y-101476D02*
D03*
Y-105217D02*
D03*
X287402Y-101476D02*
D03*
Y-105217D02*
D03*
X282480Y-71752D02*
D03*
Y-68012D02*
D03*
X292323Y-80610D02*
D03*
Y-76870D02*
D03*
X287402Y-71752D02*
D03*
Y-68012D02*
D03*
X292323Y-92618D02*
D03*
Y-96358D02*
D03*
X297244Y-60138D02*
D03*
Y-63878D02*
D03*
X233268Y87500D02*
D03*
Y83760D02*
D03*
X229331Y87500D02*
D03*
Y83760D02*
D03*
X297244Y6791D02*
D03*
Y3051D02*
D03*
X188976Y92421D02*
D03*
Y88681D02*
D03*
X185039Y92421D02*
D03*
Y88681D02*
D03*
X181102D02*
D03*
Y92421D02*
D03*
X287402Y3051D02*
D03*
Y6791D02*
D03*
X243110Y60138D02*
D03*
Y63878D02*
D03*
X224410Y60138D02*
D03*
Y63878D02*
D03*
X272638Y-34547D02*
D03*
Y-38287D02*
D03*
X292323Y-13681D02*
D03*
Y-9941D02*
D03*
X282480Y-34547D02*
D03*
Y-38287D02*
D03*
X277559Y-42421D02*
D03*
Y-46161D02*
D03*
X287402Y-4823D02*
D03*
Y-1083D02*
D03*
Y-34547D02*
D03*
Y-38287D02*
D03*
Y-46161D02*
D03*
Y-42421D02*
D03*
X282480Y-4823D02*
D03*
Y-1083D02*
D03*
X277559Y3051D02*
D03*
Y6791D02*
D03*
X292323Y-25689D02*
D03*
Y-29429D02*
D03*
X272638Y-4823D02*
D03*
Y-1083D02*
D03*
X267717Y-38287D02*
D03*
Y-34547D02*
D03*
X253937Y-9941D02*
D03*
Y-13681D02*
D03*
X229331Y60138D02*
D03*
Y63878D02*
D03*
X233268Y60138D02*
D03*
Y63878D02*
D03*
X238189Y60138D02*
D03*
Y63878D02*
D03*
Y55020D02*
D03*
Y51279D02*
D03*
X252953Y63878D02*
D03*
Y60138D02*
D03*
X257874Y55118D02*
D03*
Y51378D02*
D03*
D52*
X282480Y-109409D02*
D03*
Y-113031D02*
D03*
X263779Y-60197D02*
D03*
Y-63819D02*
D03*
Y-71693D02*
D03*
Y-68071D02*
D03*
X249016Y-76929D02*
D03*
Y-80551D02*
D03*
X268701Y-60197D02*
D03*
Y-63819D02*
D03*
X277559Y-101535D02*
D03*
Y-105157D02*
D03*
X287402Y-96299D02*
D03*
Y-92677D02*
D03*
X277559Y-71693D02*
D03*
Y-68071D02*
D03*
X287402Y-84803D02*
D03*
Y-88425D02*
D03*
X292323Y-84803D02*
D03*
Y-88425D02*
D03*
X282480Y-60197D02*
D03*
Y-63819D02*
D03*
X287402Y-76929D02*
D03*
Y-80551D02*
D03*
X268701Y115984D02*
D03*
Y112362D02*
D03*
X231299Y124173D02*
D03*
Y127795D02*
D03*
X154528Y-112362D02*
D03*
Y-115984D02*
D03*
X166339Y-77598D02*
D03*
Y-73976D02*
D03*
X170276Y-77598D02*
D03*
Y-73976D02*
D03*
X154528Y-62165D02*
D03*
Y-65787D02*
D03*
X166339Y-27402D02*
D03*
Y-23779D02*
D03*
X170276Y-27402D02*
D03*
Y-23779D02*
D03*
X158465Y-112362D02*
D03*
Y-115984D02*
D03*
Y-62165D02*
D03*
Y-65787D02*
D03*
X208661Y57913D02*
D03*
Y54291D02*
D03*
X263779Y-1142D02*
D03*
Y-4764D02*
D03*
X249016Y-10000D02*
D03*
Y-13622D02*
D03*
X292323Y-17874D02*
D03*
Y-21496D02*
D03*
X287402Y-17874D02*
D03*
Y-21496D02*
D03*
X263779Y6732D02*
D03*
Y3110D02*
D03*
X268701Y6732D02*
D03*
Y3110D02*
D03*
X277559Y-34606D02*
D03*
Y-38228D02*
D03*
X287402Y-10000D02*
D03*
Y-13622D02*
D03*
X282480Y-42480D02*
D03*
Y-46102D02*
D03*
Y6732D02*
D03*
Y3110D02*
D03*
X287402Y-29370D02*
D03*
Y-25748D02*
D03*
X277559Y-4764D02*
D03*
Y-1142D02*
D03*
X188976Y72992D02*
D03*
Y76614D02*
D03*
X203740Y57913D02*
D03*
Y54291D02*
D03*
X213583Y57913D02*
D03*
Y54291D02*
D03*
X243110Y51339D02*
D03*
Y54961D02*
D03*
X252953Y51339D02*
D03*
Y54961D02*
D03*
X248031Y51339D02*
D03*
Y54961D02*
D03*
X203740Y-7047D02*
D03*
Y-10669D02*
D03*
X208661Y-7047D02*
D03*
Y-10669D02*
D03*
X213583Y-7047D02*
D03*
Y-10669D02*
D03*
D53*
X246161Y127165D02*
D03*
X248721D02*
D03*
X251279D02*
D03*
X253839D02*
D03*
Y112992D02*
D03*
X251279D02*
D03*
X248721D02*
D03*
X246161D02*
D03*
D54*
X257087Y123917D02*
D03*
X242913Y121358D02*
D03*
Y123917D02*
D03*
X257087Y121358D02*
D03*
Y118799D02*
D03*
Y116240D02*
D03*
X242913D02*
D03*
Y118799D02*
D03*
D55*
X250000Y120079D02*
D03*
D56*
X204903Y42692D02*
D03*
X203511Y41300D02*
D03*
X202119Y39908D02*
D03*
X200727Y38516D02*
D03*
X199335Y37124D02*
D03*
X197943Y35732D02*
D03*
X196552Y34340D02*
D03*
X195160Y32948D02*
D03*
X193768Y31556D02*
D03*
X192376Y30164D02*
D03*
X190984Y28772D02*
D03*
X189592Y27380D02*
D03*
X227731Y19864D02*
D03*
X226339Y18472D02*
D03*
X224947Y17080D02*
D03*
X223555Y15688D02*
D03*
X222163Y14296D02*
D03*
X220771Y12904D02*
D03*
X219379Y11512D02*
D03*
X217987Y10120D02*
D03*
X216596Y8728D02*
D03*
X215203Y7336D02*
D03*
X213812Y5944D02*
D03*
X212420Y4552D02*
D03*
D57*
Y42692D02*
D03*
X213812Y41300D02*
D03*
X215203Y39908D02*
D03*
X216596Y38516D02*
D03*
X217987Y37124D02*
D03*
X219379Y35732D02*
D03*
X220771Y34340D02*
D03*
X222163Y32948D02*
D03*
X223555Y31556D02*
D03*
X224947Y30164D02*
D03*
X226339Y28772D02*
D03*
X227731Y27380D02*
D03*
X204903Y4552D02*
D03*
X203511Y5944D02*
D03*
X202119Y7336D02*
D03*
X200727Y8728D02*
D03*
X199335Y10120D02*
D03*
X197943Y11512D02*
D03*
X196552Y12904D02*
D03*
X195160Y14296D02*
D03*
X193768Y15688D02*
D03*
X192376Y17080D02*
D03*
X190984Y18472D02*
D03*
X189592Y19864D02*
D03*
D58*
X138091Y44291D02*
D03*
Y42323D02*
D03*
Y40354D02*
D03*
Y38386D02*
D03*
Y36417D02*
D03*
Y34449D02*
D03*
Y32480D02*
D03*
Y30512D02*
D03*
X133563D02*
D03*
Y32480D02*
D03*
Y34449D02*
D03*
Y36417D02*
D03*
Y38386D02*
D03*
Y40354D02*
D03*
Y42323D02*
D03*
Y44291D02*
D03*
Y62008D02*
D03*
Y60039D02*
D03*
Y58071D02*
D03*
Y56102D02*
D03*
Y54134D02*
D03*
Y52165D02*
D03*
Y50197D02*
D03*
Y48228D02*
D03*
X138091D02*
D03*
Y50197D02*
D03*
Y52165D02*
D03*
Y54134D02*
D03*
Y56102D02*
D03*
Y58071D02*
D03*
Y60039D02*
D03*
Y62008D02*
D03*
D59*
X205709Y101378D02*
D03*
X211614D02*
D03*
X184055Y-95473D02*
D03*
X178150D02*
D03*
X184055Y-45276D02*
D03*
X178150D02*
D03*
D60*
X183071Y71850D02*
D03*
Y77756D02*
D03*
D61*
X197933Y88209D02*
D03*
Y83209D02*
D03*
Y78209D02*
D03*
Y73209D02*
D03*
X219390Y88209D02*
D03*
Y83209D02*
D03*
Y78209D02*
D03*
Y73209D02*
D03*
D62*
X159075Y126870D02*
D03*
X154075D02*
D03*
X149075D02*
D03*
X144075D02*
D03*
X159075Y105413D02*
D03*
X154075D02*
D03*
X149075D02*
D03*
X144075D02*
D03*
X120453Y105413D02*
D03*
X125453D02*
D03*
X130453D02*
D03*
X135453D02*
D03*
X120453Y126870D02*
D03*
X125453D02*
D03*
X130453D02*
D03*
X135453D02*
D03*
D63*
X39370Y43307D02*
D03*
D64*
X159449Y-95473D02*
D03*
Y-45276D02*
D03*
D65*
X169488Y-88583D02*
D03*
Y-90551D02*
D03*
Y-92520D02*
D03*
Y-94488D02*
D03*
Y-96457D02*
D03*
Y-98425D02*
D03*
Y-100394D02*
D03*
Y-102362D02*
D03*
X149409D02*
D03*
Y-100394D02*
D03*
Y-98425D02*
D03*
Y-96457D02*
D03*
Y-94488D02*
D03*
Y-92520D02*
D03*
Y-90551D02*
D03*
Y-88583D02*
D03*
X169488Y-38386D02*
D03*
Y-40354D02*
D03*
Y-42323D02*
D03*
Y-44291D02*
D03*
Y-46260D02*
D03*
Y-48228D02*
D03*
Y-50197D02*
D03*
Y-52165D02*
D03*
X149409D02*
D03*
Y-50197D02*
D03*
Y-48228D02*
D03*
Y-46260D02*
D03*
Y-44291D02*
D03*
Y-42323D02*
D03*
Y-40354D02*
D03*
Y-38386D02*
D03*
D66*
X166339Y-105512D02*
D03*
X164370D02*
D03*
X162402D02*
D03*
X160433D02*
D03*
X158465D02*
D03*
X156496D02*
D03*
X154528D02*
D03*
X152559D02*
D03*
Y-85433D02*
D03*
X154528D02*
D03*
X156496D02*
D03*
X158465D02*
D03*
X160433D02*
D03*
X162402D02*
D03*
X164370D02*
D03*
X166339D02*
D03*
Y-55315D02*
D03*
X164370D02*
D03*
X162402D02*
D03*
X160433D02*
D03*
X158465D02*
D03*
X156496D02*
D03*
X154528D02*
D03*
X152559D02*
D03*
Y-35236D02*
D03*
X154528D02*
D03*
X156496D02*
D03*
X158465D02*
D03*
X160433D02*
D03*
X162402D02*
D03*
X164370D02*
D03*
X166339D02*
D03*
D67*
X37402Y-68898D02*
D03*
Y-92520D02*
D03*
X21654D02*
D03*
Y-68898D02*
D03*
D68*
X146204Y-61165D02*
D03*
X143560Y-58520D02*
D03*
X146204Y-111362D02*
D03*
X143560Y-108717D02*
D03*
D69*
X143363Y-82031D02*
D03*
X146007Y-79386D02*
D03*
X143363Y-31834D02*
D03*
X146007Y-29190D02*
D03*
D70*
X374016Y137795D02*
D03*
X19685Y137795D02*
D03*
X374016Y-137795D02*
D03*
X19685D02*
D03*
D71*
X47244Y-124012D02*
D03*
X47244Y124020D02*
D03*
D72*
X333150Y-5000D02*
D03*
X343150Y-10000D02*
D03*
X353150Y-15000D02*
D03*
X363150Y-10000D02*
D03*
X373150Y-5000D02*
D03*
Y5000D02*
D03*
X363150Y10000D02*
D03*
X353150Y15000D02*
D03*
X343150Y10000D02*
D03*
X333150Y5000D02*
D03*
X343150Y0D02*
D03*
X353150Y-5000D02*
D03*
X363150Y0D02*
D03*
X353150Y5000D02*
D03*
D73*
X328150Y-25000D02*
D03*
X378150D02*
D03*
Y25000D02*
D03*
X328150D02*
D03*
D74*
X39370Y-107043D02*
D03*
X51378Y107051D02*
D03*
D75*
X365945Y91142D02*
D03*
X386024D02*
D03*
Y111221D02*
D03*
X365945D02*
D03*
X86417Y-129724D02*
D03*
X106496D02*
D03*
Y-149803D02*
D03*
X86417D02*
D03*
D76*
X375984Y101181D02*
D03*
X361221Y-84272D02*
D03*
X96457Y-139764D02*
D03*
D77*
X361221Y-69272D02*
D03*
D78*
X272835Y-88779D02*
D03*
X268504D02*
D03*
X272835Y-84449D02*
D03*
X268504D02*
D03*
X252165Y117913D02*
D03*
X247835D02*
D03*
X252165Y122244D02*
D03*
X247835D02*
D03*
X155118Y-99803D02*
D03*
Y-95473D02*
D03*
Y-91142D02*
D03*
X159449Y-99803D02*
D03*
Y-95473D02*
D03*
Y-91142D02*
D03*
X163779Y-99803D02*
D03*
Y-95473D02*
D03*
Y-91142D02*
D03*
X155118Y-49606D02*
D03*
Y-45276D02*
D03*
Y-40945D02*
D03*
X159449Y-49606D02*
D03*
Y-45276D02*
D03*
Y-40945D02*
D03*
X163779Y-49606D02*
D03*
Y-45276D02*
D03*
Y-40945D02*
D03*
X268504Y-17520D02*
D03*
X272835D02*
D03*
X268504Y-21850D02*
D03*
X272835D02*
D03*
M02*
