G04*
G04 #@! TF.GenerationSoftware,Altium Limited,Altium Designer,23.11.1 (41)*
G04*
G04 Layer_Physical_Order=4*
G04 Layer_Color=16711680*
%FSLAX25Y25*%
%MOIN*%
G70*
G04*
G04 #@! TF.SameCoordinates,CB1B34B6-0843-45E9-8427-EF7A7B179012*
G04*
G04*
G04 #@! TF.FilePolarity,Positive*
G04*
G01*
G75*
%ADD10C,0.00984*%
%ADD14C,0.00787*%
%ADD50C,0.04724*%
%ADD51C,0.05118*%
%ADD54C,0.01968*%
%ADD56C,0.00492*%
%ADD59C,0.23622*%
%ADD60C,0.02362*%
%ADD61C,0.03150*%
%ADD62C,0.01968*%
%ADD63C,0.07087*%
%ADD64C,0.06890*%
%ADD65C,0.03937*%
%ADD66C,0.04921*%
%ADD67C,0.02953*%
%ADD68C,0.00494*%
G36*
X-37402Y87598D02*
X-37014Y87598D01*
X-36253Y87447D01*
X-35537Y87150D01*
X-34892Y86720D01*
X-34343Y86171D01*
X-33913Y85526D01*
X-33616Y84810D01*
X-33480Y84126D01*
X-33465Y83663D01*
Y83661D01*
X-33465Y83661D01*
X-33465Y83661D01*
X-33465Y77756D01*
X-33465Y77368D01*
X-33616Y76608D01*
X-33913Y75891D01*
X-34343Y75246D01*
X-34892Y74698D01*
X-35537Y74267D01*
X-36253Y73970D01*
X-36939Y73834D01*
X-37402Y73819D01*
X-37402Y73819D01*
Y73819D01*
X-42323D01*
X-42711Y73819D01*
X-43471Y73970D01*
X-44188Y74267D01*
X-44833Y74698D01*
X-45381Y75246D01*
X-45812Y75891D01*
X-46109Y76608D01*
X-46260Y77368D01*
X-46260Y77756D01*
Y84049D01*
X-46109Y84810D01*
X-45812Y85526D01*
X-45381Y86171D01*
X-44833Y86720D01*
X-44188Y87150D01*
X-43471Y87447D01*
X-42711Y87598D01*
X-42323Y87598D01*
X-42323Y87598D01*
X-37402Y87598D01*
D02*
G37*
G36*
X42323Y87598D02*
X42711Y87598D01*
X43471Y87447D01*
X44188Y87150D01*
X44833Y86720D01*
X45381Y86171D01*
X45812Y85526D01*
X46108Y84810D01*
X46244Y84126D01*
X46260Y83663D01*
Y83661D01*
X46260Y83661D01*
X46260Y83661D01*
X46260Y77756D01*
X46260Y77368D01*
X46109Y76608D01*
X45812Y75891D01*
X45381Y75246D01*
X44833Y74698D01*
X44188Y74267D01*
X43471Y73970D01*
X42785Y73834D01*
X42323Y73819D01*
X42323Y73819D01*
Y73819D01*
X37402D01*
X37014Y73819D01*
X36253Y73970D01*
X35537Y74267D01*
X34892Y74698D01*
X34343Y75246D01*
X33913Y75891D01*
X33616Y76608D01*
X33465Y77368D01*
X33465Y77756D01*
Y84049D01*
X33616Y84810D01*
X33913Y85526D01*
X34343Y86171D01*
X34892Y86720D01*
X35537Y87150D01*
X36253Y87447D01*
X37014Y87598D01*
X37402Y87598D01*
X37402Y87598D01*
X42323Y87598D01*
D02*
G37*
G36*
X-17493Y79702D02*
X-17567Y79650D01*
X-17633Y79591D01*
X-17691Y79524D01*
X-17742Y79450D01*
X-17785Y79367D01*
X-17819Y79277D01*
X-17847Y79180D01*
X-17866Y79075D01*
X-17878Y78962D01*
X-17882Y78841D01*
X-18866Y79092D01*
X-18868Y79211D01*
X-18888Y79435D01*
X-18904Y79540D01*
X-18926Y79641D01*
X-18952Y79736D01*
X-18983Y79827D01*
X-19019Y79913D01*
X-19059Y79994D01*
X-19104Y80071D01*
X-17493Y79702D01*
D02*
G37*
G36*
X-17843Y70503D02*
X-17929Y70480D01*
X-18014Y70450D01*
X-18100Y70414D01*
X-18185Y70371D01*
X-18271Y70321D01*
X-18356Y70265D01*
X-18528Y70133D01*
X-18614Y70057D01*
X-18699Y69975D01*
X-19584Y70482D01*
X-19501Y70570D01*
X-19430Y70658D01*
X-19369Y70746D01*
X-19320Y70835D01*
X-19282Y70923D01*
X-19254Y71011D01*
X-19238Y71099D01*
X-19233Y71187D01*
X-19238Y71276D01*
X-19255Y71364D01*
X-17843Y70503D01*
D02*
G37*
G36*
X-19075Y61917D02*
X-19093Y61933D01*
X-19122Y61947D01*
X-19164Y61959D01*
X-19218Y61970D01*
X-19283Y61979D01*
X-19451Y61992D01*
X-19793Y61999D01*
Y62983D01*
X-19686Y62984D01*
X-19427Y63001D01*
X-19361Y63011D01*
X-19305Y63023D01*
X-19259Y63037D01*
X-19223Y63054D01*
X-19198Y63072D01*
X-19183Y63093D01*
X-19075Y61917D01*
D02*
G37*
G36*
X-65321Y30440D02*
X-65403Y30353D01*
X-65476Y30266D01*
X-65541Y30177D01*
X-65596Y30088D01*
X-65644Y29999D01*
X-65682Y29908D01*
X-65712Y29817D01*
X-65733Y29725D01*
X-65745Y29633D01*
X-65748Y29539D01*
X-66917Y30709D01*
X-66824Y30712D01*
X-66731Y30724D01*
X-66640Y30745D01*
X-66548Y30775D01*
X-66458Y30813D01*
X-66368Y30860D01*
X-66279Y30916D01*
X-66191Y30981D01*
X-66104Y31054D01*
X-66017Y31136D01*
X-65321Y30440D01*
D02*
G37*
G36*
X-66600Y29151D02*
X-66618Y29105D01*
X-66633Y29041D01*
X-66646Y28961D01*
X-66667Y28748D01*
X-66669Y28684D01*
X-66102D01*
X-66213Y28571D01*
X-66399Y28353D01*
X-66474Y28248D01*
X-66538Y28144D01*
X-66590Y28043D01*
X-66631Y27945D01*
X-66660Y27849D01*
X-66677Y27755D01*
X-66683Y27664D01*
X-67175D01*
X-67181Y27755D01*
X-67198Y27849D01*
X-67228Y27945D01*
X-67268Y28043D01*
X-67320Y28144D01*
X-67384Y28248D01*
X-67460Y28353D01*
X-67547Y28461D01*
X-67756Y28684D01*
X-67202D01*
X-67225Y29041D01*
X-67241Y29105D01*
X-67258Y29151D01*
X-67277Y29180D01*
X-66581D01*
X-66600Y29151D01*
D02*
G37*
G36*
X-62171Y26503D02*
X-62253Y26416D01*
X-62327Y26329D01*
X-62391Y26240D01*
X-62447Y26151D01*
X-62494Y26062D01*
X-62532Y25971D01*
X-62562Y25880D01*
X-62583Y25788D01*
X-62595Y25696D01*
X-62599Y25602D01*
X-63768Y26772D01*
X-63674Y26775D01*
X-63582Y26787D01*
X-63490Y26808D01*
X-63399Y26838D01*
X-63308Y26876D01*
X-63219Y26923D01*
X-63130Y26979D01*
X-63041Y27044D01*
X-62954Y27117D01*
X-62867Y27199D01*
X-62171Y26503D01*
D02*
G37*
G36*
X-63451Y25214D02*
X-63468Y25168D01*
X-63483Y25104D01*
X-63497Y25024D01*
X-63517Y24811D01*
X-63519Y24747D01*
X-62953D01*
X-63063Y24634D01*
X-63249Y24416D01*
X-63324Y24311D01*
X-63388Y24207D01*
X-63441Y24106D01*
X-63481Y24008D01*
X-63510Y23912D01*
X-63528Y23818D01*
X-63534Y23727D01*
X-64026D01*
X-64031Y23818D01*
X-64049Y23912D01*
X-64078Y24008D01*
X-64118Y24106D01*
X-64171Y24207D01*
X-64235Y24311D01*
X-64310Y24416D01*
X-64397Y24524D01*
X-64606Y24747D01*
X-64052D01*
X-64076Y25104D01*
X-64091Y25168D01*
X-64108Y25214D01*
X-64128Y25243D01*
X-63431D01*
X-63451Y25214D01*
D02*
G37*
G36*
X-59022Y22566D02*
X-59104Y22479D01*
X-59177Y22392D01*
X-59241Y22303D01*
X-59297Y22214D01*
X-59344Y22125D01*
X-59383Y22034D01*
X-59412Y21943D01*
X-59433Y21851D01*
X-59446Y21759D01*
X-59449Y21665D01*
X-60618Y22835D01*
X-60525Y22838D01*
X-60432Y22850D01*
X-60340Y22871D01*
X-60249Y22901D01*
X-60159Y22939D01*
X-60069Y22986D01*
X-59980Y23042D01*
X-59892Y23107D01*
X-59804Y23180D01*
X-59718Y23262D01*
X-59022Y22566D01*
D02*
G37*
G36*
X-60301Y21277D02*
X-60318Y21230D01*
X-60334Y21167D01*
X-60347Y21087D01*
X-60368Y20874D01*
X-60370Y20810D01*
X-59803D01*
X-59913Y20697D01*
X-60099Y20479D01*
X-60175Y20374D01*
X-60239Y20270D01*
X-60291Y20169D01*
X-60332Y20071D01*
X-60361Y19975D01*
X-60378Y19881D01*
X-60384Y19790D01*
X-60876D01*
X-60882Y19881D01*
X-60899Y19975D01*
X-60928Y20071D01*
X-60969Y20169D01*
X-61021Y20270D01*
X-61085Y20374D01*
X-61160Y20479D01*
X-61248Y20587D01*
X-61457Y20810D01*
X-60902D01*
X-60926Y21167D01*
X-60941Y21230D01*
X-60959Y21277D01*
X-60978Y21306D01*
X-60282D01*
X-60301Y21277D01*
D02*
G37*
G36*
X90283Y8886D02*
X90097Y8668D01*
X90022Y8563D01*
X89958Y8459D01*
X89906Y8359D01*
X89865Y8260D01*
X89836Y8164D01*
X89819Y8070D01*
X89813Y7979D01*
X89321D01*
X89315Y8070D01*
X89298Y8164D01*
X89269Y8260D01*
X89228Y8359D01*
X89176Y8459D01*
X89112Y8563D01*
X89036Y8668D01*
X88949Y8776D01*
X88740Y8999D01*
X90394D01*
X90283Y8886D01*
D02*
G37*
G36*
X-58202Y3590D02*
X-58272Y3606D01*
X-58343Y3614D01*
X-58412Y3613D01*
X-58481Y3604D01*
X-58550Y3586D01*
X-58617Y3560D01*
X-58684Y3525D01*
X-58750Y3482D01*
X-58816Y3430D01*
X-58881Y3369D01*
X-59229Y3717D01*
X-59169Y3782D01*
X-59117Y3848D01*
X-59074Y3914D01*
X-59039Y3981D01*
X-59012Y4049D01*
X-58995Y4117D01*
X-58985Y4186D01*
X-58985Y4256D01*
X-58992Y4326D01*
X-59009Y4397D01*
X-58202Y3590D01*
D02*
G37*
G36*
X-51967Y4555D02*
X-51944Y4269D01*
X-51923Y4141D01*
X-51895Y4023D01*
X-51861Y3915D01*
X-51820Y3816D01*
X-51772Y3728D01*
X-51718Y3649D01*
X-51658Y3581D01*
X-52006Y3232D01*
X-52074Y3293D01*
X-52153Y3347D01*
X-52241Y3394D01*
X-52340Y3435D01*
X-52448Y3470D01*
X-52566Y3497D01*
X-52694Y3519D01*
X-52832Y3534D01*
X-53138Y3543D01*
X-51969Y4713D01*
X-51967Y4555D01*
D02*
G37*
G36*
X72744Y-73372D02*
X72822Y-73426D01*
X72911Y-73473D01*
X73009Y-73514D01*
X73118Y-73548D01*
X73236Y-73576D01*
X73364Y-73598D01*
X73502Y-73612D01*
X73807Y-73622D01*
X72638Y-74791D01*
X72636Y-74634D01*
X72613Y-74348D01*
X72592Y-74220D01*
X72564Y-74102D01*
X72530Y-73993D01*
X72489Y-73895D01*
X72442Y-73807D01*
X72387Y-73728D01*
X72327Y-73659D01*
X72675Y-73311D01*
X72744Y-73372D01*
D02*
G37*
G36*
X63885D02*
X63964Y-73426D01*
X64053Y-73473D01*
X64151Y-73514D01*
X64259Y-73548D01*
X64377Y-73576D01*
X64505Y-73598D01*
X64643Y-73612D01*
X64949Y-73622D01*
X63780Y-74791D01*
X63778Y-74634D01*
X63755Y-74348D01*
X63734Y-74220D01*
X63706Y-74102D01*
X63672Y-73993D01*
X63631Y-73895D01*
X63583Y-73807D01*
X63529Y-73728D01*
X63469Y-73659D01*
X63817Y-73311D01*
X63885Y-73372D01*
D02*
G37*
G36*
X55259Y-75630D02*
X55146Y-75520D01*
X54928Y-75334D01*
X54822Y-75258D01*
X54719Y-75194D01*
X54618Y-75142D01*
X54520Y-75102D01*
X54424Y-75072D01*
X54330Y-75055D01*
X54238Y-75049D01*
Y-74557D01*
X54330Y-74551D01*
X54424Y-74534D01*
X54520Y-74505D01*
X54618Y-74464D01*
X54719Y-74412D01*
X54822Y-74348D01*
X54928Y-74273D01*
X55036Y-74185D01*
X55259Y-73976D01*
Y-75630D01*
D02*
G37*
G36*
X-52238Y-98646D02*
X-52164Y-98703D01*
X-52084Y-98753D01*
X-51999Y-98797D01*
X-51907Y-98834D01*
X-51811Y-98864D01*
X-51708Y-98887D01*
X-51600Y-98904D01*
X-51487Y-98914D01*
X-51367Y-98917D01*
Y-99902D01*
X-51487Y-99905D01*
X-51600Y-99915D01*
X-51708Y-99932D01*
X-51811Y-99955D01*
X-51907Y-99985D01*
X-51999Y-100022D01*
X-52084Y-100066D01*
X-52164Y-100116D01*
X-52238Y-100173D01*
X-52306Y-100236D01*
Y-98583D01*
X-52238Y-98646D01*
D02*
G37*
G36*
X-2176Y-107059D02*
X-2231Y-106950D01*
X-2298Y-106852D01*
X-2376Y-106765D01*
X-2467Y-106690D01*
X-2569Y-106627D01*
X-2684Y-106575D01*
X-2811Y-106534D01*
X-2949Y-106505D01*
X-3099Y-106488D01*
X-3262Y-106482D01*
Y-105498D01*
X-3087Y-105493D01*
X-2924Y-105476D01*
X-2773Y-105449D01*
X-2633Y-105411D01*
X-2505Y-105362D01*
X-2389Y-105302D01*
X-2284Y-105231D01*
X-2191Y-105149D01*
X-2110Y-105056D01*
X-2041Y-104953D01*
X-2176Y-107059D01*
D02*
G37*
G36*
X-44417Y-105477D02*
X-44340Y-105530D01*
X-44257Y-105576D01*
X-44169Y-105617D01*
X-44076Y-105651D01*
X-43978Y-105679D01*
X-43875Y-105700D01*
X-43766Y-105716D01*
X-43652Y-105725D01*
X-43533Y-105728D01*
X-43461Y-106713D01*
X-43580Y-106716D01*
X-43694Y-106727D01*
X-43801Y-106745D01*
X-43902Y-106770D01*
X-43997Y-106801D01*
X-44086Y-106841D01*
X-44168Y-106887D01*
X-44245Y-106940D01*
X-44315Y-107000D01*
X-44379Y-107068D01*
X-44489Y-105418D01*
X-44417Y-105477D01*
D02*
G37*
G36*
X-11631Y-107850D02*
X-11866Y-107634D01*
X-12319Y-107270D01*
X-12536Y-107122D01*
X-12746Y-106997D01*
X-12951Y-106895D01*
X-13150Y-106815D01*
X-13342Y-106758D01*
X-13529Y-106724D01*
X-13709Y-106713D01*
X-13743Y-105728D01*
X-13558Y-105717D01*
X-13369Y-105681D01*
X-13177Y-105622D01*
X-12982Y-105539D01*
X-12784Y-105433D01*
X-12582Y-105303D01*
X-12377Y-105149D01*
X-12168Y-104971D01*
X-11956Y-104770D01*
X-11741Y-104545D01*
X-11631Y-107850D01*
D02*
G37*
G36*
X-48301Y-110457D02*
X-48227Y-110514D01*
X-48147Y-110564D01*
X-48061Y-110608D01*
X-47970Y-110645D01*
X-47874Y-110675D01*
X-47771Y-110698D01*
X-47663Y-110715D01*
X-47550Y-110725D01*
X-47430Y-110728D01*
Y-111713D01*
X-47550Y-111716D01*
X-47663Y-111726D01*
X-47771Y-111743D01*
X-47874Y-111766D01*
X-47970Y-111796D01*
X-48061Y-111833D01*
X-48147Y-111877D01*
X-48227Y-111927D01*
X-48301Y-111984D01*
X-48369Y-112047D01*
Y-110394D01*
X-48301Y-110457D01*
D02*
G37*
G36*
X2850Y-113279D02*
X3007Y-113387D01*
X3184Y-113482D01*
X3381Y-113564D01*
X3597Y-113633D01*
X3834Y-113688D01*
X4090Y-113731D01*
X4366Y-113760D01*
X4976Y-113780D01*
X2638Y-116118D01*
X2635Y-115803D01*
X2589Y-115231D01*
X2546Y-114975D01*
X2491Y-114739D01*
X2422Y-114523D01*
X2340Y-114326D01*
X2245Y-114149D01*
X2137Y-113992D01*
X2016Y-113854D01*
X2712Y-113158D01*
X2850Y-113279D01*
D02*
G37*
G36*
X-36490Y-115378D02*
X-36416Y-115435D01*
X-36336Y-115486D01*
X-36250Y-115529D01*
X-36159Y-115566D01*
X-36063Y-115596D01*
X-35960Y-115620D01*
X-35852Y-115636D01*
X-35739Y-115646D01*
X-35619Y-115650D01*
Y-116634D01*
X-35739Y-116637D01*
X-35852Y-116647D01*
X-35960Y-116664D01*
X-36063Y-116687D01*
X-36159Y-116718D01*
X-36250Y-116754D01*
X-36336Y-116798D01*
X-36416Y-116848D01*
X-36490Y-116905D01*
X-36558Y-116969D01*
Y-115315D01*
X-36490Y-115378D01*
D02*
G37*
G36*
X-7022Y-117362D02*
X-7081Y-117280D01*
X-7152Y-117205D01*
X-7236Y-117140D01*
X-7332Y-117084D01*
X-7440Y-117036D01*
X-7560Y-116996D01*
X-7694Y-116966D01*
X-7839Y-116944D01*
X-7997Y-116931D01*
X-8167Y-116927D01*
Y-115943D01*
X-8021Y-115938D01*
X-7888Y-115923D01*
X-7767Y-115899D01*
X-7658Y-115865D01*
X-7561Y-115821D01*
X-7476Y-115768D01*
X-7404Y-115704D01*
X-7344Y-115631D01*
X-7296Y-115549D01*
X-7260Y-115456D01*
X-7022Y-117362D01*
D02*
G37*
G36*
X-16687Y-117795D02*
X-16912Y-117575D01*
X-17348Y-117203D01*
X-17560Y-117052D01*
X-17766Y-116924D01*
X-17968Y-116820D01*
X-18165Y-116738D01*
X-18357Y-116680D01*
X-18545Y-116646D01*
X-18727Y-116634D01*
Y-115650D01*
X-18545Y-115638D01*
X-18357Y-115603D01*
X-18165Y-115545D01*
X-17968Y-115464D01*
X-17766Y-115359D01*
X-17560Y-115232D01*
X-17348Y-115081D01*
X-17133Y-114906D01*
X-16687Y-114488D01*
Y-117795D01*
D02*
G37*
G36*
X22312Y-119888D02*
X22607Y-120083D01*
X22947Y-120255D01*
X23331Y-120404D01*
X23759Y-120529D01*
X24231Y-120633D01*
X24747Y-120713D01*
X25911Y-120805D01*
X26559Y-120816D01*
Y-121310D01*
X25911Y-121321D01*
X24747Y-121413D01*
X24231Y-121493D01*
X23759Y-121597D01*
X23331Y-121722D01*
X22947Y-121871D01*
X22607Y-122043D01*
X22312Y-122238D01*
X22062Y-122455D01*
X21984Y-122570D01*
X21915Y-122755D01*
X21854Y-123008D01*
X21801Y-123330D01*
X21719Y-124181D01*
X21658Y-125971D01*
X21654Y-126705D01*
X19685D01*
X19681Y-125971D01*
X19485Y-123008D01*
X19467Y-122937D01*
X19370Y-122756D01*
X19193Y-122539D01*
X18976Y-122362D01*
X18795Y-122265D01*
X18724Y-122247D01*
X18402Y-122194D01*
X17552Y-122113D01*
X15762Y-122051D01*
X15028Y-122047D01*
Y-121314D01*
X14779Y-121310D01*
Y-120816D01*
X15028Y-120812D01*
Y-120079D01*
X15762Y-120075D01*
X18724Y-119878D01*
X18977Y-119817D01*
X19162Y-119748D01*
X19278Y-119670D01*
Y-120683D01*
X19402Y-120654D01*
X19584Y-120596D01*
X19741Y-120528D01*
X19871Y-120452D01*
X19974Y-120367D01*
Y-121295D01*
X20669Y-121063D01*
X20206Y-122454D01*
X22060D01*
Y-121443D01*
X21937Y-121472D01*
X21754Y-121530D01*
X21598Y-121598D01*
X21468Y-121674D01*
X21365Y-121759D01*
Y-120367D01*
X21468Y-120452D01*
X21598Y-120528D01*
X21754Y-120596D01*
X21937Y-120654D01*
X22060Y-120683D01*
Y-119670D01*
X22312Y-119888D01*
D02*
G37*
G36*
X5878Y-120452D02*
X6007Y-120528D01*
X6164Y-120596D01*
X6346Y-120654D01*
X6556Y-120704D01*
X6792Y-120744D01*
X7343Y-120798D01*
X7658Y-120811D01*
X8000Y-120816D01*
Y-121310D01*
X7658Y-121315D01*
X6792Y-121382D01*
X6556Y-121422D01*
X6346Y-121472D01*
X6164Y-121530D01*
X6007Y-121598D01*
X5878Y-121674D01*
X5774Y-121759D01*
Y-120367D01*
X5878Y-120452D01*
D02*
G37*
G36*
X-40427Y-121284D02*
X-40353Y-121341D01*
X-40273Y-121391D01*
X-40187Y-121435D01*
X-40096Y-121472D01*
X-40000Y-121502D01*
X-39897Y-121525D01*
X-39789Y-121542D01*
X-39676Y-121552D01*
X-39556Y-121555D01*
Y-122539D01*
X-39676Y-122543D01*
X-39789Y-122553D01*
X-39897Y-122570D01*
X-40000Y-122593D01*
X-40096Y-122623D01*
X-40187Y-122660D01*
X-40273Y-122703D01*
X-40353Y-122754D01*
X-40427Y-122810D01*
X-40495Y-122874D01*
Y-121221D01*
X-40427Y-121284D01*
D02*
G37*
G36*
X75311Y-121888D02*
X75250Y-121956D01*
X75196Y-122035D01*
X75149Y-122123D01*
X75108Y-122222D01*
X75074Y-122330D01*
X75046Y-122448D01*
X75024Y-122576D01*
X75010Y-122714D01*
X75000Y-123020D01*
X73831Y-121851D01*
X73988Y-121849D01*
X74274Y-121826D01*
X74402Y-121805D01*
X74520Y-121777D01*
X74629Y-121742D01*
X74727Y-121702D01*
X74815Y-121654D01*
X74894Y-121600D01*
X74963Y-121540D01*
X75311Y-121888D01*
D02*
G37*
G36*
X63886Y-121600D02*
X63965Y-121654D01*
X64054Y-121701D01*
X64152Y-121742D01*
X64260Y-121777D01*
X64378Y-121804D01*
X64506Y-121826D01*
X64644Y-121841D01*
X64949Y-121851D01*
X63780Y-123020D01*
X63778Y-122862D01*
X63755Y-122577D01*
X63734Y-122449D01*
X63706Y-122331D01*
X63671Y-122223D01*
X63630Y-122124D01*
X63583Y-122036D01*
X63529Y-121957D01*
X63468Y-121888D01*
X63818Y-121539D01*
X63886Y-121600D01*
D02*
G37*
G36*
X-55209Y-121600D02*
X-55130Y-121654D01*
X-55042Y-121702D01*
X-54944Y-121742D01*
X-54835Y-121777D01*
X-54717Y-121805D01*
X-54589Y-121826D01*
X-54451Y-121841D01*
X-54146Y-121851D01*
X-55315Y-123020D01*
X-55317Y-122862D01*
X-55339Y-122576D01*
X-55361Y-122448D01*
X-55389Y-122330D01*
X-55423Y-122222D01*
X-55464Y-122123D01*
X-55511Y-122035D01*
X-55565Y-121956D01*
X-55626Y-121888D01*
X-55278Y-121540D01*
X-55209Y-121600D01*
D02*
G37*
G36*
X-64067D02*
X-63989Y-121654D01*
X-63900Y-121702D01*
X-63802Y-121742D01*
X-63693Y-121777D01*
X-63575Y-121805D01*
X-63447Y-121826D01*
X-63309Y-121841D01*
X-63004Y-121851D01*
X-64173Y-123020D01*
X-64175Y-122862D01*
X-64198Y-122576D01*
X-64219Y-122448D01*
X-64247Y-122330D01*
X-64281Y-122222D01*
X-64322Y-122123D01*
X-64369Y-122035D01*
X-64424Y-121956D01*
X-64484Y-121888D01*
X-64136Y-121540D01*
X-64067Y-121600D01*
D02*
G37*
G36*
X5079Y-122047D02*
X4946Y-122060D01*
X4800Y-122098D01*
X4642Y-122160D01*
X4471Y-122248D01*
X4289Y-122361D01*
X4093Y-122500D01*
X3665Y-122851D01*
X3433Y-123065D01*
X3188Y-123303D01*
X2838Y-122954D01*
X3077Y-122709D01*
X3642Y-122049D01*
X3780Y-121853D01*
X3893Y-121670D01*
X3981Y-121500D01*
X4044Y-121342D01*
X4082Y-121196D01*
X4095Y-121062D01*
X5079Y-122047D01*
D02*
G37*
G36*
X2325Y-123426D02*
X2375Y-123398D01*
X2488Y-123304D01*
X2838Y-123653D01*
X2744Y-123767D01*
X2715Y-123816D01*
X3216Y-124317D01*
X3052Y-124491D01*
X2906Y-124666D01*
X2777Y-124842D01*
X2665Y-125020D01*
X2571Y-125199D01*
X2494Y-125380D01*
X2435Y-125563D01*
X2393Y-125746D01*
X2369Y-125931D01*
X2362Y-126118D01*
X1421Y-125178D01*
X1299Y-125352D01*
X1185Y-125534D01*
X1098Y-125705D01*
X1035Y-125863D01*
X997Y-126009D01*
X984Y-126142D01*
X-1Y-125157D01*
X133Y-125145D01*
X279Y-125107D01*
X437Y-125044D01*
X607Y-124956D01*
X790Y-124843D01*
X964Y-124720D01*
X24Y-123780D01*
X210Y-123773D01*
X396Y-123749D01*
X579Y-123707D01*
X762Y-123648D01*
X942Y-123571D01*
X1122Y-123477D01*
X1299Y-123365D01*
X1476Y-123236D01*
X1651Y-123089D01*
X1824Y-122925D01*
X2325Y-123426D01*
D02*
G37*
G36*
X2369Y-126352D02*
X2393Y-126537D01*
X2435Y-126721D01*
X2494Y-126903D01*
X2571Y-127084D01*
X2665Y-127263D01*
X2777Y-127441D01*
X2906Y-127618D01*
X3052Y-127793D01*
X3216Y-127966D01*
X1824Y-129358D01*
X1651Y-129194D01*
X1476Y-129048D01*
X1299Y-128918D01*
X1122Y-128807D01*
X942Y-128712D01*
X762Y-128636D01*
X579Y-128577D01*
X396Y-128535D01*
X210Y-128510D01*
X24Y-128504D01*
X2362Y-126165D01*
X2369Y-126352D01*
D02*
G37*
%LPC*%
G36*
X19278Y-121443D02*
Y-121527D01*
X19423Y-121478D01*
X19402Y-121472D01*
X19278Y-121443D01*
D02*
G37*
%LPD*%
D10*
X-18374Y78083D02*
Y80445D01*
X-66929Y29528D02*
X-18374Y78083D01*
X-41339Y-122047D02*
X-13780D01*
X-19793Y62491D02*
X-18218D01*
X-60630Y21654D02*
X-19793Y62491D01*
X-8167Y-116435D02*
X-5293D01*
X-5000Y-116142D01*
X-13780Y-122047D02*
X-8167Y-116435D01*
X-3262Y-105990D02*
X-152D01*
X0Y-106142D01*
X-9843Y-99410D02*
X-3262Y-105990D01*
X-53150Y-99410D02*
X-9843D01*
X-10079Y-106220D02*
X-10000Y-106142D01*
X-45276Y-106299D02*
X-45197Y-106220D01*
X-10079D01*
X79Y-111221D02*
X5000Y-116142D01*
X-49213Y-111221D02*
X79D01*
X-63779Y25591D02*
X-18374Y70996D01*
X-37402Y-116142D02*
X-15000D01*
D14*
X91191Y7865D02*
X91880Y8749D01*
X92126Y9843D01*
X91922Y10845D01*
X91341Y11687D01*
X90476Y12235D01*
X89467Y12400D01*
X88473Y12156D01*
X87654Y11543D01*
X87141Y10658D01*
X87016Y9642D01*
X87298Y8659D01*
X87943Y7865D01*
X71752Y39370D02*
X71535Y40462D01*
X70916Y41388D01*
X62598Y39370D02*
X62403Y40350D01*
X61847Y41181D01*
X61016Y41736D01*
X60035Y41929D01*
X59055Y41732D01*
X66879Y37352D02*
X67659Y36798D01*
X68578Y36534D01*
X69533Y36587D01*
X70416Y36953D01*
X71129Y37590D01*
X71592Y38427D01*
X71752Y39370D01*
X59055Y37008D02*
X60035Y36811D01*
X61016Y37005D01*
X61847Y37559D01*
X62403Y38390D01*
X62598Y39370D01*
X87008Y-15748D02*
X86872Y-14805D01*
X86477Y-13939D01*
X85853Y-13219D01*
X85052Y-12704D01*
X84138Y-12436D01*
X83185D01*
X82271Y-12704D01*
X81470Y-13219D01*
X80846Y-13939D01*
X80450Y-14805D01*
X80315Y-15748D01*
X46507Y96310D02*
X45581Y96928D01*
X44488Y97146D01*
X55020Y86614D02*
X54802Y87707D01*
X54184Y88633D01*
X55020Y86614D02*
X54802Y87707D01*
X54184Y88633D01*
X46507Y96310D02*
X45581Y96928D01*
X44488Y97146D01*
X25936Y112255D02*
X25010Y112873D01*
X23917Y113091D01*
X25936Y112255D02*
X25010Y112873D01*
X23917Y113091D01*
X24311Y150295D02*
X24210Y151286D01*
X23912Y152236D01*
X23429Y153107D01*
X22780Y153862D01*
X21993Y154472D01*
X21099Y154910D01*
X20135Y155160D01*
X19140Y155210D01*
X18156Y155059D01*
X17222Y154714D01*
X16377Y154187D01*
X15656Y153501D01*
X15087Y152684D01*
X14694Y151769D01*
X14494Y150793D01*
Y149797D01*
X14694Y148822D01*
X15087Y147907D01*
X15656Y147090D01*
X16377Y146404D01*
X17222Y145877D01*
X18156Y145531D01*
X19140Y145380D01*
X20135Y145431D01*
X21099Y145680D01*
X21993Y146119D01*
X22780Y146728D01*
X23429Y147484D01*
X23912Y148355D01*
X24210Y149305D01*
X24311Y150295D01*
X-14764Y150591D02*
X-14864Y151581D01*
X-15163Y152531D01*
X-15646Y153402D01*
X-16295Y154157D01*
X-17082Y154767D01*
X-17976Y155206D01*
X-18940Y155455D01*
X-19934Y155506D01*
X-20919Y155355D01*
X-21852Y155009D01*
X-22697Y154482D01*
X-23419Y153796D01*
X-23988Y152979D01*
X-24381Y152064D01*
X-24581Y151088D01*
Y150093D01*
X-24381Y149117D01*
X-23988Y148202D01*
X-23419Y147385D01*
X-22697Y146699D01*
X-21852Y146172D01*
X-20919Y145826D01*
X-19934Y145676D01*
X-18940Y145726D01*
X-17976Y145976D01*
X-17082Y146414D01*
X-16295Y147024D01*
X-15646Y147779D01*
X-15163Y148650D01*
X-14864Y149600D01*
X-14764Y150591D01*
X-16504Y78717D02*
X-15802Y79605D01*
X-15551Y80709D01*
X-17052Y76761D02*
X-16504Y78083D01*
X-28051Y113091D02*
X-29144Y112873D01*
X-30070Y112255D01*
X-28051Y113091D02*
X-29144Y112873D01*
X-30070Y112255D01*
X-15551Y80709D02*
X-15713Y81603D01*
X-16177Y82385D01*
X-16885Y82955D01*
X-17748Y83242D01*
X-15551Y71653D02*
X-15731Y72595D01*
X-16244Y73405D01*
X-17019Y73968D01*
X-17948Y74207D01*
X-17052Y76761D02*
X-16504Y78083D01*
X-17574Y69151D02*
X-16533Y69639D01*
X-15810Y70533D01*
X-15551Y71653D01*
X49311Y56102D02*
X49528Y55010D01*
X50147Y54084D01*
X49311Y56102D02*
X49528Y55010D01*
X50147Y54084D01*
X39668Y37700D02*
X40435Y37188D01*
X41339Y37008D01*
X39668Y37700D02*
X40435Y37188D01*
X41339Y37008D01*
X27165Y51181D02*
X27345Y50277D01*
X27857Y49511D01*
X27165Y51181D02*
X27345Y50277D01*
X27857Y49511D01*
X-14600Y18865D02*
X-15748Y19341D01*
X-15551Y62598D02*
X-15731Y63540D01*
X-16244Y64350D01*
X-17019Y64913D01*
X-17948Y65152D01*
X-19304Y60335D02*
X-18300Y60046D01*
X-17264Y60184D01*
X-16369Y60723D01*
X-15765Y61576D01*
X-15551Y62598D01*
X-14600Y18865D02*
X-15748Y19341D01*
X14419Y-10827D02*
X13944Y-9678D01*
X14419Y-10827D02*
X13944Y-9678D01*
X-25000Y3937D02*
X-25196Y4918D01*
X-25752Y5749D01*
X-26585Y6303D01*
X-29925Y2963D02*
X-29372Y2131D01*
X-28542Y1574D01*
X-27562Y1378D01*
X-26582Y1572D01*
X-25751Y2126D01*
X-25195Y2957D01*
X-25000Y3937D01*
X1329Y-35433D02*
X1804Y-36581D01*
X1329Y-35433D02*
X1804Y-36581D01*
X86028Y-77169D02*
X86559Y-76476D01*
X86894Y-75669D01*
X87008Y-74803D01*
X86028Y-77169D02*
X86559Y-76476D01*
X86894Y-75669D01*
X87008Y-74803D01*
X76378Y-74803D02*
X76158Y-73766D01*
X75538Y-72907D01*
X74622Y-72373D01*
X73569Y-72256D01*
X71296Y-75229D02*
X71623Y-76117D01*
X72250Y-76825D01*
X73092Y-77257D01*
X74033Y-77353D01*
X74945Y-77101D01*
X75703Y-76535D01*
X76203Y-75733D01*
X76378Y-74803D01*
X90715Y-108432D02*
X91191Y-107283D01*
X90715Y-108432D02*
X91191Y-107283D01*
X76378Y-123031D02*
X76366Y-122781D01*
X72835Y-88976D02*
X73701Y-88862D01*
X74508Y-88528D01*
X75201Y-87996D01*
X72835Y-88976D02*
X73701Y-88862D01*
X74508Y-88528D01*
X75201Y-87996D01*
X74069Y-120485D02*
X73055Y-120589D01*
X72163Y-121081D01*
X71533Y-121881D01*
X71265Y-122865D01*
X71403Y-123874D01*
X71923Y-124750D01*
X72744Y-125354D01*
X73735Y-125589D01*
X74740Y-125419D01*
X75599Y-124870D01*
X76175Y-124030D01*
X76378Y-123031D01*
X65125Y-63812D02*
X63976Y-63337D01*
X65125Y-63812D02*
X63976Y-63337D01*
X62437Y-75229D02*
X62804Y-76180D01*
X63512Y-76913D01*
X64451Y-77311D01*
X65470D01*
X66409Y-76913D01*
X67117Y-76180D01*
X67484Y-75229D01*
X54125Y-76427D02*
X54871Y-77046D01*
X55793Y-77343D01*
X56761Y-77276D01*
X57633Y-76854D01*
X58286Y-76137D01*
X58626Y-75229D01*
X41175Y-75951D02*
X42323Y-76427D01*
X41175Y-75951D02*
X42323Y-76427D01*
X56102Y-82284D02*
X55236Y-82398D01*
X54429Y-82732D01*
X53736Y-83264D01*
X56102Y-82284D02*
X55236Y-82398D01*
X54429Y-82732D01*
X53736Y-83264D01*
X61190Y-116963D02*
X60039Y-116485D01*
X61188Y-116961D02*
X60039Y-116485D01*
X50197D02*
X49046Y-116963D01*
X50197Y-116485D02*
X49048Y-116961D01*
X10708Y-96142D02*
X10620Y-95143D01*
X10359Y-94175D01*
X9932Y-93268D01*
X9353Y-92449D01*
X8640Y-91744D01*
X7814Y-91175D01*
X6902Y-90759D01*
X5931Y-90510D01*
X4931Y-90434D01*
X3934Y-90534D01*
X2969Y-90807D01*
X2067Y-91245D01*
X1255Y-91833D01*
X559Y-92555D01*
X0Y-93387D01*
X-575Y-92535D01*
X-1294Y-91800D01*
X-2133Y-91206D01*
X-3064Y-90771D01*
X-4059Y-90511D01*
X-5084Y-90434D01*
X-6107Y-90542D01*
X-7093Y-90831D01*
X-8012Y-91292D01*
X-8833Y-91911D01*
X-9529Y-92667D01*
X-10079Y-93536D01*
X-10464Y-94489D01*
X-10672Y-95496D01*
X-10696Y-96524D01*
X-10535Y-97539D01*
X8534Y-100625D02*
X9282Y-99917D01*
X9890Y-99086D01*
X10340Y-98159D01*
X10616Y-97167D01*
X10708Y-96142D01*
X15709Y-106142D02*
X15613Y-105103D01*
X15330Y-104098D01*
X14869Y-103162D01*
X14245Y-102326D01*
X13480Y-101617D01*
X12598Y-101059D01*
X11629Y-100671D01*
X10606Y-100466D01*
X9563Y-100450D01*
X8534Y-100625D01*
X13534Y-110625D02*
X14282Y-109917D01*
X14890Y-109086D01*
X15340Y-108159D01*
X15616Y-107167D01*
X15709Y-106142D01*
X20708Y-116142D02*
X20613Y-115103D01*
X20330Y-114098D01*
X19869Y-113162D01*
X19245Y-112326D01*
X18480Y-111617D01*
X17598Y-111059D01*
X16629Y-110671D01*
X15606Y-110466D01*
X14563Y-110450D01*
X13534Y-110625D01*
X58661Y-123031D02*
X58467Y-122052D01*
X57912Y-121222D01*
X57082Y-120667D01*
X56102Y-120472D01*
X55123Y-120667D01*
X54293Y-121222D01*
X53738Y-122052D01*
X53543Y-123031D01*
X53738Y-124011D01*
X54293Y-124841D01*
X55123Y-125396D01*
X56102Y-125591D01*
X57082Y-125396D01*
X57912Y-124841D01*
X58467Y-124011D01*
X58661Y-123031D01*
X67520D02*
X67300Y-121995D01*
X66680Y-121136D01*
X65765Y-120602D01*
X64712Y-120485D01*
X47244Y-122688D02*
X48393Y-122212D01*
X62414Y-122783D02*
X62522Y-123806D01*
X63024Y-124704D01*
X63839Y-125332D01*
X64836Y-125587D01*
X65853Y-125430D01*
X66726Y-124884D01*
X67313Y-124039D01*
X67520Y-123031D01*
X47244Y-122688D02*
X48395Y-122210D01*
X22340Y-128639D02*
X22852Y-127873D01*
X23031Y-126969D01*
X22340Y-128639D02*
X22852Y-127873D01*
X23031Y-126969D01*
X16851Y-133149D02*
X17755Y-132970D01*
X18521Y-132457D01*
X16851Y-133149D02*
X17755Y-132970D01*
X18521Y-132457D01*
X9035Y-136142D02*
X8880Y-135033D01*
X8426Y-134009D01*
X7707Y-133149D01*
X5000Y-140177D02*
X6044Y-140040D01*
X7018Y-139637D01*
X7853Y-138995D01*
X8495Y-138159D01*
X8898Y-137186D01*
X9035Y-136142D01*
X3721Y-126522D02*
X3740Y-126142D01*
X3721Y-125762D01*
X-7853Y-138995D02*
X-7018Y-139637D01*
X-6044Y-140040D01*
X-5000Y-140177D01*
X-7853Y-138995D02*
X-7018Y-139637D01*
X-6044Y-140040D01*
X-5000Y-140177D01*
X-50591Y4724D02*
X-50775Y5679D01*
X-51303Y6496D01*
X-50603Y4474D02*
X-50591Y4724D01*
X-47589Y787D02*
X-48064Y1936D01*
X-55512Y3740D02*
X-54896Y2854D01*
X-53971Y2301D01*
X-52899Y2178D01*
X-47589Y787D02*
X-48064Y1936D01*
X-58853Y19812D02*
X-58292Y20613D01*
X-58072Y21566D01*
X-57431Y2204D02*
X-56629Y2489D01*
X-55965Y3020D01*
X-55512Y3740D01*
X-59721Y6496D02*
X-60299Y5541D01*
X-60416Y4430D01*
X-60416Y4430D02*
X-60679Y3543D01*
X-60416Y4430D02*
X-60679Y3543D01*
X-77658Y60039D02*
X-77485Y59063D01*
X-76990Y58205D01*
X-76230Y57567D01*
X-75299Y57228D01*
X-74308D01*
X-73376Y57567D01*
X-72617Y58205D01*
X-72121Y59063D01*
X-71949Y60039D01*
X-76822Y65503D02*
X-77440Y64577D01*
X-77658Y63484D01*
X-76822Y65503D02*
X-77440Y64577D01*
X-77658Y63484D01*
X-93405Y32381D02*
X-94046Y31545D01*
X-94449Y30572D01*
X-94587Y29528D01*
X-69015Y31010D02*
X-69413Y30143D01*
X-69466Y29189D01*
X-69165Y28283D01*
X-68553Y27550D01*
X-75101Y20967D02*
X-74589Y21734D01*
X-74410Y22638D01*
X-75101Y20967D02*
X-74589Y21734D01*
X-74410Y22638D01*
X-78442Y29229D02*
X-78954Y28463D01*
X-79134Y27559D01*
X-78442Y29229D02*
X-78954Y28463D01*
X-79134Y27559D01*
X-81693Y22047D02*
X-82674Y22244D01*
X-83655Y22050D01*
X-84487Y21495D01*
X-85042Y20663D01*
X-85236Y19681D01*
X-85039Y18701D01*
X-93405Y32381D02*
X-94046Y31545D01*
X-94449Y30572D01*
X-94587Y29528D01*
X-68553Y15748D02*
X-68077Y14600D01*
X-68553Y15748D02*
X-68077Y14600D01*
X-79724Y17323D02*
X-78820Y17503D01*
X-78054Y18015D01*
X-79724Y17323D02*
X-78820Y17503D01*
X-78054Y18015D01*
X-85039Y-22638D02*
X-85236Y-23617D01*
X-85043Y-24598D01*
X-84489Y-25429D01*
X-83659Y-25985D01*
X-82679Y-26181D01*
X-81700Y-25987D01*
X-80869Y-25432D01*
X-80313Y-24602D01*
X-80118Y-23622D01*
X-80315Y-22638D01*
X-48064Y-69062D02*
X-47589Y-67913D01*
X-48064Y-69062D02*
X-47589Y-67913D01*
X-57907Y-70046D02*
X-57431Y-68898D01*
X-57907Y-70046D02*
X-57431Y-68898D01*
X-39487Y-114659D02*
X-39906Y-115618D01*
Y-116665D01*
X-39487Y-117625D01*
X-41351Y-119488D02*
X-42278Y-119667D01*
X-43078Y-120170D01*
X-43640Y-120928D01*
X-43889Y-121839D01*
X-43791Y-122779D01*
X-43358Y-123618D01*
X-42651Y-124244D01*
X-41765Y-124571D01*
X-47361Y-104816D02*
X-47780Y-105776D01*
Y-106823D01*
X-47361Y-107782D01*
X-51403Y-97539D02*
X-52238Y-97018D01*
X-53208Y-96851D01*
X-54169Y-97062D01*
X-54979Y-97621D01*
X-55519Y-98444D01*
X-55709Y-99410D01*
X-55519Y-100375D01*
X-54979Y-101198D01*
X-54169Y-101757D01*
X-53208Y-101968D01*
X-52238Y-101801D01*
X-51403Y-101279D01*
X-48380Y-108801D02*
X-49347Y-108665D01*
X-50295Y-108902D01*
X-51085Y-109476D01*
X-51602Y-110304D01*
X-51771Y-111266D01*
X-51568Y-112222D01*
X-51021Y-113031D01*
X-50211Y-113577D01*
X-49255Y-113779D01*
X-48294Y-113609D01*
X-47466Y-113091D01*
X-51575Y-123031D02*
X-51794Y-121995D01*
X-52415Y-121136D01*
X-53331Y-120602D01*
X-54384Y-120485D01*
X-56681Y-122781D02*
X-56573Y-123805D01*
X-56071Y-124703D01*
X-55256Y-125331D01*
X-54259Y-125587D01*
X-53242Y-125430D01*
X-52369Y-124885D01*
X-51782Y-124040D01*
X-51575Y-123031D01*
X-60433D02*
X-60653Y-121995D01*
X-61273Y-121136D01*
X-62189Y-120602D01*
X-63242Y-120485D01*
X-65539Y-122781D02*
X-65431Y-123805D01*
X-64929Y-124703D01*
X-64114Y-125331D01*
X-63117Y-125587D01*
X-62100Y-125430D01*
X-61227Y-124885D01*
X-60640Y-124040D01*
X-60433Y-123031D01*
X-70046Y-77592D02*
X-70522Y-78740D01*
X-61188Y-77592D02*
X-61663Y-78740D01*
X-70046Y-77592D02*
X-70522Y-78740D01*
X-61188Y-77592D02*
X-61663Y-78740D01*
Y-117126D02*
X-61188Y-118274D01*
X-61663Y-117126D02*
X-61188Y-118274D01*
X-64721Y-136712D02*
X-63885Y-137353D01*
X-62912Y-137756D01*
X-61867Y-137894D01*
X-64721Y-136712D02*
X-63885Y-137353D01*
X-62912Y-137756D01*
X-61867Y-137894D01*
X-70522Y-117126D02*
X-70046Y-118274D01*
X-70522Y-117126D02*
X-70046Y-118274D01*
X-94587Y-105174D02*
X-94449Y-106219D01*
X-94046Y-107192D01*
X-93405Y-108028D01*
X-94587Y-105174D02*
X-94449Y-106219D01*
X-94046Y-107192D01*
X-93405Y-108028D01*
X49784Y93033D02*
X97119Y140368D01*
X50955Y156174D02*
X97119Y110010D01*
X52567Y90249D02*
X97119Y134800D01*
X51175Y91641D02*
X97119Y137584D01*
X47000Y95816D02*
X97119Y145936D01*
X48171Y156174D02*
X97119Y107226D01*
X48392Y94425D02*
X97119Y143152D01*
X55020Y78782D02*
X97119Y120881D01*
X55020Y81565D02*
X97119Y123665D01*
X55020Y73214D02*
X97119Y115313D01*
X55020Y75998D02*
X97119Y118097D01*
X54979Y87093D02*
X97119Y129233D01*
X53959Y88857D02*
X97119Y132017D01*
X55020Y84349D02*
X97119Y126449D01*
X87146Y156174D02*
X97119Y146201D01*
X88042Y156174D02*
X97119Y147097D01*
X81578Y156174D02*
X97119Y140633D01*
X84362Y156174D02*
X97119Y143417D01*
X76010Y156174D02*
X97119Y135065D01*
X78794Y156174D02*
X97119Y137849D01*
X73226Y156174D02*
X97119Y132281D01*
X67658Y156174D02*
X97119Y126714D01*
X70442Y156174D02*
X97119Y129497D01*
X62091Y156174D02*
X97119Y121146D01*
X64875Y156174D02*
X97119Y123930D01*
X56523Y156174D02*
X97119Y115578D01*
X59307Y156174D02*
X97119Y118362D01*
X53739Y156174D02*
X97119Y112794D01*
X67934Y44370D02*
X97119Y73555D01*
X66542Y45762D02*
X97119Y76339D01*
X55020Y74161D02*
X97119Y32062D01*
X55020Y76945D02*
X97119Y34845D01*
X55020Y82513D02*
X97119Y40413D01*
X55020Y85296D02*
X97119Y43197D01*
X55020Y79729D02*
X97119Y37629D01*
X70718Y41586D02*
X97119Y67987D01*
X69326Y42978D02*
X97119Y70771D01*
X55020Y63025D02*
X97119Y20926D01*
X71719Y39803D02*
X97119Y65203D01*
X55020Y68593D02*
X97119Y26494D01*
X55020Y71377D02*
X97119Y29278D01*
X55020Y65809D02*
X97119Y23710D01*
X55020Y59294D02*
X97119Y101394D01*
X55020Y62078D02*
X97119Y104178D01*
X56799Y55506D02*
X97119Y95826D01*
X55407Y56898D02*
X97119Y98610D01*
X55020Y67646D02*
X97119Y109746D01*
X55020Y70430D02*
X97119Y112529D01*
X55020Y64862D02*
X97119Y106962D01*
X63758Y48546D02*
X97119Y81907D01*
X62366Y49938D02*
X97119Y84690D01*
X65150Y47154D02*
X97119Y79123D01*
X59583Y52722D02*
X97119Y90258D01*
X58191Y54114D02*
X97119Y93042D01*
X60975Y51330D02*
X97119Y87474D01*
X42603Y156174D02*
X97119Y101659D01*
X45387Y156174D02*
X97119Y104443D01*
X37036Y156174D02*
X97119Y96091D01*
X39820Y156174D02*
X97119Y98875D01*
X31468Y156174D02*
X97119Y90523D01*
X34252Y156174D02*
X97119Y93307D01*
X28684Y156174D02*
X97119Y87739D01*
X40511Y97679D02*
X93524Y150692D01*
X39119Y99071D02*
X92132Y152084D01*
X45397Y96997D02*
X96307Y147908D01*
X42761Y97146D02*
X94916Y149300D01*
X23116Y156174D02*
X97119Y82171D01*
X25900Y156174D02*
X97119Y84955D01*
X23491Y153016D02*
X97119Y79387D01*
X26591Y111599D02*
X71167Y156174D01*
X25060Y112852D02*
X68383Y156174D01*
X29375Y108815D02*
X76735Y156174D01*
X27983Y110207D02*
X73951Y156174D01*
X19732Y113091D02*
X62815Y156174D01*
X16948Y113091D02*
X60031Y156174D01*
X22515Y113091D02*
X65599Y156174D01*
X36335Y101855D02*
X89348Y154868D01*
X34943Y103247D02*
X87870Y156174D01*
X37727Y100463D02*
X90740Y153476D01*
X32159Y106031D02*
X82302Y156174D01*
X30767Y107423D02*
X79519Y156174D01*
X33551Y104639D02*
X85086Y156174D01*
X3629D02*
X97119Y62684D01*
X6413Y156174D02*
X97119Y65468D01*
X-1939Y156174D02*
X97119Y57117D01*
X845Y156174D02*
X97119Y59900D01*
X-7506Y156174D02*
X97119Y51549D01*
X-4722Y156174D02*
X97119Y54333D01*
X-10290Y156174D02*
X97119Y48765D01*
X23440Y147499D02*
X97119Y73820D01*
X24243Y149480D02*
X97119Y76604D01*
X33915Y70211D02*
X97119Y7007D01*
X22019Y146135D02*
X97119Y71036D01*
X-13074Y156174D02*
X97119Y45981D01*
X19963Y145408D02*
X97119Y68252D01*
X14419Y-20280D02*
X97119Y62419D01*
X-6981Y83268D02*
X87943Y-11656D01*
X-12549Y83268D02*
X83159Y-12440D01*
X-9765Y83268D02*
X87943Y-14440D01*
X-15333Y83268D02*
X81306Y-13371D01*
X-15551Y80703D02*
X80359Y-15207D01*
X-16420Y78787D02*
X80315Y-17947D01*
X-17114Y76698D02*
X80315Y-20731D01*
X-15692Y72492D02*
X80315Y-23515D01*
X31890Y69452D02*
X59476Y41866D01*
X-15811Y61475D02*
X80315Y-34651D01*
X-17747Y68979D02*
X80315Y-29083D01*
X-16080Y70096D02*
X80315Y-26299D01*
X-17948Y66396D02*
X80315Y-31867D01*
X91191Y-985D02*
X97119Y-6913D01*
X91191Y-4754D02*
X97119Y1174D01*
X91191Y-3768D02*
X97119Y-9697D01*
X91191Y-7538D02*
X97119Y-1610D01*
X91191Y-1970D02*
X97119Y3958D01*
X91191Y4583D02*
X97119Y-1345D01*
X91191Y1799D02*
X97119Y-4129D01*
X91191Y-15890D02*
X97119Y-9961D01*
X91191Y-9336D02*
X97119Y-15264D01*
X91191Y-18673D02*
X97119Y-12745D01*
X91191Y-12120D02*
X97119Y-18048D01*
X91191Y-6552D02*
X97119Y-12481D01*
X91191Y-10322D02*
X97119Y-4394D01*
X91191Y-13106D02*
X97119Y-7177D01*
X92114Y10089D02*
X97119Y15093D01*
X91191Y3598D02*
X97119Y9526D01*
X91191Y6382D02*
X97119Y12310D01*
X91119Y11877D02*
X97119Y17877D01*
X88713Y12255D02*
X97119Y20661D01*
X91191Y7367D02*
X97119Y1439D01*
X92063Y9279D02*
X97119Y4223D01*
X91191Y814D02*
X97119Y6742D01*
X87008Y-20073D02*
X87943Y-19138D01*
X87008Y-17289D02*
X87943Y-16354D01*
X87008Y-16289D02*
X87943Y-17224D01*
X87008Y-19073D02*
X87943Y-20008D01*
X91191Y-29809D02*
X97119Y-23881D01*
X91191Y-23256D02*
X97119Y-29184D01*
X91191Y-32593D02*
X97119Y-26665D01*
X91191Y-26040D02*
X97119Y-31968D01*
X91191Y-20472D02*
X97119Y-26400D01*
X91191Y-24241D02*
X97119Y-18313D01*
X91191Y-27025D02*
X97119Y-21097D01*
X91191Y-34391D02*
X97119Y-40319D01*
X91191Y-38160D02*
X97119Y-32232D01*
X91191Y-37175D02*
X97119Y-43103D01*
X91191Y-40944D02*
X97119Y-35016D01*
X91191Y-35377D02*
X97119Y-29449D01*
X91191Y-28823D02*
X97119Y-34751D01*
X91191Y-31607D02*
X97119Y-37535D01*
X91191Y-21457D02*
X97119Y-15529D01*
X91191Y-14904D02*
X97119Y-20832D01*
X91191Y-17688D02*
X97119Y-23616D01*
X87008Y-25640D02*
X87943Y-24705D01*
X87008Y-22856D02*
X87943Y-21921D01*
X87008Y-21857D02*
X87943Y-22792D01*
X87008Y-24640D02*
X87943Y-25575D01*
X87008Y-41344D02*
X87943Y-42279D01*
X87008Y-39560D02*
X87943Y-38625D01*
X87008Y-42344D02*
X87943Y-41409D01*
X87008Y-28424D02*
X87943Y-27489D01*
X87008Y-27424D02*
X87943Y-28359D01*
X87008Y-30208D02*
X87943Y-31143D01*
X71499Y38195D02*
X97119Y12574D01*
X62536Y38806D02*
X89003Y12339D01*
X55982Y37008D02*
X87943Y5047D01*
X58766Y37008D02*
X87943Y7831D01*
X55020Y57458D02*
X97119Y15358D01*
X55020Y60242D02*
X97119Y18142D01*
X53198Y37008D02*
X87943Y2263D01*
X70119Y36790D02*
X97119Y9791D01*
X50415Y37008D02*
X87943Y-520D01*
X85663Y-13066D02*
X87943Y-10786D01*
X83541Y-12404D02*
X87943Y-8002D01*
X44847Y37008D02*
X87943Y-6088D01*
X47631Y37008D02*
X87943Y-3304D01*
X42063Y37008D02*
X87943Y-8872D01*
X61904Y41123D02*
X62506Y41726D01*
X59923Y41927D02*
X61114Y43117D01*
X55020Y57285D02*
X70916Y41388D01*
X56945Y41732D02*
X59722Y44509D01*
X50147Y54084D02*
X66879Y37352D01*
X62573Y39009D02*
X63898Y40334D01*
X61372Y37186D02*
X87382Y11175D01*
X13915Y-9649D02*
X60401Y36837D01*
X14419Y-11929D02*
X65289Y38942D01*
X16107Y-32511D02*
X97119Y48500D01*
X14716Y-31120D02*
X97119Y51284D01*
X18891Y-35295D02*
X97119Y42932D01*
X17499Y-33904D02*
X97119Y45716D01*
X14419Y-25848D02*
X97119Y56852D01*
X14419Y-23064D02*
X97119Y59636D01*
X14419Y-28632D02*
X97119Y54068D01*
X24459Y-40863D02*
X97119Y31797D01*
X23067Y-39471D02*
X97119Y34581D01*
X27243Y-43647D02*
X97119Y26229D01*
X25851Y-42255D02*
X97119Y29013D01*
X21675Y-38079D02*
X97119Y37365D01*
X20283Y-36687D02*
X97119Y40148D01*
X21675Y-38079D02*
X97119Y37365D01*
X86833Y-14680D02*
X87943Y-13570D01*
X14419Y-14713D02*
X66681Y37550D01*
X14419Y-17496D02*
X68464Y36549D01*
X-19771Y59868D02*
X80315Y-40218D01*
X-17293Y60173D02*
X80315Y-37435D01*
X-21163Y58476D02*
X80315Y-43002D01*
X87008Y-36776D02*
X87943Y-35841D01*
X87008Y-35776D02*
X87943Y-36711D01*
X87008Y-38560D02*
X87943Y-39495D01*
X87008Y-32992D02*
X87943Y-33927D01*
X87008Y-31208D02*
X87943Y-30273D01*
X87008Y-33992D02*
X87943Y-33057D01*
X8596Y113091D02*
X51680Y156174D01*
X5812Y113091D02*
X48896Y156174D01*
X14164Y113091D02*
X57248Y156174D01*
X11380Y113091D02*
X54464Y156174D01*
X244Y113091D02*
X43328Y156174D01*
X-2539Y113091D02*
X40544Y156174D01*
X3028Y113091D02*
X46112Y156174D01*
X46507Y96310D02*
X54184Y88633D01*
X41045Y97146D02*
X44488D01*
X25936Y112255D02*
X41045Y97146D01*
X20054Y155172D02*
X21057Y156174D01*
X17549D02*
X18574Y155148D01*
X22082Y154415D02*
X23841Y156174D01*
X20332D02*
X22111Y154396D01*
X14765Y156174D02*
X16594Y154345D01*
X11981Y156174D02*
X15230Y152925D01*
X9197Y156174D02*
X14502Y150869D01*
X24257Y151023D02*
X29409Y156174D01*
X23481Y153030D02*
X26625Y156174D01*
X23204Y147186D02*
X32193Y156174D01*
X18707Y83268D02*
X27165Y74809D01*
X49013Y72819D02*
X49311Y73266D01*
X48730Y72497D02*
X49013Y72819D01*
X55020Y57285D02*
Y86614D01*
X49311Y56102D02*
Y73266D01*
X48714Y72476D02*
X49311Y73073D01*
X48470Y72158D02*
X48730Y72497D01*
X48557Y72272D02*
X49311Y71518D01*
X47921Y71609D02*
X48470Y72158D01*
X47581Y71348D02*
X47921Y71609D01*
X47091Y70954D02*
X49311Y68734D01*
X47259Y71066D02*
X47581Y71348D01*
X46615Y70635D02*
X47259Y71066D01*
X32465Y71066D02*
X33110Y70635D01*
X31890Y55652D02*
X47603Y71365D01*
X15290Y83268D02*
X27165Y71393D01*
X18074Y83268D02*
X27165Y74177D01*
X9723Y83268D02*
X27165Y65825D01*
X12506Y83268D02*
X27165Y68609D01*
X4155Y83268D02*
X27165Y60257D01*
X6939Y83268D02*
X27165Y63041D01*
X1371Y83268D02*
X27165Y57473D01*
X32143Y71348D02*
X32465Y71066D01*
X31890Y71543D02*
X32143Y71348D01*
X31890Y69571D02*
X33016Y70698D01*
X31890Y52160D02*
Y71543D01*
X-1413Y83268D02*
X27165Y54689D01*
Y51181D02*
Y74809D01*
X-8107Y113091D02*
X34976Y156174D01*
X-14862Y149611D02*
X21658Y113091D01*
X-5323D02*
X37760Y156174D01*
X-15308Y152840D02*
X24502Y113030D01*
X-24811Y113091D02*
X18273Y156174D01*
X-27594Y113091D02*
X15489Y156174D01*
X-22027Y113091D02*
X14514Y149631D01*
X-15716Y147681D02*
X18874Y113091D01*
X-16459D02*
X16655Y146204D01*
X-10891Y113091D02*
X22499Y146481D01*
X-13675Y113091D02*
X18663Y145428D01*
X-28051Y113091D02*
X23917D01*
X-19243D02*
X15270Y147603D01*
X-17176Y146357D02*
X16090Y113091D01*
X-18683Y155409D02*
X-17917Y156174D01*
X-21426D02*
X-20665Y155413D01*
X-18642Y156174D02*
X-17435Y154967D01*
X-21880Y154995D02*
X-20701Y156174D01*
X-24210D02*
X-22595Y154559D01*
X-26994Y156174D02*
X-23919Y153099D01*
X-29777Y156174D02*
X-24590Y150987D01*
X-15441Y153082D02*
X-12349Y156174D01*
X-16760Y154548D02*
X-15133Y156174D01*
X-14778Y150962D02*
X-9566Y156174D01*
X-32561D02*
X10522Y113091D01*
X-19289Y145685D02*
X13306Y113091D01*
X-15858Y156174D02*
X43170Y97146D01*
X-15554Y80589D02*
X-12875Y83268D01*
X-15607Y72184D02*
X-4523Y83268D01*
X-16752Y73823D02*
X-7307Y83268D01*
X-17948Y67059D02*
X-1740Y83268D01*
X-17948Y75411D02*
X-10091Y83268D01*
X-17224Y64999D02*
X1044Y83268D01*
X-17722D02*
X18707D01*
X-15781Y63658D02*
X3828Y83268D01*
X-26692Y19341D02*
X27165Y73198D01*
X-4197Y83268D02*
X27165Y51905D01*
X-32260Y19341D02*
X25187Y76788D01*
X-35044Y19341D02*
X23795Y78179D01*
X-29476Y19341D02*
X26579Y75396D01*
X-16355Y82571D02*
X-15659Y83268D01*
X-16504Y78083D02*
Y78717D01*
X-17948Y75864D02*
X-17052Y76761D01*
X-17948Y74207D02*
Y75864D01*
Y74748D02*
X-17271Y74071D01*
X46230Y70446D02*
X46615Y70635D01*
X45859Y70231D02*
X46230Y70446D01*
X45273Y69988D02*
X49311Y65950D01*
X45143Y69935D02*
X45859Y70231D01*
X44729Y69824D02*
X45143Y69935D01*
X44323Y69686D02*
X44729Y69824D01*
X43637Y69550D02*
X44323Y69686D01*
X43279Y69526D02*
X43637Y69550D01*
X42924Y69468D02*
X43279Y69526D01*
X42998Y69480D02*
X49311Y63166D01*
X42462Y69453D02*
X42924Y69468D01*
X40243Y69451D02*
X49311Y60382D01*
X31890Y58436D02*
X42922Y69468D01*
X37459Y69451D02*
X49311Y57599D01*
X34582Y69935D02*
X34995Y69824D01*
X33865Y70231D02*
X34582Y69935D01*
X35401Y69686D02*
X36162Y69535D01*
X34995Y69824D02*
X35401Y69686D01*
X33494Y70446D02*
X33865Y70231D01*
X33110Y70635D02*
X33494Y70446D01*
X31890Y66787D02*
X34941Y69838D01*
X37402Y69451D02*
X42323D01*
X36589Y69507D02*
X37014Y69451D01*
X37402Y69451D01*
X31890Y64003D02*
X37337Y69451D01*
X36162Y69535D02*
X36589Y69507D01*
X31890Y61219D02*
X40121Y69451D01*
X41279Y42770D02*
X51370Y52861D01*
X39887Y44162D02*
X49985Y54260D01*
X31890Y66668D02*
X56826Y41732D01*
X31890Y63884D02*
X54042Y41732D01*
X31890Y61100D02*
X51258Y41732D01*
X48593D02*
X55546Y48685D01*
X45809Y41732D02*
X54154Y50077D01*
X54161Y41732D02*
X58330Y45901D01*
X51377Y41732D02*
X56938Y47293D01*
X42317Y41732D02*
X59055D01*
X43025D02*
X52762Y51469D01*
X41339Y37008D02*
X59055D01*
X35712Y48338D02*
X49311Y61937D01*
X34319Y49730D02*
X49311Y64721D01*
X38495Y45554D02*
X49311Y56370D01*
X37103Y46946D02*
X49311Y59153D01*
X32928Y51122D02*
X49311Y67505D01*
X31890Y52868D02*
X49311Y70289D01*
X31890Y58316D02*
X48474Y41732D01*
X31890Y52160D02*
X42317Y41732D01*
X31890Y55533D02*
X45690Y41732D01*
X31890Y52749D02*
X42906Y41732D01*
X27857Y49511D02*
X39668Y37700D01*
X-11140Y15405D02*
X27165Y53711D01*
X-12532Y16797D02*
X27165Y56495D01*
X-15567Y19330D02*
X27165Y62063D01*
X-18341Y19341D02*
X27165Y64847D01*
X-13924Y18189D02*
X27165Y59279D01*
X-4181Y8446D02*
X32371Y44997D01*
X-5573Y9838D02*
X30979Y46389D01*
X-1397Y5662D02*
X35155Y42213D01*
X-2789Y7054D02*
X33763Y43605D01*
X-8356Y12622D02*
X28195Y49173D01*
X-9748Y14014D02*
X27178Y50940D01*
X-6965Y11230D02*
X29587Y47781D01*
X-17948Y68778D02*
X-17574Y69151D01*
X-17948Y65152D02*
Y68778D01*
X-23909Y19341D02*
X27165Y70414D01*
X-21125Y19341D02*
X27165Y67631D01*
X-27589Y7308D02*
X-24710Y10187D01*
X-26085Y6029D02*
X-23111Y9003D01*
X-30468Y10187D02*
X-24295D01*
X-28981Y8700D02*
X-27494Y10187D01*
X-30468D02*
X-26585Y6303D01*
X5563Y-1298D02*
X43869Y37008D01*
X4171Y94D02*
X41097Y37020D01*
X8347Y-4082D02*
X49436Y37008D01*
X6955Y-2690D02*
X46652Y37008D01*
X1387Y2878D02*
X37939Y39430D01*
X-5Y4270D02*
X36547Y40821D01*
X2779Y1486D02*
X39331Y38037D01*
X12523Y-8258D02*
X57788Y37008D01*
X14419Y-30823D02*
Y-10827D01*
X11131Y-6865D02*
X55004Y37008D01*
X9739Y-5474D02*
X52220Y37008D01*
X-14600Y18865D02*
X13944Y-9678D01*
X-25026Y4303D02*
X-21719Y7611D01*
X-25768Y10187D02*
X1329Y-16910D01*
X-24295Y10187D02*
X1329Y-15437D01*
X-33459Y6496D02*
X-29925Y2963D01*
X-28552Y10187D02*
X1329Y-19694D01*
Y-35433D02*
Y-15437D01*
X-25912Y1979D02*
X1329Y-25262D01*
X-25001Y3853D02*
X1329Y-22478D01*
X-28168Y1452D02*
X1329Y-28045D01*
X91191Y-49296D02*
X97119Y-43368D01*
X91191Y-42743D02*
X97119Y-48671D01*
X91191Y-48311D02*
X97119Y-54239D01*
X91191Y-45527D02*
X97119Y-51455D01*
X91191Y-46512D02*
X97119Y-40584D01*
X91191Y-39959D02*
X97119Y-45887D01*
X91191Y-52080D02*
X97119Y-46152D01*
X91191Y-60432D02*
X97119Y-54504D01*
X91191Y-53878D02*
X97119Y-59807D01*
X91191Y-63216D02*
X97119Y-57287D01*
X91191Y-56662D02*
X97119Y-62590D01*
X91191Y-51095D02*
X97119Y-57023D01*
X91191Y-54864D02*
X97119Y-48936D01*
X91191Y-57648D02*
X97119Y-51720D01*
X91191Y-43728D02*
X97119Y-37800D01*
X87008Y-47911D02*
X87943Y-46976D01*
X87008Y-50695D02*
X87943Y-49760D01*
X87008Y-49695D02*
X87943Y-50630D01*
X87008Y-45127D02*
X87943Y-44192D01*
X87008Y-44128D02*
X87943Y-45063D01*
X87008Y-46911D02*
X87943Y-47846D01*
X87008Y-58047D02*
X87943Y-58982D01*
X87008Y-56263D02*
X87943Y-55328D01*
X87008Y-61831D02*
X87943Y-60896D01*
X87008Y-60831D02*
X87943Y-61766D01*
X87008Y-53479D02*
X87943Y-52544D01*
X87008Y-52479D02*
X87943Y-53414D01*
X87008Y-55263D02*
X87943Y-56198D01*
X91191Y-71567D02*
X97119Y-65639D01*
X91191Y-65014D02*
X97119Y-70942D01*
Y-147097D02*
Y147097D01*
X91191Y-67798D02*
X97119Y-73726D01*
X91191Y-62230D02*
X97119Y-68158D01*
X91191Y-65999D02*
X97119Y-60071D01*
X91191Y-68783D02*
X97119Y-62855D01*
X91191Y-79919D02*
X97119Y-73991D01*
X91191Y-73365D02*
X97119Y-79294D01*
X91191Y-82703D02*
X97119Y-76775D01*
X91191Y-76149D02*
X97119Y-82077D01*
X91191Y-70582D02*
X97119Y-76510D01*
X91191Y-74351D02*
X97119Y-68423D01*
X91191Y-77135D02*
X97119Y-71207D01*
X91191Y-59446D02*
X97119Y-65374D01*
X87008Y-66399D02*
X87943Y-67334D01*
X91191Y-107278D02*
X91191Y7865D01*
X87943Y-106611D02*
X87943Y7865D01*
X87008Y-64615D02*
X87943Y-63680D01*
X87008Y-63615D02*
X87943Y-64550D01*
X87008Y-74803D02*
Y-15748D01*
Y-72966D02*
X87943Y-72031D01*
X87008Y-71966D02*
X87943Y-72901D01*
X87008Y-74750D02*
X87943Y-75685D01*
X87008Y-69182D02*
X87943Y-70117D01*
X87008Y-67399D02*
X87943Y-66464D01*
X87008Y-70182D02*
X87943Y-69247D01*
X34203Y-50607D02*
X87943Y3133D01*
X32811Y-49215D02*
X87943Y5917D01*
X36987Y-53391D02*
X87943Y-2434D01*
X35595Y-51999D02*
X87943Y350D01*
X28635Y-45039D02*
X97119Y23445D01*
X30027Y-46431D02*
X87155Y10697D01*
X31419Y-47823D02*
X87532Y8291D01*
X87008Y-59047D02*
X87943Y-58112D01*
X52096Y-63337D02*
X80315Y-35117D01*
X63231Y-63337D02*
X80315Y-46253D01*
X60447Y-63337D02*
X80315Y-43469D01*
X38379Y-54783D02*
X87943Y-5218D01*
X39770Y-56174D02*
X80317Y-15628D01*
X49312Y-63337D02*
X80315Y-32333D01*
X-23947Y55692D02*
X80315Y-48570D01*
X-22555Y57084D02*
X80315Y-45786D01*
X-26731Y52908D02*
X80315Y-54138D01*
X-25339Y54300D02*
X80315Y-51354D01*
X-29515Y50124D02*
X80315Y-59706D01*
X-28123Y51516D02*
X80315Y-56922D01*
X-30907Y48732D02*
X80315Y-62489D01*
X46730Y-63134D02*
X80315Y-29549D01*
X45338Y-61742D02*
X80315Y-26765D01*
X57663Y-63337D02*
X80315Y-40685D01*
X42554Y-58958D02*
X80315Y-21198D01*
X41162Y-57566D02*
X80315Y-18414D01*
X43946Y-60350D02*
X80315Y-23982D01*
X72292Y-70979D02*
X80315Y-62956D01*
X70900Y-69587D02*
X80315Y-60172D01*
Y-73417D02*
Y-15748D01*
X73811Y-72244D02*
X80315Y-65740D01*
X69508Y-68195D02*
X80315Y-57388D01*
X-33691Y45948D02*
X80315Y-68057D01*
X-35083Y44556D02*
X80315Y-70841D01*
X86804Y-75954D02*
X87943Y-74815D01*
X86315Y-76842D02*
X87943Y-78469D01*
X76331Y-75292D02*
X80315Y-71307D01*
X75734Y-73105D02*
X80315Y-68524D01*
X71448Y-82284D02*
X80315Y-73417D01*
X66724Y-65412D02*
X80315Y-51820D01*
X65332Y-64020D02*
X80315Y-49036D01*
X68116Y-66803D02*
X80315Y-54604D01*
X65125Y-63812D02*
X73569Y-72256D01*
X-32299Y47340D02*
X80315Y-65273D01*
X54879Y-63337D02*
X80315Y-37901D01*
X14381Y-10475D02*
X78819Y-74913D01*
X76344Y-75221D02*
X77427Y-76305D01*
X68000Y-75229D02*
X73251Y-80481D01*
X66683Y-76696D02*
X71859Y-81873D01*
X66555Y-82284D02*
X72121Y-76718D01*
X91191Y-90069D02*
X97119Y-95997D01*
X91191Y-93838D02*
X97119Y-87910D01*
X91191Y-92853D02*
X97119Y-98781D01*
X91191Y-96622D02*
X97119Y-90694D01*
X91191Y-91054D02*
X97119Y-85126D01*
X91191Y-84501D02*
X97119Y-90429D01*
X91191Y-87285D02*
X97119Y-93213D01*
X91191Y-98420D02*
X97119Y-104349D01*
X91191Y-102190D02*
X97119Y-96262D01*
X91191Y-101204D02*
X97119Y-107132D01*
X91191Y-104974D02*
X97119Y-99045D01*
X91191Y-95636D02*
X97119Y-101565D01*
X91191Y-99406D02*
X97119Y-93478D01*
X91083Y-107865D02*
X97119Y-101829D01*
X83552Y-79646D02*
X87943Y-84037D01*
X84943Y-78254D02*
X87943Y-81253D01*
X91191Y-85487D02*
X97119Y-79558D01*
X91191Y-78933D02*
X97119Y-84861D01*
X82160Y-81037D02*
X87943Y-86821D01*
X75258Y-76919D02*
X76035Y-77697D01*
X75201Y-87996D02*
X86028Y-77169D01*
X91191Y-88270D02*
X97119Y-82342D01*
X91191Y-81717D02*
X97119Y-87645D01*
X79376Y-83821D02*
X87943Y-92388D01*
X80768Y-82429D02*
X87943Y-89605D01*
X76592Y-86605D02*
X87943Y-97956D01*
X77984Y-85213D02*
X87943Y-95172D01*
X75200Y-87997D02*
X87943Y-100740D01*
X82039Y-117108D02*
X97119Y-132187D01*
X83431Y-115716D02*
X97119Y-129403D01*
X79255Y-119892D02*
X97119Y-137755D01*
X80647Y-118500D02*
X97119Y-134971D01*
X76472Y-122676D02*
X97119Y-143323D01*
X77864Y-121283D02*
X97119Y-140539D01*
X75737Y-124725D02*
X97119Y-146107D01*
X84532Y-156174D02*
X97119Y-143588D01*
X81749Y-156174D02*
X97119Y-140804D01*
X88042Y-156174D02*
X97119Y-147097D01*
X87316Y-156174D02*
X97119Y-146371D01*
X76181Y-156174D02*
X97119Y-135236D01*
X73397Y-156174D02*
X97119Y-132452D01*
X78965Y-156174D02*
X97119Y-138020D01*
X91191Y-106772D02*
X97119Y-112700D01*
X91191Y-103988D02*
X97119Y-109916D01*
X90391Y-108756D02*
X97119Y-115484D01*
X74069Y-120485D02*
X87943Y-106611D01*
X76366Y-122781D02*
X90715Y-108432D01*
X87607Y-111540D02*
X97119Y-121052D01*
X88999Y-110148D02*
X97119Y-118268D01*
X86215Y-112932D02*
X97119Y-123836D01*
X84823Y-114324D02*
X97119Y-126620D01*
X73819Y-125591D02*
X96222Y-147994D01*
X73355Y-88936D02*
X87943Y-103524D01*
X62260Y-88976D02*
X83918Y-110635D01*
X60186Y-116492D02*
X87943Y-88735D01*
X57408Y-116485D02*
X87943Y-85951D01*
X54624Y-116485D02*
X87943Y-83167D01*
X51841Y-116485D02*
X87943Y-80383D01*
X46104Y-119438D02*
X87943Y-77599D01*
X70611Y-88976D02*
X87943Y-106308D01*
X67827Y-88976D02*
X86702Y-107851D01*
X72599Y-120782D02*
X87943Y-105438D01*
X65044Y-88976D02*
X85311Y-109243D01*
X63236Y-119009D02*
X87943Y-94302D01*
X61844Y-117617D02*
X87943Y-91518D01*
X64628Y-120401D02*
X87943Y-97086D01*
X72616Y-77062D02*
X74643Y-79089D01*
X69339Y-82284D02*
X74307Y-77315D01*
X59476Y-88976D02*
X82527Y-112027D01*
X57489Y-88976D02*
X72835D01*
X43320Y-119438D02*
X73986Y-88772D01*
X57090Y-89375D02*
X81135Y-113419D01*
X55698Y-90767D02*
X79743Y-114811D01*
X54306Y-92159D02*
X78351Y-116203D01*
X52914Y-93550D02*
X76959Y-117595D01*
X51522Y-94942D02*
X75567Y-118987D01*
X50130Y-96334D02*
X74175Y-120379D01*
X53910Y-156174D02*
X97119Y-112965D01*
X56828Y-119735D02*
X90654Y-153561D01*
X59478Y-156174D02*
X97119Y-118533D01*
X56694Y-156174D02*
X97119Y-115749D01*
X48342Y-156174D02*
X97119Y-107397D01*
X45558Y-156174D02*
X97119Y-104613D01*
X51126Y-156174D02*
X97119Y-110181D01*
X67148Y-121704D02*
X94830Y-149386D01*
X67099Y-124438D02*
X93438Y-150778D01*
X70613Y-156174D02*
X97119Y-129668D01*
X67829Y-156174D02*
X97119Y-126884D01*
X62261Y-156174D02*
X97119Y-121317D01*
X65425Y-125548D02*
X92046Y-152170D01*
X65045Y-156174D02*
X97119Y-124100D01*
X67519Y-123078D02*
X87943Y-102654D01*
X66678Y-121135D02*
X87943Y-99870D01*
X49673Y-120932D02*
X84916Y-156174D01*
X40294Y-122688D02*
X73780Y-156174D01*
X48739Y-97726D02*
X72125Y-121113D01*
X48276Y-122318D02*
X82132Y-156174D01*
X58422Y-124113D02*
X89262Y-154953D01*
X45862Y-122688D02*
X79348Y-156174D01*
X56966Y-125441D02*
X87699Y-156174D01*
X42774D02*
X73393Y-125555D01*
X39990Y-156174D02*
X71699Y-124465D01*
X43078Y-122688D02*
X76564Y-156174D01*
X63771Y-82284D02*
X70825Y-75229D01*
X67161Y-76110D02*
X68042Y-75229D01*
X46933Y-63337D02*
X63976D01*
X59648Y-75229D02*
X66702Y-82284D01*
X70784Y-75229D02*
X71560Y-76006D01*
X67484Y-75229D02*
X71296D01*
X64528Y-77325D02*
X69486Y-82284D01*
X60987D02*
X66268Y-77003D01*
X56102Y-82284D02*
X71448D01*
X58072Y-76437D02*
X63918Y-82284D01*
X58204D02*
X63549Y-76938D01*
X58626Y-75229D02*
X62437D01*
X55329Y-82374D02*
X62443Y-75260D01*
X46927Y-76427D02*
X53750Y-83250D01*
X44143Y-76427D02*
X52358Y-84642D01*
X56211Y-77360D02*
X61135Y-82284D01*
X52494Y-76427D02*
X58351Y-82284D01*
X49711Y-76427D02*
X55604Y-82321D01*
X42323Y-76427D02*
X54125D01*
X44563Y-101902D02*
X59146Y-116485D01*
X40536Y-119438D02*
X70998Y-88976D01*
X37752Y-119438D02*
X68214Y-88976D01*
X47347Y-99118D02*
X71260Y-123031D01*
X45955Y-100510D02*
X66288Y-120844D01*
X32184Y-119438D02*
X62646Y-88976D01*
X29401Y-119438D02*
X59862Y-88976D01*
X34968Y-119438D02*
X65430Y-88976D01*
X61190Y-116963D02*
X64712Y-120485D01*
X50870Y-119735D02*
X59366D01*
X43171Y-103294D02*
X56362Y-116485D01*
X41779Y-104686D02*
X53578Y-116485D01*
X50197D02*
X60039D01*
X40387Y-106078D02*
X50794Y-116485D01*
X38995Y-107470D02*
X48767Y-117242D01*
X37603Y-108862D02*
X47375Y-118634D01*
X36211Y-110254D02*
X45395Y-119438D01*
X33427Y-113038D02*
X39828Y-119438D01*
X32035Y-114429D02*
X37044Y-119438D01*
X34819Y-111646D02*
X42612Y-119438D01*
X46571D02*
X49046Y-116963D01*
X29252Y-117213D02*
X31476Y-119438D01*
X27860Y-118605D02*
X28692Y-119438D01*
X30643Y-115822D02*
X34260Y-119438D01*
X14419Y-21649D02*
X56107Y-63337D01*
X14419Y-24433D02*
X53323Y-63337D01*
X14419Y-27217D02*
X50539Y-63337D01*
X14419Y-30000D02*
X47756Y-63337D01*
X14419Y-16081D02*
X61675Y-63337D01*
X14419Y-18865D02*
X58891Y-63337D01*
X14419Y-13297D02*
X64572Y-63450D01*
X14419Y-30823D02*
X46933Y-63337D01*
X9218Y-92295D02*
X33368Y-68145D01*
X10704Y-96377D02*
X36152Y-70929D01*
X10293Y-94004D02*
X34760Y-69537D01*
X1804Y-36581D02*
X41175Y-75951D01*
X5491Y-90454D02*
X30584Y-65361D01*
X7645Y-91083D02*
X31976Y-66753D01*
X-3149Y-90742D02*
X26408Y-61185D01*
X-5662Y-90472D02*
X25016Y-59793D01*
X-15514Y-97539D02*
X23624Y-58401D01*
X-18298Y-97539D02*
X22232Y-57009D01*
X-29433Y-97539D02*
X16665Y-51442D01*
X-32217Y-97539D02*
X15273Y-50050D01*
X-26649Y-97539D02*
X18056Y-52833D01*
X1618Y-91543D02*
X29192Y-63969D01*
X-82Y-93243D02*
X401Y-92760D01*
X-1364Y-91741D02*
X27800Y-62577D01*
X-12730Y-97539D02*
X-10670Y-95479D01*
X15653Y-105347D02*
X44573Y-76427D01*
X14938Y-103278D02*
X41857Y-76359D01*
X20456Y-114463D02*
X59690Y-75229D01*
X15122Y-108661D02*
X47357Y-76427D01*
X11892Y-100756D02*
X38936Y-73713D01*
X9399Y-100465D02*
X37544Y-72321D01*
X13666Y-101766D02*
X40328Y-75104D01*
X19503Y-112633D02*
X55015Y-77120D01*
X20707Y-116293D02*
X53736Y-83264D01*
X27027Y-119438D02*
X57489Y-88976D01*
X27027Y-119438D02*
X46571D01*
X16039Y-110529D02*
X50140Y-76427D01*
X10702Y-95881D02*
X25911Y-111089D01*
X18041Y-111311D02*
X52924Y-76427D01*
X9230Y-99975D02*
X9696Y-100441D01*
X10300Y-98262D02*
X24519Y-112481D01*
X-23866Y-97539D02*
X19448Y-54225D01*
X-35001Y-97539D02*
X13881Y-48658D01*
X-21082Y-97539D02*
X20840Y-55617D01*
X15700Y-106446D02*
X23127Y-113873D01*
X15125Y-108655D02*
X17461Y-110991D01*
X20151Y-113680D02*
X21735Y-115265D01*
X13950Y-110263D02*
X14179Y-110493D01*
X56203Y-120474D02*
X56942Y-119735D01*
X54044D02*
X55021Y-120712D01*
X59366Y-119735D02*
X62414Y-122783D01*
X58068Y-121393D02*
X59546Y-119915D01*
X51260Y-119735D02*
X53693Y-122168D01*
X48395Y-122210D02*
X50870Y-119735D01*
X58582Y-123663D02*
X60938Y-121307D01*
X23777Y-122688D02*
X47244D01*
X23031Y-125807D02*
X26151Y-122688D01*
X23036Y-123429D02*
X23777Y-122688D01*
X15976Y-123425D02*
X18307Y-125756D01*
Y-125990D02*
Y-123433D01*
X13192Y-123425D02*
X17032Y-127265D01*
X10408Y-123425D02*
X15408Y-128425D01*
X9278D02*
X14278Y-123425D01*
X12062Y-128425D02*
X17062Y-123425D01*
X23031Y-126969D02*
Y-123433D01*
X15872Y-128425D02*
X18307Y-125990D01*
X14846Y-128425D02*
X18307Y-124964D01*
X18521Y-132457D02*
X22340Y-128639D01*
X34726Y-122688D02*
X68212Y-156174D01*
X31942Y-122688D02*
X65428Y-156174D01*
X37207D02*
X71570Y-121811D01*
X37510Y-122688D02*
X70996Y-156174D01*
X26374Y-122688D02*
X59861Y-156174D01*
X17719D02*
X54158Y-119735D01*
X29158Y-122688D02*
X62644Y-156174D01*
X28855D02*
X62330Y-122699D01*
X26071Y-156174D02*
X56734Y-125511D01*
X34423Y-156174D02*
X65007Y-125590D01*
X31639Y-156174D02*
X63064Y-124749D01*
X23287Y-156174D02*
X54464Y-124997D01*
X23031Y-124913D02*
X54293Y-156174D01*
X23684Y-122781D02*
X57077Y-156174D01*
X20503D02*
X53545Y-123132D01*
X20373Y-130606D02*
X45941Y-156174D01*
X22943Y-127608D02*
X51509Y-156174D01*
X21765Y-129214D02*
X48725Y-156174D01*
X12152D02*
X45638Y-122688D01*
X9368Y-156174D02*
X42854Y-122688D01*
X14935Y-156174D02*
X51374Y-119735D01*
X17305Y-133105D02*
X40373Y-156174D01*
X18981Y-131998D02*
X43157Y-156174D01*
X11781Y-133149D02*
X34806Y-156174D01*
X14565Y-133149D02*
X37589Y-156174D01*
X6057Y-123425D02*
X18299D01*
X5449Y-124033D02*
X9840Y-128425D01*
X7624Y-123425D02*
X12624Y-128425D01*
X6494D02*
X11494Y-123425D01*
X4667Y-127468D02*
X8710Y-123425D01*
X3721Y-125762D02*
X6057Y-123425D01*
X4057Y-125426D02*
X7057Y-128425D01*
X7707Y-133149D02*
X16851D01*
X8712Y-134559D02*
X10121Y-133149D01*
X8908Y-137146D02*
X12905Y-133149D01*
X5624Y-128425D02*
X15872D01*
X3721Y-126522D02*
X5624Y-128425D01*
X-29607Y-156174D02*
X-11326Y-137894D01*
X-30801D02*
X-12520Y-156174D01*
X-33585Y-137894D02*
X-15304Y-156174D01*
X-35174D02*
X-16894Y-137894D01*
X-32390Y-156174D02*
X-14110Y-137894D01*
X-5000Y-140177D02*
X5000D01*
X-8955Y-137894D02*
X-7853Y-138995D01*
X-28017Y-137894D02*
X-9736Y-156174D01*
X-25233Y-137894D02*
X-6953Y-156174D01*
X3800D02*
X37286Y-122688D01*
X1016Y-156174D02*
X34502Y-122688D01*
X6584Y-156174D02*
X40070Y-122688D01*
X8997Y-133149D02*
X32022Y-156174D01*
X-4552D02*
X28934Y-122688D01*
X-7335Y-156174D02*
X15689Y-133149D01*
X-1768Y-156174D02*
X31718Y-122688D01*
X7090Y-139594D02*
X23670Y-156174D01*
X4889Y-140177D02*
X20886Y-156174D01*
X9032Y-135968D02*
X29238Y-156174D01*
X8474Y-138195D02*
X26454Y-156174D01*
X-679Y-140177D02*
X15318Y-156174D01*
X-3462Y-140177D02*
X12535Y-156174D01*
X2105Y-140177D02*
X18102Y-156174D01*
X-16881Y-137894D02*
X1399Y-156174D01*
X-19665Y-137894D02*
X-1385Y-156174D01*
X-11314Y-137894D02*
X6967Y-156174D01*
X-14097Y-137894D02*
X4183Y-156174D01*
X-24039D02*
X-7313Y-139448D01*
X-26823Y-156174D02*
X-8749Y-138100D01*
X-22449Y-137894D02*
X-4169Y-156174D01*
X-10119D02*
X6005Y-140050D01*
X-12903Y-156174D02*
X3094Y-140177D01*
X-6560Y-139863D02*
X9751Y-156174D01*
X-18471D02*
X-2474Y-140177D01*
X-21255Y-156174D02*
X-5250Y-140169D01*
X-15687Y-156174D02*
X310Y-140177D01*
X-60400Y156174D02*
X-17316Y113091D01*
X-63184Y156174D02*
X-20100Y113091D01*
X-54832Y156174D02*
X-11749Y113091D01*
X-57616Y156174D02*
X-14533Y113091D01*
X-65968Y156174D02*
X-22884Y113091D01*
X-68752Y156174D02*
X-25668Y113091D01*
X-71536Y156174D02*
X-28427Y113066D01*
X-40913Y156174D02*
X2171Y113091D01*
X-43697Y156174D02*
X-613Y113091D01*
X-35345Y156174D02*
X7738Y113091D01*
X-38129Y156174D02*
X4955Y113091D01*
X-49265Y156174D02*
X-6181Y113091D01*
X-52048Y156174D02*
X-8965Y113091D01*
X-46481Y156174D02*
X-3397Y113091D01*
X-41881Y100443D02*
X-30070Y112255D01*
X-51253Y82998D02*
X-50628Y82373D01*
Y77756D02*
Y83623D01*
X-52645Y81606D02*
X-50628Y79589D01*
X-74319Y156174D02*
X-30235Y112089D01*
X-77103Y156174D02*
X-31627Y110697D01*
X-54037Y80214D02*
X-50558Y76735D01*
X-50572Y76943D02*
X-50544Y76516D01*
X-50628Y77368D02*
X-50572Y76943D01*
X-50393Y75755D02*
X-50301Y75485D01*
X-50544Y76516D02*
X-50393Y75755D01*
X-50628Y77368D02*
X-50628Y77756D01*
X-55429Y78822D02*
X-51196Y74590D01*
X-56821Y77430D02*
X-52588Y73198D01*
X-48963Y19341D02*
X14964Y83268D01*
X-51747Y19341D02*
X12180Y83268D01*
X-43396Y19341D02*
X19619Y82355D01*
X-46180Y19341D02*
X17748Y83268D01*
X-57315Y19341D02*
X6612Y83268D01*
X-76822Y65503D02*
X-41993Y100330D01*
X-54531Y19341D02*
X9396Y83268D01*
X-42323Y69451D02*
X-38221D01*
X-40490D02*
X-39355Y68316D01*
X-37828Y19341D02*
X22403Y79571D01*
X-40612Y19341D02*
X21011Y80963D01*
X-43343Y69520D02*
X-40747Y66924D01*
X-45489Y68883D02*
X-42139Y65532D01*
X-78442Y29229D02*
X-38221Y69451D01*
X-58213Y76038D02*
X-53980Y71806D01*
X-59605Y74646D02*
X-55372Y70414D01*
X-60997Y73254D02*
X-56764Y69022D01*
X-62388Y71862D02*
X-58156Y67630D01*
X-71949Y62302D02*
X-50628Y83623D01*
X-63780Y70470D02*
X-59548Y66238D01*
X-71949Y60384D02*
X-50628Y81705D01*
X-43135Y69507D02*
X-42711Y69451D01*
X-43563Y69535D02*
X-43135Y69507D01*
X-42711Y69451D02*
X-42323Y69451D01*
X-44323Y69686D02*
X-43563Y69535D01*
X-44594Y69778D02*
X-44323Y69686D01*
X-46881Y67491D02*
X-43531Y64140D01*
X-79887Y156174D02*
X-33019Y109306D01*
X-82671Y156174D02*
X-34411Y107913D01*
X-97119Y93676D02*
X-34621Y156174D01*
X-85455D02*
X-35802Y106522D01*
X-97119Y99243D02*
X-40188Y156174D01*
X-97119Y102027D02*
X-42972Y156174D01*
X-97119Y96460D02*
X-37405Y156174D01*
X-88042D02*
X88042D01*
X-88140Y156076D02*
X-37194Y105130D01*
X-89532Y154684D02*
X-38586Y103738D01*
X-90924Y153292D02*
X-39978Y102346D01*
X-92316Y151900D02*
X-41370Y100954D01*
X-93708Y150508D02*
X-42762Y99562D01*
X-97119Y90892D02*
X-31837Y156174D01*
X-97119Y107595D02*
X-48540Y156174D01*
X-97119Y110379D02*
X-51324Y156174D01*
X-95100Y149116D02*
X-44154Y98170D01*
X-97119Y104811D02*
X-45756Y156174D01*
X-97119Y115947D02*
X-56892Y156174D01*
X-97119Y118731D02*
X-59676Y156174D01*
X-97119Y113163D02*
X-54108Y156174D01*
X-96492Y147724D02*
X-45546Y96778D01*
X-97119Y137215D02*
X-51114Y91210D01*
X-97119Y134432D02*
X-52506Y89818D01*
X-97119Y145567D02*
X-46938Y95386D01*
X-97119Y142783D02*
X-48330Y93994D01*
X-97119Y139999D02*
X-49722Y92602D01*
X-97119Y57485D02*
X1570Y156174D01*
X-97119Y60269D02*
X-1214Y156174D01*
X-97119Y51917D02*
X7138Y156174D01*
X-97119Y54701D02*
X4354Y156174D01*
X-97119Y65837D02*
X-6782Y156174D01*
X-97119Y82540D02*
X-23485Y156174D01*
X-97119Y63053D02*
X-3998Y156174D01*
X-97119Y74189D02*
X-23642Y147665D01*
X-97119Y76972D02*
X-24503Y149588D01*
X-97119Y68621D02*
X-20056Y145683D01*
X-97119Y71405D02*
X-22177Y146347D01*
X-97119Y49134D02*
X9922Y156174D01*
X-97119Y79756D02*
X-24090Y152786D01*
X-97119Y46350D02*
X12705Y156174D01*
X-97119Y128864D02*
X-55290Y87034D01*
X-97119Y126080D02*
X-56682Y85642D01*
X-97119Y123296D02*
X-58074Y84250D01*
X-97119Y120512D02*
X-59465Y82859D01*
X-97119Y88108D02*
X-29053Y156174D01*
X-97119Y131648D02*
X-53898Y88426D01*
X-97119Y85324D02*
X-26269Y156174D01*
X-86516Y26330D02*
X-43327Y69519D01*
X-86516Y27856D02*
X-44594Y69778D01*
X-86516Y23547D02*
X-40611Y69451D01*
X-93405Y32381D02*
X-50301Y75485D01*
X-97119Y32430D02*
X-50628Y78922D01*
X-97119Y29646D02*
X-50495Y76270D01*
X-40650Y38989D02*
X-21002Y19341D01*
X-42042Y37597D02*
X-23786Y19341D01*
X-37866Y41772D02*
X-15396Y19302D01*
X-39258Y40380D02*
X-18218Y19341D01*
X-44826Y34813D02*
X-29354Y19341D01*
X-48273Y66099D02*
X-44923Y62748D01*
X-43434Y36205D02*
X-26570Y19341D01*
X-47610Y32029D02*
X-34922Y19341D01*
X-49002Y30637D02*
X-37706Y19341D01*
X-46218Y33421D02*
X-32138Y19341D01*
X-48865Y2736D02*
X-45105Y6496D01*
X-50394Y29245D02*
X-40489Y19341D01*
X-51786Y27853D02*
X-43273Y19341D01*
X-51303Y6496D02*
X-33459D01*
X-49665Y64707D02*
X-46315Y61357D01*
X-51057Y63315D02*
X-47707Y59965D01*
X-53178Y26461D02*
X-46057Y19341D01*
X-52449Y61923D02*
X-49099Y58573D01*
X-53841Y60531D02*
X-50491Y57181D01*
X-55233Y59139D02*
X-51883Y55789D01*
X-56625Y57747D02*
X-53275Y54397D01*
X-51022Y6146D02*
X-50672Y6496D01*
X-50257Y4128D02*
X-47888Y6496D01*
X-55962Y23677D02*
X-51625Y19341D01*
X-57354Y22285D02*
X-54409Y19341D01*
X-54570Y25069D02*
X-48841Y19341D01*
X-47589Y-21043D02*
X-20327Y6219D01*
X-47589Y-9907D02*
X-32322Y5359D01*
X-38781Y6496D02*
X1329Y-33613D01*
X-35997Y6496D02*
X1329Y-30829D01*
X-47589Y-4340D02*
X-36753Y6496D01*
X-47589Y-1556D02*
X-39537Y6496D01*
X-47589Y-7123D02*
X-33969Y6496D01*
X-47589Y-18259D02*
X-27925Y1404D01*
X-47589Y-15475D02*
X-29651Y2463D01*
X-47589Y-32178D02*
X-14759Y651D01*
X-47589Y-29394D02*
X-16151Y2043D01*
X-47589Y-23827D02*
X-18935Y4827D01*
X-47589Y-12691D02*
X-30930Y3967D01*
X-47589Y-26610D02*
X-17543Y3435D01*
X-47637Y1180D02*
X-42321Y6496D01*
X-50603Y4474D02*
X-48064Y1936D01*
X-52899Y2178D02*
X-50837Y115D01*
X-54134Y2362D02*
X-50837Y-935D01*
X-56910Y2354D02*
X-50837Y-3719D01*
X-57431Y-33669D02*
X-50837Y-27075D01*
X-57431Y-27747D02*
X-50837Y-34341D01*
X-57431Y-30885D02*
X-50837Y-24291D01*
X-57431Y-22179D02*
X-50837Y-28774D01*
X-57431Y-24963D02*
X-50837Y-31558D01*
X-58072Y21566D02*
X-19304Y60335D01*
X-58017Y56355D02*
X-54667Y53005D01*
X-58089Y21351D02*
X-19170Y60269D01*
X-58348Y20496D02*
X-57193Y19341D01*
X-59409Y54963D02*
X-56059Y51613D01*
X-60801Y53571D02*
X-57450Y50221D01*
X-57431Y-5830D02*
X-51161Y439D01*
X-57431Y-3046D02*
X-52553Y1831D01*
X-57431Y-8614D02*
X-50837Y-2020D01*
X-57431Y92D02*
X-50837Y-6503D01*
X-58382Y19341D02*
X-15748D01*
X-57431Y-263D02*
X-54572Y2597D01*
X-62193Y52179D02*
X-58842Y48829D01*
X-63585Y50787D02*
X-60234Y47437D01*
X-58853Y19812D02*
X-58382Y19341D01*
X-63835Y6496D02*
X-60679Y3340D01*
X-69403Y6496D02*
X-60679Y-2228D01*
X-66619Y6496D02*
X-60679Y556D01*
X-72187Y6496D02*
X-60679Y-5012D01*
X-80315Y6496D02*
X-59721D01*
X-61051D02*
X-60244Y5689D01*
X-74971Y6496D02*
X-60679Y-7796D01*
X-57431Y-8260D02*
X-50837Y-14854D01*
X-57431Y-14182D02*
X-50837Y-7587D01*
X-57431Y-11044D02*
X-50837Y-17638D01*
X-57431Y-16966D02*
X-50837Y-10371D01*
X-57431Y-11398D02*
X-50837Y-4804D01*
X-57431Y-2692D02*
X-50837Y-9287D01*
X-57431Y-5476D02*
X-50837Y-12070D01*
X-57431Y-25317D02*
X-50837Y-18723D01*
X-57431Y-16612D02*
X-50837Y-23206D01*
X-57431Y-28101D02*
X-50837Y-21507D01*
X-57431Y-19395D02*
X-50837Y-25990D01*
X-57431Y-13828D02*
X-50837Y-20422D01*
X-57431Y-19750D02*
X-50837Y-13155D01*
X-57431Y-22534D02*
X-50837Y-15939D01*
X-80315Y705D02*
X-60679Y-18931D01*
X-77755Y6496D02*
X-60679Y-10580D01*
X-80315Y-2079D02*
X-60679Y-21715D01*
X-80315Y-20363D02*
X-60679Y-727D01*
X-80315Y-14795D02*
X-60403Y5117D01*
X-80315Y6272D02*
X-60679Y-13363D01*
X-80315Y3489D02*
X-60679Y-16147D01*
X-80315Y-10431D02*
X-60679Y-30067D01*
X-80190Y-23021D02*
X-60679Y-3511D01*
X-80315Y-13215D02*
X-60679Y-32851D01*
X-80315Y-7647D02*
X-60679Y-27283D01*
X-80315Y-4863D02*
X-60679Y-24499D01*
X-86516Y-32131D02*
X-60679Y-6295D01*
X-65172Y69078D02*
X-60940Y64846D01*
X-66564Y67686D02*
X-62332Y63454D01*
X-67956Y66294D02*
X-63724Y62062D01*
X-69348Y64903D02*
X-65116Y60670D01*
X-70740Y63511D02*
X-66508Y59278D01*
X-71949Y61935D02*
X-67900Y57886D01*
X-72057Y59260D02*
X-69292Y56494D01*
X-64977Y49395D02*
X-61626Y46045D01*
X-66368Y48003D02*
X-63018Y44653D01*
X-67760Y46611D02*
X-64410Y43261D01*
X-69152Y45219D02*
X-65802Y41869D01*
X-70544Y43828D02*
X-67194Y40477D01*
X-71936Y42436D02*
X-68586Y39085D01*
X-69497Y31493D02*
X-69015Y31010D01*
X-71949Y60039D02*
Y62302D01*
X-73235Y57654D02*
X-70683Y55102D01*
X-75692Y57327D02*
X-72075Y53710D01*
X-77658Y60039D02*
Y63484D01*
X-73328Y41044D02*
X-69978Y37694D01*
X-74720Y39652D02*
X-71370Y36301D01*
X-76112Y38260D02*
X-72762Y34910D01*
X-77504Y36868D02*
X-74154Y33518D01*
X-78896Y35476D02*
X-75546Y32126D01*
X-80288Y34084D02*
X-76938Y30734D01*
X-70813Y30177D02*
X-69358Y28722D01*
X-68553Y15748D02*
Y27550D01*
X-72205Y28785D02*
X-68553Y25133D01*
X-74410Y24517D02*
X-69487Y29440D01*
X-74410Y26581D02*
X-69497Y31493D01*
X-74789Y21354D02*
X-68575Y27568D01*
X-73597Y27393D02*
X-68553Y22349D01*
X-74410Y22638D02*
Y26581D01*
Y22638D02*
X-68553Y16782D01*
X-74410Y25422D02*
X-68553Y19565D01*
X-80315Y13044D02*
X-68553Y24806D01*
X-81680Y32692D02*
X-78329Y29342D01*
X-83072Y31300D02*
X-79134Y27362D01*
X-84464Y29908D02*
X-79134Y24578D01*
X-85856Y28516D02*
X-80045Y22705D01*
X-86516Y20763D02*
X-79031Y28247D01*
X-82281Y22213D02*
X-79134Y25361D01*
Y23616D02*
Y27559D01*
X-80703Y22047D02*
X-79134Y23616D01*
X-86516Y26392D02*
X-82346Y22222D01*
X-86516Y23609D02*
X-84444Y21537D01*
X-97119Y117728D02*
X-60857Y81467D01*
X-97119Y121514D02*
X-62459Y156174D01*
X-97119Y114945D02*
X-62249Y80075D01*
X-97119Y112161D02*
X-63641Y78683D01*
X-97119Y127082D02*
X-68027Y156174D01*
X-97119Y129866D02*
X-70811Y156174D01*
X-97119Y124298D02*
X-65243Y156174D01*
X-97119Y101025D02*
X-69209Y73115D01*
X-97119Y98241D02*
X-70601Y71723D01*
X-97119Y95457D02*
X-71993Y70331D01*
X-97119Y92673D02*
X-73385Y68939D01*
X-97119Y109377D02*
X-65033Y77291D01*
X-97119Y106593D02*
X-66425Y75899D01*
X-97119Y103809D02*
X-67817Y74507D01*
X-97119Y138218D02*
X-79163Y156174D01*
X-97119Y141002D02*
X-81946Y156174D01*
X-97119Y132650D02*
X-73595Y156174D01*
X-97119Y135434D02*
X-76379Y156174D01*
X-97119Y146569D02*
X-87514Y156174D01*
X-97119Y147097D02*
X-88042Y156174D01*
X-97119Y143786D02*
X-84730Y156174D01*
X-97119Y78754D02*
X-77516Y59150D01*
X-97119Y81538D02*
X-77658Y62076D01*
X-97119Y75970D02*
X-73467Y52318D01*
X-97119Y89890D02*
X-74777Y67547D01*
X-97119Y87106D02*
X-76169Y66155D01*
X-97119Y84322D02*
X-77420Y64623D01*
X-97119Y64835D02*
X-79035Y46751D01*
X-97119Y62051D02*
X-80427Y45359D01*
X-97119Y40782D02*
X-77658Y60243D01*
X-97119Y43566D02*
X-77658Y63027D01*
X-97119Y73186D02*
X-74859Y50927D01*
X-97119Y70402D02*
X-76251Y49534D01*
X-97119Y67619D02*
X-77643Y48143D01*
X-97119Y56483D02*
X-83211Y42575D01*
X-97119Y53699D02*
X-84603Y41183D01*
X-97119Y50915D02*
X-85995Y39791D01*
X-97119Y48131D02*
X-87387Y38399D01*
X-97119Y37998D02*
X-76954Y58163D01*
X-97119Y59267D02*
X-81819Y43967D01*
X-97119Y35214D02*
X-75129Y57204D01*
X-97119Y36996D02*
X-92954Y32831D01*
X-97119Y34212D02*
X-94187Y31280D01*
X-97119Y31428D02*
X-94587Y28896D01*
X-97119Y45347D02*
X-88779Y37007D01*
X-97119Y42564D02*
X-90171Y35615D01*
X-97119Y39780D02*
X-91562Y34223D01*
X-97119Y21295D02*
X-94587Y23827D01*
X-97119Y25860D02*
X-94587Y23328D01*
X-97119Y23076D02*
X-94587Y20544D01*
X-97119Y28644D02*
X-94587Y26112D01*
X-97119Y26863D02*
X-94587Y29395D01*
X-97119Y24079D02*
X-94587Y26611D01*
X-76571Y11220D02*
X-68553Y19238D01*
X-76704Y19365D02*
X-68560Y11220D01*
X-75312Y20757D02*
X-65776Y11220D01*
X-73787D02*
X-68553Y16454D01*
X-79355Y11220D02*
X-68553Y22022D01*
X-80230Y17323D02*
X-74128Y11220D01*
X-78096Y17973D02*
X-71344Y11220D01*
X-68219D02*
X-66459Y12981D01*
X-68077Y14600D02*
X-64698Y11220D01*
X-65435D02*
X-65067Y11589D01*
X-80315Y11220D02*
X-64698D01*
X-71003D02*
X-67851Y14373D01*
X-78054Y18015D02*
X-75101Y20967D01*
X-80315Y11220D02*
Y17323D01*
Y15828D02*
X-78441Y17702D01*
X-81693Y22047D02*
X-80703D01*
X-85039Y8858D02*
Y18701D01*
X-80315Y14624D02*
X-76911Y11220D01*
X-80315Y11840D02*
X-79695Y11220D01*
X-80315Y4692D02*
X-78511Y6496D01*
X-80315Y17323D02*
X-79724D01*
X-86516Y4059D02*
X-85039Y5536D01*
X-86516Y4121D02*
X-85039Y2645D01*
X-80315Y-3659D02*
X-70160Y6496D01*
X-80315Y-875D02*
X-72944Y6496D01*
X-80315Y-9227D02*
X-64592Y6496D01*
X-80315Y-6443D02*
X-67376Y6496D01*
X-80315Y1908D02*
X-75727Y6496D01*
X-85039Y-22638D02*
Y8858D01*
X-80315Y-22638D02*
Y6496D01*
Y-17579D02*
X-60679Y2057D01*
X-80315Y-12011D02*
X-61808Y6496D01*
X-86516Y-18149D02*
X-85039Y-19626D01*
X-86516Y-18212D02*
X-85039Y-16735D01*
X-86516Y-20996D02*
X-85039Y-19519D01*
X-86516Y-4292D02*
X-85039Y-2816D01*
X-86516Y-1446D02*
X-85039Y-2923D01*
X-86516Y-7076D02*
X-85039Y-5600D01*
X-86516Y-4230D02*
X-85039Y-5706D01*
X-86516Y1338D02*
X-85039Y-139D01*
X-86516Y1275D02*
X-85039Y2752D01*
X-86516Y-1508D02*
X-85039Y-32D01*
X-86516Y-15428D02*
X-85039Y-13951D01*
X-86516Y-12582D02*
X-85039Y-14058D01*
X-86516Y-15366D02*
X-85039Y-16842D01*
X-86516Y-9860D02*
X-85039Y-8384D01*
X-86516Y-7014D02*
X-85039Y-8490D01*
X-86516Y-9798D02*
X-85039Y-11274D01*
X-86516Y15257D02*
X-85039Y13781D01*
X-86516Y15195D02*
X-85039Y16671D01*
X-86516Y12473D02*
X-85039Y10997D01*
X-86516Y12411D02*
X-85039Y13887D01*
X-86516Y17979D02*
X-85205Y19289D01*
X-86516Y20825D02*
X-85232Y19541D01*
X-86516Y18041D02*
X-85039Y16565D01*
X-86516Y9689D02*
X-85039Y8213D01*
X-86516Y9627D02*
X-85039Y11103D01*
X-86516Y6905D02*
X-85039Y5429D01*
X-86516Y6843D02*
X-85039Y8320D01*
X-97119Y-976D02*
X-94587Y1556D01*
X-97119Y3589D02*
X-94587Y1057D01*
X-97119Y805D02*
X-94587Y-1727D01*
X-97119Y12943D02*
X-94587Y15476D01*
X-97119Y17509D02*
X-94587Y14976D01*
X-97119Y10159D02*
X-94587Y12692D01*
X-97119Y14725D02*
X-94587Y12192D01*
X-97119Y20293D02*
X-94587Y17760D01*
X-97119Y18511D02*
X-94587Y21043D01*
X-97119Y15727D02*
X-94587Y18259D01*
X-97119Y6373D02*
X-94587Y3841D01*
X-97119Y4592D02*
X-94587Y7124D01*
X-97119Y1808D02*
X-94587Y4340D01*
X-97119Y7375D02*
X-94587Y9908D01*
X-97119Y11941D02*
X-94587Y9409D01*
X-97119Y9157D02*
X-94587Y6625D01*
X-86516Y-20933D02*
X-85039Y-22410D01*
X-86516Y-12644D02*
X-85039Y-11168D01*
X-86516Y-23779D02*
X-85039Y-22303D01*
X-97119Y-26031D02*
X-94587Y-23499D01*
X-97119Y-23247D02*
X-94587Y-20715D01*
X-97119Y-18682D02*
X-94587Y-21214D01*
X-97119Y-21466D02*
X-94587Y-23998D01*
X-86516Y-29347D02*
X-83278Y-26110D01*
X-86516Y-26563D02*
X-84879Y-24926D01*
X-97119Y-29817D02*
X-94587Y-32350D01*
X-97119Y-31599D02*
X-94587Y-29067D01*
X-97119Y-28815D02*
X-94587Y-26283D01*
X-97119Y-24250D02*
X-94587Y-26782D01*
X-97119Y-27033D02*
X-94587Y-29566D01*
X-97119Y-9328D02*
X-94587Y-6795D01*
X-97119Y-4762D02*
X-94587Y-7295D01*
X-97119Y-12112D02*
X-94587Y-9579D01*
X-97119Y-7546D02*
X-94587Y-10079D01*
X-97119Y-1978D02*
X-94587Y-4511D01*
X-97119Y-3760D02*
X-94587Y-1228D01*
X-97119Y-6544D02*
X-94587Y-4012D01*
X-97119Y-15898D02*
X-94587Y-18430D01*
X-97119Y-17680D02*
X-94587Y-15147D01*
X-97119Y-20463D02*
X-94587Y-17931D01*
X-97119Y-14896D02*
X-94587Y-12363D01*
X-97119Y-10330D02*
X-94587Y-12863D01*
X-97119Y-13114D02*
X-94587Y-15646D01*
X-36474Y43164D02*
X80211Y-73521D01*
X-41564Y6496D02*
X50966Y-86034D01*
X-44348Y6496D02*
X49574Y-87426D01*
X-47132Y6496D02*
X48182Y-88818D01*
X-49916Y6496D02*
X46790Y-90210D01*
X-47589Y-57233D02*
X-2231Y-11876D01*
X-47810Y1606D02*
X45398Y-91602D01*
X-47589Y-37589D02*
X5261Y-90439D01*
X-47589Y-65585D02*
X1329Y-16668D01*
X-47589Y-40373D02*
X2880Y-90842D01*
X-47589Y-43157D02*
X1166Y-91912D01*
X-47589Y-62801D02*
X552Y-14660D01*
X-47589Y-60017D02*
X-840Y-13268D01*
X-47685Y-68465D02*
X1329Y-19451D01*
X-47589Y-43314D02*
X-9191Y-4916D01*
X-47589Y-40530D02*
X-10583Y-3525D01*
X-47589Y-48882D02*
X-6407Y-7700D01*
X-47589Y-46098D02*
X-7799Y-6308D01*
X-47589Y-37746D02*
X-11975Y-2133D01*
X-47589Y-34962D02*
X-13367Y-741D01*
X-47589Y-67913D02*
Y787D01*
Y-54449D02*
X-3624Y-10484D01*
X-47589Y-48725D02*
X-5821Y-90493D01*
X-47589Y-45941D02*
X-2538Y-90991D01*
X-47589Y-51509D02*
X-7883Y-91215D01*
X-47589Y-51666D02*
X-5015Y-9092D01*
X-47589Y-9751D02*
X39830Y-97170D01*
X-47589Y-12535D02*
X38438Y-98562D01*
X-47589Y-15318D02*
X37046Y-99953D01*
X-47589Y-18102D02*
X35654Y-101345D01*
X-47589Y-1399D02*
X44006Y-92994D01*
X-47589Y-4183D02*
X42614Y-94386D01*
X-47589Y-6967D02*
X41222Y-95778D01*
X-47589Y-29238D02*
X30087Y-106913D01*
X-37785Y-97539D02*
X12489Y-47266D01*
X-47589Y-32022D02*
X28695Y-108305D01*
X-47589Y-34806D02*
X27303Y-109697D01*
X-47589Y-20886D02*
X34262Y-102737D01*
X-47589Y-23670D02*
X32871Y-104129D01*
X-47589Y-26454D02*
X31479Y-105521D01*
X-43353Y-97539D02*
X9705Y-44482D01*
X-46137Y-97539D02*
X8313Y-43090D01*
X-37785Y-97539D02*
X12489Y-47266D01*
X-40569Y-97539D02*
X11097Y-45874D01*
X-47589Y-54293D02*
X-9389Y-92492D01*
X-47589Y-57077D02*
X-10394Y-94272D01*
X-48920Y-97539D02*
X6921Y-41698D01*
X-47589Y-59860D02*
X-10673Y-96776D01*
X-47589Y-62644D02*
X-12694Y-97539D01*
X-47589Y-65428D02*
X-15477Y-97539D01*
X-48794Y-69791D02*
X-21045Y-97539D01*
X-50186Y-71183D02*
X-23829Y-97539D01*
X-47612Y-68189D02*
X-18261Y-97539D01*
X-57431Y-55940D02*
X-50837Y-49346D01*
X-57431Y-47234D02*
X-50837Y-53829D01*
Y-67241D02*
Y115D01*
X-57431Y-50018D02*
X-50837Y-56612D01*
X-57431Y-44450D02*
X-50837Y-51045D01*
X-57431Y-50372D02*
X-50837Y-43778D01*
X-57431Y-53156D02*
X-50837Y-46562D01*
X-57431Y-64292D02*
X-50837Y-57697D01*
X-57431Y-55586D02*
X-50837Y-62180D01*
X-57431Y-67076D02*
X-50837Y-60481D01*
X-57431Y-58370D02*
X-50837Y-64964D01*
X-57431Y-52802D02*
X-50837Y-59396D01*
X-57431Y-58724D02*
X-50837Y-52130D01*
X-57431Y-61508D02*
X-50837Y-54914D01*
X-57431Y-30531D02*
X-50837Y-37125D01*
X-57431Y-36453D02*
X-50837Y-29859D01*
X-57431Y-33315D02*
X-50837Y-39909D01*
X-57431Y-39237D02*
X-50837Y-32642D01*
X-86516Y-40483D02*
X-60679Y-14646D01*
X-80315Y-18782D02*
X-60679Y-38418D01*
X-80315Y-21566D02*
X-60679Y-41202D01*
X-57431Y-47589D02*
X-50837Y-40994D01*
X-57431Y-38882D02*
X-50837Y-45477D01*
X-57431Y-41666D02*
X-50837Y-48261D01*
X-57431Y-36099D02*
X-50837Y-42693D01*
X-57431Y-42021D02*
X-50837Y-35426D01*
X-57431Y-44805D02*
X-50837Y-38210D01*
X-58415Y-93115D02*
X1329Y-33371D01*
X-58415Y-90331D02*
X1329Y-30587D01*
X-58415Y-98683D02*
X2745Y-37522D01*
X-58415Y-95899D02*
X1446Y-36038D01*
X-58415Y-84763D02*
X1329Y-25019D01*
X-58415Y-81979D02*
X1329Y-22235D01*
X-58415Y-87547D02*
X1329Y-27803D01*
X-51565Y-97400D02*
X5529Y-40306D01*
X-53917Y-96968D02*
X4137Y-38914D01*
X-51578Y-72575D02*
X-26613Y-97539D01*
X-52969Y-73967D02*
X-29397Y-97539D01*
X-58415Y-79413D02*
X-48064Y-69062D01*
X-67274Y-82486D02*
X-50837Y-66049D01*
X-54361Y-75359D02*
X-32181Y-97539D01*
X-57431Y-61154D02*
X-51090Y-67494D01*
X-57431Y-63937D02*
X-52482Y-68886D01*
X-57431Y-66721D02*
X-53874Y-70278D01*
X-57431Y-68898D02*
Y2204D01*
X-61188Y-77592D02*
X-50837Y-67241D01*
X-67274Y-79702D02*
X-50837Y-63265D01*
X-57517Y-69419D02*
X-55266Y-71670D01*
X-58790Y-70930D02*
X-56658Y-73062D01*
X-60182Y-72322D02*
X-58050Y-74454D01*
X-61574Y-73714D02*
X-59442Y-75846D01*
X-67274Y-79413D02*
X-57907Y-70046D01*
X-51403Y-97539D02*
X-10535D01*
X-47466Y-113091D02*
X-41055D01*
X-47252D02*
X-41103Y-119240D01*
X-51627Y-122517D02*
X-42200Y-113091D01*
X-55753Y-76751D02*
X-34965Y-97539D01*
X-57145Y-78143D02*
X-37749Y-97539D01*
X-52764Y-120870D02*
X-44984Y-113091D01*
X-41055D02*
X-39487Y-114659D01*
X-41685Y-113091D02*
X-39719Y-115056D01*
X-41351Y-119488D02*
X-39487Y-117625D01*
X-44468Y-113091D02*
X-39711Y-117848D01*
X-49351Y-113776D02*
X-43014Y-120113D01*
X-50898Y-101279D02*
X-47361Y-104816D01*
X-48923Y-108678D02*
X-47605Y-107359D01*
X-48923Y-108678D02*
X-47605Y-107359D01*
X-51403Y-101279D02*
X-50898D01*
X-52827Y-101948D02*
X-47721Y-107054D01*
X-48380Y-108801D02*
X-47361Y-107782D01*
X-54773Y-120096D02*
X-48282Y-113604D01*
X-57557Y-117312D02*
X-51755Y-111510D01*
X-57557Y-117312D02*
X-51755Y-111510D01*
X-56165Y-118703D02*
X-50737Y-113276D01*
X-49094Y-156174D02*
X-30813Y-137894D01*
X-50288D02*
X-32008Y-156174D01*
X-46310D02*
X-28029Y-137894D01*
X-47504D02*
X-29224Y-156174D01*
X-53072Y-137894D02*
X-34791Y-156174D01*
X-54662D02*
X-36381Y-137894D01*
X-51878Y-156174D02*
X-33597Y-137894D01*
X-39152D02*
X-20872Y-156174D01*
X-40742D02*
X-22462Y-137894D01*
X-36369D02*
X-18088Y-156174D01*
X-37958D02*
X-19678Y-137894D01*
X-43526Y-156174D02*
X-25245Y-137894D01*
X-44720D02*
X-26440Y-156174D01*
X-41936Y-137894D02*
X-23656Y-156174D01*
X-50581Y-129823D02*
X-43726Y-122968D01*
X-51602Y-122660D02*
X-44439Y-129823D01*
X-41765D02*
Y-124571D01*
X-47797Y-129823D02*
X-42366Y-124391D01*
X-56149Y-129823D02*
X-40236Y-113910D01*
X-53365Y-129823D02*
X-39947Y-116405D01*
X-45013Y-129823D02*
X-41765Y-126574D01*
X-52266Y-124780D02*
X-47223Y-129823D01*
X-42230D02*
X-41765Y-129358D01*
X-57445Y-156174D02*
X-39165Y-137894D01*
X-54242Y-125588D02*
X-50007Y-129823D01*
X-55856Y-137894D02*
X-37575Y-156174D01*
X-58415Y-88008D02*
X-48884Y-97539D01*
X-58415Y-90792D02*
X-52156Y-97051D01*
X-58415Y-99144D02*
X-48875Y-108684D01*
X-58415Y-109818D02*
X-50387Y-101790D01*
X-58415Y-79656D02*
X-40532Y-97539D01*
X-58415Y-82440D02*
X-43316Y-97539D01*
X-58415Y-85224D02*
X-46100Y-97539D01*
X-58415Y-115386D02*
X-47603Y-104574D01*
X-58415Y-104711D02*
X-51768Y-111359D01*
X-58415Y-107495D02*
X-43897Y-122013D01*
X-58415Y-115847D02*
X-53763Y-120500D01*
X-58415Y-101927D02*
X-50976Y-109366D01*
X-58415Y-107034D02*
X-53342Y-101961D01*
X-58415Y-112602D02*
X-48995Y-103182D01*
X-58415Y-101467D02*
X-55591Y-98642D01*
X-58415Y-96360D02*
X-55688Y-99087D01*
X-58415Y-116453D02*
X-54384Y-120485D01*
X-58415Y-104250D02*
X-55159Y-100994D01*
X-58415Y-93576D02*
X-54653Y-97338D01*
X-58415Y-116453D02*
Y-79413D01*
X-67274Y-112556D02*
X-56691Y-123139D01*
X-61188Y-118274D02*
X-56681Y-122781D01*
X-61331Y-121085D02*
X-59854Y-119608D01*
X-60434Y-122972D02*
X-58462Y-121000D01*
X-61331Y-121085D02*
X-59854Y-119608D01*
X-58415Y-113063D02*
X-41765Y-129714D01*
X-58415Y-110279D02*
X-41765Y-126930D01*
X-60196Y-129823D02*
X-41765D01*
X-68581Y-156174D02*
X-50300Y-137894D01*
X-97119Y-104982D02*
X-45927Y-156174D01*
X-97119Y-107766D02*
X-48711Y-156174D01*
X-97119Y-110550D02*
X-51495Y-156174D01*
X-61867Y-137894D02*
X-8955D01*
X-61423D02*
X-43143Y-156174D01*
X-58640Y-137894D02*
X-40359Y-156174D01*
X-60229D02*
X-41949Y-137894D01*
X-88042Y-156174D02*
X88042D01*
X-65797D02*
X-47517Y-137894D01*
X-63013Y-156174D02*
X-44733Y-137894D01*
X-60956Y-129062D02*
X-56295Y-124401D01*
X-62348Y-127670D02*
X-57070Y-122392D01*
X-60681Y-121933D02*
X-52791Y-129823D01*
X-86516Y-103503D02*
X-60196Y-129823D01*
X-97119Y-113334D02*
X-54278Y-156174D01*
X-97119Y-116118D02*
X-57062Y-156174D01*
X-97119Y-118901D02*
X-59846Y-156174D01*
X-60897Y-124501D02*
X-55575Y-129823D01*
X-62618Y-125563D02*
X-58359Y-129823D01*
X-58933D02*
X-54648Y-125538D01*
X-74149Y-156174D02*
X-55868Y-137894D01*
X-76933Y-156174D02*
X-58652Y-137894D01*
X-71365Y-156174D02*
X-53084Y-137894D01*
X-86516Y-54402D02*
X-60679Y-28566D01*
X-86516Y-26501D02*
X-60679Y-52338D01*
Y-68225D02*
Y3543D01*
X-86516Y-29285D02*
X-60679Y-55122D01*
X-86516Y-23717D02*
X-60679Y-49554D01*
X-86516Y-48834D02*
X-60679Y-22998D01*
X-86516Y-51618D02*
X-60679Y-25782D01*
X-86516Y-62754D02*
X-60679Y-36917D01*
X-86516Y-34853D02*
X-60679Y-60689D01*
X-70046Y-77592D02*
X-60679Y-68225D01*
X-86516Y-73889D02*
X-60679Y-48053D01*
X-86516Y-32069D02*
X-60679Y-57906D01*
X-86516Y-57186D02*
X-60679Y-31349D01*
X-86516Y-59970D02*
X-60679Y-34133D01*
X-80246Y-24420D02*
X-60679Y-43986D01*
X-80315Y-15999D02*
X-60679Y-35634D01*
X-81536Y-25913D02*
X-60679Y-46770D01*
X-86516Y-46051D02*
X-60679Y-20214D01*
X-86516Y-37699D02*
X-60679Y-11862D01*
X-86516Y-34915D02*
X-60679Y-9078D01*
X-86516Y-43267D02*
X-60679Y-17430D01*
X-62966Y-75106D02*
X-60834Y-77238D01*
X-86516Y-57124D02*
X-68047Y-75593D01*
X-86516Y-59908D02*
X-69439Y-76985D01*
X-86516Y-62692D02*
X-70521Y-78687D01*
X-64358Y-76498D02*
X-61663Y-79192D01*
X-86516Y-93376D02*
X-60679Y-67540D01*
X-65750Y-77889D02*
X-61663Y-81976D01*
X-86516Y-87809D02*
X-60679Y-61972D01*
X-86516Y-85025D02*
X-60679Y-59188D01*
X-86516Y-90593D02*
X-60679Y-64756D01*
X-67274Y-84718D02*
X-61663Y-90328D01*
X-67142Y-79281D02*
X-61663Y-84760D01*
Y-117126D02*
Y-78740D01*
X-67274Y-90838D02*
X-61663Y-85227D01*
X-67274Y-81934D02*
X-61663Y-87544D01*
X-67274Y-85270D02*
X-61663Y-79660D01*
X-67274Y-88054D02*
X-61663Y-82443D01*
X-86516Y-73827D02*
X-70522Y-89821D01*
X-86516Y-71043D02*
X-70522Y-87037D01*
Y-117126D02*
Y-78740D01*
X-86516Y-76611D02*
X-70522Y-92605D01*
X-86516Y-68259D02*
X-70522Y-84253D01*
X-86516Y-65475D02*
X-70522Y-81470D01*
X-86516Y-103503D02*
Y27856D01*
Y-84963D02*
X-70522Y-100957D01*
X-86516Y-98944D02*
X-70522Y-82950D01*
X-67274Y-116453D02*
Y-79413D01*
X-86516Y-96160D02*
X-70522Y-80166D01*
X-86516Y-79395D02*
X-70522Y-95389D01*
X-86516Y-82179D02*
X-70522Y-98173D01*
X-86516Y-37637D02*
X-60679Y-63473D01*
X-97119Y-56654D02*
X-94587Y-54121D01*
X-86516Y-40420D02*
X-60679Y-66257D01*
X-86516Y-65538D02*
X-60679Y-39701D01*
X-97119Y-53870D02*
X-94587Y-51337D01*
X-97119Y-49304D02*
X-94587Y-51837D01*
X-97119Y-52088D02*
X-94587Y-54621D01*
X-97119Y-60440D02*
X-94587Y-62972D01*
X-97119Y-62222D02*
X-94587Y-59689D01*
X-97119Y-63224D02*
X-94587Y-65756D01*
X-97119Y-65005D02*
X-94587Y-62473D01*
X-97119Y-59438D02*
X-94587Y-56905D01*
X-97119Y-54872D02*
X-94587Y-57405D01*
X-97119Y-57656D02*
X-94587Y-60189D01*
X-97119Y-39951D02*
X-94587Y-37418D01*
X-97119Y-35385D02*
X-94587Y-37917D01*
X-97119Y-42734D02*
X-94587Y-40202D01*
X-97119Y-38169D02*
X-94587Y-40701D01*
X-97119Y-32601D02*
X-94587Y-35134D01*
X-97119Y-34383D02*
X-94587Y-31850D01*
X-97119Y-37167D02*
X-94587Y-34634D01*
X-97119Y-46521D02*
X-94587Y-49053D01*
X-97119Y-48302D02*
X-94587Y-45770D01*
X-97119Y-51086D02*
X-94587Y-48554D01*
X-97119Y-45518D02*
X-94587Y-42986D01*
X-97119Y-40953D02*
X-94587Y-43485D01*
X-97119Y-43737D02*
X-94587Y-46269D01*
X-86516Y-71105D02*
X-60679Y-45269D01*
X-86516Y-45988D02*
X-62479Y-70025D01*
X-86516Y-76673D02*
X-60679Y-50837D01*
X-86516Y-48772D02*
X-63871Y-71417D01*
X-86516Y-68322D02*
X-60679Y-42485D01*
X-86516Y-43204D02*
X-61087Y-68633D01*
X-94587Y-105174D02*
Y29528D01*
X-86516Y-51556D02*
X-65263Y-72809D01*
X-86516Y-54340D02*
X-66655Y-74201D01*
X-86516Y-82241D02*
X-60679Y-56404D01*
X-86516Y-79457D02*
X-60679Y-53620D01*
X-97119Y-82711D02*
X-94587Y-85243D01*
X-97119Y-84493D02*
X-94587Y-81960D01*
X-97119Y-87277D02*
X-94587Y-84744D01*
X-97119Y-68792D02*
X-94587Y-71324D01*
X-97119Y-70573D02*
X-94587Y-68041D01*
X-97119Y-71575D02*
X-94587Y-74108D01*
X-97119Y-73357D02*
X-94587Y-70825D01*
X-97119Y-66008D02*
X-94587Y-68540D01*
X-97119Y-67789D02*
X-94587Y-65257D01*
X-97119Y-147097D02*
Y147097D01*
Y-81709D02*
X-94587Y-79176D01*
X-97119Y-77143D02*
X-94587Y-79676D01*
X-97119Y-79927D02*
X-94587Y-82459D01*
X-97119Y-74359D02*
X-94587Y-76892D01*
X-97119Y-76141D02*
X-94587Y-73609D01*
X-97119Y-78925D02*
X-94587Y-76392D01*
X-67274Y-95853D02*
X-61663Y-101463D01*
X-67274Y-99189D02*
X-61663Y-93579D01*
X-67274Y-98637D02*
X-61663Y-104247D01*
X-67274Y-101973D02*
X-61663Y-96363D01*
X-67274Y-96405D02*
X-61663Y-90795D01*
X-67274Y-90285D02*
X-61663Y-95896D01*
X-67274Y-93069D02*
X-61663Y-98680D01*
X-67274Y-110325D02*
X-61663Y-104715D01*
X-67274Y-104205D02*
X-61663Y-109815D01*
X-67274Y-113109D02*
X-61663Y-107499D01*
X-67274Y-106989D02*
X-61663Y-112599D01*
X-67274Y-101421D02*
X-61663Y-107031D01*
X-67274Y-104757D02*
X-61663Y-99147D01*
X-67274Y-107541D02*
X-61663Y-101931D01*
X-67274Y-93621D02*
X-61663Y-88011D01*
X-67274Y-87502D02*
X-61663Y-93112D01*
X-83227Y-106791D02*
X-70522Y-94086D01*
X-84619Y-105399D02*
X-70522Y-91302D01*
X-86516Y-90530D02*
X-70522Y-106525D01*
X-86011Y-104007D02*
X-70522Y-88518D01*
X-86516Y-96098D02*
X-70522Y-112092D01*
X-77659Y-112359D02*
X-70522Y-105221D01*
X-79051Y-110967D02*
X-70522Y-102437D01*
X-76267Y-113751D02*
X-70522Y-108005D01*
X-80443Y-109575D02*
X-70522Y-99653D01*
X-81835Y-108183D02*
X-70522Y-96870D01*
X-86516Y-98882D02*
X-70522Y-114876D01*
X-66162Y-117565D02*
X-61663Y-113066D01*
X-64770Y-118957D02*
X-61663Y-115850D01*
X-67274Y-116453D02*
X-63242Y-120485D01*
X-67274Y-115893D02*
X-61663Y-110282D01*
X-67274Y-109773D02*
X-61663Y-115383D01*
X-67274Y-115340D02*
X-61894Y-120720D01*
X-63378Y-120349D02*
X-61244Y-118215D01*
X-63740Y-126278D02*
X-63051Y-125590D01*
X-82500Y-156174D02*
X-63752Y-137426D01*
X-79716Y-156174D02*
X-61436Y-137894D01*
X-70046Y-118274D02*
X-65539Y-122781D01*
X-70700Y-119319D02*
X-69851Y-118470D01*
X-73484Y-116535D02*
X-70522Y-113573D01*
X-74876Y-115143D02*
X-70522Y-110789D01*
X-72092Y-117927D02*
X-70522Y-116357D01*
X-65132Y-124887D02*
X-64938Y-124693D01*
X-66524Y-123495D02*
X-65675Y-122645D01*
X-65132Y-124887D02*
X-64938Y-124693D01*
X-67916Y-122103D02*
X-67067Y-121254D01*
X-69308Y-120711D02*
X-68459Y-119862D01*
X-85284Y-156174D02*
X-65271Y-136161D01*
X-86516Y-87747D02*
X-70522Y-103741D01*
X-86516Y-101728D02*
X-70522Y-85734D01*
X-86516Y-101666D02*
X-70370Y-117812D01*
X-86516Y-93314D02*
X-70522Y-109308D01*
X-97119Y-106764D02*
X-94587Y-104231D01*
X-97119Y-120683D02*
X-88934Y-112498D01*
X-97119Y-117899D02*
X-90326Y-111106D01*
X-97119Y-126251D02*
X-86150Y-115282D01*
X-97119Y-123467D02*
X-87542Y-113890D01*
X-97119Y-112331D02*
X-93110Y-108322D01*
X-97119Y-109548D02*
X-94283Y-106711D01*
X-97119Y-115115D02*
X-91718Y-109714D01*
X-97119Y-91063D02*
X-94587Y-93595D01*
X-97119Y-92844D02*
X-94587Y-90312D01*
X-97119Y-93846D02*
X-94587Y-96379D01*
X-97119Y-95628D02*
X-94587Y-93096D01*
X-97119Y-90060D02*
X-94587Y-87528D01*
X-97119Y-85495D02*
X-94587Y-88027D01*
X-97119Y-88279D02*
X-94587Y-90811D01*
X-97119Y-103980D02*
X-94587Y-101447D01*
X-97119Y-99414D02*
X-94587Y-101947D01*
X-97119Y-102198D02*
X-94587Y-104731D01*
X-97119Y-96630D02*
X-94587Y-99163D01*
X-97119Y-98412D02*
X-94587Y-95880D01*
X-97119Y-101196D02*
X-94587Y-98664D01*
X-93405Y-108028D02*
X-64721Y-136712D01*
X-96407Y-147809D02*
X-75015Y-126418D01*
X-93623Y-150593D02*
X-72231Y-129201D01*
X-95015Y-149201D02*
X-73623Y-127810D01*
X-97119Y-121685D02*
X-62630Y-156174D01*
X-97119Y-124469D02*
X-65414Y-156174D01*
X-97119Y-127253D02*
X-68198Y-156174D01*
X-90839Y-153377D02*
X-69447Y-131985D01*
X-92231Y-151985D02*
X-70839Y-130593D01*
X-88055Y-156161D02*
X-66663Y-134769D01*
X-89447Y-154769D02*
X-68055Y-133377D01*
X-92231Y-151985D02*
X-70839Y-130593D01*
X-97119Y-130037D02*
X-70982Y-156174D01*
X-97119Y-132821D02*
X-73766Y-156174D01*
X-97119Y-140170D02*
X-79191Y-122242D01*
X-97119Y-137386D02*
X-80582Y-120850D01*
X-97119Y-145738D02*
X-76407Y-125026D01*
X-97119Y-142954D02*
X-77799Y-123634D01*
X-97119Y-131819D02*
X-83366Y-118066D01*
X-97119Y-129035D02*
X-84758Y-116674D01*
X-97119Y-134602D02*
X-81975Y-119458D01*
X-97119Y-143956D02*
X-84901Y-156174D01*
X-97119Y-146740D02*
X-87685Y-156174D01*
X-97119Y-147097D02*
X-88042Y-156174D01*
X-97119Y-135605D02*
X-76550Y-156174D01*
X-97119Y-138389D02*
X-79333Y-156174D01*
X-97119Y-141172D02*
X-82117Y-156174D01*
D50*
X-5000Y-116142D02*
D03*
X0Y-106142D02*
D03*
X-10000D02*
D03*
X5000Y-116142D02*
D03*
X-15000D02*
D03*
X10000Y-106142D02*
D03*
X15000Y-116142D02*
D03*
X-5000Y-96142D02*
D03*
X5000D02*
D03*
X10000Y-126142D02*
D03*
X-10000D02*
D03*
X5000Y-136142D02*
D03*
X-5000D02*
D03*
X0Y-126142D02*
D03*
D51*
X25000Y-91142D02*
D03*
Y-141142D02*
D03*
X-25000D02*
D03*
Y-91142D02*
D03*
D54*
X-32480Y8858D02*
X-27559Y3937D01*
X-82677Y8858D02*
X-32480D01*
X-18701Y85630D02*
X19685D01*
X29528Y51181D02*
Y75787D01*
X19685Y85630D02*
X29528Y75787D01*
Y51181D02*
X41339Y39370D01*
X59933D01*
X-82677Y19685D02*
X-79724D01*
X-76772Y22638D02*
Y27559D01*
X-18701Y85630D01*
X-79724Y19685D02*
X-76772Y22638D01*
X-82677Y-23622D02*
Y19685D01*
X16851Y-130787D02*
X20669Y-126969D01*
X0Y-126142D02*
X5079Y-121063D01*
X4645Y-130787D02*
X16851D01*
X5079Y-121063D02*
X20669D01*
X0Y-126142D02*
X4645Y-130787D01*
X20669Y-126969D02*
Y-121063D01*
D56*
X-66929Y15748D02*
X-62992Y11811D01*
X-23622D02*
X2953Y-14764D01*
X-62992Y11811D02*
X-23622D01*
X-61024Y14764D02*
X-19685D01*
X-63779Y17520D02*
X-61024Y14764D01*
X-19685D02*
X7874Y-12795D01*
X-68898Y-78740D02*
X-59055Y-68898D01*
Y3543D01*
X-57874Y4724D01*
X-53150D02*
X-49213Y787D01*
X-59055Y17717D02*
X-15748D01*
X12795Y-10827D01*
X-60630Y19291D02*
X-59055Y17717D01*
X-66929Y15748D02*
Y29528D01*
X46260Y-64961D02*
X63976D01*
X12795Y-31496D02*
X46260Y-64961D01*
X63976D02*
X73819Y-74803D01*
X60039Y-69882D02*
X64961Y-74803D01*
X7874Y-33465D02*
X44291Y-69882D01*
X60039D01*
X12795Y-31496D02*
Y-10827D01*
X2953Y-35433D02*
Y-14764D01*
Y-35433D02*
X42323Y-74803D01*
X56102D01*
X7874Y-33465D02*
Y-12795D01*
X-60630Y19291D02*
Y21654D01*
X-63779Y17520D02*
Y25591D01*
X-68898Y-117126D02*
X-62992Y-123031D01*
X-68898Y-117126D02*
Y-78740D01*
X-60039Y-117126D02*
Y-78740D01*
Y-117126D02*
X-54134Y-123031D01*
X-49213Y-67913D02*
Y787D01*
X-60039Y-78740D02*
X-49213Y-67913D01*
X89567Y-107283D02*
X89567Y9843D01*
X73819Y-123031D02*
X89567Y-107283D01*
D59*
X80709Y-139764D02*
D03*
X-80709Y139764D02*
D03*
X80709D02*
D03*
X-80709Y-139764D02*
D03*
D60*
X-37402Y-59055D02*
D03*
Y-64961D02*
D03*
Y-70866D02*
D03*
X-33465Y-119095D02*
D03*
X-8858Y49213D02*
D03*
X-18701D02*
D03*
Y21654D02*
D03*
X-11811Y-13780D02*
D03*
X-5906Y33465D02*
D03*
X88583Y127953D02*
D03*
X82677Y116142D02*
D03*
X88583Y104331D02*
D03*
Y80709D02*
D03*
X82677Y68897D02*
D03*
X88583Y57086D02*
D03*
X82677Y45276D02*
D03*
X88583Y33465D02*
D03*
X82677Y21654D02*
D03*
Y-96457D02*
D03*
Y-120079D02*
D03*
X70866Y116142D02*
D03*
X76771Y104331D02*
D03*
Y80709D02*
D03*
X70866Y45276D02*
D03*
X76771Y33465D02*
D03*
X70866Y21654D02*
D03*
Y-1969D02*
D03*
Y-25591D02*
D03*
X76771Y-37402D02*
D03*
Y-61024D02*
D03*
Y-108268D02*
D03*
X70866Y-120079D02*
D03*
X59055Y139764D02*
D03*
X64960Y127953D02*
D03*
X59055Y116142D02*
D03*
X64960Y104331D02*
D03*
X59055Y21654D02*
D03*
Y-25591D02*
D03*
X64960Y-37402D02*
D03*
Y-131890D02*
D03*
X59055Y-143701D02*
D03*
X47244Y139764D02*
D03*
X53149Y127953D02*
D03*
X47244Y116142D02*
D03*
Y45276D02*
D03*
X53149Y33465D02*
D03*
X47244Y21654D02*
D03*
Y-25591D02*
D03*
X53149Y-37402D02*
D03*
X47244Y-49213D02*
D03*
X53149Y-61024D02*
D03*
Y-108268D02*
D03*
Y-131890D02*
D03*
X47244Y-143701D02*
D03*
X35433Y139764D02*
D03*
X41339Y127953D02*
D03*
X35433Y116142D02*
D03*
X41339Y57086D02*
D03*
Y33465D02*
D03*
X35433Y21654D02*
D03*
X41339Y9842D02*
D03*
X35433Y-1969D02*
D03*
X41339Y-13780D02*
D03*
X35433Y-25591D02*
D03*
X41339Y-37402D02*
D03*
X35433Y-49213D02*
D03*
Y-72835D02*
D03*
X41339Y-84646D02*
D03*
X35433Y-96457D02*
D03*
X41339Y-108268D02*
D03*
Y-131890D02*
D03*
X35433Y-143701D02*
D03*
X23622Y139764D02*
D03*
X29528Y127953D02*
D03*
X23622Y116142D02*
D03*
X29528Y33465D02*
D03*
Y9842D02*
D03*
Y-13780D02*
D03*
Y-37402D02*
D03*
Y-84646D02*
D03*
Y-131890D02*
D03*
X17716Y127953D02*
D03*
X11811Y45276D02*
D03*
Y21654D02*
D03*
Y-1969D02*
D03*
Y-49213D02*
D03*
Y-72835D02*
D03*
Y-96457D02*
D03*
Y-143701D02*
D03*
X5905Y80709D02*
D03*
Y33465D02*
D03*
Y9842D02*
D03*
Y-61024D02*
D03*
Y-84646D02*
D03*
X-0Y-143701D02*
D03*
X-5906Y80709D02*
D03*
Y-13780D02*
D03*
X-11811Y-25591D02*
D03*
X-5906Y-37402D02*
D03*
X-11811Y-49213D02*
D03*
X-5906Y-61024D02*
D03*
X-11811Y-72835D02*
D03*
X-5906Y-84646D02*
D03*
X-11811Y-96457D02*
D03*
Y-143701D02*
D03*
X-23622Y139764D02*
D03*
X-17717Y127953D02*
D03*
X-23622Y116142D02*
D03*
Y-1969D02*
D03*
Y-25591D02*
D03*
X-17717Y-37402D02*
D03*
X-23622Y-49213D02*
D03*
X-17717Y-61024D02*
D03*
X-23622Y-72835D02*
D03*
X-17717Y-84646D02*
D03*
X-23622Y-96457D02*
D03*
X-35433Y139764D02*
D03*
X-29528Y127953D02*
D03*
X-35433Y116142D02*
D03*
Y21654D02*
D03*
X-29528Y-37402D02*
D03*
Y-61024D02*
D03*
Y-84646D02*
D03*
X-35433Y-143701D02*
D03*
X-47244Y139764D02*
D03*
X-41339Y127953D02*
D03*
X-47244Y116142D02*
D03*
X-41339Y-13780D02*
D03*
X-47244Y-120079D02*
D03*
Y-143701D02*
D03*
X-59055Y139764D02*
D03*
X-53150Y127953D02*
D03*
X-59055Y116142D02*
D03*
X-53150Y57086D02*
D03*
Y-108268D02*
D03*
X-59055Y-143701D02*
D03*
X-64961Y127953D02*
D03*
X-70866Y116142D02*
D03*
X-64961Y104331D02*
D03*
Y80709D02*
D03*
Y-61024D02*
D03*
Y-108268D02*
D03*
X-82677Y116142D02*
D03*
X-76772Y104331D02*
D03*
Y80709D02*
D03*
X-82677Y68897D02*
D03*
Y45276D02*
D03*
X-76772Y33465D02*
D03*
Y-13780D02*
D03*
X-82677Y-49213D02*
D03*
Y-72835D02*
D03*
X-76772Y-84646D02*
D03*
X-82677Y-96457D02*
D03*
X-76772Y-108268D02*
D03*
X-82677Y-120079D02*
D03*
X-94488Y139764D02*
D03*
X-88583Y127953D02*
D03*
X-94488Y116142D02*
D03*
X-88583Y104331D02*
D03*
X-94488Y92520D02*
D03*
X-88583Y80709D02*
D03*
X-94488Y68897D02*
D03*
X-88583Y57086D02*
D03*
X-94488Y45276D02*
D03*
Y-120079D02*
D03*
Y-143701D02*
D03*
X-62008Y68898D02*
D03*
X-48228Y62992D02*
D03*
X39862Y94291D02*
D03*
X-82677Y23622D02*
D03*
X69291Y-74803D02*
D03*
X60630D02*
D03*
X-51181Y-125984D02*
D03*
X-60039D02*
D03*
X-53150Y4724D02*
D03*
X-57874D02*
D03*
X36417Y76772D02*
D03*
X18110Y80709D02*
D03*
X-18110D02*
D03*
X0Y89764D02*
D03*
X-27559Y3937D02*
D03*
X-82677Y-23622D02*
D03*
Y19685D02*
D03*
X-62992Y-123031D02*
D03*
X-54134D02*
D03*
X-36417Y76772D02*
D03*
X-41339Y-122047D02*
D03*
X64961Y-74803D02*
D03*
X-8606Y-20417D02*
D03*
X56102Y-74803D02*
D03*
X-23862Y-11067D02*
D03*
X83661Y-15748D02*
D03*
X-74803Y60039D02*
D03*
X56102Y-123031D02*
D03*
X-18110Y62598D02*
D03*
X73819Y-74803D02*
D03*
X-60630Y21654D02*
D03*
X-53150Y-99410D02*
D03*
X-66929Y29528D02*
D03*
X-45276Y-106299D02*
D03*
X-49213Y-111221D02*
D03*
X-18110Y71653D02*
D03*
X-63779Y25591D02*
D03*
X-37402Y-116142D02*
D03*
X-73327Y-98425D02*
D03*
X-64468D02*
D03*
X69389Y-97441D02*
D03*
X60532Y-97441D02*
D03*
X69390Y-49213D02*
D03*
X60532D02*
D03*
X-38386Y-20669D02*
D03*
Y-9843D02*
D03*
X-45276D02*
D03*
X-14764Y-20669D02*
D03*
X-20669D02*
D03*
X-27559Y-9843D02*
D03*
X40354Y-2953D02*
D03*
Y3937D02*
D03*
X80709Y99410D02*
D03*
Y93504D02*
D03*
Y83661D02*
D03*
Y77756D02*
D03*
Y71850D02*
D03*
X-80709D02*
D03*
Y77756D02*
D03*
Y83661D02*
D03*
Y93504D02*
D03*
Y99410D02*
D03*
X0Y80709D02*
D03*
X9055D02*
D03*
X-9055D02*
D03*
X9055Y71457D02*
D03*
X18110D02*
D03*
X0Y71653D02*
D03*
X-8858Y71457D02*
D03*
X63976Y59055D02*
D03*
Y83661D02*
D03*
Y64961D02*
D03*
Y70866D02*
D03*
Y76772D02*
D03*
X43307Y84646D02*
D03*
Y76772D02*
D03*
X36417Y84646D02*
D03*
X39862D02*
D03*
Y76772D02*
D03*
X-36417Y84646D02*
D03*
X-39862D02*
D03*
X-43307D02*
D03*
X-43307Y76772D02*
D03*
X-39862Y76772D02*
D03*
X64961Y-123031D02*
D03*
X-39862Y98425D02*
D03*
X89567Y9843D02*
D03*
X60039Y39370D02*
D03*
X68898D02*
D03*
X73819Y-123031D02*
D03*
D61*
X-71260Y139764D02*
D03*
X80709Y-149213D02*
D03*
X87402Y-146457D02*
D03*
X90158Y-139764D02*
D03*
X87402Y-133071D02*
D03*
X80709Y-130315D02*
D03*
X74016Y-133071D02*
D03*
Y-146457D02*
D03*
X71260Y-139764D02*
D03*
X-80709Y149213D02*
D03*
X-87402Y146457D02*
D03*
X-90158Y139764D02*
D03*
X-87402Y133071D02*
D03*
X-80709Y130315D02*
D03*
X-74016Y133071D02*
D03*
Y146457D02*
D03*
X71260Y139764D02*
D03*
X74016Y146457D02*
D03*
Y133071D02*
D03*
X80709Y130315D02*
D03*
X87402Y133071D02*
D03*
X90158Y139764D02*
D03*
X87402Y146457D02*
D03*
X80709Y149213D02*
D03*
X-80709Y-149213D02*
D03*
X-87402Y-146457D02*
D03*
X-90158Y-139764D02*
D03*
X-87402Y-133071D02*
D03*
X-80709Y-130315D02*
D03*
X-74016Y-133071D02*
D03*
Y-146457D02*
D03*
X-71260Y-139764D02*
D03*
D62*
X-46260Y-28543D02*
D03*
X-55118D02*
D03*
X-63976D02*
D03*
X-72835D02*
D03*
X-62008Y-18701D02*
D03*
X-45276Y22638D02*
D03*
X-26575Y42323D02*
D03*
X-14567Y80709D02*
D03*
Y71653D02*
D03*
Y62598D02*
D03*
X-57087Y20669D02*
D03*
X-70866Y28543D02*
D03*
X-63681Y29232D02*
D03*
X-60433Y25394D02*
D03*
X59842Y-2165D02*
D03*
Y2165D02*
D03*
X64173Y-2165D02*
D03*
Y2165D02*
D03*
D63*
X-19685Y150591D02*
D03*
X19390Y150295D02*
D03*
D64*
X27535Y93528D02*
X26808Y94187D01*
X26020Y94771D01*
X25178Y95276D01*
X24291Y95696D01*
X23367Y96026D01*
X22415Y96264D01*
X21444Y96408D01*
X20464Y96457D01*
X-20464D02*
X-21444Y96408D01*
X-22415Y96264D01*
X-23367Y96026D01*
X-24291Y95696D01*
X-25178Y95276D01*
X-26020Y94771D01*
X-26808Y94187D01*
X-27535Y93528D01*
X27535D02*
X36417Y84646D01*
X-20464Y96457D02*
X20464D01*
X-36417Y84646D02*
X-27535Y93528D01*
D65*
X20669Y-121063D02*
X56102Y-85630D01*
X72835D01*
X83661Y-74803D01*
Y-15748D01*
D66*
X-90551Y-105174D02*
Y29528D01*
Y-105174D02*
X-61867Y-133858D01*
X-90551Y29528D02*
X-43307Y76772D01*
X-61867Y-133858D02*
X-7283D01*
X-5000Y-136142D01*
X-5000D02*
X5000D01*
X-43307Y76772D02*
X-39862D01*
X-39862Y76772D02*
X-36417D01*
X-39862Y76772D02*
X-39862Y76772D01*
D67*
X52165Y56102D02*
Y86614D01*
X44488Y94291D02*
X52165Y86614D01*
X39862Y94291D02*
X44488D01*
X52165Y56102D02*
X68898Y39370D01*
X-74803Y60039D02*
Y63484D01*
X-39975Y98312D01*
X23917Y110236D02*
X39862Y94291D01*
X-39862Y98425D02*
X-28051Y110236D01*
X23917D01*
D68*
X50197Y-118110D02*
X60039D01*
X47244Y-121063D02*
X50197Y-118110D01*
X60039D02*
X64961Y-123031D01*
X5079Y-121063D02*
X47244D01*
X0Y-126142D02*
X5079Y-121063D01*
M02*
