G04*
G04 #@! TF.GenerationSoftware,Altium Limited,Altium Designer,23.11.1 (41)*
G04*
G04 Layer_Color=8421504*
%FSLAX25Y25*%
%MOIN*%
G70*
G04*
G04 #@! TF.SameCoordinates,CB1B34B6-0843-45E9-8427-EF7A7B179012*
G04*
G04*
G04 #@! TF.FilePolarity,Positive*
G04*
G01*
G75*
%ADD17R,0.02246X0.02049*%
%ADD18R,0.02390X0.02390*%
%ADD19R,0.02049X0.02246*%
%ADD20R,0.02390X0.02390*%
%ADD21C,0.04482*%
%ADD22R,0.01634X0.05571*%
%ADD23R,0.03559X0.03165*%
%ADD24R,0.02211X0.03786*%
%ADD25R,0.03730X0.03927*%
%ADD26R,0.02192X0.05538*%
%ADD27R,0.01465X0.03237*%
%ADD28R,0.08590X0.08590*%
%ADD29R,0.04841X0.05432*%
%ADD30R,0.04813X0.06782*%
%ADD31R,0.03927X0.03730*%
%ADD32R,0.03668X0.07605*%
D17*
X-57874Y-1870D02*
D03*
Y1870D02*
D03*
X-73819Y19783D02*
D03*
Y23524D02*
D03*
X-78740Y-23524D02*
D03*
Y-19783D02*
D03*
X-53150Y-1870D02*
D03*
Y1870D02*
D03*
X-13583Y18799D02*
D03*
Y22539D02*
D03*
X83661Y-7776D02*
D03*
Y-4035D02*
D03*
X-71260Y-1870D02*
D03*
Y1870D02*
D03*
X-67323Y-1870D02*
D03*
Y1870D02*
D03*
X-63386Y-1870D02*
D03*
Y1870D02*
D03*
X11811Y127461D02*
D03*
Y123721D02*
D03*
X3937Y127461D02*
D03*
Y123721D02*
D03*
X-3937Y127461D02*
D03*
Y123721D02*
D03*
X-11811Y127461D02*
D03*
Y123721D02*
D03*
X-33189Y689D02*
D03*
Y-3051D02*
D03*
X-60039Y-113287D02*
D03*
Y-117028D02*
D03*
X-68898Y-113287D02*
D03*
Y-117028D02*
D03*
X64961Y-65059D02*
D03*
Y-68799D02*
D03*
X56102Y-65059D02*
D03*
Y-68799D02*
D03*
X73819Y-65059D02*
D03*
Y-68799D02*
D03*
X56102Y-113287D02*
D03*
Y-117028D02*
D03*
X64961Y-113287D02*
D03*
Y-117028D02*
D03*
X73819Y-113287D02*
D03*
Y-117028D02*
D03*
D18*
X-72835Y-36260D02*
D03*
Y-32638D02*
D03*
X-55118Y-36260D02*
D03*
Y-32638D02*
D03*
X-63976Y-36260D02*
D03*
Y-32638D02*
D03*
X-81693Y-36260D02*
D03*
Y-32638D02*
D03*
X-46260Y-36417D02*
D03*
Y-32795D02*
D03*
X-78740Y19842D02*
D03*
Y23465D02*
D03*
X-27559Y827D02*
D03*
Y-2795D02*
D03*
D19*
X-72736Y-40354D02*
D03*
X-68996D02*
D03*
X-46161Y-40354D02*
D03*
X-42421D02*
D03*
X-55020D02*
D03*
X-51279D02*
D03*
X-81595Y-40354D02*
D03*
X-77854D02*
D03*
X-63878Y-40354D02*
D03*
X-60138D02*
D03*
X36516Y103347D02*
D03*
X40256D02*
D03*
X-36516D02*
D03*
X-40256D02*
D03*
D20*
X55945Y48228D02*
D03*
X52323D02*
D03*
X-74646Y65945D02*
D03*
X-71024D02*
D03*
X74646D02*
D03*
X71024D02*
D03*
X52323Y54134D02*
D03*
X55945D02*
D03*
X52323Y60039D02*
D03*
X55945D02*
D03*
X52323Y65945D02*
D03*
X55945D02*
D03*
X-71024Y83661D02*
D03*
X-74646D02*
D03*
X-71024Y77756D02*
D03*
X-74646D02*
D03*
X-71024Y71850D02*
D03*
X-74646D02*
D03*
X71024D02*
D03*
X74646D02*
D03*
X71024Y77756D02*
D03*
X74646D02*
D03*
X71024Y83661D02*
D03*
X74646D02*
D03*
X71024Y93504D02*
D03*
X74646D02*
D03*
X71024Y99410D02*
D03*
X74646D02*
D03*
X-71024Y93504D02*
D03*
X-74646D02*
D03*
X-71024Y99409D02*
D03*
X-74646D02*
D03*
D21*
X-13583Y67126D02*
D03*
X-4528Y94291D02*
D03*
X4528D02*
D03*
X-22638Y103347D02*
D03*
X22638D02*
D03*
X-13583D02*
D03*
Y94291D02*
D03*
X13583Y103347D02*
D03*
Y94291D02*
D03*
X-22638Y67126D02*
D03*
X-13583Y85236D02*
D03*
Y76181D02*
D03*
X-22638Y58071D02*
D03*
X13583D02*
D03*
X22638D02*
D03*
X-4528Y103347D02*
D03*
X4528D02*
D03*
X-4528Y58071D02*
D03*
X4528D02*
D03*
X-4528Y85236D02*
D03*
X4528D02*
D03*
X13583D02*
D03*
X-4528Y76181D02*
D03*
X4528D02*
D03*
X13583D02*
D03*
X-13583Y58071D02*
D03*
X-22638Y85236D02*
D03*
X22638D02*
D03*
Y76181D02*
D03*
X-22638D02*
D03*
Y94291D02*
D03*
X22638D02*
D03*
X-4528Y67126D02*
D03*
X4528D02*
D03*
X13583D02*
D03*
X22638D02*
D03*
D22*
X-63287Y11516D02*
D03*
X-58169Y-11516D02*
D03*
X-55610Y11516D02*
D03*
X-70965Y-11516D02*
D03*
X-68405Y11516D02*
D03*
X-65847Y-11516D02*
D03*
X-68405D02*
D03*
X-65847Y11516D02*
D03*
X-53051Y-11516D02*
D03*
X-50492Y11516D02*
D03*
X-63287Y-11516D02*
D03*
X-60728D02*
D03*
X-55610D02*
D03*
X-50492D02*
D03*
X-70965Y11516D02*
D03*
X-60728D02*
D03*
X-58169D02*
D03*
X-53051D02*
D03*
X-73524Y-11516D02*
D03*
Y11516D02*
D03*
D23*
X-60039Y-104429D02*
D03*
X-68898D02*
D03*
X64961Y-55216D02*
D03*
X56102D02*
D03*
X73819D02*
D03*
X56102Y-103445D02*
D03*
X64960Y-103445D02*
D03*
X73819Y-103445D02*
D03*
X-27559Y-14665D02*
D03*
X73819Y-49114D02*
D03*
X56102D02*
D03*
X64961D02*
D03*
X-68898Y-98327D02*
D03*
X-60039D02*
D03*
X64960Y-97343D02*
D03*
X73819Y-97342D02*
D03*
X56102D02*
D03*
X-27559Y-20768D02*
D03*
D24*
X-53150Y103150D02*
D03*
X53150D02*
D03*
X-56890Y93701D02*
D03*
X49409D02*
D03*
X56890D02*
D03*
X-49409D02*
D03*
D25*
X46260Y-8858D02*
D03*
X77756Y9843D02*
D03*
X46260D02*
D03*
X77756Y-2953D02*
D03*
X46260Y3937D02*
D03*
X77756D02*
D03*
X46260Y-2953D02*
D03*
X83661Y3937D02*
D03*
X77756Y-8858D02*
D03*
X83661Y9843D02*
D03*
D26*
X54508Y-10728D02*
D03*
X59508D02*
D03*
X69508Y10728D02*
D03*
X59508D02*
D03*
X54508D02*
D03*
X64508Y-10728D02*
D03*
X69508D02*
D03*
X64508Y10728D02*
D03*
D27*
X-13583Y-4331D02*
D03*
X-16142D02*
D03*
X-13583Y4331D02*
D03*
X-18701D02*
D03*
Y-4331D02*
D03*
D28*
X62008Y0D02*
D03*
D29*
X-57284Y76772D02*
D03*
Y84646D02*
D03*
X57284D02*
D03*
Y76772D02*
D03*
X-3150Y144488D02*
D03*
X3150D02*
D03*
X50984Y84646D02*
D03*
Y76772D02*
D03*
X-50984Y84646D02*
D03*
Y76772D02*
D03*
D30*
X-5512Y135827D02*
D03*
X5512D02*
D03*
D31*
X-2953Y151969D02*
D03*
X2953D02*
D03*
D32*
X-11811Y150000D02*
D03*
X11811D02*
D03*
M02*
