G04*
G04 #@! TF.GenerationSoftware,Altium Limited,Altium Designer,23.11.1 (41)*
G04*
G04 Layer_Color=32896*
%FSLAX25Y25*%
%MOIN*%
G70*
G04*
G04 #@! TF.SameCoordinates,CB1B34B6-0843-45E9-8427-EF7A7B179012*
G04*
G04*
G04 #@! TF.FilePolarity,Positive*
G04*
G01*
G75*
%ADD13C,0.00394*%
%ADD15C,0.00610*%
G36*
X2819Y8163D02*
X3014Y8130D01*
X3290Y8082D01*
X3582Y7952D01*
X3810Y7854D01*
X3972Y7757D01*
X4313Y7416D01*
X4345Y7351D01*
X4475Y7221D01*
X4508Y7091D01*
X4589Y6913D01*
X4654Y6750D01*
X4686Y6491D01*
X4735Y6182D01*
X4654Y6101D01*
X3631Y6117D01*
X3599Y6345D01*
X3534Y6734D01*
X3469Y6799D01*
X3436Y6929D01*
X3225Y7140D01*
X3128Y7173D01*
X2998Y7302D01*
X2024Y7335D01*
X1894Y7302D01*
X1764Y7173D01*
X1634Y7140D01*
X1553Y6994D01*
X1391Y6832D01*
X1359Y6702D01*
X1293Y6539D01*
X1245Y6231D01*
X1261Y5923D01*
X1326Y5760D01*
X1359Y5598D01*
X1423Y5435D01*
X1586Y5143D01*
X1716Y4916D01*
X1813Y4819D01*
X1846Y4754D01*
X1943Y4656D01*
X1975Y4591D01*
X2056Y4510D01*
X2121Y4478D01*
X2170Y4397D01*
X2203Y4332D01*
X2300Y4234D01*
X2332Y4169D01*
X2462Y4039D01*
X2544Y3926D01*
X2608Y3893D01*
X2625Y3845D01*
X2738Y3731D01*
X2803Y3699D01*
X2836Y3634D01*
X2901Y3601D01*
X3079Y3423D01*
X3112Y3358D01*
X3209Y3260D01*
X3290Y3147D01*
X3355Y3114D01*
X3664Y2806D01*
X3745Y2692D01*
X3810Y2660D01*
X4086Y2384D01*
X4102Y2367D01*
X4313Y2156D01*
X4345Y2091D01*
X4394Y2043D01*
X4459Y2010D01*
X4784Y1686D01*
X4816Y1556D01*
X4800Y1020D01*
X4832Y923D01*
X4784Y777D01*
X336Y744D01*
X206Y777D01*
X190Y1215D01*
X157Y1442D01*
X206Y1491D01*
X3355Y1523D01*
X3501Y1572D01*
X3534Y1669D01*
X3420Y1751D01*
X3355Y1783D01*
X3306Y1832D01*
X3274Y1897D01*
X3031Y2140D01*
X2966Y2173D01*
X1586Y3553D01*
X1553Y3617D01*
X1391Y3780D01*
X1359Y3845D01*
X1310Y3861D01*
X1261Y3910D01*
X1229Y3974D01*
X1131Y4072D01*
X1099Y4137D01*
X1050Y4186D01*
X985Y4218D01*
X936Y4299D01*
X904Y4364D01*
X855Y4413D01*
X579Y4819D01*
X482Y4981D01*
X449Y5111D01*
X352Y5208D01*
X320Y5338D01*
X287Y5565D01*
X255Y5663D01*
X222Y6280D01*
X271Y6458D01*
X320Y6832D01*
X352Y6961D01*
X433Y7043D01*
X514Y7254D01*
X612Y7351D01*
X644Y7416D01*
X855Y7627D01*
X920Y7660D01*
X936Y7708D01*
X1115Y7822D01*
X1342Y7952D01*
X1472Y7984D01*
X1521Y8033D01*
X1862Y8114D01*
X1992Y8146D01*
X2089Y8179D01*
X2819Y8163D01*
D02*
G37*
G36*
X2998Y-1236D02*
X3031D01*
X3144Y-1285D01*
X3177Y-1383D01*
X3031Y-1464D01*
X2933Y-1561D01*
X2738Y-1594D01*
X2576Y-1529D01*
X2414Y-1431D01*
X2365Y-1383D01*
X2381Y-1269D01*
X2446Y-1236D01*
X2576Y-1204D01*
X2641Y-1139D01*
X2803Y-1106D01*
X2998Y-1236D01*
D02*
G37*
G36*
X3810Y-1691D02*
X3875Y-1723D01*
X3891Y-1740D01*
X3956Y-1772D01*
X3988Y-1902D01*
X3810Y-2048D01*
X3615Y-2080D01*
X3388Y-2015D01*
X3242Y-1837D01*
X3290Y-1756D01*
X3517Y-1626D01*
X3582Y-1594D01*
X3810Y-1691D01*
D02*
G37*
G36*
X4556Y-2113D02*
X4621Y-2178D01*
X4784Y-2243D01*
X4865Y-2356D01*
X4832Y-2389D01*
Y-2421D01*
X4784Y-2470D01*
X4719Y-2503D01*
X4492Y-2600D01*
X4345Y-2551D01*
X4151Y-2454D01*
X4118Y-2259D01*
X4232Y-2210D01*
X4427Y-2080D01*
X4556Y-2113D01*
D02*
G37*
G36*
X5628Y-2730D02*
X5693Y-2795D01*
X5709Y-2811D01*
X5742Y-2876D01*
X5709Y-2941D01*
X5530Y-2990D01*
X5433Y-3087D01*
X5336Y-3119D01*
X5173Y-3022D01*
X5011Y-2957D01*
X4962Y-2876D01*
X4995Y-2778D01*
X5043Y-2730D01*
X5206Y-2632D01*
X5336Y-2600D01*
X5628Y-2730D01*
D02*
G37*
G36*
X1732Y-1756D02*
X1797Y-1821D01*
X1927Y-1853D01*
X2056Y-1983D01*
X2121Y-2015D01*
X2170Y-2064D01*
X2203Y-2129D01*
X2251Y-2178D01*
X2316Y-2210D01*
X2381Y-2275D01*
X2544Y-2340D01*
X2625Y-2421D01*
X2592Y-2551D01*
X2544Y-2600D01*
X2251Y-2762D01*
X1829Y-2990D01*
X1732Y-3087D01*
X1570Y-3119D01*
X1505Y-3054D01*
X1147Y-2860D01*
X953Y-2730D01*
X790Y-2665D01*
X725Y-2600D01*
X709Y-2584D01*
X514Y-2486D01*
X482Y-2389D01*
X693Y-2275D01*
X758Y-2210D01*
X888Y-2178D01*
X1018Y-2048D01*
X1180Y-2015D01*
X1245Y-1951D01*
X1407Y-1853D01*
X1602Y-1723D01*
X1732Y-1756D01*
D02*
G37*
G36*
X-86Y-2860D02*
X-38Y-2908D01*
X125Y-2973D01*
X157Y-3103D01*
X76Y-3184D01*
X11Y-3217D01*
X-38Y-3266D01*
X-200Y-3330D01*
X-232Y-3428D01*
X-184Y-3444D01*
X-167Y-3460D01*
X-151Y-3477D01*
X76Y-3606D01*
X141Y-3671D01*
X238Y-3704D01*
X255Y-3525D01*
X303Y-3477D01*
X466Y-3412D01*
X531Y-3347D01*
X725Y-3314D01*
X807Y-3395D01*
X969Y-3460D01*
X1001Y-3525D01*
X969Y-3655D01*
X823Y-3769D01*
X531Y-3801D01*
X482Y-3850D01*
X498Y-3866D01*
X660Y-3931D01*
X725Y-3996D01*
X790Y-4028D01*
X1018Y-4191D01*
X1034Y-4175D01*
X1131Y-4012D01*
X1180Y-3963D01*
X1342Y-3899D01*
X1456Y-3785D01*
X1537Y-3801D01*
X1634Y-3899D01*
X1764Y-3931D01*
X1846Y-4012D01*
X1878Y-4142D01*
X1829Y-4191D01*
X1667Y-4223D01*
X1586Y-4304D01*
X1521Y-4467D01*
X1862Y-4645D01*
X1943Y-4597D01*
X1975Y-4532D01*
X2154Y-4386D01*
X2349Y-4353D01*
X2576Y-4386D01*
X2755Y-4564D01*
X2738Y-4645D01*
X2673Y-4678D01*
X2511Y-4743D01*
X2414Y-4840D01*
X2349Y-4873D01*
X2332Y-4954D01*
X2381Y-5003D01*
X2511Y-5035D01*
X2560Y-5084D01*
X2592Y-5311D01*
X2544Y-5360D01*
X2495Y-5311D01*
X2284Y-5230D01*
X2219Y-5165D01*
X2056Y-5100D01*
X1959Y-5003D01*
X1797Y-4970D01*
X1667Y-4840D01*
X1602Y-4808D01*
X1472Y-4775D01*
X1375Y-4678D01*
X1277Y-4645D01*
X1196Y-4564D01*
X985Y-4483D01*
X888Y-4386D01*
X823Y-4353D01*
X693Y-4321D01*
X579Y-4207D01*
X368Y-4126D01*
X303Y-4061D01*
X238Y-4028D01*
X76Y-3931D01*
X-86Y-3866D01*
X-216Y-3736D01*
X-378Y-3704D01*
X-508Y-3574D01*
X-638Y-3542D01*
X-736Y-3444D01*
X-865Y-3412D01*
X-947Y-3298D01*
X-930Y-3217D01*
X-898Y-3087D01*
X-800Y-3119D01*
X-671Y-3152D01*
X-606Y-3249D01*
X-525Y-3233D01*
X-622Y-3136D01*
X-606Y-2990D01*
X-541Y-2957D01*
X-411Y-2925D01*
X-346Y-2860D01*
X-216Y-2827D01*
X-86Y-2860D01*
D02*
G37*
G36*
X3810Y-2827D02*
X3858Y-2876D01*
X3891Y-2941D01*
X3923Y-3071D01*
X4005Y-3152D01*
X4232Y-3087D01*
X4362Y-3119D01*
X4443Y-3201D01*
X4540Y-3363D01*
X4508Y-3493D01*
X4297Y-3606D01*
X4102Y-3542D01*
X3972Y-3574D01*
X3956Y-3525D01*
X4264Y-3477D01*
X4313Y-3428D01*
X4345Y-3363D01*
X4297Y-3314D01*
X4232Y-3282D01*
X4102Y-3249D01*
X3875Y-3282D01*
X3712Y-3347D01*
X3696Y-3395D01*
X3761Y-3558D01*
X3858Y-3590D01*
X3891Y-3655D01*
X3761Y-3785D01*
X3729Y-3882D01*
X3664Y-3947D01*
X3647Y-3963D01*
X3566Y-4045D01*
X3144Y-4077D01*
X2966Y-4061D01*
X2917Y-4012D01*
X2819Y-3850D01*
X2771Y-3801D01*
X2414Y-3769D01*
X2365Y-3720D01*
X2332Y-3655D01*
X2203Y-3558D01*
X2170Y-3395D01*
X2251Y-3314D01*
X2381Y-3282D01*
X2511Y-3152D01*
X2933Y-3119D01*
X2949Y-3071D01*
X2982Y-2941D01*
X3160Y-2795D01*
X3225Y-2762D01*
X3290Y-2697D01*
X3453Y-2665D01*
X3810Y-2827D01*
D02*
G37*
G36*
X-5281Y7919D02*
X-5151Y7887D01*
X-4989Y7789D01*
X-4632Y7757D01*
X-4502Y7724D01*
X-4437Y7660D01*
X-4307Y7627D01*
X-4096Y7546D01*
X-3788Y7432D01*
X-3690Y7335D01*
X-3528Y7302D01*
X-3398Y7173D01*
X-3300Y7140D01*
X-3090Y6994D01*
X-2911Y6848D01*
X-2846Y6815D01*
X-2830Y6767D01*
X-2781Y6718D01*
X-2716Y6685D01*
X-2667Y6637D01*
X-2635Y6572D01*
X-2537Y6507D01*
X-2505Y6442D01*
X-2456Y6393D01*
X-2391Y6361D01*
X-2343Y6247D01*
X-2245Y6150D01*
X-2213Y6085D01*
X-2083Y5890D01*
X-2050Y5825D01*
X-2018Y5695D01*
X-1921Y5598D01*
X-1888Y5435D01*
X-1823Y5208D01*
X-1774Y5160D01*
X-1742Y5030D01*
X-1693Y4591D01*
X-1661Y4267D01*
X-1726Y3390D01*
X-1856Y3098D01*
X-1888Y2838D01*
X-1986Y2741D01*
X-2018Y2676D01*
X-2083Y2514D01*
X-2148Y2449D01*
X-2180Y2384D01*
X-2343Y2156D01*
X-2375Y2091D01*
X-2554Y1913D01*
X-2619Y1881D01*
X-2667Y1832D01*
X-2846Y1686D01*
X-3073Y1556D01*
X-3138Y1491D01*
X-3300Y1393D01*
X-3430Y1361D01*
X-3495Y1296D01*
X-3820Y1166D01*
X-3934Y1118D01*
X-4145Y1069D01*
X-4242Y971D01*
X-4599Y939D01*
X-4794Y809D01*
X-5281Y744D01*
X-5508Y647D01*
X-5768Y614D01*
X-6044Y533D01*
X-6352Y484D01*
X-6612Y419D01*
X-6677Y354D01*
X-6937Y322D01*
X-7164Y290D01*
X-7375Y176D01*
X-7651Y127D01*
X-7830Y46D01*
X-8008Y-3D01*
X-8300Y-132D01*
X-8528Y-197D01*
X-8609Y-279D01*
X-8820Y-360D01*
X-8917Y-457D01*
X-8982Y-490D01*
X-9161Y-668D01*
X-9193Y-733D01*
X-9258Y-798D01*
X-9356Y-960D01*
X-9420Y-1188D01*
X-9485Y-1253D01*
X-9518Y-1512D01*
X-9550Y-1610D01*
X-9518Y-2324D01*
X-9388Y-2519D01*
X-9356Y-2681D01*
X-9323Y-2811D01*
X-9274Y-2827D01*
X-9161Y-3038D01*
X-9063Y-3201D01*
X-8852Y-3412D01*
X-8787Y-3444D01*
X-8739Y-3493D01*
X-8560Y-3639D01*
X-8495Y-3671D01*
X-8446Y-3720D01*
X-8235Y-3801D01*
X-8170Y-3866D01*
X-8008Y-3931D01*
X-7635Y-4045D01*
X-7229Y-4093D01*
X-7132Y-4126D01*
X-5995Y-4158D01*
X-5898Y-4126D01*
X-5346Y-4061D01*
X-5216Y-4028D01*
X-4859Y-3931D01*
X-4729Y-3899D01*
X-4632Y-3801D01*
X-4437Y-3769D01*
X-4339Y-3671D01*
X-4112Y-3542D01*
X-4080Y-3477D01*
X-3966Y-3395D01*
X-3934Y-3330D01*
X-3771Y-3168D01*
X-3739Y-3038D01*
X-3609Y-2908D01*
X-3576Y-2811D01*
X-3544Y-2681D01*
X-3447Y-2454D01*
X-3414Y-2324D01*
X-3365Y-1886D01*
X-3382Y-1675D01*
X-3300Y-1594D01*
X-1466Y-1610D01*
X-1434Y-1740D01*
X-1466Y-1837D01*
X-1434Y-1902D01*
X-1450Y-1951D01*
X-1515Y-2373D01*
X-1547Y-2535D01*
X-1612Y-2925D01*
X-1677Y-3087D01*
X-1726Y-3298D01*
X-1839Y-3509D01*
X-1888Y-3688D01*
X-2002Y-3801D01*
X-2083Y-4012D01*
X-2132Y-4028D01*
X-2180Y-4110D01*
X-2213Y-4175D01*
X-2343Y-4304D01*
X-2375Y-4369D01*
X-2424Y-4386D01*
X-2473Y-4434D01*
X-2505Y-4499D01*
X-2619Y-4613D01*
X-2684Y-4645D01*
X-2813Y-4775D01*
X-2878Y-4808D01*
X-3008Y-4938D01*
X-3073Y-4970D01*
X-3235Y-5035D01*
X-3349Y-5116D01*
X-3560Y-5197D01*
X-3625Y-5262D01*
X-3852Y-5295D01*
X-4047Y-5424D01*
X-4404Y-5457D01*
X-4632Y-5554D01*
X-4761Y-5587D01*
X-4859Y-5619D01*
X-6482Y-5652D01*
X-7489Y-5619D01*
X-7716Y-5587D01*
X-7943Y-5489D01*
X-8268Y-5457D01*
X-8398Y-5424D01*
X-8690Y-5295D01*
X-8820Y-5262D01*
X-8998Y-5181D01*
X-9209Y-5100D01*
X-9258Y-5051D01*
X-9469Y-4970D01*
X-9567Y-4873D01*
X-9729Y-4808D01*
X-9826Y-4710D01*
X-9891Y-4678D01*
X-9956Y-4613D01*
X-10021Y-4580D01*
X-10183Y-4418D01*
X-10248Y-4386D01*
X-10524Y-4110D01*
X-10557Y-4045D01*
X-10719Y-3882D01*
X-10752Y-3817D01*
X-10849Y-3655D01*
X-10881Y-3590D01*
X-11011Y-3395D01*
X-11044Y-3298D01*
X-11076Y-3168D01*
X-11206Y-3038D01*
X-11239Y-2778D01*
X-11271Y-2649D01*
X-11336Y-2486D01*
X-11368Y-2389D01*
X-11401Y-1707D01*
X-11368Y-895D01*
X-11336Y-766D01*
X-11255Y-587D01*
X-11222Y-327D01*
X-11190Y-197D01*
X-11125Y-165D01*
X-11076Y-116D01*
X-11044Y79D01*
X-10979Y143D01*
X-10881Y306D01*
X-10817Y371D01*
X-10784Y436D01*
X-10654Y566D01*
X-10622Y630D01*
X-10541Y712D01*
X-10476Y744D01*
X-10378Y841D01*
X-10216Y939D01*
X-10119Y1036D01*
X-9696Y1264D01*
X-9583Y1345D01*
X-9372Y1393D01*
X-9242Y1523D01*
X-9015Y1556D01*
X-8722Y1686D01*
X-8592Y1718D01*
X-8317Y1799D01*
X-8073Y1848D01*
X-7797Y1962D01*
X-7391Y2010D01*
X-7261Y2043D01*
X-7099Y2140D01*
X-6774Y2173D01*
X-6645Y2205D01*
X-6482Y2270D01*
X-6287Y2303D01*
X-6028Y2367D01*
X-5865Y2432D01*
X-5573Y2465D01*
X-5443Y2497D01*
X-5346Y2595D01*
X-5054Y2627D01*
X-4924Y2660D01*
X-4826Y2757D01*
X-4696Y2789D01*
X-4339Y2952D01*
X-4112Y3082D01*
X-4064Y3130D01*
X-4031Y3195D01*
X-3901Y3325D01*
X-3869Y3390D01*
X-3771Y3488D01*
X-3739Y3617D01*
X-3674Y3780D01*
X-3609Y3845D01*
X-3576Y4819D01*
X-3706Y5014D01*
X-3739Y5143D01*
X-3804Y5306D01*
X-3901Y5468D01*
X-4031Y5598D01*
X-4064Y5663D01*
X-4112Y5711D01*
X-4177Y5744D01*
X-4275Y5841D01*
X-4437Y5939D01*
X-4550Y6052D01*
X-4729Y6101D01*
X-4810Y6182D01*
X-4972Y6247D01*
X-5135Y6280D01*
X-5297Y6345D01*
X-5427Y6377D01*
X-5833Y6426D01*
X-5930Y6458D01*
X-7018Y6442D01*
X-7424Y6393D01*
X-7554Y6361D01*
X-7700Y6312D01*
X-7878Y6263D01*
X-8106Y6199D01*
X-8187Y6117D01*
X-8365Y6069D01*
X-8414Y6020D01*
X-8446Y5955D01*
X-8495Y5939D01*
X-8868Y5565D01*
X-8901Y5468D01*
X-9031Y5273D01*
X-9063Y5143D01*
Y5111D01*
X-9128Y4981D01*
X-9161Y4689D01*
X-9209Y4543D01*
X-10898Y4510D01*
X-11028Y4543D01*
X-11060Y4608D01*
X-11028Y5127D01*
X-10995Y5289D01*
X-10914Y5500D01*
X-10881Y5630D01*
X-10833Y5776D01*
X-10719Y6085D01*
X-10654Y6150D01*
X-10622Y6215D01*
X-10557Y6377D01*
X-10492Y6442D01*
X-10378Y6621D01*
X-10313Y6653D01*
X-10297Y6702D01*
X-10086Y6913D01*
X-10021Y6945D01*
X-9891Y7075D01*
X-9713Y7189D01*
X-9680Y7254D01*
X-9437Y7367D01*
X-9015Y7595D01*
X-8787Y7660D01*
X-8722Y7724D01*
X-8528Y7757D01*
X-8300Y7789D01*
X-8008Y7919D01*
X-5995Y7952D01*
X-5281Y7919D01*
D02*
G37*
G36*
X8826Y7578D02*
X8858Y-4921D01*
X8826Y-5441D01*
X8761Y-5603D01*
X8664Y-5765D01*
X8598Y-5830D01*
X8534Y-6090D01*
X8452Y-6171D01*
X8404Y-6350D01*
X8371Y-6674D01*
X8274Y-6772D01*
X8225Y-7080D01*
X8177Y-7324D01*
X8111Y-7486D01*
X8079Y-7746D01*
X7998Y-7925D01*
X7949Y-8233D01*
X7917Y-8460D01*
X7884Y-8558D01*
X7803Y-8671D01*
X7754Y-9045D01*
X7722Y-9174D01*
X7657Y-9239D01*
X7625Y-9434D01*
X7511Y-9645D01*
X7462Y-9824D01*
X7381Y-9905D01*
X7251Y-10100D01*
X6829Y-10132D01*
X6699Y-10100D01*
X6683Y-10051D01*
X6618Y-10019D01*
X6391Y-9726D01*
Y-9694D01*
X6293Y-9532D01*
X6196Y-9142D01*
X6099Y-9045D01*
X6066Y-8687D01*
X5953Y-8476D01*
X5904Y-8168D01*
X5823Y-7957D01*
X5774Y-7713D01*
X5644Y-7421D01*
X5612Y-7162D01*
X5579Y-7032D01*
X5482Y-6934D01*
X5449Y-6772D01*
X5417Y-6642D01*
X5336Y-6561D01*
X5206Y-6528D01*
X5125Y-6674D01*
X5060Y-6837D01*
X4995Y-6902D01*
X4962Y-7097D01*
X4930Y-7226D01*
X4881Y-7275D01*
X4816Y-7438D01*
X4767Y-7713D01*
X4702Y-7778D01*
X4670Y-7908D01*
X4605Y-8135D01*
X4540Y-8200D01*
X4508Y-8525D01*
X4378Y-8655D01*
X4345Y-8850D01*
X4313Y-8980D01*
X4216Y-9077D01*
X4151Y-9239D01*
X3907Y-9483D01*
X3420Y-9515D01*
X3290Y-9483D01*
X3079Y-9272D01*
X2949Y-9045D01*
X2852Y-8947D01*
X2819Y-8752D01*
X2690Y-8558D01*
X2625Y-8298D01*
X2544Y-8152D01*
X2446Y-7892D01*
X2332Y-7584D01*
X2235Y-7421D01*
X2203Y-7324D01*
X2170Y-7194D01*
X2089Y-7145D01*
X1992Y-6950D01*
X1894Y-6918D01*
X1781Y-7032D01*
X1651Y-7259D01*
X1553Y-7421D01*
X1505Y-7600D01*
X1440Y-7632D01*
X1391Y-7746D01*
X1229Y-8103D01*
X1196Y-8233D01*
X1147Y-8282D01*
X1066Y-8493D01*
X936Y-8623D01*
X904Y-8752D01*
X742Y-8915D01*
X709Y-8980D01*
X531Y-9061D01*
X433Y-9093D01*
X206Y-9126D01*
X-21Y-9061D01*
X-151Y-9028D01*
X-216Y-8963D01*
X-378Y-8769D01*
X-525Y-8590D01*
X-654Y-8363D01*
X-687Y-8298D01*
X-736Y-8249D01*
X-817Y-8038D01*
X-898Y-7957D01*
X-979Y-7746D01*
X-1044Y-7681D01*
X-1077Y-7616D01*
X-1239Y-7389D01*
X-1417Y-7243D01*
X-1515Y-7210D01*
X-1791Y-7584D01*
X-1888Y-7746D01*
X-2018Y-7876D01*
X-2050Y-8006D01*
X-2115Y-8071D01*
X-2213Y-8233D01*
X-2310Y-8330D01*
X-2343Y-8395D01*
X-2651Y-8704D01*
X-2781Y-8736D01*
X-2878Y-8833D01*
X-3171Y-8866D01*
X-3300Y-8833D01*
X-3463Y-8736D01*
X-3593Y-8704D01*
X-3885Y-8411D01*
X-4031Y-8233D01*
X-4064Y-8168D01*
X-4193Y-8038D01*
X-4226Y-7973D01*
X-4323Y-7876D01*
X-4356Y-7811D01*
X-4664Y-7502D01*
X-4826Y-7470D01*
X-4956Y-7502D01*
X-5135Y-7681D01*
X-5167Y-7746D01*
X-5265Y-7811D01*
X-5297Y-7876D01*
X-5378Y-7957D01*
X-5443Y-7989D01*
X-5460Y-8038D01*
X-5768Y-8347D01*
X-5995Y-8476D01*
X-6109Y-8558D01*
X-6304Y-8590D01*
X-6434Y-8623D01*
X-6742Y-8574D01*
X-6969Y-8476D01*
X-7132Y-8411D01*
X-7197Y-8314D01*
X-7261Y-8282D01*
X-7391Y-8152D01*
X-7456Y-8119D01*
X-7716Y-7859D01*
X-7878Y-7762D01*
X-7976Y-7665D01*
X-8235Y-7632D01*
X-8365Y-7665D01*
X-8414Y-7713D01*
X-9047Y-8184D01*
X-9274Y-8314D01*
X-9339Y-8379D01*
X-9534Y-8411D01*
X-9631Y-8444D01*
X-10313Y-8411D01*
X-10443Y-8282D01*
X-10573Y-8249D01*
X-10800Y-8087D01*
X-11028Y-7957D01*
X-11092Y-7892D01*
X-11206Y-7811D01*
X-11417Y-7762D01*
X-11498Y-7681D01*
X-11450Y-7535D01*
X-11190Y-7502D01*
X-11028Y-7567D01*
X-10979Y-7616D01*
X-10768Y-7665D01*
X-10703Y-7730D01*
X-10476Y-7859D01*
X-10248Y-8022D01*
X-9956Y-8184D01*
X-9794Y-8217D01*
X-9502Y-8087D01*
X-9437Y-8022D01*
X-9372Y-7989D01*
X-9307Y-7925D01*
X-9144Y-7827D01*
X-8982Y-7665D01*
X-8917Y-7632D01*
X-8722Y-7502D01*
X-8592Y-7470D01*
X-8528Y-7405D01*
X-7911Y-7373D01*
X-7683Y-7470D01*
X-7554Y-7502D01*
X-7456Y-7600D01*
X-7391Y-7632D01*
X-7229Y-7795D01*
X-7164Y-7827D01*
X-6904Y-8087D01*
X-6839Y-8119D01*
X-6774Y-8184D01*
X-6482Y-8347D01*
X-6255Y-8249D01*
X-5784Y-7778D01*
X-5752Y-7713D01*
X-5541Y-7502D01*
X-5476Y-7470D01*
X-5411Y-7405D01*
X-5249Y-7308D01*
X-5151Y-7210D01*
X-4664Y-7178D01*
X-4437Y-7210D01*
X-4372Y-7275D01*
X-4210Y-7373D01*
X-3966Y-7616D01*
X-3934Y-7681D01*
X-3836Y-7778D01*
X-3739Y-7941D01*
X-3674Y-7973D01*
X-3560Y-8152D01*
X-3414Y-8330D01*
X-3235Y-8476D01*
X-3041Y-8509D01*
X-2797Y-8265D01*
X-2765Y-8200D01*
X-2700Y-8135D01*
X-2667Y-8038D01*
X-2537Y-7908D01*
X-2456Y-7697D01*
X-2391Y-7665D01*
X-2310Y-7519D01*
X-2245Y-7454D01*
X-2213Y-7389D01*
X-1872Y-7048D01*
X-1807Y-7015D01*
X-1645Y-6950D01*
X-1320Y-6918D01*
X-1158Y-6983D01*
X-1028Y-7015D01*
X-898Y-7145D01*
X-752Y-7324D01*
X-589Y-7551D01*
X-427Y-7843D01*
X-362Y-7908D01*
X-330Y-8071D01*
X-281Y-8119D01*
X-216Y-8152D01*
X-167Y-8265D01*
X-103Y-8428D01*
X141Y-8769D01*
X271Y-8801D01*
X384Y-8687D01*
X514Y-8460D01*
X774Y-7973D01*
X807Y-7843D01*
X904Y-7746D01*
X936Y-7616D01*
X1001Y-7454D01*
X1261Y-6967D01*
X1326Y-6902D01*
X1407Y-6788D01*
X1521Y-6707D01*
X1602Y-6593D01*
X2056Y-6561D01*
X2186Y-6593D01*
X2284Y-6691D01*
X2349Y-6723D01*
X2495Y-6902D01*
X2527Y-6967D01*
X2608Y-7048D01*
X2657Y-7259D01*
X2755Y-7356D01*
X2819Y-7519D01*
X2852Y-7649D01*
X2901Y-7697D01*
X2949Y-7876D01*
X3063Y-8087D01*
X3112Y-8363D01*
X3209Y-8460D01*
X3242Y-8525D01*
X3274Y-8655D01*
X3306Y-8752D01*
X3404Y-8915D01*
X3469Y-9077D01*
X3647Y-9158D01*
X3696Y-9110D01*
X3729Y-9012D01*
X3793Y-8850D01*
X3875Y-8736D01*
X3923Y-8558D01*
X3956Y-8428D01*
X4021Y-8363D01*
X4086Y-8103D01*
X4183Y-7876D01*
X4216Y-7681D01*
X4248Y-7551D01*
X4345Y-7454D01*
X4378Y-7097D01*
X4508Y-6967D01*
X4540Y-6772D01*
X4605Y-6610D01*
X4735Y-6382D01*
X4978Y-6139D01*
X5498Y-6106D01*
X5709Y-6252D01*
X5904Y-6610D01*
X5936Y-6707D01*
X6017Y-6821D01*
X6066Y-7129D01*
X6196Y-7324D01*
X6228Y-7616D01*
X6342Y-7892D01*
X6375Y-8022D01*
X6407Y-8217D01*
X6472Y-8379D01*
X6521Y-8623D01*
X6586Y-8850D01*
X6650Y-8915D01*
X6683Y-9174D01*
X6716Y-9304D01*
X6813Y-9402D01*
X6845Y-9596D01*
X6910Y-9661D01*
X6991Y-9645D01*
X7073Y-9467D01*
X7137Y-9402D01*
X7170Y-9110D01*
X7203Y-8980D01*
X7300Y-8882D01*
X7365Y-8395D01*
X7397Y-8265D01*
X7446Y-8217D01*
X7495Y-7973D01*
X7560Y-7713D01*
X7592Y-7616D01*
X7625Y-7356D01*
X7689Y-7097D01*
X7738Y-7048D01*
X7787Y-6804D01*
X7819Y-6480D01*
X7917Y-6382D01*
X7949Y-6155D01*
X8047Y-5928D01*
X8079Y-5863D01*
X8177Y-5636D01*
X8209Y-5571D01*
X8258Y-5522D01*
X8323Y-5489D01*
X8371Y-5441D01*
X8404Y-5376D01*
X8355Y-5327D01*
X7089Y-5295D01*
X7040Y-5246D01*
X7056Y7595D01*
X8680Y7627D01*
X8826Y7578D01*
D02*
G37*
%LPC*%
G36*
X1634Y-2275D02*
X1472Y-2340D01*
X1423Y-2389D01*
X1407Y-2405D01*
X1391Y-2421D01*
X1570Y-2535D01*
X1667Y-2568D01*
X1716Y-2519D01*
X1846Y-2486D01*
X1878Y-2389D01*
X1634Y-2275D01*
D02*
G37*
G36*
X1277Y-4256D02*
X1229Y-4304D01*
Y-4337D01*
X1245Y-4353D01*
X1310Y-4386D01*
X1359Y-4337D01*
X1342Y-4288D01*
X1277Y-4256D01*
D02*
G37*
G36*
X2121Y-4743D02*
X2040Y-4759D01*
X2056Y-4840D01*
X2138Y-4824D01*
X2154Y-4808D01*
X2170Y-4791D01*
X2121Y-4743D01*
D02*
G37*
G36*
X3420Y-2827D02*
X3258Y-2892D01*
X3193Y-2925D01*
X3144Y-2973D01*
X3112Y-3038D01*
X3063Y-3087D01*
X2966Y-3119D01*
X2949Y-3168D01*
Y-3201D01*
X2933Y-3282D01*
X2446Y-3314D01*
X2365Y-3460D01*
X2381Y-3542D01*
X2738Y-3574D01*
X2868Y-3542D01*
X2933Y-3477D01*
X2966Y-3314D01*
X3095Y-3282D01*
X3144Y-3168D01*
X3209Y-3136D01*
X3453Y-3087D01*
X3550Y-3119D01*
X3680Y-3087D01*
X3696Y-3006D01*
X3550Y-2860D01*
X3420Y-2827D01*
D02*
G37*
G36*
X3469Y-3298D02*
X3160Y-3314D01*
X3112Y-3493D01*
X3160Y-3542D01*
X3258Y-3574D01*
X3355Y-3542D01*
X3453Y-3574D01*
X3566Y-3460D01*
X3582Y-3444D01*
X3631Y-3395D01*
X3599Y-3330D01*
X3469Y-3298D01*
D02*
G37*
G36*
X3485Y-3606D02*
X3371Y-3720D01*
X3014Y-3752D01*
X2982Y-3882D01*
X3079Y-3915D01*
X3258Y-3963D01*
X3355Y-3931D01*
X3485D01*
X3631Y-3720D01*
X3615Y-3639D01*
X3485Y-3606D01*
D02*
G37*
%LPD*%
D13*
X0Y-102362D02*
Y-88583D01*
X12795Y-122047D02*
X18701D01*
X7874Y-118110D02*
X12795Y-122047D01*
X-12795D02*
X-7874Y-118110D01*
X-18701Y-122047D02*
X-12795D01*
X0Y-146653D02*
Y-129921D01*
D15*
X31814Y138078D02*
Y142014D01*
X29190Y138078D01*
Y142014D01*
X27878Y138078D02*
Y142014D01*
X26566Y140702D01*
X25254Y142014D01*
Y138078D01*
X23942D02*
Y142014D01*
X21974D01*
X21319Y141358D01*
Y140046D01*
X21974Y139390D01*
X23942D01*
X22630D02*
X21319Y138078D01*
X13447Y142014D02*
X16071D01*
Y140046D01*
X14759D01*
X16071D01*
Y138078D01*
X12135Y140702D02*
Y138078D01*
Y139390D01*
X11479Y140046D01*
X10823Y140702D01*
X10167D01*
X7543Y138078D02*
X6232D01*
X5576Y138734D01*
Y140046D01*
X6232Y140702D01*
X7543D01*
X8200Y140046D01*
Y138734D01*
X7543Y138078D01*
X4264D02*
Y140702D01*
X2296D01*
X1640Y140046D01*
Y138078D01*
X-328Y141358D02*
Y140702D01*
X328D01*
X-984D01*
X-328D01*
Y138734D01*
X-984Y138078D01*
X-4920D02*
X-3608D01*
X-2952Y138734D01*
Y140046D01*
X-3608Y140702D01*
X-4920D01*
X-5576Y140046D01*
Y139390D01*
X-2952D01*
X-6888Y138078D02*
Y140702D01*
X-8855D01*
X-9511Y140046D01*
Y138078D01*
X-13447Y142014D02*
Y138078D01*
X-11479D01*
X-10823Y138734D01*
Y140046D01*
X-11479Y140702D01*
X-13447D01*
X-18695Y142014D02*
Y139390D01*
X-20007Y138078D01*
X-21319Y139390D01*
Y142014D01*
X-22630Y138078D02*
X-23942D01*
X-23287D01*
Y142014D01*
X-22630Y141358D01*
X-25910Y138078D02*
Y138734D01*
X-26566D01*
Y138078D01*
X-25910D01*
X-31158D02*
Y142014D01*
X-29190Y140046D01*
X-31814D01*
X12791Y131890D02*
X11479D01*
X12135D01*
Y135826D01*
X12791Y135170D01*
X9511D02*
X8855Y135826D01*
X7543D01*
X6888Y135170D01*
Y132546D01*
X7543Y131890D01*
X8855D01*
X9511Y132546D01*
Y135170D01*
X5576Y131890D02*
X2952Y134514D01*
X-984Y131890D02*
X1640D01*
X-984Y134514D01*
Y135170D01*
X-328Y135826D01*
X984D01*
X1640Y135170D01*
X-2296D02*
X-2952Y135826D01*
X-4264D01*
X-4920Y135170D01*
Y132546D01*
X-4264Y131890D01*
X-2952D01*
X-2296Y132546D01*
Y135170D01*
X-8855Y131890D02*
X-6232D01*
X-8855Y134514D01*
Y135170D01*
X-8200Y135826D01*
X-6888D01*
X-6232Y135170D01*
X-10167D02*
X-10823Y135826D01*
X-12135D01*
X-12791Y135170D01*
Y134514D01*
X-12135Y133858D01*
X-11479D01*
X-12135D01*
X-12791Y133202D01*
Y132546D01*
X-12135Y131890D01*
X-10823D01*
X-10167Y132546D01*
X14103Y129639D02*
X11479D01*
X12791D01*
Y125703D01*
X10167D02*
Y126359D01*
X9511D01*
Y125703D01*
X10167D01*
X2952Y129639D02*
Y125703D01*
X1640Y127015D01*
X328Y125703D01*
Y129639D01*
X-984Y125703D02*
X-2296D01*
X-1640D01*
Y128327D01*
X-984D01*
X-4264D02*
Y125703D01*
Y127015D01*
X-4920Y127671D01*
X-5576Y128327D01*
X-6232D01*
X-8855Y128983D02*
Y128327D01*
X-8200D01*
X-9511D01*
X-8855D01*
Y126359D01*
X-9511Y125703D01*
X-11479Y129639D02*
Y125703D01*
Y127671D01*
X-12135Y128327D01*
X-13447D01*
X-14103Y127671D01*
Y125703D01*
X-9469Y-88958D02*
X-10780D01*
X-10125D01*
Y-92894D01*
X-9469D01*
X-10780D01*
X-12748Y-90926D02*
X-15372D01*
X-14060Y-89614D02*
Y-92238D01*
X7215Y-83052D02*
Y-86988D01*
X5248D01*
X4592Y-86332D01*
Y-83708D01*
X5248Y-83052D01*
X7215D01*
X3280Y-86988D02*
Y-84364D01*
X1968Y-83052D01*
X656Y-84364D01*
Y-86988D01*
Y-85020D01*
X3280D01*
X-656Y-83052D02*
X-3280D01*
X-1968D01*
Y-86988D01*
X-4592D02*
Y-84364D01*
X-5904Y-83052D01*
X-7215Y-84364D01*
Y-86988D01*
Y-85020D01*
X-4592D01*
X27278Y-120126D02*
X27934Y-119470D01*
X29246D01*
X29902Y-120126D01*
Y-122749D01*
X29246Y-123406D01*
X27934D01*
X27278Y-122749D01*
X25966Y-119470D02*
Y-123406D01*
X23342D01*
X22030Y-119470D02*
Y-123406D01*
Y-122094D01*
X19406Y-119470D01*
X21374Y-121438D01*
X19406Y-123406D01*
X-19311Y-119470D02*
X-21935D01*
X-20623D01*
Y-123406D01*
X-23247Y-119470D02*
X-25871Y-123406D01*
Y-119470D02*
X-23247Y-123406D01*
X-17014Y-98472D02*
X-16358Y-97816D01*
X-15046D01*
X-14390Y-98472D01*
Y-101096D01*
X-15046Y-101752D01*
X-16358D01*
X-17014Y-101096D01*
X-20949Y-98472D02*
X-20293Y-97816D01*
X-18981D01*
X-18326Y-98472D01*
Y-99128D01*
X-18981Y-99784D01*
X-20293D01*
X-20949Y-100440D01*
Y-101096D01*
X-20293Y-101752D01*
X-18981D01*
X-18326Y-101096D01*
X-20295Y-111594D02*
Y-107659D01*
X-22263D01*
X-22919Y-108315D01*
Y-109627D01*
X-22263Y-110283D01*
X-20295D01*
X-21607D02*
X-22919Y-111594D01*
X-24231Y-107659D02*
X-26855Y-111594D01*
Y-107659D02*
X-24231Y-111594D01*
X15087Y-149981D02*
X12463D01*
X13775Y-148669D02*
Y-151293D01*
X8527Y-148013D02*
X11151D01*
Y-149981D01*
X9839Y-149325D01*
X9183D01*
X8527Y-149981D01*
Y-151293D01*
X9183Y-151949D01*
X10495D01*
X11151Y-151293D01*
X7215Y-148013D02*
Y-150637D01*
X5904Y-151949D01*
X4592Y-150637D01*
Y-148013D01*
X3280Y-151949D02*
X656Y-149325D01*
X-656Y-149981D02*
X-3280D01*
X-1968Y-148669D02*
Y-151293D01*
X-4592Y-148669D02*
X-5248Y-148013D01*
X-6560D01*
X-7215Y-148669D01*
Y-149325D01*
X-6560Y-149981D01*
X-5904D01*
X-6560D01*
X-7215Y-150637D01*
Y-151293D01*
X-6560Y-151949D01*
X-5248D01*
X-4592Y-151293D01*
X-8527Y-148013D02*
Y-150637D01*
X-9839Y-151949D01*
X-11151Y-150637D01*
Y-148013D01*
X-12463Y-148669D02*
X-13119Y-148013D01*
X-14431D01*
X-15087Y-148669D01*
Y-149325D01*
X-14431Y-149981D01*
X-13775D01*
X-14431D01*
X-15087Y-150637D01*
Y-151293D01*
X-14431Y-151949D01*
X-13119D01*
X-12463Y-151293D01*
X-12141Y-130297D02*
X-9517D01*
Y-132264D01*
X-10829D01*
X-9517D01*
Y-134232D01*
X-13453D02*
Y-130297D01*
X-15420D01*
X-16076Y-130953D01*
Y-132264D01*
X-15420Y-132920D01*
X-13453D01*
X-14764D02*
X-16076Y-134232D01*
X-20012Y-130297D02*
X-17388D01*
Y-134232D01*
X-20012D01*
X-17388Y-132264D02*
X-18700D01*
X-23948Y-130297D02*
X-21324D01*
Y-132264D01*
X-22636D01*
X-21324D01*
Y-134232D01*
X17388Y-130953D02*
X18044Y-130297D01*
X19355D01*
X20011Y-130953D01*
Y-133576D01*
X19355Y-134232D01*
X18044D01*
X17388Y-133576D01*
Y-132264D01*
X18699D01*
X16076Y-134232D02*
Y-130297D01*
X13452Y-134232D01*
Y-130297D01*
X12140D02*
Y-134232D01*
X10172D01*
X9516Y-133576D01*
Y-130953D01*
X10172Y-130297D01*
X12140D01*
X17500Y-142107D02*
X14876D01*
X16188Y-140795D02*
Y-143419D01*
X10940Y-140139D02*
X13564D01*
Y-142107D01*
X12252Y-141451D01*
X11596D01*
X10940Y-142107D01*
Y-143419D01*
X11596Y-144075D01*
X12908D01*
X13564Y-143419D01*
X9629Y-140795D02*
X8973Y-140139D01*
X7661D01*
X7005Y-140795D01*
Y-143419D01*
X7661Y-144075D01*
X8973D01*
X9629Y-143419D01*
Y-140795D01*
X5693Y-140139D02*
Y-142763D01*
X4381Y-144075D01*
X3069Y-142763D01*
Y-140139D01*
X-3169Y-142107D02*
X-5793D01*
X-4481Y-140795D02*
Y-143419D01*
X-9729Y-140139D02*
X-7105D01*
Y-142107D01*
X-8417Y-141451D01*
X-9073D01*
X-9729Y-142107D01*
Y-143419D01*
X-9073Y-144075D01*
X-7761D01*
X-7105Y-143419D01*
X-11041Y-140795D02*
X-11697Y-140139D01*
X-13009D01*
X-13665Y-140795D01*
Y-143419D01*
X-13009Y-144075D01*
X-11697D01*
X-11041Y-143419D01*
Y-140795D01*
X-14976Y-140139D02*
Y-142763D01*
X-16288Y-144075D01*
X-17600Y-142763D01*
Y-140139D01*
X10451Y-88958D02*
X9139D01*
X9795D01*
Y-92894D01*
X10451D01*
X9139D01*
X7171Y-90926D02*
X4547D01*
X21372Y-110939D02*
Y-108315D01*
X22028Y-107659D01*
X23340D01*
X23996Y-108315D01*
Y-110939D01*
X23340Y-111594D01*
X22028D01*
X22684Y-110283D02*
X21372Y-111594D01*
X22028D02*
X21372Y-110939D01*
X20060Y-109627D02*
X17436D01*
X14482Y-101096D02*
Y-98472D01*
X15138Y-97816D01*
X16450D01*
X17106Y-98472D01*
Y-101096D01*
X16450Y-101752D01*
X15138D01*
X15794Y-100440D02*
X14482Y-101752D01*
X15138D02*
X14482Y-101096D01*
X13171Y-99784D02*
X10547D01*
X11859Y-98472D02*
Y-101096D01*
M02*
