G04*
G04 #@! TF.GenerationSoftware,Altium Limited,Altium Designer,23.9.2 (47)*
G04*
G04 Layer_Color=32896*
%FSLAX25Y25*%
%MOIN*%
G70*
G04*
G04 #@! TF.SameCoordinates,E30DC50E-2E90-4FCC-99EB-6CEF48135232*
G04*
G04*
G04 #@! TF.FilePolarity,Positive*
G04*
G01*
G75*
%ADD41C,0.01083*%
G36*
X-1596Y19685D02*
X-1605Y19652D01*
X-1625Y19632D01*
X-1683Y19615D01*
X-1789Y19607D01*
X-2347Y19599D01*
X-2363Y19582D01*
X-2380Y19574D01*
X-2404Y19550D01*
X-2462Y19533D01*
X-2921Y19525D01*
X-2966Y19488D01*
X-2978Y19476D01*
X-2995Y19468D01*
X-3036Y19451D01*
X-3413Y19443D01*
X-3458Y19406D01*
X-3487Y19377D01*
X-3561Y19369D01*
X-3585Y19377D01*
X-3823Y19369D01*
X-3868Y19332D01*
X-3897Y19304D01*
X-3955Y19295D01*
X-4217Y19287D01*
X-4254Y19250D01*
X-4262Y19234D01*
X-4315Y19213D01*
X-4508Y19218D01*
X-4541Y19209D01*
X-4570Y19189D01*
X-4603Y19156D01*
X-4643Y19140D01*
X-4865Y19131D01*
X-4914Y19082D01*
X-4931Y19074D01*
X-4955Y19066D01*
X-4988Y19058D01*
X-5123Y19062D01*
X-5164Y19053D01*
X-5193Y19033D01*
X-5214Y19004D01*
X-5226Y18992D01*
X-5291Y18976D01*
X-5316Y18984D01*
X-5447Y18976D01*
X-5492Y18947D01*
X-5501Y18930D01*
X-5521Y18910D01*
X-5554Y18902D01*
X-5718Y18893D01*
X-5739Y18881D01*
X-5747Y18865D01*
X-5775Y18828D01*
X-5833Y18820D01*
X-5931Y18828D01*
X-5989Y18795D01*
X-6009Y18766D01*
X-6022Y18754D01*
X-6054Y18746D01*
X-6202Y18738D01*
X-6259Y18680D01*
X-6317Y18664D01*
X-6440Y18656D01*
X-6469Y18627D01*
X-6477Y18611D01*
X-6522Y18590D01*
X-6661Y18582D01*
X-6690Y18553D01*
X-6698Y18537D01*
X-6727Y18508D01*
X-6891Y18500D01*
X-6920Y18471D01*
X-6928Y18455D01*
X-6948Y18434D01*
X-6981Y18426D01*
X-7088Y18418D01*
X-7137Y18369D01*
X-7178Y18352D01*
X-7293Y18344D01*
X-7313Y18324D01*
X-7322Y18307D01*
X-7342Y18278D01*
X-7375Y18270D01*
X-7473Y18262D01*
X-7518Y18225D01*
X-7539Y18205D01*
X-7596Y18196D01*
X-7678Y18188D01*
X-7707Y18159D01*
X-7715Y18143D01*
X-7728Y18123D01*
X-7760Y18114D01*
X-7851Y18106D01*
X-7871Y18086D01*
X-7896Y18045D01*
X-7929Y18036D01*
X-8019Y18028D01*
X-8031Y18016D01*
X-8043Y18012D01*
X-8051Y17995D01*
X-8072Y17975D01*
X-8129Y17958D01*
X-8195Y17950D01*
X-8236Y17926D01*
X-8277Y17885D01*
X-8310Y17876D01*
X-8384Y17868D01*
X-8421Y17831D01*
X-8429Y17815D01*
X-8482Y17795D01*
X-8556Y17786D01*
X-8568Y17774D01*
X-8576Y17758D01*
X-8597Y17729D01*
X-8630Y17721D01*
X-8712Y17712D01*
X-8724Y17700D01*
X-8732Y17684D01*
X-8761Y17647D01*
X-8794Y17639D01*
X-8868Y17630D01*
X-8888Y17610D01*
X-8896Y17594D01*
X-8925Y17565D01*
X-9024Y17557D01*
X-9044Y17536D01*
X-9069Y17495D01*
X-9105Y17483D01*
X-9179Y17475D01*
X-9192Y17462D01*
X-9200Y17446D01*
X-9220Y17417D01*
X-9261Y17401D01*
X-9319Y17392D01*
X-9347Y17372D01*
X-9356Y17356D01*
X-9368Y17343D01*
X-9409Y17327D01*
X-9462Y17306D01*
X-9499Y17269D01*
X-9540Y17253D01*
X-9573Y17245D01*
X-9610Y17216D01*
X-9618Y17200D01*
X-9639Y17179D01*
X-9671Y17171D01*
X-9737Y17163D01*
X-9758Y17142D01*
X-9782Y17101D01*
X-9819Y17089D01*
X-9885Y17081D01*
X-9913Y17052D01*
X-9922Y17036D01*
X-9942Y17015D01*
X-9987Y17003D01*
X-10032Y16974D01*
X-10057Y16950D01*
X-10090Y16941D01*
X-10131Y16925D01*
X-10159Y16896D01*
X-10172Y16868D01*
X-10213Y16851D01*
X-10287Y16843D01*
X-10299Y16831D01*
X-10307Y16814D01*
X-10319Y16794D01*
X-10336Y16786D01*
X-10393Y16753D01*
X-10426Y16720D01*
X-10467Y16704D01*
X-10516Y16695D01*
X-10545Y16667D01*
X-10570Y16626D01*
X-10606Y16613D01*
X-10652Y16601D01*
X-10680Y16580D01*
X-10705Y16556D01*
X-10779Y16515D01*
X-10807Y16470D01*
X-10844Y16457D01*
X-10898Y16445D01*
X-10922Y16429D01*
X-10931Y16412D01*
X-10943Y16400D01*
X-11000Y16367D01*
X-11021Y16347D01*
X-11029Y16330D01*
X-11058Y16302D01*
X-11127Y16289D01*
X-11140Y16277D01*
X-11156Y16269D01*
X-11172Y16244D01*
X-11246Y16203D01*
X-11279Y16154D01*
X-11320Y16138D01*
X-11361Y16113D01*
X-11386Y16088D01*
X-11427Y16072D01*
X-11460Y16064D01*
X-11488Y16035D01*
X-11496Y16019D01*
X-11525Y15990D01*
X-11566Y15965D01*
X-11578Y15953D01*
X-11587Y15937D01*
X-11607Y15916D01*
X-11640Y15908D01*
X-11693Y15888D01*
X-11738Y15842D01*
X-11796Y15810D01*
X-11816Y15781D01*
X-11845Y15752D01*
X-11861Y15744D01*
X-11882Y15732D01*
X-11890Y15715D01*
X-11927Y15678D01*
X-11960Y15670D01*
X-12013Y15650D01*
X-12042Y15613D01*
X-12099Y15580D01*
X-12128Y15551D01*
X-12136Y15535D01*
X-12149Y15522D01*
X-12165Y15514D01*
X-12194Y15494D01*
X-12202Y15477D01*
X-12222Y15449D01*
X-12239Y15440D01*
X-12296Y15399D01*
X-12321Y15375D01*
X-12399Y15346D01*
X-12460Y15285D01*
X-12501Y15260D01*
X-12514Y15248D01*
X-12522Y15231D01*
X-12550Y15203D01*
X-12567Y15194D01*
X-12596Y15166D01*
X-12604Y15149D01*
X-12632Y15121D01*
X-12649Y15112D01*
X-12677Y15092D01*
X-12686Y15076D01*
X-12714Y15047D01*
X-12772Y15014D01*
X-12805Y14981D01*
X-12878Y14940D01*
X-12920Y14899D01*
X-12936Y14891D01*
X-12981Y14854D01*
X-13018Y14809D01*
X-13034Y14801D01*
X-13055Y14788D01*
X-13063Y14772D01*
X-13079Y14756D01*
X-13083Y14743D01*
X-13100Y14735D01*
X-13116Y14719D01*
X-13133Y14710D01*
X-13153Y14682D01*
X-13190Y14645D01*
X-13206Y14637D01*
X-13219Y14624D01*
X-13227Y14608D01*
X-13272Y14563D01*
X-13289Y14555D01*
X-13301Y14542D01*
X-13309Y14526D01*
X-13346Y14489D01*
X-13362Y14481D01*
X-13391Y14452D01*
X-13399Y14436D01*
X-13420Y14415D01*
X-13436Y14407D01*
X-13465Y14387D01*
X-13473Y14370D01*
X-13502Y14341D01*
X-13518Y14333D01*
X-13584Y14267D01*
X-13600Y14259D01*
X-13617Y14243D01*
X-13633Y14235D01*
X-13645Y14222D01*
X-13654Y14206D01*
X-13682Y14186D01*
X-13707Y14161D01*
X-13723Y14153D01*
X-14105Y13771D01*
X-14113Y13755D01*
X-14187Y13681D01*
X-14195Y13665D01*
X-14261Y13599D01*
X-14269Y13583D01*
X-14297Y13554D01*
X-14314Y13546D01*
X-14334Y13517D01*
X-14363Y13480D01*
X-14379Y13472D01*
X-14400Y13451D01*
X-14408Y13435D01*
X-14424Y13419D01*
X-14429Y13406D01*
X-14445Y13398D01*
X-14482Y13361D01*
X-14490Y13345D01*
X-14527Y13308D01*
X-14544Y13300D01*
X-14556Y13287D01*
X-14564Y13271D01*
X-14580Y13255D01*
X-14584Y13242D01*
X-14601Y13234D01*
X-14638Y13205D01*
X-14646Y13189D01*
X-14691Y13144D01*
X-14707Y13136D01*
X-14736Y13099D01*
X-14740Y13086D01*
X-14757Y13078D01*
X-14773Y13062D01*
X-14789Y13054D01*
X-14822Y13004D01*
X-14867Y12968D01*
X-14921Y12898D01*
X-14937Y12890D01*
X-14958Y12853D01*
X-14990Y12795D01*
X-15023Y12763D01*
X-15056Y12705D01*
X-15077Y12685D01*
X-15093Y12676D01*
X-15105Y12664D01*
X-15130Y12623D01*
X-15150Y12603D01*
X-15167Y12594D01*
X-15195Y12566D01*
X-15204Y12549D01*
X-15233Y12520D01*
X-15249Y12512D01*
X-15269Y12492D01*
X-15294Y12451D01*
X-15323Y12422D01*
X-15335Y12418D01*
X-15351Y12377D01*
X-15384Y12319D01*
X-15409Y12295D01*
X-15450Y12221D01*
X-15499Y12188D01*
X-15507Y12172D01*
X-15536Y12135D01*
X-15552Y12127D01*
X-15589Y12090D01*
X-15618Y12037D01*
X-15634Y12028D01*
X-15647Y12016D01*
X-15663Y11975D01*
X-15675Y11930D01*
X-15716Y11889D01*
X-15729Y11885D01*
X-15737Y11868D01*
X-15774Y11823D01*
X-15790Y11807D01*
X-15807Y11799D01*
X-15819Y11786D01*
X-15852Y11729D01*
X-15893Y11688D01*
X-15909Y11614D01*
X-15938Y11586D01*
X-15954Y11577D01*
X-15975Y11557D01*
X-15999Y11516D01*
X-16020Y11495D01*
X-16036Y11487D01*
X-16057Y11467D01*
X-16065Y11434D01*
X-16098Y11376D01*
X-16122Y11352D01*
X-16143Y11298D01*
X-16159Y11274D01*
X-16176Y11266D01*
X-16213Y11237D01*
X-16245Y11180D01*
X-16278Y11147D01*
X-16295Y11081D01*
X-16303Y11056D01*
X-16331Y11028D01*
X-16348Y11020D01*
X-16377Y10991D01*
X-16405Y10938D01*
X-16422Y10929D01*
X-16442Y10909D01*
X-16451Y10851D01*
X-16459Y10819D01*
X-16479Y10798D01*
X-16496Y10790D01*
X-16524Y10769D01*
X-16565Y10695D01*
X-16598Y10663D01*
X-16610Y10601D01*
X-16623Y10572D01*
X-16635Y10560D01*
X-16676Y10536D01*
X-16688Y10523D01*
X-16705Y10458D01*
X-16742Y10413D01*
X-16754Y10400D01*
X-16774Y10347D01*
X-16807Y10314D01*
X-16824Y10306D01*
X-16844Y10285D01*
X-16852Y10195D01*
X-16881Y10166D01*
X-16897Y10158D01*
X-16926Y10130D01*
X-16939Y10085D01*
X-16967Y10039D01*
X-16992Y10015D01*
X-17004Y9970D01*
X-17033Y9924D01*
X-17074Y9900D01*
X-17082Y9867D01*
X-17090Y9793D01*
X-17111Y9773D01*
X-17152Y9748D01*
X-17164Y9711D01*
X-17172Y9654D01*
X-17193Y9625D01*
X-17209Y9617D01*
X-17238Y9588D01*
X-17250Y9543D01*
X-17279Y9498D01*
X-17295Y9482D01*
X-17312Y9441D01*
X-17332Y9387D01*
X-17386Y9334D01*
X-17394Y9301D01*
X-17402Y9244D01*
X-17439Y9207D01*
X-17455Y9199D01*
X-17468Y9186D01*
X-17476Y9154D01*
X-17484Y9080D01*
X-17504Y9059D01*
X-17545Y9035D01*
X-17558Y8998D01*
X-17566Y8924D01*
X-17586Y8903D01*
X-17603Y8895D01*
X-17623Y8883D01*
X-17632Y8850D01*
X-17640Y8768D01*
X-17660Y8748D01*
X-17701Y8723D01*
X-17714Y8686D01*
X-17722Y8604D01*
X-17734Y8592D01*
X-17751Y8584D01*
X-17787Y8555D01*
X-17792Y8518D01*
X-17787Y8481D01*
X-17816Y8428D01*
X-17857Y8403D01*
X-17869Y8366D01*
X-17878Y8284D01*
X-17935Y8227D01*
X-17943Y8194D01*
X-17951Y8136D01*
X-17972Y8083D01*
X-18017Y8038D01*
X-18025Y8005D01*
X-18034Y7948D01*
X-18042Y7907D01*
X-18062Y7886D01*
X-18079Y7878D01*
X-18107Y7849D01*
X-18115Y7743D01*
X-18144Y7714D01*
X-18161Y7706D01*
X-18181Y7685D01*
X-18189Y7628D01*
X-18198Y7554D01*
X-18214Y7538D01*
X-18222Y7521D01*
X-18255Y7489D01*
X-18263Y7456D01*
X-18271Y7349D01*
X-18292Y7329D01*
X-18333Y7304D01*
X-18345Y7267D01*
X-18353Y7160D01*
X-18370Y7144D01*
X-18378Y7128D01*
X-18394Y7119D01*
X-18403Y7103D01*
X-18419Y7062D01*
X-18427Y6955D01*
X-18456Y6927D01*
X-18472Y6919D01*
X-18493Y6898D01*
X-18501Y6865D01*
X-18509Y6726D01*
X-18538Y6697D01*
X-18554Y6689D01*
X-18575Y6668D01*
X-18583Y6635D01*
X-18591Y6504D01*
X-18657Y6439D01*
X-18665Y6283D01*
X-18681Y6266D01*
X-18690Y6250D01*
X-18702Y6238D01*
X-18718Y6230D01*
X-18739Y6184D01*
X-18747Y6037D01*
X-18764Y6020D01*
X-18768Y6008D01*
X-18784Y6000D01*
X-18804Y5979D01*
X-18821Y5922D01*
X-18813Y5815D01*
X-18841Y5762D01*
X-18858Y5754D01*
X-18878Y5742D01*
X-18887Y5725D01*
X-18895Y5700D01*
X-18903Y5528D01*
X-18923Y5508D01*
X-18940Y5500D01*
X-18960Y5479D01*
X-18969Y5446D01*
X-18977Y5389D01*
X-18985Y5233D01*
X-19014Y5204D01*
X-19030Y5196D01*
X-19042Y5184D01*
X-19050Y5151D01*
X-19055Y5114D01*
X-19050Y4987D01*
X-19059Y4962D01*
X-19083Y4921D01*
X-19116Y4888D01*
X-19133Y4847D01*
X-19141Y4626D01*
X-19157Y4610D01*
X-19165Y4593D01*
X-19190Y4577D01*
X-19198Y4560D01*
X-19206Y4536D01*
X-19215Y4478D01*
X-19206Y4421D01*
X-19210Y4384D01*
X-19206Y4314D01*
X-19235Y4261D01*
X-19252Y4253D01*
X-19280Y4224D01*
X-19288Y4191D01*
X-19297Y3912D01*
X-19333Y3867D01*
X-19354Y3847D01*
X-19370Y3789D01*
X-19366Y3539D01*
X-19375Y3498D01*
X-19395Y3469D01*
X-19407Y3457D01*
X-19424Y3449D01*
X-19444Y3404D01*
X-19452Y3018D01*
X-19489Y2973D01*
X-19510Y2953D01*
X-19518Y2920D01*
X-19526Y2863D01*
X-19534Y2452D01*
X-19592Y2362D01*
X-19600Y2305D01*
X-19608Y1698D01*
X-19616Y1673D01*
X-19641Y1632D01*
X-19653Y1620D01*
X-19682Y1616D01*
X-19678Y-1612D01*
X-19645Y-1620D01*
X-19625Y-1640D01*
X-19608Y-1698D01*
X-19600Y-1854D01*
X-19592Y-2346D01*
X-19555Y-2391D01*
X-19534Y-2436D01*
X-19526Y-2469D01*
X-19518Y-2928D01*
X-19481Y-2973D01*
X-19461Y-2994D01*
X-19444Y-3035D01*
X-19436Y-3420D01*
X-19379Y-3478D01*
X-19370Y-3511D01*
X-19362Y-3551D01*
X-19370Y-3576D01*
X-19362Y-3822D01*
X-19333Y-3859D01*
X-19317Y-3867D01*
X-19305Y-3880D01*
X-19288Y-3937D01*
X-19280Y-4216D01*
X-19243Y-4253D01*
X-19227Y-4261D01*
X-19215Y-4298D01*
X-19206Y-4331D01*
X-19210Y-4384D01*
X-19206Y-4445D01*
X-19215Y-4470D01*
X-19206Y-4544D01*
X-19190Y-4560D01*
X-19182Y-4577D01*
X-19149Y-4601D01*
X-19133Y-4659D01*
X-19124Y-4864D01*
X-19067Y-4921D01*
X-19050Y-4987D01*
X-19055Y-5114D01*
X-19046Y-5163D01*
X-19030Y-5188D01*
X-19014Y-5196D01*
X-18985Y-5225D01*
X-18977Y-5257D01*
X-18969Y-5446D01*
X-18948Y-5483D01*
X-18932Y-5491D01*
X-18903Y-5520D01*
X-18895Y-5553D01*
X-18887Y-5717D01*
X-18858Y-5746D01*
X-18841Y-5754D01*
X-18821Y-5774D01*
X-18813Y-5832D01*
X-18821Y-5914D01*
X-18809Y-5959D01*
X-18792Y-5983D01*
X-18776Y-5992D01*
X-18747Y-6020D01*
X-18739Y-6078D01*
X-18731Y-6201D01*
X-18673Y-6258D01*
X-18657Y-6316D01*
X-18661Y-6385D01*
X-18653Y-6435D01*
X-18620Y-6467D01*
X-18604Y-6476D01*
X-18591Y-6488D01*
X-18583Y-6521D01*
X-18575Y-6660D01*
X-18546Y-6689D01*
X-18530Y-6697D01*
X-18501Y-6726D01*
X-18493Y-6890D01*
X-18464Y-6919D01*
X-18448Y-6927D01*
X-18427Y-6947D01*
X-18419Y-6980D01*
X-18411Y-7087D01*
X-18361Y-7136D01*
X-18345Y-7177D01*
X-18337Y-7292D01*
X-18316Y-7312D01*
X-18275Y-7337D01*
X-18263Y-7374D01*
X-18255Y-7472D01*
X-18206Y-7521D01*
X-18189Y-7562D01*
X-18181Y-7677D01*
X-18152Y-7706D01*
X-18115Y-7726D01*
X-18107Y-7759D01*
X-18099Y-7849D01*
X-18079Y-7870D01*
X-18038Y-7895D01*
X-18029Y-7927D01*
X-18025Y-7956D01*
X-18034Y-7972D01*
X-18017Y-8022D01*
X-17968Y-8071D01*
X-17951Y-8128D01*
X-17943Y-8194D01*
X-17906Y-8239D01*
X-17886Y-8259D01*
X-17869Y-8301D01*
X-17861Y-8383D01*
X-17849Y-8403D01*
X-17832Y-8411D01*
X-17804Y-8432D01*
X-17787Y-8489D01*
X-17779Y-8555D01*
X-17767Y-8567D01*
X-17751Y-8575D01*
X-17722Y-8596D01*
X-17714Y-8629D01*
X-17705Y-8711D01*
X-17693Y-8723D01*
X-17652Y-8748D01*
X-17640Y-8760D01*
X-17632Y-8793D01*
X-17623Y-8867D01*
X-17603Y-8887D01*
X-17586Y-8895D01*
X-17558Y-8924D01*
X-17549Y-9022D01*
X-17529Y-9043D01*
X-17488Y-9067D01*
X-17476Y-9104D01*
X-17468Y-9170D01*
X-17455Y-9190D01*
X-17439Y-9199D01*
X-17410Y-9219D01*
X-17394Y-9277D01*
X-17381Y-9322D01*
X-17328Y-9375D01*
X-17316Y-9420D01*
X-17303Y-9449D01*
X-17263Y-9490D01*
X-17246Y-9547D01*
X-17213Y-9605D01*
X-17185Y-9625D01*
X-17172Y-9638D01*
X-17164Y-9670D01*
X-17156Y-9736D01*
X-17143Y-9748D01*
X-17127Y-9756D01*
X-17082Y-9793D01*
X-17074Y-9883D01*
X-17045Y-9912D01*
X-17029Y-9920D01*
X-17016Y-9933D01*
X-16992Y-9990D01*
X-16984Y-10007D01*
X-16943Y-10048D01*
X-16930Y-10101D01*
X-16918Y-10130D01*
X-16897Y-10150D01*
X-16881Y-10158D01*
X-16852Y-10179D01*
X-16844Y-10236D01*
X-16836Y-10285D01*
X-16824Y-10298D01*
X-16807Y-10306D01*
X-16787Y-10318D01*
X-16779Y-10335D01*
X-16746Y-10392D01*
X-16705Y-10433D01*
X-16696Y-10466D01*
X-16688Y-10515D01*
X-16660Y-10544D01*
X-16619Y-10568D01*
X-16606Y-10614D01*
X-16590Y-10655D01*
X-16557Y-10687D01*
X-16512Y-10774D01*
X-16496Y-10782D01*
X-16459Y-10810D01*
X-16442Y-10876D01*
X-16418Y-10917D01*
X-16393Y-10942D01*
X-16360Y-10999D01*
X-16340Y-11020D01*
X-16323Y-11028D01*
X-16295Y-11056D01*
X-16282Y-11110D01*
X-16258Y-11151D01*
X-16245Y-11155D01*
X-16237Y-11171D01*
X-16196Y-11245D01*
X-16147Y-11278D01*
X-16106Y-11352D01*
X-16081Y-11376D01*
X-16065Y-11417D01*
X-16057Y-11458D01*
X-16028Y-11487D01*
X-16012Y-11495D01*
X-15983Y-11524D01*
X-15975Y-11540D01*
X-15962Y-11561D01*
X-15946Y-11569D01*
X-15909Y-11598D01*
X-15901Y-11631D01*
X-15880Y-11684D01*
X-15844Y-11721D01*
X-15802Y-11795D01*
X-15774Y-11815D01*
X-15745Y-11844D01*
X-15737Y-11860D01*
X-15700Y-11897D01*
X-15684Y-11905D01*
X-15671Y-11918D01*
X-15663Y-11951D01*
X-15647Y-11992D01*
X-15634Y-12012D01*
X-15618Y-12020D01*
X-15597Y-12057D01*
X-15573Y-12098D01*
X-15544Y-12127D01*
X-15528Y-12135D01*
X-15515Y-12147D01*
X-15507Y-12164D01*
X-15487Y-12192D01*
X-15470Y-12201D01*
X-15433Y-12229D01*
X-15401Y-12287D01*
X-15360Y-12328D01*
X-15347Y-12373D01*
X-15319Y-12418D01*
X-15294Y-12434D01*
X-15286Y-12451D01*
X-15245Y-12508D01*
X-15216Y-12529D01*
X-15195Y-12549D01*
X-15187Y-12566D01*
X-15159Y-12594D01*
X-15142Y-12603D01*
X-15113Y-12631D01*
X-15105Y-12648D01*
X-15068Y-12685D01*
X-15052Y-12693D01*
X-15032Y-12730D01*
X-15023Y-12746D01*
X-14986Y-12791D01*
X-14966Y-12812D01*
X-14945Y-12865D01*
X-14884Y-12926D01*
X-14859Y-12968D01*
X-14847Y-12980D01*
X-14830Y-12988D01*
X-14802Y-13017D01*
X-14794Y-13033D01*
X-14781Y-13054D01*
X-14765Y-13062D01*
X-14749Y-13078D01*
X-14736Y-13082D01*
X-14728Y-13099D01*
X-14712Y-13115D01*
X-14703Y-13132D01*
X-14675Y-13152D01*
X-14638Y-13189D01*
X-14630Y-13205D01*
X-14617Y-13218D01*
X-14601Y-13226D01*
X-14556Y-13271D01*
X-14548Y-13287D01*
X-14535Y-13300D01*
X-14519Y-13308D01*
X-14482Y-13345D01*
X-14474Y-13361D01*
X-14445Y-13390D01*
X-14429Y-13398D01*
X-14416Y-13410D01*
X-14408Y-13427D01*
X-14371Y-13472D01*
X-14355Y-13480D01*
X-14343Y-13492D01*
X-14334Y-13509D01*
X-14297Y-13554D01*
X-14277Y-13566D01*
X-14269Y-13583D01*
X-14187Y-13665D01*
X-14178Y-13681D01*
X-14096Y-13763D01*
X-14088Y-13780D01*
X-13715Y-14153D01*
X-13699Y-14161D01*
X-13674Y-14186D01*
X-13658Y-14194D01*
X-13637Y-14214D01*
X-13629Y-14231D01*
X-13600Y-14251D01*
X-13555Y-14288D01*
X-13535Y-14317D01*
X-13518Y-14325D01*
X-13473Y-14362D01*
X-13465Y-14378D01*
X-13444Y-14399D01*
X-13428Y-14407D01*
X-13412Y-14423D01*
X-13399Y-14427D01*
X-13391Y-14444D01*
X-13354Y-14481D01*
X-13338Y-14489D01*
X-13301Y-14526D01*
X-13293Y-14542D01*
X-13280Y-14555D01*
X-13264Y-14563D01*
X-13219Y-14608D01*
X-13211Y-14624D01*
X-13198Y-14637D01*
X-13182Y-14645D01*
X-13137Y-14690D01*
X-13129Y-14706D01*
X-13100Y-14727D01*
X-13079Y-14739D01*
X-13071Y-14756D01*
X-13055Y-14772D01*
X-13051Y-14784D01*
X-13034Y-14793D01*
X-12989Y-14829D01*
X-12952Y-14875D01*
X-12911Y-14899D01*
X-12862Y-14948D01*
X-12809Y-14969D01*
X-12796Y-14981D01*
X-12780Y-14989D01*
X-12764Y-15014D01*
X-12690Y-15055D01*
X-12669Y-15084D01*
X-12641Y-15112D01*
X-12624Y-15121D01*
X-12596Y-15149D01*
X-12587Y-15166D01*
X-12559Y-15194D01*
X-12542Y-15203D01*
X-12514Y-15231D01*
X-12505Y-15248D01*
X-12485Y-15268D01*
X-12431Y-15297D01*
X-12423Y-15313D01*
X-12403Y-15334D01*
X-12362Y-15350D01*
X-12329Y-15358D01*
X-12300Y-15379D01*
X-12292Y-15395D01*
X-12271Y-15416D01*
X-12214Y-15449D01*
X-12181Y-15498D01*
X-12165Y-15506D01*
X-12120Y-15543D01*
X-12111Y-15559D01*
X-12083Y-15588D01*
X-12042Y-15605D01*
X-12001Y-15645D01*
X-11911Y-15678D01*
X-11898Y-15691D01*
X-11890Y-15707D01*
X-11853Y-15744D01*
X-11837Y-15752D01*
X-11816Y-15764D01*
X-11808Y-15781D01*
X-11779Y-15818D01*
X-11705Y-15859D01*
X-11681Y-15883D01*
X-11624Y-15900D01*
X-11582Y-15924D01*
X-11558Y-15965D01*
X-11541Y-15974D01*
X-11496Y-16011D01*
X-11460Y-16056D01*
X-11406Y-16068D01*
X-11377Y-16080D01*
X-11337Y-16121D01*
X-11267Y-16158D01*
X-11259Y-16174D01*
X-11230Y-16211D01*
X-11189Y-16228D01*
X-11172Y-16236D01*
X-11127Y-16273D01*
X-11090Y-16285D01*
X-11049Y-16302D01*
X-11021Y-16330D01*
X-11012Y-16347D01*
X-10984Y-16375D01*
X-10926Y-16408D01*
X-10902Y-16433D01*
X-10836Y-16449D01*
X-10795Y-16474D01*
X-10762Y-16523D01*
X-10721Y-16540D01*
X-10680Y-16564D01*
X-10656Y-16589D01*
X-10594Y-16609D01*
X-10590Y-16613D01*
X-10565Y-16622D01*
X-10553Y-16634D01*
X-10528Y-16675D01*
X-10516Y-16687D01*
X-10459Y-16695D01*
X-10418Y-16720D01*
X-10385Y-16753D01*
X-10315Y-16790D01*
X-10307Y-16806D01*
X-10287Y-16835D01*
X-10254Y-16843D01*
X-10180Y-16851D01*
X-10168Y-16863D01*
X-10159Y-16880D01*
X-10123Y-16925D01*
X-10069Y-16937D01*
X-10041Y-16950D01*
X-10000Y-16991D01*
X-9967Y-16999D01*
X-9926Y-17023D01*
X-9905Y-17044D01*
X-9897Y-17060D01*
X-9885Y-17073D01*
X-9852Y-17081D01*
X-9786Y-17089D01*
X-9766Y-17110D01*
X-9758Y-17126D01*
X-9737Y-17155D01*
X-9704Y-17163D01*
X-9630Y-17171D01*
X-9618Y-17183D01*
X-9610Y-17200D01*
X-9589Y-17229D01*
X-9548Y-17245D01*
X-9503Y-17257D01*
X-9475Y-17278D01*
X-9450Y-17302D01*
X-9368Y-17335D01*
X-9347Y-17347D01*
X-9339Y-17364D01*
X-9327Y-17376D01*
X-9269Y-17393D01*
X-9216Y-17413D01*
X-9200Y-17429D01*
X-9192Y-17446D01*
X-9171Y-17466D01*
X-9114Y-17475D01*
X-9073Y-17483D01*
X-9044Y-17512D01*
X-9036Y-17528D01*
X-9015Y-17548D01*
X-8970Y-17552D01*
X-8958Y-17548D01*
X-8933Y-17557D01*
X-8905Y-17569D01*
X-8896Y-17585D01*
X-8859Y-17630D01*
X-8761Y-17639D01*
X-8732Y-17667D01*
X-8724Y-17684D01*
X-8704Y-17704D01*
X-8671Y-17712D01*
X-8597Y-17721D01*
X-8576Y-17741D01*
X-8568Y-17758D01*
X-8540Y-17786D01*
X-8441Y-17795D01*
X-8404Y-17831D01*
X-8396Y-17848D01*
X-8343Y-17868D01*
X-8277Y-17876D01*
X-8232Y-17913D01*
X-8220Y-17926D01*
X-8179Y-17942D01*
X-8146Y-17950D01*
X-8080Y-17958D01*
X-8043Y-17987D01*
X-8035Y-18004D01*
X-8023Y-18016D01*
X-7990Y-18024D01*
X-7965Y-18032D01*
X-7941Y-18024D01*
X-7896Y-18036D01*
X-7879Y-18053D01*
X-7871Y-18069D01*
X-7851Y-18098D01*
X-7818Y-18106D01*
X-7728Y-18114D01*
X-7707Y-18135D01*
X-7699Y-18151D01*
X-7670Y-18180D01*
X-7564Y-18188D01*
X-7531Y-18196D01*
X-7486Y-18233D01*
X-7477Y-18250D01*
X-7440Y-18262D01*
X-7342Y-18270D01*
X-7322Y-18291D01*
X-7313Y-18307D01*
X-7301Y-18328D01*
X-7260Y-18344D01*
X-7137Y-18352D01*
X-7100Y-18381D01*
X-7092Y-18397D01*
X-7080Y-18410D01*
X-7047Y-18418D01*
X-6948Y-18426D01*
X-6928Y-18438D01*
X-6920Y-18455D01*
X-6883Y-18492D01*
X-6850Y-18500D01*
X-6711Y-18508D01*
X-6698Y-18520D01*
X-6674Y-18561D01*
X-6661Y-18574D01*
X-6628Y-18582D01*
X-6526Y-18578D01*
X-6493Y-18586D01*
X-6460Y-18611D01*
X-6452Y-18627D01*
X-6440Y-18647D01*
X-6374Y-18664D01*
X-6341Y-18656D01*
X-6259Y-18664D01*
X-6222Y-18701D01*
X-6214Y-18717D01*
X-6202Y-18730D01*
X-6169Y-18738D01*
X-6013Y-18746D01*
X-5993Y-18766D01*
X-5985Y-18783D01*
X-5956Y-18812D01*
X-5898Y-18820D01*
X-5792Y-18812D01*
X-5755Y-18832D01*
X-5747Y-18848D01*
X-5718Y-18885D01*
X-5685Y-18893D01*
X-5513Y-18902D01*
X-5464Y-18951D01*
X-5447Y-18959D01*
X-5423Y-18967D01*
X-5365Y-18976D01*
X-5263Y-18971D01*
X-5230Y-18980D01*
X-5201Y-19000D01*
X-5181Y-19029D01*
X-5160Y-19049D01*
X-4922Y-19058D01*
X-4857Y-19123D01*
X-4824Y-19131D01*
X-4611Y-19140D01*
X-4574Y-19168D01*
X-4566Y-19185D01*
X-4553Y-19197D01*
X-4488Y-19213D01*
X-4406Y-19205D01*
X-4381Y-19213D01*
X-4357Y-19205D01*
X-4275Y-19213D01*
X-4246Y-19234D01*
X-4237Y-19250D01*
X-4209Y-19279D01*
X-4151Y-19287D01*
X-3889Y-19295D01*
X-3860Y-19316D01*
X-3852Y-19332D01*
X-3831Y-19353D01*
X-3766Y-19369D01*
X-3524Y-19365D01*
X-3475Y-19373D01*
X-3446Y-19394D01*
X-3413Y-19427D01*
X-3356Y-19443D01*
X-2995Y-19451D01*
X-2913Y-19509D01*
X-2880Y-19517D01*
X-2823Y-19525D01*
X-2404Y-19533D01*
X-2359Y-19570D01*
X-2322Y-19591D01*
X-2290Y-19599D01*
X-1650Y-19607D01*
X-1592Y-19640D01*
X-1576Y-19681D01*
X1586Y-19677D01*
X1594Y-19636D01*
X1639Y-19615D01*
X1672Y-19607D01*
X1877Y-19599D01*
X2336Y-19591D01*
X2382Y-19554D01*
X2427Y-19533D01*
X2459Y-19525D01*
X2919Y-19517D01*
X2964Y-19480D01*
X2976Y-19468D01*
X2993Y-19459D01*
X3034Y-19443D01*
X3411Y-19435D01*
X3427Y-19419D01*
X3444Y-19410D01*
X3460Y-19386D01*
X3501Y-19369D01*
X3559Y-19361D01*
X3583Y-19369D01*
X3821Y-19361D01*
X3858Y-19332D01*
X3866Y-19316D01*
X3887Y-19295D01*
X3944Y-19287D01*
X4206Y-19279D01*
X4235Y-19259D01*
X4243Y-19242D01*
X4264Y-19222D01*
X4321Y-19205D01*
X4408Y-19209D01*
X4453Y-19205D01*
X4477Y-19213D01*
X4543Y-19205D01*
X4608Y-19140D01*
X4641Y-19131D01*
X4863Y-19123D01*
X4900Y-19086D01*
X4908Y-19070D01*
X4961Y-19049D01*
X5174Y-19041D01*
X5195Y-19021D01*
X5203Y-19004D01*
X5232Y-18976D01*
X5297Y-18967D01*
X5322Y-18976D01*
X5437Y-18967D01*
X5494Y-18926D01*
X5519Y-18902D01*
X5576Y-18893D01*
X5724Y-18885D01*
X5744Y-18865D01*
X5765Y-18828D01*
X5806Y-18812D01*
X5937Y-18820D01*
X5978Y-18795D01*
X5991Y-18783D01*
X5999Y-18766D01*
X6019Y-18746D01*
X6052Y-18738D01*
X6200Y-18730D01*
X6228Y-18709D01*
X6236Y-18693D01*
X6265Y-18664D01*
X6323Y-18656D01*
X6401Y-18660D01*
X6433Y-18652D01*
X6458Y-18635D01*
X6466Y-18619D01*
X6487Y-18590D01*
X6520Y-18582D01*
X6560Y-18574D01*
X6585Y-18582D01*
X6667Y-18574D01*
X6688Y-18553D01*
X6696Y-18537D01*
X6716Y-18508D01*
X6749Y-18500D01*
X6897Y-18492D01*
X6917Y-18471D01*
X6926Y-18455D01*
X6954Y-18426D01*
X6987Y-18418D01*
X7085Y-18410D01*
X7106Y-18389D01*
X7114Y-18373D01*
X7151Y-18352D01*
X7184Y-18344D01*
X7299Y-18336D01*
X7311Y-18324D01*
X7319Y-18307D01*
X7348Y-18270D01*
X7381Y-18262D01*
X7479Y-18254D01*
X7528Y-18205D01*
X7569Y-18188D01*
X7676Y-18180D01*
X7705Y-18159D01*
X7713Y-18143D01*
X7733Y-18114D01*
X7766Y-18106D01*
X7857Y-18098D01*
X7869Y-18086D01*
X7877Y-18069D01*
X7906Y-18032D01*
X7963Y-18024D01*
X7980Y-18032D01*
X8029Y-18016D01*
X8086Y-17958D01*
X8205Y-17938D01*
X8246Y-17913D01*
X8254Y-17897D01*
X8267Y-17885D01*
X8308Y-17868D01*
X8390Y-17860D01*
X8427Y-17823D01*
X8435Y-17807D01*
X8488Y-17786D01*
X8562Y-17778D01*
X8574Y-17766D01*
X8599Y-17725D01*
X8636Y-17712D01*
X8718Y-17704D01*
X8730Y-17692D01*
X8755Y-17651D01*
X8767Y-17639D01*
X8800Y-17630D01*
X8873Y-17622D01*
X8894Y-17602D01*
X8902Y-17585D01*
X8914Y-17565D01*
X8947Y-17557D01*
X9029Y-17548D01*
X9050Y-17528D01*
X9075Y-17487D01*
X9111Y-17475D01*
X9185Y-17466D01*
X9198Y-17454D01*
X9206Y-17438D01*
X9226Y-17409D01*
X9284Y-17393D01*
X9325Y-17384D01*
X9345Y-17372D01*
X9353Y-17356D01*
X9374Y-17335D01*
X9415Y-17319D01*
X9472Y-17286D01*
X9497Y-17261D01*
X9554Y-17245D01*
X9612Y-17212D01*
X9632Y-17183D01*
X9645Y-17171D01*
X9677Y-17163D01*
X9743Y-17155D01*
X9764Y-17134D01*
X9788Y-17093D01*
X9825Y-17081D01*
X9899Y-17073D01*
X9911Y-17060D01*
X9936Y-17019D01*
X10018Y-16978D01*
X10046Y-16950D01*
X10087Y-16933D01*
X10132Y-16921D01*
X10157Y-16896D01*
X10165Y-16880D01*
X10186Y-16851D01*
X10243Y-16843D01*
X10293Y-16835D01*
X10305Y-16823D01*
X10313Y-16806D01*
X10350Y-16769D01*
X10403Y-16749D01*
X10440Y-16712D01*
X10498Y-16695D01*
X10538Y-16671D01*
X10551Y-16658D01*
X10559Y-16642D01*
X10571Y-16622D01*
X10612Y-16605D01*
X10657Y-16593D01*
X10694Y-16556D01*
X10780Y-16511D01*
X10789Y-16494D01*
X10817Y-16457D01*
X10850Y-16449D01*
X10908Y-16441D01*
X10936Y-16412D01*
X10940Y-16400D01*
X10957Y-16392D01*
X11014Y-16351D01*
X11027Y-16339D01*
X11035Y-16322D01*
X11063Y-16294D01*
X11129Y-16285D01*
X11166Y-16257D01*
X11170Y-16244D01*
X11186Y-16236D01*
X11244Y-16203D01*
X11256Y-16191D01*
X11264Y-16174D01*
X11285Y-16146D01*
X11375Y-16097D01*
X11392Y-16080D01*
X11433Y-16064D01*
X11465Y-16056D01*
X11494Y-16027D01*
X11502Y-16011D01*
X11531Y-15982D01*
X11547Y-15974D01*
X11576Y-15953D01*
X11584Y-15937D01*
X11613Y-15908D01*
X11646Y-15900D01*
X11691Y-15888D01*
X11744Y-15834D01*
X11802Y-15801D01*
X11822Y-15773D01*
X11851Y-15744D01*
X11867Y-15736D01*
X11888Y-15723D01*
X11896Y-15707D01*
X11933Y-15670D01*
X11966Y-15662D01*
X12023Y-15629D01*
X12048Y-15605D01*
X12105Y-15572D01*
X12126Y-15551D01*
X12134Y-15535D01*
X12154Y-15514D01*
X12171Y-15506D01*
X12200Y-15486D01*
X12208Y-15469D01*
X12228Y-15440D01*
X12245Y-15432D01*
X12302Y-15399D01*
X12318Y-15375D01*
X12335Y-15367D01*
X12376Y-15350D01*
X12417Y-15326D01*
X12466Y-15276D01*
X12507Y-15252D01*
X12519Y-15239D01*
X12528Y-15223D01*
X12556Y-15194D01*
X12573Y-15186D01*
X12601Y-15157D01*
X12610Y-15141D01*
X12638Y-15112D01*
X12655Y-15104D01*
X12675Y-15092D01*
X12683Y-15076D01*
X12720Y-15039D01*
X12778Y-15006D01*
X12790Y-14993D01*
X12794Y-14981D01*
X12810Y-14973D01*
X12884Y-14932D01*
X12934Y-14883D01*
X12975Y-14858D01*
X12987Y-14846D01*
X12995Y-14829D01*
X13016Y-14809D01*
X13032Y-14801D01*
X13061Y-14780D01*
X13069Y-14764D01*
X13085Y-14747D01*
X13089Y-14735D01*
X13106Y-14727D01*
X13122Y-14710D01*
X13139Y-14702D01*
X13159Y-14674D01*
X13196Y-14637D01*
X13212Y-14628D01*
X13225Y-14616D01*
X13233Y-14600D01*
X13278Y-14555D01*
X13295Y-14546D01*
X13307Y-14534D01*
X13315Y-14518D01*
X13352Y-14481D01*
X13368Y-14473D01*
X13442Y-14399D01*
X13458Y-14391D01*
X13487Y-14362D01*
X13495Y-14345D01*
X13545Y-14313D01*
X13569Y-14288D01*
X13573Y-14276D01*
X13590Y-14268D01*
X13614Y-14243D01*
X13631Y-14235D01*
X13696Y-14169D01*
X13713Y-14161D01*
X13803Y-14071D01*
X13819Y-14062D01*
X13856Y-14026D01*
X13860Y-14013D01*
X13877Y-14005D01*
X13938Y-13944D01*
X13942Y-13931D01*
X13959Y-13923D01*
X14004Y-13878D01*
X14012Y-13861D01*
X14176Y-13698D01*
X14184Y-13681D01*
X14250Y-13615D01*
X14258Y-13599D01*
X14332Y-13525D01*
X14340Y-13509D01*
X14414Y-13435D01*
X14422Y-13419D01*
X14496Y-13345D01*
X14504Y-13328D01*
X14525Y-13308D01*
X14541Y-13300D01*
X14562Y-13279D01*
X14570Y-13263D01*
X14615Y-13218D01*
X14631Y-13209D01*
X14644Y-13197D01*
X14652Y-13181D01*
X14689Y-13144D01*
X14705Y-13136D01*
X14717Y-13123D01*
X14726Y-13107D01*
X14742Y-13091D01*
X14746Y-13078D01*
X14763Y-13070D01*
X14779Y-13054D01*
X14791Y-13049D01*
X14799Y-13033D01*
X14836Y-12988D01*
X14853Y-12980D01*
X14882Y-12951D01*
X14890Y-12935D01*
X14927Y-12890D01*
X14943Y-12881D01*
X14980Y-12820D01*
X14988Y-12803D01*
X15021Y-12771D01*
X15029Y-12754D01*
X15062Y-12697D01*
X15082Y-12676D01*
X15099Y-12668D01*
X15111Y-12656D01*
X15136Y-12615D01*
X15156Y-12594D01*
X15173Y-12586D01*
X15201Y-12557D01*
X15210Y-12541D01*
X15238Y-12512D01*
X15255Y-12504D01*
X15275Y-12484D01*
X15283Y-12467D01*
X15320Y-12422D01*
X15337Y-12414D01*
X15349Y-12402D01*
X15357Y-12369D01*
X15390Y-12311D01*
X15415Y-12287D01*
X15423Y-12270D01*
X15452Y-12217D01*
X15468Y-12209D01*
X15484Y-12192D01*
X15501Y-12184D01*
X15534Y-12135D01*
X15579Y-12098D01*
X15595Y-12082D01*
X15620Y-12041D01*
X15661Y-12000D01*
X15669Y-11967D01*
X15689Y-11913D01*
X15735Y-11877D01*
X15776Y-11819D01*
X15788Y-11807D01*
X15804Y-11799D01*
X15825Y-11778D01*
X15858Y-11721D01*
X15886Y-11700D01*
X15899Y-11688D01*
X15919Y-11602D01*
X15935Y-11586D01*
X15952Y-11577D01*
X15981Y-11549D01*
X16005Y-11508D01*
X16017Y-11495D01*
X16034Y-11487D01*
X16063Y-11458D01*
X16079Y-11417D01*
X16087Y-11401D01*
X16120Y-11368D01*
X16137Y-11327D01*
X16145Y-11294D01*
X16165Y-11266D01*
X16182Y-11257D01*
X16218Y-11229D01*
X16251Y-11171D01*
X16280Y-11151D01*
X16292Y-11139D01*
X16300Y-11081D01*
X16309Y-11048D01*
X16329Y-11028D01*
X16346Y-11020D01*
X16383Y-10983D01*
X16407Y-10942D01*
X16428Y-10921D01*
X16444Y-10913D01*
X16456Y-10876D01*
X16465Y-10819D01*
X16501Y-10782D01*
X16518Y-10774D01*
X16530Y-10761D01*
X16563Y-10704D01*
X16583Y-10683D01*
X16600Y-10675D01*
X16612Y-10630D01*
X16620Y-10581D01*
X16657Y-10544D01*
X16674Y-10536D01*
X16694Y-10515D01*
X16715Y-10462D01*
X16760Y-10400D01*
X16768Y-10368D01*
X16793Y-10326D01*
X16813Y-10306D01*
X16830Y-10298D01*
X16850Y-10277D01*
X16858Y-10220D01*
X16867Y-10179D01*
X16879Y-10166D01*
X16895Y-10158D01*
X16932Y-10121D01*
X16940Y-10089D01*
X16977Y-10044D01*
X16989Y-10039D01*
X17006Y-9982D01*
X17014Y-9949D01*
X17035Y-9920D01*
X17076Y-9896D01*
X17088Y-9883D01*
X17096Y-9785D01*
X17108Y-9773D01*
X17125Y-9765D01*
X17162Y-9736D01*
X17178Y-9670D01*
X17186Y-9646D01*
X17236Y-9596D01*
X17260Y-9531D01*
X17281Y-9502D01*
X17297Y-9494D01*
X17318Y-9449D01*
X17326Y-9400D01*
X17355Y-9363D01*
X17371Y-9354D01*
X17400Y-9326D01*
X17408Y-9236D01*
X17436Y-9207D01*
X17473Y-9186D01*
X17482Y-9154D01*
X17490Y-9071D01*
X17502Y-9059D01*
X17543Y-9035D01*
X17564Y-9014D01*
X17572Y-8916D01*
X17592Y-8895D01*
X17633Y-8871D01*
X17642Y-8772D01*
X17662Y-8743D01*
X17707Y-8715D01*
X17719Y-8702D01*
X17728Y-8596D01*
X17793Y-8555D01*
X17801Y-8506D01*
X17793Y-8481D01*
X17810Y-8440D01*
X17830Y-8420D01*
X17867Y-8399D01*
X17875Y-8366D01*
X17884Y-8284D01*
X17912Y-8255D01*
X17929Y-8247D01*
X17949Y-8227D01*
X17961Y-8124D01*
X17990Y-8079D01*
X18007Y-8071D01*
X18015Y-8055D01*
X18031Y-8014D01*
X18044Y-7919D01*
X18064Y-7890D01*
X18076Y-7878D01*
X18093Y-7870D01*
X18105Y-7858D01*
X18113Y-7825D01*
X18121Y-7735D01*
X18142Y-7714D01*
X18183Y-7689D01*
X18195Y-7644D01*
X18203Y-7562D01*
X18253Y-7513D01*
X18269Y-7472D01*
X18277Y-7349D01*
X18298Y-7329D01*
X18314Y-7320D01*
X18343Y-7300D01*
X18351Y-7267D01*
X18359Y-7169D01*
X18417Y-7111D01*
X18425Y-7078D01*
X18433Y-6955D01*
X18445Y-6935D01*
X18486Y-6910D01*
X18499Y-6898D01*
X18507Y-6865D01*
X18515Y-6734D01*
X18536Y-6705D01*
X18552Y-6697D01*
X18581Y-6668D01*
X18589Y-6611D01*
X18597Y-6529D01*
X18634Y-6484D01*
X18646Y-6471D01*
X18663Y-6431D01*
X18671Y-6307D01*
X18708Y-6262D01*
X18728Y-6242D01*
X18745Y-6176D01*
X18753Y-6053D01*
X18769Y-6037D01*
X18778Y-6020D01*
X18810Y-5988D01*
X18819Y-5955D01*
X18823Y-5885D01*
X18819Y-5840D01*
X18827Y-5815D01*
X18835Y-5782D01*
X18856Y-5762D01*
X18872Y-5754D01*
X18892Y-5733D01*
X18901Y-5676D01*
X18909Y-5528D01*
X18921Y-5516D01*
X18937Y-5508D01*
X18966Y-5487D01*
X18983Y-5430D01*
X18974Y-5323D01*
X18983Y-5299D01*
X18991Y-5249D01*
X19040Y-5200D01*
X19056Y-5159D01*
X19060Y-5106D01*
X19056Y-4987D01*
X19093Y-4942D01*
X19122Y-4913D01*
X19139Y-4847D01*
X19134Y-4704D01*
X19142Y-4663D01*
X19163Y-4634D01*
X19196Y-4601D01*
X19212Y-4560D01*
X19216Y-4458D01*
X19212Y-4347D01*
X19220Y-4323D01*
X19229Y-4290D01*
X19286Y-4232D01*
X19294Y-4175D01*
X19302Y-3937D01*
X19343Y-3896D01*
X19352Y-3880D01*
X19368Y-3839D01*
X19376Y-3757D01*
X19372Y-3613D01*
X19380Y-3523D01*
X19409Y-3478D01*
X19442Y-3445D01*
X19450Y-3412D01*
X19458Y-3051D01*
X19499Y-2994D01*
X19516Y-2977D01*
X19532Y-2912D01*
X19540Y-2477D01*
X19577Y-2432D01*
X19590Y-2420D01*
X19606Y-2362D01*
X19614Y-1747D01*
X19639Y-1706D01*
X19659Y-1685D01*
X19688Y-1681D01*
X19684Y1694D01*
X19651Y1702D01*
X19631Y1722D01*
X19614Y1763D01*
X19606Y1919D01*
X19598Y2411D01*
X19581Y2428D01*
X19573Y2444D01*
X19549Y2469D01*
X19532Y2526D01*
X19524Y2969D01*
X19483Y3027D01*
X19466Y3043D01*
X19450Y3109D01*
X19442Y3453D01*
X19425Y3469D01*
X19417Y3486D01*
X19385Y3519D01*
X19376Y3576D01*
X19368Y3642D01*
X19376Y3666D01*
X19368Y3863D01*
X19327Y3921D01*
X19302Y3945D01*
X19294Y4003D01*
X19286Y4241D01*
X19237Y4290D01*
X19220Y4331D01*
X19212Y4413D01*
X19216Y4499D01*
X19208Y4581D01*
X19180Y4626D01*
X19147Y4659D01*
X19139Y4692D01*
X19130Y4905D01*
X19093Y4950D01*
X19065Y4979D01*
X19056Y5012D01*
X19048Y5200D01*
X18999Y5249D01*
X18983Y5290D01*
X18974Y5389D01*
X18983Y5413D01*
X18974Y5479D01*
X18954Y5508D01*
X18913Y5532D01*
X18901Y5569D01*
X18892Y5742D01*
X18835Y5799D01*
X18819Y5864D01*
X18810Y5996D01*
X18773Y6041D01*
X18753Y6061D01*
X18745Y6094D01*
X18736Y6225D01*
X18679Y6299D01*
X18663Y6340D01*
X18654Y6463D01*
X18618Y6508D01*
X18605Y6521D01*
X18597Y6537D01*
X18589Y6562D01*
X18581Y6677D01*
X18560Y6705D01*
X18544Y6713D01*
X18515Y6742D01*
X18507Y6799D01*
X18499Y6906D01*
X18478Y6927D01*
X18462Y6935D01*
X18433Y6955D01*
X18425Y7013D01*
X18417Y7119D01*
X18359Y7177D01*
X18351Y7210D01*
X18343Y7308D01*
X18330Y7320D01*
X18314Y7329D01*
X18277Y7357D01*
X18269Y7415D01*
X18261Y7505D01*
X18224Y7550D01*
X18195Y7579D01*
X18187Y7694D01*
X18167Y7714D01*
X18125Y7739D01*
X18113Y7751D01*
X18105Y7866D01*
X18076Y7895D01*
X18060Y7903D01*
X18048Y7915D01*
X18039Y7948D01*
X18027Y8034D01*
X18011Y8075D01*
X17966Y8120D01*
X17957Y8153D01*
X17949Y8235D01*
X17920Y8264D01*
X17904Y8272D01*
X17884Y8292D01*
X17875Y8325D01*
X17867Y8407D01*
X17855Y8420D01*
X17814Y8444D01*
X17801Y8456D01*
X17793Y8506D01*
X17801Y8530D01*
X17785Y8571D01*
X17728Y8604D01*
X17719Y8637D01*
X17711Y8719D01*
X17691Y8739D01*
X17674Y8748D01*
X17646Y8768D01*
X17638Y8826D01*
X17642Y8846D01*
X17633Y8879D01*
X17617Y8895D01*
X17576Y8920D01*
X17564Y8932D01*
X17555Y9031D01*
X17527Y9059D01*
X17490Y9080D01*
X17482Y9112D01*
X17473Y9194D01*
X17461Y9207D01*
X17420Y9232D01*
X17408Y9244D01*
X17400Y9277D01*
X17391Y9350D01*
X17379Y9363D01*
X17338Y9387D01*
X17326Y9424D01*
X17309Y9490D01*
X17260Y9539D01*
X17244Y9580D01*
X17219Y9621D01*
X17186Y9654D01*
X17170Y9719D01*
X17145Y9760D01*
X17096Y9793D01*
X17088Y9826D01*
X17080Y9900D01*
X17059Y9920D01*
X17018Y9945D01*
X17006Y9990D01*
X16998Y10039D01*
X16940Y10097D01*
X16924Y10138D01*
X16903Y10166D01*
X16887Y10175D01*
X16858Y10203D01*
X16850Y10285D01*
X16821Y10314D01*
X16805Y10322D01*
X16776Y10351D01*
X16768Y10384D01*
X16752Y10425D01*
X16719Y10458D01*
X16702Y10499D01*
X16678Y10540D01*
X16666Y10552D01*
X16649Y10560D01*
X16620Y10589D01*
X16612Y10622D01*
X16604Y10679D01*
X16575Y10708D01*
X16559Y10716D01*
X16514Y10786D01*
X16485Y10806D01*
X16465Y10827D01*
X16456Y10860D01*
X16448Y10917D01*
X16428Y10938D01*
X16411Y10946D01*
X16391Y10966D01*
X16362Y11020D01*
X16346Y11028D01*
X16309Y11056D01*
X16300Y11089D01*
X16292Y11147D01*
X16255Y11184D01*
X16243Y11188D01*
X16235Y11204D01*
X16198Y11257D01*
X16182Y11266D01*
X16153Y11286D01*
X16137Y11344D01*
X16120Y11384D01*
X16079Y11426D01*
X16046Y11483D01*
X16026Y11503D01*
X16009Y11512D01*
X15989Y11532D01*
X15964Y11573D01*
X15915Y11622D01*
X15907Y11680D01*
X15886Y11717D01*
X15870Y11725D01*
X15841Y11754D01*
X15833Y11770D01*
X15804Y11807D01*
X15788Y11815D01*
X15751Y11852D01*
X15726Y11893D01*
X15685Y11934D01*
X15677Y11967D01*
X15657Y12020D01*
X15632Y12045D01*
X15616Y12053D01*
X15583Y12102D01*
X15550Y12135D01*
X15534Y12143D01*
X15521Y12156D01*
X15513Y12172D01*
X15484Y12209D01*
X15468Y12217D01*
X15439Y12246D01*
X15423Y12287D01*
X15415Y12303D01*
X15382Y12336D01*
X15374Y12352D01*
X15333Y12426D01*
X15320Y12438D01*
X15304Y12447D01*
X15292Y12459D01*
X15283Y12475D01*
X15247Y12520D01*
X15230Y12529D01*
X15201Y12557D01*
X15193Y12574D01*
X15165Y12603D01*
X15148Y12611D01*
X15119Y12639D01*
X15095Y12680D01*
X15046Y12730D01*
X15005Y12803D01*
X14972Y12836D01*
X14939Y12894D01*
X14919Y12914D01*
X14906Y12918D01*
X14898Y12935D01*
X14882Y12951D01*
X14873Y12968D01*
X14845Y12996D01*
X14828Y13004D01*
X14816Y13017D01*
X14808Y13033D01*
X14787Y13062D01*
X14771Y13070D01*
X14717Y13123D01*
X14709Y13140D01*
X14681Y13160D01*
X14644Y13197D01*
X14636Y13214D01*
X14623Y13226D01*
X14607Y13234D01*
X14570Y13271D01*
X14562Y13287D01*
X14525Y13324D01*
X14508Y13332D01*
X14476Y13382D01*
X14459Y13398D01*
X14443Y13406D01*
X14422Y13427D01*
X14414Y13443D01*
X14377Y13488D01*
X14361Y13497D01*
X14340Y13525D01*
X14303Y13570D01*
X14250Y13624D01*
X14242Y13640D01*
X14176Y13706D01*
X14168Y13722D01*
X14094Y13796D01*
X14086Y13812D01*
X14004Y13894D01*
X13996Y13911D01*
X13983Y13923D01*
X13967Y13931D01*
X13877Y14021D01*
X13860Y14030D01*
X13840Y14058D01*
X13811Y14087D01*
X13795Y14095D01*
X13721Y14169D01*
X13705Y14177D01*
X13623Y14259D01*
X13606Y14267D01*
X13541Y14333D01*
X13524Y14341D01*
X13458Y14407D01*
X13442Y14415D01*
X13397Y14452D01*
X13389Y14469D01*
X13376Y14481D01*
X13360Y14489D01*
X13315Y14526D01*
X13307Y14542D01*
X13278Y14571D01*
X13262Y14579D01*
X13225Y14616D01*
X13216Y14633D01*
X13204Y14645D01*
X13188Y14653D01*
X13143Y14698D01*
X13135Y14715D01*
X13085Y14756D01*
X13061Y14780D01*
X13052Y14797D01*
X13003Y14829D01*
X12966Y14875D01*
X12913Y14911D01*
X12905Y14928D01*
X12876Y14956D01*
X12802Y14998D01*
X12769Y15030D01*
X12696Y15071D01*
X12663Y15112D01*
X12622Y15137D01*
X12601Y15157D01*
X12593Y15174D01*
X12564Y15203D01*
X12548Y15211D01*
X12519Y15239D01*
X12511Y15256D01*
X12491Y15276D01*
X12474Y15285D01*
X12437Y15313D01*
X12429Y15330D01*
X12409Y15350D01*
X12355Y15371D01*
X12327Y15391D01*
X12302Y15416D01*
X12228Y15457D01*
X12200Y15486D01*
X12191Y15502D01*
X12142Y15535D01*
X12105Y15580D01*
X12089Y15596D01*
X12048Y15621D01*
X12007Y15662D01*
X11974Y15670D01*
X11921Y15691D01*
X11884Y15736D01*
X11826Y15777D01*
X11806Y15797D01*
X11798Y15814D01*
X11785Y15826D01*
X11744Y15851D01*
X11695Y15900D01*
X11609Y15920D01*
X11584Y15945D01*
X11576Y15961D01*
X11556Y15982D01*
X11515Y16006D01*
X11494Y16027D01*
X11486Y16043D01*
X11465Y16064D01*
X11412Y16084D01*
X11392Y16105D01*
X11375Y16113D01*
X11359Y16129D01*
X11326Y16138D01*
X11273Y16166D01*
X11264Y16183D01*
X11236Y16220D01*
X11178Y16252D01*
X11137Y16294D01*
X11072Y16302D01*
X11027Y16339D01*
X11018Y16355D01*
X10990Y16384D01*
X10949Y16408D01*
X10908Y16449D01*
X10875Y16457D01*
X10817Y16466D01*
X10797Y16486D01*
X10772Y16527D01*
X10699Y16568D01*
X10690Y16585D01*
X10678Y16597D01*
X10621Y16613D01*
X10588Y16622D01*
X10567Y16634D01*
X10559Y16650D01*
X10522Y16695D01*
X10489Y16704D01*
X10436Y16724D01*
X10399Y16761D01*
X10346Y16781D01*
X10313Y16814D01*
X10305Y16831D01*
X10284Y16851D01*
X10194Y16859D01*
X10174Y16872D01*
X10149Y16913D01*
X10128Y16933D01*
X10083Y16946D01*
X10055Y16966D01*
X10038Y16983D01*
X10022Y16991D01*
X9981Y17007D01*
X9928Y17036D01*
X9919Y17052D01*
X9899Y17081D01*
X9866Y17089D01*
X9792Y17097D01*
X9772Y17118D01*
X9747Y17159D01*
X9710Y17171D01*
X9645Y17179D01*
X9616Y17208D01*
X9608Y17224D01*
X9595Y17237D01*
X9554Y17253D01*
X9501Y17274D01*
X9464Y17311D01*
X9386Y17339D01*
X9333Y17392D01*
X9300Y17401D01*
X9243Y17409D01*
X9214Y17438D01*
X9206Y17454D01*
X9177Y17483D01*
X9079Y17491D01*
X9058Y17512D01*
X9033Y17552D01*
X8997Y17565D01*
X8914Y17573D01*
X8882Y17622D01*
X8865Y17639D01*
X8767Y17647D01*
X8746Y17667D01*
X8722Y17708D01*
X8685Y17721D01*
X8603Y17729D01*
X8591Y17741D01*
X8582Y17758D01*
X8554Y17795D01*
X8455Y17803D01*
X8435Y17815D01*
X8427Y17831D01*
X8398Y17868D01*
X8365Y17876D01*
X8283Y17885D01*
X8254Y17913D01*
X8246Y17930D01*
X8234Y17942D01*
X8201Y17950D01*
X8144Y17958D01*
X8094Y17967D01*
X8049Y18004D01*
X8021Y18032D01*
X7914Y18041D01*
X7885Y18061D01*
X7861Y18102D01*
X7848Y18114D01*
X7733Y18123D01*
X7701Y18172D01*
X7684Y18188D01*
X7602Y18196D01*
X7553Y18205D01*
X7508Y18241D01*
X7487Y18262D01*
X7455Y18270D01*
X7348Y18278D01*
X7327Y18299D01*
X7303Y18340D01*
X7266Y18352D01*
X7159Y18360D01*
X7114Y18397D01*
X7094Y18418D01*
X7061Y18426D01*
X6954Y18434D01*
X6926Y18463D01*
X6917Y18479D01*
X6897Y18500D01*
X6864Y18508D01*
X6725Y18516D01*
X6696Y18545D01*
X6688Y18561D01*
X6667Y18582D01*
X6634Y18590D01*
X6556Y18586D01*
X6507Y18594D01*
X6479Y18615D01*
X6458Y18643D01*
X6446Y18656D01*
X6413Y18664D01*
X6282Y18672D01*
X6236Y18709D01*
X6208Y18738D01*
X6175Y18746D01*
X6027Y18754D01*
X5962Y18820D01*
X5880Y18828D01*
X5855Y18820D01*
X5781Y18828D01*
X5753Y18857D01*
X5744Y18873D01*
X5724Y18893D01*
X5691Y18902D01*
X5527Y18910D01*
X5490Y18947D01*
X5486Y18959D01*
X5445Y18976D01*
X5363Y18984D01*
X5285Y18980D01*
X5244Y18988D01*
X5215Y19008D01*
X5195Y19029D01*
X5187Y19045D01*
X5150Y19058D01*
X4953Y19066D01*
X4908Y19094D01*
X4900Y19111D01*
X4863Y19131D01*
X4830Y19140D01*
X4625Y19148D01*
X4580Y19185D01*
X4559Y19205D01*
X4494Y19222D01*
X4412Y19213D01*
X4280Y19222D01*
X4243Y19259D01*
X4235Y19275D01*
X4190Y19295D01*
X3903Y19304D01*
X3846Y19361D01*
X3780Y19377D01*
X3530Y19373D01*
X3489Y19382D01*
X3477Y19394D01*
X3460Y19402D01*
X3440Y19431D01*
X3386Y19451D01*
X3017Y19459D01*
X2980Y19488D01*
X2976Y19500D01*
X2960Y19509D01*
X2919Y19525D01*
X2837Y19533D01*
X2427Y19542D01*
X2382Y19578D01*
X2345Y19599D01*
X2312Y19607D01*
X1664Y19615D01*
X1606Y19656D01*
X1598Y19689D01*
X-1596Y19685D01*
D02*
G37*
%LPC*%
G36*
X3928Y11955D02*
X4116Y11946D01*
X4157Y11930D01*
X4215Y11913D01*
X4248Y11905D01*
X4403Y11897D01*
X4764Y11889D01*
X4801Y11860D01*
X4809Y11844D01*
X4830Y11823D01*
X4863Y11815D01*
X5043Y11807D01*
X5084Y11766D01*
X5100Y11758D01*
X5158Y11733D01*
X5224Y11741D01*
X5248Y11733D01*
X5265Y11725D01*
X5277Y11713D01*
X5285Y11696D01*
X5306Y11667D01*
X5338Y11659D01*
X5420Y11651D01*
X5478Y11594D01*
X5511Y11586D01*
X5560Y11577D01*
X5589Y11557D01*
X5597Y11540D01*
X5626Y11503D01*
X5724Y11495D01*
X5736Y11483D01*
X5744Y11467D01*
X5773Y11430D01*
X5790Y11421D01*
X5835Y11384D01*
X5843Y11368D01*
X5863Y11348D01*
X5917Y11327D01*
X5945Y11307D01*
X5978Y11274D01*
X6048Y11237D01*
X6056Y11220D01*
X6085Y11192D01*
X6101Y11184D01*
X6138Y11155D01*
X6146Y11139D01*
X6175Y11101D01*
X6191Y11093D01*
X6220Y11065D01*
X6245Y11024D01*
X6265Y11003D01*
X6278Y10999D01*
X6286Y10983D01*
X6302Y10942D01*
X6310Y10909D01*
X6339Y10880D01*
X6356Y10872D01*
X6368Y10860D01*
X6401Y10802D01*
X6446Y10774D01*
X6458Y10761D01*
X6466Y10704D01*
X6474Y10671D01*
X6503Y10642D01*
X6520Y10634D01*
X6540Y10589D01*
X6552Y10544D01*
X6573Y10515D01*
X6606Y10482D01*
X6614Y10449D01*
X6622Y10351D01*
X6643Y10330D01*
X6659Y10322D01*
X6688Y10302D01*
X6696Y10269D01*
X6704Y10121D01*
X6716Y10101D01*
X6733Y10093D01*
X6770Y10056D01*
X6778Y9998D01*
X6774Y9929D01*
X6778Y9867D01*
X6770Y9851D01*
X6778Y9826D01*
X6786Y9752D01*
X6843Y9670D01*
X6852Y9613D01*
X6856Y9354D01*
X6848Y9322D01*
X6831Y9297D01*
X6798Y9289D01*
X5527Y9297D01*
X5482Y9342D01*
X5474Y9359D01*
X5441Y9432D01*
X5433Y9662D01*
X5437Y9781D01*
X5429Y9847D01*
X5400Y9892D01*
X5367Y9924D01*
X5359Y9957D01*
X5351Y10080D01*
X5302Y10130D01*
X5285Y10171D01*
X5273Y10224D01*
X5252Y10253D01*
X5220Y10285D01*
X5203Y10343D01*
X5178Y10384D01*
X5166Y10396D01*
X5150Y10404D01*
X5121Y10433D01*
X5113Y10449D01*
X5084Y10478D01*
X5068Y10486D01*
X5039Y10515D01*
X5031Y10531D01*
X5010Y10552D01*
X4994Y10560D01*
X4965Y10589D01*
X4957Y10605D01*
X4928Y10634D01*
X4871Y10667D01*
X4846Y10691D01*
X4805Y10708D01*
X4756Y10716D01*
X4719Y10745D01*
X4711Y10761D01*
X4690Y10782D01*
X4658Y10790D01*
X4518Y10798D01*
X4498Y10819D01*
X4490Y10835D01*
X4461Y10864D01*
X4428Y10872D01*
X3378Y10864D01*
X3333Y10827D01*
X3304Y10798D01*
X3247Y10790D01*
X3173Y10782D01*
X3144Y10753D01*
X3136Y10736D01*
X3116Y10716D01*
X3025Y10708D01*
X2997Y10679D01*
X2988Y10663D01*
X2960Y10634D01*
X2919Y10609D01*
X2870Y10560D01*
X2853Y10552D01*
X2808Y10515D01*
X2767Y10474D01*
X2759Y10458D01*
X2722Y10413D01*
X2685Y10376D01*
X2660Y10335D01*
X2648Y10322D01*
X2632Y10314D01*
X2603Y10285D01*
X2582Y10232D01*
X2562Y10203D01*
X2537Y10179D01*
X2521Y10113D01*
X2513Y10064D01*
X2476Y10019D01*
X2455Y9998D01*
X2439Y9941D01*
X2443Y9838D01*
X2435Y9806D01*
X2414Y9777D01*
X2402Y9765D01*
X2386Y9756D01*
X2365Y9711D01*
X2373Y8965D01*
X2390Y8948D01*
X2398Y8932D01*
X2439Y8891D01*
X2447Y8809D01*
X2439Y8727D01*
X2455Y8686D01*
X2484Y8657D01*
X2500Y8649D01*
X2513Y8637D01*
X2521Y8604D01*
X2529Y8481D01*
X2558Y8444D01*
X2574Y8436D01*
X2595Y8415D01*
X2603Y8382D01*
X2611Y8301D01*
X2623Y8288D01*
X2640Y8280D01*
X2669Y8259D01*
X2685Y8219D01*
X2693Y8161D01*
X2706Y8141D01*
X2722Y8132D01*
X2742Y8112D01*
X2784Y8038D01*
X2796Y8026D01*
X2812Y8017D01*
X2825Y8005D01*
X2833Y7972D01*
X2841Y7915D01*
X2861Y7886D01*
X2902Y7862D01*
X2947Y7792D01*
X2980Y7767D01*
X2997Y7702D01*
X3005Y7677D01*
X3070Y7611D01*
X3079Y7595D01*
X3116Y7558D01*
X3132Y7550D01*
X3144Y7538D01*
X3153Y7521D01*
X3190Y7468D01*
X3206Y7460D01*
X3218Y7447D01*
X3247Y7370D01*
X3263Y7345D01*
X3280Y7337D01*
X3292Y7324D01*
X3300Y7308D01*
X3337Y7255D01*
X3353Y7247D01*
X3390Y7210D01*
X3399Y7193D01*
X3419Y7173D01*
X3435Y7164D01*
X3472Y7128D01*
X3481Y7111D01*
X3501Y7091D01*
X3517Y7083D01*
X3546Y7054D01*
X3571Y7013D01*
X3620Y6964D01*
X3653Y6906D01*
X3694Y6865D01*
X3702Y6849D01*
X3739Y6804D01*
X3776Y6767D01*
X3784Y6750D01*
X3821Y6705D01*
X3837Y6697D01*
X3858Y6677D01*
X3866Y6660D01*
X3887Y6631D01*
X3903Y6623D01*
X3940Y6586D01*
X3948Y6570D01*
X3977Y6541D01*
X3993Y6533D01*
X4014Y6513D01*
X4022Y6496D01*
X4059Y6459D01*
X4075Y6451D01*
X4096Y6430D01*
X4104Y6414D01*
X4141Y6377D01*
X4157Y6369D01*
X4170Y6357D01*
X4178Y6340D01*
X4223Y6295D01*
X4239Y6287D01*
X4252Y6275D01*
X4260Y6258D01*
X4297Y6221D01*
X4313Y6213D01*
X4326Y6201D01*
X4334Y6184D01*
X4379Y6139D01*
X4395Y6131D01*
X4408Y6119D01*
X4416Y6102D01*
X4461Y6057D01*
X4477Y6049D01*
X4498Y6020D01*
X4535Y5983D01*
X4551Y5975D01*
X4563Y5963D01*
X4572Y5946D01*
X4617Y5901D01*
X4633Y5893D01*
X4645Y5881D01*
X4654Y5864D01*
X4690Y5828D01*
X4707Y5819D01*
X4719Y5807D01*
X4727Y5791D01*
X4772Y5746D01*
X4789Y5737D01*
X4801Y5725D01*
X4809Y5709D01*
X4854Y5664D01*
X4871Y5655D01*
X4891Y5627D01*
X4928Y5590D01*
X4945Y5582D01*
X4957Y5569D01*
X4965Y5553D01*
X5010Y5508D01*
X5027Y5500D01*
X5039Y5487D01*
X5047Y5471D01*
X5084Y5434D01*
X5100Y5426D01*
X5113Y5413D01*
X5121Y5397D01*
X5166Y5352D01*
X5183Y5344D01*
X5195Y5331D01*
X5203Y5315D01*
X5248Y5270D01*
X5265Y5262D01*
X5277Y5249D01*
X5285Y5233D01*
X5322Y5196D01*
X5338Y5188D01*
X5351Y5175D01*
X5359Y5159D01*
X5404Y5114D01*
X5420Y5106D01*
X5433Y5094D01*
X5441Y5077D01*
X5478Y5040D01*
X5494Y5032D01*
X5507Y5020D01*
X5515Y5003D01*
X5560Y4958D01*
X5576Y4950D01*
X5589Y4938D01*
X5597Y4921D01*
X5634Y4884D01*
X5650Y4876D01*
X5671Y4856D01*
X5679Y4839D01*
X5716Y4802D01*
X5732Y4794D01*
X5744Y4782D01*
X5753Y4765D01*
X5798Y4720D01*
X5814Y4712D01*
X5826Y4700D01*
X5835Y4683D01*
X5872Y4646D01*
X5888Y4638D01*
X5909Y4618D01*
X5917Y4601D01*
X5954Y4564D01*
X5970Y4556D01*
X5982Y4544D01*
X5991Y4528D01*
X6027Y4491D01*
X6044Y4482D01*
X6064Y4462D01*
X6072Y4445D01*
X6109Y4409D01*
X6126Y4400D01*
X6146Y4380D01*
X6154Y4363D01*
X6183Y4335D01*
X6200Y4327D01*
X6228Y4298D01*
X6236Y4281D01*
X6257Y4261D01*
X6273Y4253D01*
X6302Y4224D01*
X6310Y4208D01*
X6339Y4179D01*
X6356Y4171D01*
X6384Y4142D01*
X6392Y4126D01*
X6413Y4105D01*
X6429Y4097D01*
X6466Y4060D01*
X6474Y4044D01*
X6495Y4023D01*
X6511Y4015D01*
X6548Y3978D01*
X6556Y3962D01*
X6569Y3949D01*
X6585Y3941D01*
X6630Y3896D01*
X6639Y3880D01*
X6667Y3859D01*
X6712Y3814D01*
X6716Y3802D01*
X6733Y3793D01*
X6757Y3769D01*
X6770Y3765D01*
X6778Y3748D01*
X6831Y3695D01*
X6843Y3691D01*
X6852Y3675D01*
X6905Y3621D01*
X6921Y3613D01*
X6934Y3601D01*
X6942Y3584D01*
X6979Y3547D01*
X6995Y3539D01*
X7016Y3494D01*
X7007Y3338D01*
X7012Y2407D01*
X6995Y2375D01*
X6962Y2366D01*
X4559D01*
X1049Y2375D01*
X1028Y2395D01*
X1020Y2452D01*
X1028Y2477D01*
X1024Y3334D01*
X1032Y3367D01*
X1049Y3383D01*
X1082Y3392D01*
X5482Y3387D01*
X5511Y3408D01*
X5515Y3437D01*
X5494Y3465D01*
X5478Y3474D01*
X5433Y3511D01*
X5388Y3556D01*
X5371Y3564D01*
X5338Y3613D01*
X5293Y3650D01*
X5269Y3675D01*
X5260Y3691D01*
X5232Y3711D01*
X5195Y3748D01*
X5187Y3765D01*
X5174Y3777D01*
X5158Y3785D01*
X5129Y3806D01*
X5121Y3822D01*
X5100Y3851D01*
X5084Y3859D01*
X5068Y3875D01*
X5055Y3880D01*
X5047Y3896D01*
X5031Y3912D01*
X5023Y3929D01*
X4973Y3962D01*
X4965Y3978D01*
X4949Y3994D01*
X4945Y4007D01*
X4928Y4015D01*
X4912Y4031D01*
X4896Y4039D01*
X4854Y4089D01*
X4838Y4105D01*
X4822Y4113D01*
X4809Y4126D01*
X4801Y4142D01*
X4764Y4179D01*
X4748Y4187D01*
X4727Y4208D01*
X4719Y4224D01*
X4690Y4253D01*
X4674Y4261D01*
X4645Y4290D01*
X4637Y4306D01*
X4617Y4327D01*
X4600Y4335D01*
X4555Y4380D01*
X4547Y4396D01*
X4518Y4417D01*
X4436Y4499D01*
X4420Y4507D01*
X4408Y4519D01*
X4399Y4536D01*
X4371Y4564D01*
X4354Y4573D01*
X4326Y4601D01*
X4317Y4618D01*
X4297Y4638D01*
X4280Y4646D01*
X4235Y4692D01*
X4227Y4708D01*
X4198Y4729D01*
X4178Y4741D01*
X4170Y4757D01*
X4124Y4802D01*
X4108Y4811D01*
X4088Y4831D01*
X4079Y4847D01*
X4051Y4876D01*
X4034Y4884D01*
X3878Y5040D01*
X3862Y5048D01*
X3841Y5069D01*
X3833Y5085D01*
X3813Y5106D01*
X3796Y5114D01*
X3751Y5159D01*
X3747Y5171D01*
X3731Y5180D01*
X3440Y5471D01*
X3435Y5483D01*
X3419Y5491D01*
X3374Y5536D01*
X3366Y5553D01*
X3337Y5582D01*
X3321Y5590D01*
X3308Y5602D01*
X3300Y5618D01*
X3144Y5774D01*
X3136Y5791D01*
X3107Y5819D01*
X3091Y5828D01*
X3079Y5840D01*
X3070Y5856D01*
X2980Y5946D01*
X2972Y5963D01*
X2960Y5975D01*
X2943Y5983D01*
X2915Y6012D01*
X2906Y6028D01*
X2861Y6074D01*
X2849Y6078D01*
X2841Y6094D01*
X2825Y6111D01*
X2816Y6127D01*
X2767Y6168D01*
X2730Y6213D01*
X2685Y6250D01*
X2677Y6266D01*
X2632Y6312D01*
X2615Y6320D01*
X2595Y6348D01*
X2582Y6369D01*
X2566Y6377D01*
X2550Y6393D01*
X2537Y6398D01*
X2529Y6414D01*
X2513Y6430D01*
X2505Y6447D01*
X2476Y6467D01*
X2439Y6504D01*
X2431Y6521D01*
X2418Y6533D01*
X2402Y6541D01*
X2386Y6558D01*
X2373Y6562D01*
X2349Y6603D01*
X2291Y6660D01*
X2250Y6734D01*
X2226Y6758D01*
X2217Y6775D01*
X2185Y6832D01*
X2172Y6845D01*
X2156Y6853D01*
X2144Y6865D01*
X2135Y6882D01*
X2099Y6927D01*
X2053Y6964D01*
X2045Y6980D01*
X2008Y7017D01*
X1992Y7025D01*
X1971Y7046D01*
X1951Y7099D01*
X1906Y7144D01*
X1898Y7177D01*
X1881Y7218D01*
X1861Y7238D01*
X1844Y7247D01*
X1824Y7267D01*
X1816Y7283D01*
X1779Y7329D01*
X1762Y7337D01*
X1734Y7366D01*
X1713Y7419D01*
X1701Y7431D01*
X1693Y7447D01*
X1676Y7464D01*
X1660Y7505D01*
X1652Y7530D01*
X1639Y7550D01*
X1623Y7558D01*
X1578Y7595D01*
X1565Y7640D01*
X1524Y7689D01*
X1504Y7743D01*
X1483Y7788D01*
X1467Y7796D01*
X1422Y7833D01*
X1414Y7931D01*
X1393Y7952D01*
X1352Y7976D01*
X1340Y7989D01*
X1332Y8095D01*
X1319Y8108D01*
X1278Y8132D01*
X1266Y8145D01*
X1258Y8219D01*
X1266Y8243D01*
X1258Y8268D01*
X1225Y8325D01*
X1192Y8358D01*
X1184Y8391D01*
X1176Y8555D01*
X1155Y8575D01*
X1139Y8584D01*
X1110Y8612D01*
X1102Y8670D01*
X1110Y9883D01*
X1139Y9920D01*
X1155Y9929D01*
X1176Y9949D01*
X1184Y10007D01*
X1192Y10162D01*
X1229Y10208D01*
X1250Y10228D01*
X1266Y10294D01*
X1258Y10318D01*
X1266Y10376D01*
X1287Y10396D01*
X1328Y10421D01*
X1340Y10433D01*
X1348Y10531D01*
X1377Y10560D01*
X1393Y10568D01*
X1414Y10589D01*
X1418Y10634D01*
X1414Y10638D01*
X1422Y10663D01*
X1430Y10695D01*
X1479Y10728D01*
X1496Y10745D01*
X1537Y10819D01*
X1561Y10843D01*
X1570Y10876D01*
X1586Y10917D01*
X1615Y10946D01*
X1631Y10954D01*
X1652Y10974D01*
X1676Y11015D01*
X1705Y11036D01*
X1742Y11073D01*
X1750Y11089D01*
X1762Y11101D01*
X1779Y11110D01*
X1816Y11147D01*
X1824Y11163D01*
X1836Y11175D01*
X1853Y11184D01*
X1898Y11229D01*
X1906Y11245D01*
X1918Y11257D01*
X1935Y11266D01*
X1963Y11286D01*
X1971Y11303D01*
X1992Y11331D01*
X2008Y11339D01*
X2066Y11380D01*
X2090Y11405D01*
X2156Y11421D01*
X2193Y11442D01*
X2201Y11458D01*
X2222Y11487D01*
X2238Y11495D01*
X2295Y11528D01*
X2316Y11557D01*
X2353Y11569D01*
X2418Y11586D01*
X2447Y11614D01*
X2455Y11631D01*
X2476Y11651D01*
X2509Y11659D01*
X2591Y11667D01*
X2648Y11725D01*
X2681Y11733D01*
X2804Y11741D01*
X2825Y11754D01*
X2833Y11770D01*
X2861Y11807D01*
X2894Y11815D01*
X3083Y11823D01*
X3128Y11860D01*
X3148Y11881D01*
X3214Y11897D01*
X3317Y11893D01*
X3620Y11901D01*
X3718Y11918D01*
X3788Y11938D01*
X3821Y11946D01*
X3928Y11955D01*
D02*
G37*
G36*
X-8900Y11733D02*
X-6801Y11725D01*
X-6756Y11688D01*
X-6711Y11667D01*
X-6678Y11659D01*
X-6227Y11651D01*
X-6185Y11610D01*
X-6169Y11602D01*
X-6128Y11586D01*
X-6095Y11577D01*
X-5825Y11569D01*
X-5784Y11528D01*
X-5767Y11520D01*
X-5726Y11503D01*
X-5636Y11495D01*
X-5611Y11503D01*
X-5513Y11495D01*
X-5456Y11454D01*
X-5431Y11430D01*
X-5373Y11421D01*
X-5218Y11413D01*
X-5189Y11384D01*
X-5181Y11368D01*
X-5160Y11348D01*
X-5127Y11339D01*
X-5009Y11344D01*
X-4980Y11331D01*
X-4959Y11311D01*
X-4951Y11294D01*
X-4922Y11266D01*
X-4767Y11257D01*
X-4730Y11229D01*
X-4721Y11212D01*
X-4701Y11192D01*
X-4668Y11184D01*
X-4578Y11175D01*
X-4557Y11155D01*
X-4549Y11139D01*
X-4521Y11110D01*
X-4414Y11101D01*
X-4369Y11065D01*
X-4348Y11044D01*
X-4291Y11028D01*
X-4229Y11015D01*
X-4217Y11003D01*
X-4201Y10995D01*
X-4168Y10962D01*
X-4127Y10946D01*
X-4086Y10938D01*
X-4041Y10901D01*
X-4004Y10880D01*
X-3951Y10860D01*
X-3901Y10819D01*
X-3889Y10806D01*
X-3856Y10798D01*
X-3807Y10790D01*
X-3778Y10761D01*
X-3770Y10745D01*
X-3758Y10724D01*
X-3717Y10708D01*
X-3651Y10700D01*
X-3622Y10671D01*
X-3614Y10655D01*
X-3545Y10609D01*
X-3524Y10589D01*
X-3516Y10572D01*
X-3479Y10560D01*
X-3417Y10548D01*
X-3384Y10515D01*
X-3376Y10499D01*
X-3364Y10486D01*
X-3323Y10462D01*
X-3303Y10441D01*
X-3294Y10425D01*
X-3274Y10404D01*
X-3233Y10388D01*
X-3192Y10363D01*
X-3167Y10339D01*
X-3126Y10322D01*
X-3085Y10298D01*
X-3073Y10285D01*
X-3065Y10269D01*
X-3044Y10249D01*
X-3028Y10240D01*
X-3011Y10224D01*
X-2999Y10220D01*
X-2991Y10203D01*
X-2962Y10166D01*
X-2946Y10158D01*
X-2917Y10138D01*
X-2909Y10121D01*
X-2888Y10093D01*
X-2872Y10085D01*
X-2835Y10056D01*
X-2827Y10039D01*
X-2790Y10002D01*
X-2774Y9994D01*
X-2745Y9966D01*
X-2737Y9949D01*
X-2724Y9937D01*
X-2708Y9929D01*
X-2671Y9892D01*
X-2663Y9875D01*
X-2642Y9855D01*
X-2626Y9847D01*
X-2597Y9818D01*
X-2589Y9802D01*
X-2552Y9765D01*
X-2536Y9756D01*
X-2523Y9744D01*
X-2515Y9728D01*
X-2495Y9699D01*
X-2478Y9691D01*
X-2462Y9674D01*
X-2450Y9670D01*
X-2441Y9654D01*
X-2413Y9617D01*
X-2396Y9609D01*
X-2368Y9588D01*
X-2343Y9547D01*
X-2285Y9490D01*
X-2273Y9437D01*
X-2244Y9391D01*
X-2212Y9359D01*
X-2187Y9318D01*
X-2166Y9297D01*
X-2150Y9289D01*
X-2121Y9260D01*
X-2109Y9190D01*
X-2097Y9178D01*
X-2089Y9162D01*
X-2064Y9145D01*
X-2048Y9104D01*
X-2039Y9088D01*
X-2019Y9059D01*
X-1978Y9035D01*
X-1966Y8990D01*
X-1957Y8924D01*
X-1937Y8903D01*
X-1896Y8879D01*
X-1884Y8842D01*
X-1888Y8797D01*
X-1879Y8764D01*
X-1810Y8711D01*
X-1801Y8604D01*
X-1744Y8547D01*
X-1728Y8489D01*
X-1719Y8374D01*
X-1699Y8354D01*
X-1662Y8333D01*
X-1646Y8276D01*
X-1654Y8169D01*
X-1637Y8128D01*
X-1609Y8100D01*
X-1592Y8091D01*
X-1572Y8038D01*
X-1564Y7792D01*
X-1527Y7747D01*
X-1514Y7735D01*
X-1498Y7694D01*
X-1490Y7636D01*
X-1494Y7558D01*
X-1486Y7124D01*
X-1477Y7050D01*
X-1469Y6968D01*
X-1465Y6734D01*
X-1473Y6709D01*
X-1486Y6582D01*
X-1494Y6131D01*
X-1498Y6127D01*
X-1490Y6102D01*
X-1498Y6020D01*
X-1514Y6004D01*
X-1519Y5992D01*
X-1535Y5983D01*
X-1564Y5955D01*
X-1572Y5897D01*
X-1580Y5692D01*
X-1609Y5664D01*
X-1625Y5655D01*
X-1646Y5635D01*
X-1654Y5553D01*
X-1646Y5528D01*
X-1654Y5463D01*
X-1666Y5442D01*
X-1683Y5434D01*
X-1699Y5418D01*
X-1711Y5413D01*
X-1728Y5372D01*
X-1736Y5241D01*
X-1773Y5204D01*
X-1789Y5196D01*
X-1801Y5184D01*
X-1810Y5151D01*
X-1818Y5069D01*
X-1838Y5048D01*
X-1855Y5040D01*
X-1884Y5020D01*
X-1892Y4962D01*
X-1900Y4913D01*
X-1920Y4893D01*
X-1937Y4884D01*
X-1966Y4856D01*
X-1978Y4802D01*
X-2007Y4757D01*
X-2023Y4741D01*
X-2068Y4655D01*
X-2084Y4646D01*
X-2121Y4618D01*
X-2142Y4532D01*
X-2187Y4487D01*
X-2220Y4429D01*
X-2232Y4417D01*
X-2248Y4409D01*
X-2285Y4372D01*
X-2294Y4355D01*
X-2322Y4327D01*
X-2339Y4318D01*
X-2351Y4306D01*
X-2384Y4249D01*
X-2433Y4200D01*
X-2458Y4158D01*
X-2499Y4118D01*
X-2507Y4101D01*
X-2540Y4068D01*
X-2548Y4052D01*
X-2560Y4039D01*
X-2577Y4031D01*
X-2659Y3949D01*
X-2716Y3917D01*
X-2757Y3875D01*
X-2774Y3867D01*
X-2819Y3830D01*
X-2864Y3785D01*
X-2880Y3777D01*
X-2909Y3748D01*
X-2917Y3732D01*
X-2946Y3703D01*
X-3003Y3670D01*
X-3036Y3638D01*
X-3122Y3617D01*
X-3139Y3601D01*
X-3163Y3560D01*
X-3233Y3523D01*
X-3245Y3511D01*
X-3253Y3494D01*
X-3298Y3474D01*
X-3356Y3465D01*
X-3376Y3445D01*
X-3384Y3429D01*
X-3413Y3392D01*
X-3512Y3383D01*
X-3532Y3363D01*
X-3540Y3347D01*
X-3561Y3318D01*
X-3594Y3310D01*
X-3667Y3301D01*
X-3688Y3281D01*
X-3696Y3264D01*
X-3725Y3236D01*
X-3782Y3227D01*
X-3831Y3219D01*
X-3852Y3199D01*
X-3872Y3162D01*
X-3905Y3154D01*
X-3987Y3145D01*
X-4016Y3117D01*
X-4037Y3080D01*
X-4094Y3072D01*
X-4168Y3063D01*
X-4217Y3014D01*
X-4258Y2998D01*
X-4381Y2990D01*
X-4393Y2977D01*
X-4402Y2961D01*
X-4430Y2924D01*
X-4463Y2916D01*
X-4586Y2908D01*
X-4643Y2850D01*
X-4709Y2834D01*
X-4767Y2842D01*
X-4791Y2834D01*
X-4832Y2809D01*
X-4857Y2785D01*
X-4873Y2776D01*
X-4914Y2760D01*
X-5062Y2752D01*
X-5107Y2715D01*
X-5115Y2699D01*
X-5160Y2678D01*
X-5296Y2682D01*
X-5328Y2674D01*
X-5361Y2641D01*
X-5369Y2625D01*
X-5415Y2604D01*
X-5628Y2596D01*
X-5657Y2567D01*
X-5665Y2551D01*
X-5685Y2530D01*
X-5718Y2522D01*
X-5940Y2514D01*
X-5968Y2493D01*
X-5976Y2477D01*
X-5997Y2457D01*
X-6054Y2440D01*
X-6161Y2448D01*
X-6268Y2440D01*
X-6305Y2403D01*
X-6313Y2387D01*
X-6325Y2375D01*
X-6382Y2366D01*
X-6596Y2358D01*
X-6633Y2329D01*
X-6641Y2313D01*
X-6686Y2293D01*
X-6768Y2284D01*
X-6846Y2288D01*
X-6936Y2280D01*
X-6965Y2268D01*
X-7014Y2219D01*
X-7047Y2211D01*
X-7092Y2206D01*
X-7260Y2211D01*
X-7301Y2186D01*
X-7322Y2165D01*
X-7330Y2149D01*
X-7375Y2128D01*
X-7613Y2120D01*
X-7641Y2091D01*
X-7650Y2075D01*
X-7662Y2063D01*
X-7695Y2055D01*
X-7732Y2050D01*
X-7793Y2055D01*
X-7818Y2046D01*
X-7842Y2055D01*
X-7924Y2046D01*
X-7961Y2010D01*
X-7970Y1993D01*
X-8015Y1973D01*
X-8236Y1964D01*
X-8257Y1944D01*
X-8265Y1928D01*
X-8277Y1907D01*
X-8318Y1891D01*
X-8445Y1895D01*
X-8523Y1882D01*
X-8572Y1833D01*
X-8589Y1825D01*
X-8613Y1817D01*
X-8675Y1813D01*
X-8777Y1817D01*
X-8822Y1780D01*
X-8843Y1751D01*
X-8900Y1735D01*
X-9056Y1726D01*
X-9073Y1710D01*
X-9089Y1702D01*
X-9122Y1669D01*
X-9155Y1661D01*
X-9228Y1653D01*
X-9253Y1661D01*
X-9327Y1644D01*
X-9364Y1608D01*
X-9372Y1591D01*
X-9409Y1579D01*
X-9548Y1571D01*
X-9565Y1554D01*
X-9577Y1550D01*
X-9585Y1534D01*
X-9606Y1513D01*
X-9647Y1497D01*
X-9762Y1489D01*
X-9807Y1452D01*
X-9827Y1431D01*
X-9860Y1423D01*
X-9975Y1415D01*
X-9987Y1403D01*
X-9995Y1386D01*
X-10024Y1349D01*
X-10057Y1341D01*
X-10155Y1333D01*
X-10200Y1296D01*
X-10213Y1284D01*
X-10254Y1267D01*
X-10336Y1259D01*
X-10377Y1234D01*
X-10397Y1206D01*
X-10418Y1185D01*
X-10508Y1177D01*
X-10528Y1165D01*
X-10537Y1148D01*
X-10553Y1132D01*
X-10557Y1120D01*
X-10598Y1103D01*
X-10643Y1091D01*
X-10672Y1070D01*
X-10697Y1046D01*
X-10750Y1025D01*
X-10775Y1009D01*
X-10783Y993D01*
X-10812Y955D01*
X-10853Y939D01*
X-10885Y931D01*
X-10926Y890D01*
X-11000Y849D01*
X-11012Y837D01*
X-11021Y820D01*
X-11049Y792D01*
X-11086Y771D01*
X-11095Y755D01*
X-11123Y718D01*
X-11140Y709D01*
X-11176Y673D01*
X-11185Y656D01*
X-11205Y628D01*
X-11222Y619D01*
X-11250Y591D01*
X-11263Y537D01*
X-11291Y492D01*
X-11316Y476D01*
X-11324Y459D01*
X-11365Y402D01*
X-11377Y390D01*
X-11394Y381D01*
X-11414Y361D01*
X-11423Y262D01*
X-11443Y242D01*
X-11484Y217D01*
X-11496Y180D01*
X-11505Y98D01*
X-11533Y70D01*
X-11550Y62D01*
X-11562Y49D01*
X-11570Y16D01*
X-11578Y-148D01*
X-11619Y-189D01*
X-11628Y-205D01*
X-11652Y-262D01*
X-11660Y-812D01*
X-11669Y-837D01*
X-11660Y-984D01*
X-11652Y-1009D01*
X-11644Y-1485D01*
X-11607Y-1530D01*
X-11587Y-1550D01*
X-11570Y-1616D01*
X-11562Y-1780D01*
X-11550Y-1792D01*
X-11533Y-1800D01*
X-11496Y-1829D01*
X-11492Y-1882D01*
X-11496Y-1928D01*
X-11472Y-1969D01*
X-11431Y-2010D01*
X-11423Y-2042D01*
X-11406Y-2116D01*
X-11369Y-2161D01*
X-11357Y-2174D01*
X-11324Y-2264D01*
X-11304Y-2284D01*
X-11267Y-2305D01*
X-11259Y-2338D01*
X-11250Y-2403D01*
X-11222Y-2432D01*
X-11205Y-2440D01*
X-11185Y-2461D01*
X-11160Y-2502D01*
X-11148Y-2514D01*
X-11131Y-2522D01*
X-11103Y-2551D01*
X-11062Y-2625D01*
X-11045Y-2633D01*
X-11037Y-2649D01*
X-10996Y-2723D01*
X-10939Y-2781D01*
X-10931Y-2797D01*
X-10902Y-2826D01*
X-10885Y-2834D01*
X-10873Y-2846D01*
X-10865Y-2863D01*
X-10848Y-2879D01*
X-10844Y-2891D01*
X-10828Y-2899D01*
X-10812Y-2916D01*
X-10795Y-2924D01*
X-10783Y-2936D01*
X-10775Y-2953D01*
X-10746Y-2981D01*
X-10729Y-2990D01*
X-10684Y-3027D01*
X-10680Y-3039D01*
X-10664Y-3047D01*
X-10590Y-3088D01*
X-10549Y-3129D01*
X-10479Y-3166D01*
X-10471Y-3182D01*
X-10442Y-3219D01*
X-10385Y-3252D01*
X-10364Y-3281D01*
X-10352Y-3293D01*
X-10295Y-3301D01*
X-10262Y-3310D01*
X-10233Y-3338D01*
X-10213Y-3375D01*
X-10180Y-3383D01*
X-10106Y-3392D01*
X-10086Y-3412D01*
X-10077Y-3429D01*
X-10065Y-3449D01*
X-10024Y-3465D01*
X-9942Y-3474D01*
X-9930Y-3486D01*
X-9922Y-3502D01*
X-9901Y-3531D01*
X-9868Y-3539D01*
X-9778Y-3547D01*
X-9741Y-3584D01*
X-9733Y-3601D01*
X-9696Y-3613D01*
X-9663Y-3621D01*
X-9581Y-3613D01*
X-9557Y-3621D01*
X-9540Y-3629D01*
X-9520Y-3650D01*
X-9511Y-3666D01*
X-9491Y-3687D01*
X-9458Y-3695D01*
X-9261Y-3703D01*
X-9216Y-3740D01*
X-9208Y-3757D01*
X-9163Y-3777D01*
X-8868Y-3785D01*
X-8822Y-3822D01*
X-8802Y-3843D01*
X-8769Y-3851D01*
X-8716Y-3855D01*
X-8195Y-3851D01*
X-8170Y-3859D01*
X-8080Y-3867D01*
X-8056Y-3875D01*
X-7998Y-3892D01*
X-7965Y-3900D01*
X-7851Y-3917D01*
X-7400Y-3908D01*
X-7375Y-3900D01*
X-7330Y-3888D01*
X-7276Y-3867D01*
X-7194Y-3859D01*
X-7088Y-3851D01*
X-6514Y-3843D01*
X-6469Y-3806D01*
X-6456Y-3793D01*
X-6415Y-3777D01*
X-6087Y-3769D01*
X-6050Y-3732D01*
X-6042Y-3716D01*
X-5989Y-3695D01*
X-5767Y-3687D01*
X-5755Y-3675D01*
X-5730Y-3633D01*
X-5677Y-3613D01*
X-5554Y-3621D01*
X-5509Y-3584D01*
X-5501Y-3568D01*
X-5472Y-3539D01*
X-5324Y-3531D01*
X-5259Y-3465D01*
X-5144Y-3449D01*
X-5123Y-3429D01*
X-5115Y-3412D01*
X-5086Y-3383D01*
X-5004Y-3375D01*
X-4988Y-3367D01*
X-4959Y-3338D01*
X-4951Y-3322D01*
X-4939Y-3310D01*
X-4873Y-3285D01*
X-4828Y-3248D01*
X-4775Y-3227D01*
X-4734Y-3203D01*
X-4709Y-3162D01*
X-4693Y-3154D01*
X-4631Y-3109D01*
X-4623Y-3092D01*
X-4611Y-3080D01*
X-4553Y-3055D01*
X-4537Y-3047D01*
X-4488Y-2998D01*
X-4430Y-2965D01*
X-4410Y-2936D01*
X-4373Y-2899D01*
X-4357Y-2891D01*
X-4344Y-2879D01*
X-4336Y-2863D01*
X-4299Y-2817D01*
X-4262Y-2781D01*
X-4242Y-2727D01*
X-4221Y-2699D01*
X-4180Y-2657D01*
X-4155Y-2616D01*
X-4127Y-2588D01*
X-4110Y-2580D01*
X-4090Y-2559D01*
X-4078Y-2514D01*
X-4037Y-2465D01*
X-4016Y-2411D01*
X-4008Y-2379D01*
X-3979Y-2350D01*
X-3963Y-2342D01*
X-3942Y-2321D01*
X-3934Y-2264D01*
X-3926Y-2215D01*
X-3897Y-2186D01*
X-3881Y-2178D01*
X-3868Y-2165D01*
X-3860Y-2133D01*
X-3852Y-2075D01*
X-3844Y-1993D01*
X-3831Y-1981D01*
X-3815Y-1973D01*
X-3786Y-1952D01*
X-3770Y-1887D01*
X-3778Y-1829D01*
X-3770Y-1755D01*
X-3749Y-1735D01*
X-3733Y-1726D01*
X-3704Y-1698D01*
X-3696Y-1665D01*
X-3688Y-1411D01*
X-3651Y-1366D01*
X-3639Y-1353D01*
X-3622Y-1296D01*
X-3614Y-582D01*
X-3602Y-562D01*
X-3561Y-545D01*
X-1223Y-554D01*
X-1195Y-574D01*
X-1186Y-607D01*
X-1195Y-763D01*
X-1203Y-886D01*
X-1211Y-910D01*
X-1236Y-1001D01*
X-1244Y-1034D01*
X-1252Y-1140D01*
X-1268Y-1788D01*
X-1326Y-1846D01*
X-1334Y-1878D01*
X-1342Y-2165D01*
X-1363Y-2194D01*
X-1379Y-2202D01*
X-1408Y-2231D01*
X-1416Y-2264D01*
X-1424Y-2444D01*
X-1473Y-2493D01*
X-1490Y-2534D01*
X-1498Y-2666D01*
X-1514Y-2682D01*
X-1523Y-2699D01*
X-1555Y-2731D01*
X-1572Y-2772D01*
X-1580Y-2887D01*
X-1592Y-2899D01*
X-1633Y-2924D01*
X-1646Y-2936D01*
X-1654Y-2969D01*
X-1650Y-3014D01*
X-1658Y-3047D01*
X-1683Y-3072D01*
X-1719Y-3092D01*
X-1728Y-3125D01*
X-1736Y-3207D01*
X-1748Y-3219D01*
X-1789Y-3244D01*
X-1801Y-3256D01*
X-1810Y-3289D01*
X-1818Y-3363D01*
X-1830Y-3375D01*
X-1871Y-3400D01*
X-1884Y-3412D01*
X-1892Y-3445D01*
X-1900Y-3502D01*
X-1929Y-3531D01*
X-1945Y-3539D01*
X-1986Y-3605D01*
X-2011Y-3629D01*
X-2027Y-3638D01*
X-2039Y-3650D01*
X-2048Y-3707D01*
X-2072Y-3748D01*
X-2113Y-3789D01*
X-2142Y-3843D01*
X-2158Y-3851D01*
X-2195Y-3880D01*
X-2203Y-3896D01*
X-2240Y-3941D01*
X-2257Y-3949D01*
X-2277Y-3970D01*
X-2310Y-4027D01*
X-2322Y-4039D01*
X-2335Y-4044D01*
X-2343Y-4060D01*
X-2376Y-4109D01*
X-2384Y-4126D01*
X-2433Y-4175D01*
X-2441Y-4191D01*
X-2478Y-4236D01*
X-2495Y-4245D01*
X-2515Y-4265D01*
X-2523Y-4281D01*
X-2568Y-4327D01*
X-2585Y-4335D01*
X-2613Y-4363D01*
X-2622Y-4380D01*
X-2634Y-4392D01*
X-2650Y-4400D01*
X-2695Y-4437D01*
X-2724Y-4466D01*
X-2741Y-4474D01*
X-2819Y-4528D01*
X-2847Y-4556D01*
X-2888Y-4581D01*
X-2909Y-4601D01*
X-2917Y-4618D01*
X-2929Y-4630D01*
X-2946Y-4638D01*
X-2983Y-4667D01*
X-2991Y-4683D01*
X-3011Y-4712D01*
X-3085Y-4753D01*
X-3110Y-4778D01*
X-3167Y-4794D01*
X-3208Y-4819D01*
X-3221Y-4831D01*
X-3229Y-4847D01*
X-3257Y-4876D01*
X-3323Y-4901D01*
X-3356Y-4934D01*
X-3397Y-4950D01*
X-3430Y-4958D01*
X-3466Y-4995D01*
X-3475Y-5012D01*
X-3495Y-5032D01*
X-3594Y-5040D01*
X-3614Y-5061D01*
X-3639Y-5102D01*
X-3651Y-5114D01*
X-3758Y-5122D01*
X-3770Y-5134D01*
X-3795Y-5175D01*
X-3807Y-5188D01*
X-3840Y-5196D01*
X-3922Y-5204D01*
X-3934Y-5217D01*
X-3942Y-5233D01*
X-3955Y-5254D01*
X-3971Y-5262D01*
X-3996Y-5270D01*
X-4119Y-5278D01*
X-4155Y-5307D01*
X-4164Y-5323D01*
X-4184Y-5344D01*
X-4217Y-5352D01*
X-4332Y-5360D01*
X-4381Y-5409D01*
X-4422Y-5426D01*
X-4570Y-5434D01*
X-4615Y-5471D01*
X-4635Y-5491D01*
X-4676Y-5508D01*
X-4857Y-5516D01*
X-4894Y-5553D01*
X-4902Y-5569D01*
X-4939Y-5582D01*
X-4972Y-5590D01*
X-5123Y-5586D01*
X-5189Y-5594D01*
X-5218Y-5606D01*
X-5259Y-5647D01*
X-5300Y-5664D01*
X-5636Y-5672D01*
X-5681Y-5709D01*
X-5693Y-5721D01*
X-5734Y-5737D01*
X-5792Y-5746D01*
X-6300Y-5754D01*
X-6358Y-5787D01*
X-6374Y-5803D01*
X-6432Y-5819D01*
X-8392Y-5811D01*
X-8433Y-5787D01*
X-8507Y-5754D01*
X-8589Y-5746D01*
X-9040Y-5737D01*
X-9085Y-5700D01*
X-9097Y-5688D01*
X-9138Y-5672D01*
X-9196Y-5664D01*
X-9491Y-5655D01*
X-9528Y-5618D01*
X-9532Y-5606D01*
X-9548Y-5598D01*
X-9573Y-5590D01*
X-9618Y-5586D01*
X-9794Y-5590D01*
X-9836Y-5565D01*
X-9856Y-5545D01*
X-9864Y-5528D01*
X-9917Y-5508D01*
X-10114Y-5500D01*
X-10143Y-5479D01*
X-10151Y-5463D01*
X-10180Y-5434D01*
X-10237Y-5426D01*
X-10336Y-5434D01*
X-10377Y-5409D01*
X-10389Y-5397D01*
X-10397Y-5381D01*
X-10426Y-5352D01*
X-10590Y-5344D01*
X-10619Y-5315D01*
X-10627Y-5299D01*
X-10648Y-5278D01*
X-10680Y-5270D01*
X-10779Y-5262D01*
X-10791Y-5249D01*
X-10799Y-5233D01*
X-10828Y-5204D01*
X-10885Y-5196D01*
X-10963Y-5184D01*
X-10992Y-5163D01*
X-11033Y-5122D01*
X-11066Y-5114D01*
X-11148Y-5106D01*
X-11168Y-5085D01*
X-11176Y-5069D01*
X-11189Y-5048D01*
X-11230Y-5032D01*
X-11304Y-5024D01*
X-11332Y-4995D01*
X-11341Y-4979D01*
X-11361Y-4958D01*
X-11439Y-4946D01*
X-11468Y-4925D01*
X-11501Y-4893D01*
X-11591Y-4843D01*
X-11624Y-4811D01*
X-11693Y-4798D01*
X-11726Y-4774D01*
X-11751Y-4733D01*
X-11804Y-4712D01*
X-11845Y-4704D01*
X-11894Y-4655D01*
X-11952Y-4622D01*
X-11964Y-4610D01*
X-11972Y-4593D01*
X-12001Y-4564D01*
X-12066Y-4540D01*
X-12099Y-4507D01*
X-12140Y-4491D01*
X-12185Y-4470D01*
X-12194Y-4454D01*
X-12230Y-4409D01*
X-12271Y-4384D01*
X-12292Y-4355D01*
X-12321Y-4327D01*
X-12337Y-4318D01*
X-12403Y-4253D01*
X-12472Y-4216D01*
X-12477Y-4204D01*
X-12493Y-4195D01*
X-12509Y-4179D01*
X-12567Y-4146D01*
X-12587Y-4126D01*
X-12596Y-4109D01*
X-12608Y-4097D01*
X-12649Y-4072D01*
X-12669Y-4052D01*
X-12677Y-4035D01*
X-12706Y-4007D01*
X-12723Y-3999D01*
X-12743Y-3978D01*
X-12751Y-3962D01*
X-12833Y-3880D01*
X-12842Y-3863D01*
X-12907Y-3798D01*
X-12940Y-3740D01*
X-12981Y-3699D01*
X-13014Y-3642D01*
X-13063Y-3593D01*
X-13071Y-3576D01*
X-13092Y-3547D01*
X-13108Y-3539D01*
X-13137Y-3519D01*
X-13145Y-3502D01*
X-13182Y-3457D01*
X-13198Y-3449D01*
X-13219Y-3429D01*
X-13227Y-3396D01*
X-13235Y-3347D01*
X-13293Y-3289D01*
X-13326Y-3232D01*
X-13375Y-3199D01*
X-13383Y-3166D01*
X-13391Y-3100D01*
X-13420Y-3072D01*
X-13436Y-3063D01*
X-13457Y-3043D01*
X-13473Y-2977D01*
X-13498Y-2936D01*
X-13531Y-2904D01*
X-13539Y-2871D01*
X-13559Y-2817D01*
X-13596Y-2781D01*
X-13612Y-2740D01*
X-13621Y-2707D01*
X-13633Y-2645D01*
X-13645Y-2633D01*
X-13649Y-2621D01*
X-13666Y-2612D01*
X-13686Y-2592D01*
X-13695Y-2559D01*
X-13703Y-2461D01*
X-13715Y-2448D01*
X-13732Y-2440D01*
X-13768Y-2411D01*
X-13777Y-2379D01*
X-13785Y-2239D01*
X-13822Y-2202D01*
X-13838Y-2194D01*
X-13850Y-2182D01*
X-13859Y-2124D01*
X-13850Y-2026D01*
X-13859Y-2001D01*
X-13883Y-1960D01*
X-13912Y-1940D01*
X-13924Y-1928D01*
X-13932Y-1870D01*
X-13941Y-1632D01*
X-13977Y-1587D01*
X-14006Y-1558D01*
X-14014Y-1501D01*
X-14023Y-943D01*
X-14031Y-919D01*
X-14051Y-734D01*
X-14060Y-652D01*
X-14064Y-533D01*
X-14055Y-508D01*
X-14047Y-328D01*
X-14039Y-304D01*
X-14023Y-205D01*
X-14014Y-123D01*
X-14006Y336D01*
X-13969Y381D01*
X-13949Y402D01*
X-13932Y459D01*
X-13924Y689D01*
X-13912Y701D01*
X-13895Y709D01*
X-13867Y730D01*
X-13850Y787D01*
X-13859Y894D01*
X-13850Y927D01*
X-13830Y947D01*
X-13789Y972D01*
X-13777Y1009D01*
X-13768Y1140D01*
X-13748Y1169D01*
X-13732Y1177D01*
X-13703Y1206D01*
X-13695Y1238D01*
X-13686Y1321D01*
X-13674Y1333D01*
X-13658Y1341D01*
X-13621Y1370D01*
X-13612Y1476D01*
X-13563Y1509D01*
X-13547Y1526D01*
X-13522Y1624D01*
X-13510Y1636D01*
X-13494Y1644D01*
X-13481Y1657D01*
X-13473Y1673D01*
X-13440Y1731D01*
X-13391Y1763D01*
X-13383Y1796D01*
X-13371Y1858D01*
X-13346Y1882D01*
X-13330Y1891D01*
X-13284Y1960D01*
X-13256Y1981D01*
X-13219Y2018D01*
X-13211Y2034D01*
X-13182Y2063D01*
X-13165Y2071D01*
X-13153Y2083D01*
X-13145Y2100D01*
X-13108Y2145D01*
X-13071Y2182D01*
X-13063Y2198D01*
X-12895Y2366D01*
X-12878Y2375D01*
X-12813Y2440D01*
X-12772Y2465D01*
X-12760Y2477D01*
X-12751Y2493D01*
X-12723Y2522D01*
X-12706Y2530D01*
X-12669Y2567D01*
X-12661Y2584D01*
X-12649Y2596D01*
X-12608Y2621D01*
X-12579Y2649D01*
X-12571Y2666D01*
X-12534Y2678D01*
X-12472Y2690D01*
X-12448Y2715D01*
X-12440Y2731D01*
X-12419Y2752D01*
X-12378Y2776D01*
X-12349Y2805D01*
X-12341Y2822D01*
X-12329Y2834D01*
X-12271Y2842D01*
X-12230Y2850D01*
X-12210Y2871D01*
X-12202Y2887D01*
X-12173Y2916D01*
X-12128Y2928D01*
X-12099Y2940D01*
X-12066Y2973D01*
X-12025Y2990D01*
X-11972Y3010D01*
X-11919Y3063D01*
X-11861Y3072D01*
X-11829Y3080D01*
X-11792Y3117D01*
X-11784Y3133D01*
X-11747Y3145D01*
X-11714Y3154D01*
X-11656Y3162D01*
X-11607Y3211D01*
X-11566Y3227D01*
X-11488Y3240D01*
X-11447Y3256D01*
X-11431Y3273D01*
X-11423Y3289D01*
X-11410Y3301D01*
X-11377Y3310D01*
X-11287Y3318D01*
X-11259Y3347D01*
X-11250Y3363D01*
X-11222Y3392D01*
X-11090Y3400D01*
X-11041Y3449D01*
X-11000Y3465D01*
X-10885Y3474D01*
X-10857Y3502D01*
X-10848Y3519D01*
X-10828Y3539D01*
X-10770Y3547D01*
X-10648Y3556D01*
X-10635Y3568D01*
X-10627Y3584D01*
X-10606Y3613D01*
X-10549Y3629D01*
X-10442Y3621D01*
X-10401Y3646D01*
X-10381Y3666D01*
X-10373Y3683D01*
X-10328Y3703D01*
X-10139Y3711D01*
X-10094Y3748D01*
X-10065Y3777D01*
X-10008Y3785D01*
X-9913Y3781D01*
X-9852Y3793D01*
X-9807Y3830D01*
X-9786Y3851D01*
X-9729Y3859D01*
X-9663Y3867D01*
X-9639Y3859D01*
X-9548Y3867D01*
X-9511Y3896D01*
X-9503Y3912D01*
X-9491Y3925D01*
X-9434Y3941D01*
X-9228Y3949D01*
X-9192Y3978D01*
X-9183Y3994D01*
X-9138Y4015D01*
X-9032Y4023D01*
X-8950Y4015D01*
X-8925Y4023D01*
X-8884Y4048D01*
X-8843Y4089D01*
X-8786Y4097D01*
X-8597Y4105D01*
X-8552Y4142D01*
X-8531Y4163D01*
X-8466Y4179D01*
X-8269Y4187D01*
X-8220Y4236D01*
X-8179Y4253D01*
X-8084Y4257D01*
X-7990Y4253D01*
X-7916Y4294D01*
X-7892Y4318D01*
X-7834Y4335D01*
X-7637Y4343D01*
X-7621Y4359D01*
X-7604Y4368D01*
X-7572Y4400D01*
X-7539Y4409D01*
X-7481Y4417D01*
X-7375Y4409D01*
X-7350Y4417D01*
X-7317Y4425D01*
X-7272Y4462D01*
X-7260Y4474D01*
X-7219Y4491D01*
X-7006Y4499D01*
X-6989Y4515D01*
X-6973Y4524D01*
X-6940Y4556D01*
X-6883Y4573D01*
X-6694Y4581D01*
X-6649Y4618D01*
X-6628Y4638D01*
X-6514Y4655D01*
X-6481Y4646D01*
X-6399Y4655D01*
X-6370Y4683D01*
X-6362Y4700D01*
X-6341Y4720D01*
X-6284Y4729D01*
X-6128Y4737D01*
X-6083Y4774D01*
X-6063Y4794D01*
X-6005Y4811D01*
X-5866Y4819D01*
X-5829Y4856D01*
X-5825Y4868D01*
X-5808Y4876D01*
X-5784Y4884D01*
X-5669Y4893D01*
X-5624Y4930D01*
X-5603Y4950D01*
X-5546Y4966D01*
X-5447Y4975D01*
X-5415Y5024D01*
X-5398Y5040D01*
X-5283Y5048D01*
X-5238Y5085D01*
X-5218Y5106D01*
X-5160Y5122D01*
X-5103Y5130D01*
X-5058Y5167D01*
X-5037Y5188D01*
X-4980Y5204D01*
X-4927Y5225D01*
X-4890Y5262D01*
X-4836Y5282D01*
X-4808Y5303D01*
X-4795Y5315D01*
X-4787Y5331D01*
X-4767Y5352D01*
X-4734Y5360D01*
X-4676Y5368D01*
X-4648Y5397D01*
X-4639Y5413D01*
X-4627Y5426D01*
X-4586Y5450D01*
X-4566Y5471D01*
X-4557Y5487D01*
X-4529Y5516D01*
X-4512Y5524D01*
X-4484Y5553D01*
X-4475Y5569D01*
X-4455Y5590D01*
X-4439Y5598D01*
X-4402Y5635D01*
X-4393Y5651D01*
X-4389Y5655D01*
X-4385Y5659D01*
X-4373Y5672D01*
X-4357Y5680D01*
X-4328Y5709D01*
X-4320Y5725D01*
X-4291Y5754D01*
X-4275Y5762D01*
X-4246Y5791D01*
X-4221Y5832D01*
X-4180Y5873D01*
X-4168Y5959D01*
X-4143Y5983D01*
X-4127Y5992D01*
X-4098Y6012D01*
X-4090Y6045D01*
X-4082Y6127D01*
X-4069Y6139D01*
X-4028Y6164D01*
X-4016Y6176D01*
X-4008Y6234D01*
X-4016Y6291D01*
X-4008Y6316D01*
X-3983Y6357D01*
X-3942Y6398D01*
X-3934Y6430D01*
X-3926Y6685D01*
X-3889Y6730D01*
X-3877Y6742D01*
X-3860Y6799D01*
X-3852Y7210D01*
X-3860Y7234D01*
X-3868Y7406D01*
X-3926Y7489D01*
X-3934Y7546D01*
X-3942Y7800D01*
X-3983Y7858D01*
X-4008Y7882D01*
X-4016Y7964D01*
X-4024Y8038D01*
X-4073Y8087D01*
X-4090Y8128D01*
X-4098Y8210D01*
X-4135Y8255D01*
X-4155Y8276D01*
X-4172Y8317D01*
X-4197Y8358D01*
X-4229Y8391D01*
X-4246Y8448D01*
X-4254Y8481D01*
X-4275Y8501D01*
X-4315Y8526D01*
X-4348Y8575D01*
X-4402Y8629D01*
X-4422Y8682D01*
X-4463Y8731D01*
X-4484Y8752D01*
X-4508Y8793D01*
X-4537Y8821D01*
X-4553Y8830D01*
X-4574Y8858D01*
X-4611Y8895D01*
X-4627Y8903D01*
X-4672Y8940D01*
X-4676Y8953D01*
X-4693Y8961D01*
X-4750Y8994D01*
X-4771Y9006D01*
X-4779Y9022D01*
X-4791Y9035D01*
X-4808Y9043D01*
X-4865Y9076D01*
X-4898Y9125D01*
X-4955Y9166D01*
X-4976Y9186D01*
X-4984Y9203D01*
X-5029Y9215D01*
X-5086Y9223D01*
X-5115Y9252D01*
X-5136Y9289D01*
X-5201Y9305D01*
X-5242Y9330D01*
X-5275Y9363D01*
X-5341Y9379D01*
X-5382Y9396D01*
X-5423Y9437D01*
X-5464Y9453D01*
X-5554Y9461D01*
X-5583Y9490D01*
X-5591Y9506D01*
X-5611Y9527D01*
X-5644Y9535D01*
X-5751Y9543D01*
X-5800Y9592D01*
X-5841Y9609D01*
X-6005Y9617D01*
X-6050Y9654D01*
X-6079Y9683D01*
X-6112Y9691D01*
X-6341Y9699D01*
X-6399Y9756D01*
X-6432Y9765D01*
X-6809Y9773D01*
X-6948Y9838D01*
X-7055Y9847D01*
X-8433Y9838D01*
X-8490Y9806D01*
X-8564Y9773D01*
X-8671Y9765D01*
X-8950Y9756D01*
X-8978Y9736D01*
X-8986Y9719D01*
X-8999Y9707D01*
X-9040Y9691D01*
X-9269Y9683D01*
X-9335Y9617D01*
X-9417Y9609D01*
X-9516Y9601D01*
X-9573Y9543D01*
X-9630Y9535D01*
X-9729Y9527D01*
X-9758Y9498D01*
X-9778Y9461D01*
X-9811Y9453D01*
X-9893Y9445D01*
X-9913Y9424D01*
X-9922Y9408D01*
X-9942Y9379D01*
X-9975Y9371D01*
X-10049Y9363D01*
X-10069Y9342D01*
X-10077Y9326D01*
X-10106Y9297D01*
X-10172Y9273D01*
X-10217Y9236D01*
X-10270Y9215D01*
X-10287Y9207D01*
X-10307Y9186D01*
X-10315Y9170D01*
X-10344Y9141D01*
X-10360Y9133D01*
X-10389Y9104D01*
X-10397Y9088D01*
X-10426Y9059D01*
X-10442Y9051D01*
X-10516Y8977D01*
X-10533Y8969D01*
X-10553Y8948D01*
X-10561Y8932D01*
X-10590Y8903D01*
X-10606Y8895D01*
X-10639Y8846D01*
X-10664Y8821D01*
X-10680Y8813D01*
X-10709Y8784D01*
X-10717Y8768D01*
X-10746Y8739D01*
X-10762Y8731D01*
X-10783Y8711D01*
X-10803Y8657D01*
X-10840Y8620D01*
X-10857Y8579D01*
X-10869Y8534D01*
X-10893Y8510D01*
X-10910Y8501D01*
X-10931Y8489D01*
X-10939Y8456D01*
X-10947Y8374D01*
X-10967Y8354D01*
X-11008Y8329D01*
X-11021Y8317D01*
X-11029Y8202D01*
X-11086Y8145D01*
X-11103Y8079D01*
X-11111Y7940D01*
X-11148Y7895D01*
X-11168Y7874D01*
X-11176Y7841D01*
X-11185Y7562D01*
X-11238Y7484D01*
X-11250Y7447D01*
X-11259Y7390D01*
X-11267Y7292D01*
X-11295Y7263D01*
X-11328Y7255D01*
X-12149Y7247D01*
X-13567Y7255D01*
X-13612Y7292D01*
X-13621Y7374D01*
X-13612Y7718D01*
X-13555Y7808D01*
X-13547Y7866D01*
X-13539Y7899D01*
X-13531Y8235D01*
X-13473Y8292D01*
X-13457Y8358D01*
X-13465Y8391D01*
X-13457Y8547D01*
X-13420Y8584D01*
X-13403Y8592D01*
X-13391Y8604D01*
X-13383Y8637D01*
X-13375Y8801D01*
X-13362Y8813D01*
X-13321Y8838D01*
X-13309Y8850D01*
X-13301Y8907D01*
X-13293Y8981D01*
X-13256Y9026D01*
X-13243Y9039D01*
X-13227Y9080D01*
X-13219Y9170D01*
X-13206Y9190D01*
X-13190Y9199D01*
X-13153Y9236D01*
X-13145Y9268D01*
X-13137Y9326D01*
X-13108Y9363D01*
X-13092Y9371D01*
X-13079Y9383D01*
X-13059Y9437D01*
X-13038Y9465D01*
X-13014Y9490D01*
X-12997Y9531D01*
X-12989Y9580D01*
X-12960Y9609D01*
X-12920Y9633D01*
X-12907Y9670D01*
X-12887Y9724D01*
X-12850Y9760D01*
X-12833Y9802D01*
X-12825Y9818D01*
X-12796Y9847D01*
X-12780Y9855D01*
X-12751Y9883D01*
X-12743Y9900D01*
X-12669Y9974D01*
X-12661Y9990D01*
X-12649Y10011D01*
X-12632Y10019D01*
X-12612Y10039D01*
X-12604Y10056D01*
X-12546Y10130D01*
X-12530Y10146D01*
X-12522Y10162D01*
X-12485Y10216D01*
X-12468Y10224D01*
X-12378Y10314D01*
X-12362Y10322D01*
X-12345Y10339D01*
X-12329Y10347D01*
X-12321Y10363D01*
X-12304Y10372D01*
X-12280Y10396D01*
X-12263Y10404D01*
X-12218Y10441D01*
X-12190Y10470D01*
X-12149Y10495D01*
X-12091Y10552D01*
X-12075Y10560D01*
X-12046Y10589D01*
X-12038Y10605D01*
X-12009Y10634D01*
X-11968Y10659D01*
X-11927Y10700D01*
X-11894Y10708D01*
X-11845Y10716D01*
X-11816Y10745D01*
X-11808Y10761D01*
X-11788Y10782D01*
X-11771Y10790D01*
X-11718Y10827D01*
X-11710Y10843D01*
X-11689Y10864D01*
X-11607Y10872D01*
X-11587Y10884D01*
X-11578Y10901D01*
X-11541Y10946D01*
X-11509Y10954D01*
X-11443Y10962D01*
X-11431Y10974D01*
X-11423Y10991D01*
X-11386Y11028D01*
X-11299Y11040D01*
X-11238Y11101D01*
X-11181Y11110D01*
X-11131Y11118D01*
X-11119Y11130D01*
X-11111Y11147D01*
X-11074Y11184D01*
X-10967Y11192D01*
X-10947Y11212D01*
X-10922Y11253D01*
X-10885Y11266D01*
X-10770Y11274D01*
X-10721Y11323D01*
X-10705Y11331D01*
X-10680Y11339D01*
X-10557Y11348D01*
X-10500Y11405D01*
X-10442Y11421D01*
X-10287Y11430D01*
X-10242Y11467D01*
X-10233Y11483D01*
X-10180Y11503D01*
X-10061Y11499D01*
X-9987Y11507D01*
X-9958Y11520D01*
X-9909Y11569D01*
X-9877Y11577D01*
X-9589Y11586D01*
X-9544Y11622D01*
X-9524Y11643D01*
X-9466Y11659D01*
X-9032Y11667D01*
X-8974Y11700D01*
X-8900Y11733D01*
D02*
G37*
G36*
X9973Y11421D02*
X12113Y11413D01*
X12126Y11401D01*
X12134Y11368D01*
Y-5249D01*
Y-5257D01*
X12138Y-5385D01*
X12117Y-5413D01*
X12081Y-5426D01*
X11552Y-5430D01*
X9903Y-5422D01*
X9862Y-5389D01*
X9866Y-5270D01*
X9862Y11261D01*
X9870Y11286D01*
X9862Y11311D01*
X9870Y11393D01*
X9891Y11413D01*
X9973Y11421D01*
D02*
G37*
G36*
X12085Y-5512D02*
X12113Y-5524D01*
X12134Y-5545D01*
X12130Y-5787D01*
X12134Y-5856D01*
X12105Y-5893D01*
X12089Y-5901D01*
X12052Y-5930D01*
X12031Y-5983D01*
X12011Y-6012D01*
X11986Y-6037D01*
X11970Y-6102D01*
X11962Y-6152D01*
X11925Y-6197D01*
X11904Y-6217D01*
X11896Y-6250D01*
X11888Y-6357D01*
X11859Y-6385D01*
X11843Y-6393D01*
X11822Y-6414D01*
X11814Y-6471D01*
X11806Y-6594D01*
X11757Y-6627D01*
X11740Y-6644D01*
X11732Y-6701D01*
X11740Y-6791D01*
X11732Y-6816D01*
X11724Y-6849D01*
X11675Y-6898D01*
X11658Y-6939D01*
X11650Y-7128D01*
X11613Y-7164D01*
X11597Y-7173D01*
X11584Y-7185D01*
X11576Y-7243D01*
X11568Y-7423D01*
X11531Y-7468D01*
X11511Y-7489D01*
X11494Y-7554D01*
X11502Y-7661D01*
X11494Y-7743D01*
X11457Y-7788D01*
X11428Y-7817D01*
X11420Y-7849D01*
X11412Y-8079D01*
X11347Y-8145D01*
X11338Y-8227D01*
X11342Y-8370D01*
X11334Y-8403D01*
X11273Y-8465D01*
X11264Y-8522D01*
X11256Y-8727D01*
X11219Y-8772D01*
X11207Y-8784D01*
X11191Y-8826D01*
X11182Y-8883D01*
X11174Y-9096D01*
X11109Y-9162D01*
X11105Y-9232D01*
X11109Y-9301D01*
X11100Y-9318D01*
X11109Y-9342D01*
X11100Y-9408D01*
X11063Y-9453D01*
X11047Y-9461D01*
X11027Y-9514D01*
X11018Y-9744D01*
X10998Y-9765D01*
X10982Y-9773D01*
X10961Y-9793D01*
X10953Y-9826D01*
X10944Y-9883D01*
X10949Y-10019D01*
X10940Y-10052D01*
X10879Y-10113D01*
X10871Y-10146D01*
X10863Y-10335D01*
X10826Y-10380D01*
X10797Y-10408D01*
X10789Y-10466D01*
X10793Y-10568D01*
X10785Y-10601D01*
X10768Y-10626D01*
X10752Y-10634D01*
X10723Y-10655D01*
X10707Y-10720D01*
X10715Y-10778D01*
X10707Y-10843D01*
X10641Y-10909D01*
X10633Y-10966D01*
X10625Y-11081D01*
X10604Y-11101D01*
X10588Y-11110D01*
X10567Y-11122D01*
X10551Y-11180D01*
X10543Y-11294D01*
X10530Y-11315D01*
X10514Y-11323D01*
X10477Y-11360D01*
X10469Y-11467D01*
X10457Y-11479D01*
X10440Y-11487D01*
X10403Y-11516D01*
X10387Y-11573D01*
X10362Y-11614D01*
X10338Y-11639D01*
X10321Y-11680D01*
X10313Y-11696D01*
X10276Y-11733D01*
X10260Y-11741D01*
X10247Y-11754D01*
X10239Y-11770D01*
X10202Y-11807D01*
X10161Y-11831D01*
X10141Y-11852D01*
X10132Y-11868D01*
X10096Y-11881D01*
X10022Y-11889D01*
X9964Y-11930D01*
X9940Y-11955D01*
X9882Y-11963D01*
X9571Y-11955D01*
X9542Y-11926D01*
X9534Y-11909D01*
X9522Y-11897D01*
X9464Y-11881D01*
X9419Y-11868D01*
X9374Y-11823D01*
X9304Y-11786D01*
X9296Y-11770D01*
X9267Y-11733D01*
X9251Y-11725D01*
X9222Y-11704D01*
X9198Y-11663D01*
X9169Y-11635D01*
X9152Y-11626D01*
X9140Y-11590D01*
X9132Y-11524D01*
X9103Y-11495D01*
X9066Y-11475D01*
X9058Y-11442D01*
X9050Y-11384D01*
X9042Y-11368D01*
X9013Y-11339D01*
X8997Y-11331D01*
X8984Y-11319D01*
X8976Y-11261D01*
X8968Y-11188D01*
X8919Y-11147D01*
X8902Y-11106D01*
X8894Y-10983D01*
X8873Y-10954D01*
X8857Y-10946D01*
X8828Y-10917D01*
X8820Y-10884D01*
X8812Y-10761D01*
X8796Y-10745D01*
X8787Y-10728D01*
X8763Y-10712D01*
X8755Y-10695D01*
X8746Y-10671D01*
X8738Y-10638D01*
X8746Y-10540D01*
X8714Y-10482D01*
X8685Y-10462D01*
X8673Y-10449D01*
X8664Y-10417D01*
X8656Y-10253D01*
X8599Y-10195D01*
X8582Y-10130D01*
X8574Y-9982D01*
X8537Y-9937D01*
X8517Y-9916D01*
X8508Y-9883D01*
X8504Y-9830D01*
X8508Y-9728D01*
X8480Y-9683D01*
X8463Y-9674D01*
X8435Y-9646D01*
X8427Y-9588D01*
X8418Y-9408D01*
X8390Y-9379D01*
X8373Y-9371D01*
X8361Y-9359D01*
X8344Y-9301D01*
X8353Y-9178D01*
X8336Y-9129D01*
X8299Y-9084D01*
X8287Y-9071D01*
X8271Y-9014D01*
X8263Y-8842D01*
X8242Y-8813D01*
X8225Y-8805D01*
X8197Y-8776D01*
X8189Y-8694D01*
X8180Y-8547D01*
X8123Y-8489D01*
X8115Y-8456D01*
X8107Y-8415D01*
X8115Y-8391D01*
X8107Y-8284D01*
X8078Y-8255D01*
X8061Y-8247D01*
X8049Y-8235D01*
X8033Y-8178D01*
X8025Y-8030D01*
X7975Y-7981D01*
X7959Y-7940D01*
X7951Y-7800D01*
X7910Y-7743D01*
X7885Y-7718D01*
X7877Y-7661D01*
X7869Y-7570D01*
X7848Y-7542D01*
X7832Y-7534D01*
X7811Y-7513D01*
X7803Y-7480D01*
X7795Y-7423D01*
X7787Y-7349D01*
X7758Y-7320D01*
X7742Y-7312D01*
X7721Y-7292D01*
X7713Y-7185D01*
X7692Y-7164D01*
X7651Y-7140D01*
X7639Y-7103D01*
X7623Y-7029D01*
X7610Y-7017D01*
X7578Y-7009D01*
X7512Y-7017D01*
X7491Y-7037D01*
X7483Y-7070D01*
X7475Y-7119D01*
X7438Y-7156D01*
X7422Y-7164D01*
X7401Y-7210D01*
X7393Y-7267D01*
X7364Y-7304D01*
X7348Y-7312D01*
X7336Y-7324D01*
X7327Y-7357D01*
X7319Y-7456D01*
X7299Y-7476D01*
X7258Y-7501D01*
X7245Y-7546D01*
X7237Y-7644D01*
X7200Y-7689D01*
X7180Y-7710D01*
X7172Y-7743D01*
X7163Y-7858D01*
X7126Y-7903D01*
X7106Y-7923D01*
X7090Y-7981D01*
X7081Y-8095D01*
X7053Y-8132D01*
X7036Y-8141D01*
X7016Y-8186D01*
X7007Y-8243D01*
X7016Y-8268D01*
X6999Y-8333D01*
X6987Y-8354D01*
X6971Y-8362D01*
X6950Y-8383D01*
X6934Y-8424D01*
X6926Y-8563D01*
X6889Y-8608D01*
X6868Y-8629D01*
X6852Y-8686D01*
X6843Y-8817D01*
X6794Y-8867D01*
X6778Y-8907D01*
X6770Y-9047D01*
X6733Y-9092D01*
X6712Y-9112D01*
X6696Y-9154D01*
X6688Y-9293D01*
X6647Y-9334D01*
X6639Y-9350D01*
X6614Y-9408D01*
X6606Y-9523D01*
X6556Y-9572D01*
X6540Y-9613D01*
X6532Y-9744D01*
X6503Y-9781D01*
X6487Y-9789D01*
X6466Y-9826D01*
X6458Y-9859D01*
X6450Y-9974D01*
X6421Y-10002D01*
X6405Y-10011D01*
X6384Y-10031D01*
X6376Y-10146D01*
X6339Y-10191D01*
X6319Y-10220D01*
X6302Y-10261D01*
X6294Y-10343D01*
X6273Y-10372D01*
X6257Y-10380D01*
X6228Y-10408D01*
X6220Y-10441D01*
X6212Y-10515D01*
X6191Y-10536D01*
X6175Y-10544D01*
X6146Y-10572D01*
X6134Y-10650D01*
X6114Y-10679D01*
X6081Y-10712D01*
X6048Y-10769D01*
X6036Y-10782D01*
X6019Y-10790D01*
X5991Y-10819D01*
X5982Y-10835D01*
X5954Y-10872D01*
X5937Y-10880D01*
X5917Y-10901D01*
X5909Y-10917D01*
X5863Y-10962D01*
X5851Y-10966D01*
X5843Y-10983D01*
X5822Y-11003D01*
X5806Y-11011D01*
X5761Y-11048D01*
X5744Y-11065D01*
X5736Y-11081D01*
X5724Y-11093D01*
X5691Y-11101D01*
X5568Y-11110D01*
X5531Y-11139D01*
X5523Y-11155D01*
X5478Y-11175D01*
X5191Y-11167D01*
X5146Y-11130D01*
X5125Y-11110D01*
X5092Y-11101D01*
X5002Y-11093D01*
X4982Y-11081D01*
X4973Y-11065D01*
X4945Y-11028D01*
X4887Y-10995D01*
X4875Y-10983D01*
X4867Y-10966D01*
X4846Y-10946D01*
X4830Y-10938D01*
X4736Y-10843D01*
X4727Y-10827D01*
X4699Y-10790D01*
X4682Y-10782D01*
X4645Y-10745D01*
X4621Y-10704D01*
X4600Y-10683D01*
X4588Y-10679D01*
X4572Y-10638D01*
X4563Y-10572D01*
X4543Y-10552D01*
X4526Y-10544D01*
X4498Y-10523D01*
X4490Y-10466D01*
X4481Y-10417D01*
X4461Y-10396D01*
X4444Y-10388D01*
X4424Y-10376D01*
X4408Y-10318D01*
X4416Y-10294D01*
X4408Y-10261D01*
X4379Y-10232D01*
X4362Y-10224D01*
X4342Y-10212D01*
X4334Y-10179D01*
X4326Y-10089D01*
X4305Y-10068D01*
X4289Y-10060D01*
X4260Y-10031D01*
X4248Y-9920D01*
X4219Y-9875D01*
X4186Y-9843D01*
X4178Y-9810D01*
X4170Y-9711D01*
X4141Y-9683D01*
X4124Y-9674D01*
X4104Y-9654D01*
X4096Y-9621D01*
X4088Y-9506D01*
X4051Y-9461D01*
X4022Y-9432D01*
X4014Y-9309D01*
X3977Y-9273D01*
X3960Y-9264D01*
X3948Y-9252D01*
X3940Y-9195D01*
X3932Y-9080D01*
X3911Y-9059D01*
X3870Y-9035D01*
X3858Y-8990D01*
X3850Y-8891D01*
X3833Y-8875D01*
X3829Y-8862D01*
X3813Y-8854D01*
X3784Y-8801D01*
X3776Y-8686D01*
X3755Y-8665D01*
X3739Y-8657D01*
X3710Y-8637D01*
X3702Y-8604D01*
X3694Y-8506D01*
X3678Y-8489D01*
X3669Y-8473D01*
X3653Y-8465D01*
X3645Y-8448D01*
X3628Y-8407D01*
X3616Y-8313D01*
X3596Y-8284D01*
X3583Y-8272D01*
X3567Y-8264D01*
X3554Y-8251D01*
X3546Y-8219D01*
X3538Y-8136D01*
X3517Y-8116D01*
X3501Y-8108D01*
X3472Y-8087D01*
X3456Y-7972D01*
X3444Y-7960D01*
X3403Y-7936D01*
X3390Y-7923D01*
X3378Y-7845D01*
X3337Y-7796D01*
X3317Y-7776D01*
X3308Y-7743D01*
X3272Y-7698D01*
X3251Y-7677D01*
X3243Y-7661D01*
X3202Y-7587D01*
X3181Y-7566D01*
X3148Y-7558D01*
X3099Y-7566D01*
X3087Y-7579D01*
X3054Y-7661D01*
X3021Y-7694D01*
X3013Y-7710D01*
X2972Y-7784D01*
X2923Y-7817D01*
X2915Y-7849D01*
X2906Y-7907D01*
X2894Y-7927D01*
X2878Y-7936D01*
X2841Y-7972D01*
X2829Y-8026D01*
X2816Y-8055D01*
X2784Y-8087D01*
X2775Y-8104D01*
X2759Y-8145D01*
X2738Y-8198D01*
X2701Y-8235D01*
X2685Y-8276D01*
X2677Y-8333D01*
X2656Y-8387D01*
X2632Y-8411D01*
X2619Y-8415D01*
X2611Y-8432D01*
X2603Y-8456D01*
X2591Y-8542D01*
X2558Y-8575D01*
X2541Y-8584D01*
X2529Y-8596D01*
X2521Y-8629D01*
X2513Y-8711D01*
X2492Y-8731D01*
X2451Y-8756D01*
X2443Y-8788D01*
X2439Y-8793D01*
X2447Y-8817D01*
X2439Y-8867D01*
X2410Y-8895D01*
X2394Y-8903D01*
X2373Y-8916D01*
X2365Y-8948D01*
X2357Y-9039D01*
X2328Y-9067D01*
X2312Y-9076D01*
X2300Y-9088D01*
X2291Y-9121D01*
X2275Y-9227D01*
X2259Y-9244D01*
X2254Y-9256D01*
X2238Y-9264D01*
X2226Y-9277D01*
X2209Y-9318D01*
X2197Y-9387D01*
X2176Y-9416D01*
X2135Y-9457D01*
X2123Y-9510D01*
X2115Y-9543D01*
X2094Y-9572D01*
X2062Y-9605D01*
X2045Y-9662D01*
X2012Y-9719D01*
X1988Y-9744D01*
X1971Y-9802D01*
X1947Y-9843D01*
X1935Y-9855D01*
X1918Y-9863D01*
X1906Y-9875D01*
X1898Y-9933D01*
X1889Y-9966D01*
X1861Y-9994D01*
X1844Y-10002D01*
X1816Y-10031D01*
X1807Y-10064D01*
X1775Y-10121D01*
X1750Y-10146D01*
X1709Y-10220D01*
X1660Y-10261D01*
X1652Y-10277D01*
X1615Y-10314D01*
X1598Y-10322D01*
X1570Y-10351D01*
X1561Y-10368D01*
X1549Y-10380D01*
X1475Y-10421D01*
X1442Y-10454D01*
X1389Y-10466D01*
X1356Y-10482D01*
X1348Y-10499D01*
X1311Y-10544D01*
X1254Y-10552D01*
X1205Y-10544D01*
X1180Y-10552D01*
X1147Y-10560D01*
X1102Y-10597D01*
X1090Y-10609D01*
X1024Y-10626D01*
X836Y-10618D01*
X790Y-10581D01*
X778Y-10568D01*
X721Y-10552D01*
X639Y-10544D01*
X589Y-10536D01*
X561Y-10507D01*
X552Y-10491D01*
X540Y-10478D01*
X462Y-10449D01*
X413Y-10408D01*
X368Y-10388D01*
X351Y-10380D01*
X323Y-10351D01*
X315Y-10335D01*
X294Y-10314D01*
X278Y-10306D01*
X241Y-10269D01*
X233Y-10253D01*
X204Y-10224D01*
X187Y-10216D01*
X167Y-10195D01*
X134Y-10138D01*
X101Y-10105D01*
X73Y-10027D01*
X48Y-10002D01*
X32Y-9994D01*
X11Y-9974D01*
X-22Y-9916D01*
X-63Y-9875D01*
X-71Y-9843D01*
X-79Y-9793D01*
X-91Y-9773D01*
X-108Y-9765D01*
X-153Y-9728D01*
X-161Y-9670D01*
X-169Y-9638D01*
X-227Y-9580D01*
X-247Y-9527D01*
X-280Y-9477D01*
X-292Y-9465D01*
X-309Y-9424D01*
X-317Y-9391D01*
X-337Y-9363D01*
X-354Y-9354D01*
X-383Y-9326D01*
X-395Y-9240D01*
X-411Y-9215D01*
X-428Y-9207D01*
X-465Y-9178D01*
X-469Y-9133D01*
X-465Y-9104D01*
X-489Y-9063D01*
X-534Y-9035D01*
X-547Y-9022D01*
X-555Y-8924D01*
X-575Y-8903D01*
X-592Y-8895D01*
X-620Y-8875D01*
X-629Y-8842D01*
X-641Y-8780D01*
X-661Y-8752D01*
X-690Y-8731D01*
X-711Y-8686D01*
X-719Y-8653D01*
X-760Y-8612D01*
X-776Y-8571D01*
X-784Y-8538D01*
X-813Y-8501D01*
X-854Y-8477D01*
X-867Y-8440D01*
X-875Y-8383D01*
X-932Y-8325D01*
X-957Y-8284D01*
X-977Y-8264D01*
X-994Y-8255D01*
X-1022Y-8227D01*
X-1047Y-8186D01*
X-1104Y-8128D01*
X-1113Y-8112D01*
X-1149Y-8075D01*
X-1162Y-8071D01*
X-1170Y-8055D01*
X-1182Y-8042D01*
X-1223Y-8026D01*
X-1273Y-8017D01*
X-1297Y-8026D01*
X-1338Y-8050D01*
X-1432Y-8145D01*
X-1441Y-8161D01*
X-1453Y-8173D01*
X-1469Y-8182D01*
X-1502Y-8231D01*
X-1510Y-8247D01*
X-1527Y-8255D01*
X-1543Y-8272D01*
X-1555Y-8276D01*
X-1564Y-8292D01*
X-1601Y-8337D01*
X-1646Y-8374D01*
X-1670Y-8440D01*
X-1707Y-8485D01*
X-1744Y-8563D01*
X-1756Y-8575D01*
X-1797Y-8600D01*
X-1818Y-8645D01*
X-1826Y-8678D01*
X-1867Y-8719D01*
X-1892Y-8784D01*
X-1929Y-8821D01*
X-1945Y-8830D01*
X-1966Y-8850D01*
X-1974Y-8907D01*
X-1998Y-8948D01*
X-2031Y-8981D01*
X-2064Y-9039D01*
X-2084Y-9059D01*
X-2101Y-9067D01*
X-2113Y-9080D01*
X-2121Y-9112D01*
X-2130Y-9170D01*
X-2142Y-9190D01*
X-2158Y-9199D01*
X-2175Y-9215D01*
X-2187Y-9219D01*
X-2195Y-9236D01*
X-2236Y-9293D01*
X-2269Y-9326D01*
X-2277Y-9359D01*
X-2290Y-9404D01*
X-2310Y-9432D01*
X-2339Y-9453D01*
X-2351Y-9465D01*
X-2376Y-9506D01*
X-2396Y-9527D01*
X-2413Y-9535D01*
X-2433Y-9556D01*
X-2466Y-9613D01*
X-2507Y-9654D01*
X-2548Y-9728D01*
X-2589Y-9769D01*
X-2597Y-9785D01*
X-2634Y-9830D01*
X-2650Y-9838D01*
X-2687Y-9875D01*
X-2695Y-9892D01*
X-2708Y-9904D01*
X-2724Y-9912D01*
X-2769Y-9949D01*
X-2798Y-9978D01*
X-2843Y-9990D01*
X-2876Y-9998D01*
X-2909Y-10031D01*
X-2917Y-10048D01*
X-2929Y-10068D01*
X-2962Y-10076D01*
X-3044Y-10085D01*
X-3056Y-10097D01*
X-3065Y-10113D01*
X-3093Y-10150D01*
X-3151Y-10158D01*
X-3233Y-10150D01*
X-3446Y-10166D01*
X-3639Y-10154D01*
X-3741Y-10150D01*
X-3766Y-10158D01*
X-3827Y-10146D01*
X-3852Y-10121D01*
X-3872Y-10085D01*
X-3905Y-10076D01*
X-3987Y-10068D01*
X-4008Y-10048D01*
X-4033Y-10007D01*
X-4102Y-9970D01*
X-4135Y-9937D01*
X-4151Y-9929D01*
X-4209Y-9896D01*
X-4266Y-9838D01*
X-4307Y-9814D01*
X-4320Y-9802D01*
X-4328Y-9785D01*
X-4365Y-9740D01*
X-4381Y-9732D01*
X-4402Y-9703D01*
X-4439Y-9658D01*
X-4467Y-9629D01*
X-4508Y-9556D01*
X-4557Y-9506D01*
X-4582Y-9465D01*
X-4603Y-9445D01*
X-4619Y-9437D01*
X-4639Y-9416D01*
X-4648Y-9400D01*
X-4660Y-9379D01*
X-4676Y-9371D01*
X-4713Y-9342D01*
X-4754Y-9268D01*
X-4767Y-9256D01*
X-4779Y-9252D01*
X-4795Y-9211D01*
X-4808Y-9166D01*
X-4840Y-9133D01*
X-4857Y-9125D01*
X-4869Y-9112D01*
X-4894Y-9071D01*
X-4914Y-9051D01*
X-4931Y-9043D01*
X-4951Y-9022D01*
X-4992Y-8948D01*
X-5017Y-8924D01*
X-5033Y-8883D01*
X-5062Y-8830D01*
X-5078Y-8821D01*
X-5115Y-8784D01*
X-5136Y-8748D01*
X-5152Y-8739D01*
X-5181Y-8719D01*
X-5189Y-8702D01*
X-5205Y-8686D01*
X-5214Y-8670D01*
X-5242Y-8649D01*
X-5279Y-8612D01*
X-5287Y-8596D01*
X-5300Y-8584D01*
X-5316Y-8575D01*
X-5361Y-8530D01*
X-5369Y-8514D01*
X-5398Y-8493D01*
X-5435Y-8456D01*
X-5443Y-8440D01*
X-5456Y-8428D01*
X-5472Y-8420D01*
X-5509Y-8391D01*
X-5517Y-8374D01*
X-5529Y-8354D01*
X-5570Y-8337D01*
X-5784Y-8346D01*
X-5821Y-8383D01*
X-5829Y-8399D01*
X-5841Y-8411D01*
X-5882Y-8436D01*
X-5903Y-8456D01*
X-5911Y-8473D01*
X-5940Y-8501D01*
X-5956Y-8510D01*
X-5985Y-8538D01*
X-5993Y-8555D01*
X-6013Y-8575D01*
X-6030Y-8584D01*
X-6067Y-8620D01*
X-6075Y-8637D01*
X-6087Y-8649D01*
X-6103Y-8657D01*
X-6149Y-8702D01*
X-6157Y-8719D01*
X-6169Y-8731D01*
X-6185Y-8739D01*
X-6222Y-8776D01*
X-6231Y-8793D01*
X-6251Y-8813D01*
X-6268Y-8821D01*
X-6296Y-8850D01*
X-6305Y-8867D01*
X-6333Y-8895D01*
X-6350Y-8903D01*
X-6378Y-8932D01*
X-6386Y-8948D01*
X-6415Y-8977D01*
X-6432Y-8985D01*
X-6452Y-9006D01*
X-6460Y-9022D01*
X-6497Y-9059D01*
X-6514Y-9067D01*
X-6526Y-9080D01*
X-6534Y-9096D01*
X-6563Y-9133D01*
X-6579Y-9141D01*
X-6608Y-9170D01*
X-6616Y-9186D01*
X-6690Y-9260D01*
X-6698Y-9277D01*
X-6866Y-9445D01*
X-6883Y-9453D01*
X-6948Y-9518D01*
X-6965Y-9527D01*
X-6993Y-9547D01*
X-7002Y-9564D01*
X-7039Y-9601D01*
X-7055Y-9609D01*
X-7092Y-9646D01*
X-7100Y-9662D01*
X-7112Y-9674D01*
X-7145Y-9683D01*
X-7203Y-9691D01*
X-7223Y-9703D01*
X-7231Y-9719D01*
X-7252Y-9748D01*
X-7293Y-9765D01*
X-7358Y-9773D01*
X-7387Y-9802D01*
X-7395Y-9818D01*
X-7408Y-9830D01*
X-7440Y-9838D01*
X-7580Y-9847D01*
X-7625Y-9883D01*
X-7637Y-9896D01*
X-7678Y-9912D01*
X-7760Y-9920D01*
X-8064Y-9912D01*
X-8109Y-9875D01*
X-8129Y-9855D01*
X-8187Y-9838D01*
X-8326Y-9830D01*
X-8359Y-9781D01*
X-8376Y-9765D01*
X-8474Y-9756D01*
X-8503Y-9728D01*
X-8523Y-9691D01*
X-8556Y-9683D01*
X-8622Y-9674D01*
X-8659Y-9638D01*
X-8667Y-9621D01*
X-8716Y-9588D01*
X-8749Y-9556D01*
X-8757Y-9539D01*
X-8827Y-9502D01*
X-8859Y-9469D01*
X-8876Y-9461D01*
X-8950Y-9420D01*
X-8970Y-9391D01*
X-8982Y-9379D01*
X-8999Y-9371D01*
X-9044Y-9334D01*
X-9081Y-9289D01*
X-9097Y-9281D01*
X-9142Y-9236D01*
X-9146Y-9223D01*
X-9163Y-9215D01*
X-9179Y-9199D01*
X-9196Y-9190D01*
X-9216Y-9162D01*
X-9253Y-9125D01*
X-9269Y-9117D01*
X-9282Y-9104D01*
X-9290Y-9088D01*
X-9335Y-9043D01*
X-9352Y-9035D01*
X-9364Y-9022D01*
X-9372Y-9006D01*
X-9409Y-8969D01*
X-9425Y-8961D01*
X-9446Y-8940D01*
X-9454Y-8924D01*
X-9491Y-8887D01*
X-9507Y-8879D01*
X-9528Y-8858D01*
X-9536Y-8842D01*
X-9557Y-8821D01*
X-9614Y-8788D01*
X-9655Y-8748D01*
X-9700Y-8735D01*
X-9729Y-8723D01*
X-9758Y-8694D01*
X-9766Y-8678D01*
X-9778Y-8665D01*
X-9831Y-8645D01*
X-9860Y-8625D01*
X-9893Y-8592D01*
X-9926Y-8584D01*
X-9983Y-8575D01*
X-10102Y-8579D01*
X-10196Y-8575D01*
X-10237Y-8600D01*
X-10278Y-8641D01*
X-10332Y-8653D01*
X-10364Y-8661D01*
X-10377Y-8674D01*
X-10389Y-8678D01*
X-10397Y-8694D01*
X-10418Y-8723D01*
X-10516Y-8748D01*
X-10545Y-8776D01*
X-10553Y-8793D01*
X-10565Y-8805D01*
X-10606Y-8830D01*
X-10627Y-8850D01*
X-10635Y-8867D01*
X-10656Y-8887D01*
X-10672Y-8895D01*
X-10729Y-8936D01*
X-10738Y-8953D01*
X-10795Y-8977D01*
X-10836Y-9002D01*
X-10877Y-9043D01*
X-10918Y-9067D01*
X-10939Y-9088D01*
X-10947Y-9104D01*
X-10967Y-9125D01*
X-11008Y-9149D01*
X-11049Y-9199D01*
X-11066Y-9215D01*
X-11107Y-9240D01*
X-11148Y-9281D01*
X-11209Y-9293D01*
X-11238Y-9313D01*
X-11250Y-9326D01*
X-11259Y-9342D01*
X-11271Y-9354D01*
X-11328Y-9387D01*
X-11341Y-9400D01*
X-11349Y-9416D01*
X-11369Y-9437D01*
X-11402Y-9445D01*
X-11468Y-9453D01*
X-11488Y-9473D01*
X-11513Y-9514D01*
X-11550Y-9527D01*
X-11632Y-9535D01*
X-11652Y-9556D01*
X-11660Y-9572D01*
X-11689Y-9601D01*
X-11870Y-9609D01*
X-11927Y-9666D01*
X-11993Y-9683D01*
X-12600Y-9674D01*
X-12657Y-9633D01*
X-12682Y-9609D01*
X-12739Y-9601D01*
X-12862Y-9592D01*
X-12899Y-9564D01*
X-12907Y-9547D01*
X-12928Y-9527D01*
X-13034Y-9518D01*
X-13055Y-9506D01*
X-13079Y-9465D01*
X-13100Y-9445D01*
X-13182Y-9437D01*
X-13202Y-9424D01*
X-13211Y-9408D01*
X-13248Y-9371D01*
X-13301Y-9350D01*
X-13354Y-9297D01*
X-13420Y-9289D01*
X-13457Y-9260D01*
X-13481Y-9219D01*
X-13555Y-9178D01*
X-13563Y-9162D01*
X-13576Y-9149D01*
X-13633Y-9133D01*
X-13666Y-9125D01*
X-13695Y-9096D01*
X-13703Y-9080D01*
X-13732Y-9051D01*
X-13772Y-9026D01*
X-13822Y-8977D01*
X-13904Y-8969D01*
X-13924Y-8948D01*
X-13932Y-8932D01*
X-13953Y-8903D01*
X-14010Y-8887D01*
X-14060Y-8879D01*
X-14080Y-8858D01*
X-14088Y-8842D01*
X-14109Y-8821D01*
X-14142Y-8813D01*
X-14224Y-8805D01*
X-14252Y-8776D01*
X-14261Y-8760D01*
X-14281Y-8739D01*
X-14355Y-8731D01*
X-14379Y-8739D01*
X-14461Y-8731D01*
X-14474Y-8719D01*
X-14490Y-8661D01*
X-14482Y-8555D01*
X-14486Y-8387D01*
X-14474Y-8358D01*
X-14461Y-8346D01*
X-14404Y-8337D01*
X-14347Y-8346D01*
X-14248Y-8354D01*
X-14224Y-8378D01*
X-14207Y-8387D01*
X-14191Y-8403D01*
X-14150Y-8420D01*
X-13953Y-8428D01*
X-13924Y-8456D01*
X-13916Y-8473D01*
X-13895Y-8493D01*
X-13814Y-8501D01*
X-13748Y-8510D01*
X-13719Y-8530D01*
X-13711Y-8547D01*
X-13690Y-8567D01*
X-13633Y-8584D01*
X-13584Y-8592D01*
X-13563Y-8604D01*
X-13555Y-8620D01*
X-13526Y-8649D01*
X-13461Y-8674D01*
X-13416Y-8711D01*
X-13403Y-8723D01*
X-13350Y-8735D01*
X-13321Y-8748D01*
X-13309Y-8760D01*
X-13284Y-8801D01*
X-13272Y-8813D01*
X-13186Y-8834D01*
X-13141Y-8879D01*
X-13083Y-8912D01*
X-13063Y-8932D01*
X-13055Y-8948D01*
X-13034Y-8969D01*
X-12977Y-8977D01*
X-12936Y-9002D01*
X-12895Y-9043D01*
X-12837Y-9076D01*
X-12825Y-9088D01*
X-12817Y-9104D01*
X-12796Y-9125D01*
X-12739Y-9133D01*
X-12698Y-9141D01*
X-12686Y-9154D01*
X-12661Y-9195D01*
X-12649Y-9207D01*
X-12596Y-9219D01*
X-12567Y-9232D01*
X-12546Y-9244D01*
X-12538Y-9260D01*
X-12501Y-9281D01*
X-12468Y-9289D01*
X-12190Y-9297D01*
X-12165Y-9289D01*
X-12034Y-9281D01*
X-11988Y-9244D01*
X-11976Y-9232D01*
X-11960Y-9223D01*
X-11886Y-9182D01*
X-11866Y-9154D01*
X-11853Y-9141D01*
X-11820Y-9133D01*
X-11767Y-9121D01*
X-11734Y-9088D01*
X-11726Y-9071D01*
X-11660Y-9031D01*
X-11652Y-9014D01*
X-11624Y-8977D01*
X-11570Y-8948D01*
X-11562Y-8932D01*
X-11533Y-8903D01*
X-11455Y-8875D01*
X-11402Y-8821D01*
X-11377Y-8813D01*
X-11349Y-8793D01*
X-11341Y-8776D01*
X-11304Y-8739D01*
X-11287Y-8731D01*
X-11259Y-8702D01*
X-11250Y-8686D01*
X-11222Y-8657D01*
X-11168Y-8637D01*
X-11131Y-8600D01*
X-11054Y-8571D01*
X-11021Y-8538D01*
X-11012Y-8522D01*
X-11000Y-8510D01*
X-10984Y-8501D01*
X-10926Y-8461D01*
X-10902Y-8436D01*
X-10869Y-8428D01*
X-10820Y-8420D01*
X-10783Y-8383D01*
X-10770Y-8354D01*
X-10729Y-8337D01*
X-10684Y-8342D01*
X-10652Y-8333D01*
X-10635Y-8317D01*
X-10611Y-8276D01*
X-10574Y-8264D01*
X-10418Y-8255D01*
X-10352Y-8190D01*
X-10246Y-8182D01*
X-9889Y-8186D01*
X-9811Y-8182D01*
X-9758Y-8210D01*
X-9749Y-8227D01*
X-9721Y-8255D01*
X-9663Y-8264D01*
X-9540Y-8272D01*
X-9528Y-8284D01*
X-9520Y-8301D01*
X-9499Y-8329D01*
X-9466Y-8337D01*
X-9393Y-8346D01*
X-9372Y-8366D01*
X-9364Y-8383D01*
X-9343Y-8411D01*
X-9278Y-8428D01*
X-9237Y-8436D01*
X-9216Y-8465D01*
X-9188Y-8493D01*
X-9146Y-8518D01*
X-9126Y-8538D01*
X-9118Y-8555D01*
X-9097Y-8575D01*
X-9056Y-8600D01*
X-9007Y-8649D01*
X-8966Y-8665D01*
X-8950Y-8674D01*
X-8909Y-8715D01*
X-8892Y-8723D01*
X-8835Y-8764D01*
X-8822Y-8776D01*
X-8814Y-8793D01*
X-8802Y-8805D01*
X-8786Y-8813D01*
X-8741Y-8850D01*
X-8732Y-8867D01*
X-8704Y-8895D01*
X-8687Y-8903D01*
X-8659Y-8932D01*
X-8650Y-8948D01*
X-8630Y-8969D01*
X-8613Y-8977D01*
X-8576Y-9014D01*
X-8568Y-9031D01*
X-8556Y-9043D01*
X-8540Y-9051D01*
X-8494Y-9096D01*
X-8486Y-9112D01*
X-8474Y-9125D01*
X-8457Y-9133D01*
X-8412Y-9178D01*
X-8404Y-9195D01*
X-8355Y-9227D01*
X-8318Y-9273D01*
X-8302Y-9289D01*
X-8285Y-9297D01*
X-8257Y-9318D01*
X-8248Y-9334D01*
X-8228Y-9354D01*
X-8170Y-9371D01*
X-8129Y-9396D01*
X-8088Y-9437D01*
X-8031Y-9469D01*
X-8010Y-9490D01*
X-8002Y-9506D01*
X-7965Y-9518D01*
X-7933Y-9527D01*
X-7752Y-9518D01*
X-7723Y-9498D01*
X-7699Y-9457D01*
X-7654Y-9437D01*
X-7613Y-9412D01*
X-7580Y-9379D01*
X-7506Y-9338D01*
X-7449Y-9281D01*
X-7432Y-9273D01*
X-7403Y-9244D01*
X-7395Y-9227D01*
X-7375Y-9207D01*
X-7358Y-9199D01*
X-7322Y-9162D01*
X-7313Y-9145D01*
X-7248Y-9080D01*
X-7239Y-9063D01*
X-7182Y-9006D01*
X-7174Y-8990D01*
X-7117Y-8916D01*
X-7092Y-8891D01*
X-7084Y-8875D01*
X-7047Y-8830D01*
X-7018Y-8809D01*
X-7010Y-8793D01*
X-6973Y-8748D01*
X-6936Y-8719D01*
X-6928Y-8702D01*
X-6899Y-8665D01*
X-6883Y-8657D01*
X-6846Y-8620D01*
X-6838Y-8604D01*
X-6817Y-8584D01*
X-6801Y-8575D01*
X-6772Y-8547D01*
X-6764Y-8530D01*
X-6735Y-8501D01*
X-6719Y-8493D01*
X-6690Y-8465D01*
X-6682Y-8448D01*
X-6653Y-8420D01*
X-6637Y-8411D01*
X-6616Y-8391D01*
X-6608Y-8374D01*
X-6579Y-8346D01*
X-6563Y-8337D01*
X-6534Y-8309D01*
X-6526Y-8292D01*
X-6497Y-8264D01*
X-6456Y-8239D01*
X-6444Y-8227D01*
X-6436Y-8210D01*
X-6415Y-8190D01*
X-6346Y-8178D01*
X-6317Y-8157D01*
X-6305Y-8145D01*
X-6296Y-8128D01*
X-6284Y-8116D01*
X-6206Y-8087D01*
X-6177Y-8067D01*
X-6153Y-8042D01*
X-6095Y-8026D01*
X-5997Y-8017D01*
X-5976Y-7997D01*
X-5968Y-7981D01*
X-5948Y-7960D01*
X-5915Y-7952D01*
X-5419Y-7948D01*
X-5386Y-7956D01*
X-5353Y-7981D01*
X-5345Y-7997D01*
X-5324Y-8017D01*
X-5291Y-8026D01*
X-5169Y-8034D01*
X-5152Y-8050D01*
X-5136Y-8059D01*
X-5115Y-8087D01*
X-5070Y-8108D01*
X-5029Y-8132D01*
X-4996Y-8165D01*
X-4955Y-8182D01*
X-4914Y-8190D01*
X-4885Y-8219D01*
X-4877Y-8235D01*
X-4857Y-8255D01*
X-4840Y-8264D01*
X-4812Y-8284D01*
X-4803Y-8301D01*
X-4783Y-8329D01*
X-4767Y-8337D01*
X-4750Y-8354D01*
X-4734Y-8362D01*
X-4701Y-8411D01*
X-4685Y-8420D01*
X-4656Y-8440D01*
X-4648Y-8456D01*
X-4611Y-8501D01*
X-4594Y-8510D01*
X-4566Y-8538D01*
X-4541Y-8579D01*
X-4500Y-8620D01*
X-4484Y-8661D01*
X-4459Y-8702D01*
X-4426Y-8735D01*
X-4418Y-8752D01*
X-4377Y-8809D01*
X-4348Y-8830D01*
X-4328Y-8850D01*
X-4320Y-8867D01*
X-4283Y-8903D01*
X-4266Y-8912D01*
X-4225Y-8994D01*
X-4180Y-9055D01*
X-4164Y-9096D01*
X-4127Y-9133D01*
X-4110Y-9141D01*
X-4098Y-9154D01*
X-4073Y-9195D01*
X-4061Y-9207D01*
X-4045Y-9215D01*
X-4016Y-9244D01*
X-3983Y-9301D01*
X-3951Y-9334D01*
X-3934Y-9375D01*
X-3909Y-9416D01*
X-3860Y-9465D01*
X-3836Y-9506D01*
X-3823Y-9518D01*
X-3807Y-9527D01*
X-3778Y-9556D01*
X-3770Y-9572D01*
X-3741Y-9601D01*
X-3725Y-9609D01*
X-3696Y-9638D01*
X-3688Y-9654D01*
X-3659Y-9683D01*
X-3643Y-9691D01*
X-3614Y-9719D01*
X-3606Y-9736D01*
X-3585Y-9756D01*
X-3528Y-9765D01*
X-3397Y-9773D01*
X-3352Y-9760D01*
X-3323Y-9740D01*
X-3303Y-9719D01*
X-3294Y-9703D01*
X-3274Y-9683D01*
X-3257Y-9674D01*
X-3221Y-9638D01*
X-3212Y-9621D01*
X-3192Y-9601D01*
X-3175Y-9592D01*
X-3147Y-9564D01*
X-3122Y-9523D01*
X-3101Y-9502D01*
X-3089Y-9498D01*
X-3081Y-9482D01*
X-3065Y-9441D01*
X-3040Y-9400D01*
X-3007Y-9367D01*
X-2974Y-9309D01*
X-2954Y-9289D01*
X-2937Y-9281D01*
X-2917Y-9260D01*
X-2876Y-9186D01*
X-2851Y-9162D01*
X-2843Y-9129D01*
X-2823Y-9076D01*
X-2798Y-9051D01*
X-2761Y-9031D01*
X-2733Y-8953D01*
X-2712Y-8924D01*
X-2695Y-8907D01*
X-2679Y-8867D01*
X-2654Y-8826D01*
X-2642Y-8813D01*
X-2626Y-8805D01*
X-2605Y-8793D01*
X-2581Y-8694D01*
X-2523Y-8637D01*
X-2495Y-8584D01*
X-2478Y-8575D01*
X-2462Y-8559D01*
X-2450Y-8555D01*
X-2425Y-8456D01*
X-2368Y-8399D01*
X-2343Y-8358D01*
X-2314Y-8329D01*
X-2298Y-8321D01*
X-2277Y-8276D01*
X-2261Y-8235D01*
X-2248Y-8214D01*
X-2232Y-8206D01*
X-2203Y-8153D01*
X-2195Y-8136D01*
X-2166Y-8108D01*
X-2150Y-8100D01*
X-2130Y-8079D01*
X-2121Y-8063D01*
X-2084Y-8026D01*
X-2068Y-8017D01*
X-2048Y-7997D01*
X-2039Y-7981D01*
X-2002Y-7944D01*
X-1986Y-7936D01*
X-1974Y-7923D01*
X-1966Y-7907D01*
X-1929Y-7870D01*
X-1912Y-7862D01*
X-1884Y-7833D01*
X-1875Y-7817D01*
X-1855Y-7796D01*
X-1814Y-7780D01*
X-1797Y-7772D01*
X-1752Y-7735D01*
X-1699Y-7714D01*
X-1654Y-7694D01*
X-1646Y-7677D01*
X-1609Y-7640D01*
X-1551Y-7632D01*
X-1346Y-7624D01*
X-1289Y-7599D01*
X-1256Y-7591D01*
X-1190Y-7599D01*
X-1117Y-7632D01*
X-912Y-7640D01*
X-875Y-7669D01*
X-867Y-7685D01*
X-846Y-7706D01*
X-813Y-7714D01*
X-760Y-7726D01*
X-747Y-7739D01*
X-731Y-7747D01*
X-723Y-7763D01*
X-707Y-7772D01*
X-649Y-7804D01*
X-629Y-7825D01*
X-620Y-7841D01*
X-592Y-7870D01*
X-575Y-7878D01*
X-547Y-7907D01*
X-538Y-7923D01*
X-518Y-7944D01*
X-501Y-7952D01*
X-473Y-7981D01*
X-465Y-7997D01*
X-436Y-8026D01*
X-420Y-8034D01*
X-391Y-8063D01*
X-383Y-8079D01*
X-337Y-8124D01*
X-325Y-8128D01*
X-309Y-8169D01*
X-288Y-8223D01*
X-251Y-8259D01*
X-210Y-8333D01*
X-161Y-8366D01*
X-153Y-8399D01*
X-145Y-8465D01*
X-116Y-8493D01*
X-100Y-8501D01*
X-87Y-8514D01*
X-55Y-8596D01*
X-22Y-8629D01*
X-5Y-8670D01*
X15Y-8723D01*
X32Y-8739D01*
X48Y-8748D01*
X77Y-8776D01*
X85Y-8867D01*
X106Y-8887D01*
X146Y-8912D01*
X159Y-8924D01*
X167Y-9022D01*
X187Y-9043D01*
X204Y-9051D01*
X233Y-9071D01*
X241Y-9104D01*
X249Y-9178D01*
X278Y-9207D01*
X294Y-9215D01*
X315Y-9236D01*
X323Y-9293D01*
X331Y-9334D01*
X351Y-9354D01*
X368Y-9363D01*
X389Y-9383D01*
X405Y-9449D01*
X429Y-9490D01*
X454Y-9514D01*
X503Y-9605D01*
X532Y-9625D01*
X544Y-9638D01*
X552Y-9670D01*
X561Y-9728D01*
X589Y-9756D01*
X606Y-9765D01*
X626Y-9785D01*
X643Y-9826D01*
X651Y-9843D01*
X688Y-9888D01*
X708Y-9941D01*
X733Y-9982D01*
X745Y-9994D01*
X762Y-10002D01*
X790Y-10031D01*
X799Y-10048D01*
X836Y-10085D01*
X852Y-10093D01*
X864Y-10105D01*
X872Y-10121D01*
X901Y-10150D01*
X934Y-10158D01*
X1000Y-10150D01*
X1012Y-10138D01*
X1020Y-10121D01*
X1049Y-10085D01*
X1065Y-10076D01*
X1094Y-10056D01*
X1102Y-10039D01*
X1139Y-9994D01*
X1155Y-9986D01*
X1184Y-9957D01*
X1192Y-9875D01*
X1221Y-9847D01*
X1237Y-9838D01*
X1258Y-9818D01*
X1270Y-9773D01*
X1283Y-9744D01*
X1319Y-9699D01*
X1340Y-9646D01*
X1373Y-9588D01*
X1397Y-9572D01*
X1414Y-9531D01*
X1422Y-9473D01*
X1451Y-9437D01*
X1467Y-9428D01*
X1488Y-9408D01*
X1496Y-9350D01*
X1504Y-9309D01*
X1533Y-9273D01*
X1549Y-9264D01*
X1561Y-9252D01*
X1578Y-9186D01*
X1586Y-9129D01*
X1623Y-9084D01*
X1635Y-9071D01*
X1652Y-9031D01*
X1660Y-8998D01*
X1668Y-8932D01*
X1688Y-8912D01*
X1705Y-8903D01*
X1725Y-8883D01*
X1734Y-8850D01*
X1742Y-8768D01*
X1762Y-8748D01*
X1779Y-8739D01*
X1807Y-8719D01*
X1816Y-8686D01*
X1824Y-8596D01*
X1836Y-8584D01*
X1877Y-8559D01*
X1889Y-8547D01*
X1898Y-8440D01*
X1910Y-8428D01*
X1926Y-8420D01*
X1963Y-8391D01*
X1980Y-8276D01*
X2000Y-8255D01*
X2017Y-8247D01*
X2037Y-8227D01*
X2045Y-8194D01*
X2053Y-8128D01*
X2090Y-8083D01*
X2111Y-8063D01*
X2127Y-7997D01*
X2135Y-7972D01*
X2148Y-7952D01*
X2164Y-7944D01*
X2181Y-7927D01*
X2193Y-7923D01*
X2201Y-7890D01*
X2209Y-7817D01*
X2230Y-7796D01*
X2271Y-7772D01*
X2283Y-7759D01*
X2291Y-7702D01*
X2300Y-7669D01*
X2328Y-7640D01*
X2345Y-7632D01*
X2386Y-7566D01*
X2431Y-7530D01*
X2464Y-7480D01*
X2472Y-7464D01*
X2599Y-7337D01*
X2615Y-7329D01*
X2669Y-7292D01*
X2677Y-7275D01*
X2706Y-7247D01*
X2779Y-7205D01*
X2804Y-7181D01*
X2845Y-7164D01*
X3025Y-7156D01*
X3148Y-7099D01*
X3222Y-7107D01*
X3247Y-7132D01*
X3263Y-7140D01*
X3304Y-7156D01*
X3485Y-7173D01*
X3526Y-7214D01*
X3542Y-7222D01*
X3616Y-7263D01*
X3628Y-7275D01*
X3636Y-7292D01*
X3657Y-7312D01*
X3673Y-7320D01*
X3727Y-7357D01*
X3735Y-7374D01*
X3764Y-7394D01*
X3776Y-7406D01*
X3784Y-7423D01*
X3850Y-7489D01*
X3874Y-7530D01*
X3903Y-7558D01*
X3919Y-7566D01*
X3940Y-7587D01*
X3952Y-7632D01*
X3973Y-7661D01*
X4006Y-7710D01*
X4030Y-7776D01*
X4042Y-7796D01*
X4059Y-7804D01*
X4088Y-7833D01*
X4104Y-7931D01*
X4124Y-7952D01*
X4141Y-7960D01*
X4170Y-7989D01*
X4182Y-8083D01*
X4223Y-8132D01*
X4243Y-8153D01*
X4252Y-8210D01*
X4264Y-8264D01*
X4297Y-8313D01*
X4326Y-8342D01*
X4334Y-8399D01*
X4342Y-8465D01*
X4371Y-8493D01*
X4387Y-8501D01*
X4408Y-8522D01*
X4416Y-8555D01*
X4424Y-8653D01*
X4473Y-8702D01*
X4490Y-8743D01*
X4498Y-8867D01*
X4510Y-8879D01*
X4526Y-8887D01*
X4563Y-8916D01*
X4572Y-8948D01*
X4580Y-9063D01*
X4617Y-9108D01*
X4637Y-9129D01*
X4645Y-9162D01*
X4654Y-9268D01*
X4674Y-9289D01*
X4690Y-9297D01*
X4719Y-9326D01*
X4727Y-9383D01*
X4736Y-9482D01*
X4772Y-9518D01*
X4789Y-9527D01*
X4801Y-9539D01*
X4809Y-9596D01*
X4805Y-9633D01*
X4814Y-9666D01*
X4838Y-9691D01*
X4854Y-9699D01*
X4875Y-9719D01*
X4883Y-9777D01*
X4891Y-9851D01*
Y-9859D01*
X4900Y-9883D01*
X4928Y-9912D01*
X4945Y-9920D01*
X4957Y-9933D01*
X4965Y-9966D01*
X4973Y-10056D01*
X4986Y-10068D01*
X5027Y-10093D01*
X5039Y-10105D01*
X5047Y-10212D01*
X5068Y-10232D01*
X5109Y-10257D01*
X5121Y-10294D01*
X5129Y-10368D01*
X5150Y-10388D01*
X5166Y-10396D01*
X5187Y-10408D01*
X5195Y-10441D01*
X5203Y-10515D01*
X5232Y-10544D01*
X5248Y-10552D01*
X5269Y-10564D01*
X5277Y-10581D01*
X5310Y-10638D01*
X5322Y-10650D01*
X5396Y-10642D01*
X5424Y-10614D01*
X5453Y-10552D01*
X5470Y-10544D01*
X5486Y-10527D01*
X5498Y-10523D01*
X5515Y-10458D01*
X5523Y-10408D01*
X5544Y-10388D01*
X5584Y-10363D01*
X5593Y-10273D01*
X5605Y-10244D01*
X5626Y-10224D01*
X5642Y-10216D01*
X5662Y-10195D01*
X5671Y-10162D01*
X5679Y-10072D01*
X5716Y-10027D01*
X5728Y-10015D01*
X5736Y-9998D01*
X5753Y-9957D01*
X5761Y-9851D01*
X5781Y-9830D01*
X5798Y-9822D01*
X5818Y-9802D01*
X5826Y-9769D01*
X5835Y-9638D01*
X5855Y-9609D01*
X5896Y-9584D01*
X5909Y-9547D01*
X5917Y-9400D01*
X5945Y-9371D01*
X5962Y-9363D01*
X5982Y-9342D01*
X5991Y-9285D01*
X5986Y-9207D01*
X5995Y-9174D01*
X6015Y-9145D01*
X6027Y-9133D01*
X6044Y-9125D01*
X6056Y-9112D01*
X6064Y-9080D01*
X6068Y-9043D01*
X6064Y-8948D01*
X6093Y-8903D01*
X6109Y-8895D01*
X6138Y-8867D01*
X6146Y-8834D01*
X6154Y-8686D01*
X6183Y-8657D01*
X6200Y-8649D01*
X6212Y-8637D01*
X6228Y-8579D01*
X6220Y-8473D01*
X6245Y-8432D01*
X6257Y-8420D01*
X6273Y-8411D01*
X6294Y-8391D01*
X6302Y-8358D01*
X6310Y-8210D01*
X6347Y-8173D01*
X6364Y-8165D01*
X6376Y-8153D01*
X6384Y-8071D01*
X6376Y-8038D01*
X6388Y-7976D01*
X6413Y-7952D01*
X6429Y-7944D01*
X6458Y-7915D01*
X6466Y-7751D01*
X6503Y-7714D01*
X6520Y-7706D01*
X6532Y-7694D01*
X6540Y-7636D01*
X6548Y-7538D01*
X6565Y-7521D01*
X6573Y-7505D01*
X6597Y-7489D01*
X6606Y-7472D01*
X6614Y-7447D01*
X6622Y-7349D01*
X6634Y-7329D01*
X6675Y-7304D01*
X6696Y-7283D01*
X6704Y-7177D01*
X6716Y-7164D01*
X6757Y-7140D01*
X6770Y-7128D01*
X6778Y-7029D01*
X6807Y-7000D01*
X6823Y-6992D01*
X6843Y-6980D01*
X6852Y-6947D01*
X6860Y-6873D01*
X6880Y-6853D01*
X6897Y-6845D01*
X6917Y-6832D01*
X6926Y-6816D01*
X6962Y-6771D01*
X7016Y-6718D01*
X7024Y-6701D01*
X7053Y-6672D01*
X7069Y-6664D01*
X7090Y-6635D01*
X7110Y-6615D01*
X7126Y-6607D01*
X7155Y-6586D01*
X7163Y-6570D01*
X7180Y-6554D01*
X7184Y-6541D01*
X7241Y-6525D01*
X7282Y-6517D01*
X7303Y-6504D01*
X7311Y-6488D01*
X7340Y-6459D01*
X7397Y-6451D01*
X7783Y-6459D01*
X7819Y-6488D01*
X7828Y-6504D01*
X7873Y-6525D01*
X7922Y-6533D01*
X7959Y-6570D01*
X7967Y-6586D01*
X7988Y-6607D01*
X8029Y-6631D01*
X8078Y-6681D01*
X8094Y-6689D01*
X8115Y-6709D01*
X8123Y-6726D01*
X8180Y-6783D01*
X8213Y-6841D01*
X8225Y-6853D01*
X8242Y-6861D01*
X8263Y-6882D01*
X8271Y-6939D01*
X8279Y-6980D01*
X8308Y-7009D01*
X8336Y-7021D01*
X8353Y-7078D01*
X8344Y-7103D01*
X8353Y-7128D01*
X8361Y-7144D01*
X8381Y-7164D01*
X8398Y-7173D01*
X8418Y-7193D01*
X8427Y-7226D01*
X8435Y-7316D01*
X8451Y-7333D01*
X8459Y-7349D01*
X8492Y-7382D01*
X8508Y-7439D01*
X8517Y-7530D01*
X8545Y-7558D01*
X8562Y-7566D01*
X8582Y-7587D01*
X8591Y-7644D01*
X8582Y-7702D01*
X8591Y-7767D01*
X8619Y-7796D01*
X8636Y-7804D01*
X8656Y-7825D01*
X8664Y-7882D01*
X8673Y-8014D01*
X8709Y-8059D01*
X8722Y-8063D01*
X8738Y-8104D01*
X8746Y-8186D01*
X8755Y-8292D01*
X8783Y-8329D01*
X8800Y-8337D01*
X8820Y-8374D01*
X8824Y-8428D01*
X8820Y-8538D01*
X8857Y-8584D01*
X8894Y-8620D01*
X8902Y-8702D01*
X8910Y-8842D01*
X8939Y-8879D01*
X8956Y-8887D01*
X8968Y-8899D01*
X8984Y-8965D01*
X8976Y-9071D01*
X8988Y-9117D01*
X9009Y-9145D01*
X9042Y-9178D01*
X9058Y-9236D01*
X9066Y-9416D01*
X9095Y-9445D01*
X9111Y-9453D01*
X9132Y-9473D01*
X9140Y-9556D01*
X9132Y-9588D01*
X9144Y-9674D01*
X9156Y-9703D01*
X9189Y-9736D01*
X9198Y-9752D01*
X9214Y-9793D01*
X9222Y-9966D01*
X9267Y-10011D01*
X9279Y-10015D01*
X9296Y-10056D01*
X9304Y-10236D01*
X9345Y-10277D01*
X9353Y-10294D01*
X9370Y-10335D01*
X9378Y-10408D01*
X9370Y-10433D01*
X9378Y-10507D01*
X9415Y-10544D01*
X9431Y-10552D01*
X9444Y-10564D01*
X9452Y-10597D01*
X9460Y-10753D01*
X9481Y-10774D01*
X9497Y-10782D01*
X9517Y-10794D01*
X9534Y-10835D01*
X9542Y-10958D01*
X9583Y-10999D01*
X9591Y-11015D01*
X9608Y-11056D01*
X9616Y-11155D01*
X9636Y-11175D01*
X9677Y-11200D01*
X9690Y-11237D01*
X9698Y-11319D01*
X9735Y-11339D01*
X9780Y-11344D01*
X9813Y-11335D01*
X9837Y-11319D01*
X9845Y-11286D01*
X9854Y-11188D01*
X9866Y-11175D01*
X9882Y-11167D01*
X9911Y-11139D01*
X9928Y-11073D01*
X9919Y-11024D01*
X9928Y-10999D01*
X9936Y-10966D01*
X9948Y-10954D01*
X9964Y-10946D01*
X10001Y-10909D01*
X10005Y-10855D01*
X10001Y-10761D01*
X10026Y-10720D01*
X10038Y-10708D01*
X10055Y-10700D01*
X10075Y-10679D01*
X10083Y-10622D01*
X10091Y-10466D01*
X10132Y-10425D01*
X10141Y-10408D01*
X10157Y-10368D01*
X10165Y-10285D01*
X10157Y-10261D01*
X10165Y-10179D01*
X10202Y-10142D01*
X10219Y-10134D01*
X10231Y-10121D01*
X10239Y-10064D01*
X10247Y-9867D01*
X10268Y-9847D01*
X10284Y-9838D01*
X10313Y-9810D01*
X10321Y-9728D01*
X10313Y-9695D01*
X10321Y-9670D01*
X10317Y-9592D01*
X10325Y-9560D01*
X10346Y-9531D01*
X10358Y-9518D01*
X10374Y-9510D01*
X10387Y-9498D01*
X10395Y-9441D01*
X10403Y-9227D01*
X10461Y-9170D01*
X10477Y-9104D01*
X10485Y-8891D01*
X10534Y-8842D01*
X10551Y-8801D01*
X10555Y-8715D01*
X10551Y-8604D01*
X10559Y-8579D01*
X10567Y-8547D01*
X10616Y-8497D01*
X10633Y-8440D01*
X10641Y-8219D01*
X10707Y-8153D01*
X10715Y-8071D01*
X10711Y-7936D01*
X10719Y-7895D01*
X10780Y-7833D01*
X10789Y-7800D01*
X10797Y-7570D01*
X10854Y-7513D01*
X10871Y-7447D01*
X10867Y-7304D01*
X10875Y-7263D01*
X10895Y-7234D01*
X10908Y-7222D01*
X10924Y-7214D01*
X10944Y-7169D01*
X10953Y-6964D01*
X10973Y-6935D01*
X10990Y-6927D01*
X11018Y-6898D01*
X11027Y-6865D01*
X11035Y-6701D01*
X11072Y-6664D01*
X11084Y-6660D01*
X11100Y-6619D01*
X11109Y-6570D01*
X11100Y-6545D01*
X11109Y-6471D01*
X11137Y-6443D01*
X11154Y-6435D01*
X11174Y-6414D01*
X11182Y-6357D01*
X11191Y-6242D01*
X11219Y-6213D01*
X11236Y-6205D01*
X11256Y-6184D01*
X11264Y-6152D01*
X11273Y-6061D01*
X11322Y-6012D01*
X11338Y-5946D01*
X11363Y-5906D01*
X11412Y-5864D01*
X11420Y-5832D01*
X11428Y-5791D01*
X11449Y-5762D01*
X11465Y-5754D01*
X11486Y-5733D01*
X11511Y-5692D01*
X11539Y-5664D01*
X11556Y-5655D01*
X11576Y-5635D01*
X11584Y-5618D01*
X11605Y-5590D01*
X11646Y-5565D01*
X11687Y-5524D01*
X11720Y-5516D01*
X12085Y-5512D01*
D02*
G37*
%LPD*%
D41*
X37881Y-138780D02*
X33946D01*
X35914D01*
Y-144684D01*
X31978D02*
Y-143700D01*
X30994D01*
Y-144684D01*
X31978D01*
X21155Y-138780D02*
Y-144684D01*
X19187Y-142716D01*
X17219Y-144684D01*
Y-138780D01*
X15251Y-144684D02*
X13283D01*
X14267D01*
Y-140748D01*
X15251D01*
X10331D02*
Y-144684D01*
Y-142716D01*
X9347Y-141732D01*
X8363Y-140748D01*
X7379D01*
X3444Y-139764D02*
Y-140748D01*
X4428D01*
X2460D01*
X3444D01*
Y-143700D01*
X2460Y-144684D01*
X-492Y-138780D02*
Y-144684D01*
Y-141732D01*
X-1476Y-140748D01*
X-3444D01*
X-4428Y-141732D01*
Y-144684D01*
X-12299Y-141732D02*
X-16235D01*
X-24106Y-138780D02*
X-26074D01*
X-25090D01*
Y-144684D01*
X-24106D01*
X-26074D01*
X-29026Y-138780D02*
X-30994D01*
X-30010D01*
Y-144684D01*
X-29026D01*
X-30994D01*
X-37881Y-139764D02*
X-36898Y-138780D01*
X-34930D01*
X-33946Y-139764D01*
Y-140748D01*
X-34930Y-141732D01*
X-36898D01*
X-37881Y-142716D01*
Y-143700D01*
X-36898Y-144684D01*
X-34930D01*
X-33946Y-143700D01*
X33946Y125825D02*
Y131729D01*
X30010Y125825D01*
Y131729D01*
X28042Y125825D02*
Y131729D01*
X26074Y129761D01*
X24106Y131729D01*
Y125825D01*
X22139D02*
Y131729D01*
X19187D01*
X18203Y130745D01*
Y128777D01*
X19187Y127793D01*
X22139D01*
X20171D02*
X18203Y125825D01*
X6396Y131729D02*
X10331D01*
Y128777D01*
X8363D01*
X10331D01*
Y125825D01*
X4428Y129761D02*
Y125825D01*
Y127793D01*
X3444Y128777D01*
X2460Y129761D01*
X1476D01*
X-2460Y125825D02*
X-4428D01*
X-5412Y126809D01*
Y128777D01*
X-4428Y129761D01*
X-2460D01*
X-1476Y128777D01*
Y126809D01*
X-2460Y125825D01*
X-7379D02*
Y129761D01*
X-10331D01*
X-11315Y128777D01*
Y125825D01*
X-14267Y130745D02*
Y129761D01*
X-13283D01*
X-15251D01*
X-14267D01*
Y126809D01*
X-15251Y125825D01*
X-21155D02*
X-19187D01*
X-18203Y126809D01*
Y128777D01*
X-19187Y129761D01*
X-21155D01*
X-22139Y128777D01*
Y127793D01*
X-18203D01*
X-24106Y125825D02*
Y129761D01*
X-27058D01*
X-28042Y128777D01*
Y125825D01*
X-33946Y131729D02*
Y125825D01*
X-30994D01*
X-30010Y126809D01*
Y128777D01*
X-30994Y129761D01*
X-33946D01*
X43785Y116142D02*
Y122046D01*
X40833D01*
X39849Y121062D01*
Y119094D01*
X40833Y118110D01*
X43785D01*
X37881Y120078D02*
Y116142D01*
Y118110D01*
X36898Y119094D01*
X35914Y120078D01*
X34930D01*
X30994Y116142D02*
X29026D01*
X28042Y117126D01*
Y119094D01*
X29026Y120078D01*
X30994D01*
X31978Y119094D01*
Y117126D01*
X30994Y116142D01*
X25090Y121062D02*
Y120078D01*
X26074D01*
X24106D01*
X25090D01*
Y117126D01*
X24106Y116142D01*
X20171D02*
X18203D01*
X17219Y117126D01*
Y119094D01*
X18203Y120078D01*
X20171D01*
X21155Y119094D01*
Y117126D01*
X20171Y116142D01*
X14267Y121062D02*
Y120078D01*
X15251D01*
X13283D01*
X14267D01*
Y117126D01*
X13283Y116142D01*
X10331Y120078D02*
Y117126D01*
X9347Y116142D01*
X6396D01*
Y115158D01*
X7379Y114174D01*
X8363D01*
X6396Y116142D02*
Y120078D01*
X4428Y114174D02*
Y120078D01*
X1476D01*
X492Y119094D01*
Y117126D01*
X1476Y116142D01*
X4428D01*
X-4428D02*
X-2460D01*
X-1476Y117126D01*
Y119094D01*
X-2460Y120078D01*
X-4428D01*
X-5412Y119094D01*
Y118110D01*
X-1476D01*
X-13283Y119094D02*
X-17219D01*
X-25090Y122046D02*
Y118110D01*
X-27058Y116142D01*
X-29026Y118110D01*
Y122046D01*
X-30994Y121062D02*
X-31978Y122046D01*
X-33946D01*
X-34930Y121062D01*
Y117126D01*
X-33946Y116142D01*
X-31978D01*
X-30994Y117126D01*
Y121062D01*
X-36898Y116142D02*
Y117126D01*
X-37881D01*
Y116142D01*
X-36898D01*
X-41817D02*
X-43785D01*
X-42801D01*
Y122046D01*
X-41817Y121062D01*
X19679Y109411D02*
X18695Y110395D01*
X16727D01*
X15743Y109411D01*
Y105476D01*
X16727Y104492D01*
X18695D01*
X19679Y105476D01*
Y109411D01*
X13775Y105476D02*
X12791Y104492D01*
X10823D01*
X9839Y105476D01*
Y109411D01*
X10823Y110395D01*
X12791D01*
X13775Y109411D01*
Y108428D01*
X12791Y107444D01*
X9839D01*
X7871Y104492D02*
X3936Y108428D01*
X-1968Y104492D02*
X1968D01*
X-1968Y108428D01*
Y109411D01*
X-984Y110395D01*
X984D01*
X1968Y109411D01*
X-3936D02*
X-4920Y110395D01*
X-6887D01*
X-7871Y109411D01*
Y105476D01*
X-6887Y104492D01*
X-4920D01*
X-3936Y105476D01*
Y109411D01*
X-13775Y104492D02*
X-9839D01*
X-13775Y108428D01*
Y109411D01*
X-12791Y110395D01*
X-10823D01*
X-9839Y109411D01*
X-15743D02*
X-16727Y110395D01*
X-18695D01*
X-19679Y109411D01*
Y108428D01*
X-18695Y107444D01*
X-17711D01*
X-18695D01*
X-19679Y106460D01*
Y105476D01*
X-18695Y104492D01*
X-16727D01*
X-15743Y105476D01*
M02*
