G04*
G04 #@! TF.GenerationSoftware,Altium Limited,Altium Designer,23.9.2 (47)*
G04*
G04 Layer_Physical_Order=1*
G04 Layer_Color=255*
%FSLAX25Y25*%
%MOIN*%
G70*
G04*
G04 #@! TF.SameCoordinates,E30DC50E-2E90-4FCC-99EB-6CEF48135232*
G04*
G04*
G04 #@! TF.FilePolarity,Positive*
G04*
G01*
G75*
%ADD10C,0.00984*%
%ADD12C,0.00787*%
%ADD16C,0.04724*%
%ADD17R,0.02362X0.05709*%
%ADD18R,0.09055X0.09055*%
%ADD19R,0.01575X0.03347*%
%ADD20R,0.01772X0.05709*%
%ADD21R,0.03740X0.03347*%
%ADD22R,0.02362X0.02165*%
%ADD23R,0.04134X0.03937*%
%ADD24R,0.03937X0.07874*%
%ADD25R,0.02402X0.15354*%
%ADD26R,0.02362X0.03937*%
%ADD27R,0.03937X0.04134*%
%ADD28R,0.05118X0.05709*%
%ADD29R,0.05118X0.07087*%
%ADD31C,0.15748*%
%ADD32C,0.01181*%
%ADD33C,0.01772*%
%ADD34C,0.02402*%
%ADD35C,0.02953*%
%ADD36C,0.01968*%
%ADD37C,0.01378*%
%ADD38C,0.23622*%
%ADD39C,0.02362*%
%ADD40C,0.01968*%
G36*
X9854Y146075D02*
X8649Y145588D01*
Y144882D01*
X8088Y144867D01*
X7586Y144823D01*
X7143Y144749D01*
X6760Y144646D01*
X6435Y144513D01*
X6169Y144350D01*
X5962Y144158D01*
X5815Y143937D01*
X5726Y143686D01*
X5697Y143405D01*
Y148512D01*
X5726Y148383D01*
X5815Y148268D01*
X5962Y148166D01*
X6169Y148078D01*
X6435Y148004D01*
X6760Y147943D01*
X7143Y147896D01*
X7655Y147866D01*
X7967Y147894D01*
X8411Y147968D01*
X8797Y148071D01*
X9123Y148204D01*
X9390Y148366D01*
X9597Y148558D01*
X9746Y148779D01*
X9836Y149030D01*
X9866Y149311D01*
X9854Y146075D01*
D02*
G37*
G36*
X4539Y150903D02*
X4628Y150012D01*
X5008D01*
X4916Y149983D01*
X4835Y149894D01*
X4763Y149746D01*
X4713Y149582D01*
X4715Y149575D01*
X4820Y149250D01*
X4948Y148984D01*
X5100Y148777D01*
X5276Y148630D01*
X5474Y148541D01*
X5697Y148512D01*
X4574D01*
X4547Y148122D01*
X4528Y147059D01*
X1575D01*
X1568Y147620D01*
X1500Y148512D01*
X603D01*
X787Y148541D01*
X953Y148630D01*
X1098Y148777D01*
X1225Y148984D01*
X1332Y149250D01*
X1371Y149396D01*
X1331Y149540D01*
X1243Y149746D01*
X1142Y149894D01*
X1026Y149983D01*
X898Y150012D01*
X1493D01*
X1536Y150401D01*
X1575Y151464D01*
X4528D01*
X4539Y150903D01*
D02*
G37*
G36*
X-1565D02*
X-1492Y150012D01*
X-898D01*
X-1026Y149983D01*
X-1142Y149894D01*
X-1243Y149746D01*
X-1331Y149540D01*
X-1371Y149396D01*
X-1332Y149250D01*
X-1225Y148984D01*
X-1098Y148777D01*
X-953Y148630D01*
X-787Y148541D01*
X-603Y148512D01*
X-1517D01*
X-1568Y147620D01*
X-1575Y147059D01*
X-4528D01*
X-4532Y147620D01*
X-4594Y148512D01*
X-5697D01*
X-5474Y148541D01*
X-5276Y148630D01*
X-5100Y148777D01*
X-4948Y148984D01*
X-4820Y149250D01*
X-4715Y149575D01*
X-4713Y149582D01*
X-4763Y149746D01*
X-4835Y149894D01*
X-4916Y149983D01*
X-5008Y150012D01*
X-4626D01*
X-4574Y150401D01*
X-4539Y150903D01*
X-4528Y151464D01*
X-1575D01*
X-1565Y150903D01*
D02*
G37*
G36*
X-9836Y149030D02*
X-9746Y148779D01*
X-9597Y148558D01*
X-9390Y148366D01*
X-9123Y148204D01*
X-8797Y148071D01*
X-8411Y147968D01*
X-7967Y147894D01*
X-7706Y147871D01*
X-6760Y147943D01*
X-6435Y148004D01*
X-6169Y148078D01*
X-5962Y148166D01*
X-5815Y148268D01*
X-5726Y148383D01*
X-5697Y148512D01*
X-5685Y143405D01*
X-5715Y143686D01*
X-5804Y143937D01*
X-5953Y144158D01*
X-6161Y144350D01*
X-6428Y144513D01*
X-6754Y144646D01*
X-7139Y144749D01*
X-7583Y144823D01*
X-8087Y144867D01*
X-8649Y144882D01*
Y145588D01*
X-9854Y146075D01*
X-9866Y149311D01*
X-9836Y149030D01*
D02*
G37*
G36*
X4439Y142824D02*
X4437Y142779D01*
X4429Y141339D01*
X1476D01*
X1464Y142839D01*
X4441D01*
X4439Y142824D01*
D02*
G37*
G36*
X-1467D02*
X-1469Y142779D01*
X-1476Y141339D01*
X-4429D01*
X-4441Y142839D01*
X-1464D01*
X-1467Y142824D01*
D02*
G37*
G36*
X8059Y134264D02*
X8620Y133071D01*
X9449D01*
X9472Y132510D01*
X9543Y132008D01*
X9661Y131565D01*
X9827Y131181D01*
X10039Y130856D01*
X10299Y130590D01*
X10606Y130384D01*
X10961Y130236D01*
X11362Y130148D01*
X11811Y130118D01*
X9953Y128689D01*
Y126980D01*
X9933Y127016D01*
X9874Y127047D01*
X9775Y127075D01*
X9636Y127099D01*
X9458Y127119D01*
X8685Y127158D01*
X7972Y127165D01*
X7559Y127164D01*
X5882Y127047D01*
X5817Y127016D01*
X5795Y126980D01*
Y128759D01*
X3937Y130118D01*
X4423Y130148D01*
X4858Y130236D01*
X5242Y130384D01*
X5575Y130590D01*
X5856Y130856D01*
X6087Y131181D01*
X6266Y131565D01*
X6394Y132008D01*
X6442Y132322D01*
X6437Y132377D01*
X6363Y132821D01*
X6260Y133206D01*
X6127Y133532D01*
X5965Y133799D01*
X5773Y134007D01*
X5551Y134155D01*
X5300Y134245D01*
X5020Y134276D01*
X8059Y134264D01*
D02*
G37*
G36*
X-5300Y134245D02*
X-5551Y134155D01*
X-5773Y134007D01*
X-5965Y133799D01*
X-6127Y133532D01*
X-6260Y133206D01*
X-6363Y132821D01*
X-6437Y132377D01*
X-6442Y132322D01*
X-6394Y132008D01*
X-6266Y131565D01*
X-6087Y131181D01*
X-5856Y130856D01*
X-5575Y130590D01*
X-5242Y130384D01*
X-4858Y130236D01*
X-4423Y130148D01*
X-3937Y130118D01*
X-5795Y128759D01*
Y126980D01*
X-5817Y127016D01*
X-5882Y127047D01*
X-5991Y127075D01*
X-6143Y127099D01*
X-6339Y127119D01*
X-7189Y127158D01*
X-7972Y127165D01*
X-8349Y127164D01*
X-9775Y127075D01*
X-9874Y127047D01*
X-9933Y127016D01*
X-9953Y126980D01*
Y128689D01*
X-11811Y130118D01*
X-11362Y130148D01*
X-10961Y130236D01*
X-10606Y130384D01*
X-10299Y130590D01*
X-10039Y130856D01*
X-9827Y131181D01*
X-9661Y131565D01*
X-9543Y132008D01*
X-9472Y132510D01*
X-9449Y133071D01*
X-8620D01*
X-8059Y134264D01*
X-5020Y134276D01*
X-5300Y134245D01*
D02*
G37*
G36*
X13933Y120849D02*
X14169Y120760D01*
X14378Y120612D01*
X14559Y120406D01*
X14712Y120140D01*
X14837Y119815D01*
X14934Y119431D01*
X15003Y118988D01*
X15045Y118486D01*
X15059Y117925D01*
X12106D01*
X12092Y118486D01*
X12047Y118988D01*
X11973Y119431D01*
X11870Y119815D01*
X11737Y120140D01*
X11575Y120406D01*
X11383Y120612D01*
X11161Y120760D01*
X10910Y120849D01*
X10630Y120878D01*
X13669D01*
X13933Y120849D01*
D02*
G37*
G36*
X5723D02*
X5658Y120760D01*
X5600Y120612D01*
X5551Y120406D01*
X5509Y120140D01*
X5448Y119431D01*
X5417Y118486D01*
X5413Y117925D01*
X2461D01*
X2457Y118486D01*
X2323Y120406D01*
X2274Y120612D01*
X2216Y120760D01*
X2152Y120849D01*
X2079Y120878D01*
X5795D01*
X5723Y120849D01*
D02*
G37*
G36*
X-2152D02*
X-2216Y120760D01*
X-2274Y120612D01*
X-2323Y120406D01*
X-2365Y120140D01*
X-2426Y119431D01*
X-2457Y118486D01*
X-2461Y117925D01*
X-5413D01*
X-5417Y118486D01*
X-5551Y120406D01*
X-5600Y120612D01*
X-5658Y120760D01*
X-5723Y120849D01*
X-5795Y120878D01*
X-2079D01*
X-2152Y120849D01*
D02*
G37*
G36*
X-10910D02*
X-11161Y120760D01*
X-11383Y120612D01*
X-11575Y120406D01*
X-11737Y120140D01*
X-11870Y119815D01*
X-11973Y119431D01*
X-12047Y118988D01*
X-12092Y118486D01*
X-12106Y117925D01*
X-15059D01*
X-15045Y118486D01*
X-15003Y118988D01*
X-14934Y119431D01*
X-14837Y119815D01*
X-14712Y120140D01*
X-14559Y120406D01*
X-14378Y120612D01*
X-14169Y120760D01*
X-13933Y120849D01*
X-13669Y120878D01*
X-10630D01*
X-10910Y120849D01*
D02*
G37*
G36*
X15063Y107595D02*
X15190Y105575D01*
X15237Y105316D01*
X15292Y105105D01*
X15353Y104943D01*
X15423Y104828D01*
X11743D01*
X11812Y104943D01*
X11874Y105105D01*
X11928Y105316D01*
X11975Y105575D01*
X12048Y106238D01*
X12092Y107094D01*
X12106Y108143D01*
X15059D01*
X15063Y107595D01*
D02*
G37*
G36*
X-12103D02*
X-11975Y105575D01*
X-11928Y105316D01*
X-11874Y105105D01*
X-11812Y104943D01*
X-11743Y104828D01*
X-15423D01*
X-15353Y104943D01*
X-15292Y105105D01*
X-15237Y105316D01*
X-15190Y105575D01*
X-15117Y106238D01*
X-15074Y107094D01*
X-15059Y108143D01*
X-12106D01*
X-12103Y107595D01*
D02*
G37*
G36*
X5421Y107970D02*
X5484Y107046D01*
X5538Y106642D01*
X5608Y106276D01*
X5694Y105948D01*
X5795Y105659D01*
X5912Y105408D01*
X6045Y105196D01*
X6193Y105022D01*
X2531Y104609D01*
X2461Y107443D01*
X5413Y108489D01*
X5421Y107970D01*
D02*
G37*
G36*
X-2461Y107443D02*
X-2531Y104609D01*
X-6193Y105022D01*
X-6045Y105196D01*
X-5912Y105408D01*
X-5795Y105659D01*
X-5694Y105948D01*
X-5608Y106276D01*
X-5538Y106642D01*
X-5484Y107046D01*
X-5421Y107970D01*
X-5413Y108489D01*
X-2461Y107443D01*
D02*
G37*
G36*
X51992Y102165D02*
X51981Y102278D01*
X51945Y102378D01*
X51885Y102466D01*
X51802Y102543D01*
X51694Y102608D01*
X51563Y102661D01*
X51408Y102703D01*
X51229Y102732D01*
X51026Y102750D01*
X50799Y102756D01*
Y103937D01*
X51026Y103943D01*
X51229Y103961D01*
X51408Y103990D01*
X51563Y104032D01*
X51694Y104085D01*
X51802Y104150D01*
X51885Y104226D01*
X51945Y104315D01*
X51981Y104415D01*
X51992Y104528D01*
Y102165D01*
D02*
G37*
G36*
X24759Y104415D02*
X24849Y104315D01*
X24955Y104226D01*
X25075Y104150D01*
X25210Y104085D01*
X25359Y104032D01*
X25524Y103990D01*
X25703Y103961D01*
X25897Y103943D01*
X26106Y103937D01*
Y102756D01*
X25897Y102750D01*
X25703Y102732D01*
X25524Y102703D01*
X25359Y102661D01*
X25210Y102608D01*
X25075Y102543D01*
X24955Y102466D01*
X24849Y102378D01*
X24759Y102278D01*
X24683Y102165D01*
Y104528D01*
X24759Y104415D01*
D02*
G37*
G36*
X-24683Y102165D02*
X-24759Y102278D01*
X-24849Y102378D01*
X-24955Y102466D01*
X-25075Y102543D01*
X-25210Y102608D01*
X-25359Y102661D01*
X-25524Y102703D01*
X-25703Y102732D01*
X-25897Y102750D01*
X-26106Y102756D01*
Y103937D01*
X-25897Y103943D01*
X-25703Y103961D01*
X-25524Y103990D01*
X-25359Y104032D01*
X-25210Y104085D01*
X-25075Y104150D01*
X-24955Y104226D01*
X-24849Y104315D01*
X-24759Y104415D01*
X-24683Y104528D01*
Y102165D01*
D02*
G37*
G36*
X-51981Y104415D02*
X-51945Y104315D01*
X-51885Y104226D01*
X-51802Y104150D01*
X-51694Y104085D01*
X-51563Y104032D01*
X-51408Y103990D01*
X-51229Y103961D01*
X-51026Y103943D01*
X-50799Y103937D01*
Y102756D01*
X-51026Y102750D01*
X-51229Y102732D01*
X-51408Y102703D01*
X-51563Y102661D01*
X-51694Y102608D01*
X-51802Y102543D01*
X-51885Y102466D01*
X-51945Y102378D01*
X-51981Y102278D01*
X-51992Y102165D01*
Y104528D01*
X-51981Y104415D01*
D02*
G37*
G36*
X-38986Y99226D02*
X-38943Y99202D01*
X-38888Y99182D01*
X-38822Y99164D01*
X-38745Y99149D01*
X-38657Y99136D01*
X-38448Y99120D01*
X-38194Y99114D01*
Y97736D01*
X-38327Y97735D01*
X-38745Y97702D01*
X-38822Y97687D01*
X-38888Y97669D01*
X-38943Y97648D01*
X-38986Y97625D01*
X-39019Y97598D01*
Y99252D01*
X-38986Y99226D01*
D02*
G37*
G36*
X-40706Y97598D02*
X-40738Y97625D01*
X-40782Y97648D01*
X-40837Y97669D01*
X-40902Y97687D01*
X-40979Y97702D01*
X-41398Y97735D01*
X-41530Y97736D01*
Y99114D01*
X-41277Y99120D01*
X-41067Y99136D01*
X-40979Y99149D01*
X-40902Y99164D01*
X-40837Y99182D01*
X-40782Y99202D01*
X-40738Y99226D01*
X-40706Y99252D01*
Y97598D01*
D02*
G37*
G36*
X67827Y97453D02*
X67813Y97507D01*
X67772Y97555D01*
X67703Y97597D01*
X67606Y97634D01*
X67482Y97665D01*
X67331Y97691D01*
X67152Y97711D01*
X66711Y97733D01*
X66449Y97736D01*
Y99114D01*
X66712Y99121D01*
X66948Y99142D01*
X67156Y99176D01*
X67337Y99224D01*
X67490Y99286D01*
X67615Y99362D01*
X67712Y99452D01*
X67782Y99555D01*
X67824Y99672D01*
X67839Y99803D01*
X67827Y97453D01*
D02*
G37*
G36*
X15353Y101751D02*
X15292Y101588D01*
X15237Y101377D01*
X15190Y101118D01*
X15063Y99098D01*
X15061Y98819D01*
X15063Y98539D01*
X15190Y96520D01*
X15237Y96261D01*
X15292Y96050D01*
X15353Y95887D01*
X15423Y95773D01*
X11743D01*
X11812Y95887D01*
X11874Y96050D01*
X11928Y96261D01*
X11975Y96520D01*
X12048Y97183D01*
X12092Y98039D01*
X12103Y98819D01*
X12092Y99599D01*
X12048Y100455D01*
X11975Y101118D01*
X11928Y101377D01*
X11874Y101588D01*
X11812Y101751D01*
X11743Y101865D01*
X15423D01*
X15353Y101751D01*
D02*
G37*
G36*
X-11812D02*
X-11874Y101588D01*
X-11928Y101377D01*
X-11975Y101118D01*
X-12048Y100455D01*
X-12092Y99599D01*
X-12104Y98724D01*
X-12103Y98539D01*
X-11975Y96520D01*
X-11928Y96261D01*
X-11874Y96050D01*
X-11812Y95887D01*
X-11743Y95773D01*
X-15423D01*
X-15353Y95887D01*
X-15292Y96050D01*
X-15237Y96261D01*
X-15190Y96520D01*
X-15117Y97183D01*
X-15074Y98039D01*
X-15062Y98914D01*
X-15063Y99098D01*
X-15190Y101118D01*
X-15237Y101377D01*
X-15292Y101588D01*
X-15353Y101751D01*
X-15423Y101865D01*
X-11743D01*
X-11812Y101751D01*
D02*
G37*
G36*
X51553Y95657D02*
X51280Y95375D01*
X50851Y94868D01*
X50695Y94644D01*
X50578Y94439D01*
X50501Y94254D01*
X50462Y94089D01*
Y93942D01*
X50501Y93816D01*
X50578Y93709D01*
X48630Y95657D01*
X48737Y95579D01*
X48864Y95540D01*
X49010D01*
X49175Y95579D01*
X49361Y95657D01*
X49565Y95774D01*
X49789Y95930D01*
X50033Y96125D01*
X50578Y96632D01*
X51553Y95657D01*
D02*
G37*
G36*
X-54259Y95870D02*
X-54613Y95506D01*
X-55400Y94575D01*
X-55571Y94318D01*
X-55695Y94088D01*
X-55774Y93884D01*
X-55806Y93708D01*
X-55792Y93558D01*
X-55733Y93434D01*
X-57395Y95645D01*
X-57301Y95556D01*
X-57185Y95509D01*
X-57046Y95503D01*
X-56885Y95539D01*
X-56701Y95617D01*
X-56495Y95737D01*
X-56267Y95898D01*
X-56016Y96101D01*
X-55446Y96632D01*
X-54259Y95870D01*
D02*
G37*
G36*
X71129Y97451D02*
X71012Y97409D01*
X70908Y97340D01*
X70819Y97243D01*
X70743Y97118D01*
X70681Y96965D01*
X70633Y96784D01*
X70598Y96575D01*
X70588Y96457D01*
X70598Y96338D01*
X70633Y96130D01*
X70681Y95949D01*
X70743Y95796D01*
X70819Y95671D01*
X70908Y95574D01*
X71012Y95504D01*
X71129Y95462D01*
X71260Y95448D01*
X68504D01*
X68635Y95462D01*
X68752Y95504D01*
X68855Y95574D01*
X68945Y95671D01*
X69021Y95796D01*
X69083Y95949D01*
X69131Y96130D01*
X69165Y96338D01*
X69176Y96457D01*
X69165Y96575D01*
X69131Y96784D01*
X69083Y96965D01*
X69021Y97118D01*
X68945Y97243D01*
X68855Y97340D01*
X68752Y97409D01*
X68635Y97451D01*
X68504Y97465D01*
X71260D01*
X71129Y97451D01*
D02*
G37*
G36*
X-68635Y97451D02*
X-68752Y97409D01*
X-68855Y97340D01*
X-68945Y97243D01*
X-69021Y97117D01*
X-69083Y96965D01*
X-69131Y96784D01*
X-69165Y96575D01*
X-69176Y96457D01*
X-69165Y96338D01*
X-69131Y96130D01*
X-69083Y95949D01*
X-69021Y95796D01*
X-68945Y95671D01*
X-68855Y95574D01*
X-68752Y95504D01*
X-68635Y95462D01*
X-68504Y95448D01*
X-71260D01*
X-71129Y95462D01*
X-71012Y95504D01*
X-70908Y95574D01*
X-70819Y95671D01*
X-70743Y95796D01*
X-70681Y95949D01*
X-70633Y96130D01*
X-70598Y96338D01*
X-70588Y96457D01*
X-70598Y96575D01*
X-70633Y96784D01*
X-70681Y96965D01*
X-70743Y97117D01*
X-70819Y97243D01*
X-70908Y97340D01*
X-71012Y97409D01*
X-71129Y97451D01*
X-71260Y97465D01*
X-68504D01*
X-68635Y97451D01*
D02*
G37*
G36*
X-24886Y96969D02*
X-24714Y96829D01*
X-24543Y96711D01*
X-24375Y96616D01*
X-24208Y96544D01*
X-24043Y96495D01*
X-23880Y96469D01*
X-23719Y96465D01*
X-23560Y96484D01*
X-23402Y96526D01*
X-25000Y94281D01*
X-25009Y94450D01*
X-25036Y94620D01*
X-25079Y94790D01*
X-25140Y94960D01*
X-25217Y95131D01*
X-25312Y95301D01*
X-25424Y95472D01*
X-25553Y95643D01*
X-25699Y95815D01*
X-25862Y95986D01*
X-25060Y97132D01*
X-24886Y96969D01*
D02*
G37*
G36*
X40738Y95092D02*
X40782Y95069D01*
X40837Y95048D01*
X40902Y95030D01*
X40979Y95015D01*
X41067Y95002D01*
X41277Y94986D01*
X41530Y94980D01*
Y93602D01*
X41398Y93601D01*
X40979Y93568D01*
X40902Y93553D01*
X40837Y93535D01*
X40782Y93514D01*
X40738Y93491D01*
X40706Y93465D01*
Y95118D01*
X40738Y95092D01*
D02*
G37*
G36*
X39019Y93465D02*
X38986Y93491D01*
X38943Y93514D01*
X38888Y93535D01*
X38822Y93553D01*
X38745Y93568D01*
X38326Y93601D01*
X38194Y93602D01*
Y94980D01*
X38448Y94986D01*
X38657Y95002D01*
X38745Y95015D01*
X38822Y95030D01*
X38888Y95048D01*
X38943Y95069D01*
X38986Y95092D01*
X39019Y95118D01*
Y93465D01*
D02*
G37*
G36*
X48252Y92913D02*
X48238Y93044D01*
X48196Y93161D01*
X48126Y93265D01*
X48028Y93354D01*
X47903Y93430D01*
X47750Y93492D01*
X47570Y93540D01*
X47362Y93575D01*
X47126Y93595D01*
X46862Y93602D01*
Y94980D01*
X47124Y94987D01*
X47358Y95007D01*
X47565Y95041D01*
X47744Y95089D01*
X47896Y95150D01*
X48020Y95224D01*
X48116Y95312D01*
X48185Y95414D01*
X48226Y95529D01*
X48240Y95657D01*
X48252Y92913D01*
D02*
G37*
G36*
X24663Y95538D02*
X24783Y95421D01*
X24919Y95318D01*
X25069Y95228D01*
X25234Y95153D01*
X25413Y95091D01*
X25607Y95042D01*
X25815Y95008D01*
X26038Y94987D01*
X26275Y94980D01*
Y93602D01*
X26038Y93595D01*
X25815Y93575D01*
X25607Y93540D01*
X25413Y93492D01*
X25234Y93430D01*
X25069Y93354D01*
X24919Y93265D01*
X24783Y93161D01*
X24663Y93044D01*
X24556Y92913D01*
Y95669D01*
X24663Y95538D01*
D02*
G37*
G36*
X-58047Y92224D02*
X-58061Y92355D01*
X-58102Y92472D01*
X-58172Y92576D01*
X-58269Y92665D01*
X-58394Y92741D01*
X-58547Y92803D01*
X-58728Y92851D01*
X-58936Y92886D01*
X-59173Y92906D01*
X-59437Y92913D01*
Y94291D01*
X-59173Y94298D01*
X-58936Y94319D01*
X-58728Y94353D01*
X-58547Y94402D01*
X-58394Y94464D01*
X-58269Y94539D01*
X-58172Y94629D01*
X-58102Y94732D01*
X-58061Y94849D01*
X-58047Y94980D01*
Y92224D01*
D02*
G37*
G36*
X-67825Y94849D02*
X-67783Y94732D01*
X-67714Y94629D01*
X-67616Y94539D01*
X-67491Y94464D01*
X-67339Y94402D01*
X-67158Y94353D01*
X-66949Y94319D01*
X-66713Y94298D01*
X-66449Y94291D01*
Y92913D01*
X-66713Y92906D01*
X-66949Y92886D01*
X-67158Y92851D01*
X-67339Y92803D01*
X-67491Y92741D01*
X-67616Y92665D01*
X-67714Y92576D01*
X-67783Y92472D01*
X-67825Y92355D01*
X-67839Y92224D01*
Y94980D01*
X-67825Y94849D01*
D02*
G37*
G36*
X-5139Y92010D02*
X-5272Y92036D01*
X-5407Y92043D01*
X-5544Y92031D01*
X-5683Y92000D01*
X-5824Y91951D01*
X-5968Y91883D01*
X-6113Y91795D01*
X-6261Y91690D01*
X-6410Y91565D01*
X-6562Y91421D01*
X-7398Y92256D01*
X-7254Y92408D01*
X-7129Y92558D01*
X-7023Y92706D01*
X-6936Y92851D01*
X-6868Y92995D01*
X-6819Y93136D01*
X-6788Y93275D01*
X-6776Y93412D01*
X-6783Y93547D01*
X-6809Y93680D01*
X-5139Y92010D01*
D02*
G37*
G36*
X6783Y93547D02*
X6776Y93412D01*
X6788Y93275D01*
X6819Y93136D01*
X6868Y92995D01*
X6936Y92851D01*
X7023Y92706D01*
X7129Y92558D01*
X7254Y92408D01*
X7398Y92256D01*
X6562Y91421D01*
X6410Y91565D01*
X6261Y91690D01*
X6113Y91795D01*
X5968Y91883D01*
X5824Y91951D01*
X5683Y92000D01*
X5544Y92031D01*
X5407Y92043D01*
X5272Y92036D01*
X5139Y92010D01*
X6809Y93680D01*
X6783Y93547D01*
D02*
G37*
G36*
X-66992Y85618D02*
X-67227Y85375D01*
X-67597Y84939D01*
X-67731Y84746D01*
X-67833Y84571D01*
X-67901Y84412D01*
X-67936Y84271D01*
X-67937Y84146D01*
X-67905Y84038D01*
X-67839Y83948D01*
X-69497Y85606D01*
X-69406Y85540D01*
X-69299Y85508D01*
X-69174Y85509D01*
X-69032Y85544D01*
X-68874Y85612D01*
X-68698Y85713D01*
X-68506Y85848D01*
X-68296Y86016D01*
X-67827Y86453D01*
X-66992Y85618D01*
D02*
G37*
G36*
X68070Y86218D02*
X68506Y85848D01*
X68698Y85713D01*
X68874Y85612D01*
X69032Y85544D01*
X69174Y85509D01*
X69299Y85508D01*
X69406Y85540D01*
X69497Y85606D01*
X67839Y83948D01*
X67905Y84038D01*
X67937Y84146D01*
X67936Y84271D01*
X67901Y84412D01*
X67833Y84571D01*
X67731Y84746D01*
X67597Y84939D01*
X67428Y85148D01*
X66992Y85618D01*
X67827Y86453D01*
X68070Y86218D01*
D02*
G37*
G36*
X24303Y86950D02*
X24551Y86797D01*
X24805Y86662D01*
X25065Y86545D01*
X25331Y86446D01*
X25603Y86365D01*
X25881Y86301D01*
X26166Y86256D01*
X26457Y86229D01*
X26754Y86221D01*
X26754Y84252D01*
X26457Y84243D01*
X26166Y84216D01*
X25881Y84171D01*
X25603Y84108D01*
X25331Y84027D01*
X25065Y83928D01*
X24805Y83811D01*
X24551Y83675D01*
X24303Y83522D01*
X24061Y83351D01*
X24062Y87121D01*
X24303Y86950D01*
D02*
G37*
G36*
X-24062Y83351D02*
X-24303Y83522D01*
X-24551Y83675D01*
X-24805Y83811D01*
X-25065Y83928D01*
X-25331Y84027D01*
X-25603Y84108D01*
X-25881Y84171D01*
X-26166Y84216D01*
X-26457Y84243D01*
X-26754Y84252D01*
X-26754Y86221D01*
X-26457Y86229D01*
X-26166Y86256D01*
X-25881Y86301D01*
X-25603Y86365D01*
X-25331Y86446D01*
X-25065Y86545D01*
X-24805Y86662D01*
X-24551Y86797D01*
X-24303Y86950D01*
X-24062Y87121D01*
X-24062Y83351D01*
D02*
G37*
G36*
X-14405Y83022D02*
X-14508Y83051D01*
X-14614Y83064D01*
X-14723Y83059D01*
X-14834Y83038D01*
X-14949Y83000D01*
X-15066Y82946D01*
X-15186Y82874D01*
X-15309Y82786D01*
X-15435Y82680D01*
X-15564Y82559D01*
X-16260Y83254D01*
X-16138Y83384D01*
X-16033Y83509D01*
X-15945Y83633D01*
X-15873Y83753D01*
X-15819Y83870D01*
X-15781Y83985D01*
X-15760Y84096D01*
X-15755Y84205D01*
X-15768Y84311D01*
X-15797Y84414D01*
X-14405Y83022D01*
D02*
G37*
G36*
X49126Y81705D02*
X49106Y81890D01*
X49047Y82055D01*
X48949Y82201D01*
X48811Y82327D01*
X48634Y82434D01*
X48417Y82522D01*
X48162Y82590D01*
X47866Y82638D01*
X47532Y82667D01*
X47158Y82677D01*
Y84646D01*
X47532Y84655D01*
X47866Y84685D01*
X48162Y84733D01*
X48417Y84801D01*
X48634Y84889D01*
X48811Y84996D01*
X48949Y85122D01*
X49047Y85268D01*
X49106Y85433D01*
X49126Y85618D01*
Y81705D01*
D02*
G37*
G36*
X-49106Y85433D02*
X-49047Y85268D01*
X-48949Y85122D01*
X-48811Y84996D01*
X-48634Y84889D01*
X-48417Y84801D01*
X-48162Y84733D01*
X-47866Y84685D01*
X-47532Y84655D01*
X-47158Y84646D01*
Y82677D01*
X-47532Y82667D01*
X-47866Y82638D01*
X-48162Y82590D01*
X-48417Y82522D01*
X-48634Y82434D01*
X-48811Y82327D01*
X-48949Y82201D01*
X-49047Y82055D01*
X-49106Y81890D01*
X-49126Y81705D01*
Y85618D01*
X-49106Y85433D01*
D02*
G37*
G36*
X-16502Y81621D02*
X-16584Y81534D01*
X-16657Y81447D01*
X-16722Y81358D01*
X-16778Y81270D01*
X-16825Y81180D01*
X-16863Y81090D01*
X-16893Y80998D01*
X-16914Y80906D01*
X-16926Y80814D01*
X-16929Y80721D01*
X-18098Y81890D01*
X-18005Y81893D01*
X-17912Y81905D01*
X-17821Y81926D01*
X-17729Y81956D01*
X-17639Y81994D01*
X-17549Y82041D01*
X-17460Y82097D01*
X-17372Y82162D01*
X-17285Y82235D01*
X-17198Y82317D01*
X-16502Y81621D01*
D02*
G37*
G36*
X71663Y81697D02*
X71496Y81638D01*
X71348Y81539D01*
X71220Y81400D01*
X71112Y81222D01*
X71024Y81004D01*
X70955Y80747D01*
X70948Y80709D01*
X70955Y80671D01*
X71024Y80413D01*
X71112Y80195D01*
X71220Y80017D01*
X71348Y79879D01*
X71496Y79780D01*
X71663Y79720D01*
X71850Y79700D01*
X67913D01*
X68100Y79720D01*
X68268Y79780D01*
X68415Y79879D01*
X68543Y80017D01*
X68651Y80195D01*
X68740Y80413D01*
X68809Y80671D01*
X68815Y80709D01*
X68809Y80747D01*
X68740Y81004D01*
X68651Y81222D01*
X68543Y81400D01*
X68415Y81539D01*
X68268Y81638D01*
X68100Y81697D01*
X67913Y81717D01*
X71850D01*
X71663Y81697D01*
D02*
G37*
G36*
X-68100D02*
X-68268Y81638D01*
X-68415Y81539D01*
X-68543Y81400D01*
X-68651Y81222D01*
X-68740Y81004D01*
X-68809Y80747D01*
X-68815Y80709D01*
X-68809Y80671D01*
X-68740Y80413D01*
X-68651Y80195D01*
X-68543Y80017D01*
X-68415Y79879D01*
X-68268Y79780D01*
X-68100Y79720D01*
X-67913Y79700D01*
X-71850D01*
X-71663Y79720D01*
X-71496Y79780D01*
X-71348Y79879D01*
X-71220Y80017D01*
X-71112Y80195D01*
X-71024Y80413D01*
X-70955Y80671D01*
X-70948Y80709D01*
X-70955Y80747D01*
X-71024Y81004D01*
X-71112Y81222D01*
X-71220Y81400D01*
X-71348Y81539D01*
X-71496Y81638D01*
X-71663Y81697D01*
X-71850Y81717D01*
X-67913D01*
X-68100Y81697D01*
D02*
G37*
G36*
X49126Y75799D02*
X49106Y75984D01*
X49047Y76149D01*
X48949Y76295D01*
X48811Y76422D01*
X48634Y76529D01*
X48417Y76616D01*
X48162Y76684D01*
X47866Y76733D01*
X47532Y76762D01*
X47158Y76772D01*
Y78740D01*
X47532Y78750D01*
X47866Y78779D01*
X48162Y78828D01*
X48417Y78896D01*
X48634Y78983D01*
X48811Y79090D01*
X48949Y79216D01*
X49047Y79362D01*
X49106Y79528D01*
X49126Y79712D01*
Y75799D01*
D02*
G37*
G36*
X-49106Y79528D02*
X-49047Y79362D01*
X-48949Y79216D01*
X-48811Y79090D01*
X-48634Y78983D01*
X-48417Y78896D01*
X-48162Y78828D01*
X-47866Y78779D01*
X-47532Y78750D01*
X-47158Y78740D01*
Y76772D01*
X-47532Y76762D01*
X-47866Y76733D01*
X-48162Y76684D01*
X-48417Y76616D01*
X-48634Y76529D01*
X-48811Y76422D01*
X-48949Y76295D01*
X-49047Y76149D01*
X-49106Y75984D01*
X-49126Y75799D01*
Y79712D01*
X-49106Y79528D01*
D02*
G37*
G36*
X24303Y77895D02*
X24551Y77742D01*
X24805Y77607D01*
X25065Y77490D01*
X25331Y77390D01*
X25603Y77310D01*
X25881Y77246D01*
X26166Y77201D01*
X26457Y77174D01*
X26754Y77165D01*
Y75197D01*
X26457Y75188D01*
X26166Y75161D01*
X25881Y75116D01*
X25603Y75053D01*
X25331Y74972D01*
X25065Y74873D01*
X24805Y74756D01*
X24551Y74620D01*
X24303Y74467D01*
X24061Y74296D01*
Y78066D01*
X24303Y77895D01*
D02*
G37*
G36*
X-24062Y74296D02*
X-24303Y74467D01*
X-24551Y74620D01*
X-24805Y74756D01*
X-25065Y74873D01*
X-25331Y74972D01*
X-25603Y75053D01*
X-25881Y75116D01*
X-26166Y75161D01*
X-26457Y75188D01*
X-26754Y75197D01*
Y77165D01*
X-26457Y77174D01*
X-26166Y77201D01*
X-25881Y77246D01*
X-25603Y77310D01*
X-25331Y77390D01*
X-25065Y77490D01*
X-24805Y77607D01*
X-24551Y77742D01*
X-24303Y77895D01*
X-24062Y78066D01*
Y74296D01*
D02*
G37*
G36*
X-14405Y73967D02*
X-14508Y73996D01*
X-14614Y74009D01*
X-14723Y74004D01*
X-14834Y73983D01*
X-14949Y73945D01*
X-15066Y73890D01*
X-15186Y73819D01*
X-15309Y73730D01*
X-15435Y73625D01*
X-15564Y73504D01*
X-16260Y74199D01*
X-16138Y74328D01*
X-16033Y74454D01*
X-15945Y74577D01*
X-15873Y74698D01*
X-15819Y74815D01*
X-15781Y74930D01*
X-15760Y75041D01*
X-15755Y75150D01*
X-15768Y75256D01*
X-15797Y75359D01*
X-14405Y73967D01*
D02*
G37*
G36*
X71663Y75792D02*
X71496Y75732D01*
X71348Y75633D01*
X71220Y75494D01*
X71112Y75316D01*
X71024Y75098D01*
X70955Y74841D01*
X70948Y74803D01*
X70955Y74765D01*
X71024Y74508D01*
X71112Y74290D01*
X71220Y74112D01*
X71348Y73973D01*
X71496Y73874D01*
X71663Y73815D01*
X71850Y73795D01*
X67913D01*
X68100Y73815D01*
X68268Y73874D01*
X68415Y73973D01*
X68543Y74112D01*
X68651Y74290D01*
X68740Y74508D01*
X68809Y74765D01*
X68815Y74803D01*
X68809Y74841D01*
X68740Y75098D01*
X68651Y75316D01*
X68543Y75494D01*
X68415Y75633D01*
X68268Y75732D01*
X68100Y75792D01*
X67913Y75811D01*
X71850D01*
X71663Y75792D01*
D02*
G37*
G36*
X-68100D02*
X-68268Y75732D01*
X-68415Y75633D01*
X-68543Y75494D01*
X-68651Y75316D01*
X-68740Y75098D01*
X-68809Y74841D01*
X-68815Y74803D01*
X-68809Y74765D01*
X-68740Y74508D01*
X-68651Y74290D01*
X-68543Y74112D01*
X-68415Y73973D01*
X-68268Y73874D01*
X-68100Y73815D01*
X-67913Y73795D01*
X-71850D01*
X-71663Y73815D01*
X-71496Y73874D01*
X-71348Y73973D01*
X-71220Y74112D01*
X-71112Y74290D01*
X-71024Y74508D01*
X-70955Y74765D01*
X-70948Y74803D01*
X-70955Y74841D01*
X-71024Y75098D01*
X-71112Y75316D01*
X-71220Y75494D01*
X-71348Y75633D01*
X-71496Y75732D01*
X-71663Y75792D01*
X-71850Y75811D01*
X-67913D01*
X-68100Y75792D01*
D02*
G37*
G36*
X-16502Y72566D02*
X-16584Y72479D01*
X-16657Y72392D01*
X-16722Y72303D01*
X-16778Y72214D01*
X-16825Y72125D01*
X-16863Y72034D01*
X-16893Y71943D01*
X-16914Y71851D01*
X-16926Y71759D01*
X-16929Y71665D01*
X-18098Y72835D01*
X-18005Y72838D01*
X-17912Y72850D01*
X-17821Y72871D01*
X-17729Y72901D01*
X-17639Y72939D01*
X-17549Y72986D01*
X-17460Y73042D01*
X-17372Y73106D01*
X-17285Y73180D01*
X-17198Y73262D01*
X-16502Y72566D01*
D02*
G37*
G36*
X21226Y65232D02*
X21140Y65274D01*
X21003Y65312D01*
X20813Y65345D01*
X20571Y65373D01*
X19530Y65433D01*
X18061Y65452D01*
X17647Y65451D01*
X15218Y65312D01*
X15080Y65274D01*
X14995Y65232D01*
X15131Y68910D01*
X15270Y68814D01*
X15453Y68728D01*
X15680Y68653D01*
X15952Y68587D01*
X16269Y68532D01*
X17036Y68451D01*
X17982Y68411D01*
X18110Y68409D01*
X18239Y68411D01*
X19951Y68532D01*
X20268Y68587D01*
X20540Y68653D01*
X20768Y68728D01*
X20951Y68814D01*
X21089Y68910D01*
X21226Y65232D01*
D02*
G37*
G36*
X12171D02*
X12085Y65274D01*
X11948Y65312D01*
X9519Y65451D01*
X9055Y65452D01*
X8591Y65451D01*
X6163Y65312D01*
X6025Y65274D01*
X5940Y65232D01*
X6076Y68910D01*
X6214Y68814D01*
X6397Y68728D01*
X6625Y68653D01*
X6897Y68587D01*
X7214Y68532D01*
X7981Y68451D01*
X8926Y68411D01*
X9055Y68409D01*
X9184Y68411D01*
X10129Y68451D01*
X10896Y68532D01*
X11213Y68587D01*
X11485Y68653D01*
X11713Y68728D01*
X11896Y68814D01*
X12034Y68910D01*
X12171Y65232D01*
D02*
G37*
G36*
X3115D02*
X3030Y65274D01*
X2893Y65312D01*
X2703Y65345D01*
X2460Y65373D01*
X1419Y65433D01*
X-50Y65452D01*
X-464Y65451D01*
X-2893Y65312D01*
X-3030Y65274D01*
X-3115Y65232D01*
X-2979Y68910D01*
X-2841Y68814D01*
X-2658Y68728D01*
X-2430Y68653D01*
X-2158Y68587D01*
X-1841Y68532D01*
X-1074Y68451D01*
X-129Y68411D01*
X0Y68409D01*
X129Y68411D01*
X1841Y68532D01*
X2158Y68587D01*
X2430Y68653D01*
X2658Y68728D01*
X2841Y68814D01*
X2979Y68910D01*
X3115Y65232D01*
D02*
G37*
G36*
X71663Y69886D02*
X71496Y69827D01*
X71348Y69728D01*
X71220Y69589D01*
X71112Y69411D01*
X71024Y69193D01*
X70955Y68936D01*
X70948Y68898D01*
X70955Y68860D01*
X71024Y68602D01*
X71112Y68384D01*
X71220Y68206D01*
X71348Y68068D01*
X71496Y67969D01*
X71663Y67909D01*
X71850Y67889D01*
X67913D01*
X68100Y67909D01*
X68268Y67969D01*
X68415Y68068D01*
X68543Y68206D01*
X68651Y68384D01*
X68740Y68602D01*
X68809Y68860D01*
X68815Y68898D01*
X68809Y68936D01*
X68740Y69193D01*
X68651Y69411D01*
X68543Y69589D01*
X68415Y69728D01*
X68268Y69827D01*
X68100Y69886D01*
X67913Y69906D01*
X71850D01*
X71663Y69886D01*
D02*
G37*
G36*
X-68100D02*
X-68268Y69827D01*
X-68415Y69728D01*
X-68543Y69589D01*
X-68651Y69411D01*
X-68740Y69193D01*
X-68809Y68936D01*
X-68815Y68898D01*
X-68809Y68860D01*
X-68740Y68602D01*
X-68651Y68384D01*
X-68543Y68206D01*
X-68415Y68068D01*
X-68268Y67969D01*
X-68100Y67909D01*
X-67913Y67889D01*
X-71850D01*
X-71663Y67909D01*
X-71496Y67969D01*
X-71348Y68068D01*
X-71220Y68206D01*
X-71112Y68384D01*
X-71024Y68602D01*
X-70955Y68860D01*
X-70948Y68898D01*
X-70955Y68936D01*
X-71024Y69193D01*
X-71112Y69411D01*
X-71220Y69589D01*
X-71348Y69728D01*
X-71496Y69827D01*
X-71663Y69886D01*
X-71850Y69906D01*
X-67913D01*
X-68100Y69886D01*
D02*
G37*
G36*
X49126Y69894D02*
X49679D01*
X49699Y70293D01*
X49705Y70854D01*
X52657D01*
X52663Y70293D01*
X52689Y69894D01*
X53236D01*
X53126Y69864D01*
X53028Y69776D01*
X52941Y69628D01*
X52866Y69421D01*
X52802Y69156D01*
X52761Y68898D01*
X52802Y68640D01*
X52866Y68374D01*
X52941Y68167D01*
X53028Y68019D01*
X53126Y67931D01*
X53236Y67901D01*
X52683D01*
X52663Y67502D01*
X52657Y66941D01*
X49705D01*
X49699Y67502D01*
X49673Y67901D01*
X49126D01*
X49236Y67931D01*
X49334Y68019D01*
X49421Y68167D01*
X49496Y68374D01*
X49560Y68640D01*
X49601Y68898D01*
X49560Y69156D01*
X49496Y69421D01*
X49421Y69628D01*
X49334Y69776D01*
X49236Y69864D01*
X49126Y69894D01*
X49097Y69985D01*
X49008Y70067D01*
X48860Y70139D01*
X48654Y70201D01*
X48388Y70254D01*
X48063Y70297D01*
X47236Y70355D01*
X46173Y70374D01*
Y73327D01*
X46734Y73332D01*
X48388Y73447D01*
X48654Y73500D01*
X48860Y73562D01*
X49008Y73634D01*
X49097Y73716D01*
X49126Y73807D01*
Y69894D01*
D02*
G37*
G36*
X-24785Y66142D02*
X-24837Y66235D01*
X-24903Y66319D01*
X-24983Y66393D01*
X-25077Y66457D01*
X-25185Y66511D01*
X-25306Y66555D01*
X-25442Y66590D01*
X-25592Y66614D01*
X-25755Y66629D01*
X-25932Y66634D01*
Y67618D01*
X-25755Y67623D01*
X-25592Y67638D01*
X-25442Y67662D01*
X-25306Y67697D01*
X-25185Y67741D01*
X-25077Y67795D01*
X-24983Y67859D01*
X-24903Y67933D01*
X-24837Y68017D01*
X-24785Y68110D01*
Y66142D01*
D02*
G37*
G36*
X24234Y68897D02*
X24396Y68835D01*
X24607Y68780D01*
X24866Y68733D01*
X25530Y68660D01*
X26386Y68617D01*
X27435Y68602D01*
Y65650D01*
X26886Y65646D01*
X24866Y65519D01*
X24607Y65472D01*
X24396Y65417D01*
X24234Y65355D01*
X24119Y65286D01*
Y68966D01*
X24234Y68897D01*
D02*
G37*
G36*
X-14405Y64912D02*
X-14508Y64941D01*
X-14614Y64953D01*
X-14723Y64949D01*
X-14834Y64928D01*
X-14949Y64890D01*
X-15066Y64835D01*
X-15186Y64764D01*
X-15309Y64675D01*
X-15436Y64570D01*
X-15564Y64448D01*
X-16260Y65144D01*
X-16138Y65273D01*
X-16033Y65399D01*
X-15945Y65522D01*
X-15873Y65643D01*
X-15819Y65760D01*
X-15781Y65874D01*
X-15760Y65986D01*
X-15755Y66095D01*
X-15768Y66201D01*
X-15797Y66303D01*
X-14405Y64912D01*
D02*
G37*
G36*
X-16502Y63511D02*
X-16584Y63424D01*
X-16657Y63336D01*
X-16722Y63248D01*
X-16778Y63159D01*
X-16825Y63070D01*
X-16863Y62979D01*
X-16893Y62888D01*
X-16914Y62796D01*
X-16926Y62704D01*
X-16929Y62610D01*
X-18098Y63779D01*
X-18005Y63783D01*
X-17912Y63795D01*
X-17821Y63816D01*
X-17729Y63846D01*
X-17639Y63884D01*
X-17549Y63931D01*
X-17460Y63987D01*
X-17372Y64051D01*
X-17285Y64125D01*
X-17198Y64207D01*
X-16502Y63511D01*
D02*
G37*
G36*
X77391Y63982D02*
X77240Y63929D01*
X77107Y63840D01*
X76992Y63715D01*
X76895Y63555D01*
X76815Y63358D01*
X76753Y63126D01*
X76709Y62859D01*
X76682Y62556D01*
X76673Y62217D01*
X74901D01*
X74893Y62556D01*
X74866Y62859D01*
X74822Y63126D01*
X74760Y63358D01*
X74680Y63555D01*
X74583Y63715D01*
X74467Y63840D01*
X74335Y63929D01*
X74184Y63982D01*
X74016Y64000D01*
X77559D01*
X77391Y63982D01*
D02*
G37*
G36*
X-74184D02*
X-74335Y63929D01*
X-74467Y63840D01*
X-74583Y63715D01*
X-74680Y63555D01*
X-74760Y63358D01*
X-74822Y63126D01*
X-74866Y62859D01*
X-74893Y62556D01*
X-74902Y62217D01*
X-76673D01*
X-76682Y62556D01*
X-76709Y62859D01*
X-76753Y63126D01*
X-76815Y63358D01*
X-76895Y63555D01*
X-76992Y63715D01*
X-77107Y63840D01*
X-77240Y63929D01*
X-77391Y63982D01*
X-77559Y64000D01*
X-74016D01*
X-74184Y63982D01*
D02*
G37*
G36*
X52663Y64388D02*
X52689Y63988D01*
X53236D01*
X53126Y63959D01*
X53028Y63870D01*
X52941Y63723D01*
X52866Y63516D01*
X52802Y63250D01*
X52761Y62992D01*
X52802Y62734D01*
X52866Y62468D01*
X52941Y62262D01*
X53028Y62114D01*
X53126Y62025D01*
X53236Y61996D01*
X52683D01*
X52663Y61597D01*
X52657Y61036D01*
X49705D01*
X49699Y61597D01*
X49673Y61996D01*
X49126D01*
X49236Y62025D01*
X49334Y62114D01*
X49421Y62262D01*
X49496Y62468D01*
X49560Y62734D01*
X49601Y62992D01*
X49560Y63250D01*
X49496Y63516D01*
X49421Y63723D01*
X49334Y63870D01*
X49236Y63959D01*
X49126Y63988D01*
X49679D01*
X49699Y64388D01*
X49705Y64949D01*
X52657D01*
X52663Y64388D01*
D02*
G37*
G36*
X-24785Y57087D02*
X-24837Y57180D01*
X-24903Y57264D01*
X-24983Y57338D01*
X-25077Y57402D01*
X-25185Y57456D01*
X-25306Y57500D01*
X-25442Y57534D01*
X-25592Y57559D01*
X-25755Y57574D01*
X-25932Y57579D01*
Y58563D01*
X-25755Y58568D01*
X-25592Y58583D01*
X-25442Y58607D01*
X-25306Y58642D01*
X-25185Y58686D01*
X-25077Y58740D01*
X-24983Y58804D01*
X-24903Y58878D01*
X-24837Y58962D01*
X-24785Y59055D01*
Y57087D01*
D02*
G37*
G36*
X52663Y58482D02*
X52689Y58083D01*
X53236D01*
X53126Y58053D01*
X53028Y57965D01*
X52941Y57817D01*
X52866Y57610D01*
X52802Y57345D01*
X52761Y57087D01*
X52802Y56828D01*
X52866Y56563D01*
X52941Y56356D01*
X53028Y56208D01*
X53126Y56120D01*
X53236Y56090D01*
X52683D01*
X52663Y55691D01*
X52657Y55130D01*
X49705D01*
X49699Y55691D01*
X49673Y56090D01*
X49126D01*
X49236Y56120D01*
X49334Y56208D01*
X49421Y56356D01*
X49496Y56563D01*
X49560Y56828D01*
X49601Y57087D01*
X49560Y57345D01*
X49496Y57610D01*
X49421Y57817D01*
X49334Y57965D01*
X49236Y58053D01*
X49126Y58083D01*
X49679D01*
X49699Y58482D01*
X49705Y59043D01*
X52657D01*
X52663Y58482D01*
D02*
G37*
G36*
X59030Y54546D02*
X58982Y54384D01*
X58983Y54197D01*
X59034Y53984D01*
X59136Y53746D01*
X59287Y53483D01*
X59489Y53195D01*
X59740Y52881D01*
X60394Y52177D01*
X59141Y50925D01*
X58777Y51277D01*
X58124Y51830D01*
X57836Y52032D01*
X57573Y52183D01*
X57335Y52285D01*
X57122Y52336D01*
X56935Y52337D01*
X56773Y52288D01*
X56636Y52189D01*
X59130Y54683D01*
X59030Y54546D01*
D02*
G37*
G36*
X66646Y47697D02*
X66408Y47441D01*
X66195Y47175D01*
X66008Y46898D01*
X65845Y46612D01*
X65707Y46314D01*
X65594Y46007D01*
X65506Y45689D01*
X65444Y45360D01*
X65406Y45022D01*
X65394Y44672D01*
X63622D01*
X63609Y45022D01*
X63572Y45360D01*
X63509Y45689D01*
X63422Y46007D01*
X63309Y46314D01*
X63171Y46612D01*
X63008Y46898D01*
X62820Y47175D01*
X62607Y47441D01*
X62369Y47697D01*
X63255Y49316D01*
X63506Y49091D01*
X63756Y48916D01*
X64007Y48790D01*
X64257Y48715D01*
X64508Y48690D01*
X64758Y48715D01*
X65009Y48790D01*
X65259Y48916D01*
X65510Y49091D01*
X65761Y49316D01*
X66646Y47697D01*
D02*
G37*
G36*
X65411Y41691D02*
X65465Y41390D01*
X65553Y41124D01*
X65677Y40894D01*
X65837Y40699D01*
X66031Y40539D01*
X66262Y40415D01*
X66527Y40327D01*
X66829Y40274D01*
X67165Y40256D01*
Y38484D01*
X66829Y38467D01*
X66527Y38413D01*
X66262Y38325D01*
X66031Y38201D01*
X65837Y38041D01*
X65677Y37846D01*
X65553Y37616D01*
X65465Y37350D01*
X65411Y37049D01*
X65394Y36713D01*
X63622D01*
X63604Y37049D01*
X63551Y37350D01*
X63463Y37616D01*
X63339Y37846D01*
X63179Y38041D01*
X62984Y38201D01*
X62754Y38325D01*
X62488Y38413D01*
X62187Y38467D01*
X61850Y38484D01*
Y40256D01*
X62187Y40274D01*
X62488Y40327D01*
X62754Y40415D01*
X62984Y40539D01*
X63179Y40699D01*
X63339Y40894D01*
X63463Y41124D01*
X63551Y41390D01*
X63604Y41691D01*
X63622Y42028D01*
X65394D01*
X65411Y41691D01*
D02*
G37*
G36*
X-66941Y28346D02*
X-67034Y28343D01*
X-67127Y28331D01*
X-67219Y28310D01*
X-67310Y28280D01*
X-67400Y28242D01*
X-67490Y28195D01*
X-67579Y28139D01*
X-67667Y28075D01*
X-67755Y28001D01*
X-67842Y27919D01*
X-68537Y28615D01*
X-68455Y28702D01*
X-68382Y28789D01*
X-68318Y28878D01*
X-68262Y28967D01*
X-68215Y29056D01*
X-68176Y29147D01*
X-68147Y29238D01*
X-68126Y29330D01*
X-68114Y29422D01*
X-68110Y29516D01*
X-66941Y28346D01*
D02*
G37*
G36*
X-63791Y24409D02*
X-63885Y24406D01*
X-63977Y24394D01*
X-64069Y24373D01*
X-64160Y24343D01*
X-64251Y24305D01*
X-64340Y24258D01*
X-64429Y24202D01*
X-64518Y24138D01*
X-64605Y24064D01*
X-64692Y23982D01*
X-65388Y24678D01*
X-65306Y24765D01*
X-65232Y24852D01*
X-65168Y24941D01*
X-65112Y25030D01*
X-65065Y25119D01*
X-65027Y25210D01*
X-64997Y25301D01*
X-64976Y25393D01*
X-64964Y25485D01*
X-64961Y25579D01*
X-63791Y24409D01*
D02*
G37*
G36*
X-60642Y20472D02*
X-60735Y20469D01*
X-60828Y20457D01*
X-60920Y20436D01*
X-61011Y20406D01*
X-61101Y20368D01*
X-61191Y20321D01*
X-61280Y20265D01*
X-61368Y20201D01*
X-61456Y20127D01*
X-61542Y20045D01*
X-62238Y20741D01*
X-62156Y20828D01*
X-62083Y20915D01*
X-62018Y21004D01*
X-61962Y21093D01*
X-61915Y21182D01*
X-61877Y21273D01*
X-61848Y21364D01*
X-61826Y21456D01*
X-61814Y21548D01*
X-61811Y21642D01*
X-60642Y20472D01*
D02*
G37*
G36*
X-74779Y18898D02*
X-74797Y19066D01*
X-74850Y19217D01*
X-74940Y19349D01*
X-75064Y19465D01*
X-75225Y19562D01*
X-75421Y19642D01*
X-75653Y19704D01*
X-75921Y19748D01*
X-76224Y19775D01*
X-76563Y19783D01*
Y21555D01*
X-76224Y21564D01*
X-75921Y21590D01*
X-75653Y21635D01*
X-75421Y21697D01*
X-75225Y21777D01*
X-75064Y21874D01*
X-74940Y21989D01*
X-74850Y22122D01*
X-74797Y22273D01*
X-74779Y22441D01*
Y18898D01*
D02*
G37*
G36*
X-71920Y18608D02*
X-72071Y18554D01*
X-72204Y18464D01*
X-72319Y18339D01*
X-72416Y18179D01*
X-72496Y17983D01*
X-72558Y17751D01*
X-72602Y17484D01*
X-72629Y17181D01*
X-72638Y16843D01*
X-74410D01*
X-74413Y17179D01*
X-74471Y17977D01*
X-74505Y18171D01*
X-74547Y18331D01*
X-74597Y18455D01*
X-74654Y18543D01*
X-74719Y18597D01*
X-74791Y18614D01*
X-71752Y18626D01*
X-71920Y18608D01*
D02*
G37*
G36*
X-49996Y15155D02*
X-49966Y14840D01*
X-49939Y14712D01*
X-49905Y14604D01*
X-49863Y14516D01*
X-49813Y14447D01*
X-49756Y14398D01*
X-49691Y14368D01*
X-49618Y14358D01*
X-51366D01*
X-51293Y14368D01*
X-51228Y14398D01*
X-51171Y14447D01*
X-51122Y14516D01*
X-51080Y14604D01*
X-51045Y14712D01*
X-51019Y14840D01*
X-50999Y14988D01*
X-50988Y15155D01*
X-50984Y15342D01*
X-50000D01*
X-49996Y15155D01*
D02*
G37*
G36*
X-55114D02*
X-55084Y14840D01*
X-55057Y14712D01*
X-55023Y14604D01*
X-54981Y14516D01*
X-54931Y14447D01*
X-54874Y14398D01*
X-54809Y14368D01*
X-54736Y14358D01*
X-56484D01*
X-56411Y14368D01*
X-56347Y14398D01*
X-56289Y14447D01*
X-56240Y14516D01*
X-56198Y14604D01*
X-56163Y14712D01*
X-56137Y14840D01*
X-56118Y14988D01*
X-56106Y15155D01*
X-56102Y15342D01*
X-55118D01*
X-55114Y15155D01*
D02*
G37*
G36*
X-62792D02*
X-62761Y14840D01*
X-62734Y14712D01*
X-62700Y14604D01*
X-62658Y14516D01*
X-62608Y14447D01*
X-62551Y14398D01*
X-62486Y14368D01*
X-62414Y14358D01*
X-64161D01*
X-64089Y14368D01*
X-64024Y14398D01*
X-63967Y14447D01*
X-63917Y14516D01*
X-63875Y14604D01*
X-63841Y14712D01*
X-63814Y14840D01*
X-63795Y14988D01*
X-63783Y15155D01*
X-63779Y15342D01*
X-62795D01*
X-62792Y15155D01*
D02*
G37*
G36*
X-65351D02*
X-65320Y14840D01*
X-65293Y14712D01*
X-65259Y14604D01*
X-65217Y14516D01*
X-65167Y14447D01*
X-65110Y14398D01*
X-65045Y14368D01*
X-64973Y14358D01*
X-66720D01*
X-66648Y14368D01*
X-66583Y14398D01*
X-66526Y14447D01*
X-66476Y14516D01*
X-66434Y14604D01*
X-66400Y14712D01*
X-66373Y14840D01*
X-66354Y14988D01*
X-66342Y15155D01*
X-66339Y15342D01*
X-65354D01*
X-65351Y15155D01*
D02*
G37*
G36*
X-67910D02*
X-67879Y14840D01*
X-67852Y14712D01*
X-67818Y14604D01*
X-67776Y14516D01*
X-67726Y14447D01*
X-67669Y14398D01*
X-67604Y14368D01*
X-67532Y14358D01*
X-69279D01*
X-69207Y14368D01*
X-69142Y14398D01*
X-69085Y14447D01*
X-69035Y14516D01*
X-68993Y14604D01*
X-68959Y14712D01*
X-68932Y14840D01*
X-68913Y14988D01*
X-68901Y15155D01*
X-68898Y15342D01*
X-67913D01*
X-67910Y15155D01*
D02*
G37*
G36*
X65411Y19053D02*
X65465Y18752D01*
X65553Y18486D01*
X65677Y18256D01*
X65837Y18061D01*
X66031Y17902D01*
X66262Y17777D01*
X66527Y17689D01*
X66829Y17636D01*
X67165Y17618D01*
Y15846D01*
X66829Y15829D01*
X66527Y15776D01*
X66262Y15687D01*
X66031Y15563D01*
X65837Y15404D01*
X65677Y15209D01*
X65553Y14978D01*
X65465Y14713D01*
X65430Y14517D01*
X65465Y14014D01*
X65496Y13854D01*
X65532Y13730D01*
X65575Y13642D01*
X65623Y13589D01*
X65677Y13571D01*
X63339D01*
X63393Y13589D01*
X63441Y13642D01*
X63483Y13730D01*
X63520Y13854D01*
X63551Y14014D01*
X63577Y14209D01*
X63611Y14705D01*
X63622Y15342D01*
X64549D01*
X63622Y16732D01*
X65394Y19390D01*
X65411Y19053D01*
D02*
G37*
G36*
X60494Y14968D02*
X60583Y13726D01*
X60610Y13640D01*
X60642Y13588D01*
X60677Y13571D01*
X58339D01*
X58374Y13588D01*
X58405Y13640D01*
X58433Y13726D01*
X58457Y13847D01*
X58477Y14002D01*
X58507Y14416D01*
X58524Y15295D01*
X60492D01*
X60494Y14968D01*
D02*
G37*
G36*
X47254Y13492D02*
X47283Y13157D01*
X47332Y12862D01*
X47400Y12606D01*
X47487Y12390D01*
X47594Y12212D01*
X47721Y12075D01*
X47866Y11976D01*
X48032Y11917D01*
X48216Y11897D01*
X44303D01*
X44488Y11917D01*
X44653Y11976D01*
X44799Y12075D01*
X44926Y12212D01*
X45033Y12390D01*
X45120Y12606D01*
X45188Y12862D01*
X45237Y13157D01*
X45266Y13492D01*
X45276Y13866D01*
X47244D01*
X47254Y13492D01*
D02*
G37*
G36*
X84556Y13330D02*
X84583Y13027D01*
X84627Y12760D01*
X84689Y12528D01*
X84769Y12331D01*
X84866Y12171D01*
X84981Y12046D01*
X85114Y11957D01*
X85265Y11903D01*
X85433Y11885D01*
X81890D01*
X82058Y11903D01*
X82209Y11957D01*
X82341Y12046D01*
X82457Y12171D01*
X82554Y12331D01*
X82634Y12528D01*
X82696Y12760D01*
X82740Y13027D01*
X82767Y13330D01*
X82776Y13669D01*
X84547D01*
X84556Y13330D01*
D02*
G37*
G36*
X85624Y11446D02*
X85677Y11295D01*
X85766Y11162D01*
X85891Y11047D01*
X86052Y10950D01*
X86248Y10870D01*
X86480Y10808D01*
X86747Y10764D01*
X87051Y10737D01*
X87390Y10728D01*
Y8957D01*
X87051Y8948D01*
X86747Y8921D01*
X86480Y8877D01*
X86248Y8815D01*
X86052Y8735D01*
X85891Y8638D01*
X85766Y8523D01*
X85677Y8390D01*
X85624Y8239D01*
X85606Y8071D01*
Y11614D01*
X85624Y11446D01*
D02*
G37*
G36*
X70685Y11624D02*
X70745Y11457D01*
X70845Y11309D01*
X70983Y11181D01*
X71162Y11073D01*
X71379Y10984D01*
X71637Y10915D01*
X71934Y10866D01*
X72270Y10837D01*
X72645Y10827D01*
Y8858D01*
X72272Y8849D01*
X71937Y8819D01*
X71641Y8771D01*
X71386Y8703D01*
X71169Y8615D01*
X70992Y8508D01*
X70854Y8382D01*
X70756Y8236D01*
X70697Y8071D01*
X70677Y7886D01*
X70665Y11811D01*
X70685Y11624D01*
D02*
G37*
G36*
X75811Y7874D02*
X75792Y8061D01*
X75732Y8228D01*
X75633Y8376D01*
X75494Y8504D01*
X75316Y8612D01*
X75098Y8701D01*
X74841Y8770D01*
X74544Y8819D01*
X74207Y8849D01*
X73831Y8858D01*
Y10827D01*
X74207Y10837D01*
X74544Y10866D01*
X74841Y10915D01*
X75098Y10984D01*
X75316Y11073D01*
X75494Y11181D01*
X75633Y11309D01*
X75732Y11457D01*
X75792Y11624D01*
X75811Y11811D01*
Y7874D01*
D02*
G37*
G36*
X-26664Y5456D02*
X-26638Y5153D01*
X-26594Y4885D01*
X-26531Y4654D01*
X-26452Y4457D01*
X-26354Y4297D01*
X-26239Y4172D01*
X-26106Y4083D01*
X-25956Y4029D01*
X-25787Y4011D01*
X-29331D01*
X-29162Y4029D01*
X-29012Y4083D01*
X-28879Y4172D01*
X-28764Y4297D01*
X-28666Y4457D01*
X-28587Y4654D01*
X-28525Y4885D01*
X-28480Y5153D01*
X-28454Y5456D01*
X-28445Y5795D01*
X-26673D01*
X-26664Y5456D01*
D02*
G37*
G36*
X-19476Y2670D02*
X-19494Y2817D01*
X-19547Y2949D01*
X-19636Y3065D01*
X-19760Y3166D01*
X-19919Y3251D01*
X-20114Y3321D01*
X-20344Y3375D01*
X-20610Y3414D01*
X-20911Y3437D01*
X-21248Y3445D01*
Y5217D01*
X-20911Y5224D01*
X-20610Y5248D01*
X-20344Y5286D01*
X-20114Y5341D01*
X-19919Y5410D01*
X-19760Y5496D01*
X-19636Y5596D01*
X-19547Y5713D01*
X-19494Y5845D01*
X-19476Y5992D01*
Y2670D01*
D02*
G37*
G36*
X-12801Y-939D02*
X-12862Y-1069D01*
X-12915Y-1237D01*
X-12962Y-1444D01*
X-13001Y-1690D01*
X-13055Y-2255D01*
X-13045Y-2315D01*
X-13020Y-2423D01*
X-12989Y-2512D01*
X-12952Y-2581D01*
X-12909Y-2630D01*
X-12861Y-2660D01*
X-12807Y-2670D01*
X-13072D01*
X-13087Y-3058D01*
X-13091Y-3497D01*
X-14075D01*
X-14078Y-3058D01*
X-14103Y-2670D01*
X-14358D01*
X-14304Y-2660D01*
X-14256Y-2630D01*
X-14214Y-2581D01*
X-14177Y-2512D01*
X-14146Y-2423D01*
X-14124Y-2331D01*
X-14164Y-1690D01*
X-14203Y-1444D01*
X-14250Y-1237D01*
X-14304Y-1069D01*
X-14364Y-939D01*
X-14432Y-849D01*
X-12733D01*
X-12801Y-939D01*
D02*
G37*
G36*
X-23201Y-4272D02*
X-23659Y-4284D01*
X-24069Y-4320D01*
X-24430Y-4380D01*
X-24744Y-4464D01*
X-25009Y-4572D01*
X-25227Y-4704D01*
X-25396Y-4860D01*
X-25517Y-5040D01*
X-25590Y-5244D01*
X-25615Y-5472D01*
X-25603Y-1882D01*
X-25578Y-1880D01*
X-25506Y-1878D01*
X-23201Y-1870D01*
Y-4272D01*
D02*
G37*
G36*
X-4030Y-5706D02*
X-4114Y-5736D01*
X-4188Y-5785D01*
X-4252Y-5854D01*
X-4306Y-5943D01*
X-4350Y-6051D01*
X-4385Y-6179D01*
X-4409Y-6327D01*
X-4424Y-6494D01*
X-4429Y-6681D01*
X-5413D01*
X-5418Y-6494D01*
X-5433Y-6327D01*
X-5458Y-6179D01*
X-5492Y-6051D01*
X-5536Y-5943D01*
X-5591Y-5854D01*
X-5655Y-5785D01*
X-5728Y-5736D01*
X-5812Y-5706D01*
X-5906Y-5697D01*
X-3937D01*
X-4030Y-5706D01*
D02*
G37*
G36*
X-15420Y-6002D02*
X-15468Y-6031D01*
X-15511Y-6081D01*
X-15548Y-6149D01*
X-15579Y-6238D01*
X-15604Y-6346D01*
X-15624Y-6474D01*
X-15638Y-6622D01*
X-15650Y-6976D01*
X-16634D01*
X-16637Y-6789D01*
X-16659Y-6474D01*
X-16679Y-6346D01*
X-16705Y-6238D01*
X-16736Y-6149D01*
X-16773Y-6081D01*
X-16815Y-6031D01*
X-16863Y-6002D01*
X-16917Y-5992D01*
X-15366D01*
X-15420Y-6002D01*
D02*
G37*
G36*
X68339Y-13571D02*
X68319Y-13423D01*
X68260Y-13292D01*
X68162Y-13175D01*
X68024Y-13074D01*
X67847Y-12989D01*
X67630Y-12919D01*
X67374Y-12865D01*
X67079Y-12826D01*
X67053Y-12824D01*
X66641Y-12865D01*
X66386Y-12919D01*
X66169Y-12989D01*
X65992Y-13074D01*
X65854Y-13175D01*
X65756Y-13292D01*
X65697Y-13423D01*
X65677Y-13571D01*
X65665Y-9843D01*
X65685Y-10029D01*
X65745Y-10197D01*
X65845Y-10344D01*
X65983Y-10472D01*
X66162Y-10581D01*
X66379Y-10669D01*
X66637Y-10738D01*
X66934Y-10787D01*
X67008Y-10794D01*
X67082Y-10787D01*
X67379Y-10738D01*
X67636Y-10669D01*
X67854Y-10581D01*
X68032Y-10472D01*
X68171Y-10344D01*
X68270Y-10197D01*
X68330Y-10029D01*
X68351Y-9843D01*
X68339Y-13571D01*
D02*
G37*
G36*
X58339D02*
X58319Y-13423D01*
X58260Y-13292D01*
X58162Y-13175D01*
X58024Y-13074D01*
X57847Y-12989D01*
X57630Y-12919D01*
X57374Y-12865D01*
X57079Y-12826D01*
X57053Y-12824D01*
X56642Y-12865D01*
X56386Y-12919D01*
X56169Y-12989D01*
X55992Y-13074D01*
X55854Y-13175D01*
X55756Y-13292D01*
X55697Y-13423D01*
X55677Y-13571D01*
X55665Y-9843D01*
X55685Y-10029D01*
X55745Y-10197D01*
X55845Y-10344D01*
X55983Y-10472D01*
X56162Y-10581D01*
X56379Y-10669D01*
X56637Y-10738D01*
X56933Y-10787D01*
X57008Y-10794D01*
X57082Y-10787D01*
X57379Y-10738D01*
X57636Y-10669D01*
X57854Y-10581D01*
X58032Y-10472D01*
X58171Y-10344D01*
X58271Y-10197D01*
X58330Y-10029D01*
X58351Y-9843D01*
X58339Y-13571D01*
D02*
G37*
G36*
X77595Y-10901D02*
X77542Y-10880D01*
X77461Y-10895D01*
X77351Y-10945D01*
X77214Y-11032D01*
X77048Y-11154D01*
X76633Y-11507D01*
X75799Y-12305D01*
X74408Y-10913D01*
X74709Y-10607D01*
X75681Y-9499D01*
X75767Y-9361D01*
X75818Y-9252D01*
X75833Y-9171D01*
X75811Y-9117D01*
X77595Y-10901D01*
D02*
G37*
G36*
X79736Y-6966D02*
X79808Y-7111D01*
X79928Y-7239D01*
X80097Y-7350D01*
X80313Y-7444D01*
X80577Y-7521D01*
X80889Y-7581D01*
X81249Y-7623D01*
X81658Y-7649D01*
X82114Y-7658D01*
Y-10059D01*
X81658Y-10068D01*
X80889Y-10136D01*
X80577Y-10196D01*
X80313Y-10273D01*
X80097Y-10367D01*
X79928Y-10478D01*
X79808Y-10606D01*
X79736Y-10751D01*
X79712Y-10913D01*
Y-6803D01*
X79736Y-6966D01*
D02*
G37*
G36*
X48168Y-8898D02*
X48171Y-9001D01*
X48213Y-9131D01*
X48295Y-9289D01*
X48415Y-9475D01*
X48575Y-9688D01*
X49013Y-10196D01*
X49608Y-10815D01*
X48315Y-12305D01*
X47987Y-11983D01*
X46960Y-11098D01*
X46775Y-10977D01*
X46619Y-10898D01*
X46492Y-10859D01*
X46393Y-10860D01*
X46322Y-10901D01*
X48204Y-8822D01*
X48168Y-8898D01*
D02*
G37*
G36*
X70685Y-10029D02*
X70745Y-10197D01*
X70845Y-10344D01*
X70983Y-10472D01*
X71162Y-10581D01*
X71380Y-10669D01*
X71637Y-10738D01*
X71934Y-10787D01*
X72270Y-10817D01*
X72645Y-10827D01*
Y-12795D01*
X72272Y-12803D01*
X71641Y-12865D01*
X71386Y-12919D01*
X71169Y-12989D01*
X70992Y-13074D01*
X70854Y-13175D01*
X70756Y-13292D01*
X70697Y-13423D01*
X70677Y-13571D01*
X70665Y-9843D01*
X70685Y-10029D01*
D02*
G37*
G36*
X53339Y-13571D02*
X53319Y-13423D01*
X53260Y-13292D01*
X53162Y-13175D01*
X53024Y-13074D01*
X52847Y-12989D01*
X52630Y-12919D01*
X52374Y-12865D01*
X52079Y-12826D01*
X51744Y-12803D01*
X51370Y-12795D01*
Y-10827D01*
X51746Y-10817D01*
X52082Y-10787D01*
X52379Y-10738D01*
X52636Y-10669D01*
X52854Y-10581D01*
X53032Y-10472D01*
X53171Y-10344D01*
X53271Y-10197D01*
X53330Y-10029D01*
X53351Y-9843D01*
X53339Y-13571D01*
D02*
G37*
G36*
X-52250Y-14368D02*
X-52315Y-14398D01*
X-52372Y-14447D01*
X-52422Y-14516D01*
X-52464Y-14604D01*
X-52498Y-14712D01*
X-52525Y-14840D01*
X-52544Y-14988D01*
X-52555Y-15155D01*
X-52559Y-15342D01*
X-53543D01*
X-53547Y-15155D01*
X-53578Y-14840D01*
X-53604Y-14712D01*
X-53639Y-14604D01*
X-53681Y-14516D01*
X-53730Y-14447D01*
X-53788Y-14398D01*
X-53852Y-14368D01*
X-53925Y-14358D01*
X-52177D01*
X-52250Y-14368D01*
D02*
G37*
G36*
X-57368D02*
X-57433Y-14398D01*
X-57490Y-14447D01*
X-57540Y-14516D01*
X-57582Y-14604D01*
X-57616Y-14712D01*
X-57643Y-14840D01*
X-57662Y-14988D01*
X-57673Y-15155D01*
X-57677Y-15342D01*
X-58661D01*
X-58665Y-15155D01*
X-58696Y-14840D01*
X-58723Y-14712D01*
X-58757Y-14604D01*
X-58799Y-14516D01*
X-58849Y-14447D01*
X-58906Y-14398D01*
X-58971Y-14368D01*
X-59043Y-14358D01*
X-57296D01*
X-57368Y-14368D01*
D02*
G37*
G36*
X-65045D02*
X-65110Y-14398D01*
X-65167Y-14447D01*
X-65217Y-14516D01*
X-65259Y-14604D01*
X-65293Y-14712D01*
X-65320Y-14840D01*
X-65339Y-14988D01*
X-65351Y-15155D01*
X-65354Y-15342D01*
X-66339D01*
X-66342Y-15155D01*
X-66373Y-14840D01*
X-66400Y-14712D01*
X-66434Y-14604D01*
X-66476Y-14516D01*
X-66526Y-14447D01*
X-66583Y-14398D01*
X-66648Y-14368D01*
X-66720Y-14358D01*
X-64973D01*
X-65045Y-14368D01*
D02*
G37*
G36*
X-67604D02*
X-67669Y-14398D01*
X-67726Y-14447D01*
X-67776Y-14516D01*
X-67818Y-14604D01*
X-67852Y-14712D01*
X-67879Y-14840D01*
X-67898Y-14988D01*
X-67910Y-15155D01*
X-67913Y-15342D01*
X-68898D01*
X-68901Y-15155D01*
X-68932Y-14840D01*
X-68959Y-14712D01*
X-68993Y-14604D01*
X-69035Y-14516D01*
X-69085Y-14447D01*
X-69142Y-14398D01*
X-69207Y-14368D01*
X-69279Y-14358D01*
X-67532D01*
X-67604Y-14368D01*
D02*
G37*
G36*
X-70163D02*
X-70228Y-14398D01*
X-70285Y-14447D01*
X-70335Y-14516D01*
X-70377Y-14604D01*
X-70411Y-14712D01*
X-70438Y-14840D01*
X-70457Y-14988D01*
X-70469Y-15155D01*
X-70472Y-15342D01*
X-71457D01*
X-71460Y-15155D01*
X-71491Y-14840D01*
X-71518Y-14712D01*
X-71552Y-14604D01*
X-71594Y-14516D01*
X-71644Y-14447D01*
X-71701Y-14398D01*
X-71766Y-14368D01*
X-71838Y-14358D01*
X-70091D01*
X-70163Y-14368D01*
D02*
G37*
G36*
X75566Y-59967D02*
X75510Y-60041D01*
X75459Y-60121D01*
X75416Y-60206D01*
X75379Y-60297D01*
X75349Y-60394D01*
X75325Y-60496D01*
X75309Y-60604D01*
X75299Y-60718D01*
X75295Y-60838D01*
X74311D01*
X74308Y-60718D01*
X74298Y-60604D01*
X74281Y-60496D01*
X74257Y-60394D01*
X74227Y-60297D01*
X74190Y-60206D01*
X74147Y-60121D01*
X74097Y-60041D01*
X74040Y-59967D01*
X73976Y-59899D01*
X75630D01*
X75566Y-59967D01*
D02*
G37*
G36*
X20448D02*
X20391Y-60041D01*
X20341Y-60121D01*
X20298Y-60206D01*
X20261Y-60297D01*
X20231Y-60394D01*
X20207Y-60496D01*
X20190Y-60604D01*
X20180Y-60718D01*
X20177Y-60838D01*
X19193D01*
X19190Y-60718D01*
X19180Y-60604D01*
X19163Y-60496D01*
X19139Y-60394D01*
X19109Y-60297D01*
X19072Y-60206D01*
X19029Y-60121D01*
X18979Y-60041D01*
X18922Y-59967D01*
X18858Y-59899D01*
X20512D01*
X20448Y-59967D01*
D02*
G37*
G36*
X-18922D02*
X-18979Y-60041D01*
X-19029Y-60121D01*
X-19072Y-60206D01*
X-19109Y-60297D01*
X-19139Y-60394D01*
X-19163Y-60496D01*
X-19180Y-60604D01*
X-19190Y-60718D01*
X-19193Y-60838D01*
X-20177D01*
X-20180Y-60718D01*
X-20190Y-60604D01*
X-20207Y-60496D01*
X-20231Y-60394D01*
X-20261Y-60297D01*
X-20298Y-60206D01*
X-20341Y-60121D01*
X-20391Y-60041D01*
X-20448Y-59967D01*
X-20512Y-59899D01*
X-18858D01*
X-18922Y-59967D01*
D02*
G37*
G36*
X-74040D02*
X-74097Y-60041D01*
X-74147Y-60121D01*
X-74190Y-60206D01*
X-74227Y-60297D01*
X-74257Y-60394D01*
X-74281Y-60496D01*
X-74298Y-60604D01*
X-74308Y-60718D01*
X-74311Y-60838D01*
X-75295D01*
X-75299Y-60718D01*
X-75309Y-60604D01*
X-75325Y-60496D01*
X-75349Y-60394D01*
X-75379Y-60297D01*
X-75416Y-60206D01*
X-75459Y-60121D01*
X-75509Y-60041D01*
X-75566Y-59967D01*
X-75630Y-59899D01*
X-73976D01*
X-74040Y-59967D01*
D02*
G37*
G36*
X75300Y-62207D02*
X75315Y-62374D01*
X75340Y-62522D01*
X75374Y-62650D01*
X75418Y-62758D01*
X75472Y-62847D01*
X75536Y-62915D01*
X75610Y-62965D01*
X75694Y-62994D01*
X75787Y-63004D01*
X73819D01*
X73912Y-62994D01*
X73996Y-62965D01*
X74070Y-62915D01*
X74134Y-62847D01*
X74188Y-62758D01*
X74232Y-62650D01*
X74267Y-62522D01*
X74291Y-62374D01*
X74306Y-62207D01*
X74311Y-62020D01*
X75295D01*
X75300Y-62207D01*
D02*
G37*
G36*
X-19188D02*
X-19173Y-62374D01*
X-19149Y-62522D01*
X-19114Y-62650D01*
X-19070Y-62758D01*
X-19016Y-62847D01*
X-18952Y-62915D01*
X-18878Y-62965D01*
X-18794Y-62994D01*
X-18701Y-63004D01*
X-20669D01*
X-20576Y-62994D01*
X-20492Y-62965D01*
X-20418Y-62915D01*
X-20354Y-62847D01*
X-20300Y-62758D01*
X-20256Y-62650D01*
X-20221Y-62522D01*
X-20197Y-62374D01*
X-20182Y-62207D01*
X-20177Y-62020D01*
X-19193D01*
X-19188Y-62207D01*
D02*
G37*
G36*
X20182Y-62209D02*
X20197Y-62379D01*
X20222Y-62528D01*
X20256Y-62657D01*
X20300Y-62767D01*
X20354Y-62857D01*
X20418Y-62927D01*
X20492Y-62976D01*
X20576Y-63006D01*
X20669Y-63016D01*
X18701D01*
X18794Y-63006D01*
X18878Y-62976D01*
X18952Y-62927D01*
X19016Y-62857D01*
X19070Y-62767D01*
X19114Y-62657D01*
X19149Y-62528D01*
X19173Y-62379D01*
X19188Y-62209D01*
X19193Y-62020D01*
X20177D01*
X20182Y-62209D01*
D02*
G37*
G36*
X-74306D02*
X-74291Y-62379D01*
X-74267Y-62528D01*
X-74232Y-62657D01*
X-74188Y-62767D01*
X-74134Y-62857D01*
X-74070Y-62927D01*
X-73996Y-62976D01*
X-73912Y-63006D01*
X-73819Y-63016D01*
X-75787D01*
X-75694Y-63006D01*
X-75610Y-62976D01*
X-75536Y-62927D01*
X-75472Y-62857D01*
X-75418Y-62767D01*
X-75374Y-62657D01*
X-75340Y-62528D01*
X-75315Y-62379D01*
X-75300Y-62209D01*
X-75295Y-62020D01*
X-74311D01*
X-74306Y-62209D01*
D02*
G37*
G36*
X75694Y-68884D02*
X75610Y-68914D01*
X75536Y-68963D01*
X75472Y-69033D01*
X75418Y-69123D01*
X75374Y-69232D01*
X75340Y-69362D01*
X75315Y-69511D01*
X75300Y-69681D01*
X75295Y-69870D01*
X74311D01*
X74306Y-69681D01*
X74291Y-69511D01*
X74267Y-69362D01*
X74232Y-69232D01*
X74188Y-69123D01*
X74134Y-69033D01*
X74070Y-68963D01*
X73996Y-68914D01*
X73912Y-68884D01*
X73819Y-68874D01*
X75787D01*
X75694Y-68884D01*
D02*
G37*
G36*
X20576Y-68896D02*
X20492Y-68925D01*
X20418Y-68974D01*
X20354Y-69043D01*
X20300Y-69132D01*
X20256Y-69240D01*
X20222Y-69368D01*
X20197Y-69516D01*
X20182Y-69683D01*
X20177Y-69870D01*
X19193D01*
X19188Y-69683D01*
X19173Y-69516D01*
X19149Y-69368D01*
X19114Y-69240D01*
X19070Y-69132D01*
X19016Y-69043D01*
X18952Y-68974D01*
X18878Y-68925D01*
X18794Y-68896D01*
X18701Y-68886D01*
X20669D01*
X20576Y-68896D01*
D02*
G37*
G36*
X-18794Y-68884D02*
X-18878Y-68914D01*
X-18952Y-68963D01*
X-19016Y-69033D01*
X-19070Y-69123D01*
X-19114Y-69232D01*
X-19149Y-69362D01*
X-19173Y-69511D01*
X-19188Y-69681D01*
X-19193Y-69870D01*
X-20177D01*
X-20182Y-69681D01*
X-20197Y-69511D01*
X-20221Y-69362D01*
X-20256Y-69232D01*
X-20300Y-69123D01*
X-20354Y-69033D01*
X-20418Y-68963D01*
X-20492Y-68914D01*
X-20576Y-68884D01*
X-20669Y-68874D01*
X-18701D01*
X-18794Y-68884D01*
D02*
G37*
G36*
X-73912Y-68896D02*
X-73996Y-68925D01*
X-74070Y-68974D01*
X-74134Y-69043D01*
X-74188Y-69132D01*
X-74232Y-69240D01*
X-74267Y-69368D01*
X-74291Y-69516D01*
X-74306Y-69683D01*
X-74311Y-69870D01*
X-75295D01*
X-75300Y-69683D01*
X-75315Y-69516D01*
X-75340Y-69368D01*
X-75374Y-69240D01*
X-75418Y-69132D01*
X-75472Y-69043D01*
X-75536Y-68974D01*
X-75610Y-68925D01*
X-75694Y-68896D01*
X-75787Y-68886D01*
X-73819D01*
X-73912Y-68896D01*
D02*
G37*
G36*
X-40723Y-73469D02*
X-40709Y-73638D01*
X-40684Y-73788D01*
X-40650Y-73917D01*
X-40605Y-74027D01*
X-40551Y-74117D01*
X-40487Y-74186D01*
X-40413Y-74236D01*
X-40330Y-74266D01*
X-40236Y-74276D01*
X-42205D01*
X-42111Y-74266D01*
X-42028Y-74236D01*
X-41954Y-74186D01*
X-41890Y-74117D01*
X-41836Y-74027D01*
X-41791Y-73917D01*
X-41757Y-73788D01*
X-41732Y-73638D01*
X-41717Y-73469D01*
X-41713Y-73280D01*
X-40728D01*
X-40723Y-73469D01*
D02*
G37*
G36*
X-44739D02*
X-44724Y-73638D01*
X-44700Y-73788D01*
X-44665Y-73917D01*
X-44621Y-74027D01*
X-44567Y-74117D01*
X-44503Y-74186D01*
X-44429Y-74236D01*
X-44346Y-74266D01*
X-44252Y-74276D01*
X-46220D01*
X-46127Y-74266D01*
X-46043Y-74236D01*
X-45970Y-74186D01*
X-45906Y-74117D01*
X-45851Y-74027D01*
X-45807Y-73917D01*
X-45773Y-73788D01*
X-45748Y-73638D01*
X-45733Y-73469D01*
X-45728Y-73280D01*
X-44744D01*
X-44739Y-73469D01*
D02*
G37*
G36*
X-48755D02*
X-48740Y-73638D01*
X-48715Y-73788D01*
X-48681Y-73917D01*
X-48637Y-74027D01*
X-48583Y-74117D01*
X-48519Y-74186D01*
X-48445Y-74236D01*
X-48361Y-74266D01*
X-48268Y-74276D01*
X-50236D01*
X-50143Y-74266D01*
X-50059Y-74236D01*
X-49985Y-74186D01*
X-49921Y-74117D01*
X-49867Y-74027D01*
X-49823Y-73917D01*
X-49788Y-73788D01*
X-49764Y-73638D01*
X-49749Y-73469D01*
X-49744Y-73280D01*
X-48760D01*
X-48755Y-73469D01*
D02*
G37*
G36*
X-52771D02*
X-52756Y-73638D01*
X-52731Y-73788D01*
X-52697Y-73917D01*
X-52653Y-74027D01*
X-52598Y-74117D01*
X-52534Y-74186D01*
X-52461Y-74236D01*
X-52377Y-74266D01*
X-52284Y-74276D01*
X-54252D01*
X-54159Y-74266D01*
X-54075Y-74236D01*
X-54001Y-74186D01*
X-53937Y-74117D01*
X-53883Y-74027D01*
X-53839Y-73917D01*
X-53804Y-73788D01*
X-53780Y-73638D01*
X-53765Y-73469D01*
X-53760Y-73280D01*
X-52776D01*
X-52771Y-73469D01*
D02*
G37*
G36*
X-56786D02*
X-56772Y-73638D01*
X-56747Y-73788D01*
X-56713Y-73917D01*
X-56668Y-74027D01*
X-56614Y-74117D01*
X-56550Y-74186D01*
X-56476Y-74236D01*
X-56393Y-74266D01*
X-56299Y-74276D01*
X-58268D01*
X-58174Y-74266D01*
X-58091Y-74236D01*
X-58017Y-74186D01*
X-57953Y-74117D01*
X-57899Y-74027D01*
X-57854Y-73917D01*
X-57820Y-73788D01*
X-57795Y-73638D01*
X-57780Y-73469D01*
X-57776Y-73280D01*
X-56791D01*
X-56786Y-73469D01*
D02*
G37*
G36*
X17902Y-75314D02*
X17647Y-75575D01*
X17083Y-76244D01*
X16962Y-76427D01*
X16875Y-76592D01*
X16820Y-76736D01*
X16800Y-76862D01*
X16812Y-76967D01*
X16858Y-77053D01*
X15604Y-75524D01*
X15674Y-75586D01*
X15760Y-75618D01*
X15861Y-75622D01*
X15977Y-75596D01*
X16109Y-75541D01*
X16255Y-75457D01*
X16418Y-75343D01*
X16595Y-75201D01*
X16996Y-74828D01*
X17902Y-75314D01*
D02*
G37*
G36*
X-76586D02*
X-76841Y-75575D01*
X-77405Y-76244D01*
X-77526Y-76427D01*
X-77614Y-76592D01*
X-77668Y-76736D01*
X-77689Y-76862D01*
X-77676Y-76967D01*
X-77630Y-77053D01*
X-78884Y-75524D01*
X-78814Y-75586D01*
X-78728Y-75618D01*
X-78627Y-75622D01*
X-78511Y-75596D01*
X-78379Y-75541D01*
X-78233Y-75457D01*
X-78070Y-75343D01*
X-77893Y-75201D01*
X-77492Y-74828D01*
X-76586Y-75314D01*
D02*
G37*
G36*
X71996Y-75353D02*
X71744Y-75613D01*
X71183Y-76278D01*
X71062Y-76462D01*
X70974Y-76626D01*
X70919Y-76772D01*
X70897Y-76898D01*
X70908Y-77005D01*
X70953Y-77093D01*
X69738Y-75524D01*
X69806Y-75587D01*
X69891Y-75621D01*
X69991Y-75626D01*
X70106Y-75601D01*
X70238Y-75546D01*
X70385Y-75462D01*
X70547Y-75348D01*
X70726Y-75204D01*
X71130Y-74828D01*
X71996Y-75353D01*
D02*
G37*
G36*
X-22492D02*
X-22745Y-75613D01*
X-23306Y-76278D01*
X-23426Y-76462D01*
X-23514Y-76626D01*
X-23569Y-76772D01*
X-23591Y-76898D01*
X-23580Y-77005D01*
X-23536Y-77093D01*
X-24750Y-75524D01*
X-24682Y-75587D01*
X-24598Y-75621D01*
X-24498Y-75626D01*
X-24382Y-75601D01*
X-24251Y-75546D01*
X-24103Y-75462D01*
X-23941Y-75348D01*
X-23762Y-75204D01*
X-23359Y-74828D01*
X-22492Y-75353D01*
D02*
G37*
G36*
X-40330Y-89592D02*
X-40413Y-89622D01*
X-40487Y-89672D01*
X-40551Y-89742D01*
X-40605Y-89831D01*
X-40650Y-89941D01*
X-40684Y-90070D01*
X-40709Y-90220D01*
X-40723Y-90389D01*
X-40728Y-90579D01*
X-41713D01*
X-41717Y-90389D01*
X-41732Y-90220D01*
X-41757Y-90070D01*
X-41791Y-89941D01*
X-41836Y-89831D01*
X-41890Y-89742D01*
X-41954Y-89672D01*
X-42028Y-89622D01*
X-42111Y-89592D01*
X-42205Y-89582D01*
X-40236D01*
X-40330Y-89592D01*
D02*
G37*
G36*
X-56393D02*
X-56476Y-89622D01*
X-56550Y-89672D01*
X-56614Y-89742D01*
X-56668Y-89831D01*
X-56713Y-89941D01*
X-56747Y-90070D01*
X-56772Y-90220D01*
X-56786Y-90389D01*
X-56791Y-90579D01*
X-57776D01*
X-57780Y-90389D01*
X-57795Y-90220D01*
X-57820Y-90070D01*
X-57854Y-89941D01*
X-57899Y-89831D01*
X-57953Y-89742D01*
X-58017Y-89672D01*
X-58091Y-89622D01*
X-58174Y-89592D01*
X-58268Y-89582D01*
X-56299D01*
X-56393Y-89592D01*
D02*
G37*
G36*
X-40725Y-108573D02*
X-40715Y-108687D01*
X-40698Y-108795D01*
X-40675Y-108897D01*
X-40645Y-108994D01*
X-40608Y-109085D01*
X-40564Y-109170D01*
X-40514Y-109250D01*
X-40457Y-109324D01*
X-40394Y-109393D01*
X-42047D01*
X-41984Y-109324D01*
X-41927Y-109250D01*
X-41877Y-109170D01*
X-41833Y-109085D01*
X-41796Y-108994D01*
X-41766Y-108897D01*
X-41743Y-108795D01*
X-41726Y-108687D01*
X-41716Y-108573D01*
X-41713Y-108454D01*
X-40728D01*
X-40725Y-108573D01*
D02*
G37*
G36*
X-56788D02*
X-56778Y-108687D01*
X-56761Y-108795D01*
X-56738Y-108897D01*
X-56708Y-108994D01*
X-56671Y-109085D01*
X-56627Y-109170D01*
X-56577Y-109250D01*
X-56520Y-109324D01*
X-56457Y-109393D01*
X-58110D01*
X-58047Y-109324D01*
X-57990Y-109250D01*
X-57940Y-109170D01*
X-57896Y-109085D01*
X-57859Y-108994D01*
X-57829Y-108897D01*
X-57806Y-108795D01*
X-57789Y-108687D01*
X-57779Y-108573D01*
X-57776Y-108454D01*
X-56791D01*
X-56788Y-108573D01*
D02*
G37*
D10*
X-33465Y12402D02*
X-13583Y32283D01*
X-33465Y1870D02*
Y12402D01*
X-13583Y4331D02*
Y32283D01*
Y58071D01*
X-33189Y-48504D02*
Y-5413D01*
X-34449Y-4232D02*
X-34370D01*
X-33189Y-5413D01*
X-13583Y-4331D02*
Y0D01*
X-41221Y-110236D02*
Y-81929D01*
X-57284Y-110236D02*
Y-81929D01*
X-55610Y11516D02*
Y50689D01*
Y10532D02*
Y11516D01*
X-63287D02*
Y18996D01*
Y10532D02*
Y11516D01*
X-50492D02*
Y47933D01*
Y10532D02*
Y11516D01*
X-74803Y-64075D02*
Y-59055D01*
X-19685Y-64075D02*
Y-59055D01*
X-78819Y-76713D02*
X-78110Y-76004D01*
X-77972D02*
X-74803Y-72835D01*
Y-67815D01*
X-78110Y-76004D02*
X-77972D01*
X-24016D02*
X-23839D01*
X-19685Y-71850D02*
Y-67815D01*
X-23839Y-76004D02*
X-19685Y-71850D01*
X-24724Y-76713D02*
X-24016Y-76004D01*
X69764Y-76713D02*
X70472Y-76004D01*
X70650D02*
X74803Y-71850D01*
Y-67815D01*
X69764Y-83189D02*
Y-76713D01*
X70472Y-76004D02*
X70650D01*
X15669Y-83189D02*
Y-76713D01*
X16378Y-76004D02*
X16516D01*
X19685Y-72835D02*
Y-67815D01*
X16516Y-76004D02*
X19685Y-72835D01*
X15669Y-76713D02*
X16378Y-76004D01*
X74803Y-64075D02*
Y-59055D01*
X19685Y-64075D02*
Y-59055D01*
X-57284Y-81929D02*
Y-37205D01*
X-4921Y-20236D02*
Y-4035D01*
X-16142Y-31457D02*
X-4921Y-20236D01*
X-33189Y-81929D02*
Y-48504D01*
X-16142Y-31457D01*
Y-4331D01*
X-58169Y-23524D02*
X-45236Y-36457D01*
Y-81929D02*
Y-36457D01*
X-58169Y-23524D02*
Y-11516D01*
X-41221Y-81929D02*
Y-35627D01*
X-53051Y-23796D02*
X-41221Y-35627D01*
X-70965Y-23524D02*
X-57284Y-37205D01*
X-70965Y-23524D02*
Y-11516D01*
X-49252Y-81929D02*
Y-37362D01*
X-65847Y-20768D02*
X-49252Y-37362D01*
X-68405Y-22146D02*
X-53268Y-37284D01*
Y-81929D02*
Y-37284D01*
X-53051Y-23796D02*
Y-11516D01*
X-65847Y-20768D02*
Y-11516D01*
X-68405Y-22146D02*
Y-11516D01*
X-63287Y18996D02*
X-60630Y21654D01*
X-65847Y10532D02*
Y23524D01*
X-63779Y25591D01*
X-68405Y28051D02*
X-66929Y29528D01*
X-68405Y10532D02*
Y28051D01*
X-13583Y67126D02*
X-13583D01*
X-18110Y62598D02*
X-13583Y67126D01*
X-18110Y71653D02*
X-13583Y76181D01*
X-18110Y80709D02*
X-13583Y85236D01*
X-50492Y47933D02*
X-40354Y58071D01*
X-22638D01*
X-55610Y50689D02*
X-39173Y67126D01*
X-22638D01*
D12*
X77388Y56490D02*
X77879Y57224D01*
X78051Y58091D01*
X77388Y56490D02*
X77879Y57224D01*
X78051Y58091D01*
X71457Y39370D02*
X71243Y40393D01*
X70639Y41245D01*
X69744Y41785D01*
X68709Y41922D01*
X67704Y41634D01*
Y37106D02*
X68709Y36818D01*
X69744Y36955D01*
X70639Y37495D01*
X71243Y38347D01*
X71457Y39370D01*
X36614Y64272D02*
X37707Y64489D01*
X38633Y65108D01*
X36614Y64272D02*
X37707Y64489D01*
X38633Y65108D01*
X61233Y41634D02*
X60324Y41913D01*
X59375Y41842D01*
X58519Y41428D01*
X57872Y40731D01*
X57525Y39846D01*
Y38895D01*
X57872Y38009D01*
X58519Y37312D01*
X59375Y36899D01*
X60324Y36827D01*
X61233Y37106D01*
X10138Y143504D02*
X11230Y143721D01*
X12156Y144340D01*
X10138Y143504D02*
X11230Y143721D01*
X12156Y144340D01*
X10827Y134350D02*
X10610Y135443D01*
X9991Y136369D01*
X10827Y134350D02*
X10610Y135443D01*
X9991Y136369D01*
X98Y141339D02*
X316Y140246D01*
X934Y139320D01*
X98Y141339D02*
X316Y140246D01*
X934Y139320D01*
X-934D02*
X-316Y140246D01*
X-98Y141339D01*
X-934Y139320D02*
X-316Y140246D01*
X-98Y141339D01*
X16437Y120965D02*
X16220Y122057D01*
X15601Y122983D01*
X16437Y120965D02*
X16220Y122057D01*
X15601Y122983D01*
X17299Y103773D02*
X17015Y104832D01*
X16437Y105763D01*
X25818Y105315D02*
X25164Y106104D01*
X24321Y106686D01*
X23352Y107018D01*
X22329Y107074D01*
X21329Y106850D01*
X20428Y106364D01*
X19692Y105651D01*
X19177Y104765D01*
X18922Y103773D01*
X10728Y105763D02*
X10150Y104832D01*
X9867Y103773D01*
X8243D02*
X7997Y104744D01*
X7501Y105615D01*
X6791Y106324D01*
X23955Y63626D02*
X25055Y64272D01*
X22212Y70842D02*
X21020Y70498D01*
X20006Y69784D01*
X19910Y87795D02*
X19316Y86954D01*
X18973Y85983D01*
X18908Y84955D01*
X19126Y83948D01*
X19611Y83039D01*
X20325Y82297D01*
X21214Y81778D01*
X22212Y81520D01*
Y79897D02*
X21254Y79656D01*
X20393Y79172D01*
X19688Y78480D01*
X19189Y77628D01*
X18930Y76675D01*
Y75687D01*
X19189Y74734D01*
X19688Y73882D01*
X20393Y73190D01*
X21254Y72706D01*
X22212Y72465D01*
X28346Y58071D02*
X28267Y59021D01*
X28030Y59945D01*
X27643Y60816D01*
X27116Y61611D01*
X26464Y62307D01*
X25706Y62885D01*
X24861Y63329D01*
X23955Y63626D01*
X23035Y52376D02*
X23975Y52521D01*
X24878Y52820D01*
X25718Y53265D01*
X26474Y53843D01*
X27122Y54538D01*
X27646Y55332D01*
X28032Y56202D01*
X28267Y57123D01*
X28346Y58071D01*
X23035Y52376D02*
X22835Y51181D01*
Y41347D02*
X22909Y40398D01*
X23131Y39473D01*
X23495Y38594D01*
X23993Y37783D01*
X24611Y37060D01*
X7658Y88377D02*
X8298Y87946D01*
X9055Y87795D01*
X7663Y88372D02*
X8302Y87945D01*
X9055Y87795D01*
X7663Y88372D02*
X8302Y87945D01*
X9055Y87795D01*
X16215Y69784D02*
X15442Y70371D01*
X14545Y70740D01*
X13583Y70866D01*
X12620Y70740D01*
X11723Y70371D01*
X10951Y69784D01*
X1083Y104803D02*
X812Y103773D01*
X-6791Y106324D02*
X-7501Y105615D01*
X-7997Y104744D01*
X-8243Y103773D01*
X812Y93865D02*
X1076Y92851D01*
X1612Y91949D01*
X2377Y91232D01*
X3311Y90755D01*
X4340Y90556D01*
X5384Y90651D01*
X7159Y69784D02*
X6387Y70371D01*
X5490Y70740D01*
X4528Y70866D01*
X3565Y70740D01*
X2668Y70371D01*
X1896Y69784D01*
X-5384Y90651D02*
X-4340Y90556D01*
X-3311Y90755D01*
X-2377Y91232D01*
X-1612Y91949D01*
X-1076Y92851D01*
X-812Y93865D01*
Y103773D02*
X-1083Y104803D01*
X-9055Y87795D02*
X-8302Y87945D01*
X-7663Y88372D01*
X-9055Y87795D02*
X-8302Y87945D01*
X-7663Y88372D01*
X-4724Y51181D02*
X-4925Y52376D01*
X-1896Y69784D02*
X-2732Y70407D01*
X-3707Y70775D01*
X-4746Y70860D01*
X-5768Y70654D01*
X-6694Y70175D01*
X-7451Y69459D01*
X-7981Y68561D01*
X-8243Y67552D01*
X-10082Y56754D02*
X-9754Y55774D01*
X-9254Y54870D01*
X-8600Y54071D01*
X-7813Y53402D01*
X-6918Y52887D01*
X-5944Y52541D01*
X-4925Y52376D01*
X92126Y9843D02*
X91913Y10865D01*
X91308Y11718D01*
X90414Y12257D01*
X89378Y12395D01*
X88374Y12106D01*
X88374Y7579D02*
X89378Y7290D01*
X90414Y7428D01*
X91308Y7967D01*
X91913Y8820D01*
X92126Y9843D01*
X85925Y14764D02*
X85753Y15630D01*
X85262Y16364D01*
X83294Y18333D02*
X82559Y18824D01*
X81693Y18996D01*
X83294Y18333D02*
X82559Y18824D01*
X81693Y18996D01*
X85925Y14764D02*
X85753Y15630D01*
X85262Y16364D01*
X86240Y-8858D02*
X86044Y-7871D01*
X85485Y-7035D01*
X84648Y-6476D01*
X83661Y-6279D01*
Y-11437D02*
X84648Y-11241D01*
X85485Y-10682D01*
X86044Y-9845D01*
X86240Y-8858D01*
X74902Y-14173D02*
X75805Y-13993D01*
X76572Y-13481D01*
X74902Y-14173D02*
X75805Y-13993D01*
X76572Y-13481D01*
X76673Y-60802D02*
X77184Y-59994D01*
X77362Y-59055D01*
X77171Y-58084D01*
X76625Y-57258D01*
X75807Y-56701D01*
X74838Y-56496D01*
X73864Y-56674D01*
X73031Y-57209D01*
X72463Y-58020D01*
X72245Y-58985D01*
X72410Y-59961D01*
X72933Y-60802D01*
X76126Y-73173D02*
X76673Y-71850D01*
X76126Y-73173D02*
X76673Y-71850D01*
X61870Y15295D02*
X61690Y16199D01*
X61178Y16966D01*
X61870Y15295D02*
X61690Y16199D01*
X61178Y16966D01*
X59741Y18403D02*
X58975Y18915D01*
X58071Y19095D01*
X59741Y18403D02*
X58975Y18915D01*
X58071Y19095D01*
X48228D02*
X47324Y18915D01*
X46558Y18403D01*
X48228Y19095D02*
X47324Y18915D01*
X46558Y18403D01*
X44589Y16434D02*
X44077Y15668D01*
X43898Y14764D01*
X44589Y16434D02*
X44077Y15668D01*
X43898Y14764D01*
X36417Y17523D02*
X36392Y18500D01*
X36315Y19474D01*
X36188Y20442D01*
X36009Y21403D01*
X35781Y22353D01*
X35504Y23290D01*
X35178Y24211D01*
X34804Y25113D01*
X34383Y25995D01*
X33917Y26854D01*
X33407Y27687D01*
X32853Y28492D01*
X32259Y29267D01*
X31624Y30010D01*
X30951Y30719D01*
X-4724Y35150D02*
X-4699Y34173D01*
X-4622Y33199D01*
X-4495Y32231D01*
X-4317Y31270D01*
X-4089Y30320D01*
X-3811Y29383D01*
X-3485Y28462D01*
X-3111Y27560D01*
X-2690Y26678D01*
X-2224Y25819D01*
X-1714Y24986D01*
X-1160Y24181D01*
X-566Y23406D01*
X69Y22663D01*
X741Y21954D01*
X61929Y-17717D02*
X62125Y-18703D01*
X62684Y-19540D01*
X63521Y-20099D01*
X64508Y-20295D01*
X65495Y-20099D01*
X66331Y-19540D01*
X66890Y-18703D01*
X67087Y-17717D01*
X55905Y-49299D02*
X55881Y-48315D01*
X55809Y-47334D01*
X55689Y-46357D01*
X55520Y-45387D01*
X55305Y-44427D01*
X55042Y-43478D01*
X54734Y-42543D01*
X54380Y-41625D01*
X53981Y-40725D01*
X53539Y-39845D01*
X53054Y-38989D01*
X52528Y-38157D01*
X51961Y-37352D01*
X51356Y-36576D01*
X50713Y-35830D01*
X50035Y-35117D01*
X47539Y-13478D02*
X48307Y-13993D01*
X49213Y-14173D01*
X47542Y-13481D02*
X48309Y-13993D01*
X49213Y-14173D01*
X36417Y-18503D02*
X36480Y-19446D01*
X36665Y-20374D01*
X36969Y-21269D01*
X37387Y-22118D01*
X37911Y-22904D01*
X38534Y-23616D01*
X30512Y-56587D02*
X30437Y-55639D01*
X30215Y-54714D01*
X29851Y-53835D01*
X29354Y-53024D01*
X28736Y-52300D01*
X21555Y-60802D02*
X22066Y-59994D01*
X22244Y-59055D01*
X22053Y-58084D01*
X21507Y-57258D01*
X20688Y-56701D01*
X19720Y-56496D01*
X18746Y-56674D01*
X17913Y-57209D01*
X17345Y-58020D01*
X17127Y-58985D01*
X17292Y-59961D01*
X17815Y-60802D01*
X8858Y-24693D02*
X8884Y-25669D01*
X8961Y-26643D01*
X9088Y-27612D01*
X9266Y-28572D01*
X9494Y-29522D01*
X9772Y-30459D01*
X10098Y-31380D01*
X10472Y-32283D01*
X10892Y-33165D01*
X11358Y-34023D01*
X11869Y-34856D01*
X12422Y-35662D01*
X13017Y-36437D01*
X13652Y-37179D01*
X14324Y-37888D01*
X-3599Y-21559D02*
X-3051Y-20236D01*
X-3599Y-21559D02*
X-3051Y-20236D01*
X21007Y-74157D02*
X21555Y-72835D01*
X21007Y-74157D02*
X21555Y-72835D01*
X-12156Y144340D02*
X-11230Y143721D01*
X-10138Y143504D01*
X-12156Y144340D02*
X-11230Y143721D01*
X-10138Y143504D01*
X-9991Y136369D02*
X-10610Y135443D01*
X-10827Y134350D01*
X-9991Y136369D02*
X-10610Y135443D01*
X-10827Y134350D01*
X-15601Y122983D02*
X-16220Y122057D01*
X-16437Y120965D01*
X-15601Y122983D02*
X-16220Y122057D01*
X-16437Y120965D01*
X-13157Y72465D02*
X-12107Y72744D01*
X-11182Y73313D01*
X-10460Y74123D01*
X-10000Y75107D01*
X-9843Y76181D01*
X-10000Y77255D01*
X-10460Y78239D01*
X-11182Y79049D01*
X-12107Y79618D01*
X-13157Y79897D01*
X-18922Y103773D02*
X-19177Y104765D01*
X-19692Y105651D01*
X-20428Y106364D01*
X-21329Y106850D01*
X-22329Y107074D01*
X-23352Y107018D01*
X-24321Y106686D01*
X-25164Y106104D01*
X-25818Y105315D01*
X-9867Y103773D02*
X-10150Y104832D01*
X-10728Y105763D01*
X-9843Y85236D02*
X-9936Y86066D01*
X-10211Y86854D01*
X-10654Y87562D01*
X-13157Y81520D02*
X-12107Y81799D01*
X-11182Y82368D01*
X-10460Y83178D01*
X-10000Y84162D01*
X-9843Y85236D01*
X-16437Y105763D02*
X-17015Y104832D01*
X-17299Y103773D01*
X-40846Y75394D02*
X-39599Y75210D01*
X-44291Y75394D02*
X-43307Y75197D01*
X-42323Y75394D01*
X-9867Y67552D02*
X-10113Y68523D01*
X-10608Y69393D01*
X-11316Y70101D01*
X-12186Y70596D01*
X-13157Y70842D01*
X-11713Y54832D02*
X-11026Y55341D01*
X-10473Y55993D01*
X-10082Y56754D01*
X-17299Y57645D02*
X-16990Y56528D01*
X-16354Y55559D01*
X-15453Y54832D01*
X-25877Y56201D02*
X-25239Y55383D01*
X-24401Y54772D01*
X-23427Y54415D01*
X-22393Y54339D01*
X-21377Y54550D01*
X-20459Y55031D01*
X-19708Y55747D01*
X-19182Y56641D01*
X-18922Y57645D01*
X-39599Y68947D02*
X-40496Y68448D01*
X-39599Y68947D02*
X-40496Y68448D01*
X-34787Y13724D02*
X-35335Y12402D01*
X-34787Y13724D02*
X-35335Y12402D01*
X-56933Y52011D02*
X-57480Y50689D01*
X-56933Y52011D02*
X-57480Y50689D01*
X-60543Y19096D02*
X-59591Y19315D01*
X-58790Y19875D01*
X-58257Y20694D01*
X-58071Y21654D01*
X-65011Y27834D02*
X-64536Y28622D01*
X-64370Y29528D01*
X-64561Y30497D01*
X-65104Y31322D01*
X-65920Y31879D01*
X-66886Y32086D01*
X-67858Y31912D01*
X-68692Y31383D01*
X-69263Y30577D01*
X-69487Y29615D01*
X-61861Y23897D02*
X-61386Y24685D01*
X-61221Y25591D01*
X-61437Y26621D01*
X-62051Y27477D01*
X-62957Y28014D01*
X-64003Y28140D01*
X-65011Y27834D01*
X-69728Y29373D02*
X-70276Y28051D01*
X-69728Y29373D02*
X-70276Y28051D01*
X-58071Y21654D02*
X-58288Y22684D01*
X-58901Y23540D01*
X-59807Y24077D01*
X-60853Y24203D01*
X-61861Y23897D01*
X-73228Y60039D02*
X-73524Y61233D01*
X-78051Y61233D02*
X-78338Y60249D01*
X-78216Y59232D01*
X-77705Y58345D01*
X-76887Y57728D01*
X-75893Y57482D01*
X-74881Y57646D01*
X-74015Y58193D01*
X-73433Y59036D01*
X-73228Y60039D01*
X-77547Y22933D02*
X-78456Y23212D01*
X-79404Y23141D01*
X-80261Y22728D01*
X-80907Y22030D01*
X-81255Y21145D01*
Y20194D01*
X-80907Y19308D01*
X-80261Y18611D01*
X-79404Y18198D01*
X-78456Y18126D01*
X-77547Y18406D01*
X-17815Y-60802D02*
X-17304Y-59994D01*
X-17126Y-59055D01*
X-17318Y-58084D01*
X-17863Y-57258D01*
X-18682Y-56701D01*
X-19650Y-56496D01*
X-20624Y-56674D01*
X-21457Y-57209D01*
X-22025Y-58020D01*
X-22243Y-58985D01*
X-22078Y-59961D01*
X-21555Y-60802D01*
X-18363Y-73173D02*
X-17815Y-71850D01*
X-18363Y-73173D02*
X-17815Y-71850D01*
X-39350Y-107730D02*
X-38699Y-108401D01*
X-37851Y-108796D01*
X-36918Y-108862D01*
X-36022Y-108591D01*
X-35282Y-108018D01*
X-34796Y-107219D01*
X-34626Y-106299D01*
X-39350Y-35627D02*
X-39898Y-34304D01*
X-39350Y-35627D02*
X-39898Y-34304D01*
X-72835Y-23524D02*
X-72287Y-24846D01*
X-72933Y-60802D02*
X-72423Y-59994D01*
X-72244Y-59055D01*
X-72835Y-23524D02*
X-72287Y-24846D01*
X-72244Y-59055D02*
X-72436Y-58084D01*
X-72981Y-57258D01*
X-73800Y-56701D01*
X-74768Y-56496D01*
X-75742Y-56674D01*
X-76575Y-57209D01*
X-77143Y-58020D01*
X-77361Y-58985D01*
X-77196Y-59961D01*
X-76673Y-60802D01*
X-73481Y-74157D02*
X-72933Y-72835D01*
X-73481Y-74157D02*
X-72933Y-72835D01*
X-43091Y-108489D02*
X-43614Y-109330D01*
X-43779Y-110306D01*
X-43561Y-111272D01*
X-42993Y-112082D01*
X-42159Y-112617D01*
X-41186Y-112795D01*
X-40217Y-112590D01*
X-39399Y-112033D01*
X-38853Y-111207D01*
X-38661Y-110236D01*
X-38840Y-109297D01*
X-39350Y-108489D01*
X-59153D02*
X-59677Y-109330D01*
X-59842Y-110306D01*
X-59624Y-111272D01*
X-59056Y-112082D01*
X-58222Y-112617D01*
X-57249Y-112795D01*
X-56280Y-112590D01*
X-55462Y-112033D01*
X-54916Y-111207D01*
X-54724Y-110236D01*
X-54903Y-109297D01*
X-55413Y-108489D01*
X-63878Y-106299D02*
X-63708Y-107219D01*
X-63222Y-108018D01*
X-62482Y-108591D01*
X-61586Y-108862D01*
X-60653Y-108796D01*
X-59805Y-108401D01*
X-59153Y-107730D01*
X70442Y156174D02*
X97119Y129497D01*
X67658Y156174D02*
X97119Y126714D01*
X88042Y156174D02*
X97119Y147097D01*
X62091Y156174D02*
X97119Y121146D01*
X64875Y156174D02*
X97119Y123930D01*
X56523Y156174D02*
X97119Y115578D01*
X59307Y156174D02*
X97119Y118362D01*
X60027Y100492D02*
X97119Y137584D01*
X57243Y100492D02*
X97119Y140368D01*
X73327Y99872D02*
X97119Y123665D01*
X73327Y97089D02*
X97119Y120881D01*
X73327Y102656D02*
X97119Y126449D01*
X73327Y91521D02*
X97119Y115313D01*
X73327Y94305D02*
X97119Y118097D01*
X70642Y102756D02*
X97119Y129233D01*
X67858Y102756D02*
X97119Y132017D01*
X72080Y87490D02*
X97119Y112529D01*
X62811Y100492D02*
X97119Y134800D01*
X84362Y156174D02*
X97119Y143417D01*
X81578Y156174D02*
X97119Y140633D01*
X87146Y156174D02*
X97119Y146201D01*
X76010Y156174D02*
X97119Y135065D01*
X78794Y156174D02*
X97119Y137849D01*
X73226Y156174D02*
X97119Y132281D01*
X66437Y102756D02*
X73327D01*
X66437Y100492D02*
Y102756D01*
X55709Y104095D02*
X59311Y100492D01*
X73327Y96063D02*
Y96850D01*
Y102756D01*
Y90158D02*
Y96063D01*
Y96850D01*
X72080Y90158D02*
X73327D01*
X65595Y100492D02*
X66437Y101334D01*
X72080Y87724D02*
X72795Y87008D01*
X57513Y87795D02*
X62866D01*
X73327Y97612D02*
X97119Y73820D01*
X73327Y72034D02*
X97119Y95826D01*
X73327Y74818D02*
X97119Y98610D01*
X73368Y69291D02*
X97119Y93042D01*
X73327Y94828D02*
X97119Y71036D01*
X73327Y83169D02*
X97119Y106962D01*
X73327Y85953D02*
X97119Y109746D01*
X73327Y100396D02*
X97119Y76604D01*
X73327Y77601D02*
X97119Y101394D01*
X78936Y69291D02*
X97119Y87474D01*
X76152Y69291D02*
X97119Y90258D01*
X79232Y64020D02*
X97119Y81907D01*
X79232Y66804D02*
X97119Y84690D01*
X72430Y90158D02*
X97119Y65468D01*
X73327Y92044D02*
X97119Y68252D01*
X73327Y83693D02*
X97119Y59900D01*
X73327Y86477D02*
X97119Y62684D01*
X72080Y87008D02*
Y90158D01*
Y87008D02*
X73327D01*
X62866Y87795D02*
X66437Y84224D01*
X73327Y80385D02*
X97119Y104178D01*
X60873Y87795D02*
X66437Y82231D01*
X57513Y84058D02*
X61250Y87795D01*
X57513Y86842D02*
X58466Y87795D01*
X58089D02*
X66437Y79447D01*
X57513Y83661D02*
Y87795D01*
X72795Y87008D02*
X73327Y86477D01*
X66437Y81102D02*
Y84224D01*
X73327Y80315D02*
Y81102D01*
Y87008D01*
X57388Y83360D02*
X57513Y83661D01*
X57087Y83235D02*
X57388Y83360D01*
X57081Y83235D02*
X66437Y73879D01*
X57513Y85587D02*
X66437Y76663D01*
X22029Y107037D02*
X71167Y156174D01*
X24414Y106638D02*
X73951Y156174D01*
X16437Y107012D02*
X65599Y156174D01*
X28659Y105315D02*
X79519Y156174D01*
X25875Y105315D02*
X76735Y156174D01*
X16437Y115364D02*
X57248Y156174D01*
X16437Y118148D02*
X54464Y156174D01*
X16437Y109796D02*
X62815Y156174D01*
X16437Y112580D02*
X60031Y156174D01*
X53739D02*
X97119Y112794D01*
X50955Y156174D02*
X97119Y110010D01*
X50590Y106496D02*
X55709D01*
X54895D02*
X96307Y147908D01*
X52112Y106496D02*
X94916Y149300D01*
X48171Y156174D02*
X97119Y107226D01*
X15118Y144685D02*
X53307Y106496D01*
X48147Y105315D02*
X93524Y150692D01*
X39795Y105315D02*
X89348Y154868D01*
X15059Y127905D02*
X43328Y156174D01*
X15059Y125121D02*
X46112Y156174D01*
X15059Y130689D02*
X40544Y156174D01*
X16437Y120931D02*
X51680Y156174D01*
X15652Y122930D02*
X48896Y156174D01*
X13279Y131693D02*
X37760Y156174D01*
X10827Y132025D02*
X34976Y156174D01*
X12418Y144602D02*
X50590Y106429D01*
X10680Y143556D02*
X48921Y105315D01*
X15059Y125257D02*
X35001Y105315D01*
X16434Y121098D02*
X32217Y105315D01*
X50590D02*
Y106496D01*
X25818Y105315D02*
X50590D01*
X9449Y142003D02*
X46137Y105315D01*
X9449Y139219D02*
X43353Y105315D01*
X15059Y130825D02*
X40569Y105315D01*
X15059Y128041D02*
X37785Y105315D01*
X37011D02*
X87870Y156174D01*
X42603D02*
X97119Y101659D01*
X34227Y105315D02*
X85086Y156174D01*
X34252D02*
X97119Y93307D01*
X37036Y156174D02*
X97119Y96091D01*
X31468Y156174D02*
X97119Y90523D01*
X31443Y105315D02*
X82302Y156174D01*
X25900D02*
X97119Y84955D01*
X28684Y156174D02*
X97119Y87739D01*
X55709Y104525D02*
X97119Y145936D01*
X45363Y105315D02*
X92132Y152084D01*
X55709Y101742D02*
X97119Y143152D01*
X45387Y156174D02*
X97119Y104443D01*
X39820Y156174D02*
X97119Y98875D01*
X42579Y105315D02*
X90740Y153476D01*
X20332Y156174D02*
X97119Y79387D01*
X23116Y156174D02*
X97119Y82171D01*
X17023Y104814D02*
X68383Y156174D01*
X17549D02*
X70967Y102756D01*
X55709Y100492D02*
Y106496D01*
Y100492D02*
X66437D01*
X55709Y101311D02*
X56527Y100492D01*
X14765Y156174D02*
X68183Y102756D01*
X15157Y152998D02*
X66437Y101718D01*
X15157Y150214D02*
X64879Y100492D01*
X15157Y147430D02*
X62095Y100492D01*
X54626Y83235D02*
X57087D01*
X54626Y81172D02*
X56690Y83235D01*
X54626Y70036D02*
X66437Y81847D01*
X54626Y82906D02*
X66437Y71095D01*
X54626Y78388D02*
X63450Y87211D01*
X54626Y81102D02*
Y83235D01*
Y72820D02*
X66233Y84428D01*
X54626Y75604D02*
X64841Y85820D01*
X73327Y69291D02*
X79232D01*
Y62598D02*
Y69291D01*
X73327Y69773D02*
X73809Y69291D01*
X77760Y56980D02*
X97119Y76339D01*
X78051Y60055D02*
X97119Y79123D01*
X73327Y75197D02*
Y80315D01*
Y81102D01*
Y80909D02*
X97119Y57117D01*
X73327Y72557D02*
X76593Y69291D01*
X78051Y58091D02*
Y62598D01*
X79232D01*
X73524Y59028D02*
Y62598D01*
X72342D02*
X73327D01*
X72342D02*
X73327D01*
X72150D02*
X73524Y61225D01*
X73327Y62598D02*
X73524D01*
X73327Y74409D02*
Y75197D01*
Y74409D02*
Y75197D01*
X66437Y74409D02*
Y75197D01*
X73327Y69291D02*
Y74409D01*
X66437Y68504D02*
Y74409D01*
Y80315D02*
Y81102D01*
Y80315D02*
Y81102D01*
Y74409D02*
Y75197D01*
Y80315D01*
X66437Y62598D02*
X72342D01*
X66437Y62744D02*
X66582Y62598D01*
X69366D02*
X73230Y58735D01*
X66582Y62598D02*
X71838Y57343D01*
X66437Y62598D02*
Y68504D01*
Y69291D01*
X60531Y56455D02*
X66675Y62598D01*
X58773Y57480D02*
X66437Y65144D01*
X73327Y75341D02*
X97119Y51549D01*
X79232Y66652D02*
X97119Y48765D01*
X73327Y78125D02*
X97119Y54333D01*
X71451Y39536D02*
X97119Y65203D01*
X79232Y63868D02*
X97119Y45981D01*
X68172Y41824D02*
X97119Y70771D01*
X66772Y43208D02*
X97119Y73555D01*
X66772Y32072D02*
X97119Y62419D01*
X70498Y41367D02*
X97119Y67987D01*
X78051Y59481D02*
X97119Y40413D01*
X78051Y62265D02*
X97119Y43197D01*
X76431Y55533D02*
X97119Y34845D01*
X77763Y56985D02*
X97119Y37629D01*
X64508Y50012D02*
X73524Y59028D01*
X63474Y51046D02*
X73524Y61095D01*
X75039Y54141D02*
X97119Y32062D01*
X66772Y45873D02*
X77388Y56490D01*
X60690Y53830D02*
X69459Y62598D01*
X62082Y52438D02*
X72243Y62598D01*
X66772Y42922D02*
X67947Y41746D01*
X66772Y41634D02*
Y45873D01*
X62244Y41634D02*
Y45873D01*
X60531Y54730D02*
X64878Y50383D01*
X60531Y53989D02*
Y57480D01*
Y53989D02*
X64508Y50012D01*
X59923Y41927D02*
X62244Y44248D01*
X66772Y37106D02*
X67704D01*
X66772Y34856D02*
X68732Y36816D01*
X66772Y41634D02*
X67704D01*
X61233D02*
X62244D01*
X61452Y37106D02*
X62244Y36314D01*
X61233Y37106D02*
X62244D01*
X54626Y74409D02*
Y75197D01*
Y69291D02*
Y74409D01*
Y75197D01*
Y74555D02*
X66437Y62744D01*
X54626Y64468D02*
X66437Y76279D01*
X54626Y80123D02*
X66437Y68311D01*
X54626Y75197D02*
Y80315D01*
Y77339D02*
X66437Y65527D01*
X54626Y67252D02*
X66437Y79063D01*
X54626Y62598D02*
Y63386D01*
Y68504D01*
Y60635D02*
X57781Y57480D01*
X54626Y62598D02*
Y63386D01*
Y68504D02*
Y69291D01*
Y68504D02*
Y69291D01*
Y58901D02*
X66437Y70712D01*
X54626Y61685D02*
X66437Y73496D01*
X54626Y80315D02*
Y81102D01*
Y80315D02*
Y81102D01*
X47736Y68504D02*
Y68996D01*
Y63386D02*
Y68504D01*
Y68996D01*
X46265D02*
X47736Y67525D01*
X42521Y68996D02*
X47736D01*
X43481D02*
X47736Y64741D01*
X38633Y65108D02*
X42521Y68996D01*
X47736Y62598D02*
Y63386D01*
Y62598D02*
Y63386D01*
X40217Y66692D02*
X47736Y59173D01*
X41609Y68084D02*
X47736Y61957D01*
X25055Y64272D02*
X36614D01*
X28332Y57661D02*
X34942Y64272D01*
X55989Y57480D02*
X66437Y67928D01*
X54626Y57480D02*
X60531D01*
X54626Y57851D02*
X54997Y57480D01*
X54626Y66203D02*
X67662Y53167D01*
X54626Y63419D02*
X66270Y51775D01*
X54626Y71771D02*
X70446Y55951D01*
X54626Y68987D02*
X69054Y54559D01*
X31502Y64272D02*
X62244Y33530D01*
X53642Y50787D02*
X54626D01*
X57330D02*
X62244Y45873D01*
X54626Y50787D02*
X57330D01*
X56122D02*
X62244Y44666D01*
X53338Y50787D02*
X62244Y41882D01*
X53642Y50787D02*
X54626D01*
X50554D02*
X59476Y41866D01*
X47771Y50787D02*
X57855Y40703D01*
X38825Y65300D02*
X47736Y56389D01*
X37038Y64303D02*
X47736Y53606D01*
X47736Y56693D02*
Y62598D01*
X34286Y64272D02*
X47736Y50822D01*
X23394Y38804D02*
X47736Y63147D01*
X22835Y46597D02*
X45234Y68996D01*
X22835Y49380D02*
X38221Y64767D01*
X22843Y41037D02*
X47736Y65930D01*
X22835Y43813D02*
X47736Y68714D01*
X54626Y57480D02*
Y62598D01*
X47736Y56693D02*
Y57480D01*
Y50787D02*
X53642D01*
X47736D02*
Y56693D01*
X25914Y35756D02*
X47736Y57579D01*
X24523Y37149D02*
X47736Y60363D01*
X28698Y32972D02*
X47736Y52011D01*
X27306Y34364D02*
X47736Y54795D01*
X15157Y153059D02*
X18273Y156174D01*
X15157Y150275D02*
X21057Y156174D01*
X14630Y155315D02*
X15489Y156174D01*
X15157Y144707D02*
X26625Y156174D01*
X15157Y147491D02*
X23841Y156174D01*
X9197D02*
X10056Y155315D01*
X9062D02*
X9922Y156174D01*
X11981D02*
X12840Y155315D01*
X11846D02*
X12705Y156174D01*
X15157Y144685D02*
Y155315D01*
X12501Y144685D02*
X15157D01*
X12156Y144340D02*
X12501Y144685D01*
X8465Y155315D02*
X15157D01*
X8465Y154717D02*
X9062Y155315D01*
X7087Y143504D02*
X10138D01*
X7087Y142717D02*
X9449D01*
X6413Y156174D02*
X8465Y154123D01*
X6398Y152650D02*
X8465Y154717D01*
X6278Y155315D02*
X7138Y156174D01*
X8465Y149213D02*
Y155315D01*
X6398Y149902D02*
Y155315D01*
X845Y156174D02*
X1705Y155315D01*
X711D02*
X1570Y156174D01*
X3629D02*
X4488Y155315D01*
X3495D02*
X4354Y156174D01*
X7087Y149213D02*
X8465D01*
X7087D02*
Y149902D01*
X7948Y143504D02*
X8735Y142717D01*
X7599D02*
X8387Y143504D01*
X6398Y153406D02*
X8465Y151339D01*
X6398Y149902D02*
X7087D01*
X6433D02*
X8465Y151933D01*
X6398Y150622D02*
X7807Y149213D01*
X9797Y136563D02*
X29409Y156174D01*
X10795Y134776D02*
X32193Y156174D01*
X10703Y135180D02*
X14191Y131693D01*
X9449Y138998D02*
X15136Y144685D01*
X9449Y141782D02*
X11537Y143871D01*
X9449Y136911D02*
X9991Y136369D01*
X9449Y136911D02*
Y142717D01*
X15059Y125591D02*
Y131693D01*
X10827D02*
X15059D01*
Y123525D02*
Y125591D01*
X14726D02*
X15059Y125257D01*
X10827Y132273D02*
X11407Y131693D01*
X10827D02*
Y134350D01*
X8563Y125591D02*
X15059D01*
X8563D02*
X15059D01*
X7087Y142717D02*
Y143504D01*
X8735Y142717D02*
X9449Y142003D01*
X1874Y132874D02*
X3056Y131693D01*
X5118D02*
Y132874D01*
X2144Y131693D02*
X3325Y132874D01*
X1575D02*
Y138680D01*
X934Y139320D02*
X1575Y138680D01*
Y132874D02*
X5118D01*
X1575Y133174D02*
X1874Y132874D01*
X7972Y125787D02*
X8563D01*
X7185D02*
X7972D01*
X8563Y119488D02*
Y125591D01*
X7185Y119488D02*
Y125591D01*
X689Y131693D02*
X5118D01*
X4658Y132874D02*
X5118Y132414D01*
X7185Y125599D02*
X7373Y125787D01*
X4927Y131693D02*
X5118Y131884D01*
X-1939Y156174D02*
X-1079Y155315D01*
X-492D02*
X492D01*
X-2073D02*
X-1214Y156174D01*
X492Y155315D02*
X6398D01*
X-492D02*
X492D01*
X-6398D02*
X-492D01*
X-4857D02*
X-3998Y156174D01*
X-4722D02*
X-3863Y155315D01*
X-8175Y149213D02*
X-6398Y150990D01*
X-98Y141437D02*
X98D01*
X-215Y140531D02*
X614Y139702D01*
X-98Y141437D02*
X98D01*
X-243Y140442D02*
X144Y140829D01*
X-1575Y138680D02*
X-934Y139320D01*
X-7506Y156174D02*
X-6398Y155065D01*
X-8465Y151707D02*
X-6398Y153774D01*
X-8465Y151565D02*
X-6802Y149902D01*
X-6398D02*
Y155315D01*
X-7087Y149213D02*
Y149902D01*
X-8465Y154491D02*
X-6782Y156174D01*
X-10290D02*
X-9431Y155315D01*
X-8465Y154349D02*
X-6398Y152281D01*
X-8465Y149213D02*
Y155315D01*
X-7087Y149902D02*
X-6398D01*
X-8465Y149213D02*
X-7087D01*
Y142717D02*
Y143504D01*
X-8756D02*
X-7968Y142717D01*
X-9449D02*
X-7087D01*
X-10138Y143504D02*
X-7087D01*
X-9104Y142717D02*
X-8316Y143504D01*
X-9449Y142372D02*
X-9104Y142717D01*
X-1361Y138893D02*
X1575Y135958D01*
X-689Y131644D02*
X1575Y133908D01*
X-689Y128860D02*
X689Y130238D01*
Y125591D02*
Y131693D01*
X-689Y129870D02*
X689Y128492D01*
X-1575Y133542D02*
X1575Y136692D01*
X-1575Y136326D02*
X1177Y139078D01*
X-1575Y136323D02*
X1575Y133174D01*
X-1575Y133539D02*
X689Y131275D01*
Y125591D02*
X7185D01*
X689D02*
X7185D01*
X689Y119488D02*
Y125591D01*
X-689Y119488D02*
Y125591D01*
Y127086D02*
X689Y125708D01*
X-689Y126076D02*
X689Y127454D01*
X-1175Y125591D02*
X-689Y126076D01*
X-7185Y125591D02*
X-689D01*
X-1575Y132874D02*
Y138680D01*
X-2243Y132874D02*
X-1575Y133542D01*
X-3693Y132874D02*
X-2512Y131693D01*
X-689Y125591D02*
Y131693D01*
X-3424D02*
X-2243Y132874D01*
X-9991Y136369D02*
X-9449Y136911D01*
Y142717D01*
X-5118Y132874D02*
X-1575D01*
X-5118Y131693D02*
Y132874D01*
X-7185Y125591D02*
X-689D01*
X-5118Y131693D02*
X-689D01*
X-7185Y125148D02*
X-6743Y125591D01*
X-7185Y119488D02*
Y125591D01*
X-7972Y125787D02*
X-7185D01*
X-8563D02*
X-7972D01*
X-7742D02*
X-7185Y125230D01*
X-8563Y119488D02*
Y125591D01*
X16437Y105763D02*
Y120965D01*
Y112744D02*
X22129Y107052D01*
X16437Y118311D02*
X29433Y105315D01*
X16437Y115527D02*
X26649Y105315D01*
X15059Y123525D02*
X15601Y122983D01*
X10728Y105763D02*
Y119488D01*
X8563D02*
X10728D01*
X16437Y109960D02*
X20207Y106189D01*
X16437Y107176D02*
X19088Y104525D01*
X17299Y103773D02*
X18922D01*
X7118Y106044D02*
X10728Y109655D01*
X6791Y111254D02*
X10728Y107317D01*
X8147Y104290D02*
X10728Y106871D01*
X7185Y122815D02*
X8563Y124193D01*
X7185Y121996D02*
X8563Y120618D01*
X7185Y124779D02*
X8563Y123401D01*
X9692Y119488D02*
X10728Y118452D01*
X7185Y120031D02*
X8563Y121409D01*
X6791Y116853D02*
X9426Y119488D01*
X6791D02*
X7185D01*
X6909D02*
X10728Y115668D01*
X6791Y106324D02*
Y119488D01*
Y108502D02*
X10728Y112439D01*
X6791Y108470D02*
X10239Y105022D01*
X8243Y103773D02*
X9867D01*
X6791Y116822D02*
X10728Y112884D01*
X6791Y114070D02*
X10728Y118007D01*
X6791Y114038D02*
X10728Y110101D01*
X6791Y111286D02*
X10728Y115223D01*
X22212Y70842D02*
Y72465D01*
X21993Y70810D02*
X22212Y71029D01*
Y79897D02*
Y81520D01*
X13546Y87795D02*
X21575Y79767D01*
X9831Y69784D02*
X21671Y81623D01*
X26933Y61831D02*
X29374Y64272D01*
X25391Y63072D02*
X26590Y64272D01*
X27977Y60091D02*
X32158Y64272D01*
X22835Y41347D02*
Y51181D01*
X18765Y103773D02*
X18947Y103955D01*
X19114Y87795D02*
X19555Y87354D01*
X8132Y104346D02*
X8705Y103773D01*
X10763Y87795D02*
X19866Y78692D01*
X16330Y87795D02*
X18898Y85228D01*
X5384Y90651D02*
X7658Y88377D01*
X15773Y70158D02*
X19606Y73991D01*
X13696Y70864D02*
X18899Y76068D01*
X18183Y69784D02*
X21149Y72750D01*
X16215Y69784D02*
X20006D01*
X7102Y69839D02*
X19925Y82661D01*
X9055Y87795D02*
X19910D01*
X7159Y69784D02*
X10951D01*
X-689Y121518D02*
X689Y120140D01*
Y119488D02*
X1083D01*
X-689Y120509D02*
X689Y121887D01*
X1083Y104803D02*
Y119488D01*
X-1083Y111763D02*
X1083Y113929D01*
X-1083Y119128D02*
X1083Y116962D01*
X-1083Y117331D02*
X1074Y119488D01*
X-1083Y116344D02*
X1083Y114179D01*
X-1083Y114547D02*
X1083Y116713D01*
X-1083Y107992D02*
X1083Y105827D01*
X-812Y103773D02*
X812D01*
X-722D02*
X1083Y105577D01*
X-1083Y108979D02*
X1083Y111145D01*
X-1083Y113560D02*
X1083Y111395D01*
X-1083Y106196D02*
X1083Y108361D01*
X-1083Y110776D02*
X1083Y108611D01*
X-689Y123293D02*
X689Y124671D01*
X-689Y124302D02*
X689Y122924D01*
X-7185Y119662D02*
X-7011Y119488D01*
X-6791Y119269D01*
X-7185Y119488D02*
X-6791D01*
X-8563Y123824D02*
X-7185Y122446D01*
X-8563Y123770D02*
X-7185Y125148D01*
X-8563Y121040D02*
X-7185Y119662D01*
X-8563Y120986D02*
X-7185Y122364D01*
X-1083Y119488D02*
X-689D01*
X-6791Y106324D02*
Y119488D01*
X-1083Y105208D02*
X353Y103773D01*
X-1083Y104803D02*
Y119488D01*
X-9795D02*
X-6791Y116485D01*
X-9867Y103773D02*
X-8243D01*
X-9074D02*
X-7916Y104930D01*
X-819Y93809D02*
X22155Y70835D01*
X5168Y90606D02*
X18953Y76821D01*
X-1671Y91877D02*
X20224Y69983D01*
X-3327Y90749D02*
X17639Y69784D01*
X-10048Y74960D02*
X5514Y90521D01*
X-10142Y77649D02*
X3060Y90851D01*
X-5698Y90337D02*
X13778Y70861D01*
X-7090Y88945D02*
X11574Y70281D01*
X5271Y70791D02*
X18972Y84492D01*
X-1304Y69784D02*
X16707Y87795D01*
X1479Y69784D02*
X19491Y87795D01*
X-3236Y70636D02*
X13924Y87795D01*
X-9990Y86277D02*
X5568Y70718D01*
X-6169Y70487D02*
X11140Y87795D01*
X-8749Y87819D02*
X9287Y69784D01*
X-812Y93865D02*
X812D01*
X-7663Y88372D02*
X-5384Y90651D01*
X-9963Y86179D02*
X-8101Y88042D01*
X-10180Y83683D02*
X2974Y70529D01*
X-9990Y75141D02*
X-5567Y70719D01*
X-1896Y69784D02*
X1896D01*
X-4724Y35150D02*
Y51181D01*
X-7587Y53251D02*
X-4724Y50389D01*
X-9104Y67552D02*
X-7888Y68767D01*
X-9867Y67552D02*
X-8243D01*
X81534Y18996D02*
X97119Y34581D01*
X83474Y18152D02*
X97119Y31797D01*
X78750Y18996D02*
X97119Y37365D01*
X85911Y15021D02*
X97119Y26229D01*
X84866Y16760D02*
X97119Y29013D01*
X73183Y18996D02*
X97119Y42932D01*
X73648Y52749D02*
X97119Y29278D01*
X78750Y18996D02*
X97119Y37365D01*
X75967Y18996D02*
X97119Y40148D01*
X91119Y11877D02*
X97119Y17877D01*
X92114Y10089D02*
X97119Y15093D01*
X88713Y12255D02*
X97119Y20661D01*
X90900Y7658D02*
X97119Y1439D01*
X92063Y9279D02*
X97119Y4223D01*
X86961Y13287D02*
X97119Y23445D01*
X88195Y7579D02*
X97119Y-1345D01*
X85925Y13287D02*
Y14764D01*
Y13287D02*
X87008D01*
X85780Y15562D02*
X89003Y12339D01*
X87008Y12106D02*
Y13287D01*
X83294Y18333D02*
X85262Y16364D01*
X87008Y12106D02*
X88374D01*
X87008Y7579D02*
X88374D01*
X87008Y6398D02*
Y7579D01*
X81102Y6398D02*
X87008D01*
X74410D02*
X80315D01*
X74410D02*
Y7480D01*
X80315Y6398D02*
X81102D01*
X80315D02*
X81102D01*
X81314Y-6279D02*
X97119Y9526D01*
X84066Y-6311D02*
X97119Y6742D01*
X86593Y6398D02*
X97119Y-4129D01*
Y-147097D02*
Y147097D01*
X83809Y6398D02*
X97119Y-6913D01*
X81025Y6398D02*
X97119Y-9697D01*
X79396Y-5413D02*
X97119Y12310D01*
X75457Y6398D02*
X97119Y-15264D01*
X78241Y6398D02*
X97119Y-12481D01*
X86069Y-9782D02*
X97119Y-20832D01*
X85777Y-7384D02*
X97119Y3958D01*
X82156Y-11437D02*
X97119Y-26400D01*
X84715Y-11212D02*
X97119Y-23616D01*
X77602Y-12451D02*
X97119Y-31968D01*
X80238Y-12303D02*
X97119Y-29184D01*
X73757Y-14173D02*
X97119Y-37535D01*
X76171Y-13803D02*
X97119Y-34751D01*
X81102Y-6279D02*
X83661D01*
X81102D02*
Y-5413D01*
X86000Y-9945D02*
X97119Y1174D01*
X76612Y-5413D02*
X89321Y7295D01*
X74410Y-5413D02*
X81102D01*
X73923Y-9449D02*
X74410Y-8962D01*
Y-5413D01*
X81102Y-11437D02*
X83661D01*
X81102Y-12059D02*
X81724Y-11437D01*
X81102Y-12303D02*
Y-11437D01*
X80858Y-12303D02*
X81102Y-12059D01*
X77750Y-12303D02*
X81102D01*
X76572Y-13481D02*
X77750Y-12303D01*
X70864Y49965D02*
X97119Y23710D01*
X69472Y48573D02*
X97119Y20926D01*
X72256Y51357D02*
X97119Y26494D01*
X68080Y47181D02*
X97119Y18142D01*
X67615Y18996D02*
X97119Y48500D01*
X66772Y26504D02*
X97119Y56852D01*
X66772Y29288D02*
X97119Y59636D01*
X66772Y20937D02*
X97119Y51284D01*
X66772Y23720D02*
X97119Y54068D01*
X71274Y38420D02*
X97119Y12574D01*
X69896Y37014D02*
X97119Y9791D01*
X70399Y18996D02*
X97119Y45716D01*
X69791Y6496D02*
X82566Y-6279D01*
X67178Y-6496D02*
X80072Y6398D01*
X66772Y34570D02*
X82491Y18851D01*
X66772Y18996D02*
X81693D01*
X67019Y37106D02*
X97119Y7007D01*
X66772Y45706D02*
X97119Y15358D01*
X66772Y23435D02*
X71210Y18996D01*
X72067Y7480D02*
X74410D01*
X66772Y20651D02*
X68426Y18996D01*
X72067Y6745D02*
X72803Y7480D01*
X72067Y6496D02*
Y7480D01*
X66772Y31786D02*
X79562Y18996D01*
X66772Y29002D02*
X76778Y18996D01*
X66772Y26219D02*
X73994Y18996D01*
X49606Y12761D02*
X68863Y-6496D01*
X71818Y6496D02*
X72067Y6745D01*
X67067Y6496D02*
X72067D01*
X67007D02*
X78916Y-5413D01*
X67067Y-6496D02*
X72067D01*
X64223Y6496D02*
X76133Y-5413D01*
X61439Y6496D02*
X74410Y-6474D01*
X61610Y-6496D02*
X74504Y6398D01*
X58826Y-6496D02*
X71818Y6496D01*
X72067Y7004D02*
X97119Y-18048D01*
X55615Y-45898D02*
X97119Y-4394D01*
X72067Y-7175D02*
X85639Y6398D01*
X55905Y-51175D02*
X97119Y-9961D01*
X55886Y-48411D02*
X97119Y-7177D01*
X44048Y-12303D02*
X97119Y-65374D01*
X55090Y-43638D02*
X97119Y-1610D01*
X36417Y-10240D02*
X97119Y-70942D01*
X36417Y-7456D02*
X97119Y-68158D01*
X68976Y-14961D02*
X97119Y-43103D01*
X71760Y-14961D02*
X97119Y-40319D01*
X57841Y-14961D02*
X97119Y-54239D01*
X55905Y-53959D02*
X97119Y-12745D01*
X52273Y-14961D02*
X97119Y-59807D01*
X55057Y-14961D02*
X97119Y-57023D01*
X36417Y-13024D02*
X97119Y-73726D01*
X48629Y-14100D02*
X97119Y-62590D01*
X72067Y-9449D02*
Y-6496D01*
Y-6916D02*
X74262Y-9110D01*
X71647Y-6496D02*
X72067Y-6916D01*
X72577Y-9449D02*
X74410Y-7616D01*
X72067Y-9449D02*
X73923D01*
X58655Y6496D02*
X71647Y-6496D01*
X56042D02*
X69034Y6496D01*
X69962Y-6496D02*
X82855Y6398D01*
X64394Y-6496D02*
X77288Y6398D01*
X72067Y-14173D02*
X74902D01*
X67087Y-14961D02*
X72067D01*
Y-14173D01*
X67087Y-17723D02*
X69849Y-14961D01*
X52404Y-37973D02*
X78074Y-12303D01*
X51202Y-36391D02*
X73420Y-14173D01*
X54362Y-41583D02*
X84748Y-11197D01*
X53461Y-39700D02*
X80858Y-12303D01*
X76673Y-61030D02*
X97119Y-40584D01*
X77362Y-63125D02*
X97119Y-43368D01*
X77064Y-57856D02*
X97119Y-37800D01*
X77362Y-68693D02*
X97119Y-48936D01*
X77362Y-65909D02*
X97119Y-46152D01*
X66961Y-18513D02*
X97119Y-48671D01*
X67087Y-15855D02*
X97119Y-45887D01*
X75533Y-56602D02*
X97119Y-35016D01*
X65679Y-20014D02*
X97119Y-51455D01*
X77362Y-66535D02*
Y-65354D01*
Y-66535D02*
Y-65354D01*
X76673Y-61614D02*
X77362D01*
Y-70276D02*
Y-66535D01*
X76673Y-70276D02*
X77362D01*
X72342Y-79280D02*
X97119Y-54504D01*
X76641Y-72198D02*
X97119Y-51720D01*
X76673Y-61614D02*
Y-60802D01*
X77362Y-65354D02*
Y-61614D01*
X72933D02*
Y-60802D01*
X72244Y-70276D02*
X72933D01*
X72244D02*
Y-66535D01*
Y-61614D02*
X72933D01*
X72244Y-65354D02*
Y-61614D01*
Y-66535D02*
Y-65354D01*
Y-66535D02*
Y-65354D01*
X76673Y-71850D02*
Y-70276D01*
X72933Y-71076D02*
Y-70276D01*
X69137Y-74134D02*
X72933Y-70338D01*
X67185Y-74134D02*
X69875D01*
X72342Y-76956D02*
X76126Y-73173D01*
X69875Y-74134D02*
X72933Y-71076D01*
X72342Y-85140D02*
X97119Y-109916D01*
X72342Y-87924D02*
X97119Y-112700D01*
X72342Y-82356D02*
X97119Y-107132D01*
X71095Y-92244D02*
X97119Y-118268D01*
X72342Y-90707D02*
X97119Y-115484D01*
X62261Y-156174D02*
X97119Y-121317D01*
X68311Y-92244D02*
X97119Y-121052D01*
X67829Y-156174D02*
X97119Y-126884D01*
X65045Y-156174D02*
X97119Y-124100D01*
X84532Y-156174D02*
X97119Y-143588D01*
X81749Y-156174D02*
X97119Y-140804D01*
X88042Y-156174D02*
X97119Y-147097D01*
X87316Y-156174D02*
X97119Y-146371D01*
X73397Y-156174D02*
X97119Y-132452D01*
X70613Y-156174D02*
X97119Y-129668D01*
X78965Y-156174D02*
X97119Y-138020D01*
X76181Y-156174D02*
X97119Y-135236D01*
X77362Y-62321D02*
X97119Y-82077D01*
X77362Y-65105D02*
X97119Y-84861D01*
X77324Y-59498D02*
X97119Y-79294D01*
X76965Y-70276D02*
X97119Y-90429D01*
X77362Y-67888D02*
X97119Y-87645D01*
X72342Y-84848D02*
X97119Y-60071D01*
X72342Y-82064D02*
X97119Y-57287D01*
X72342Y-90416D02*
X97119Y-65639D01*
X72342Y-87632D02*
X97119Y-62855D01*
X75210Y-74088D02*
X97119Y-95997D01*
X76513Y-72607D02*
X97119Y-93213D01*
X72426Y-76872D02*
X97119Y-101565D01*
X73818Y-75480D02*
X97119Y-98781D01*
X67185Y-92244D02*
X72342D01*
X67185D02*
Y-74134D01*
X72342Y-79572D02*
X97119Y-104349D01*
X72342Y-92244D02*
Y-76956D01*
X55905Y-62310D02*
X97119Y-21097D01*
X55905Y-65094D02*
X97119Y-23881D01*
X55905Y-59527D02*
X97119Y-18313D01*
X55905Y-70662D02*
X97119Y-29449D01*
X55905Y-67878D02*
X97119Y-26665D01*
X55905Y-56743D02*
X97119Y-15529D01*
X36418Y-18593D02*
X74360Y-56535D01*
X36417Y-15808D02*
X97119Y-76510D01*
X37810Y-22768D02*
X72675Y-57634D01*
X57815Y-87315D02*
X97119Y-126620D01*
X57815Y-84532D02*
X97119Y-123836D01*
X57815Y-92883D02*
X97119Y-132187D01*
X57815Y-90099D02*
X97119Y-129403D01*
X55101Y-92953D02*
X97119Y-134971D01*
X57815Y-71536D02*
X97119Y-32232D01*
X49533Y-92953D02*
X97119Y-140539D01*
X52317Y-92953D02*
X97119Y-137755D01*
X55905Y-54783D02*
X72566Y-71443D01*
X55905Y-57567D02*
X71174Y-72835D01*
X55905Y-60351D02*
X69688Y-74134D01*
X57815Y-74320D02*
X72350Y-59785D01*
X57815Y-77104D02*
X72244Y-62675D01*
X54696Y-42439D02*
X72580Y-60322D01*
X55663Y-46189D02*
X72244Y-62770D01*
X55905Y-51999D02*
X72244Y-68338D01*
X55905Y-49215D02*
X72244Y-65554D01*
X57815Y-78964D02*
X67185Y-88334D01*
X57815Y-85456D02*
X67185Y-76086D01*
X57815Y-81748D02*
X67185Y-91118D01*
X57815Y-91024D02*
X67185Y-81654D01*
X57815Y-79888D02*
X72244Y-65459D01*
X55905Y-68703D02*
X67185Y-79982D01*
X57815Y-82672D02*
X72244Y-68243D01*
X57815Y-73396D02*
X67185Y-82766D01*
X20503Y-156174D02*
X97119Y-79558D01*
X41752Y-90740D02*
X97119Y-146107D01*
X46749Y-92953D02*
X97119Y-143323D01*
X26071Y-156174D02*
X97119Y-85126D01*
X23287Y-156174D02*
X97119Y-82342D01*
X12152Y-156174D02*
X97119Y-71207D01*
X9368Y-156174D02*
X97119Y-68423D01*
X17719Y-156174D02*
X97119Y-76775D01*
X14935Y-156174D02*
X97119Y-73991D01*
X53910Y-156174D02*
X97119Y-112965D01*
X51126Y-156174D02*
X97119Y-110181D01*
X59478Y-156174D02*
X97119Y-118533D01*
X56694Y-156174D02*
X97119Y-115749D01*
X42774Y-156174D02*
X97119Y-101829D01*
X39990Y-156174D02*
X97119Y-99045D01*
X48342Y-156174D02*
X97119Y-107397D01*
X45558Y-156174D02*
X97119Y-104613D01*
X18248Y-83939D02*
X89262Y-154953D01*
X18248Y-86723D02*
X87699Y-156174D01*
X18248Y-89507D02*
X84916Y-156174D01*
X31639D02*
X97119Y-90694D01*
X28855Y-156174D02*
X97119Y-87910D01*
X3800Y-156174D02*
X67730Y-92244D01*
X1016Y-156174D02*
X67185Y-90005D01*
X15418Y-92244D02*
X79348Y-156174D01*
X6584D02*
X70514Y-92244D01*
X41181Y-92953D02*
X96222Y-147994D01*
X38397Y-92953D02*
X94830Y-149386D01*
X37207Y-156174D02*
X97119Y-96262D01*
X35613Y-92953D02*
X93438Y-150778D01*
X32830Y-92953D02*
X92046Y-152170D01*
X30046Y-92953D02*
X90654Y-153561D01*
X34423Y-156174D02*
X97119Y-93478D01*
X18202Y-92244D02*
X82132Y-156174D01*
X66772Y18996D02*
Y37106D01*
X59117Y18850D02*
X62244Y21977D01*
X56578Y19095D02*
X62244Y24761D01*
Y16732D02*
Y37106D01*
X60597Y17546D02*
X62244Y19193D01*
X48226Y19095D02*
X62244Y33112D01*
X48228Y19095D02*
X58071D01*
X53794D02*
X62244Y27545D01*
X51010Y19095D02*
X62244Y30328D01*
X61779Y15944D02*
X62244Y16409D01*
Y14961D02*
Y16732D01*
X61870Y14961D02*
Y15295D01*
X59741Y18403D02*
X61178Y16966D01*
X53565Y14370D02*
X56949Y10986D01*
X48622Y13785D02*
X49207Y14370D01*
X49606Y9339D02*
X54637Y14370D01*
X49606Y12123D02*
X51854Y14370D01*
X44589Y16434D02*
X46558Y18403D01*
X43898Y13287D02*
Y14764D01*
X56349Y14370D02*
X56949Y13770D01*
X49207Y14370D02*
X56949D01*
X50781D02*
X56949Y8203D01*
X49080Y13287D02*
X49606Y12761D01*
X48622Y13287D02*
Y13785D01*
X42913Y13287D02*
X43898D01*
X48622D02*
X49606D01*
X48622Y13746D02*
X49080Y13287D01*
X56949Y6496D02*
Y14370D01*
Y6496D02*
X61949D01*
X49606Y6555D02*
X56949Y13898D01*
X49606Y9977D02*
X66080Y-6496D01*
X49606Y7193D02*
X63296Y-6496D01*
X45990Y-5413D02*
X57899Y6496D01*
X43206Y-5413D02*
X56949Y8330D01*
X48773Y-5413D02*
X60683Y6496D01*
X36417Y-9418D02*
X56949Y11114D01*
X62067Y6496D02*
X66949D01*
X53259Y-6496D02*
X66251Y6496D01*
X62067Y-6496D02*
X66949D01*
X57067D02*
X61949D01*
X47618Y6398D02*
X60512Y-6496D01*
X44834Y6398D02*
X57728Y-6496D01*
X53259D02*
X66251Y6496D01*
X49606Y-7364D02*
X63467Y6496D01*
X49606Y6398D02*
Y13287D01*
X42913Y-5413D02*
X49606D01*
X49449Y6398D02*
X49606Y6555D01*
X51949Y-9449D02*
Y-6496D01*
X49606Y-8864D02*
Y-5413D01*
X42913Y6398D02*
X49606D01*
X42913D02*
Y13287D01*
Y-5706D02*
X43206Y-5413D01*
X42913Y-12303D02*
Y-5413D01*
X51949Y-6496D02*
X56949D01*
X50191Y-9449D02*
X51949D01*
X50306D02*
X51949Y-7806D01*
X50306Y-9449D02*
X51949Y-7806D01*
X49606Y-6726D02*
X51949Y-9069D01*
X49606Y-8864D02*
X50191Y-9449D01*
X42913Y-12303D02*
X46364D01*
X36651Y-20320D02*
X44668Y-12303D01*
X28719Y64272D02*
X62244Y30746D01*
X32733Y28656D02*
X54864Y50787D01*
X31471Y30178D02*
X52080Y50787D01*
X28129Y56510D02*
X62244Y22394D01*
X28236Y59186D02*
X62244Y25178D01*
X27207Y54648D02*
X62244Y19611D01*
X25935Y64272D02*
X62244Y27962D01*
X25771Y53299D02*
X62244Y16827D01*
X23804Y52483D02*
X57192Y19095D01*
X36110Y20897D02*
X61665Y46453D01*
X36417Y15637D02*
X58286Y37506D01*
X36397Y18400D02*
X57483Y39487D01*
X36417Y10069D02*
X62244Y35896D01*
X36417Y12853D02*
X60401Y36837D01*
X34790Y25145D02*
X58881Y49236D01*
X33843Y26982D02*
X57489Y50628D01*
X35556Y23127D02*
X60273Y47844D01*
X22835Y50668D02*
X54409Y19095D01*
X30090Y31580D02*
X49297Y50787D01*
X24611Y37060D02*
X30951Y30719D01*
X23266Y39102D02*
X45261Y17106D01*
X35051Y24533D02*
X44033Y15551D01*
X22835Y47885D02*
X51625Y19095D01*
X22835Y45101D02*
X48841Y19095D01*
X22835Y42317D02*
X46656Y18495D01*
X36417Y7286D02*
X43898Y14766D01*
X36417Y14815D02*
X42913Y8319D01*
X36417Y1718D02*
X42913Y8214D01*
X36417Y4502D02*
X42913Y10998D01*
X36154Y20646D02*
X43512Y13287D01*
X741Y21954D02*
X8858Y13837D01*
X36417Y17599D02*
X42913Y11102D01*
X-4809Y2250D02*
X7818Y14877D01*
X36417Y6463D02*
X48294Y-5413D01*
X36417Y-3850D02*
X46665Y6398D01*
X36417Y-1066D02*
X43881Y6398D01*
X36417Y-6634D02*
X49449Y6398D01*
X36417Y3679D02*
X45510Y-5413D01*
X36417Y12031D02*
X54944Y-6496D01*
X36417Y9247D02*
X52160Y-6496D01*
X36417Y-18496D02*
Y17523D01*
X8858Y-24693D02*
Y13837D01*
X36417Y-12202D02*
X42913Y-5706D01*
X36417Y-4673D02*
X42913Y-11169D01*
X36417Y-17769D02*
X42913Y-11273D01*
X36417Y-14986D02*
X42913Y-8489D01*
X36417Y-1889D02*
X42913Y-8385D01*
X36417Y895D02*
X42913Y-5601D01*
X-3051Y-9746D02*
X8858Y-21655D01*
X-2927Y-7087D02*
X8858Y-18872D01*
X-1673Y-2966D02*
X8858Y7565D01*
X-1673Y-5750D02*
X8858Y4781D01*
X-2475Y-984D02*
X8858Y10349D01*
X-3051Y-12696D02*
X8858Y-786D01*
X-3051Y-9912D02*
X8858Y1997D01*
X-4692Y-417D02*
X8858Y13133D01*
X-8125Y1717D02*
X6427Y16269D01*
X-4692Y246D02*
X-3461Y-984D01*
X-4692D02*
Y1969D01*
X-1673Y-7087D02*
Y-984D01*
X-3051Y-7087D02*
X-1673D01*
Y-5556D02*
X8858Y-16088D01*
X-1673Y-2772D02*
X8858Y-13304D01*
X-3051Y-15480D02*
X8858Y-3570D01*
X-4692Y-984D02*
X-1673D01*
X-3051Y-18264D02*
X8858Y-6354D01*
X-3051Y-20236D02*
Y-7087D01*
X56949Y-14961D02*
Y-14173D01*
X51949Y-14961D02*
X56949D01*
X51949Y-14636D02*
X52273Y-14961D01*
X57067D02*
X61929D01*
X57067D02*
Y-14173D01*
X42904Y-27986D02*
X55929Y-14961D01*
X41512Y-26594D02*
X53146Y-14961D01*
X45688Y-30770D02*
X61497Y-14961D01*
X44296Y-29378D02*
X58713Y-14961D01*
X61929Y-17717D02*
Y-14961D01*
X67087Y-17717D02*
Y-14961D01*
X60625D02*
X61929Y-16265D01*
X55905Y-70731D02*
Y-49299D01*
X48472Y-33554D02*
X62588Y-19438D01*
X47080Y-32162D02*
X61929Y-17312D01*
X49864Y-34946D02*
X64514Y-20295D01*
X46364Y-12303D02*
X47539Y-13478D01*
X51486Y-14173D02*
X51949Y-14636D01*
X49213Y-14173D02*
X51949D01*
X37480Y-22275D02*
X46908Y-12847D01*
X37480Y-22275D02*
X46908Y-12847D01*
X40120Y-25202D02*
X51149Y-14173D01*
X38728Y-23810D02*
X48481Y-14057D01*
X51949Y-14961D02*
Y-14173D01*
X38534Y-23616D02*
X50028Y-35110D01*
X30512Y-70771D02*
Y-56587D01*
X22244Y-62565D02*
X30185Y-54624D01*
X22244Y-66535D02*
Y-65354D01*
Y-61614D01*
X56079Y-70906D02*
X57815D01*
Y-76180D02*
X67185Y-85550D01*
X55905Y-70731D02*
X56052Y-70877D01*
X57815Y-88240D02*
X67185Y-78870D01*
X57815Y-92953D02*
Y-70906D01*
X55905Y-65919D02*
X67185Y-77198D01*
X55905Y-63135D02*
X67185Y-74414D01*
X44705Y-92953D02*
Y-74836D01*
X41752Y-84816D02*
X44705Y-81863D01*
X48720Y-92953D02*
X53799D01*
X48720D02*
X53799D01*
X55886D02*
X57815Y-91024D01*
X53799Y-92953D02*
X57815D01*
X41752Y-87599D02*
X44705Y-84647D01*
X41752Y-82388D02*
X44705Y-85341D01*
Y-92953D02*
X48720D01*
X41752Y-90383D02*
X44705Y-87431D01*
X42551Y-74836D02*
X44705Y-76989D01*
X41752Y-79248D02*
X44705Y-76295D01*
X41752Y-74836D02*
X44705D01*
X41752Y-82032D02*
X44705Y-79079D01*
X41752Y-76820D02*
X44705Y-79773D01*
X41752Y-76464D02*
X43380Y-74836D01*
X28642Y-70906D02*
X30377D01*
X41752Y-92953D02*
Y-74836D01*
X28642Y-92953D02*
Y-70906D01*
X41752Y-85172D02*
X44705Y-88125D01*
X41752Y-79604D02*
X44705Y-82557D01*
X41752Y-87956D02*
X44705Y-90908D01*
X37736Y-92953D02*
X41752D01*
X28642D02*
X32658D01*
X28642Y-91549D02*
X30046Y-92953D01*
X32658D02*
X37736D01*
X32658D02*
X37736D01*
X-3137Y-20796D02*
X29795Y-53728D01*
X14324Y-37888D02*
X28736Y-52300D01*
X19948Y-56510D02*
X26447Y-50011D01*
X22087Y-59939D02*
X29202Y-52823D01*
X21728Y-57514D02*
X27839Y-51403D01*
X-5771Y-23730D02*
X30512Y-60012D01*
X-4378Y-22338D02*
X30512Y-57228D01*
X-8554Y-26514D02*
X30512Y-65580D01*
X-7162Y-25122D02*
X30512Y-62796D01*
X22244Y-65349D02*
X30512Y-57081D01*
X22244Y-66535D02*
Y-65354D01*
Y-68133D02*
X30512Y-59865D01*
X22244Y-70276D02*
Y-66535D01*
X22087Y-59939D02*
X30512Y-68364D01*
X21555Y-61614D02*
X22244D01*
X-3051Y-18098D02*
X10017Y-31166D01*
X-3051Y-15314D02*
X9059Y-27424D01*
X21555Y-61614D02*
Y-60802D01*
X17815Y-61614D02*
Y-60802D01*
X-9946Y-27906D02*
X18801Y-56653D01*
X-3051Y-12530D02*
X8858Y-24439D01*
X17627Y-61614D02*
X17815Y-61427D01*
X17126Y-66535D02*
Y-65354D01*
Y-70276D02*
X17815D01*
X17126D02*
Y-66535D01*
Y-61614D02*
X17815D01*
X17126Y-62116D02*
X17627Y-61614D01*
X17126Y-66535D02*
Y-65354D01*
Y-61614D01*
X21555Y-71606D02*
X30512Y-62649D01*
X22244Y-62880D02*
X30270Y-70906D01*
X21555Y-70543D02*
X28642Y-77629D01*
X18913Y-76252D02*
X28642Y-85981D01*
X20304Y-74860D02*
X28642Y-83197D01*
X18248Y-80481D02*
X30512Y-68217D01*
X18248Y-77697D02*
X30512Y-65433D01*
X18248Y-86049D02*
X28642Y-75655D01*
X18248Y-83265D02*
X28642Y-72871D01*
X18248Y-88832D02*
X28642Y-78439D01*
X18248Y-78371D02*
X28642Y-88765D01*
X18248Y-91616D02*
X28642Y-81223D01*
X18248Y-81155D02*
X28642Y-91549D01*
X-7335Y-156174D02*
X55886Y-92953D01*
X-10119Y-156174D02*
X53102Y-92953D01*
X-1768Y-156174D02*
X67185Y-87221D01*
X-4552Y-156174D02*
X67185Y-84438D01*
X22244Y-65664D02*
X28642Y-72062D01*
X21555Y-70276D02*
X22244D01*
X21555Y-72835D02*
Y-70276D01*
X22244Y-68448D02*
X28642Y-74845D01*
X17815Y-72060D02*
Y-70276D01*
X13459Y-74134D02*
X17318Y-70276D01*
X15741Y-74134D02*
X17815Y-72060D01*
X21503Y-73274D02*
X28642Y-80413D01*
X18248Y-76916D02*
X21007Y-74157D01*
X18248Y-92244D02*
Y-76916D01*
X17620Y-92244D02*
X18248Y-91616D01*
X13091Y-74134D02*
X15741D01*
X13091Y-74503D02*
X13459Y-74134D01*
X13091Y-92244D02*
X18248D01*
X13091D02*
Y-74134D01*
X-10425Y155315D02*
X-9566Y156174D01*
X-12720Y144685D02*
X-9449Y141413D01*
X-15157Y155315D02*
X-8465D01*
X-26994Y156174D02*
X-9449Y138629D01*
X-29777Y156174D02*
X-9981Y136378D01*
X-32561Y156174D02*
X-10825Y134438D01*
X-10728Y119488D02*
X-8563D01*
X-10728Y118821D02*
X-10061Y119488D01*
X-10728Y117638D02*
X-6791Y113701D01*
X-10728Y116037D02*
X-7185Y119580D01*
X-14560Y131693D02*
X-10399Y135854D01*
X-15059Y131693D02*
X-10827D01*
X-15059Y125591D02*
X-8563D01*
X-15059D02*
X-8563D01*
X-13209Y155315D02*
X-12349Y156174D01*
X-13074D02*
X-12215Y155315D01*
X-15157Y144685D02*
Y155315D01*
X-12501Y144685D02*
X-12156Y144340D01*
X-15157Y144685D02*
X-12501D01*
X-15858Y156174D02*
X-14999Y155315D01*
X-18642Y156174D02*
X-15157Y152690D01*
X-24210Y156174D02*
X-15157Y147122D01*
X-21426Y156174D02*
X-15157Y149906D01*
X-10827Y131693D02*
Y134350D01*
X-11776Y131693D02*
X-10827Y132642D01*
X-15059Y131194D02*
X-14560Y131693D01*
X-15059Y123525D02*
Y125591D01*
X-15601Y122983D02*
X-15059Y123525D01*
Y125591D02*
Y131693D01*
X-10728Y112070D02*
X-6791Y108133D01*
X-10728Y107685D02*
X-6791Y111623D01*
X-10728Y109286D02*
X-7299Y105857D01*
X-10369Y105261D02*
X-6791Y108839D01*
X-10728Y106502D02*
X-8213Y103987D01*
X-10728Y114854D02*
X-6791Y110917D01*
X-10728Y113253D02*
X-6791Y117190D01*
X-13157Y80202D02*
X506Y93865D01*
X-10728Y110469D02*
X-6791Y114406D01*
X-11375Y79200D02*
X1508Y92084D01*
X-10421Y87795D02*
X-9055D01*
X-10381Y69059D02*
X8451Y87890D01*
X-11447Y82166D02*
X936Y69784D01*
X-11806Y70417D02*
X6906Y89129D01*
X-13157Y81092D02*
X-1848Y69784D01*
X-16437Y105763D02*
Y120965D01*
X-20413Y106353D02*
X-16437Y110328D01*
X-22467Y107083D02*
X-16437Y113112D01*
X-10728Y105763D02*
Y119488D01*
X-19189Y104793D02*
X-16437Y107545D01*
X-32586Y105315D02*
X-16383Y121518D01*
X-29802Y105315D02*
X-16437Y118680D01*
X-27018Y105315D02*
X-16437Y115896D01*
X-10654Y87562D02*
X-10421Y87795D01*
X-13157Y79897D02*
Y81520D01*
X-17425Y103773D02*
X-17279Y103919D01*
X-18922Y103773D02*
X-17299D01*
X-38129Y156174D02*
X-13648Y131693D01*
X-35345Y156174D02*
X-10864Y131693D01*
X-40913Y156174D02*
X-15059Y130320D01*
X-46481Y156174D02*
X-15059Y124752D01*
X-43697Y156174D02*
X-15059Y127536D01*
X-49265Y156174D02*
X-15823Y122733D01*
X-60400Y156174D02*
X-16437Y112211D01*
X-65968Y156174D02*
X-16437Y106643D01*
X-63184Y156174D02*
X-16437Y109427D01*
X-46505Y105315D02*
X-9449Y142372D01*
X-43722Y105315D02*
X-9449Y139588D01*
X-40938Y105315D02*
X-15059Y131194D01*
X-35370Y105315D02*
X-15059Y125626D01*
X-38154Y105315D02*
X-15059Y128410D01*
X-88042Y156174D02*
X88042D01*
X-53676Y106496D02*
X-15157Y145015D01*
X-49289Y105315D02*
X-10975Y143629D01*
X-50892Y106496D02*
X-12703Y144685D01*
X-71536Y156174D02*
X-22443Y107081D01*
X-52048Y156174D02*
X-16437Y120563D01*
X-74319Y156174D02*
X-24647Y106501D01*
X-77103Y156174D02*
X-26244Y105315D01*
X-79887Y156174D02*
X-29028Y105315D01*
X-85455Y156174D02*
X-34596Y105315D01*
X-97119Y107595D02*
X-48540Y156174D01*
X-82671D02*
X-31812Y105315D01*
X-97119Y104811D02*
X-45756Y156174D01*
X-57616D02*
X-16437Y114995D01*
X-54832Y156174D02*
X-16437Y117779D01*
X-50590Y105315D02*
X-25818D01*
X-88140Y156076D02*
X-37380Y105315D01*
X-92316Y151900D02*
X-45731Y105315D01*
X-93708Y150508D02*
X-48515Y105315D01*
X-89532Y154684D02*
X-40164Y105315D01*
X-90924Y153292D02*
X-42948Y105315D01*
X-71336Y102756D02*
X-17917Y156174D01*
X-68752D02*
X-17125Y104547D01*
X-97119Y85324D02*
X-26269Y156174D01*
X-97119Y79756D02*
X-20701Y156174D01*
X-97119Y82540D02*
X-23485Y156174D01*
X-97119Y93676D02*
X-34621Y156174D01*
X-97119Y96460D02*
X-37405Y156174D01*
X-97119Y88108D02*
X-29053Y156174D01*
X-97119Y90892D02*
X-31837Y156174D01*
X-40865Y75394D02*
X-39599Y74128D01*
Y68947D02*
Y75210D01*
X-43456Y75201D02*
X-39599Y71344D01*
X-68552Y102756D02*
X-15133Y156174D01*
X-66437Y102087D02*
X-15157Y153366D01*
X-66437Y96519D02*
X-15157Y147799D01*
X-66437Y99303D02*
X-15157Y150582D01*
X-47736Y75394D02*
X-44291D01*
X-47736Y74409D02*
Y75394D01*
X-66418Y84243D02*
X-45559Y63385D01*
X-66437Y78695D02*
X-48343Y60601D01*
X-97119Y99243D02*
X-40188Y156174D01*
X-97119Y102027D02*
X-42972Y156174D01*
X-97119Y24079D02*
X-45804Y75394D01*
X-66437Y81479D02*
X-46951Y61993D01*
X-46433Y75394D02*
X-39892Y68853D01*
X-42323Y75394D02*
X-40846D01*
X-48232Y74409D02*
X-41383Y67560D01*
X-51016Y74409D02*
X-42775Y66168D01*
X-53800Y74409D02*
X-44167Y64777D01*
X-54626Y74409D02*
X-47736D01*
X-97119Y18511D02*
X-40380Y75250D01*
X-97119Y21295D02*
X-43215Y75199D01*
X-11713Y45456D02*
X-4892Y52277D01*
X-11713Y51809D02*
X-4724Y44821D01*
X-11056Y73423D02*
X-7285Y69653D01*
X-11713Y49025D02*
X-4724Y42037D01*
X-11713Y42672D02*
X-4724Y49660D01*
X-12917Y72501D02*
X-8208Y67792D01*
X-11713Y51024D02*
X-8632Y54104D01*
X-11713Y54593D02*
X-4724Y47605D01*
X-11713Y48240D02*
X-7018Y52934D01*
X-11713Y40674D02*
X-4662Y33623D01*
X-11713Y31536D02*
X-4724Y38525D01*
X-11713Y34320D02*
X-4724Y41309D01*
X-11713Y37890D02*
X-4068Y30245D01*
X-11713Y28753D02*
X-4724Y35741D01*
X-11713Y46241D02*
X-4724Y39253D01*
X-11713Y39888D02*
X-4724Y46876D01*
X-11713Y43457D02*
X-4724Y36469D01*
X-11713Y37104D02*
X-4724Y44092D01*
X-13157Y71851D02*
X-12361Y72646D01*
X-13157Y70842D02*
Y72465D01*
X-17548Y57645D02*
X-17253Y57349D01*
X-18922Y57645D02*
X-17299D01*
X-19226Y56538D02*
X-15453Y52765D01*
X-10416Y56080D02*
X-9347Y55011D01*
X-11713Y53807D02*
X-9751Y55769D01*
X-11713Y32283D02*
Y54832D01*
X-15453Y33058D02*
Y54832D01*
X-22586Y54331D02*
X-15453Y47198D01*
X-20484Y55013D02*
X-15453Y49981D01*
X-30024Y56201D02*
X-15453Y41630D01*
X-27240Y56201D02*
X-15453Y44414D01*
X-11713Y17617D02*
X-2677Y26652D01*
X-11713Y14833D02*
X-1653Y24893D01*
X-11713Y20401D02*
X-3531Y28583D01*
X-11713Y23970D02*
X8858Y3399D01*
X-11713Y26754D02*
X8858Y6183D01*
X-11713Y35106D02*
X-1923Y25317D01*
X-11713Y23185D02*
X-4188Y30709D01*
X-11713Y29538D02*
X8858Y8967D01*
X-11713Y32322D02*
X8858Y11751D01*
X-11417Y3993D02*
X3643Y19053D01*
X-11417Y6777D02*
X2251Y20445D01*
X-11713Y15619D02*
X8858Y-4952D01*
X-11713Y18403D02*
X8858Y-2168D01*
X-11713Y9265D02*
X859Y21837D01*
X-11713Y12049D02*
X-471Y23291D01*
X-11713Y21186D02*
X8858Y616D01*
X-11736Y890D02*
X5035Y17661D01*
X-11417Y6972D02*
X-6528Y2083D01*
X-11417Y4188D02*
X-8794Y1564D01*
X-11713Y7382D02*
X-11417D01*
Y1404D02*
X-11059Y1045D01*
X-11417Y1280D02*
Y7382D01*
X-11713Y25969D02*
X-4608Y33073D01*
X-11713Y7382D02*
Y32283D01*
X-13131Y571D02*
X-5213Y2384D01*
X-13149Y1280D02*
X-13131Y571D01*
X-13149Y1280D02*
X-11417D01*
X-27860Y-4238D02*
X-25892Y-6207D01*
X-25591Y-6332D02*
X-20866D01*
X-25892Y-6207D02*
X-25591Y-6332D01*
X-27985Y-3937D02*
X-27860Y-4238D01*
X-27985Y-3937D02*
Y-1476D01*
X-30217Y-6455D02*
X-27901Y-4139D01*
X-30217Y-7283D02*
Y-1476D01*
X-32808Y56201D02*
X-15453Y38846D01*
X-35592Y56201D02*
X-15453Y36062D01*
X-39580Y56201D02*
X-25877D01*
X-38375D02*
X-15453Y33278D01*
X-40369Y55411D02*
X-16735Y31776D01*
X-48622Y28034D02*
X-22311Y54345D01*
X-48622Y30817D02*
X-24571Y54869D01*
X-48622Y22466D02*
X-15929Y55159D01*
X-48622Y25250D02*
X-17093Y56779D01*
X-41761Y54019D02*
X-18127Y30384D01*
X-43153Y52627D02*
X-19519Y28992D01*
X-44545Y51235D02*
X-20910Y27600D01*
X-45937Y49843D02*
X-22302Y26208D01*
X-47329Y48451D02*
X-23694Y24816D01*
X-48622Y46960D02*
X-25086Y23425D01*
X-48622Y16898D02*
X-15453Y50067D01*
X-48622Y19682D02*
X-15453Y52851D01*
X-48622Y41953D02*
X-34374Y56201D01*
X-48622Y36385D02*
X-28806Y56201D01*
X-48622Y39169D02*
X-31590Y56201D01*
X-48622Y47159D02*
X-39580Y56201D01*
X-56933Y52011D02*
X-40496Y68448D01*
X-48622Y44737D02*
X-37158Y56201D01*
X-97119Y26863D02*
X-49572Y74409D01*
X-48622Y38609D02*
X-29262Y19249D01*
X-48622Y35825D02*
X-30654Y17857D01*
X-48622Y33041D02*
X-32046Y16465D01*
X-48622Y15748D02*
X-48228D01*
X-48622Y33601D02*
X-26023Y56201D01*
X-48622Y44176D02*
X-26478Y22033D01*
X-48622Y41392D02*
X-27870Y20641D01*
X-48622Y15748D02*
Y47159D01*
X-34787Y13724D02*
X-15453Y33058D01*
X-48228Y8940D02*
X-15453Y41716D01*
X-48228Y11724D02*
X-15453Y44500D01*
X-48228Y14508D02*
X-15453Y47284D01*
X-48622Y30257D02*
X-33438Y15073D01*
X-48622Y27473D02*
X-34829Y13680D01*
X-48622Y24689D02*
X-35335Y11402D01*
X-30217Y-1476D02*
X-27985D01*
X-35335Y4921D02*
Y12402D01*
X-30217Y-3671D02*
X-28022Y-1476D01*
X-31319Y-7283D02*
X-30217D01*
X-36713Y-1181D02*
X-30906D01*
X-36713D02*
X-30906D01*
X-36713Y-7283D02*
X-35059D01*
X-53316Y-7283D02*
X-35335Y10698D01*
X-48622Y16338D02*
X-36713Y4428D01*
X-48228Y13160D02*
X-36713Y1644D01*
X-48228Y7283D02*
Y15748D01*
Y7592D02*
X-36713Y-3923D01*
X-48228Y10376D02*
X-36713Y-1140D01*
X-97119Y12943D02*
X-39599Y70463D01*
X-97119Y15727D02*
X-39599Y73247D01*
X-48622Y19121D02*
X-35335Y5834D01*
X-48622Y21905D02*
X-35335Y8618D01*
X-35544Y4921D02*
X-35335Y5131D01*
X-36713Y-1815D02*
X-36079Y-1181D01*
X-36713Y-6707D02*
X-36136Y-7283D01*
X-36713D02*
Y-1181D01*
Y4921D02*
X-35335D01*
X-52756Y7283D02*
X-48228D01*
X-50703D02*
X-36713Y-6707D01*
Y-1181D02*
Y4921D01*
X-55709Y106496D02*
X-50590D01*
Y105315D02*
Y106496D01*
X-55709Y99803D02*
Y106496D01*
X-56979Y97047D02*
X-54224Y99803D01*
X-55709D02*
X-54224D01*
X-57557Y97047D02*
X-54801Y99803D01*
X-64503Y95669D02*
X-55709Y104463D01*
X-61719Y95669D02*
X-55709Y101680D01*
X-59449Y95669D02*
Y97047D01*
X-57513Y83661D02*
Y87795D01*
Y83661D02*
X-57388Y83360D01*
X-58834Y87795D02*
X-57513Y86474D01*
X-57087Y83235D02*
X-54626D01*
X-57388Y83360D02*
X-57087Y83235D01*
X-59449Y97047D02*
X-56979D01*
X-66437Y95669D02*
X-59449D01*
X-61618Y87795D02*
X-57513Y83690D01*
X-62866Y87795D02*
X-57513D01*
X-66437Y100966D02*
X-61141Y95669D01*
X-66437Y96063D02*
Y96850D01*
Y96063D02*
Y96850D01*
Y98182D02*
X-63924Y95669D01*
X-66437D02*
Y96063D01*
X-73327Y102756D02*
X-66437D01*
X-73327Y96850D02*
Y102756D01*
X-66437Y96850D02*
Y102756D01*
X-73327Y96063D02*
Y96850D01*
X-72080Y87008D02*
Y90158D01*
X-72332D02*
X-72080Y89905D01*
X-66437Y82600D02*
X-61241Y87795D01*
X-66437Y84224D02*
X-62866Y87795D01*
X-73327Y87008D02*
X-72080D01*
X-73327Y90158D02*
X-72080D01*
X-73164Y87008D02*
X-72080Y88092D01*
X-73327Y81102D02*
Y87008D01*
X-57058Y83235D02*
X-54626Y80803D01*
Y80315D02*
Y81102D01*
Y83235D01*
X-63634Y87027D02*
X-54626Y78019D01*
Y80315D02*
Y81102D01*
X-65026Y85635D02*
X-54626Y75235D01*
X-66437Y74248D02*
X-57343Y83342D01*
X-66437Y68680D02*
X-54626Y80491D01*
X-66437Y71464D02*
X-54666Y83235D01*
X-66437Y75911D02*
X-49735Y59209D01*
X-54626Y74409D02*
Y80315D01*
X-66437Y73127D02*
X-51127Y57817D01*
X-66437Y70343D02*
X-52519Y56425D01*
X-66437Y63112D02*
X-54626Y74923D01*
X-66437Y65896D02*
X-54626Y77707D01*
X-66437Y67559D02*
X-53911Y55033D01*
X-66437Y64775D02*
X-55303Y53641D01*
X-66437Y80315D02*
Y81102D01*
Y80315D02*
Y81102D01*
Y84224D01*
Y77032D02*
X-57513Y85956D01*
X-66437Y75197D02*
Y80315D01*
X-73327D02*
Y81102D01*
Y80315D02*
Y81102D01*
X-66437Y79816D02*
X-58457Y87795D01*
X-73327Y74409D02*
Y75197D01*
X-66437Y74409D02*
Y75197D01*
Y74409D02*
Y75197D01*
Y68504D02*
Y74409D01*
X-66437Y62598D02*
Y68504D01*
X-73327Y69291D02*
Y74409D01*
Y75197D01*
X-66951Y62598D02*
X-66437Y63112D01*
Y68504D02*
Y69291D01*
X-97119Y115947D02*
X-56892Y156174D01*
X-97119Y113163D02*
X-54108Y156174D01*
X-97119Y118731D02*
X-59676Y156174D01*
X-97119Y110379D02*
X-51324Y156174D01*
X-95100Y149116D02*
X-52480Y106496D01*
X-97119Y127082D02*
X-68027Y156174D01*
X-97119Y129866D02*
X-70811Y156174D01*
X-97119Y121514D02*
X-62459Y156174D01*
X-97119Y124298D02*
X-65243Y156174D01*
X-96492Y147724D02*
X-55264Y106496D01*
X-97119Y131648D02*
X-68227Y102756D01*
X-97119Y128864D02*
X-71011Y102756D01*
X-97119Y134432D02*
X-59449Y96761D01*
X-97119Y112161D02*
X-72080Y87121D01*
X-97119Y142783D02*
X-55709Y101373D01*
X-97119Y145567D02*
X-55709Y104157D01*
X-97119Y139999D02*
X-55573Y98453D01*
X-97119Y137215D02*
X-56965Y97062D01*
X-97119Y135434D02*
X-76379Y156174D01*
X-97119Y132650D02*
X-73595Y156174D01*
X-97119Y138218D02*
X-79163Y156174D01*
X-97119Y123296D02*
X-73327Y99504D01*
X-97119Y126080D02*
X-73327Y102288D01*
X-97119Y146569D02*
X-87514Y156174D01*
X-97119Y147097D02*
X-88042Y156174D01*
X-97119Y141002D02*
X-81946Y156174D01*
X-97119Y143786D02*
X-84730Y156174D01*
X-73327Y90158D02*
Y96063D01*
Y96850D01*
Y86845D02*
X-73164Y87008D01*
X-97119Y106593D02*
X-73327Y82801D01*
X-97119Y117728D02*
X-73327Y93936D01*
X-97119Y120512D02*
X-73327Y96720D01*
X-97119Y109377D02*
X-73327Y85584D01*
X-97119Y114945D02*
X-73327Y91152D01*
X-97119Y63053D02*
X-73327Y86845D01*
X-97119Y60269D02*
X-73327Y84061D01*
Y75197D02*
Y80315D01*
X-97119Y54701D02*
X-73327Y78494D01*
X-97119Y57485D02*
X-73327Y81278D01*
X-97119Y101025D02*
X-73327Y77233D01*
X-97119Y103809D02*
X-73327Y80017D01*
X-97119Y65837D02*
X-72799Y90158D01*
X-97119Y76972D02*
X-73327Y100765D01*
X-97119Y70402D02*
X-57480Y30764D01*
X-97119Y32430D02*
X-66951Y62598D01*
X-97119Y64835D02*
X-57480Y25196D01*
X-97119Y67619D02*
X-57480Y27980D01*
X-97119Y75970D02*
X-57480Y36331D01*
X-97119Y51917D02*
X-73327Y75710D01*
X-97119Y29646D02*
X-52356Y74409D01*
X-97119Y73186D02*
X-57480Y33547D01*
X-97119Y92673D02*
X-73737Y69291D01*
X-97119Y89890D02*
X-76521Y69291D01*
X-97119Y87106D02*
X-79232Y69219D01*
X-97119Y68621D02*
X-73327Y92413D01*
X-97119Y84322D02*
X-79232Y66435D01*
X-97119Y74189D02*
X-73327Y97981D01*
X-97119Y98241D02*
X-73327Y74449D01*
X-97119Y71405D02*
X-73327Y95197D01*
X-97119Y95457D02*
X-73327Y71665D01*
X-76961Y69291D02*
X-73327Y72926D01*
X-79232Y69291D02*
X-73327D01*
X-74177D02*
X-73327Y70142D01*
X-79232Y62598D02*
Y69291D01*
X-97119Y78754D02*
X-78346Y59981D01*
X-97119Y81538D02*
X-79232Y63651D01*
X-97119Y46350D02*
X-79232Y64236D01*
X-97119Y49134D02*
X-79232Y67020D01*
X-64445Y28914D02*
X-57480Y35879D01*
Y15748D02*
Y50689D01*
X-62676Y27899D02*
X-57480Y33095D01*
X-67044Y62598D02*
X-56695Y52249D01*
X-69828Y62598D02*
X-57480Y50251D01*
X-64969Y31173D02*
X-57480Y38662D01*
X-66842Y32085D02*
X-57480Y41446D01*
X-58089Y21351D02*
X-57480Y21959D01*
X-58348Y20496D02*
X-57480Y19628D01*
X-58791Y23433D02*
X-57480Y24743D01*
X-57874Y15748D02*
X-57480D01*
X-59852Y19216D02*
X-57480Y16844D01*
X-60800Y24207D02*
X-57480Y27527D01*
X-61362Y26429D02*
X-57480Y30311D01*
X-61303Y26234D02*
X-57480Y22412D01*
X-64379Y29311D02*
X-63136Y28067D01*
X-69728Y29373D02*
X-69487Y29615D01*
X-70276Y24114D02*
Y28051D01*
X-61417Y18221D02*
X-60543Y19096D01*
X-61417Y18022D02*
X-60327Y19113D01*
X-61417Y15748D02*
X-61024D01*
X-71260Y17224D02*
X-70276D01*
X-71260Y15748D02*
Y17224D01*
X-70276Y15748D02*
Y17224D01*
X-70669Y15748D02*
X-70276D01*
X-61024Y10064D02*
X-57874Y13214D01*
X-61024Y12036D02*
X-57874Y8886D01*
X-61024Y14820D02*
X-57874Y11670D01*
X-53347Y7283D02*
Y11090D01*
X-57874Y7283D02*
Y15748D01*
X-61024Y15632D02*
X-57480Y19175D01*
X-61417Y17997D02*
X-57874Y14454D01*
X-61024Y12848D02*
X-57480Y16391D01*
X-61024Y7283D02*
Y15748D01*
X-53347Y9390D02*
X-52756Y9980D01*
X-53347Y11090D02*
X-52756D01*
Y7283D02*
Y11090D01*
X-53347Y9927D02*
X-52756Y9336D01*
X-57874Y7283D02*
X-53347D01*
X-63583D02*
X-61024D01*
X-55315Y-7283D02*
X-50787D01*
X-70020D02*
X-55453Y7283D01*
X-61417Y15748D02*
Y18221D01*
X-71260Y8180D02*
X-70669Y8770D01*
X-71260Y11137D02*
X-70669Y10546D01*
Y7283D02*
Y15748D01*
X-71260Y8353D02*
X-70669Y7762D01*
X-71260Y13920D02*
X-70669Y13330D01*
X-71260Y13747D02*
X-70669Y14338D01*
X-71260Y10964D02*
X-70669Y11554D01*
X-71260Y7283D02*
Y15748D01*
X-66142Y7283D02*
X-65551D01*
X-68110D02*
X-66142D01*
X-65551D02*
X-63583D01*
X-65551D02*
X-63583D01*
X-70669D02*
X-68110D01*
X-70669Y7762D02*
X-70191Y7283D01*
X-68110D02*
X-66142D01*
X-68701Y-7283D02*
X-68110D01*
X-73327Y62598D02*
X-72342D01*
X-66437D01*
X-73327D02*
X-72342D01*
X-73264Y60467D02*
X-57480Y44683D01*
X-72612Y62598D02*
X-57480Y47467D01*
X-73896Y58315D02*
X-57480Y41899D01*
X-73568Y58765D02*
X-69735Y62598D01*
X-97119Y62051D02*
X-67146Y32077D01*
X-97119Y59267D02*
X-68950Y31098D01*
X-75846Y57481D02*
X-57480Y39115D01*
X-76181Y24114D02*
X-70276D01*
X-74813D02*
X-70113Y28814D01*
X-72029Y24114D02*
X-70276Y25867D01*
X-97119Y56483D02*
X-69861Y29225D01*
X-97119Y53699D02*
X-70276Y26856D01*
X-78494Y23216D02*
X-57480Y44230D01*
X-97119Y50915D02*
X-70318Y24114D01*
X-73524Y62598D02*
X-73327D01*
X-73524Y61594D02*
X-72519Y62598D01*
X-78051Y61233D02*
Y62598D01*
X-73524Y61233D02*
Y62598D01*
X-79232D02*
X-78051D01*
X-97119Y43566D02*
X-78087Y62598D01*
X-97119Y40782D02*
X-78307Y59594D01*
X-77547Y22933D02*
X-76181D01*
X-97119Y42564D02*
X-77488Y22933D01*
X-76181D02*
Y24114D01*
X-97119Y39780D02*
X-80147Y22807D01*
X-97119Y35214D02*
X-74513Y57820D01*
X-97119Y37998D02*
X-77207Y57910D01*
X-97119Y48131D02*
X-73102Y24114D01*
X-97119Y45347D02*
X-75886Y24114D01*
X-71260Y16531D02*
X-70567Y17224D01*
X-71260Y16704D02*
X-70303Y15748D01*
X-71260Y11516D02*
Y15748D01*
X-97119Y17509D02*
X-75787Y-3823D01*
X-97119Y20293D02*
X-75787Y-1039D01*
X-97119Y7375D02*
X-57480Y47014D01*
X-97119Y10159D02*
X-57480Y49798D01*
X-97119Y23076D02*
X-75787Y1745D01*
X-97119Y25860D02*
X-75787Y4529D01*
X-71260Y2612D02*
X-66588Y7283D01*
X-71260Y5396D02*
X-69372Y7283D01*
X-71260Y-5740D02*
X-57874Y7646D01*
X-71260Y-172D02*
X-63804Y7283D01*
X-71260D02*
Y11516D01*
X-75787Y7283D02*
Y11516D01*
X-71260Y-2956D02*
X-57874Y10430D01*
X-97119Y14725D02*
X-75787Y-6607D01*
X-77547Y18406D02*
X-76181D01*
Y17224D02*
Y18406D01*
X-97119Y1808D02*
X-80292Y18635D01*
X-97119Y4592D02*
X-81287Y20423D01*
X-97119Y34212D02*
X-75787Y12880D01*
X-97119Y36996D02*
X-81257Y21134D01*
X-97119Y28644D02*
X-75787Y7313D01*
X-97119Y31428D02*
X-75787Y10097D01*
X-75787Y15748D02*
Y17224D01*
X-76181D02*
X-75787D01*
Y11516D02*
Y15748D01*
X-75787Y7283D02*
Y15748D01*
X-78276Y18153D02*
X-75787Y15664D01*
X-97119Y-976D02*
X-77886Y18257D01*
X-97119Y-6544D02*
X-75787Y14788D01*
X-97119Y-3760D02*
X-76135Y17224D01*
X-11713Y12835D02*
X8858Y-7736D01*
X-18307Y-7382D02*
X-18012D01*
X-18307D02*
X-18012D01*
X-11713Y10051D02*
X8858Y-10520D01*
X-18012Y-30682D02*
Y-7382D01*
X-30217Y-2068D02*
X-18012Y-14273D01*
X-23169Y-6332D02*
X-18012Y-11489D01*
X-30569Y-7283D02*
X-18012Y-19840D01*
X-30217Y-4852D02*
X-18012Y-17056D01*
X-14819Y-32779D02*
X-3599Y-21559D01*
X-31319Y-43989D02*
X-18012Y-30682D01*
X-19335Y-7382D02*
X-18012Y-8705D01*
X-19084Y-56568D02*
X9206Y-28278D01*
X-31319Y-49279D02*
X-14819Y-32779D01*
X-31319Y-24260D02*
X-18012Y-10953D01*
X-31319Y-9317D02*
X-18012Y-22624D01*
X-31319Y-49315D02*
X8858Y-9138D01*
X-31319Y-43747D02*
X-18012Y-30440D01*
X-20866Y-7382D02*
Y-6332D01*
Y-7382D02*
X-18307D01*
X-31319Y-7557D02*
X-31045Y-7283D01*
X-31319Y-21476D02*
X-18012Y-8169D01*
X-31319Y-18692D02*
X-20008Y-7382D01*
X-31319Y-13125D02*
X-24526Y-6332D01*
X-31319Y-10341D02*
X-26538Y-5560D01*
X-31319Y-15909D02*
X-21742Y-6332D01*
X-31319Y-43989D02*
Y-7283D01*
Y-39940D02*
X-29294Y-41965D01*
X-31319Y-42724D02*
X-30686Y-43356D01*
X-29433Y-47393D02*
X-20264Y-56562D01*
X-30825Y-48785D02*
X-21877Y-57734D01*
X-31319Y-28804D02*
X-23727Y-36397D01*
X-31319Y-31588D02*
X-25118Y-37789D01*
X-31319Y-34372D02*
X-26510Y-39181D01*
X-31319Y-37156D02*
X-27902Y-40573D01*
X-11338Y-29298D02*
X17357Y-57993D01*
X-12730Y-30690D02*
X17815Y-61235D01*
X-14122Y-32082D02*
X17126Y-63330D01*
X-16906Y-34866D02*
X17126Y-68898D01*
X-15514Y-33474D02*
X17126Y-66114D01*
X-17822Y-72008D02*
X15311Y-38875D01*
X-17126Y-68529D02*
X13926Y-37477D01*
X-18298Y-36257D02*
X17660Y-72215D01*
X-19690Y-37650D02*
X16268Y-73607D01*
X-22146Y-87468D02*
X20879Y-44443D01*
X-21082Y-39041D02*
X14011Y-74134D01*
X-22146Y-90252D02*
X22271Y-45835D01*
X-17192Y-59634D02*
X13091Y-89917D01*
X-22146Y-81900D02*
X18095Y-41659D01*
X-22146Y-79116D02*
X16703Y-40267D01*
X-22146Y-84684D02*
X19487Y-43051D01*
X-22146Y-81900D02*
X18095Y-41659D01*
X-17815Y-60866D02*
X10564Y-32487D01*
X-17126Y-62961D02*
X11526Y-34308D01*
X-17483Y-57751D02*
X9781Y-30487D01*
X-22474Y-40433D02*
X13091Y-75998D01*
X-17126Y-65745D02*
X12650Y-35969D01*
X-25258Y-43217D02*
X13091Y-81565D01*
X-23866Y-41825D02*
X13091Y-78781D01*
X-28041Y-46001D02*
X13091Y-87133D01*
X-26649Y-44609D02*
X13091Y-84349D01*
X-31319Y-68802D02*
X-22173Y-59656D01*
X-31319Y-59427D02*
X-22244Y-68502D01*
X-31319Y-51075D02*
X-21555Y-60839D01*
X-31319Y-53859D02*
X-22244Y-62934D01*
X-31319Y-56643D02*
X-22244Y-65718D01*
X-31319Y-72874D02*
Y-49279D01*
Y-27044D02*
X-18012Y-13737D01*
X-31319Y-14885D02*
X-18012Y-28192D01*
X-31319Y-12101D02*
X-18012Y-25408D01*
X-31319Y-29828D02*
X-18012Y-16521D01*
X-31319Y-17669D02*
X-18159Y-30829D01*
X-56100Y-7283D02*
X-15453Y33364D01*
X-58884Y-7283D02*
X-15453Y36148D01*
X-63583Y-9198D02*
X-15453Y38932D01*
X-51181Y-17294D02*
X-35059Y-33416D01*
X-31319Y-32612D02*
X-18012Y-19305D01*
X-31319Y-20453D02*
X-19551Y-32221D01*
X-31319Y-23237D02*
X-20943Y-33613D01*
X-31319Y-35396D02*
X-18012Y-22089D01*
X-31319Y-26020D02*
X-22334Y-35005D01*
X-42022Y-32180D02*
X-35059Y-25216D01*
X-43414Y-30788D02*
X-35059Y-22433D01*
X-39415Y-35140D02*
X-35059Y-30784D01*
X-40630Y-33572D02*
X-35059Y-28000D01*
X-53487Y7283D02*
X-35059Y-11145D01*
X-36136Y-7283D02*
X-35059Y-8361D01*
X-50787Y-7538D02*
X-35335Y7914D01*
X-51181Y-21851D02*
X-36613Y-7283D01*
X-51181Y-16284D02*
X-36713Y-1815D01*
X-61024Y9252D02*
X-35059Y-16713D01*
X-56271Y7283D02*
X-35059Y-13929D01*
X-64623Y7283D02*
X-35059Y-22280D01*
X-61839Y7283D02*
X-35059Y-19496D01*
X-47590Y-26612D02*
X-35059Y-14081D01*
X-48982Y-25220D02*
X-35059Y-11297D01*
X-44806Y-29396D02*
X-35059Y-19649D01*
X-46198Y-28004D02*
X-35059Y-16865D01*
X-50787Y-9336D02*
X-35059Y-25064D01*
X-50374Y-23828D02*
X-35059Y-8513D01*
X-50787Y-14904D02*
X-35059Y-30632D01*
X-50787Y-12120D02*
X-35059Y-27848D01*
X-31319Y-60451D02*
X8858Y-20274D01*
X-31319Y-40964D02*
X-18012Y-27656D01*
X-31319Y-38180D02*
X-18012Y-24873D01*
X-31319Y-66018D02*
X8892Y-25808D01*
X-31319Y-63235D02*
X8858Y-23057D01*
X-31319Y-54883D02*
X8858Y-14706D01*
X-31319Y-52099D02*
X8858Y-11922D01*
X-34626Y-105516D02*
X23663Y-47227D01*
X-31319Y-57667D02*
X8858Y-17490D01*
X-39350Y-54179D02*
X-35059Y-58471D01*
X-39350Y-57347D02*
X-35059Y-53055D01*
X-39350Y-56963D02*
X-35059Y-61255D01*
X-39350Y-60131D02*
X-35059Y-55839D01*
X-39350Y-51395D02*
X-35059Y-55687D01*
X-39350Y-54563D02*
X-35059Y-50271D01*
X-82500Y-156174D02*
X25055Y-48619D01*
X-79716Y-156174D02*
X17140Y-59318D01*
X-39350Y-43427D02*
X-35059Y-39136D01*
X-39350Y-40260D02*
X-35059Y-44551D01*
X-39350Y-37476D02*
X-35059Y-41767D01*
Y-48504D02*
Y-7283D01*
X-39350Y-46211D02*
X-35059Y-41920D01*
X-39350Y-37859D02*
X-35059Y-33568D01*
X-51181Y-20078D02*
X-35059Y-36200D01*
X-39350Y-40643D02*
X-35059Y-36352D01*
X-51181Y-22862D02*
X-35059Y-38984D01*
X-39350Y-62914D02*
X-35059Y-58623D01*
X-39350Y-48612D02*
X-35059Y-52903D01*
Y-72874D02*
Y-48504D01*
X-39350Y-59747D02*
X-35059Y-64038D01*
X-39350Y-48995D02*
X-35059Y-44704D01*
X-39350Y-43044D02*
X-35059Y-47335D01*
X-39350Y-51779D02*
X-35059Y-47488D01*
X-39350Y-45828D02*
X-35059Y-50119D01*
X-17126Y-65354D02*
Y-61614D01*
Y-66535D02*
Y-65354D01*
X-17815Y-61614D02*
X-17126D01*
Y-70276D02*
Y-66535D01*
Y-65354D01*
X-21555Y-61614D02*
Y-60802D01*
X-22244Y-61614D02*
X-21555D01*
X-17815D02*
Y-60802D01*
X-22244Y-66535D02*
Y-65354D01*
X-17815Y-71850D02*
Y-70276D01*
X-17126D01*
X-21555Y-71076D02*
Y-70276D01*
X-22244D02*
X-21555D01*
X-25515Y-74134D02*
X-21657Y-70276D01*
X-22146Y-76956D02*
X-18363Y-73173D01*
X-24613Y-74134D02*
X-21555Y-71076D01*
X-22244Y-66535D02*
Y-65354D01*
Y-70276D02*
Y-66535D01*
Y-65354D02*
Y-61614D01*
X-30610Y-76445D02*
X-22244Y-68079D01*
X-30610Y-73661D02*
X-22244Y-65295D01*
X-31319Y-64995D02*
X-23396Y-72917D01*
X-31319Y-72874D02*
X-30610D01*
X-31319Y-67779D02*
X-24964Y-74134D01*
X-31319Y-70562D02*
X-27303Y-74578D01*
Y-74134D02*
X-24613D01*
X-30610Y-79623D02*
X-27303Y-82930D01*
X-30610Y-82407D02*
X-27303Y-85714D01*
X-30610Y-84797D02*
X-27303Y-81490D01*
X-30610Y-79229D02*
X-27303Y-75922D01*
X-30610Y-74055D02*
X-27303Y-77362D01*
X-30610Y-82013D02*
X-27303Y-78706D01*
X-30610Y-76839D02*
X-27303Y-80146D01*
X-17126Y-62484D02*
X76564Y-156174D01*
X-17686Y-70276D02*
X68212Y-156174D01*
X-18028Y-72718D02*
X65428Y-156174D01*
X-17126Y-65268D02*
X73780Y-156174D01*
X-17126Y-68052D02*
X70996Y-156174D01*
X-22144Y-76954D02*
X57077Y-156174D01*
X-22146Y-79736D02*
X54293Y-156174D01*
X-19360Y-74170D02*
X62644Y-156174D01*
X-20752Y-75562D02*
X59861Y-156174D01*
X-18471D02*
X44750Y-92953D01*
X-21255Y-156174D02*
X44705Y-90215D01*
X-12903Y-156174D02*
X50318Y-92953D01*
X-15687Y-156174D02*
X47534Y-92953D01*
X-22146Y-82520D02*
X51509Y-156174D01*
X-22146Y-85303D02*
X48725Y-156174D01*
X-22146Y-88087D02*
X45941Y-156174D01*
X-22146Y-90871D02*
X43157Y-156174D01*
X-30610Y-90365D02*
X-27303Y-87058D01*
X-30610Y-87974D02*
X-27303Y-91281D01*
X-30610Y-90365D02*
X-27303Y-87058D01*
X-22146Y-92244D02*
Y-76956D01*
X-27303Y-92244D02*
Y-74134D01*
X-30610Y-85190D02*
X-27303Y-88498D01*
X-30610Y-87581D02*
X-27303Y-84274D01*
X-30610Y-90984D02*
Y-72874D01*
X-31230Y-90984D02*
X-30610Y-90365D01*
X-26341Y-92244D02*
X37589Y-156174D01*
X-26823D02*
X36399Y-92953D01*
X-23557Y-92244D02*
X40373Y-156174D01*
X-24039D02*
X39183Y-92953D01*
X-27303Y-92244D02*
X-22146D01*
X-31230Y-90984D02*
X-30610Y-90365D01*
Y-90758D02*
X34806Y-156174D01*
X-29607D02*
X33615Y-92953D01*
X-31319Y-62211D02*
X-22005Y-71525D01*
X-31319Y-71586D02*
X-22244Y-62511D01*
X-34626Y-90984D02*
X-30610D01*
X-34626Y-94380D02*
X-31230Y-90984D01*
X-34626Y-94380D02*
X-31230Y-90984D01*
X-54662Y-156174D02*
X13091Y-88422D01*
X-34626Y-97164D02*
X-27303Y-89842D01*
X-40742Y-156174D02*
X28642Y-86790D01*
X-43526Y-156174D02*
X28642Y-84007D01*
X-34626Y-102732D02*
X-24138Y-92244D01*
X-34626Y-99948D02*
X-26922Y-92244D01*
X-39698Y-112293D02*
X4183Y-156174D01*
X-42158Y-112618D02*
X1399Y-156174D01*
X-54858Y-111053D02*
X-9736Y-156174D01*
X-79234Y-92244D02*
X-15304Y-156174D01*
X-49094D02*
X14836Y-92244D01*
X-51878Y-156174D02*
X13091Y-91206D01*
X-39350Y-71266D02*
X-35059Y-66975D01*
X-39350Y-68099D02*
X-35059Y-72390D01*
X-38642Y-72874D02*
X-35768D01*
X-35391D02*
X-35059Y-72543D01*
X-38175Y-72874D02*
X-35059Y-69759D01*
X-39350Y-62531D02*
X-35059Y-66822D01*
X-39350Y-65698D02*
X-35059Y-61407D01*
X-39350Y-65315D02*
X-35059Y-69606D01*
X-39350Y-68482D02*
X-35059Y-64191D01*
X-34626Y-91597D02*
X-34014Y-90984D01*
X-34626Y-98425D02*
Y-94488D01*
Y-106299D02*
Y-102362D01*
Y-98425D01*
X-35768Y-72874D02*
X-35059D01*
X-35768D02*
X-35059D01*
X-34626Y-94488D02*
Y-90984D01*
X-37958Y-156174D02*
X28642Y-89574D01*
X-46310Y-156174D02*
X17620Y-92244D01*
X-65797Y-156174D02*
X13091Y-77287D01*
X-33168Y-90984D02*
X32022Y-156174D01*
X-34626Y-92310D02*
X29238Y-156174D01*
X-74149D02*
X17126Y-64899D01*
X-76933Y-156174D02*
X17126Y-62116D01*
X-71365Y-156174D02*
X17126Y-67683D01*
X-68581Y-156174D02*
X13091Y-74503D01*
X-34626Y-100662D02*
X20886Y-156174D01*
X-34626Y-103446D02*
X18102Y-156174D01*
X-32390D02*
X30831Y-92953D01*
X-34626Y-106230D02*
X15318Y-156174D01*
X-88042D02*
X88042D01*
X-35174D02*
X28642Y-92358D01*
X-34626Y-95094D02*
X26454Y-156174D01*
X-34626Y-97878D02*
X23670Y-156174D01*
X-63013D02*
X13091Y-80071D01*
X-97119Y-88279D02*
X-29224Y-156174D01*
X-97119Y-91063D02*
X-32008Y-156174D01*
X-57445D02*
X13091Y-85638D01*
X-60229Y-156174D02*
X13091Y-82854D01*
X-97119Y-77143D02*
X-18088Y-156174D01*
X-97119Y-79927D02*
X-20872Y-156174D01*
X-97119Y-82711D02*
X-23656Y-156174D01*
X-97119Y-85495D02*
X-26440Y-156174D01*
X-38678Y-110529D02*
X6967Y-156174D01*
X-55413Y-107713D02*
X-6953Y-156174D01*
X-35450Y-108189D02*
X12535Y-156174D01*
X-37572Y-108852D02*
X9751Y-156174D01*
X-56159Y-112535D02*
X-12520Y-156174D01*
X-97119Y-93846D02*
X-34791Y-156174D01*
X-55413Y-102146D02*
X-1385Y-156174D01*
X-55413Y-104929D02*
X-4169Y-156174D01*
X-64452Y-7283D02*
X-49885Y7283D01*
X-50787Y-10322D02*
X-36713Y3753D01*
X-67236Y-7283D02*
X-52669Y7283D01*
X-50787Y-13106D02*
X-36713Y969D01*
X-60433Y-11090D02*
Y-7283D01*
X-67407Y7283D02*
X-52840Y-7283D01*
X-71260Y5569D02*
X-58407Y-7283D01*
X-70191Y7283D02*
X-55315Y-7592D01*
X-71260Y2785D02*
X-60433Y-8042D01*
X-55905Y-9785D02*
X-55315Y-10376D01*
X-55905Y-11090D02*
X-55315D01*
X-55905Y-9872D02*
X-55315Y-9282D01*
X-51181Y-15748D02*
X-50787D01*
X-55315Y-11090D02*
Y-7283D01*
X-60433D02*
X-55905D01*
X-63583Y-11090D02*
X-60433D01*
X-55905D02*
Y-7283D01*
X-62690Y-11090D02*
X-60433Y-8832D01*
X-71260Y-2783D02*
X-66759Y-7283D01*
X-71260Y-5567D02*
X-69543Y-7283D01*
X-71260D02*
X-70669D01*
X-68701D01*
X-70669D02*
X-68701D01*
X-71260D02*
Y7283D01*
X-75787Y-7283D02*
Y7283D01*
X-71260Y1D02*
X-63975Y-7283D01*
X-75787Y-11516D02*
Y-7283D01*
X-63583Y-7676D02*
X-60433Y-10826D01*
X-63975Y-7283D02*
X-63583Y-7676D01*
Y-10460D02*
X-62953Y-11090D01*
X-63583D02*
Y-7283D01*
X-68110D02*
X-66142D01*
X-68110D02*
X-66142D01*
X-63583D01*
X-73228Y-15748D02*
X-72835D01*
X-51181Y-23021D02*
X-39898Y-34304D01*
X-50787Y-15748D02*
Y-7283D01*
X-39350Y-72874D02*
Y-35627D01*
X-51181Y-19068D02*
X-36713Y-4599D01*
X-51181Y-23021D02*
Y-15748D01*
X-59153Y-72874D02*
Y-37979D01*
X-72287Y-24846D02*
X-59153Y-37979D01*
X-72244Y-62402D02*
X-59153Y-49311D01*
X-72327Y-59700D02*
X-59153Y-46527D01*
X-72244Y-67969D02*
X-59153Y-54879D01*
X-72244Y-65185D02*
X-59153Y-52095D01*
X-72833Y-57422D02*
X-59153Y-43743D01*
X-74693Y-56498D02*
X-59153Y-40959D01*
X-76240Y-83101D02*
X-59153Y-66014D01*
X-72933Y-71442D02*
X-59153Y-57663D01*
X-72835Y-23524D02*
Y-15748D01*
X-73228D02*
X-72835D01*
X-75787Y-14958D02*
X-74998Y-15748D01*
X-75787D02*
Y-7283D01*
X-74998Y-15748D02*
X-72835Y-17911D01*
X-75787Y-15748D02*
X-73228D01*
X-72244Y-66535D02*
Y-65354D01*
Y-66535D02*
Y-65354D01*
Y-63044D02*
X-62414Y-72874D01*
X-72244Y-65828D02*
X-63878Y-74194D01*
X-72933Y-61614D02*
X-72244D01*
X-72933D02*
Y-60802D01*
X-72448Y-60056D02*
X-59630Y-72874D01*
X-72244Y-65354D02*
Y-61614D01*
X-97119Y-7546D02*
X-59153Y-45512D01*
X-97119Y-10330D02*
X-59153Y-48296D01*
X-97119Y-42734D02*
X-72835Y-18450D01*
X-97119Y-15898D02*
X-59153Y-53863D01*
X-97119Y-13114D02*
X-59153Y-51079D01*
X-97119Y805D02*
X-72835Y-23479D01*
X-97119Y3589D02*
X-72835Y-20695D01*
X-97119Y-4762D02*
X-59153Y-42728D01*
X-97119Y-1978D02*
X-59153Y-39944D01*
X-97119Y-53870D02*
X-70191Y-26942D01*
X-97119Y-51086D02*
X-71583Y-25550D01*
X-97119Y-59438D02*
X-67407Y-29726D01*
X-97119Y-56654D02*
X-68799Y-28334D01*
X-97119Y-48302D02*
X-72782Y-23965D01*
X-97119Y-45518D02*
X-72835Y-21234D01*
X-97119Y-21466D02*
X-59153Y-59431D01*
X-97119Y-18682D02*
X-59153Y-56647D01*
X-97119Y-14896D02*
X-75787Y6436D01*
X-97119Y-17680D02*
X-75787Y3652D01*
X-97119Y6373D02*
X-75787Y-14958D01*
X-97119Y-23247D02*
X-75787Y-1916D01*
X-97119Y-20463D02*
X-75787Y868D01*
X-97119Y11941D02*
X-75787Y-9391D01*
X-97119Y-9328D02*
X-75787Y12004D01*
X-97119Y9157D02*
X-75787Y-12175D01*
X-97119Y-12112D02*
X-75787Y9220D01*
X-97119Y-39951D02*
X-72917Y-15748D01*
X-97119Y-37167D02*
X-75700Y-15748D01*
X-97119Y-35385D02*
X-75804Y-56700D01*
X-97119Y-38169D02*
X-77180Y-58108D01*
X-97119Y-26031D02*
X-75787Y-4699D01*
X-97119Y-28815D02*
X-75787Y-7483D01*
X-97119Y-34383D02*
X-75787Y-13051D01*
X-97119Y-31599D02*
X-75787Y-10267D01*
X-97119Y-32601D02*
X-59153Y-70567D01*
X-97119Y-67789D02*
X-63231Y-33902D01*
X-97119Y-65005D02*
X-64623Y-32510D01*
X-97119Y-73357D02*
X-60447Y-36685D01*
X-97119Y-70573D02*
X-61839Y-35293D01*
X-97119Y-24250D02*
X-59153Y-62215D01*
X-97119Y-62222D02*
X-66015Y-31118D01*
X-97119Y-29817D02*
X-59153Y-67783D01*
X-97119Y-27033D02*
X-59153Y-64999D01*
X-76673Y-61614D02*
Y-60802D01*
X-77025Y-61614D02*
X-76673Y-61263D01*
X-76240Y-80317D02*
X-59153Y-63230D01*
X-76240Y-77533D02*
X-59153Y-60447D01*
X-97119Y-40953D02*
X-76673Y-61399D01*
X-97119Y-76141D02*
X-59153Y-38175D01*
X-77362Y-61614D02*
X-76673D01*
X-97119Y-52088D02*
X-76910Y-72297D01*
X-97119Y-54872D02*
X-78302Y-73689D01*
X-97119Y-57656D02*
X-80641Y-74134D01*
X-97119Y-78925D02*
X-77360Y-59166D01*
X-97119Y-60440D02*
X-81398Y-76161D01*
X-97119Y-46521D02*
X-77362Y-66277D01*
X-97119Y-43737D02*
X-77362Y-63494D01*
X-97119Y-49304D02*
X-77362Y-69061D01*
X-97119Y-147097D02*
Y147097D01*
X-77362Y-61952D02*
X-77025Y-61614D01*
X-77362Y-65354D02*
Y-61614D01*
Y-66535D02*
Y-65354D01*
Y-66535D02*
Y-65354D01*
X-97119Y-81709D02*
X-77362Y-61952D01*
X-97119Y-63224D02*
X-81398Y-78945D01*
X-97119Y-84493D02*
X-77362Y-64736D01*
X-97119Y-66008D02*
X-81398Y-81729D01*
X-39350Y-70883D02*
X-37359Y-72874D01*
X-39350D02*
X-38642D01*
X-39350D02*
X-38642D01*
X-55413Y-90984D02*
X-54705D01*
X-55413D02*
X-54705D01*
X-60445Y-72874D02*
X-59153Y-71582D01*
X-63229Y-72874D02*
X-59153Y-68798D01*
X-59862Y-72874D02*
X-59153D01*
X-59862D02*
X-59153D01*
X-47815Y-90984D02*
X-46673D01*
X-43799D01*
X-47815D02*
X-46673D01*
X-43799D02*
X-43091D01*
X-43799D02*
X-43091D01*
X-51831D02*
X-50689D01*
X-54705D02*
X-51831D01*
X-50689D02*
X-47815D01*
X-51831D02*
X-50689D01*
X-72244Y-68612D02*
X-63878Y-76978D01*
Y-73523D02*
X-63229Y-72874D01*
X-72244Y-70276D02*
Y-66535D01*
X-63878Y-90984D02*
Y-72874D01*
X-72933Y-70706D02*
X-63878Y-79762D01*
X-72933Y-70276D02*
X-72244D01*
X-72933Y-72835D02*
Y-70276D01*
X-63878Y-72874D02*
X-59862D01*
X-73021Y-73402D02*
X-63878Y-82546D01*
X-63878Y-90984D02*
Y-81929D01*
X-74266Y-74942D02*
X-63878Y-85329D01*
X-76240Y-88669D02*
X-63878Y-76306D01*
X-75657Y-76334D02*
X-63878Y-88113D01*
X-76240Y-91452D02*
X-63878Y-79090D01*
X-76240Y-78535D02*
X-63878Y-90897D01*
X-47087Y-90984D02*
X-43091Y-94981D01*
X-49871Y-90984D02*
X-43091Y-97765D01*
X-44304Y-90984D02*
X-43091Y-92197D01*
Y-108489D02*
Y-90984D01*
X-52655D02*
X-43091Y-100549D01*
X-55413Y-91010D02*
X-43091Y-103333D01*
X-55413Y-101249D02*
X-45149Y-90984D01*
X-55413Y-93794D02*
X-43091Y-106117D01*
X-55413Y-104032D02*
X-43091Y-91710D01*
X-38735Y-109625D02*
X-37894Y-108784D01*
X-39350Y-108489D02*
Y-107730D01*
X-55413Y-106816D02*
X-43091Y-94493D01*
X-55413Y-96578D02*
X-43277Y-108714D01*
X-54965Y-109152D02*
X-43091Y-97277D01*
X-55413Y-99362D02*
X-43602Y-111173D01*
X-55413Y-92897D02*
X-53501Y-90984D01*
X-55413Y-95681D02*
X-50717Y-90984D01*
X-63878Y-94488D02*
Y-90984D01*
X-55413Y-98465D02*
X-47933Y-90984D01*
X-55413Y-108489D02*
Y-90984D01*
X-76240Y-81319D02*
X-63878Y-93681D01*
X-76240Y-92244D02*
Y-76916D01*
Y-89670D02*
X-63878Y-102033D01*
X-76240Y-86887D02*
X-63878Y-99249D01*
X-59153Y-108489D02*
Y-107730D01*
X-60108Y-108586D02*
X-59582Y-109112D01*
X-63878Y-102362D02*
Y-98425D01*
Y-94488D01*
Y-106299D02*
Y-102362D01*
X-76673Y-72060D02*
Y-70276D01*
X-76240Y-76916D02*
X-73481Y-74157D01*
X-77362Y-70276D02*
X-76673D01*
X-76240Y-84103D02*
X-63878Y-96465D01*
X-76240Y-85885D02*
X-63878Y-73523D01*
X-97119Y-115115D02*
X-63878Y-81874D01*
X-78747Y-74134D02*
X-76673Y-72060D01*
X-97119Y-120683D02*
X-63878Y-87442D01*
X-97119Y-117899D02*
X-63878Y-84658D01*
X-77032Y-92244D02*
X-76240Y-91452D01*
X-81398Y-92244D02*
X-76240D01*
X-97119Y-131819D02*
X-63878Y-98577D01*
X-76450Y-92244D02*
X-63878Y-104817D01*
X-97119Y-123467D02*
X-63878Y-90226D01*
X-97119Y-112331D02*
X-77032Y-92244D01*
X-97119Y-129035D02*
X-63878Y-95794D01*
X-97119Y-126251D02*
X-63878Y-93010D01*
X-77362Y-70276D02*
Y-66535D01*
X-81192Y-74134D02*
X-77334Y-70276D01*
X-81398Y-74134D02*
X-78747D01*
X-81398Y-74339D02*
X-81192Y-74134D01*
X-81398Y-92244D02*
Y-74134D01*
X-97119Y-87277D02*
X-77362Y-67520D01*
X-97119Y-68792D02*
X-81398Y-84513D01*
X-97119Y-90060D02*
X-81398Y-74339D01*
X-97119Y-71575D02*
X-81398Y-87297D01*
X-97119Y-103980D02*
X-81398Y-88258D01*
X-97119Y-101196D02*
X-81398Y-85474D01*
X-97119Y-109548D02*
X-79816Y-92244D01*
X-97119Y-106764D02*
X-81398Y-91042D01*
X-97119Y-92844D02*
X-81398Y-77123D01*
X-97119Y-74359D02*
X-81398Y-90081D01*
X-97119Y-98412D02*
X-81398Y-82691D01*
X-97119Y-95628D02*
X-81398Y-79907D01*
X-92231Y-151985D02*
X-43091Y-102845D01*
X-92231Y-151985D02*
X-43091Y-102845D01*
X-93623Y-150593D02*
X-43091Y-100061D01*
X-90839Y-153377D02*
X-43091Y-105629D01*
X-97119Y-107766D02*
X-48711Y-156174D01*
X-97119Y-96630D02*
X-37575Y-156174D01*
X-97119Y-99414D02*
X-40359Y-156174D01*
X-97119Y-102198D02*
X-43143Y-156174D01*
X-97119Y-104982D02*
X-45927Y-156174D01*
X-89447Y-154769D02*
X-43091Y-108413D01*
X-95015Y-149201D02*
X-58368Y-112554D01*
X-85284Y-156174D02*
X-41831Y-112721D01*
X-88055Y-156161D02*
X-43427Y-111533D01*
X-97119Y-110550D02*
X-51495Y-156174D01*
X-96407Y-147809D02*
X-59694Y-111096D01*
X-97119Y-113334D02*
X-54278Y-156174D01*
X-97119Y-116118D02*
X-57062Y-156174D01*
X-97119Y-118901D02*
X-59846Y-156174D01*
X-97119Y-121685D02*
X-62630Y-156174D01*
X-97119Y-142954D02*
X-62657Y-108492D01*
X-97119Y-124469D02*
X-65414Y-156174D01*
X-97119Y-127253D02*
X-68198Y-156174D01*
X-97119Y-137386D02*
X-63878Y-104145D01*
X-97119Y-134602D02*
X-63878Y-101361D01*
X-97119Y-145738D02*
X-59715Y-108334D01*
X-97119Y-140170D02*
X-63815Y-106866D01*
X-97119Y-141172D02*
X-82117Y-156174D01*
X-97119Y-143956D02*
X-84901Y-156174D01*
X-97119Y-146740D02*
X-87685Y-156174D01*
X-97119Y-147097D02*
X-88042Y-156174D01*
X-97119Y-130037D02*
X-70982Y-156174D01*
X-97119Y-132821D02*
X-73766Y-156174D01*
X-97119Y-135605D02*
X-76550Y-156174D01*
X-97119Y-138389D02*
X-79333Y-156174D01*
D16*
X-4528Y58071D02*
D03*
X4528D02*
D03*
X22638D02*
D03*
X13583D02*
D03*
X-13583D02*
D03*
X-22638D02*
D03*
X22638Y67126D02*
D03*
X13583D02*
D03*
X4528D02*
D03*
X-4528D02*
D03*
X-13583D02*
D03*
X-22638D02*
D03*
X22638Y76181D02*
D03*
X13583D02*
D03*
X4528D02*
D03*
X-4528D02*
D03*
X-13583D02*
D03*
X-22638D02*
D03*
X22638Y85236D02*
D03*
X13583D02*
D03*
X4528D02*
D03*
X-4528D02*
D03*
X-13583D02*
D03*
X-22638D02*
D03*
X22638Y94291D02*
D03*
X13583D02*
D03*
X4528D02*
D03*
X-4528D02*
D03*
X-13583D02*
D03*
X-22638D02*
D03*
X22638Y103347D02*
D03*
X13583D02*
D03*
X4528D02*
D03*
X-4528D02*
D03*
X-13583D02*
D03*
X-22638D02*
D03*
D17*
X69508Y10728D02*
D03*
X64508D02*
D03*
X59508D02*
D03*
X54508D02*
D03*
X69508Y-10728D02*
D03*
X64508D02*
D03*
X59508D02*
D03*
X54508D02*
D03*
D18*
X62008Y0D02*
D03*
D19*
X-18701Y-4331D02*
D03*
X-16142D02*
D03*
X-13583D02*
D03*
Y4331D02*
D03*
X-18701D02*
D03*
D20*
X-50492Y11516D02*
D03*
X-53051D02*
D03*
X-55610D02*
D03*
X-58169D02*
D03*
X-60728D02*
D03*
X-63287D02*
D03*
X-65847D02*
D03*
X-68405D02*
D03*
X-70965D02*
D03*
X-73524D02*
D03*
X-50492Y-11516D02*
D03*
X-53051D02*
D03*
X-55610D02*
D03*
X-58169D02*
D03*
X-60728D02*
D03*
X-63287D02*
D03*
X-65847D02*
D03*
X-68405D02*
D03*
X-70965D02*
D03*
X-73524D02*
D03*
D21*
X-33465Y-4232D02*
D03*
Y1870D02*
D03*
X-4921Y-4035D02*
D03*
Y2067D02*
D03*
X11811Y122539D02*
D03*
Y128642D02*
D03*
X3937Y122539D02*
D03*
Y128642D02*
D03*
X-3937Y122539D02*
D03*
Y128642D02*
D03*
X-11811Y122539D02*
D03*
Y128642D02*
D03*
D22*
X74803Y-67815D02*
D03*
Y-64075D02*
D03*
X19685D02*
D03*
Y-67815D02*
D03*
X-19685D02*
D03*
Y-64075D02*
D03*
X-74803D02*
D03*
Y-67815D02*
D03*
D23*
X51181Y54134D02*
D03*
X57087D02*
D03*
X-69882Y65945D02*
D03*
X-75787D02*
D03*
X69882D02*
D03*
X75787D02*
D03*
X57087Y60039D02*
D03*
X51181D02*
D03*
X57087Y65945D02*
D03*
X51181D02*
D03*
X57087Y71850D02*
D03*
X51181D02*
D03*
X-75787Y83661D02*
D03*
X-69882D02*
D03*
X-75787Y77756D02*
D03*
X-69882D02*
D03*
X-75787Y71850D02*
D03*
X-69882D02*
D03*
X75787D02*
D03*
X69882D02*
D03*
X75787Y77756D02*
D03*
X69882D02*
D03*
X75787Y83661D02*
D03*
X69882D02*
D03*
X57087Y77756D02*
D03*
X51181D02*
D03*
X57087Y83661D02*
D03*
X51181D02*
D03*
X-57087D02*
D03*
X-51181D02*
D03*
X-57087Y77756D02*
D03*
X-51181D02*
D03*
X75787Y93504D02*
D03*
X69882D02*
D03*
X75787Y99410D02*
D03*
X69882D02*
D03*
X-75787Y93504D02*
D03*
X-69882D02*
D03*
X-75787Y99409D02*
D03*
X-69882D02*
D03*
X2953Y151969D02*
D03*
X-2953D02*
D03*
D24*
X-11811Y150000D02*
D03*
X11811D02*
D03*
D25*
X69764Y-83189D02*
D03*
X24724D02*
D03*
X15669D02*
D03*
X78819D02*
D03*
X33189Y-81929D02*
D03*
X37205D02*
D03*
X41221D02*
D03*
X45236D02*
D03*
X49252D02*
D03*
X53268D02*
D03*
X57284D02*
D03*
X61299D02*
D03*
X-24724Y-83189D02*
D03*
X-69764D02*
D03*
X-78819D02*
D03*
X-15669D02*
D03*
X-61299Y-81929D02*
D03*
X-57284D02*
D03*
X-53268D02*
D03*
X-49252D02*
D03*
X-45236D02*
D03*
X-41221D02*
D03*
X-37205D02*
D03*
X-33189D02*
D03*
D26*
X49409Y93701D02*
D03*
X56890D02*
D03*
X53150Y103150D02*
D03*
X-56890Y93701D02*
D03*
X-49409D02*
D03*
X-53150Y103150D02*
D03*
D27*
X83661Y3937D02*
D03*
Y9843D02*
D03*
X46260Y-2953D02*
D03*
Y-8858D02*
D03*
X77756Y3937D02*
D03*
Y9843D02*
D03*
X46260Y3937D02*
D03*
Y9843D02*
D03*
X77756Y-2953D02*
D03*
Y-8858D02*
D03*
X-27559Y-3937D02*
D03*
Y1969D02*
D03*
X-72835Y26575D02*
D03*
Y20669D02*
D03*
D28*
X3150Y145669D02*
D03*
X-3150D02*
D03*
D29*
X5512Y137795D02*
D03*
X-5512D02*
D03*
D31*
X16417Y-121024D02*
D03*
X78071D02*
D03*
X-78071D02*
D03*
X-16417D02*
D03*
D32*
X51968Y-49299D02*
X51939Y-48326D01*
X51851Y-47355D01*
X51704Y-46392D01*
X51500Y-45439D01*
X51238Y-44501D01*
X50920Y-43580D01*
X50547Y-42680D01*
X50121Y-41803D01*
X49642Y-40955D01*
X49113Y-40137D01*
X48536Y-39352D01*
X47912Y-38603D01*
X47244Y-37894D01*
X21125Y56558D02*
X20469Y55810D01*
X19916Y54983D01*
X19476Y54091D01*
X19157Y53149D01*
X18963Y52174D01*
X18898Y51181D01*
X32480Y17523D02*
X32449Y18486D01*
X32354Y19445D01*
X32197Y20396D01*
X31979Y21334D01*
X31699Y22256D01*
X31359Y23158D01*
X30962Y24035D01*
X30508Y24885D01*
X29999Y25703D01*
X29438Y26487D01*
X28826Y27231D01*
X28168Y27935D01*
X18898Y41347D02*
X18946Y40367D01*
X19090Y39396D01*
X19328Y38444D01*
X19659Y37520D01*
X20078Y36633D01*
X20583Y35791D01*
X21168Y35003D01*
X21827Y34276D01*
X50394Y-49299D02*
X50357Y-48261D01*
X50245Y-47228D01*
X50061Y-46205D01*
X49804Y-45199D01*
X49476Y-44213D01*
X49078Y-43253D01*
X48613Y-42324D01*
X48083Y-41430D01*
X47491Y-40577D01*
X46839Y-39768D01*
X46130Y-39007D01*
X17323Y51181D02*
X17258Y52174D01*
X17064Y53149D01*
X16744Y54091D01*
X16304Y54983D01*
X15752Y55810D01*
X15096Y56558D01*
X30906Y17523D02*
X30865Y18555D01*
X30744Y19580D01*
X30542Y20593D01*
X30262Y21586D01*
X29905Y22555D01*
X29472Y23493D01*
X28968Y24394D01*
X28394Y25252D01*
X27755Y26063D01*
X27054Y26821D01*
X17323Y41347D02*
X17367Y40338D01*
X17499Y39337D01*
X17717Y38351D01*
X18021Y37388D01*
X18407Y36455D01*
X18874Y35559D01*
X19416Y34708D01*
X20031Y33907D01*
X20713Y33162D01*
X30906Y-18496D02*
X30945Y-19497D01*
X31063Y-20492D01*
X31258Y-21475D01*
X31530Y-22440D01*
X31877Y-23380D01*
X32297Y-24290D01*
X32786Y-25164D01*
X33343Y-25997D01*
X33963Y-26785D01*
X34644Y-27520D01*
X32480Y-18496D02*
X32523Y-19470D01*
X32650Y-20436D01*
X32861Y-21388D01*
X33153Y-22318D01*
X33526Y-23219D01*
X33976Y-24083D01*
X34499Y-24906D01*
X35092Y-25680D01*
X35750Y-26399D01*
X36024Y-56587D02*
X35980Y-55579D01*
X35848Y-54577D01*
X35629Y-53592D01*
X35326Y-52628D01*
X34939Y-51696D01*
X34473Y-50800D01*
X33930Y-49948D01*
X33316Y-49147D01*
X32633Y-48403D01*
X14370Y-24693D02*
X14411Y-25724D01*
X14532Y-26750D01*
X14733Y-27762D01*
X15014Y-28756D01*
X15371Y-29725D01*
X15803Y-30662D01*
X16308Y-31563D01*
X16881Y-32422D01*
X17521Y-33233D01*
X18222Y-33991D01*
X3015Y56558D02*
X2359Y55810D01*
X1806Y54983D01*
X1366Y54091D01*
X1046Y53149D01*
X852Y52174D01*
X787Y51181D01*
X14370Y13878D02*
X14266Y14934D01*
X13958Y15950D01*
X13458Y16886D01*
X12785Y17706D01*
X787Y35150D02*
X828Y34118D01*
X949Y33093D01*
X1151Y32080D01*
X1431Y31087D01*
X1788Y30118D01*
X2221Y29180D01*
X2725Y28279D01*
X3299Y27421D01*
X3938Y26610D01*
X4639Y25852D01*
X34449Y-56587D02*
X34401Y-55607D01*
X34257Y-54636D01*
X34018Y-53684D01*
X33688Y-52760D01*
X33268Y-51873D01*
X32763Y-51032D01*
X32179Y-50243D01*
X31520Y-49516D01*
X12795Y-24693D02*
X12827Y-25656D01*
X12921Y-26614D01*
X13078Y-27565D01*
X13297Y-28504D01*
X13577Y-29426D01*
X13916Y-30327D01*
X14314Y-31205D01*
X14768Y-32055D01*
X15277Y-32873D01*
X15838Y-33656D01*
X16449Y-34401D01*
X17108Y-35104D01*
X-787Y51181D02*
X-852Y52174D01*
X-1046Y53149D01*
X-1366Y54091D01*
X-1806Y54983D01*
X-2359Y55810D01*
X-3015Y56558D01*
X12795Y13878D02*
X12664Y14872D01*
X12281Y15798D01*
X11671Y16592D01*
X-787Y35150D02*
X-756Y34187D01*
X-661Y33228D01*
X-504Y32277D01*
X-286Y31339D01*
X-6Y30417D01*
X333Y29515D01*
X731Y28637D01*
X1185Y27788D01*
X1694Y26970D01*
X2255Y26186D01*
X2867Y25442D01*
X3525Y24738D01*
X35750Y-26399D02*
X47244Y-37894D01*
X32480Y-18496D02*
Y17523D01*
X51968Y-49299D02*
Y-49299D01*
Y-72362D02*
Y-49299D01*
X21125Y56558D02*
X22638Y58071D01*
X18898Y41347D02*
Y51181D01*
X21827Y34276D02*
X28168Y27935D01*
X34644Y-27520D02*
X46130Y-39007D01*
X30906Y-18496D02*
Y17523D01*
X50394Y-49299D02*
Y-49299D01*
Y-72520D02*
Y-49299D01*
X17323Y41347D02*
Y51181D01*
X20713Y33162D02*
X27054Y26821D01*
X51968Y-72362D02*
X53268Y-73661D01*
Y-81929D02*
Y-73661D01*
X49252D02*
X50394Y-72520D01*
X49252Y-81929D02*
Y-73661D01*
X18222Y-33991D02*
X32633Y-48403D01*
X14370Y-24693D02*
Y13878D01*
X36024Y-72480D02*
Y-56587D01*
X787Y35150D02*
Y51181D01*
X4639Y25852D02*
X12785Y17706D01*
X17108Y-35104D02*
X31520Y-49516D01*
X12795Y-24693D02*
Y13878D01*
X34449Y-72402D02*
Y-56587D01*
X-787Y35150D02*
Y51181D01*
X3525Y24738D02*
X11671Y16592D01*
X36024Y-72480D02*
X37205Y-73661D01*
Y-81929D02*
Y-73661D01*
X33189D02*
X34449Y-72402D01*
X33189Y-81929D02*
Y-73661D01*
X13583Y58071D02*
X15096Y56558D01*
X3015D02*
X4528Y58071D01*
X-4528D02*
X-3015Y56558D01*
X-50492Y-11516D02*
Y-2559D01*
X-55610Y-2559D02*
X-53051Y0D01*
X-60728Y-11516D02*
Y-2559D01*
X-53051Y0D02*
X-50492Y-2559D01*
X-55610Y-11516D02*
Y-2559D01*
X-60728D02*
X-58169Y0D01*
X-63287Y-11516D02*
Y0D01*
X-70965Y2559D02*
Y11516D01*
Y2559D02*
X-68405Y0D01*
X-53051D02*
Y11516D01*
X-58169Y0D02*
Y11516D01*
X-63287Y0D02*
X-60728Y2559D01*
Y11516D01*
X9055Y89764D02*
X63681D01*
X9055D02*
X9055D01*
X69783Y83661D02*
X69882D01*
X63681Y89764D02*
X69783Y83661D01*
X-9055Y89764D02*
X-4528Y94291D01*
X-69783Y83661D02*
X-63681Y89764D01*
X-69882Y83661D02*
X-69783D01*
X-63681Y89764D02*
X-9055D01*
X-69882Y65945D02*
X-69882Y65945D01*
X4528Y94291D02*
X9055Y89764D01*
X22638Y103347D02*
X52953D01*
X53150Y103150D01*
X-53150D02*
X-52953Y103347D01*
X-22638D01*
D33*
X83661Y9843D02*
X83662Y9843D01*
X89567D01*
X89567Y9843D01*
X64508Y39370D02*
Y46811D01*
Y16732D02*
Y39370D01*
X68898D01*
X60039D02*
X64508D01*
X-27559Y2067D02*
Y7972D01*
X-27559Y1969D02*
X-27559Y1969D01*
X-78740Y20669D02*
X-72835D01*
X-75787Y65945D02*
X-75787Y65945D01*
X-75787Y60039D02*
Y65945D01*
X-75787Y60039D02*
X-75787Y60039D01*
X64508Y16732D02*
X81693D01*
X83661Y14764D01*
Y9843D02*
Y14764D01*
X64508Y10728D02*
Y16732D01*
Y46811D02*
X75787Y58091D01*
Y65945D01*
X57185Y54134D02*
X64508Y46811D01*
X57087Y54134D02*
X57185D01*
X-27559Y2067D02*
X-26476Y3150D01*
X-26378D01*
X-25197Y4331D01*
X-27559Y1969D02*
Y2067D01*
X-25197Y4331D02*
X-18701D01*
X-73524Y11516D02*
Y19980D01*
X-72835Y20669D01*
X-73524Y-11516D02*
Y11516D01*
D34*
X-13583Y0D02*
X-10630D01*
X-20079D02*
X-13583D01*
X77756Y-8858D02*
X83661D01*
X77756Y-8858D02*
X77756Y-8858D01*
X64508Y-17717D02*
Y-11614D01*
X-26791Y-3071D02*
X-23150D01*
X-20079Y0D01*
X-10630D02*
X-8659Y1970D01*
X-5018D01*
X-4921Y2067D01*
X-27559Y-3839D02*
X-26791Y-3071D01*
X-27559Y-3937D02*
Y-3839D01*
X61299Y-94488D02*
Y-81929D01*
Y-98425D02*
Y-94488D01*
Y-102362D02*
Y-98425D01*
Y-106299D02*
Y-102362D01*
X57284Y-94488D02*
Y-81929D01*
Y-98425D02*
Y-94488D01*
Y-102362D02*
Y-98425D01*
Y-106299D02*
Y-102362D01*
X45236Y-94488D02*
Y-81929D01*
Y-98425D02*
Y-94488D01*
Y-102362D02*
Y-98425D01*
Y-106299D02*
Y-102362D01*
X41221Y-94488D02*
Y-81929D01*
Y-98425D02*
Y-94488D01*
Y-102362D02*
Y-98425D01*
Y-106299D02*
Y-102362D01*
X-61299Y-94488D02*
Y-81929D01*
Y-98425D02*
Y-94488D01*
Y-102362D02*
Y-98425D01*
Y-106299D02*
Y-102362D01*
X-37205Y-94488D02*
Y-81929D01*
Y-98425D02*
Y-94488D01*
Y-102362D02*
Y-98425D01*
Y-106299D02*
Y-102362D01*
D35*
X-4331Y66929D02*
X4528D01*
X22638D01*
X36614Y67126D02*
X41339Y71850D01*
X22638Y67126D02*
X36614D01*
X41339Y71850D02*
X51181D01*
X-4528Y67126D02*
X-4331Y66929D01*
X51181Y65945D02*
Y71850D01*
Y60039D02*
Y65945D01*
Y54134D02*
Y60039D01*
Y54134D02*
X51181Y54134D01*
X3051Y145768D02*
X3642Y146358D01*
X10138D01*
X11811Y148031D02*
Y150000D01*
X10138Y146358D02*
X11811Y148031D01*
X-3642Y146358D02*
X-3051Y145768D01*
X-10138Y146358D02*
X-3642D01*
X-11811Y148031D02*
Y150000D01*
Y148031D02*
X-10138Y146358D01*
X-5512Y138779D02*
X-2953Y141339D01*
X-3150Y145669D02*
X-3051Y145768D01*
X-5512Y136811D02*
Y138779D01*
X-2953Y141339D02*
Y145472D01*
X-3150Y145669D02*
X-2953Y145472D01*
X3051Y145768D02*
X3150Y145669D01*
X2953Y151969D02*
X3051Y151870D01*
Y145768D02*
Y151870D01*
X2953Y141339D02*
X5512Y138779D01*
X2953Y141339D02*
Y145472D01*
X3150Y145669D01*
X5512Y136811D02*
Y138779D01*
X7972Y128642D02*
X11811D01*
X7972D02*
Y134350D01*
X5512Y136811D02*
X7972Y134350D01*
X3937Y128642D02*
X7972D01*
X-7972D02*
X-3937D01*
X-7972Y134350D02*
X-5512Y136811D01*
X-7972Y128642D02*
Y134350D01*
X-11811Y128642D02*
X-7972D01*
X-3051Y145768D02*
Y151870D01*
X-2953Y151969D01*
X13583Y94291D02*
Y120965D01*
X3937Y104416D02*
Y122539D01*
Y104416D02*
X4528Y103826D01*
Y103347D02*
Y103826D01*
X-4528Y103347D02*
Y103826D01*
X-3937Y104416D02*
Y122539D01*
X-4528Y103826D02*
X-3937Y104416D01*
X11811Y122539D02*
X12008D01*
X13583Y120965D01*
X-13583Y103347D02*
Y120965D01*
Y94291D02*
Y103347D01*
Y120965D02*
X-12008Y122539D01*
X-11811D01*
D36*
X39862Y77756D02*
X51181D01*
X28543D02*
X39862D01*
Y83661D02*
X51181D01*
X28543D02*
X39862D01*
X28543D02*
X28543D01*
X-39862Y77756D02*
X-28543D01*
X-51181D02*
X-39862D01*
Y83661D02*
X-28543D01*
X-51181D02*
X-39862D01*
X69882Y77756D02*
Y83661D01*
Y71850D02*
Y77756D01*
X64705Y-11811D02*
X74902D01*
X69882Y65945D02*
Y71850D01*
Y65945D02*
X69882Y65945D01*
X46260Y14764D02*
X48228Y16732D01*
X58071D01*
X59508Y15295D01*
X46260Y9843D02*
Y14764D01*
X59508Y10728D02*
Y15295D01*
X69508Y10039D02*
X69705Y9843D01*
X77756D01*
X69508Y10039D02*
Y10728D01*
X49213Y-11811D02*
X59311D01*
X46260Y-8858D02*
X49213Y-11811D01*
X77756Y-8957D02*
Y-8858D01*
X74902Y-11811D02*
X77756Y-8957D01*
X64508Y-11614D02*
X64705Y-11811D01*
X-69882Y65945D02*
Y71850D01*
Y77756D01*
Y83661D01*
X59311Y-11811D02*
X59508Y-11614D01*
Y-10728D01*
X64508Y-11614D02*
Y-10728D01*
X-28543Y83661D02*
X-26969Y85236D01*
X-22638D01*
X-28543Y77756D02*
X-26969Y76181D01*
X-22638D01*
X22638D02*
X26969D01*
X28543Y77756D01*
X22638Y85236D02*
X26969D01*
X28543Y83661D01*
D37*
X53346Y98425D02*
X68898D01*
X49409Y94488D02*
X53346Y98425D01*
X68898D02*
X69882Y99410D01*
X-56890Y94488D02*
X-56398Y94980D01*
X-56123D02*
X-52678Y98425D01*
X-27327D01*
X-56890Y93701D02*
Y94488D01*
X-56398Y94980D02*
X-56123D01*
X-27327Y98425D02*
X-23193Y94291D01*
X-22638D01*
X-69783Y93602D02*
X-56988D01*
X-69882Y93504D02*
X-69783Y93602D01*
X-56988D02*
X-56890Y93701D01*
X-69882Y93504D02*
Y99409D01*
X49409Y93799D02*
Y94488D01*
Y93701D02*
Y93799D01*
X69882Y93504D02*
Y99410D01*
X22638Y94291D02*
X48917D01*
X49409Y93799D01*
D38*
X0Y-58268D02*
D03*
X80709Y139764D02*
D03*
X-80709D02*
D03*
D39*
X-9449Y-58268D02*
D03*
X-6693Y-51575D02*
D03*
Y-64961D02*
D03*
X0Y-67716D02*
D03*
X6693Y-64961D02*
D03*
X9449Y-58268D02*
D03*
X6693Y-51575D02*
D03*
X0Y-48819D02*
D03*
X88583Y127953D02*
D03*
X93504Y118110D02*
D03*
X88583Y108268D02*
D03*
X93504Y98425D02*
D03*
X88583Y88583D02*
D03*
X93504Y78740D02*
D03*
X88583Y68898D02*
D03*
X93504Y59055D02*
D03*
X88583Y49213D02*
D03*
X93504Y39370D02*
D03*
X88583Y29528D02*
D03*
X93504Y19685D02*
D03*
Y0D02*
D03*
X88583Y-9843D02*
D03*
X93504Y-19685D02*
D03*
X88583Y-29528D02*
D03*
X93504Y-39370D02*
D03*
X88583Y-49213D02*
D03*
X93504Y-59055D02*
D03*
X88583Y-68898D02*
D03*
X93504Y-78740D02*
D03*
X88583Y-88583D02*
D03*
X93504Y-98425D02*
D03*
X88583Y-108268D02*
D03*
X93504Y-118110D02*
D03*
X88583Y-127953D02*
D03*
X93504Y-137795D02*
D03*
X88583Y-147638D02*
D03*
X83661Y118110D02*
D03*
X78740Y108268D02*
D03*
X83661Y98425D02*
D03*
X78740Y88583D02*
D03*
X83661Y78740D02*
D03*
Y59055D02*
D03*
X78740Y49213D02*
D03*
X83661Y39370D02*
D03*
X78740Y29528D02*
D03*
X83661Y19685D02*
D03*
Y0D02*
D03*
Y-19685D02*
D03*
X78740Y-29528D02*
D03*
X83661Y-39370D02*
D03*
X78740Y-49213D02*
D03*
X83661Y-59055D02*
D03*
X78740Y-68898D02*
D03*
X83661Y-78740D02*
D03*
Y-98425D02*
D03*
X78740Y-108268D02*
D03*
X83661Y-137795D02*
D03*
X78740Y-147638D02*
D03*
X68898Y147638D02*
D03*
Y127953D02*
D03*
X73819Y118110D02*
D03*
X68898Y108268D02*
D03*
X73819Y39370D02*
D03*
X68898Y29528D02*
D03*
X73819Y0D02*
D03*
Y-19685D02*
D03*
X68898Y-29528D02*
D03*
X73819Y-39370D02*
D03*
X68898Y-49213D02*
D03*
Y-68898D02*
D03*
X73819Y-78740D02*
D03*
Y-98425D02*
D03*
X68898Y-108268D02*
D03*
Y-127953D02*
D03*
X73819Y-137795D02*
D03*
X68898Y-147638D02*
D03*
X59055Y147638D02*
D03*
X63976Y137795D02*
D03*
X59055Y127953D02*
D03*
X63976Y118110D02*
D03*
X59055Y108268D02*
D03*
Y29528D02*
D03*
Y-29528D02*
D03*
X63976Y-39370D02*
D03*
X59055Y-49213D02*
D03*
X63976Y-59055D02*
D03*
X59055Y-68898D02*
D03*
X63976Y-118110D02*
D03*
X59055Y-127953D02*
D03*
X63976Y-137795D02*
D03*
X59055Y-147638D02*
D03*
X49213Y147638D02*
D03*
X54134Y137795D02*
D03*
X49213Y127953D02*
D03*
X54134Y118110D02*
D03*
X49213Y108268D02*
D03*
Y49213D02*
D03*
X54134Y39370D02*
D03*
X49213Y29528D02*
D03*
X54134Y0D02*
D03*
Y-19685D02*
D03*
X49213Y-29528D02*
D03*
Y-108268D02*
D03*
X54134Y-118110D02*
D03*
X49213Y-127953D02*
D03*
X54134Y-137795D02*
D03*
X49213Y-147638D02*
D03*
X39370Y147638D02*
D03*
X44291Y137795D02*
D03*
X39370Y127953D02*
D03*
X44291Y118110D02*
D03*
X39370Y108268D02*
D03*
X44291Y59055D02*
D03*
X39370Y49213D02*
D03*
X44291Y39370D02*
D03*
X39370Y29528D02*
D03*
X44291Y19685D02*
D03*
X39370Y9843D02*
D03*
Y-9843D02*
D03*
X44291Y-19685D02*
D03*
Y-118110D02*
D03*
X39370Y-127953D02*
D03*
X44291Y-137795D02*
D03*
X39370Y-147638D02*
D03*
X29528Y147638D02*
D03*
X34449Y137795D02*
D03*
X29528Y127953D02*
D03*
X34449Y118110D02*
D03*
X29528Y108268D02*
D03*
X34449Y59055D02*
D03*
X29528Y49213D02*
D03*
X34449Y39370D02*
D03*
X29528Y-68898D02*
D03*
X34449Y-98425D02*
D03*
X29528Y-108268D02*
D03*
X34449Y-118110D02*
D03*
X29528Y-127953D02*
D03*
X34449Y-137795D02*
D03*
X29528Y-147638D02*
D03*
X19685Y147638D02*
D03*
X24606Y137795D02*
D03*
X19685Y127953D02*
D03*
X24606Y118110D02*
D03*
X19685Y108268D02*
D03*
X24606Y39370D02*
D03*
X19685Y-49213D02*
D03*
X24606Y-59055D02*
D03*
Y-98425D02*
D03*
X19685Y-108268D02*
D03*
X24606Y-137795D02*
D03*
X19685Y-147638D02*
D03*
X14764Y137795D02*
D03*
X9843Y108268D02*
D03*
Y-88583D02*
D03*
X14764Y-98425D02*
D03*
X9843Y-108268D02*
D03*
X14764Y-137795D02*
D03*
X9843Y-147638D02*
D03*
X0Y108268D02*
D03*
Y9843D02*
D03*
X4921Y0D02*
D03*
X0Y-9843D02*
D03*
X4921Y-19685D02*
D03*
X0Y-29528D02*
D03*
X4921Y-39370D02*
D03*
Y-78740D02*
D03*
X0Y-88583D02*
D03*
Y-108268D02*
D03*
X4921Y-118110D02*
D03*
X0Y-127953D02*
D03*
X4921Y-137795D02*
D03*
X0Y-147638D02*
D03*
X-9843Y108268D02*
D03*
Y49213D02*
D03*
Y29528D02*
D03*
X-4921Y19685D02*
D03*
X-9843Y9843D02*
D03*
Y-29528D02*
D03*
X-4921Y-39370D02*
D03*
Y-78740D02*
D03*
X-9843Y-88583D02*
D03*
Y-108268D02*
D03*
X-4921Y-118110D02*
D03*
Y-137795D02*
D03*
X-9843Y-147638D02*
D03*
X-19685Y147638D02*
D03*
X-14764Y137795D02*
D03*
X-19685Y127953D02*
D03*
Y108268D02*
D03*
Y49213D02*
D03*
Y-9843D02*
D03*
Y-29528D02*
D03*
X-14764Y-39370D02*
D03*
X-19685Y-49213D02*
D03*
Y-88583D02*
D03*
Y-108268D02*
D03*
X-14764Y-137795D02*
D03*
X-19685Y-147638D02*
D03*
X-29528Y147638D02*
D03*
X-24606Y137795D02*
D03*
X-29528Y127953D02*
D03*
X-24606Y118110D02*
D03*
X-29528Y108268D02*
D03*
X-24606Y39370D02*
D03*
X-29528Y29528D02*
D03*
Y-9843D02*
D03*
X-24606Y-19685D02*
D03*
X-29528Y-29528D02*
D03*
Y-49213D02*
D03*
X-24606Y-59055D02*
D03*
X-29528Y-68898D02*
D03*
Y-88583D02*
D03*
X-24606Y-98425D02*
D03*
X-29528Y-127953D02*
D03*
X-24606Y-137795D02*
D03*
X-29528Y-147638D02*
D03*
X-39370Y147638D02*
D03*
X-34449Y137795D02*
D03*
X-39370Y127953D02*
D03*
X-34449Y118110D02*
D03*
X-39370Y108268D02*
D03*
X-34449Y39370D02*
D03*
X-39370Y29528D02*
D03*
X-34449Y19685D02*
D03*
X-39370Y9843D02*
D03*
Y-9843D02*
D03*
Y-29528D02*
D03*
X-34449Y-118110D02*
D03*
X-39370Y-127953D02*
D03*
X-34449Y-137795D02*
D03*
X-39370Y-147638D02*
D03*
X-49213Y147638D02*
D03*
X-44291Y137795D02*
D03*
X-49213Y127953D02*
D03*
X-44291Y118110D02*
D03*
X-49213Y108268D02*
D03*
Y68898D02*
D03*
X-44291Y19685D02*
D03*
Y0D02*
D03*
Y-19685D02*
D03*
Y-98425D02*
D03*
X-49213Y-108268D02*
D03*
X-44291Y-118110D02*
D03*
X-49213Y-127953D02*
D03*
X-44291Y-137795D02*
D03*
X-49213Y-147638D02*
D03*
X-59055Y147638D02*
D03*
X-54134Y137795D02*
D03*
X-59055Y127953D02*
D03*
X-54134Y118110D02*
D03*
X-59055Y108268D02*
D03*
Y68898D02*
D03*
X-54134Y59055D02*
D03*
X-59055Y49213D02*
D03*
X-54134Y-98425D02*
D03*
Y-118110D02*
D03*
X-59055Y-127953D02*
D03*
X-54134Y-137795D02*
D03*
X-59055Y-147638D02*
D03*
X-68898Y147638D02*
D03*
X-63976Y137795D02*
D03*
X-68898Y127953D02*
D03*
X-63976Y118110D02*
D03*
X-68898Y108268D02*
D03*
X-63976Y98425D02*
D03*
Y78740D02*
D03*
Y59055D02*
D03*
X-68898Y49213D02*
D03*
X-63976Y39370D02*
D03*
X-68898Y-29528D02*
D03*
X-63976Y-39370D02*
D03*
X-68898Y-49213D02*
D03*
X-63976Y-59055D02*
D03*
X-68898Y-68898D02*
D03*
X-63976Y-118110D02*
D03*
X-68898Y-127953D02*
D03*
X-63976Y-137795D02*
D03*
X-68898Y-147638D02*
D03*
X-73819Y118110D02*
D03*
X-78740Y108268D02*
D03*
Y88583D02*
D03*
Y49213D02*
D03*
X-73819Y39370D02*
D03*
X-78740Y29528D02*
D03*
Y9843D02*
D03*
Y-9843D02*
D03*
X-73819Y-19685D02*
D03*
X-78740Y-29528D02*
D03*
X-73819Y-39370D02*
D03*
X-78740Y-49213D02*
D03*
Y-68898D02*
D03*
Y-108268D02*
D03*
X-73819Y-137795D02*
D03*
X-78740Y-147638D02*
D03*
X-88583Y127953D02*
D03*
X-83661Y118110D02*
D03*
X-88583Y108268D02*
D03*
X-83661Y98425D02*
D03*
X-88583Y88583D02*
D03*
X-83661Y78740D02*
D03*
X-88583Y68898D02*
D03*
X-83661Y59055D02*
D03*
X-88583Y49213D02*
D03*
X-83661Y39370D02*
D03*
X-88583Y29528D02*
D03*
X-83661Y19685D02*
D03*
X-88583Y9843D02*
D03*
X-83661Y0D02*
D03*
X-88583Y-9843D02*
D03*
X-83661Y-19685D02*
D03*
X-88583Y-29528D02*
D03*
X-83661Y-39370D02*
D03*
X-88583Y-49213D02*
D03*
X-83661Y-59055D02*
D03*
X-88583Y-68898D02*
D03*
X-83661Y-78740D02*
D03*
X-88583Y-88583D02*
D03*
X-83661Y-98425D02*
D03*
X-88583Y-108268D02*
D03*
Y-127953D02*
D03*
X-83661Y-137795D02*
D03*
X-88583Y-147638D02*
D03*
X63976Y76772D02*
D03*
Y70866D02*
D03*
Y64961D02*
D03*
X68898Y39370D02*
D03*
X60039D02*
D03*
X89567Y9843D02*
D03*
X63976Y83661D02*
D03*
Y59055D02*
D03*
X-27559Y7972D02*
D03*
X-75787Y60039D02*
D03*
X-78740Y20669D02*
D03*
X-57284Y-110236D02*
D03*
X-41221D02*
D03*
X64508Y-17717D02*
D03*
X83661Y-8858D02*
D03*
X39862Y94291D02*
D03*
X-39862Y98425D02*
D03*
X39862Y77756D02*
D03*
Y83661D02*
D03*
X36417Y77756D02*
D03*
Y83661D02*
D03*
X43307Y77756D02*
D03*
Y83661D02*
D03*
X-43307D02*
D03*
Y77756D02*
D03*
X-36417Y83661D02*
D03*
Y77756D02*
D03*
X-39862Y83661D02*
D03*
Y77756D02*
D03*
X-61299Y-98425D02*
D03*
Y-94488D02*
D03*
Y-106299D02*
D03*
Y-102362D02*
D03*
X61299Y-94488D02*
D03*
Y-98425D02*
D03*
Y-102362D02*
D03*
Y-106299D02*
D03*
X57284Y-94488D02*
D03*
Y-98425D02*
D03*
Y-102362D02*
D03*
Y-106299D02*
D03*
X45236Y-94488D02*
D03*
Y-98425D02*
D03*
Y-102362D02*
D03*
Y-106299D02*
D03*
X41221Y-94488D02*
D03*
Y-98425D02*
D03*
Y-102362D02*
D03*
Y-106299D02*
D03*
X-37205D02*
D03*
Y-102362D02*
D03*
Y-98425D02*
D03*
Y-94488D02*
D03*
X-74803Y-59055D02*
D03*
X-19685D02*
D03*
X74803D02*
D03*
X19685D02*
D03*
X-68405Y0D02*
D03*
X-63287D02*
D03*
X-58169D02*
D03*
X-53051D02*
D03*
X-60630Y21654D02*
D03*
X-63779Y25591D02*
D03*
X-66929Y29528D02*
D03*
X-8858Y71457D02*
D03*
X0Y71653D02*
D03*
X18110Y71457D02*
D03*
X9055D02*
D03*
X18110Y80709D02*
D03*
X0Y89764D02*
D03*
X-9055Y80709D02*
D03*
X9055D02*
D03*
X0D02*
D03*
X-18110D02*
D03*
Y71653D02*
D03*
Y62598D02*
D03*
X80709Y149213D02*
D03*
X87402Y146457D02*
D03*
X90158Y139764D02*
D03*
X87402Y133071D02*
D03*
X80709Y130315D02*
D03*
X74016Y133071D02*
D03*
Y146457D02*
D03*
X71260Y139764D02*
D03*
X-71260D02*
D03*
X-74016Y146457D02*
D03*
Y133071D02*
D03*
X-80709Y130315D02*
D03*
X-87402Y133071D02*
D03*
X-90158Y139764D02*
D03*
X-87402Y146457D02*
D03*
X-80709Y149213D02*
D03*
D40*
X64173Y2165D02*
D03*
Y-2165D02*
D03*
X59842Y2165D02*
D03*
Y-2165D02*
D03*
M02*
