G04*
G04 #@! TF.GenerationSoftware,Altium Limited,Altium Designer,23.9.2 (47)*
G04*
G04 Layer_Color=65535*
%FSLAX25Y25*%
%MOIN*%
G70*
G04*
G04 #@! TF.SameCoordinates,E30DC50E-2E90-4FCC-99EB-6CEF48135232*
G04*
G04*
G04 #@! TF.FilePolarity,Positive*
G04*
G01*
G75*
%ADD10C,0.00984*%
%ADD11C,0.02362*%
%ADD12C,0.00787*%
%ADD13C,0.00394*%
%ADD14C,0.00610*%
%ADD15C,0.00591*%
G36*
X-25591Y110236D02*
X-29528Y106299D01*
Y110236D01*
X-25591D01*
D02*
G37*
D10*
X73347Y10728D02*
X72608Y11155D01*
Y10302D01*
X73347Y10728D01*
X-21161Y-4331D02*
X-21900Y-3904D01*
Y-4757D01*
X-21161Y-4331D01*
X-76083Y-11516D02*
X-76821Y-11090D01*
Y-11942D01*
X-76083Y-11516D01*
X-31594Y109646D02*
X-32333Y110072D01*
Y109220D01*
X-31594Y109646D01*
X46555Y93701D02*
X45817Y94127D01*
Y93275D01*
X46555Y93701D01*
X-59744D02*
X-60482Y94127D01*
Y93275D01*
X-59744Y93701D01*
D11*
X-69882Y-3150D02*
X-70327Y-2226D01*
X-71326Y-1998D01*
X-72127Y-2637D01*
Y-3662D01*
X-71326Y-4301D01*
X-70327Y-4073D01*
X-69882Y-3150D01*
D12*
X52165Y6299D02*
X71850D01*
X52165Y-6299D02*
X71850D01*
Y6299D01*
X52165Y-6299D02*
Y6299D01*
X-20472Y-1181D02*
Y1181D01*
X-11811Y-1181D02*
Y1181D01*
X-20472Y-1181D02*
X-11811D01*
X-20472Y1181D02*
X-11811D01*
X-49016Y-7087D02*
Y7087D01*
X-75000Y-7087D02*
Y7087D01*
X-49016D01*
X-75000Y-7087D02*
X-49016D01*
X-29528Y51181D02*
X29528D01*
X-29528Y110236D02*
X29528D01*
Y51181D02*
Y110236D01*
X-29528Y51181D02*
Y110236D01*
Y106299D02*
X-25591Y110236D01*
X85630Y-115748D02*
Y-82677D01*
X82677D02*
X85630D01*
X8858D02*
X11811D01*
X8858Y-115748D02*
Y-82677D01*
Y-155504D02*
Y-126772D01*
Y-155504D02*
X85630Y-155545D01*
Y-125984D01*
X-8858Y-115748D02*
Y-82677D01*
X-11811D02*
X-8858D01*
X-85630D02*
X-82677D01*
X-85630Y-115748D02*
Y-82677D01*
Y-155504D02*
Y-126772D01*
Y-155504D02*
X-8858Y-155545D01*
Y-125984D01*
X47244Y97244D02*
Y101181D01*
X50394D01*
X59055Y97244D02*
Y101181D01*
X55905D02*
X59055D01*
X-59055Y97244D02*
Y101181D01*
X-55905D01*
X-47244Y97244D02*
Y101181D01*
X-50394D02*
X-47244D01*
X-1378Y134646D02*
X1378D01*
X-1378Y140945D02*
X1378D01*
D13*
X37205Y-70866D02*
Y-62992D01*
X41221Y-70866D02*
Y-60896D01*
X45236Y-70866D02*
Y-55118D01*
X33189Y-70866D02*
Y-66929D01*
X43307Y-48228D02*
X45236Y-55118D01*
X34449Y-48228D02*
X41221Y-60896D01*
X26575Y-48228D02*
X37205Y-62992D01*
X17717Y-48228D02*
X33189Y-66929D01*
X61299D02*
X76772Y-48228D01*
X57284Y-62992D02*
X67913Y-48228D01*
X53268Y-60896D02*
X60039Y-48228D01*
X49252Y-55118D02*
X51181Y-48228D01*
X61299Y-70866D02*
Y-66929D01*
X49252Y-70866D02*
Y-55118D01*
X53268Y-70866D02*
Y-60896D01*
X57284Y-70866D02*
Y-62992D01*
X-37205Y-70866D02*
Y-62992D01*
X-41221Y-70866D02*
Y-60896D01*
X-45236Y-70866D02*
Y-55118D01*
X-33189Y-70866D02*
Y-66929D01*
X-45236Y-55118D02*
X-43307Y-48228D01*
X-41221Y-60896D02*
X-34449Y-48228D01*
X-37205Y-62992D02*
X-26575Y-48228D01*
X-33189Y-66929D02*
X-17717Y-48228D01*
X-76772D02*
X-61299Y-66929D01*
X-67913Y-48228D02*
X-57284Y-62992D01*
X-60039Y-48228D02*
X-53268Y-60896D01*
X-51181Y-48228D02*
X-49252Y-55118D01*
X-61299Y-70866D02*
Y-66929D01*
X-49252Y-70866D02*
Y-55118D01*
X-53268Y-70866D02*
Y-60896D01*
X-57284Y-70866D02*
Y-62992D01*
D14*
X-27966Y-44005D02*
X-26111Y-42150D01*
X-27966D02*
X-26111Y-44005D01*
X-24720Y-37975D02*
X-26575Y-39831D01*
X-25183Y-41222D01*
X-24720Y-39831D01*
X-24256Y-39367D01*
X-23328D01*
X-22400Y-40295D01*
Y-41222D01*
X-23328Y-42150D01*
X-24256D01*
X-23792Y-37048D02*
X-21937Y-38903D01*
X-20081D01*
Y-37048D01*
X-21937Y-35192D01*
X71815Y20343D02*
X73670Y22198D01*
X71815D02*
X73670Y20343D01*
Y24054D02*
Y24981D01*
X74598Y25909D01*
X75526Y25909D01*
X75990Y25445D01*
Y24517D01*
X75526Y24054D01*
X75990Y24517D01*
X76917Y24517D01*
X77381Y24054D01*
Y23126D01*
X76453Y22198D01*
X75526D01*
X75990Y27300D02*
X77845Y25445D01*
X79700D01*
Y27300D01*
X77845Y29156D01*
X79236Y29620D02*
Y30547D01*
X80164Y31475D01*
X81092Y31475D01*
X81555Y31011D01*
Y30083D01*
X81092Y29620D01*
X81555Y30083D01*
X82483D01*
X82947Y29620D01*
X82947Y28692D01*
X82019Y27764D01*
X81092D01*
X23792Y-43007D02*
X24720Y-42080D01*
X24256Y-42544D01*
X27039Y-45327D01*
X26575Y-45790D01*
X27502Y-44863D01*
Y-42080D02*
X29358Y-40225D01*
X61431Y-43078D02*
X59575Y-41222D01*
X58648D01*
X57720Y-42150D01*
Y-43078D01*
X59575Y-44933D01*
X60503D01*
X61431Y-44005D01*
X60039Y-43541D02*
X61895D01*
X61431Y-44005D02*
Y-43078D01*
Y-41222D02*
X63286Y-39367D01*
X33985Y-41616D02*
X33057D01*
X32130Y-42544D01*
Y-43471D01*
X33985Y-45327D01*
X34913D01*
X35840Y-44399D01*
Y-43471D01*
X34913Y-42544D01*
X33985Y-43471D01*
X37232Y-43007D02*
X34449Y-40224D01*
X39087Y-41152D01*
X36304Y-38369D01*
X37232Y-37442D02*
X40015Y-40224D01*
X41406Y-38833D01*
X41406Y-37905D01*
X39551Y-36050D01*
X38623Y-36050D01*
X37232Y-37442D01*
X42843Y-41616D02*
X41916D01*
X40988Y-42544D01*
Y-43471D01*
X42843Y-45327D01*
X43771D01*
X44699Y-44399D01*
Y-43471D01*
X43771Y-42544D01*
X42843Y-43471D01*
X46090Y-43007D02*
X43307Y-40224D01*
X47945Y-41152D01*
X45162Y-38369D01*
X46090Y-37442D02*
X48873Y-40224D01*
X50265Y-38833D01*
X50265Y-37905D01*
X48409Y-36050D01*
X47482Y-36050D01*
X46090Y-37442D01*
X14933Y-43992D02*
X15861Y-43064D01*
X15397Y-43528D01*
X18180Y-46311D01*
X17717Y-46775D01*
X18644Y-45847D01*
Y-43064D02*
X20500Y-41209D01*
X18644D02*
X20500Y-43064D01*
X76308Y-41222D02*
X75380D01*
X74453Y-42150D01*
Y-43078D01*
X76308Y-44933D01*
X77236D01*
X78163Y-44005D01*
Y-43078D01*
X77236Y-42150D01*
X76308Y-43078D01*
X79555Y-42614D02*
X76772Y-39831D01*
X81410Y-40758D01*
X78627Y-37975D01*
X79555Y-37048D02*
X82338Y-39831D01*
X83729Y-38439D01*
X83729Y-37512D01*
X81874Y-35656D01*
X80946Y-35656D01*
X79555Y-37048D01*
X67449Y-41222D02*
X66522D01*
X65594Y-42150D01*
Y-43078D01*
X67449Y-44933D01*
X68377D01*
X69305Y-44005D01*
Y-43078D01*
X68377Y-42150D01*
X67449Y-43078D01*
X70696Y-42614D02*
X67913Y-39831D01*
X72552Y-40758D01*
X69769Y-37975D01*
X70696Y-37048D02*
X73479Y-39831D01*
X74871Y-38439D01*
X74871Y-37512D01*
X73015Y-35656D01*
X72088Y-35656D01*
X70696Y-37048D01*
X52573Y-43471D02*
X50717Y-41616D01*
X49790D01*
X48862Y-42544D01*
Y-43471D01*
X50717Y-45327D01*
X51645D01*
X52573Y-44399D01*
X51181Y-43935D02*
X53036D01*
X52573Y-44399D02*
Y-43471D01*
Y-41616D02*
X54428Y-39761D01*
X52573D02*
X54428Y-41616D01*
X-46090Y-43007D02*
X-44235Y-41152D01*
X-45162Y-42080D01*
X-42379Y-44863D01*
X-43307Y-40224D02*
X-38669Y-41152D01*
X-41452Y-38369D02*
X-40524Y-43007D01*
X-19108Y-40295D02*
X-20963Y-42150D01*
X-19572Y-43541D01*
X-18644Y-42614D01*
X-19572Y-43541D01*
X-18180Y-44933D01*
X-14933Y-42614D02*
X-13078Y-40758D01*
X-12614Y-39367D02*
X-15397Y-36584D01*
X-14006Y-35192D01*
X-13078Y-35192D01*
X-12151Y-36120D01*
X-12151Y-37048D01*
X-13542Y-38439D01*
X-12614Y-37512D02*
X-10759D01*
Y-31946D02*
X-12614Y-33801D01*
X-9831Y-36584D01*
X-7976Y-34729D01*
X-11223Y-35192D02*
X-10295Y-34265D01*
X-7976Y-29163D02*
X-9831Y-31018D01*
X-8440Y-32410D01*
X-7512Y-31482D01*
X-8440Y-32410D01*
X-7048Y-33801D01*
X-78163Y-45383D02*
X-76308Y-43528D01*
X-78163D02*
X-76308Y-45383D01*
X-74916Y-39353D02*
X-76772Y-41209D01*
X-75380Y-42600D01*
X-74916Y-41209D01*
X-74453Y-40745D01*
X-73525D01*
X-72597Y-41673D01*
Y-42600D01*
X-73525Y-43528D01*
X-74453D01*
X-73525Y-38890D02*
Y-37962D01*
X-72597Y-37034D01*
X-71670Y-37034D01*
X-69814Y-38890D01*
X-69814Y-39817D01*
X-70742Y-40745D01*
X-71670D01*
X-73525Y-38890D01*
X-71206Y-35643D02*
X-69350Y-37498D01*
X-67495D01*
Y-35643D01*
X-69350Y-33788D01*
X-51645Y-41616D02*
X-52573D01*
X-53500Y-42544D01*
Y-43471D01*
X-51645Y-45327D01*
X-50717D01*
X-49790Y-44399D01*
Y-43471D01*
X-48862Y-38833D02*
X-49790Y-38833D01*
X-50717Y-39761D01*
Y-40688D01*
X-50253Y-41152D01*
X-49326Y-41152D01*
X-48398Y-40224D01*
X-47471Y-40225D01*
X-47007Y-40688D01*
Y-41616D01*
X-47934Y-42544D01*
X-48862D01*
X-60503Y-41616D02*
X-61431D01*
X-62358Y-42544D01*
Y-43471D01*
X-61895Y-43935D01*
X-60967Y-43935D01*
X-60039Y-43007D01*
X-59112Y-43007D01*
X-58648Y-43471D01*
Y-44399D01*
X-59576Y-45327D01*
X-60503D01*
X-57720Y-38833D02*
X-58648Y-38833D01*
X-59576Y-39761D01*
Y-40688D01*
X-57720Y-42544D01*
X-56793D01*
X-55865Y-41616D01*
Y-40688D01*
X-57256Y-37442D02*
X-54473Y-40224D01*
X-52618Y-38369D01*
X-54473Y-34659D02*
X-51690Y-37442D01*
X-52618Y-36514D01*
Y-32803D01*
Y-35586D01*
X-49835D01*
X-34449Y-45397D02*
X-37232Y-42614D01*
X-35840Y-41222D01*
X-34913D01*
X-33985Y-42150D01*
Y-43078D01*
X-35377Y-44469D01*
X-34449Y-43541D02*
X-32594D01*
X-34449Y-39831D02*
X-29811Y-40758D01*
X-32594Y-37975D02*
X-31666Y-42614D01*
X-67913Y-45790D02*
X-70696Y-43007D01*
X-68841Y-43008D01*
X-68841Y-41152D01*
X-66058Y-43935D01*
X-66522Y-38833D02*
X-67450Y-39761D01*
Y-40688D01*
X-65594Y-42544D01*
X-64667D01*
X-63739Y-41616D01*
Y-40688D01*
X-65594Y-38833D01*
X-66522Y-38833D01*
X-62811Y-36050D02*
X-63739Y-36050D01*
X-64667Y-36978D01*
Y-37905D01*
X-64203Y-38369D01*
X-63275D01*
X-62347Y-37442D01*
X-61420Y-37442D01*
X-60956Y-37905D01*
X-60956Y-38833D01*
X-61884Y-39761D01*
X-62811D01*
X-62347Y-34659D02*
X-61420Y-33731D01*
X-61884Y-34195D01*
X-59101Y-36978D01*
X-59564Y-37442D01*
X-58637Y-36514D01*
D15*
X-63512Y-142127D02*
X-64561D01*
X-64037D01*
Y-144750D01*
X-64561Y-145275D01*
X-65086D01*
X-65611Y-144750D01*
X-62462Y-142127D02*
Y-145275D01*
X-60363D01*
X-57215Y-142651D02*
X-57739Y-142127D01*
X-58789D01*
X-59314Y-142651D01*
Y-144750D01*
X-58789Y-145275D01*
X-57739D01*
X-57215Y-144750D01*
X-54066Y-142127D02*
X-55116D01*
X-54591D01*
Y-144750D01*
X-55116Y-145275D01*
X-55640D01*
X-56165Y-144750D01*
X-53017Y-142127D02*
Y-145275D01*
X-50917D01*
X-47769Y-142651D02*
X-48294Y-142127D01*
X-49343D01*
X-49868Y-142651D01*
Y-144750D01*
X-49343Y-145275D01*
X-48294D01*
X-47769Y-144750D01*
X-44620Y-142127D02*
X-45670D01*
X-45145D01*
Y-144750D01*
X-45670Y-145275D01*
X-46194D01*
X-46719Y-144750D01*
X-43571Y-142127D02*
Y-145275D01*
X-41472D01*
X-38323Y-142651D02*
X-38848Y-142127D01*
X-39897D01*
X-40422Y-142651D01*
Y-144750D01*
X-39897Y-145275D01*
X-38848D01*
X-38323Y-144750D01*
X-35175Y-142127D02*
X-36224D01*
X-35699D01*
Y-144750D01*
X-36224Y-145275D01*
X-36749D01*
X-37274Y-144750D01*
X-34125Y-142127D02*
Y-145275D01*
X-32026D01*
X-28877Y-142651D02*
X-29402Y-142127D01*
X-30452D01*
X-30976Y-142651D01*
Y-144750D01*
X-30452Y-145275D01*
X-29402D01*
X-28877Y-144750D01*
M02*
