G04*
G04 #@! TF.GenerationSoftware,Altium Limited,Altium Designer,23.9.2 (47)*
G04*
G04 Layer_Physical_Order=1*
G04 Layer_Color=255*
%FSLAX25Y25*%
%MOIN*%
G70*
G04*
G04 #@! TF.SameCoordinates,5BF2F9AB-C423-4005-A627-090FB2B952A9*
G04*
G04*
G04 #@! TF.FilePolarity,Positive*
G04*
G01*
G75*
%ADD10C,0.00984*%
%ADD13C,0.00787*%
%ADD15C,0.00591*%
%ADD16C,0.02953*%
%ADD32C,0.01181*%
%ADD33R,0.05709X0.01772*%
%ADD34R,0.15354X0.02402*%
%ADD35R,0.03347X0.01575*%
%ADD36R,0.03937X0.02362*%
%ADD37R,0.02165X0.02362*%
%ADD38R,0.02520X0.02520*%
%ADD39R,0.07087X0.05118*%
%ADD40R,0.07087X0.03937*%
G04:AMPARAMS|DCode=41|XSize=41.34mil|YSize=86.61mil|CornerRadius=0mil|HoleSize=0mil|Usage=FLASHONLY|Rotation=315.000|XOffset=0mil|YOffset=0mil|HoleType=Round|Shape=Rectangle|*
%AMROTATEDRECTD41*
4,1,4,-0.04524,-0.01601,0.01601,0.04524,0.04524,0.01601,-0.01601,-0.04524,-0.04524,-0.01601,0.0*
%
%ADD41ROTATEDRECTD41*%

G04:AMPARAMS|DCode=42|XSize=39.37mil|YSize=47.24mil|CornerRadius=0mil|HoleSize=0mil|Usage=FLASHONLY|Rotation=315.000|XOffset=0mil|YOffset=0mil|HoleType=Round|Shape=Rectangle|*
%AMROTATEDRECTD42*
4,1,4,-0.03062,-0.00278,0.00278,0.03062,0.03062,0.00278,-0.00278,-0.03062,-0.03062,-0.00278,0.0*
%
%ADD42ROTATEDRECTD42*%

%ADD43R,0.02520X0.02520*%
%ADD44R,0.02362X0.02165*%
%ADD45C,0.01968*%
%ADD46C,0.15748*%
%ADD47C,0.23622*%
%ADD48C,0.02362*%
G36*
X35142Y77835D02*
X35132Y77928D01*
X35102Y78012D01*
X35052Y78086D01*
X34983Y78150D01*
X34893Y78204D01*
X34784Y78248D01*
X34654Y78282D01*
X34505Y78307D01*
X34335Y78322D01*
X34146Y78327D01*
Y79311D01*
X34335Y79316D01*
X34505Y79331D01*
X34654Y79355D01*
X34784Y79390D01*
X34893Y79434D01*
X34983Y79488D01*
X35052Y79552D01*
X35102Y79626D01*
X35132Y79710D01*
X35142Y79803D01*
Y77835D01*
D02*
G37*
G36*
X33983Y58047D02*
X34057Y57990D01*
X34137Y57940D01*
X34222Y57896D01*
X34313Y57859D01*
X34410Y57829D01*
X34512Y57806D01*
X34620Y57789D01*
X34734Y57779D01*
X34853Y57776D01*
Y56791D01*
X34734Y56788D01*
X34620Y56778D01*
X34512Y56761D01*
X34410Y56738D01*
X34313Y56708D01*
X34222Y56671D01*
X34137Y56627D01*
X34057Y56577D01*
X33983Y56520D01*
X33914Y56457D01*
Y58110D01*
X33983Y58047D01*
D02*
G37*
G36*
X36402Y56299D02*
X36392Y56393D01*
X36362Y56476D01*
X36312Y56550D01*
X36243Y56614D01*
X36153Y56668D01*
X36043Y56713D01*
X35914Y56747D01*
X35764Y56772D01*
X35595Y56786D01*
X35406Y56791D01*
Y57776D01*
X35595Y57780D01*
X35764Y57795D01*
X35914Y57820D01*
X36043Y57854D01*
X36153Y57899D01*
X36243Y57953D01*
X36312Y58017D01*
X36362Y58091D01*
X36392Y58174D01*
X36402Y58268D01*
Y56299D01*
D02*
G37*
G36*
X51718Y54159D02*
X51748Y54075D01*
X51798Y54001D01*
X51868Y53937D01*
X51957Y53883D01*
X52067Y53839D01*
X52196Y53804D01*
X52346Y53780D01*
X52515Y53765D01*
X52705Y53760D01*
Y52776D01*
X52515Y52771D01*
X52346Y52756D01*
X52196Y52731D01*
X52067Y52697D01*
X51957Y52653D01*
X51868Y52598D01*
X51798Y52534D01*
X51748Y52461D01*
X51718Y52377D01*
X51708Y52284D01*
Y54252D01*
X51718Y54159D01*
D02*
G37*
G36*
Y50143D02*
X51748Y50059D01*
X51798Y49985D01*
X51868Y49921D01*
X51957Y49867D01*
X52067Y49823D01*
X52196Y49788D01*
X52346Y49764D01*
X52515Y49749D01*
X52705Y49744D01*
Y48760D01*
X52515Y48755D01*
X52346Y48740D01*
X52196Y48715D01*
X52067Y48681D01*
X51957Y48637D01*
X51868Y48583D01*
X51798Y48519D01*
X51748Y48445D01*
X51718Y48361D01*
X51708Y48268D01*
Y50236D01*
X51718Y50143D01*
D02*
G37*
G36*
X36402Y44252D02*
X36392Y44346D01*
X36362Y44429D01*
X36312Y44503D01*
X36243Y44567D01*
X36153Y44621D01*
X36043Y44665D01*
X35914Y44700D01*
X35764Y44724D01*
X35595Y44739D01*
X35406Y44744D01*
Y45728D01*
X35595Y45733D01*
X35764Y45748D01*
X35914Y45773D01*
X36043Y45807D01*
X36153Y45851D01*
X36243Y45906D01*
X36312Y45970D01*
X36362Y46043D01*
X36392Y46127D01*
X36402Y46220D01*
Y44252D01*
D02*
G37*
G36*
Y40236D02*
X36392Y40330D01*
X36362Y40413D01*
X36312Y40487D01*
X36243Y40551D01*
X36153Y40605D01*
X36043Y40650D01*
X35914Y40684D01*
X35764Y40709D01*
X35595Y40723D01*
X35406Y40728D01*
Y41713D01*
X35595Y41717D01*
X35764Y41732D01*
X35914Y41757D01*
X36043Y41791D01*
X36153Y41836D01*
X36243Y41890D01*
X36312Y41954D01*
X36362Y42028D01*
X36392Y42111D01*
X36402Y42205D01*
Y40236D01*
D02*
G37*
G36*
X33983Y37968D02*
X34057Y37911D01*
X34137Y37861D01*
X34222Y37817D01*
X34313Y37780D01*
X34410Y37750D01*
X34512Y37727D01*
X34620Y37710D01*
X34734Y37700D01*
X34853Y37697D01*
Y36713D01*
X34734Y36709D01*
X34620Y36699D01*
X34512Y36683D01*
X34410Y36659D01*
X34313Y36629D01*
X34222Y36592D01*
X34137Y36549D01*
X34057Y36498D01*
X33983Y36441D01*
X33914Y36378D01*
Y38032D01*
X33983Y37968D01*
D02*
G37*
G36*
X36402Y36220D02*
X36392Y36314D01*
X36362Y36398D01*
X36312Y36471D01*
X36243Y36535D01*
X36153Y36590D01*
X36043Y36634D01*
X35914Y36668D01*
X35764Y36693D01*
X35595Y36708D01*
X35406Y36713D01*
Y37697D01*
X35595Y37702D01*
X35764Y37716D01*
X35914Y37741D01*
X36043Y37776D01*
X36153Y37820D01*
X36243Y37874D01*
X36312Y37938D01*
X36362Y38012D01*
X36392Y38096D01*
X36402Y38189D01*
Y36220D01*
D02*
G37*
G36*
X120918Y36374D02*
X120873Y36324D01*
X120832Y36265D01*
X120796Y36198D01*
X120765Y36122D01*
X120739Y36037D01*
X120717Y35944D01*
X120701Y35843D01*
X120689Y35733D01*
X120683Y35587D01*
X120685Y35509D01*
X120703Y35307D01*
X120732Y35128D01*
X120774Y34972D01*
X120827Y34841D01*
X120892Y34734D01*
X120968Y34650D01*
X121057Y34591D01*
X121158Y34555D01*
X121270Y34543D01*
X118907D01*
X119020Y34555D01*
X119120Y34591D01*
X119209Y34650D01*
X119285Y34734D01*
X119350Y34841D01*
X119404Y34972D01*
X119445Y35128D01*
X119474Y35307D01*
X119492Y35509D01*
X119495Y35631D01*
X119477Y35854D01*
X119461Y35956D01*
X119440Y36049D01*
X119414Y36134D01*
X119384Y36210D01*
X119349Y36278D01*
X119309Y36337D01*
X119265Y36388D01*
X120918Y36374D01*
D02*
G37*
G36*
X80506Y36311D02*
X80466Y36252D01*
X80431Y36184D01*
X80400Y36108D01*
X80374Y36024D01*
X80353Y35930D01*
X80336Y35829D01*
X80324Y35719D01*
X80319Y35579D01*
X80321Y35509D01*
X80339Y35307D01*
X80368Y35128D01*
X80409Y34972D01*
X80463Y34841D01*
X80528Y34734D01*
X80604Y34650D01*
X80693Y34591D01*
X80793Y34555D01*
X80905Y34543D01*
X78543D01*
X78655Y34555D01*
X78756Y34591D01*
X78844Y34650D01*
X78921Y34734D01*
X78986Y34841D01*
X79039Y34972D01*
X79081Y35128D01*
X79110Y35307D01*
X79128Y35509D01*
X79131Y35611D01*
X79113Y35829D01*
X79096Y35930D01*
X79075Y36024D01*
X79049Y36108D01*
X79018Y36184D01*
X78983Y36252D01*
X78943Y36311D01*
X78898Y36361D01*
X80551D01*
X80506Y36311D01*
D02*
G37*
G36*
X148359Y34301D02*
X148512Y34294D01*
X148886Y34291D01*
Y32323D01*
X148512Y32320D01*
X148359Y32309D01*
Y32059D01*
X148339Y32109D01*
X148280Y32154D01*
X148181Y32194D01*
X148044Y32228D01*
X147866Y32257D01*
X147774Y32267D01*
X147232Y32228D01*
X147094Y32194D01*
X146996Y32154D01*
X146937Y32109D01*
X146917Y32059D01*
Y32313D01*
X146764Y32320D01*
X146390Y32323D01*
Y34291D01*
X146764Y34294D01*
X146917Y34305D01*
Y34555D01*
X146937Y34505D01*
X146996Y34460D01*
X147094Y34420D01*
X147232Y34386D01*
X147409Y34357D01*
X147501Y34347D01*
X148044Y34386D01*
X148181Y34420D01*
X148280Y34460D01*
X148339Y34505D01*
X148359Y34555D01*
Y34301D01*
D02*
G37*
G36*
X108004Y34280D02*
X108531Y34272D01*
Y32303D01*
X108157Y32301D01*
X108004Y32291D01*
Y32059D01*
X107984Y32106D01*
X107925Y32147D01*
X107827Y32184D01*
X107689Y32215D01*
X107512Y32242D01*
X107408Y32251D01*
X106878Y32215D01*
X106740Y32184D01*
X106641Y32147D01*
X106582Y32106D01*
X106563Y32059D01*
Y32292D01*
X106036Y32303D01*
Y34272D01*
X106410Y34275D01*
X106563Y34284D01*
Y34555D01*
X106582Y34501D01*
X106641Y34453D01*
X106740Y34411D01*
X106878Y34374D01*
X107055Y34343D01*
X107212Y34324D01*
X107512Y34343D01*
X107689Y34374D01*
X107827Y34411D01*
X107925Y34453D01*
X107984Y34501D01*
X108004Y34555D01*
Y34280D01*
D02*
G37*
G36*
X144422Y32059D02*
X144402Y32109D01*
X144343Y32154D01*
X144244Y32194D01*
X144106Y32228D01*
X143929Y32257D01*
X143713Y32281D01*
X143401Y32295D01*
X142508Y32235D01*
X142370Y32203D01*
X142271Y32167D01*
X142212Y32125D01*
X142193Y32079D01*
Y34417D01*
X142212Y34393D01*
X142271Y34372D01*
X142370Y34353D01*
X142508Y34337D01*
X142901Y34312D01*
X143039Y34309D01*
X144106Y34386D01*
X144244Y34420D01*
X144343Y34460D01*
X144402Y34505D01*
X144422Y34555D01*
Y32059D01*
D02*
G37*
G36*
X104067D02*
X104047Y32106D01*
X103988Y32147D01*
X103890Y32184D01*
X103752Y32215D01*
X103575Y32242D01*
X103111Y32280D01*
X102134Y32215D01*
X101996Y32184D01*
X101898Y32147D01*
X101838Y32106D01*
X101819Y32059D01*
Y34398D01*
X101838Y34374D01*
X101898Y34352D01*
X101996Y34333D01*
X102134Y34317D01*
X102527Y34292D01*
X102707Y34289D01*
X103575Y34343D01*
X103752Y34374D01*
X103890Y34411D01*
X103988Y34453D01*
X104047Y34501D01*
X104067Y34555D01*
Y32059D01*
D02*
G37*
G36*
X131904Y33936D02*
X131945Y33926D01*
X132122Y33900D01*
X132323Y33883D01*
X132547Y33878D01*
Y32697D01*
X132323Y32691D01*
X132122Y32673D01*
X131945Y32644D01*
X131911Y32635D01*
X131914Y32106D01*
X131901Y32219D01*
X131865Y32319D01*
X131805Y32408D01*
X131721Y32484D01*
X131638Y32535D01*
X131555Y32484D01*
X131472Y32408D01*
X131413Y32319D01*
X131378Y32219D01*
X131366Y32106D01*
Y32634D01*
X131328Y32644D01*
X131149Y32673D01*
X130947Y32691D01*
X130721Y32697D01*
Y33878D01*
X130945Y33884D01*
X131146Y33900D01*
X131323Y33928D01*
X131366Y33939D01*
Y34417D01*
X131378Y34315D01*
X131413Y34223D01*
X131472Y34142D01*
X131555Y34072D01*
X131629Y34031D01*
X131713Y34079D01*
X131796Y34152D01*
X131854Y34236D01*
X131890Y34331D01*
X131902Y34437D01*
X131904Y33936D01*
D02*
G37*
G36*
X91547Y33913D02*
X91571Y33907D01*
X91748Y33880D01*
X91949Y33864D01*
X92173Y33858D01*
Y32677D01*
X91949Y32671D01*
X91748Y32654D01*
X91571Y32624D01*
X91547Y32618D01*
Y32099D01*
X91536Y32208D01*
X91500Y32307D01*
X91441Y32394D01*
X91359Y32469D01*
X91272Y32520D01*
X91181Y32465D01*
X91098Y32388D01*
X91039Y32299D01*
X91004Y32199D01*
X90992Y32087D01*
Y32619D01*
X90969Y32625D01*
X90791Y32654D01*
X90591Y32671D01*
X90366Y32677D01*
Y33858D01*
X90591Y33864D01*
X90791Y33881D01*
X90969Y33910D01*
X90992Y33917D01*
Y34398D01*
X91004Y34295D01*
X91039Y34203D01*
X91098Y34122D01*
X91181Y34052D01*
X91261Y34008D01*
X91359Y34067D01*
X91441Y34142D01*
X91500Y34229D01*
X91536Y34327D01*
X91547Y34437D01*
Y33913D01*
D02*
G37*
G36*
X122780Y32067D02*
X122768Y32179D01*
X122732Y32280D01*
X122672Y32368D01*
X122589Y32445D01*
X122482Y32510D01*
X122350Y32563D01*
X122195Y32604D01*
X122047Y32629D01*
X121899Y32604D01*
X121744Y32563D01*
X121613Y32510D01*
X121505Y32445D01*
X121422Y32368D01*
X121362Y32280D01*
X121326Y32179D01*
X121315Y32067D01*
Y34429D01*
X121326Y34317D01*
X121362Y34216D01*
X121422Y34128D01*
X121505Y34051D01*
X121613Y33986D01*
X121744Y33933D01*
X121899Y33892D01*
X122047Y33867D01*
X122195Y33892D01*
X122350Y33933D01*
X122482Y33986D01*
X122589Y34051D01*
X122672Y34128D01*
X122732Y34216D01*
X122768Y34317D01*
X122780Y34429D01*
Y32067D01*
D02*
G37*
G36*
X82414Y32059D02*
X82402Y32169D01*
X82366Y32267D01*
X82307Y32354D01*
X82225Y32430D01*
X82118Y32493D01*
X81988Y32545D01*
X81835Y32586D01*
X81693Y32609D01*
X81551Y32586D01*
X81397Y32545D01*
X81267Y32493D01*
X81161Y32430D01*
X81078Y32354D01*
X81020Y32267D01*
X80984Y32169D01*
X80972Y32059D01*
X80960Y34409D01*
X80973Y34297D01*
X81009Y34197D01*
X81069Y34108D01*
X81153Y34032D01*
X81260Y33967D01*
X81391Y33913D01*
X81546Y33872D01*
X81693Y33848D01*
X81840Y33872D01*
X81995Y33913D01*
X82126Y33967D01*
X82233Y34032D01*
X82317Y34108D01*
X82377Y34197D01*
X82413Y34297D01*
X82426Y34409D01*
X82414Y32059D01*
D02*
G37*
G36*
X33983Y33952D02*
X34057Y33895D01*
X34137Y33845D01*
X34222Y33802D01*
X34313Y33765D01*
X34410Y33735D01*
X34512Y33711D01*
X34620Y33694D01*
X34734Y33684D01*
X34853Y33681D01*
Y32697D01*
X34734Y32693D01*
X34620Y32684D01*
X34512Y32667D01*
X34410Y32643D01*
X34313Y32613D01*
X34222Y32576D01*
X34137Y32533D01*
X34057Y32483D01*
X33983Y32426D01*
X33914Y32362D01*
Y34016D01*
X33983Y33952D01*
D02*
G37*
G36*
X36402Y32205D02*
X36392Y32298D01*
X36362Y32382D01*
X36312Y32456D01*
X36243Y32520D01*
X36153Y32574D01*
X36043Y32618D01*
X35914Y32653D01*
X35764Y32677D01*
X35595Y32692D01*
X35406Y32697D01*
Y33681D01*
X35595Y33686D01*
X35764Y33701D01*
X35914Y33725D01*
X36043Y33760D01*
X36153Y33804D01*
X36243Y33858D01*
X36312Y33922D01*
X36362Y33996D01*
X36392Y34080D01*
X36402Y34173D01*
Y32205D01*
D02*
G37*
G36*
X97441Y34327D02*
X97476Y34229D01*
X97535Y34142D01*
X97618Y34067D01*
X97678Y34031D01*
X97717Y34052D01*
X97799Y34122D01*
X97859Y34203D01*
X97894Y34295D01*
X97906Y34398D01*
X97908Y33937D01*
X98008Y33910D01*
X98185Y33881D01*
X98386Y33864D01*
X98610Y33858D01*
Y32677D01*
X98386Y32671D01*
X98185Y32654D01*
X98008Y32625D01*
X97915Y32601D01*
X97918Y32087D01*
X97905Y32199D01*
X97869Y32299D01*
X97809Y32388D01*
X97725Y32465D01*
X97668Y32499D01*
X97618Y32469D01*
X97535Y32394D01*
X97476Y32307D01*
X97441Y32208D01*
X97429Y32099D01*
Y32598D01*
X97332Y32624D01*
X97153Y32654D01*
X96951Y32671D01*
X96725Y32677D01*
Y33858D01*
X96949Y33864D01*
X97150Y33880D01*
X97327Y33907D01*
X97429Y33932D01*
Y34437D01*
X97441Y34327D01*
D02*
G37*
G36*
X137803Y34402D02*
X137862Y34370D01*
X137960Y34343D01*
X138051Y34327D01*
X138139Y34333D01*
X138217Y34358D01*
X138264Y34386D01*
X138280Y34417D01*
Y34298D01*
X139043Y34259D01*
X139752Y34252D01*
Y32283D01*
X139378Y32282D01*
X138280Y32213D01*
Y32079D01*
X138264Y32118D01*
X138217Y32153D01*
X138139Y32183D01*
X138070Y32200D01*
X137960Y32193D01*
X137862Y32165D01*
X137803Y32134D01*
X137783Y32099D01*
Y32241D01*
X137512Y32265D01*
X137010Y32281D01*
X136713Y32283D01*
Y34252D01*
X137010Y34254D01*
X137783Y34308D01*
Y34437D01*
X137803Y34402D01*
D02*
G37*
G36*
X125264Y34317D02*
X125299Y34216D01*
X125359Y34128D01*
X125443Y34051D01*
X125550Y33986D01*
X125681Y33933D01*
X125836Y33892D01*
X126015Y33862D01*
X126218Y33845D01*
X126359Y33841D01*
X126496Y33844D01*
X126697Y33862D01*
X126874Y33891D01*
X127028Y33931D01*
X127158Y33983D01*
X127264Y34047D01*
X127347Y34122D01*
X127406Y34209D01*
X127441Y34307D01*
X127453Y34417D01*
Y32079D01*
X127441Y32189D01*
X127406Y32287D01*
X127347Y32374D01*
X127264Y32449D01*
X127158Y32513D01*
X127028Y32565D01*
X126874Y32605D01*
X126697Y32634D01*
X126496Y32652D01*
X126359Y32655D01*
X126218Y32652D01*
X126015Y32634D01*
X125836Y32604D01*
X125681Y32563D01*
X125550Y32510D01*
X125443Y32445D01*
X125359Y32368D01*
X125299Y32280D01*
X125264Y32179D01*
X125252Y32067D01*
Y34429D01*
X125264Y34317D01*
D02*
G37*
G36*
X84910Y34297D02*
X84946Y34197D01*
X85006Y34108D01*
X85090Y34032D01*
X85197Y33967D01*
X85328Y33913D01*
X85483Y33872D01*
X85662Y33843D01*
X85864Y33825D01*
X85995Y33821D01*
X86122Y33825D01*
X86323Y33842D01*
X86500Y33871D01*
X86654Y33911D01*
X86784Y33964D01*
X86890Y34027D01*
X86973Y34102D01*
X87032Y34189D01*
X87067Y34288D01*
X87079Y34398D01*
Y32059D01*
X87067Y32169D01*
X87032Y32267D01*
X86973Y32354D01*
X86890Y32430D01*
X86784Y32493D01*
X86654Y32545D01*
X86500Y32586D01*
X86323Y32615D01*
X86122Y32632D01*
X85994Y32635D01*
X85866Y32632D01*
X85665Y32615D01*
X85488Y32586D01*
X85334Y32545D01*
X85204Y32493D01*
X85098Y32430D01*
X85016Y32354D01*
X84957Y32267D01*
X84921Y32169D01*
X84909Y32059D01*
X84897Y34409D01*
X84910Y34297D01*
D02*
G37*
G36*
X150874Y34505D02*
X150933Y34460D01*
X151031Y34420D01*
X151169Y34386D01*
X151346Y34357D01*
X151563Y34334D01*
X152449Y34294D01*
X152823Y34291D01*
Y32323D01*
X152449Y32320D01*
X151169Y32228D01*
X151031Y32194D01*
X150933Y32154D01*
X150874Y32109D01*
X150854Y32059D01*
Y34555D01*
X150874Y34505D01*
D02*
G37*
G36*
X110513D02*
X110555Y34460D01*
X110623Y34420D01*
X110719Y34386D01*
X110842Y34357D01*
X110993Y34334D01*
X111171Y34315D01*
X111610Y34294D01*
X111870Y34291D01*
Y32323D01*
X111610Y32320D01*
X110993Y32281D01*
X110842Y32257D01*
X110719Y32228D01*
X110623Y32194D01*
X110555Y32154D01*
X110513Y32109D01*
X110500Y32059D01*
Y34555D01*
X110513Y34505D01*
D02*
G37*
G36*
X133988Y32965D02*
X133969Y32906D01*
X133976Y32831D01*
X134007Y32740D01*
X134063Y32633D01*
X134144Y32511D01*
X134250Y32373D01*
X134537Y32049D01*
X134718Y31864D01*
X133787Y31403D01*
X133616Y31569D01*
X133175Y31941D01*
X133053Y32023D01*
X132942Y32083D01*
X132844Y32122D01*
X132758Y32139D01*
X132684Y32136D01*
X132622Y32111D01*
X134031Y33008D01*
X133988Y32965D01*
D02*
G37*
G36*
X93628Y32963D02*
X93604Y32902D01*
X93607Y32825D01*
X93635Y32732D01*
X93689Y32624D01*
X93768Y32500D01*
X93874Y32359D01*
X94005Y32203D01*
X94344Y31844D01*
X93393Y31403D01*
X93220Y31571D01*
X92909Y31842D01*
X92771Y31945D01*
X92645Y32027D01*
X92530Y32087D01*
X92427Y32125D01*
X92336Y32142D01*
X92256Y32137D01*
X92189Y32111D01*
X93677Y33008D01*
X93628Y32963D01*
D02*
G37*
G36*
X148371Y28721D02*
X148361Y28814D01*
X148331Y28898D01*
X148281Y28971D01*
X148211Y29035D01*
X148121Y29090D01*
X148012Y29134D01*
X147882Y29168D01*
X147733Y29193D01*
X147638Y29201D01*
X147543Y29193D01*
X147393Y29168D01*
X147264Y29134D01*
X147154Y29090D01*
X147064Y29035D01*
X146995Y28971D01*
X146945Y28898D01*
X146915Y28814D01*
X146905Y28721D01*
Y30689D01*
X146915Y30595D01*
X146945Y30512D01*
X146995Y30438D01*
X147064Y30374D01*
X147154Y30320D01*
X147264Y30276D01*
X147393Y30241D01*
X147543Y30217D01*
X147638Y30208D01*
X147733Y30217D01*
X147882Y30241D01*
X148012Y30276D01*
X148121Y30320D01*
X148211Y30374D01*
X148281Y30438D01*
X148331Y30512D01*
X148361Y30595D01*
X148371Y30689D01*
Y28721D01*
D02*
G37*
G36*
X108016Y28701D02*
X108006Y28794D01*
X107976Y28878D01*
X107926Y28952D01*
X107857Y29016D01*
X107767Y29070D01*
X107658Y29114D01*
X107528Y29149D01*
X107378Y29173D01*
X107283Y29182D01*
X107188Y29173D01*
X107039Y29149D01*
X106909Y29114D01*
X106800Y29070D01*
X106710Y29016D01*
X106641Y28952D01*
X106591Y28878D01*
X106561Y28794D01*
X106551Y28701D01*
Y30669D01*
X106561Y30576D01*
X106591Y30492D01*
X106641Y30418D01*
X106710Y30354D01*
X106800Y30300D01*
X106909Y30256D01*
X107039Y30222D01*
X107188Y30197D01*
X107283Y30189D01*
X107378Y30197D01*
X107528Y30222D01*
X107658Y30256D01*
X107767Y30300D01*
X107857Y30354D01*
X107926Y30418D01*
X107976Y30492D01*
X108006Y30576D01*
X108016Y30669D01*
Y28701D01*
D02*
G37*
G36*
X122780Y28642D02*
X122770Y28735D01*
X122740Y28819D01*
X122690Y28893D01*
X122620Y28957D01*
X122531Y29011D01*
X122421Y29055D01*
X122292Y29090D01*
X122142Y29114D01*
X122047Y29122D01*
X121952Y29114D01*
X121803Y29090D01*
X121673Y29055D01*
X121564Y29011D01*
X121474Y28957D01*
X121404Y28893D01*
X121354Y28819D01*
X121325Y28735D01*
X121315Y28642D01*
Y30610D01*
X121325Y30517D01*
X121354Y30433D01*
X121404Y30359D01*
X121474Y30295D01*
X121564Y30241D01*
X121673Y30197D01*
X121803Y30162D01*
X121952Y30138D01*
X122047Y30130D01*
X122142Y30138D01*
X122292Y30162D01*
X122421Y30197D01*
X122531Y30241D01*
X122620Y30295D01*
X122690Y30359D01*
X122740Y30433D01*
X122770Y30517D01*
X122780Y30610D01*
Y28642D01*
D02*
G37*
G36*
X82426Y28622D02*
X82416Y28716D01*
X82386Y28799D01*
X82336Y28873D01*
X82266Y28937D01*
X82177Y28991D01*
X82067Y29035D01*
X81937Y29070D01*
X81788Y29094D01*
X81693Y29103D01*
X81598Y29094D01*
X81448Y29070D01*
X81319Y29035D01*
X81209Y28991D01*
X81120Y28937D01*
X81050Y28873D01*
X81000Y28799D01*
X80970Y28716D01*
X80960Y28622D01*
Y30591D01*
X80970Y30497D01*
X81000Y30413D01*
X81050Y30340D01*
X81120Y30276D01*
X81209Y30222D01*
X81319Y30177D01*
X81448Y30143D01*
X81598Y30118D01*
X81693Y30110D01*
X81788Y30118D01*
X81937Y30143D01*
X82067Y30177D01*
X82177Y30222D01*
X82266Y30276D01*
X82336Y30340D01*
X82386Y30413D01*
X82416Y30497D01*
X82426Y30591D01*
Y28622D01*
D02*
G37*
G36*
X127465Y28642D02*
X127455Y28735D01*
X127425Y28819D01*
X127375Y28893D01*
X127305Y28957D01*
X127216Y29011D01*
X127106Y29055D01*
X126977Y29090D01*
X126827Y29114D01*
X126658Y29129D01*
X126469Y29134D01*
Y30118D01*
X126658Y30123D01*
X126827Y30138D01*
X126977Y30162D01*
X127106Y30197D01*
X127216Y30241D01*
X127305Y30295D01*
X127375Y30359D01*
X127425Y30433D01*
X127455Y30517D01*
X127465Y30610D01*
Y28642D01*
D02*
G37*
G36*
X125262Y30517D02*
X125291Y30433D01*
X125341Y30359D01*
X125411Y30295D01*
X125501Y30241D01*
X125610Y30197D01*
X125740Y30162D01*
X125889Y30138D01*
X126058Y30123D01*
X126248Y30118D01*
Y29134D01*
X126058Y29129D01*
X125889Y29114D01*
X125740Y29090D01*
X125610Y29055D01*
X125501Y29011D01*
X125411Y28957D01*
X125341Y28893D01*
X125291Y28819D01*
X125262Y28735D01*
X125252Y28642D01*
Y30610D01*
X125262Y30517D01*
D02*
G37*
G36*
X87091Y28622D02*
X87081Y28716D01*
X87051Y28799D01*
X87001Y28873D01*
X86932Y28937D01*
X86842Y28991D01*
X86732Y29035D01*
X86603Y29070D01*
X86453Y29094D01*
X86284Y29109D01*
X86095Y29114D01*
Y30098D01*
X86284Y30103D01*
X86453Y30118D01*
X86603Y30143D01*
X86732Y30177D01*
X86842Y30222D01*
X86932Y30276D01*
X87001Y30340D01*
X87051Y30413D01*
X87081Y30497D01*
X87091Y30591D01*
Y28622D01*
D02*
G37*
G36*
X84907Y30497D02*
X84937Y30413D01*
X84987Y30340D01*
X85057Y30276D01*
X85146Y30222D01*
X85256Y30177D01*
X85385Y30143D01*
X85535Y30118D01*
X85704Y30103D01*
X85893Y30098D01*
Y29114D01*
X85704Y29109D01*
X85535Y29094D01*
X85385Y29070D01*
X85256Y29035D01*
X85146Y28991D01*
X85057Y28937D01*
X84987Y28873D01*
X84937Y28799D01*
X84907Y28716D01*
X84897Y28622D01*
Y30591D01*
X84907Y30497D01*
D02*
G37*
G36*
X150874Y30883D02*
X150933Y30838D01*
X151031Y30799D01*
X151169Y30764D01*
X151346Y30735D01*
X151563Y30711D01*
X152449Y30672D01*
X152823Y30669D01*
Y28701D01*
X152449Y28698D01*
X151169Y28606D01*
X151031Y28572D01*
X150933Y28532D01*
X150874Y28487D01*
X150854Y28437D01*
Y30933D01*
X150874Y30883D01*
D02*
G37*
G36*
X146580Y28427D02*
X146496Y28398D01*
X146422Y28349D01*
X146358Y28280D01*
X146304Y28191D01*
X146260Y28083D01*
X146225Y27955D01*
X146201Y27807D01*
X146186Y27640D01*
X146181Y27453D01*
X145197D01*
X145192Y27640D01*
X145177Y27807D01*
X145152Y27955D01*
X145118Y28083D01*
X145074Y28191D01*
X145020Y28280D01*
X144956Y28349D01*
X144882Y28398D01*
X144798Y28427D01*
X144705Y28437D01*
X146673D01*
X146580Y28427D01*
D02*
G37*
G36*
X124926D02*
X124843Y28398D01*
X124769Y28349D01*
X124705Y28280D01*
X124651Y28191D01*
X124606Y28083D01*
X124572Y27955D01*
X124547Y27807D01*
X124532Y27640D01*
X124528Y27453D01*
X123543D01*
X123538Y27640D01*
X123524Y27807D01*
X123499Y27955D01*
X123465Y28083D01*
X123420Y28191D01*
X123366Y28280D01*
X123302Y28349D01*
X123228Y28398D01*
X123145Y28427D01*
X123051Y28437D01*
X125020D01*
X124926Y28427D01*
D02*
G37*
G36*
X106206D02*
X106122Y28398D01*
X106048Y28349D01*
X105984Y28280D01*
X105930Y28191D01*
X105886Y28083D01*
X105851Y27955D01*
X105827Y27807D01*
X105812Y27640D01*
X105807Y27453D01*
X104823D01*
X104818Y27640D01*
X104803Y27807D01*
X104779Y27955D01*
X104744Y28083D01*
X104700Y28191D01*
X104646Y28280D01*
X104582Y28349D01*
X104508Y28398D01*
X104424Y28427D01*
X104331Y28437D01*
X106299D01*
X106206Y28427D01*
D02*
G37*
G36*
X84552D02*
X84469Y28398D01*
X84395Y28349D01*
X84331Y28280D01*
X84277Y28191D01*
X84232Y28083D01*
X84198Y27955D01*
X84173Y27807D01*
X84158Y27640D01*
X84153Y27453D01*
X83169D01*
X83164Y27640D01*
X83150Y27807D01*
X83125Y27955D01*
X83091Y28083D01*
X83046Y28191D01*
X82992Y28280D01*
X82928Y28349D01*
X82854Y28398D01*
X82771Y28427D01*
X82677Y28437D01*
X84646D01*
X84552Y28427D01*
D02*
G37*
G36*
X146184Y27273D02*
X146195Y27160D01*
X146211Y27051D01*
X146235Y26949D01*
X146265Y26852D01*
X146302Y26761D01*
X146345Y26676D01*
X146395Y26596D01*
X146452Y26522D01*
X146516Y26454D01*
X144862D01*
X144926Y26522D01*
X144983Y26596D01*
X145033Y26676D01*
X145076Y26761D01*
X145113Y26852D01*
X145143Y26949D01*
X145167Y27051D01*
X145184Y27160D01*
X145194Y27273D01*
X145197Y27393D01*
X146181D01*
X146184Y27273D01*
D02*
G37*
G36*
X124531D02*
X124541Y27160D01*
X124558Y27051D01*
X124581Y26949D01*
X124611Y26852D01*
X124648Y26761D01*
X124691Y26676D01*
X124742Y26596D01*
X124799Y26522D01*
X124862Y26454D01*
X123209D01*
X123272Y26522D01*
X123329Y26596D01*
X123379Y26676D01*
X123423Y26761D01*
X123460Y26852D01*
X123490Y26949D01*
X123513Y27051D01*
X123530Y27160D01*
X123540Y27273D01*
X123543Y27393D01*
X124528D01*
X124531Y27273D01*
D02*
G37*
G36*
X105810Y27254D02*
X105821Y27140D01*
X105837Y27032D01*
X105861Y26930D01*
X105891Y26833D01*
X105928Y26742D01*
X105971Y26656D01*
X106021Y26577D01*
X106078Y26502D01*
X106142Y26434D01*
X104488D01*
X104552Y26502D01*
X104609Y26577D01*
X104659Y26656D01*
X104702Y26742D01*
X104739Y26833D01*
X104769Y26930D01*
X104793Y27032D01*
X104809Y27140D01*
X104820Y27254D01*
X104823Y27373D01*
X105807D01*
X105810Y27254D01*
D02*
G37*
G36*
X84157D02*
X84167Y27140D01*
X84184Y27032D01*
X84207Y26930D01*
X84237Y26833D01*
X84274Y26742D01*
X84317Y26656D01*
X84368Y26577D01*
X84425Y26502D01*
X84488Y26434D01*
X82835D01*
X82898Y26502D01*
X82955Y26577D01*
X83005Y26656D01*
X83049Y26742D01*
X83086Y26833D01*
X83116Y26930D01*
X83139Y27032D01*
X83156Y27140D01*
X83166Y27254D01*
X83169Y27373D01*
X84153D01*
X84157Y27254D01*
D02*
G37*
G36*
X28716Y26647D02*
X28659Y26573D01*
X28609Y26493D01*
X28565Y26408D01*
X28529Y26317D01*
X28498Y26220D01*
X28475Y26118D01*
X28458Y26010D01*
X28448Y25896D01*
X28445Y25777D01*
X27461D01*
X27457Y25896D01*
X27447Y26010D01*
X27430Y26118D01*
X27407Y26220D01*
X27377Y26317D01*
X27340Y26408D01*
X27297Y26493D01*
X27246Y26573D01*
X27190Y26647D01*
X27126Y26716D01*
X28780D01*
X28716Y26647D01*
D02*
G37*
G36*
X131376Y26698D02*
X131405Y26614D01*
X131455Y26540D01*
X131523Y26476D01*
X131612Y26422D01*
X131720Y26378D01*
X131848Y26344D01*
X131996Y26319D01*
X132163Y26304D01*
X132350Y26299D01*
Y25315D01*
X132163Y25310D01*
X131996Y25295D01*
X131848Y25271D01*
X131720Y25236D01*
X131612Y25192D01*
X131523Y25138D01*
X131455Y25074D01*
X131405Y25000D01*
X131376Y24916D01*
X131366Y24823D01*
Y26791D01*
X131376Y26698D01*
D02*
G37*
G36*
X91002Y26678D02*
X91031Y26594D01*
X91080Y26521D01*
X91149Y26457D01*
X91238Y26403D01*
X91346Y26358D01*
X91474Y26324D01*
X91622Y26299D01*
X91789Y26285D01*
X91976Y26280D01*
Y25295D01*
X91789Y25290D01*
X91622Y25276D01*
X91474Y25251D01*
X91346Y25217D01*
X91238Y25172D01*
X91149Y25118D01*
X91080Y25054D01*
X91031Y24980D01*
X91002Y24897D01*
X90992Y24803D01*
Y26772D01*
X91002Y26678D01*
D02*
G37*
G36*
X32723Y25488D02*
X32797Y25431D01*
X32877Y25381D01*
X32962Y25337D01*
X33053Y25300D01*
X33150Y25270D01*
X33252Y25247D01*
X33360Y25230D01*
X33474Y25220D01*
X33593Y25216D01*
Y24232D01*
X33474Y24229D01*
X33360Y24219D01*
X33252Y24202D01*
X33150Y24179D01*
X33053Y24149D01*
X32962Y24112D01*
X32877Y24068D01*
X32797Y24018D01*
X32723Y23961D01*
X32655Y23898D01*
Y25551D01*
X32723Y25488D01*
D02*
G37*
G36*
X162562Y25480D02*
X162654Y24201D01*
X162688Y24063D01*
X162728Y23964D01*
X162773Y23905D01*
X162823Y23886D01*
X160327D01*
X160377Y23905D01*
X160422Y23964D01*
X160461Y24063D01*
X160496Y24201D01*
X160525Y24378D01*
X160548Y24594D01*
X160588Y25480D01*
X160591Y25854D01*
X162559D01*
X162562Y25480D01*
D02*
G37*
G36*
X35142Y23740D02*
X35132Y23834D01*
X35102Y23917D01*
X35052Y23991D01*
X34983Y24055D01*
X34893Y24109D01*
X34784Y24153D01*
X34654Y24188D01*
X34505Y24213D01*
X34335Y24227D01*
X34146Y24232D01*
Y25216D01*
X34335Y25221D01*
X34505Y25236D01*
X34654Y25261D01*
X34784Y25295D01*
X34893Y25340D01*
X34983Y25394D01*
X35052Y25458D01*
X35102Y25532D01*
X35132Y25615D01*
X35142Y25709D01*
Y23740D01*
D02*
G37*
G36*
X114510Y22527D02*
X114602Y21248D01*
X114637Y21110D01*
X114676Y21012D01*
X114721Y20952D01*
X114771Y20933D01*
X112275D01*
X112325Y20952D01*
X112370Y21012D01*
X112410Y21110D01*
X112444Y21248D01*
X112473Y21425D01*
X112497Y21641D01*
X112536Y22527D01*
X112539Y22901D01*
X114507D01*
X114510Y22527D01*
D02*
G37*
G36*
X166184Y21543D02*
X166195Y21390D01*
X166445D01*
X166395Y21370D01*
X166350Y21311D01*
X166310Y21213D01*
X166276Y21075D01*
X166247Y20898D01*
X166237Y20806D01*
X166276Y20264D01*
X166310Y20126D01*
X166350Y20027D01*
X166395Y19968D01*
X166445Y19949D01*
X166191D01*
X166184Y19795D01*
X166181Y19421D01*
X164213D01*
X164210Y19795D01*
X164199Y19949D01*
X163949D01*
X163999Y19968D01*
X164044Y20027D01*
X164083Y20126D01*
X164118Y20264D01*
X164147Y20441D01*
X164157Y20533D01*
X164118Y21075D01*
X164083Y21213D01*
X164044Y21311D01*
X163999Y21370D01*
X163949Y21390D01*
X164203D01*
X164210Y21543D01*
X164213Y21917D01*
X166181D01*
X166184Y21543D01*
D02*
G37*
G36*
X162562D02*
X162573Y21390D01*
X162823D01*
X162773Y21370D01*
X162728Y21311D01*
X162688Y21213D01*
X162654Y21075D01*
X162625Y20898D01*
X162615Y20806D01*
X162654Y20264D01*
X162688Y20126D01*
X162728Y20027D01*
X162773Y19968D01*
X162823Y19949D01*
X162568D01*
X162562Y19795D01*
X162559Y19421D01*
X160591D01*
X160588Y19795D01*
X160577Y19949D01*
X160327D01*
X160377Y19968D01*
X160422Y20027D01*
X160461Y20126D01*
X160496Y20264D01*
X160525Y20441D01*
X160535Y20533D01*
X160496Y21075D01*
X160461Y21213D01*
X160422Y21311D01*
X160377Y21370D01*
X160327Y21390D01*
X160581D01*
X160588Y21543D01*
X160591Y21917D01*
X162559D01*
X162562Y21543D01*
D02*
G37*
G36*
X102651Y20387D02*
X102727Y20333D01*
X102809Y20285D01*
X102896Y20243D01*
X102988Y20208D01*
X103086Y20179D01*
X103189Y20157D01*
X103297Y20141D01*
X103411Y20131D01*
X103530Y20128D01*
X103575Y19144D01*
X103456Y19140D01*
X103342Y19130D01*
X103235Y19112D01*
X103133Y19088D01*
X103037Y19057D01*
X102948Y19018D01*
X102864Y18973D01*
X102786Y18921D01*
X102715Y18862D01*
X102649Y18796D01*
X102580Y20448D01*
X102651Y20387D01*
D02*
G37*
G36*
X108653Y18652D02*
X108643Y18745D01*
X108614Y18829D01*
X108565Y18902D01*
X108496Y18967D01*
X108407Y19021D01*
X108299Y19065D01*
X108171Y19099D01*
X108023Y19124D01*
X107856Y19139D01*
X107669Y19144D01*
Y20128D01*
X107856Y20133D01*
X108023Y20148D01*
X108171Y20172D01*
X108299Y20207D01*
X108407Y20251D01*
X108496Y20305D01*
X108565Y20369D01*
X108614Y20443D01*
X108643Y20527D01*
X108653Y20620D01*
Y18652D01*
D02*
G37*
G36*
X166464Y19899D02*
X166523Y19854D01*
X166622Y19814D01*
X166760Y19780D01*
X166937Y19751D01*
X167153Y19727D01*
X168039Y19688D01*
X168413Y19685D01*
Y17717D01*
X168039Y17714D01*
X166760Y17622D01*
X166622Y17587D01*
X166523Y17548D01*
X166464Y17503D01*
X166445Y17453D01*
Y19949D01*
X166464Y19899D01*
D02*
G37*
G36*
X102535Y18675D02*
X102478Y18601D01*
X102428Y18521D01*
X102384Y18436D01*
X102348Y18344D01*
X102317Y18248D01*
X102294Y18145D01*
X102277Y18037D01*
X102272Y17974D01*
X102284Y17838D01*
X102308Y17689D01*
X102342Y17559D01*
X102387Y17449D01*
X102441Y17360D01*
X102505Y17290D01*
X102579Y17240D01*
X102662Y17210D01*
X102756Y17200D01*
X100787D01*
X100881Y17210D01*
X100965Y17240D01*
X101038Y17290D01*
X101102Y17360D01*
X101156Y17449D01*
X101201Y17559D01*
X101235Y17689D01*
X101260Y17838D01*
X101272Y17974D01*
X101266Y18037D01*
X101249Y18145D01*
X101226Y18248D01*
X101196Y18344D01*
X101159Y18436D01*
X101116Y18521D01*
X101065Y18601D01*
X101008Y18675D01*
X100945Y18743D01*
X102598D01*
X102535Y18675D01*
D02*
G37*
G36*
X114784Y20883D02*
X114822Y20838D01*
X114885Y20798D01*
X114975Y20764D01*
X115089Y20735D01*
X115229Y20711D01*
X115394Y20693D01*
X115802Y20672D01*
X116043Y20669D01*
X118504Y18701D01*
X118130Y18691D01*
X117795Y18661D01*
X117500Y18612D01*
X117244Y18543D01*
X117027Y18455D01*
X116850Y18346D01*
X116713Y18218D01*
X116614Y18071D01*
X116561Y17920D01*
X116537Y17231D01*
X116535Y16864D01*
X115551D01*
X115549Y17231D01*
X115498Y17997D01*
X115472Y18071D01*
X115374Y18218D01*
X115236Y18346D01*
X115059Y18455D01*
X114842Y18543D01*
X114841Y18544D01*
X114822Y18532D01*
X114784Y18487D01*
X114771Y18437D01*
Y18563D01*
X114587Y18612D01*
X114291Y18661D01*
X113957Y18691D01*
X113583Y18701D01*
X114771Y19651D01*
Y20933D01*
X114784Y20883D01*
D02*
G37*
G36*
X96961Y15059D02*
X96951Y15153D01*
X96921Y15236D01*
X96872Y15310D01*
X96803Y15374D01*
X96715Y15428D01*
X96606Y15472D01*
X96478Y15507D01*
X96331Y15531D01*
X96164Y15546D01*
X96062Y15549D01*
X95960Y15546D01*
X95791Y15531D01*
X95641Y15507D01*
X95512Y15472D01*
X95402Y15428D01*
X95313Y15374D01*
X95243Y15310D01*
X95193Y15236D01*
X95163Y15153D01*
X95153Y15059D01*
Y17028D01*
X95163Y16934D01*
X95193Y16850D01*
X95243Y16777D01*
X95313Y16713D01*
X95402Y16658D01*
X95512Y16614D01*
X95641Y16580D01*
X95791Y16555D01*
X95960Y16540D01*
X96062Y16538D01*
X96164Y16540D01*
X96331Y16555D01*
X96478Y16580D01*
X96606Y16614D01*
X96715Y16658D01*
X96803Y16713D01*
X96872Y16777D01*
X96921Y16850D01*
X96951Y16934D01*
X96961Y17028D01*
Y15059D01*
D02*
G37*
G36*
X116540Y16433D02*
X116555Y16263D01*
X116580Y16114D01*
X116614Y15984D01*
X116658Y15875D01*
X116713Y15785D01*
X116777Y15715D01*
X116850Y15665D01*
X116934Y15636D01*
X117028Y15626D01*
X115059D01*
X115153Y15636D01*
X115236Y15665D01*
X115310Y15715D01*
X115374Y15785D01*
X115428Y15875D01*
X115472Y15984D01*
X115507Y16114D01*
X115532Y16263D01*
X115546Y16433D01*
X115551Y16622D01*
X116535D01*
X116540Y16433D01*
D02*
G37*
G36*
X83671Y16794D02*
X83748Y16740D01*
X83829Y16692D01*
X83916Y16650D01*
X84009Y16615D01*
X84106Y16587D01*
X84209Y16564D01*
X84318Y16548D01*
X84432Y16539D01*
X84551Y16535D01*
X84598Y15551D01*
X84478Y15548D01*
X84364Y15537D01*
X84257Y15520D01*
X84155Y15495D01*
X84060Y15464D01*
X83970Y15426D01*
X83887Y15380D01*
X83809Y15328D01*
X83737Y15269D01*
X83672Y15203D01*
X83600Y16855D01*
X83671Y16794D01*
D02*
G37*
G36*
X92839Y15059D02*
X92829Y15153D01*
X92799Y15236D01*
X92749Y15310D01*
X92680Y15374D01*
X92590Y15428D01*
X92480Y15472D01*
X92351Y15507D01*
X92201Y15531D01*
X92032Y15546D01*
X91843Y15551D01*
Y16535D01*
X92032Y16540D01*
X92201Y16555D01*
X92351Y16580D01*
X92480Y16614D01*
X92590Y16658D01*
X92680Y16713D01*
X92749Y16777D01*
X92799Y16850D01*
X92829Y16934D01*
X92839Y17028D01*
Y15059D01*
D02*
G37*
G36*
X115774Y14099D02*
X115699Y14153D01*
X115609Y14180D01*
X115505Y14179D01*
X115387Y14150D01*
X115255Y14093D01*
X115109Y14008D01*
X114948Y13895D01*
X114774Y13755D01*
X114382Y13391D01*
X113686Y14087D01*
X113882Y14290D01*
X114191Y14653D01*
X114303Y14814D01*
X114388Y14960D01*
X114445Y15092D01*
X114474Y15210D01*
X114475Y15314D01*
X114449Y15403D01*
X114394Y15479D01*
X115774Y14099D01*
D02*
G37*
G36*
X105721Y11528D02*
X105711Y11582D01*
X105681Y11630D01*
X105632Y11672D01*
X105563Y11709D01*
X105475Y11740D01*
X105366Y11766D01*
X105238Y11785D01*
X105091Y11800D01*
X104736Y11811D01*
Y12795D01*
X104923Y12798D01*
X105238Y12821D01*
X105366Y12841D01*
X105475Y12866D01*
X105563Y12897D01*
X105632Y12934D01*
X105681Y12977D01*
X105711Y13025D01*
X105721Y13079D01*
Y11528D01*
D02*
G37*
G36*
X95163Y13194D02*
X95193Y13110D01*
X95243Y13036D01*
X95313Y12972D01*
X95402Y12918D01*
X95512Y12874D01*
X95641Y12840D01*
X95791Y12815D01*
X95960Y12800D01*
X96149Y12795D01*
Y11811D01*
X95960Y11806D01*
X95791Y11791D01*
X95641Y11767D01*
X95512Y11732D01*
X95402Y11688D01*
X95313Y11634D01*
X95243Y11570D01*
X95193Y11496D01*
X95163Y11412D01*
X95153Y11319D01*
Y13287D01*
X95163Y13194D01*
D02*
G37*
G36*
X72051Y11706D02*
X72063Y11613D01*
X72084Y11521D01*
X72113Y11430D01*
X72152Y11340D01*
X72199Y11250D01*
X72255Y11161D01*
X72319Y11073D01*
X72392Y10986D01*
X72474Y10899D01*
X71779Y10203D01*
X71692Y10285D01*
X71604Y10358D01*
X71516Y10423D01*
X71427Y10478D01*
X71337Y10526D01*
X71247Y10564D01*
X71156Y10593D01*
X71064Y10614D01*
X70971Y10627D01*
X70878Y10630D01*
X72047Y11799D01*
X72051Y11706D01*
D02*
G37*
G36*
X183072Y11557D02*
X183171Y9941D01*
X183198Y9850D01*
X183228Y9795D01*
X180945D01*
X180975Y9850D01*
X181002Y9941D01*
X181025Y10067D01*
X181046Y10228D01*
X181077Y10654D01*
X181102Y11927D01*
X183071D01*
X183072Y11557D01*
D02*
G37*
G36*
X174997Y10605D02*
X175096Y10522D01*
X175195Y10452D01*
X175292Y10393D01*
X175388Y10347D01*
X175484Y10313D01*
X175578Y10291D01*
X175671Y10281D01*
X175763Y10284D01*
X175855Y10298D01*
X174741Y9185D01*
X174756Y9276D01*
X174758Y9368D01*
X174748Y9461D01*
X174726Y9556D01*
X174692Y9651D01*
X174646Y9747D01*
X174588Y9845D01*
X174517Y9943D01*
X174435Y10042D01*
X174340Y10143D01*
X174897Y10700D01*
X174997Y10605D01*
D02*
G37*
G36*
X169091D02*
X169191Y10522D01*
X169289Y10452D01*
X169386Y10393D01*
X169483Y10347D01*
X169578Y10313D01*
X169672Y10291D01*
X169766Y10281D01*
X169858Y10284D01*
X169949Y10298D01*
X168836Y9185D01*
X168850Y9276D01*
X168853Y9368D01*
X168843Y9461D01*
X168821Y9556D01*
X168787Y9651D01*
X168741Y9747D01*
X168682Y9845D01*
X168612Y9943D01*
X168529Y10042D01*
X168434Y10143D01*
X168991Y10700D01*
X169091Y10605D01*
D02*
G37*
G36*
X96961Y7579D02*
X96951Y7672D01*
X96921Y7756D01*
X96872Y7830D01*
X96803Y7894D01*
X96715Y7948D01*
X96606Y7992D01*
X96478Y8027D01*
X96331Y8051D01*
X96164Y8066D01*
X96062Y8069D01*
X95960Y8066D01*
X95791Y8051D01*
X95641Y8027D01*
X95512Y7992D01*
X95402Y7948D01*
X95313Y7894D01*
X95243Y7830D01*
X95193Y7756D01*
X95163Y7672D01*
X95153Y7579D01*
Y9547D01*
X95163Y9454D01*
X95193Y9370D01*
X95243Y9296D01*
X95313Y9232D01*
X95402Y9178D01*
X95512Y9134D01*
X95641Y9099D01*
X95791Y9075D01*
X95960Y9060D01*
X96062Y9057D01*
X96164Y9060D01*
X96331Y9075D01*
X96478Y9099D01*
X96606Y9134D01*
X96715Y9178D01*
X96803Y9232D01*
X96872Y9296D01*
X96921Y9370D01*
X96951Y9454D01*
X96961Y9547D01*
Y7579D01*
D02*
G37*
G36*
X105784Y9729D02*
X105807Y9751D01*
X106503Y9055D01*
X106481Y9032D01*
X106532Y8981D01*
X106515Y8983D01*
X106483Y8969D01*
X106437Y8939D01*
X106377Y8892D01*
X106300Y8825D01*
X106253Y8765D01*
X106148Y8612D01*
X106058Y8452D01*
X105981Y8287D01*
X105918Y8116D01*
X105870Y7940D01*
X105835Y7757D01*
X105814Y7569D01*
X105807Y7375D01*
X105195Y7196D01*
X105807D01*
X105810Y7076D01*
X105821Y6963D01*
X105837Y6855D01*
X105861Y6752D01*
X105891Y6656D01*
X105928Y6565D01*
X105971Y6479D01*
X106021Y6399D01*
X106078Y6325D01*
X106142Y6257D01*
X104488D01*
X104552Y6325D01*
X104609Y6399D01*
X104659Y6479D01*
X104702Y6565D01*
X104739Y6656D01*
X104769Y6752D01*
X104793Y6855D01*
X104809Y6963D01*
X104820Y7076D01*
X104821Y7124D01*
X104813Y7274D01*
X104783Y7441D01*
X104734Y7589D01*
X104665Y7717D01*
X104577Y7825D01*
X104469Y7913D01*
X104341Y7982D01*
X104193Y8032D01*
X104026Y8061D01*
X103839Y8071D01*
X104127Y9055D01*
X104321Y9062D01*
X104509Y9083D01*
X104692Y9118D01*
X104868Y9166D01*
X105039Y9229D01*
X105204Y9306D01*
X105364Y9396D01*
X105490Y9482D01*
X105735Y9763D01*
X105733Y9780D01*
X105784Y9729D01*
D02*
G37*
G36*
X117712Y10447D02*
X117736Y10382D01*
X117775Y10325D01*
X117831Y10275D01*
X117901Y10233D01*
X117988Y10199D01*
X118090Y10172D01*
X118209Y10153D01*
X118342Y10142D01*
X118492Y10138D01*
Y9350D01*
X118342Y9347D01*
X118209Y9335D01*
X118090Y9316D01*
X117988Y9289D01*
X117901Y9255D01*
X117831Y9213D01*
X117775Y9163D01*
X117736Y9106D01*
X117712Y9041D01*
X117704Y8969D01*
Y10520D01*
X117712Y10447D01*
D02*
G37*
G36*
X72970Y10410D02*
X73100Y10301D01*
X73224Y10212D01*
X73339Y10145D01*
X73448Y10099D01*
X73550Y10074D01*
X73644Y10070D01*
X73732Y10087D01*
X73812Y10125D01*
X73885Y10184D01*
X72493Y8792D01*
X72552Y8865D01*
X72591Y8945D01*
X72607Y9033D01*
X72603Y9127D01*
X72578Y9229D01*
X72532Y9338D01*
X72465Y9454D01*
X72377Y9577D01*
X72267Y9707D01*
X72137Y9844D01*
X72833Y10540D01*
X72970Y10410D01*
D02*
G37*
G36*
X85359Y9447D02*
X85396Y9365D01*
X85465Y9292D01*
X85566Y9229D01*
X85698Y9176D01*
X85863Y9132D01*
X86059Y9099D01*
X86287Y9075D01*
X86838Y9055D01*
X86625Y8071D01*
X86352Y8066D01*
X85890Y8027D01*
X85700Y7993D01*
X85538Y7950D01*
X85403Y7897D01*
X85296Y7834D01*
X85217Y7761D01*
X85165Y7679D01*
X85140Y7587D01*
X85353Y9539D01*
X85359Y9447D01*
D02*
G37*
G36*
X102840Y9454D02*
X102870Y9370D01*
X102920Y9296D01*
X102990Y9232D01*
X103079Y9178D01*
X103189Y9134D01*
X103319Y9099D01*
X103468Y9075D01*
X103637Y9060D01*
X103827Y9055D01*
Y8071D01*
X103637Y8066D01*
X103468Y8051D01*
X103319Y8027D01*
X103189Y7992D01*
X103079Y7948D01*
X102990Y7894D01*
X102920Y7830D01*
X102870Y7756D01*
X102840Y7672D01*
X102830Y7579D01*
Y9547D01*
X102840Y9454D01*
D02*
G37*
G36*
X92839Y7579D02*
X92829Y7672D01*
X92799Y7756D01*
X92749Y7830D01*
X92680Y7894D01*
X92590Y7948D01*
X92480Y7992D01*
X92351Y8027D01*
X92201Y8051D01*
X92032Y8066D01*
X91843Y8071D01*
Y9055D01*
X92032Y9060D01*
X92201Y9075D01*
X92351Y9099D01*
X92480Y9134D01*
X92590Y9178D01*
X92680Y9232D01*
X92749Y9296D01*
X92799Y9370D01*
X92829Y9454D01*
X92839Y9547D01*
Y7579D01*
D02*
G37*
G36*
X14444Y7769D02*
X14387Y7695D01*
X14337Y7615D01*
X14294Y7530D01*
X14257Y7439D01*
X14227Y7342D01*
X14203Y7240D01*
X14187Y7132D01*
X14177Y7018D01*
X14173Y6899D01*
X13189D01*
X13186Y7018D01*
X13176Y7132D01*
X13159Y7240D01*
X13135Y7342D01*
X13105Y7439D01*
X13069Y7530D01*
X13025Y7615D01*
X12975Y7695D01*
X12918Y7769D01*
X12854Y7838D01*
X14508D01*
X14444Y7769D01*
D02*
G37*
G36*
X164436Y7383D02*
X164321Y7373D01*
X164197Y7352D01*
X164064Y7320D01*
X163922Y7277D01*
X163609Y7159D01*
X163439Y7084D01*
X162874Y6792D01*
X162011Y7678D01*
X162153Y7752D01*
X162283Y7841D01*
X162402Y7945D01*
X162509Y8063D01*
X162605Y8196D01*
X162689Y8343D01*
X162762Y8505D01*
X162823Y8681D01*
X162872Y8873D01*
X162910Y9078D01*
X164436Y7383D01*
D02*
G37*
G36*
X208095Y3740D02*
X208085Y3834D01*
X208055Y3917D01*
X208005Y3991D01*
X207936Y4055D01*
X207846Y4109D01*
X207736Y4154D01*
X207607Y4188D01*
X207457Y4213D01*
X207288Y4227D01*
X207099Y4232D01*
Y5217D01*
X207288Y5221D01*
X207457Y5236D01*
X207607Y5261D01*
X207736Y5295D01*
X207846Y5340D01*
X207936Y5394D01*
X208005Y5458D01*
X208055Y5531D01*
X208085Y5615D01*
X208095Y5709D01*
Y3740D01*
D02*
G37*
G36*
X205313Y5615D02*
X205342Y5531D01*
X205392Y5458D01*
X205460Y5394D01*
X205549Y5340D01*
X205657Y5295D01*
X205785Y5261D01*
X205933Y5236D01*
X206100Y5221D01*
X206287Y5217D01*
Y4232D01*
X206100Y4227D01*
X205933Y4213D01*
X205785Y4188D01*
X205657Y4154D01*
X205549Y4109D01*
X205460Y4055D01*
X205392Y3991D01*
X205342Y3917D01*
X205313Y3834D01*
X205303Y3740D01*
Y5709D01*
X205313Y5615D01*
D02*
G37*
G36*
X14178Y3933D02*
X14193Y3763D01*
X14218Y3614D01*
X14252Y3484D01*
X14296Y3375D01*
X14350Y3285D01*
X14414Y3215D01*
X14488Y3165D01*
X14572Y3136D01*
X14665Y3126D01*
X12697D01*
X12790Y3136D01*
X12874Y3165D01*
X12948Y3215D01*
X13012Y3285D01*
X13066Y3375D01*
X13110Y3484D01*
X13145Y3614D01*
X13169Y3763D01*
X13184Y3933D01*
X13189Y4122D01*
X14173D01*
X14178Y3933D01*
D02*
G37*
G36*
X163072Y4911D02*
X163770Y4588D01*
X163922Y4534D01*
X164197Y4459D01*
X164321Y4438D01*
X164436Y4428D01*
X162910Y2733D01*
X162872Y2939D01*
X162823Y3130D01*
X162762Y3306D01*
X162689Y3468D01*
X162605Y3615D01*
X162509Y3748D01*
X162402Y3866D01*
X162283Y3970D01*
X162153Y4059D01*
X162011Y4133D01*
X162874Y5019D01*
X163072Y4911D01*
D02*
G37*
G36*
X198240Y2768D02*
X198231Y2709D01*
X198201Y2657D01*
X198152Y2611D01*
X198083Y2571D01*
X197994Y2537D01*
X197886Y2510D01*
X197758Y2488D01*
X197610Y2473D01*
X197256Y2461D01*
Y3445D01*
X197444Y3450D01*
X197613Y3465D01*
X197762Y3489D01*
X197891Y3524D01*
X198001Y3568D01*
X198091Y3622D01*
X198161Y3686D01*
X198211Y3760D01*
X198241Y3844D01*
X198252Y3937D01*
X198240Y2768D01*
D02*
G37*
G36*
X194653Y2461D02*
X194465Y2456D01*
X194296Y2441D01*
X194148Y2416D01*
X194018Y2382D01*
X193909Y2338D01*
X193819Y2283D01*
X193749Y2220D01*
X193699Y2146D01*
X193668Y2062D01*
X193657Y1969D01*
X193669Y3059D01*
X194653Y3445D01*
Y2461D01*
D02*
G37*
G36*
X191173Y3059D02*
X191185Y1969D01*
X191174Y2062D01*
X191144Y2146D01*
X191094Y2220D01*
X191023Y2283D01*
X190934Y2338D01*
X190824Y2382D01*
X190695Y2416D01*
X190546Y2441D01*
X190377Y2456D01*
X190189Y2461D01*
Y3445D01*
X191173Y3059D01*
D02*
G37*
G36*
X183279Y3844D02*
X183379Y3760D01*
X183487Y3686D01*
X183602Y3622D01*
X183726Y3568D01*
X183858Y3524D01*
X183997Y3489D01*
X184144Y3465D01*
X184300Y3450D01*
X184463Y3445D01*
Y2461D01*
X184300Y2456D01*
X184144Y2441D01*
X183997Y2416D01*
X183858Y2382D01*
X183726Y2338D01*
X183602Y2283D01*
X183487Y2220D01*
X183379Y2146D01*
X183279Y2062D01*
X183187Y1969D01*
Y3937D01*
X183279Y3844D01*
D02*
G37*
G36*
X169949Y1513D02*
X169858Y1527D01*
X169766Y1530D01*
X169672Y1520D01*
X169578Y1498D01*
X169483Y1464D01*
X169386Y1418D01*
X169289Y1359D01*
X169191Y1289D01*
X169091Y1206D01*
X168991Y1111D01*
X168434Y1668D01*
X168529Y1769D01*
X168612Y1868D01*
X168682Y1966D01*
X168741Y2064D01*
X168787Y2160D01*
X168821Y2255D01*
X168843Y2350D01*
X168853Y2443D01*
X168850Y2535D01*
X168836Y2626D01*
X169949Y1513D01*
D02*
G37*
G36*
X30968Y1142D02*
X30899Y1205D01*
X30825Y1262D01*
X30745Y1312D01*
X30660Y1356D01*
X30569Y1393D01*
X30472Y1423D01*
X30370Y1446D01*
X30262Y1463D01*
X30148Y1473D01*
X30029Y1476D01*
Y2461D01*
X30148Y2464D01*
X30262Y2474D01*
X30370Y2491D01*
X30472Y2514D01*
X30569Y2544D01*
X30660Y2581D01*
X30745Y2625D01*
X30825Y2675D01*
X30899Y2732D01*
X30968Y2795D01*
Y1142D01*
D02*
G37*
G36*
X177606Y2535D02*
X177604Y2443D01*
X177614Y2350D01*
X177636Y2255D01*
X177670Y2160D01*
X177716Y2064D01*
X177775Y1966D01*
X177845Y1868D01*
X177928Y1769D01*
X178022Y1668D01*
X177466Y1111D01*
X177365Y1206D01*
X177266Y1289D01*
X177168Y1359D01*
X177070Y1418D01*
X176974Y1464D01*
X176879Y1498D01*
X176784Y1520D01*
X176691Y1530D01*
X176599Y1527D01*
X176507Y1513D01*
X177621Y2626D01*
X177606Y2535D01*
D02*
G37*
G36*
X26167Y2859D02*
X26197Y2776D01*
X26247Y2702D01*
X26316Y2638D01*
X26406Y2584D01*
X26516Y2539D01*
X26645Y2505D01*
X26795Y2480D01*
X26964Y2466D01*
X27153Y2461D01*
Y1476D01*
X26964Y1471D01*
X26795Y1457D01*
X26645Y1432D01*
X26516Y1398D01*
X26406Y1353D01*
X26316Y1299D01*
X26247Y1235D01*
X26197Y1161D01*
X26167Y1078D01*
X26157Y984D01*
Y2953D01*
X26167Y2859D01*
D02*
G37*
G36*
X8870Y984D02*
X8860Y1078D01*
X8831Y1161D01*
X8782Y1235D01*
X8713Y1299D01*
X8624Y1353D01*
X8516Y1398D01*
X8388Y1432D01*
X8240Y1457D01*
X8073Y1471D01*
X7886Y1476D01*
Y2461D01*
X8073Y2466D01*
X8240Y2480D01*
X8388Y2505D01*
X8516Y2539D01*
X8624Y2584D01*
X8713Y2638D01*
X8782Y2702D01*
X8831Y2776D01*
X8860Y2859D01*
X8870Y2953D01*
Y984D01*
D02*
G37*
G36*
X20288Y799D02*
X20276Y802D01*
X20240Y805D01*
X19709Y813D01*
X19106Y814D01*
Y1995D01*
X19331Y2001D01*
X19532Y2019D01*
X19709Y2048D01*
X19862Y2090D01*
X19992Y2143D01*
X20099Y2208D01*
X20181Y2285D01*
X20240Y2373D01*
X20276Y2474D01*
X20288Y2586D01*
Y799D01*
D02*
G37*
G36*
X112859Y1059D02*
X112874Y889D01*
X112899Y740D01*
X112933Y610D01*
X112977Y501D01*
X113031Y411D01*
X113095Y341D01*
X113169Y292D01*
X113253Y262D01*
X113347Y252D01*
X111378D01*
X111471Y262D01*
X111555Y292D01*
X111629Y341D01*
X111693Y411D01*
X111747Y501D01*
X111791Y610D01*
X111826Y740D01*
X111850Y889D01*
X111865Y1059D01*
X111870Y1248D01*
X112854D01*
X112859Y1059D01*
D02*
G37*
G36*
X18978Y820D02*
X18890Y729D01*
X18742Y554D01*
X18682Y470D01*
X18631Y389D01*
X18589Y311D01*
X18557Y236D01*
X18535Y163D01*
X18521Y93D01*
X18517Y25D01*
X17348Y1194D01*
X17415Y1198D01*
X17486Y1212D01*
X17559Y1235D01*
X17634Y1267D01*
X17712Y1308D01*
X17793Y1359D01*
X17876Y1419D01*
X17963Y1488D01*
X18143Y1655D01*
X18978Y820D01*
D02*
G37*
G36*
X178204Y1493D02*
X178289Y1426D01*
X178378Y1368D01*
X178472Y1317D01*
X178569Y1275D01*
X178671Y1240D01*
X178778Y1213D01*
X178888Y1194D01*
X179003Y1184D01*
X179122Y1181D01*
X177953Y12D01*
X177950Y131D01*
X177939Y246D01*
X177921Y356D01*
X177894Y463D01*
X177859Y565D01*
X177817Y662D01*
X177766Y756D01*
X177708Y845D01*
X177641Y930D01*
X177567Y1010D01*
X178124Y1567D01*
X178204Y1493D01*
D02*
G37*
G36*
X80198Y1213D02*
X80329Y1104D01*
X80452Y1016D01*
X80568Y948D01*
X80676Y902D01*
X80778Y877D01*
X80873Y873D01*
X80960Y890D01*
X81040Y928D01*
X81113Y987D01*
X79722Y-405D01*
X79781Y-332D01*
X79819Y-251D01*
X79836Y-164D01*
X79832Y-69D01*
X79807Y32D01*
X79760Y141D01*
X79693Y257D01*
X79605Y380D01*
X79496Y510D01*
X79365Y648D01*
X80061Y1343D01*
X80198Y1213D01*
D02*
G37*
G36*
X157426Y745D02*
X157515Y671D01*
X157606Y606D01*
X157700Y550D01*
X157797Y502D01*
X157896Y463D01*
X157997Y433D01*
X158102Y411D01*
X158209Y398D01*
X158318Y394D01*
Y-394D01*
X158209Y-398D01*
X158102Y-411D01*
X157997Y-433D01*
X157896Y-463D01*
X157797Y-502D01*
X157700Y-550D01*
X157606Y-606D01*
X157515Y-671D01*
X157426Y-745D01*
X157340Y-827D01*
Y827D01*
X157426Y745D01*
D02*
G37*
G36*
X17324Y-1168D02*
X17257Y-1172D01*
X17187Y-1185D01*
X17114Y-1208D01*
X17039Y-1240D01*
X16960Y-1281D01*
X16879Y-1332D01*
X16796Y-1392D01*
X16710Y-1462D01*
X16529Y-1629D01*
X15933Y-1032D01*
Y-1969D01*
X15709Y-1974D01*
X15508Y-1992D01*
X15330Y-2022D01*
X15177Y-2063D01*
X15047Y-2116D01*
X14941Y-2181D01*
X14858Y-2258D01*
X14799Y-2347D01*
X14764Y-2447D01*
X14752Y-2559D01*
Y-799D01*
X14764Y-797D01*
X14799Y-795D01*
X15698Y-789D01*
X15782Y-702D01*
X15931Y-527D01*
X15991Y-443D01*
X16042Y-362D01*
X16083Y-284D01*
X16115Y-209D01*
X16138Y-136D01*
X16151Y-66D01*
X16155Y2D01*
X17324Y-1168D01*
D02*
G37*
G36*
X119235Y-1811D02*
X119167Y-1747D01*
X119093Y-1691D01*
X119013Y-1640D01*
X118928Y-1597D01*
X118836Y-1560D01*
X118740Y-1530D01*
X118637Y-1506D01*
X118529Y-1490D01*
X118416Y-1480D01*
X118296Y-1476D01*
Y-492D01*
X118416Y-489D01*
X118529Y-479D01*
X118637Y-462D01*
X118740Y-439D01*
X118836Y-408D01*
X118928Y-372D01*
X119013Y-328D01*
X119093Y-278D01*
X119167Y-221D01*
X119235Y-157D01*
Y-1811D01*
D02*
G37*
G36*
X139524Y-930D02*
X139450Y-1018D01*
X139385Y-1110D01*
X139329Y-1204D01*
X139281Y-1300D01*
X139242Y-1400D01*
X139212Y-1501D01*
X139191Y-1606D01*
X139178Y-1713D01*
X139173Y-1822D01*
X138386D01*
X138382Y-1713D01*
X138368Y-1606D01*
X138347Y-1501D01*
X138317Y-1400D01*
X138278Y-1300D01*
X138230Y-1204D01*
X138174Y-1110D01*
X138109Y-1018D01*
X138035Y-930D01*
X137953Y-843D01*
X139606D01*
X139524Y-930D01*
D02*
G37*
G36*
X117242Y-93D02*
X117271Y-177D01*
X117321Y-251D01*
X117390Y-315D01*
X117478Y-369D01*
X117586Y-413D01*
X117714Y-448D01*
X117862Y-472D01*
X118029Y-487D01*
X118216Y-492D01*
Y-1476D01*
X118029Y-1481D01*
X117862Y-1496D01*
X117714Y-1521D01*
X117586Y-1555D01*
X117478Y-1599D01*
X117390Y-1654D01*
X117321Y-1718D01*
X117271Y-1791D01*
X117242Y-1875D01*
X117232Y-1968D01*
Y0D01*
X117242Y-93D01*
D02*
G37*
G36*
X8882Y-2953D02*
X8872Y-2859D01*
X8842Y-2776D01*
X8793Y-2702D01*
X8723Y-2638D01*
X8633Y-2584D01*
X8524Y-2539D01*
X8394Y-2505D01*
X8245Y-2480D01*
X8075Y-2466D01*
X7886Y-2461D01*
Y-1476D01*
X8075Y-1471D01*
X8245Y-1457D01*
X8394Y-1432D01*
X8524Y-1398D01*
X8633Y-1353D01*
X8723Y-1299D01*
X8793Y-1235D01*
X8842Y-1161D01*
X8872Y-1078D01*
X8882Y-984D01*
Y-2953D01*
D02*
G37*
G36*
X174413Y-79D02*
X174427Y-149D01*
X174450Y-222D01*
X174481Y-298D01*
X174523Y-376D01*
X174574Y-457D01*
X174634Y-540D01*
X174703Y-626D01*
X174841Y-776D01*
X174933Y-861D01*
X175066Y-969D01*
X175206Y-1067D01*
X175353Y-1156D01*
X175507Y-1236D01*
X175669Y-1306D01*
X175838Y-1366D01*
X176014Y-1417D01*
X176197Y-1459D01*
X176387Y-1491D01*
X174719Y-3158D01*
X174687Y-2968D01*
X174646Y-2785D01*
X174595Y-2609D01*
X174534Y-2441D01*
X174464Y-2279D01*
X174385Y-2125D01*
X174296Y-1977D01*
X174197Y-1837D01*
X174089Y-1704D01*
X173993Y-1601D01*
X173944Y-1554D01*
X173769Y-1405D01*
X173760Y-1399D01*
X173751Y-1441D01*
X173734Y-1549D01*
X173724Y-1663D01*
X173721Y-1782D01*
X172736D01*
X172733Y-1663D01*
X172723Y-1549D01*
X172706Y-1441D01*
X172683Y-1339D01*
X172653Y-1242D01*
X172616Y-1151D01*
X172572Y-1066D01*
X172522Y-986D01*
X172465Y-912D01*
X172402Y-843D01*
X173578D01*
X174409Y-12D01*
X174413Y-79D01*
D02*
G37*
G36*
X113253Y-2230D02*
X113169Y-2260D01*
X113095Y-2310D01*
X113031Y-2379D01*
X112977Y-2469D01*
X112933Y-2579D01*
X112899Y-2708D01*
X112874Y-2858D01*
X112859Y-3027D01*
X112854Y-3216D01*
X111870D01*
X111865Y-3027D01*
X111850Y-2858D01*
X111826Y-2708D01*
X111791Y-2579D01*
X111747Y-2469D01*
X111693Y-2379D01*
X111629Y-2310D01*
X111555Y-2260D01*
X111471Y-2230D01*
X111378Y-2220D01*
X113347D01*
X113253Y-2230D01*
D02*
G37*
G36*
X193668Y-2062D02*
X193699Y-2146D01*
X193749Y-2220D01*
X193819Y-2283D01*
X193909Y-2338D01*
X194018Y-2382D01*
X194148Y-2416D01*
X194296Y-2441D01*
X194465Y-2456D01*
X194653Y-2461D01*
Y-3445D01*
X193669Y-3059D01*
X193657Y-1969D01*
X193668Y-2062D01*
D02*
G37*
G36*
X191173Y-3059D02*
X191164Y-3132D01*
X191134Y-3198D01*
X191085Y-3256D01*
X191016Y-3306D01*
X190927Y-3348D01*
X190819Y-3383D01*
X190691Y-3410D01*
X190543Y-3429D01*
X190376Y-3441D01*
X190189Y-3445D01*
Y-2461D01*
X190377Y-2456D01*
X190546Y-2441D01*
X190695Y-2416D01*
X190824Y-2382D01*
X190934Y-2338D01*
X191023Y-2283D01*
X191094Y-2220D01*
X191144Y-2146D01*
X191174Y-2062D01*
X191185Y-1969D01*
X191173Y-3059D01*
D02*
G37*
G36*
X198240Y-2768D02*
X198252Y-3937D01*
X198241Y-3844D01*
X198211Y-3760D01*
X198161Y-3686D01*
X198091Y-3622D01*
X198001Y-3568D01*
X197891Y-3524D01*
X197762Y-3489D01*
X197613Y-3465D01*
X197444Y-3450D01*
X197256Y-3445D01*
Y-2461D01*
X198240Y-2768D01*
D02*
G37*
G36*
X183279Y-2062D02*
X183379Y-2146D01*
X183487Y-2220D01*
X183602Y-2283D01*
X183726Y-2338D01*
X183858Y-2382D01*
X183997Y-2416D01*
X184144Y-2441D01*
X184300Y-2456D01*
X184463Y-2461D01*
Y-3445D01*
X184300Y-3450D01*
X184144Y-3465D01*
X183997Y-3489D01*
X183858Y-3524D01*
X183726Y-3568D01*
X183602Y-3622D01*
X183487Y-3686D01*
X183379Y-3760D01*
X183279Y-3844D01*
X183187Y-3937D01*
Y-1969D01*
X183279Y-2062D01*
D02*
G37*
G36*
X25989Y-3136D02*
X25905Y-3165D01*
X25832Y-3215D01*
X25768Y-3285D01*
X25714Y-3375D01*
X25669Y-3484D01*
X25635Y-3614D01*
X25610Y-3763D01*
X25596Y-3933D01*
X25591Y-4122D01*
X24606D01*
X24601Y-3933D01*
X24587Y-3763D01*
X24562Y-3614D01*
X24528Y-3484D01*
X24483Y-3375D01*
X24429Y-3285D01*
X24365Y-3215D01*
X24291Y-3165D01*
X24208Y-3136D01*
X24114Y-3126D01*
X26083D01*
X25989Y-3136D01*
D02*
G37*
G36*
X22249D02*
X22165Y-3165D01*
X22092Y-3215D01*
X22028Y-3285D01*
X21973Y-3375D01*
X21929Y-3484D01*
X21895Y-3614D01*
X21870Y-3763D01*
X21855Y-3933D01*
X21850Y-4122D01*
X20866D01*
X20861Y-3933D01*
X20846Y-3763D01*
X20822Y-3614D01*
X20787Y-3484D01*
X20743Y-3375D01*
X20689Y-3285D01*
X20625Y-3215D01*
X20551Y-3165D01*
X20468Y-3136D01*
X20374Y-3126D01*
X22343D01*
X22249Y-3136D01*
D02*
G37*
G36*
X164436Y-4428D02*
X164321Y-4438D01*
X164197Y-4459D01*
X164064Y-4491D01*
X163922Y-4534D01*
X163609Y-4652D01*
X163439Y-4728D01*
X162874Y-5019D01*
X162011Y-4133D01*
X162153Y-4059D01*
X162283Y-3970D01*
X162402Y-3866D01*
X162509Y-3748D01*
X162605Y-3615D01*
X162689Y-3468D01*
X162762Y-3306D01*
X162823Y-3130D01*
X162872Y-2939D01*
X162910Y-2733D01*
X164436Y-4428D01*
D02*
G37*
G36*
X170481Y-4415D02*
X170291Y-4447D01*
X170108Y-4488D01*
X169932Y-4539D01*
X169763Y-4600D01*
X169602Y-4670D01*
X169448Y-4749D01*
X169300Y-4838D01*
X169160Y-4937D01*
X169027Y-5045D01*
X168901Y-5162D01*
X168066Y-4327D01*
X168184Y-4201D01*
X168292Y-4068D01*
X168390Y-3928D01*
X168479Y-3781D01*
X168559Y-3627D01*
X168629Y-3465D01*
X168689Y-3296D01*
X168740Y-3120D01*
X168782Y-2937D01*
X168814Y-2747D01*
X170481Y-4415D01*
D02*
G37*
G36*
X208095Y-5709D02*
X208085Y-5615D01*
X208055Y-5531D01*
X208005Y-5458D01*
X207936Y-5394D01*
X207846Y-5340D01*
X207736Y-5295D01*
X207607Y-5261D01*
X207457Y-5236D01*
X207288Y-5221D01*
X207099Y-5217D01*
Y-4232D01*
X207288Y-4227D01*
X207457Y-4213D01*
X207607Y-4188D01*
X207736Y-4154D01*
X207846Y-4109D01*
X207936Y-4055D01*
X208005Y-3991D01*
X208055Y-3917D01*
X208085Y-3834D01*
X208095Y-3740D01*
Y-5709D01*
D02*
G37*
G36*
X205313Y-3834D02*
X205342Y-3917D01*
X205392Y-3991D01*
X205460Y-4055D01*
X205549Y-4109D01*
X205657Y-4154D01*
X205785Y-4188D01*
X205933Y-4213D01*
X206100Y-4227D01*
X206287Y-4232D01*
Y-5217D01*
X206100Y-5221D01*
X205933Y-5236D01*
X205785Y-5261D01*
X205657Y-5295D01*
X205549Y-5340D01*
X205460Y-5394D01*
X205392Y-5458D01*
X205342Y-5531D01*
X205313Y-5615D01*
X205303Y-5709D01*
Y-3740D01*
X205313Y-3834D01*
D02*
G37*
G36*
X122847Y-6090D02*
X122837Y-6018D01*
X122807Y-5953D01*
X122758Y-5896D01*
X122689Y-5846D01*
X122601Y-5804D01*
X122492Y-5770D01*
X122364Y-5743D01*
X122217Y-5724D01*
X122049Y-5712D01*
X121862Y-5709D01*
Y-4724D01*
X122049Y-4721D01*
X122364Y-4690D01*
X122492Y-4663D01*
X122601Y-4629D01*
X122689Y-4587D01*
X122758Y-4537D01*
X122807Y-4480D01*
X122837Y-4415D01*
X122847Y-4343D01*
Y-6090D01*
D02*
G37*
G36*
X105510Y-4415D02*
X105539Y-4480D01*
X105588Y-4537D01*
X105657Y-4587D01*
X105746Y-4629D01*
X105854Y-4663D01*
X105982Y-4690D01*
X106130Y-4709D01*
X106297Y-4721D01*
X106484Y-4724D01*
Y-5709D01*
X106297Y-5712D01*
X105982Y-5743D01*
X105854Y-5770D01*
X105746Y-5804D01*
X105657Y-5846D01*
X105588Y-5896D01*
X105539Y-5953D01*
X105510Y-6018D01*
X105500Y-6090D01*
Y-4343D01*
X105510Y-4415D01*
D02*
G37*
G36*
X130097Y-8538D02*
X130026Y-8478D01*
X129950Y-8423D01*
X129869Y-8375D01*
X129782Y-8334D01*
X129689Y-8298D01*
X129592Y-8270D01*
X129489Y-8247D01*
X129380Y-8231D01*
X129303Y-8225D01*
X129161Y-8236D01*
X129014Y-8257D01*
X128886Y-8287D01*
X128777Y-8326D01*
X128689Y-8374D01*
X128620Y-8430D01*
X128571Y-8494D01*
X128541Y-8568D01*
X128531Y-8649D01*
Y-6902D01*
X128541Y-6965D01*
X128571Y-7021D01*
X128620Y-7071D01*
X128689Y-7114D01*
X128777Y-7151D01*
X128886Y-7181D01*
X129014Y-7204D01*
X129161Y-7221D01*
X129263Y-7227D01*
X129335Y-7220D01*
X129443Y-7203D01*
X129544Y-7179D01*
X129640Y-7147D01*
X129729Y-7109D01*
X129813Y-7064D01*
X129891Y-7012D01*
X129963Y-6952D01*
X130028Y-6886D01*
X130097Y-8538D01*
D02*
G37*
G36*
X21854Y-6998D02*
X21864Y-7112D01*
X21881Y-7220D01*
X21904Y-7322D01*
X21934Y-7419D01*
X21971Y-7510D01*
X22014Y-7596D01*
X22065Y-7675D01*
X22121Y-7750D01*
X22185Y-7818D01*
X20531D01*
X20595Y-7750D01*
X20652Y-7675D01*
X20702Y-7596D01*
X20746Y-7510D01*
X20783Y-7419D01*
X20813Y-7322D01*
X20836Y-7220D01*
X20853Y-7112D01*
X20863Y-6998D01*
X20866Y-6879D01*
X21850D01*
X21854Y-6998D01*
D02*
G37*
G36*
X122847Y-8649D02*
X122837Y-8577D01*
X122807Y-8512D01*
X122758Y-8455D01*
X122689Y-8405D01*
X122601Y-8363D01*
X122492Y-8329D01*
X122364Y-8302D01*
X122217Y-8283D01*
X122049Y-8271D01*
X121862Y-8268D01*
Y-7283D01*
X122049Y-7280D01*
X122364Y-7249D01*
X122492Y-7222D01*
X122601Y-7188D01*
X122689Y-7146D01*
X122758Y-7096D01*
X122807Y-7039D01*
X122837Y-6974D01*
X122847Y-6902D01*
Y-8649D01*
D02*
G37*
G36*
X99815D02*
X99805Y-8577D01*
X99776Y-8512D01*
X99727Y-8455D01*
X99658Y-8405D01*
X99569Y-8363D01*
X99461Y-8329D01*
X99333Y-8302D01*
X99185Y-8283D01*
X99018Y-8271D01*
X98831Y-8268D01*
Y-7283D01*
X99018Y-7280D01*
X99333Y-7249D01*
X99461Y-7222D01*
X99569Y-7188D01*
X99658Y-7146D01*
X99727Y-7096D01*
X99776Y-7039D01*
X99805Y-6974D01*
X99815Y-6902D01*
Y-8649D01*
D02*
G37*
G36*
X50749Y-7135D02*
X50837Y-7208D01*
X50925Y-7273D01*
X51014Y-7329D01*
X51104Y-7376D01*
X51194Y-7414D01*
X51285Y-7444D01*
X51377Y-7465D01*
X51470Y-7477D01*
X51563Y-7480D01*
X50394Y-8650D01*
X50390Y-8556D01*
X50378Y-8464D01*
X50357Y-8372D01*
X50328Y-8281D01*
X50289Y-8190D01*
X50242Y-8100D01*
X50186Y-8011D01*
X50122Y-7923D01*
X50049Y-7836D01*
X49966Y-7749D01*
X50662Y-7053D01*
X50749Y-7135D01*
D02*
G37*
G36*
X163072Y-6900D02*
X163770Y-7223D01*
X163922Y-7277D01*
X164197Y-7352D01*
X164321Y-7373D01*
X164436Y-7383D01*
X162910Y-9078D01*
X162872Y-8873D01*
X162823Y-8681D01*
X162762Y-8505D01*
X162689Y-8343D01*
X162605Y-8196D01*
X162509Y-8063D01*
X162402Y-7945D01*
X162283Y-7841D01*
X162153Y-7752D01*
X162011Y-7678D01*
X162874Y-6792D01*
X163072Y-6900D01*
D02*
G37*
G36*
X52759Y-8767D02*
X52771Y-8859D01*
X52792Y-8951D01*
X52822Y-9042D01*
X52860Y-9133D01*
X52907Y-9222D01*
X52963Y-9311D01*
X53028Y-9399D01*
X53101Y-9487D01*
X53183Y-9574D01*
X52487Y-10270D01*
X52400Y-10188D01*
X52313Y-10114D01*
X52225Y-10050D01*
X52136Y-9994D01*
X52046Y-9947D01*
X51956Y-9909D01*
X51864Y-9879D01*
X51773Y-9858D01*
X51680Y-9846D01*
X51587Y-9843D01*
X52756Y-8673D01*
X52759Y-8767D01*
D02*
G37*
G36*
X176894Y-10161D02*
X176827Y-10225D01*
X176768Y-10298D01*
X176716Y-10380D01*
X176673Y-10472D01*
X176638Y-10572D01*
X176610Y-10683D01*
X176591Y-10802D01*
X176579Y-10931D01*
X176575Y-11069D01*
X175787D01*
X175784Y-10931D01*
X175772Y-10802D01*
X175752Y-10683D01*
X175724Y-10572D01*
X175689Y-10472D01*
X175646Y-10380D01*
X175594Y-10298D01*
X175535Y-10225D01*
X175469Y-10161D01*
X175394Y-10107D01*
X176969D01*
X176894Y-10161D01*
D02*
G37*
G36*
X170988D02*
X170921Y-10225D01*
X170862Y-10298D01*
X170811Y-10380D01*
X170768Y-10472D01*
X170732Y-10572D01*
X170705Y-10683D01*
X170685Y-10802D01*
X170673Y-10931D01*
X170669Y-11069D01*
X169882D01*
X169878Y-10931D01*
X169866Y-10802D01*
X169846Y-10683D01*
X169819Y-10572D01*
X169783Y-10472D01*
X169740Y-10380D01*
X169689Y-10298D01*
X169630Y-10225D01*
X169563Y-10161D01*
X169488Y-10107D01*
X171063D01*
X170988Y-10161D01*
D02*
G37*
G36*
X128539Y-9622D02*
X128563Y-9689D01*
X128602Y-9748D01*
X128657Y-9799D01*
X128728Y-9843D01*
X128815Y-9878D01*
X128917Y-9905D01*
X129035Y-9925D01*
X129169Y-9937D01*
X129319Y-9941D01*
Y-10728D01*
X129169Y-10732D01*
X129035Y-10744D01*
X128917Y-10764D01*
X128815Y-10791D01*
X128728Y-10827D01*
X128657Y-10870D01*
X128602Y-10921D01*
X128563Y-10980D01*
X128539Y-11047D01*
X128531Y-11122D01*
Y-9547D01*
X128539Y-9622D01*
D02*
G37*
G36*
X99815Y-11208D02*
X99805Y-11136D01*
X99776Y-11071D01*
X99727Y-11014D01*
X99658Y-10964D01*
X99569Y-10922D01*
X99461Y-10888D01*
X99333Y-10861D01*
X99185Y-10842D01*
X99018Y-10830D01*
X98831Y-10827D01*
Y-9843D01*
X99018Y-9839D01*
X99333Y-9808D01*
X99461Y-9781D01*
X99569Y-9747D01*
X99658Y-9705D01*
X99727Y-9655D01*
X99776Y-9598D01*
X99805Y-9533D01*
X99815Y-9461D01*
Y-11208D01*
D02*
G37*
G36*
X183198Y-9850D02*
X183171Y-9941D01*
X183148Y-10067D01*
X183127Y-10228D01*
X183096Y-10654D01*
X183071Y-11927D01*
X181102D01*
X181101Y-11557D01*
X181002Y-9941D01*
X180975Y-9850D01*
X180945Y-9795D01*
X183228D01*
X183198Y-9850D01*
D02*
G37*
G36*
X128539Y-12181D02*
X128563Y-12248D01*
X128602Y-12307D01*
X128657Y-12358D01*
X128728Y-12402D01*
X128815Y-12437D01*
X128917Y-12465D01*
X129035Y-12484D01*
X129169Y-12496D01*
X129319Y-12500D01*
Y-13287D01*
X129169Y-13291D01*
X129035Y-13303D01*
X128917Y-13323D01*
X128815Y-13350D01*
X128728Y-13386D01*
X128657Y-13429D01*
X128602Y-13480D01*
X128563Y-13539D01*
X128539Y-13606D01*
X128531Y-13681D01*
Y-12106D01*
X128539Y-12181D01*
D02*
G37*
G36*
X133999Y-13720D02*
X133913Y-13638D01*
X133824Y-13565D01*
X133733Y-13500D01*
X133639Y-13443D01*
X133542Y-13396D01*
X133443Y-13357D01*
X133341Y-13326D01*
X133237Y-13305D01*
X133130Y-13292D01*
X133020Y-13287D01*
Y-12500D01*
X133130Y-12496D01*
X133237Y-12483D01*
X133341Y-12461D01*
X133443Y-12431D01*
X133542Y-12392D01*
X133639Y-12344D01*
X133733Y-12288D01*
X133824Y-12223D01*
X133913Y-12149D01*
X133999Y-12067D01*
Y-13720D01*
D02*
G37*
G36*
X99815Y-13768D02*
X99805Y-13695D01*
X99776Y-13630D01*
X99727Y-13573D01*
X99658Y-13523D01*
X99569Y-13481D01*
X99461Y-13447D01*
X99333Y-13420D01*
X99185Y-13401D01*
X99018Y-13390D01*
X98831Y-13386D01*
Y-12402D01*
X99018Y-12398D01*
X99333Y-12367D01*
X99461Y-12341D01*
X99569Y-12306D01*
X99658Y-12264D01*
X99727Y-12214D01*
X99776Y-12157D01*
X99805Y-12092D01*
X99815Y-12020D01*
Y-13768D01*
D02*
G37*
G36*
X167916Y-14537D02*
X167935Y-14766D01*
X167951Y-14867D01*
X167972Y-14961D01*
X167998Y-15045D01*
X168029Y-15121D01*
X168065Y-15189D01*
X168105Y-15248D01*
X168150Y-15298D01*
X166496D01*
X166541Y-15248D01*
X166581Y-15189D01*
X166616Y-15121D01*
X166647Y-15045D01*
X166673Y-14961D01*
X166694Y-14867D01*
X166711Y-14766D01*
X166723Y-14656D01*
X166732Y-14410D01*
X167913D01*
X167916Y-14537D01*
D02*
G37*
G36*
X128539Y-14740D02*
X128563Y-14807D01*
X128602Y-14866D01*
X128657Y-14917D01*
X128728Y-14961D01*
X128815Y-14996D01*
X128917Y-15024D01*
X129035Y-15043D01*
X129169Y-15055D01*
X129319Y-15059D01*
Y-15846D01*
X129169Y-15850D01*
X129035Y-15862D01*
X128917Y-15882D01*
X128815Y-15909D01*
X128728Y-15945D01*
X128657Y-15988D01*
X128602Y-16039D01*
X128563Y-16098D01*
X128539Y-16165D01*
X128531Y-16240D01*
Y-14665D01*
X128539Y-14740D01*
D02*
G37*
G36*
X105510Y-14651D02*
X105539Y-14716D01*
X105588Y-14774D01*
X105657Y-14823D01*
X105746Y-14865D01*
X105854Y-14899D01*
X105982Y-14926D01*
X106130Y-14945D01*
X106297Y-14957D01*
X106484Y-14961D01*
Y-15945D01*
X106297Y-15949D01*
X105982Y-15979D01*
X105854Y-16006D01*
X105746Y-16040D01*
X105657Y-16082D01*
X105588Y-16132D01*
X105539Y-16189D01*
X105510Y-16254D01*
X105500Y-16327D01*
Y-14579D01*
X105510Y-14651D01*
D02*
G37*
G36*
X35142Y-16654D02*
X35132Y-16560D01*
X35102Y-16476D01*
X35052Y-16403D01*
X34983Y-16339D01*
X34893Y-16285D01*
X34784Y-16240D01*
X34654Y-16206D01*
X34505Y-16181D01*
X34335Y-16166D01*
X34146Y-16161D01*
Y-15177D01*
X34335Y-15172D01*
X34505Y-15157D01*
X34654Y-15133D01*
X34784Y-15098D01*
X34893Y-15054D01*
X34983Y-15000D01*
X35052Y-14936D01*
X35102Y-14862D01*
X35132Y-14778D01*
X35142Y-14685D01*
Y-16654D01*
D02*
G37*
G36*
X167618Y-17285D02*
X167534Y-17310D01*
X167450Y-17341D01*
X167366Y-17379D01*
X167282Y-17423D01*
X167198Y-17473D01*
X167113Y-17530D01*
X166942Y-17664D01*
X166924Y-17680D01*
X166670Y-17970D01*
X166562Y-18114D01*
X166479Y-18244D01*
X166421Y-18360D01*
X166387Y-18462D01*
X166378Y-18549D01*
X166393Y-18623D01*
X166433Y-18682D01*
X165216Y-17465D01*
X165275Y-17505D01*
X165348Y-17520D01*
X165436Y-17511D01*
X165537Y-17477D01*
X165653Y-17418D01*
X165783Y-17335D01*
X165927Y-17228D01*
X166035Y-17138D01*
X166080Y-17072D01*
X166129Y-16984D01*
X166166Y-16896D01*
X166192Y-16809D01*
X166208Y-16721D01*
X166211Y-16634D01*
X166204Y-16546D01*
X166185Y-16459D01*
X167618Y-17285D01*
D02*
G37*
G36*
X122847Y-18886D02*
X122837Y-18813D01*
X122807Y-18748D01*
X122758Y-18691D01*
X122689Y-18641D01*
X122601Y-18599D01*
X122492Y-18565D01*
X122364Y-18538D01*
X122217Y-18519D01*
X122049Y-18508D01*
X121862Y-18504D01*
Y-17520D01*
X122049Y-17516D01*
X122364Y-17485D01*
X122492Y-17459D01*
X122601Y-17424D01*
X122689Y-17382D01*
X122758Y-17333D01*
X122807Y-17275D01*
X122837Y-17210D01*
X122847Y-17138D01*
Y-18886D01*
D02*
G37*
G36*
X105510Y-17210D02*
X105539Y-17275D01*
X105588Y-17333D01*
X105657Y-17382D01*
X105746Y-17424D01*
X105854Y-17459D01*
X105982Y-17485D01*
X106130Y-17504D01*
X106297Y-17516D01*
X106484Y-17520D01*
Y-18504D01*
X106297Y-18508D01*
X105982Y-18538D01*
X105854Y-18565D01*
X105746Y-18599D01*
X105657Y-18641D01*
X105588Y-18691D01*
X105539Y-18748D01*
X105510Y-18813D01*
X105500Y-18886D01*
Y-17138D01*
X105510Y-17210D01*
D02*
G37*
G36*
X166088Y-19947D02*
X166004Y-19976D01*
X165930Y-20026D01*
X165866Y-20096D01*
X165812Y-20186D01*
X165768Y-20295D01*
X165733Y-20425D01*
X165709Y-20574D01*
X165700Y-20669D01*
X165709Y-20764D01*
X165733Y-20914D01*
X165768Y-21043D01*
X165812Y-21153D01*
X165866Y-21243D01*
X165930Y-21312D01*
X166004Y-21362D01*
X166088Y-21392D01*
X166181Y-21402D01*
X164213D01*
X164306Y-21392D01*
X164390Y-21362D01*
X164464Y-21312D01*
X164528Y-21243D01*
X164582Y-21153D01*
X164626Y-21043D01*
X164660Y-20914D01*
X164685Y-20764D01*
X164693Y-20669D01*
X164685Y-20574D01*
X164660Y-20425D01*
X164626Y-20295D01*
X164582Y-20186D01*
X164528Y-20096D01*
X164464Y-20026D01*
X164390Y-19976D01*
X164306Y-19947D01*
X164213Y-19937D01*
X166181D01*
X166088Y-19947D01*
D02*
G37*
G36*
X122847Y-21445D02*
X122837Y-21372D01*
X122807Y-21307D01*
X122758Y-21250D01*
X122689Y-21200D01*
X122601Y-21158D01*
X122492Y-21124D01*
X122364Y-21097D01*
X122217Y-21078D01*
X122049Y-21067D01*
X121862Y-21063D01*
Y-20079D01*
X122049Y-20075D01*
X122364Y-20044D01*
X122492Y-20018D01*
X122601Y-19983D01*
X122689Y-19941D01*
X122758Y-19892D01*
X122807Y-19834D01*
X122837Y-19770D01*
X122847Y-19697D01*
Y-21445D01*
D02*
G37*
G36*
X99815D02*
X99805Y-21372D01*
X99776Y-21307D01*
X99727Y-21250D01*
X99658Y-21200D01*
X99569Y-21158D01*
X99461Y-21124D01*
X99333Y-21097D01*
X99185Y-21078D01*
X99018Y-21067D01*
X98831Y-21063D01*
Y-20079D01*
X99018Y-20075D01*
X99333Y-20044D01*
X99461Y-20018D01*
X99569Y-19983D01*
X99658Y-19941D01*
X99727Y-19892D01*
X99776Y-19834D01*
X99805Y-19770D01*
X99815Y-19697D01*
Y-21445D01*
D02*
G37*
G36*
X162562Y-19795D02*
X162573Y-19949D01*
X162823D01*
X162773Y-19968D01*
X162728Y-20027D01*
X162688Y-20126D01*
X162654Y-20264D01*
X162625Y-20441D01*
X162615Y-20533D01*
X162654Y-21075D01*
X162688Y-21213D01*
X162728Y-21311D01*
X162773Y-21370D01*
X162823Y-21390D01*
X162568D01*
X162562Y-21543D01*
X162559Y-21917D01*
X160591D01*
X160588Y-21543D01*
X160577Y-21390D01*
X160327D01*
X160377Y-21370D01*
X160422Y-21311D01*
X160461Y-21213D01*
X160496Y-21075D01*
X160525Y-20898D01*
X160535Y-20806D01*
X160496Y-20264D01*
X160461Y-20126D01*
X160422Y-20027D01*
X160377Y-19968D01*
X160327Y-19949D01*
X160581D01*
X160588Y-19795D01*
X160591Y-19421D01*
X162559D01*
X162562Y-19795D01*
D02*
G37*
G36*
X170674Y-21417D02*
X170687Y-21524D01*
X170708Y-21629D01*
X170739Y-21730D01*
X170778Y-21829D01*
X170825Y-21926D01*
X170881Y-22020D01*
X170947Y-22111D01*
X171020Y-22200D01*
X171102Y-22286D01*
X169449D01*
X169531Y-22200D01*
X169605Y-22111D01*
X169670Y-22020D01*
X169726Y-21926D01*
X169774Y-21829D01*
X169813Y-21730D01*
X169843Y-21629D01*
X169865Y-21524D01*
X169878Y-21417D01*
X169882Y-21308D01*
X170669D01*
X170674Y-21417D01*
D02*
G37*
G36*
X128539Y-22417D02*
X128563Y-22484D01*
X128602Y-22543D01*
X128657Y-22594D01*
X128728Y-22638D01*
X128815Y-22673D01*
X128917Y-22701D01*
X129035Y-22720D01*
X129169Y-22732D01*
X129319Y-22736D01*
Y-23524D01*
X129169Y-23528D01*
X129035Y-23539D01*
X128917Y-23559D01*
X128815Y-23587D01*
X128728Y-23622D01*
X128657Y-23665D01*
X128602Y-23717D01*
X128563Y-23776D01*
X128539Y-23843D01*
X128531Y-23917D01*
Y-22343D01*
X128539Y-22417D01*
D02*
G37*
G36*
X133999Y-23957D02*
X133913Y-23874D01*
X133824Y-23801D01*
X133733Y-23736D01*
X133639Y-23679D01*
X133542Y-23632D01*
X133443Y-23593D01*
X133341Y-23563D01*
X133237Y-23541D01*
X133130Y-23528D01*
X133020Y-23524D01*
Y-22736D01*
X133130Y-22732D01*
X133237Y-22719D01*
X133341Y-22697D01*
X133443Y-22667D01*
X133542Y-22628D01*
X133639Y-22580D01*
X133733Y-22524D01*
X133824Y-22459D01*
X133913Y-22385D01*
X133999Y-22303D01*
Y-23957D01*
D02*
G37*
G36*
X105510Y-22329D02*
X105539Y-22393D01*
X105588Y-22451D01*
X105657Y-22500D01*
X105746Y-22542D01*
X105854Y-22577D01*
X105982Y-22603D01*
X106130Y-22623D01*
X106297Y-22634D01*
X106484Y-22638D01*
Y-23622D01*
X106297Y-23626D01*
X105982Y-23656D01*
X105854Y-23683D01*
X105746Y-23717D01*
X105657Y-23759D01*
X105588Y-23809D01*
X105539Y-23866D01*
X105510Y-23931D01*
X105500Y-24004D01*
Y-22256D01*
X105510Y-22329D01*
D02*
G37*
G36*
X162562Y-23732D02*
X162573Y-23886D01*
X162823D01*
X162773Y-23905D01*
X162728Y-23964D01*
X162688Y-24063D01*
X162654Y-24201D01*
X162625Y-24378D01*
X162615Y-24470D01*
X162654Y-25012D01*
X162688Y-25150D01*
X162728Y-25248D01*
X162773Y-25307D01*
X162823Y-25327D01*
X162568D01*
X162562Y-25480D01*
X162559Y-25854D01*
X160591D01*
X160588Y-25480D01*
X160577Y-25327D01*
X160327D01*
X160377Y-25307D01*
X160422Y-25248D01*
X160461Y-25150D01*
X160496Y-25012D01*
X160525Y-24835D01*
X160535Y-24743D01*
X160496Y-24201D01*
X160461Y-24063D01*
X160422Y-23964D01*
X160377Y-23905D01*
X160327Y-23886D01*
X160581D01*
X160588Y-23732D01*
X160591Y-23359D01*
X162559D01*
X162562Y-23732D01*
D02*
G37*
G36*
X122847Y-26563D02*
X122837Y-26490D01*
X122807Y-26425D01*
X122758Y-26368D01*
X122689Y-26318D01*
X122601Y-26276D01*
X122492Y-26242D01*
X122364Y-26215D01*
X122217Y-26196D01*
X122049Y-26185D01*
X121862Y-26181D01*
Y-25197D01*
X122049Y-25193D01*
X122364Y-25163D01*
X122492Y-25136D01*
X122601Y-25101D01*
X122689Y-25059D01*
X122758Y-25010D01*
X122807Y-24952D01*
X122837Y-24888D01*
X122847Y-24815D01*
Y-26563D01*
D02*
G37*
G36*
X99815D02*
X99805Y-26490D01*
X99776Y-26425D01*
X99727Y-26368D01*
X99658Y-26318D01*
X99569Y-26276D01*
X99461Y-26242D01*
X99333Y-26215D01*
X99185Y-26196D01*
X99018Y-26185D01*
X98831Y-26181D01*
Y-25197D01*
X99018Y-25193D01*
X99333Y-25163D01*
X99461Y-25136D01*
X99569Y-25101D01*
X99658Y-25059D01*
X99727Y-25010D01*
X99776Y-24952D01*
X99805Y-24888D01*
X99815Y-24815D01*
Y-26563D01*
D02*
G37*
G36*
X176579Y-26535D02*
X176592Y-26642D01*
X176614Y-26747D01*
X176644Y-26848D01*
X176683Y-26948D01*
X176731Y-27044D01*
X176787Y-27138D01*
X176852Y-27229D01*
X176926Y-27318D01*
X177008Y-27404D01*
X175354D01*
X175437Y-27318D01*
X175510Y-27229D01*
X175575Y-27138D01*
X175631Y-27044D01*
X175679Y-26948D01*
X175718Y-26848D01*
X175748Y-26747D01*
X175770Y-26642D01*
X175783Y-26535D01*
X175787Y-26426D01*
X176575D01*
X176579Y-26535D01*
D02*
G37*
G36*
X166443Y-25684D02*
X166472Y-25768D01*
X166522Y-25842D01*
X166592Y-25905D01*
X166682Y-25960D01*
X166791Y-26004D01*
X166921Y-26038D01*
X167070Y-26063D01*
X167240Y-26078D01*
X167429Y-26083D01*
Y-27067D01*
X167240Y-27072D01*
X167070Y-27087D01*
X166921Y-27111D01*
X166791Y-27146D01*
X166682Y-27190D01*
X166592Y-27244D01*
X166522Y-27308D01*
X166472Y-27382D01*
X166443Y-27466D01*
X166433Y-27559D01*
Y-25591D01*
X166443Y-25684D01*
D02*
G37*
G36*
X99815Y-29122D02*
X99805Y-29049D01*
X99776Y-28984D01*
X99727Y-28927D01*
X99658Y-28877D01*
X99569Y-28835D01*
X99461Y-28801D01*
X99333Y-28774D01*
X99185Y-28755D01*
X99018Y-28744D01*
X98887Y-28741D01*
X98809Y-28743D01*
X98695Y-28754D01*
X98587Y-28770D01*
X98485Y-28794D01*
X98388Y-28824D01*
X98297Y-28861D01*
X98211Y-28904D01*
X98132Y-28954D01*
X98058Y-29011D01*
X97989Y-29075D01*
Y-27421D01*
X98058Y-27485D01*
X98132Y-27542D01*
X98211Y-27592D01*
X98297Y-27635D01*
X98388Y-27672D01*
X98485Y-27702D01*
X98587Y-27726D01*
X98695Y-27742D01*
X98809Y-27753D01*
X98887Y-27755D01*
X99018Y-27752D01*
X99333Y-27722D01*
X99461Y-27695D01*
X99569Y-27660D01*
X99658Y-27619D01*
X99727Y-27569D01*
X99776Y-27512D01*
X99805Y-27447D01*
X99815Y-27374D01*
Y-29122D01*
D02*
G37*
G36*
X128539Y-27535D02*
X128563Y-27602D01*
X128602Y-27661D01*
X128657Y-27713D01*
X128728Y-27756D01*
X128815Y-27791D01*
X128917Y-27819D01*
X129035Y-27839D01*
X129169Y-27850D01*
X129319Y-27854D01*
Y-28642D01*
X129169Y-28646D01*
X129035Y-28657D01*
X128917Y-28677D01*
X128815Y-28705D01*
X128728Y-28740D01*
X128657Y-28783D01*
X128602Y-28835D01*
X128563Y-28894D01*
X128539Y-28961D01*
X128531Y-29035D01*
Y-27461D01*
X128539Y-27535D01*
D02*
G37*
G36*
X133999Y-29075D02*
X133913Y-28993D01*
X133824Y-28919D01*
X133733Y-28854D01*
X133639Y-28798D01*
X133542Y-28750D01*
X133443Y-28711D01*
X133341Y-28681D01*
X133237Y-28659D01*
X133130Y-28646D01*
X133020Y-28642D01*
Y-27854D01*
X133130Y-27850D01*
X133237Y-27837D01*
X133341Y-27815D01*
X133443Y-27785D01*
X133542Y-27746D01*
X133639Y-27698D01*
X133733Y-27642D01*
X133824Y-27577D01*
X133913Y-27503D01*
X133999Y-27421D01*
Y-29075D01*
D02*
G37*
G36*
X105510Y-27447D02*
X105539Y-27512D01*
X105588Y-27569D01*
X105657Y-27619D01*
X105746Y-27660D01*
X105854Y-27695D01*
X105982Y-27722D01*
X106130Y-27741D01*
X106297Y-27752D01*
X106484Y-27756D01*
Y-28740D01*
X106297Y-28744D01*
X105982Y-28774D01*
X105854Y-28801D01*
X105746Y-28835D01*
X105657Y-28877D01*
X105588Y-28927D01*
X105539Y-28984D01*
X105510Y-29049D01*
X105500Y-29122D01*
Y-27374D01*
X105510Y-27447D01*
D02*
G37*
G36*
X166088Y-27821D02*
X166004Y-27850D01*
X165930Y-27900D01*
X165866Y-27970D01*
X165812Y-28060D01*
X165768Y-28169D01*
X165733Y-28299D01*
X165709Y-28448D01*
X165700Y-28543D01*
X165709Y-28638D01*
X165733Y-28788D01*
X165768Y-28917D01*
X165812Y-29027D01*
X165866Y-29117D01*
X165930Y-29186D01*
X166004Y-29236D01*
X166088Y-29266D01*
X166181Y-29276D01*
X164213D01*
X164306Y-29266D01*
X164390Y-29236D01*
X164464Y-29186D01*
X164528Y-29117D01*
X164582Y-29027D01*
X164626Y-28917D01*
X164660Y-28788D01*
X164685Y-28638D01*
X164693Y-28543D01*
X164685Y-28448D01*
X164660Y-28299D01*
X164626Y-28169D01*
X164582Y-28060D01*
X164528Y-27970D01*
X164464Y-27900D01*
X164390Y-27850D01*
X164306Y-27821D01*
X164213Y-27811D01*
X166181D01*
X166088Y-27821D01*
D02*
G37*
G36*
X162562Y-27670D02*
X162573Y-27823D01*
X162823D01*
X162773Y-27842D01*
X162728Y-27901D01*
X162688Y-28000D01*
X162654Y-28138D01*
X162625Y-28315D01*
X162615Y-28407D01*
X162654Y-28949D01*
X162688Y-29087D01*
X162728Y-29185D01*
X162773Y-29244D01*
X162823Y-29264D01*
X162568D01*
X162562Y-29417D01*
X162559Y-29791D01*
X160591D01*
X160588Y-29417D01*
X160577Y-29264D01*
X160327D01*
X160377Y-29244D01*
X160422Y-29185D01*
X160461Y-29087D01*
X160496Y-28949D01*
X160525Y-28772D01*
X160535Y-28680D01*
X160496Y-28138D01*
X160461Y-28000D01*
X160422Y-27901D01*
X160377Y-27842D01*
X160327Y-27823D01*
X160581D01*
X160588Y-27670D01*
X160591Y-27296D01*
X162559D01*
X162562Y-27670D01*
D02*
G37*
G36*
X162773Y-31779D02*
X162728Y-31838D01*
X162688Y-31937D01*
X162654Y-32075D01*
X162625Y-32252D01*
X162601Y-32468D01*
X162562Y-33354D01*
X162559Y-33728D01*
X160591D01*
X160588Y-33354D01*
X160496Y-32075D01*
X160461Y-31937D01*
X160422Y-31838D01*
X160377Y-31779D01*
X160327Y-31760D01*
X162823D01*
X162773Y-31779D01*
D02*
G37*
G36*
X51714Y-32589D02*
X51733Y-32591D01*
X51807Y-32594D01*
X52323Y-32598D01*
Y-33779D01*
X51708Y-33792D01*
Y-32586D01*
X51714Y-32589D01*
D02*
G37*
G36*
Y-36604D02*
X51733Y-36606D01*
X51807Y-36610D01*
X52323Y-36614D01*
Y-37795D01*
X51708Y-37807D01*
Y-36602D01*
X51714Y-36604D01*
D02*
G37*
G36*
Y-48652D02*
X51733Y-48654D01*
X51807Y-48657D01*
X52323Y-48661D01*
Y-49843D01*
X51708Y-49854D01*
Y-48649D01*
X51714Y-48652D01*
D02*
G37*
G36*
Y-52667D02*
X51733Y-52670D01*
X51807Y-52673D01*
X52323Y-52677D01*
Y-53858D01*
X51708Y-53870D01*
Y-52665D01*
X51714Y-52667D01*
D02*
G37*
G36*
X35142Y-70748D02*
X35132Y-70654D01*
X35102Y-70571D01*
X35052Y-70497D01*
X34983Y-70433D01*
X34893Y-70379D01*
X34784Y-70335D01*
X34654Y-70300D01*
X34505Y-70276D01*
X34335Y-70261D01*
X34146Y-70256D01*
Y-69272D01*
X34335Y-69267D01*
X34505Y-69252D01*
X34654Y-69227D01*
X34784Y-69193D01*
X34893Y-69149D01*
X34983Y-69095D01*
X35052Y-69030D01*
X35102Y-68957D01*
X35132Y-68873D01*
X35142Y-68779D01*
Y-70748D01*
D02*
G37*
D10*
X210827Y-4724D02*
X211614Y-5512D01*
X201772Y-4724D02*
X210827D01*
X201772Y4724D02*
X210827D01*
X211614Y5512D01*
X145689Y29705D02*
X149626D01*
X167059Y-16838D02*
Y-16405D01*
X165197Y-18701D02*
X167059Y-16838D01*
Y-16405D02*
X167323Y-16142D01*
X165197Y-22638D02*
Y-18701D01*
X182087Y2953D02*
X198425D01*
X200197Y4724D01*
X201772D01*
X182087Y-2953D02*
X198425D01*
X200197Y-4724D01*
X201772D01*
X165197Y-26575D02*
X171260D01*
X165197Y-30512D02*
Y-26575D01*
X173228Y-24606D02*
Y0D01*
X171260Y-26575D02*
X173228Y-24606D01*
X92224Y33268D02*
X93996Y31496D01*
X21260Y21654D02*
X63484Y-20571D01*
X21358Y-8661D02*
Y-1969D01*
Y-8681D02*
Y-8661D01*
X21260Y21654D02*
Y34252D01*
X63484Y-20571D02*
X102657D01*
X13681Y1969D02*
Y8681D01*
X25098Y1969D02*
X31811D01*
X30236Y-15669D02*
X42795D01*
X25098Y-10531D02*
Y-1969D01*
Y-10531D02*
X30236Y-15669D01*
X-5906Y-33465D02*
Y-5906D01*
X30394Y-69764D02*
X42795D01*
X-5906Y-33465D02*
X30394Y-69764D01*
X29606Y78819D02*
X42795D01*
X-5906Y5906D02*
Y43307D01*
X29606Y78819D01*
X-1969Y1969D02*
X9941D01*
X-5906Y5906D02*
X-1969Y1969D01*
X-5906Y-5906D02*
X-1969Y-1969D01*
X9941D01*
X31811Y24724D02*
X42795D01*
X60630Y-1181D02*
Y46850D01*
X44055Y53268D02*
X54213D01*
X60630Y46850D01*
X54291Y49252D02*
X57874Y45669D01*
X44055Y49252D02*
X54291D01*
X60630Y-1181D02*
X67224Y-7775D01*
X57874Y-2362D02*
X65846Y-10335D01*
X57874Y-2362D02*
Y45669D01*
X65846Y-10335D02*
X102657D01*
X67224Y-7775D02*
X102657D01*
X27953Y18504D02*
Y27559D01*
Y18504D02*
X59350Y-12894D01*
X102657D01*
X28228Y41221D02*
X44055D01*
X21260Y34252D02*
X28228Y41221D01*
X18898Y20472D02*
X65059Y-25689D01*
X102657D01*
X18898Y35433D02*
X28701Y45236D01*
X18898Y20472D02*
Y35433D01*
X28701Y45236D02*
X44055D01*
X33071Y57284D02*
X44055D01*
X33071Y37205D02*
X44055D01*
X33071Y33189D02*
X44055D01*
X93996Y27559D02*
Y31496D01*
X112205Y-5217D02*
X125689D01*
X102657D02*
X112205D01*
X112362Y-5059D01*
Y-984D01*
Y12067D02*
X115157Y14862D01*
X116043D01*
X112362Y-984D02*
Y12067D01*
X116043Y14862D02*
Y19685D01*
X116043Y19685D02*
X116043Y19685D01*
X105315Y5413D02*
Y8563D01*
X106496Y9744D01*
X101772Y8563D02*
X105315D01*
X106496Y9744D02*
X107382D01*
X101821Y19636D02*
X109852D01*
X101772Y19587D02*
X101821Y19636D01*
X109852D02*
X109901Y19685D01*
X101772Y16043D02*
Y19587D01*
X81226Y8391D02*
X81504Y8670D01*
X83592D01*
X83699Y8563D01*
X98032D01*
X83366Y16043D02*
X93996D01*
Y12303D02*
X107382D01*
X98032Y8563D02*
X98032Y8563D01*
X93996Y16043D02*
X98032D01*
X132598Y33287D02*
X134370Y31516D01*
Y27579D02*
Y31516D01*
X129449Y25807D02*
X132598D01*
X134370Y27579D01*
X120098Y29705D02*
X120177Y29626D01*
X129370D02*
X129449Y29547D01*
X145689Y25610D02*
Y29705D01*
X124035Y25610D02*
Y29626D01*
Y29705D01*
X120177Y29626D02*
X124035D01*
X129370D01*
X83661Y29606D02*
X88996D01*
X79803D02*
X83661D01*
Y29685D01*
Y25591D02*
Y29606D01*
X105315Y25591D02*
Y29685D01*
X109252D01*
X88996Y29606D02*
X89075Y29528D01*
X79724Y29685D02*
X79803Y29606D01*
X92224Y25787D02*
X93996Y27559D01*
X89075Y25787D02*
X92224D01*
X121161Y-7775D02*
X125689D01*
X119095Y-9843D02*
X121161Y-7775D01*
X70866Y11811D02*
X74634Y8043D01*
X72665D02*
X80878Y-169D01*
X115984Y-984D02*
X120079D01*
X119095Y-20669D02*
Y-17717D01*
Y-23622D02*
Y-20669D01*
X119193Y-20571D02*
X125689D01*
X119095Y-20669D02*
X119193Y-20571D01*
X119095Y-17717D02*
Y-9843D01*
Y-17717D02*
X119390Y-18012D01*
X125689D01*
Y-7775D02*
X125738Y-7726D01*
X121161Y-25689D02*
X125689D01*
X119095Y-23622D02*
X121161Y-25689D01*
X109252Y-23622D02*
Y-17717D01*
Y-26575D02*
Y-23622D01*
X108760Y-23130D02*
X109252Y-23622D01*
X102657Y-23130D02*
X108760D01*
X102657Y-18012D02*
X108957D01*
X109252Y-17717D01*
X107579Y-28248D02*
X109252Y-26575D01*
X106988Y-15453D02*
X109252Y-17717D01*
X102657Y-15453D02*
X106988D01*
X102657Y-28248D02*
X107579D01*
X125738Y-7726D02*
X130856D01*
X130905Y-7677D01*
X97146Y-28248D02*
X102657D01*
D13*
X116043Y9744D02*
X127854D01*
X132874Y14764D02*
X170276D01*
X127854Y9744D02*
X132874Y14764D01*
X170276D02*
X176181Y8858D01*
Y-28248D02*
Y-8858D01*
X170276Y-23130D02*
Y-8858D01*
X176181Y2953D02*
X179134Y0D01*
X167323D02*
X170276Y2953D01*
X156496Y0D02*
X167323D01*
X134843Y-7874D02*
Y9843D01*
X137795Y12795D02*
X166339D01*
X134843Y9843D02*
X137795Y12795D01*
X166339D02*
X170276Y8858D01*
X125689Y-10335D02*
X132382D01*
X134843Y-7874D01*
X136122Y-15453D02*
X138779Y-12795D01*
X125689Y-15453D02*
X136122D01*
X138779Y-12795D02*
Y0D01*
X125689Y-12894D02*
X134843D01*
X125689Y-28248D02*
X134843D01*
X125689Y-23130D02*
X134843D01*
D15*
X81191Y35880D02*
X81701Y37205D01*
X81473Y38125D01*
X80843Y38834D01*
X79955Y39168D01*
X79014Y39049D01*
X78237Y38506D01*
X77802Y37663D01*
X77810Y36715D01*
X78258Y35880D01*
X61917Y46850D02*
X61540Y47761D01*
X61917Y46850D02*
X61540Y47761D01*
X55123Y54178D02*
X54213Y54555D01*
X55123Y54178D02*
X54213Y54555D01*
X29606Y80106D02*
X28696Y79729D01*
X29606Y80106D02*
X28696Y79729D01*
X34404Y58743D02*
X33515Y59209D01*
X32511Y59179D01*
X31652Y58660D01*
X31159Y57785D01*
Y56782D01*
X31652Y55907D01*
X32511Y55388D01*
X33515Y55358D01*
X34404Y55824D01*
X34404Y38664D02*
X33515Y39131D01*
X32511Y39100D01*
X31652Y38581D01*
X31159Y37707D01*
Y36703D01*
X31652Y35829D01*
X32511Y35309D01*
X33515Y35279D01*
X34404Y35745D01*
X34404Y34648D02*
X33515Y35115D01*
X32511Y35085D01*
X31652Y34565D01*
X31159Y33691D01*
Y32687D01*
X31652Y31813D01*
X32511Y31293D01*
X33515Y31263D01*
X34404Y31730D01*
X29412Y26226D02*
X29929Y27559D01*
X33144Y26184D02*
X32255Y26650D01*
X31252Y26620D01*
X30393Y26101D01*
X29899Y25226D01*
Y24223D01*
X30393Y23348D01*
X31252Y22829D01*
X32255Y22798D01*
X33144Y23265D01*
X82677Y17965D02*
X81739Y17664D01*
X81063Y16947D01*
X80817Y15992D01*
X81063Y15038D01*
X81739Y14321D01*
X82677Y14019D01*
X77658Y-45874D02*
X76976Y-46555D01*
X68590Y-54941D02*
X69601Y-54880D01*
X70597Y-54697D01*
X71564Y-54396D01*
X72488Y-53980D01*
X73354Y-53456D01*
X74151Y-52832D01*
X74867Y-52116D01*
X75492Y-51319D01*
X76016Y-50452D01*
X76431Y-49529D01*
X76733Y-48562D01*
X76915Y-47566D01*
X76976Y-46555D01*
X33787Y1969D02*
X33580Y2850D01*
X33002Y3546D01*
X32173Y3911D01*
X31269Y3869D01*
X30478Y3428D01*
X30478Y509D02*
X31269Y68D01*
X32173Y26D01*
X33002Y391D01*
X33580Y1087D01*
X33787Y1969D01*
X29326Y-16580D02*
X30236Y-16957D01*
X29326Y-16580D02*
X30236Y-16957D01*
X53996Y-55580D02*
X54341Y-55286D01*
X53996Y-55580D02*
X54341Y-55286D01*
X29483Y-70674D02*
X30394Y-71051D01*
X29483Y-70674D02*
X30394Y-71051D01*
X28701Y46524D02*
X27790Y46147D01*
X29929Y27559D02*
X29701Y28481D01*
X29069Y29190D01*
X28180Y29522D01*
X27238Y29402D01*
X26461Y28856D01*
X26029Y28010D01*
X26040Y27061D01*
X26493Y26226D01*
X28701Y46524D02*
X27790Y46147D01*
X26665Y18504D02*
X26797Y17937D01*
X26665Y18504D02*
X26797Y17937D01*
X17987Y36343D02*
X17610Y35433D01*
Y20472D02*
X17987Y19562D01*
Y36343D02*
X17610Y35433D01*
Y20472D02*
X17987Y19562D01*
X18728Y2791D02*
X17748Y2385D01*
X18728Y2791D02*
X17748Y2385D01*
X15141Y7348D02*
X15657Y8681D01*
X15429Y9603D01*
X14798Y10312D01*
X13908Y10644D01*
X12966Y10524D01*
X12190Y9978D01*
X11757Y9132D01*
X11768Y8183D01*
X12222Y7348D01*
X17236Y1987D02*
X16246Y1662D01*
X15559Y878D01*
X-2879Y1058D02*
X-2288Y721D01*
X-2879Y1058D02*
X-2288Y721D01*
X-6816Y44217D02*
X-7193Y43307D01*
X-6816Y44217D02*
X-7193Y43307D01*
Y5906D02*
X-6816Y4995D01*
X-7193Y5906D02*
X-6816Y4995D01*
X23335Y-8661D02*
X22818Y-7329D01*
X23811Y-10531D02*
X24188Y-11442D01*
X23811Y-10531D02*
X24188Y-11442D01*
X19899Y-7329D02*
X19446Y-8163D01*
X19434Y-9113D01*
X19867Y-9958D01*
X20643Y-10504D01*
X21585Y-10625D01*
X22475Y-10292D01*
X23107Y-9583D01*
X23335Y-8661D01*
X17436Y-1960D02*
X18353Y-1681D01*
X19031Y-1003D01*
X19310Y-86D01*
X16035Y-2761D02*
X16925Y-2358D01*
X16035Y-2761D02*
X16925Y-2358D01*
X-2288Y-721D02*
X-2879Y-1058D01*
X-2288Y-721D02*
X-2879Y-1058D01*
X-6816Y-4995D02*
X-7193Y-5906D01*
X-6816Y-4995D02*
X-7193Y-5906D01*
Y-33465D02*
X-6816Y-34375D01*
X-7193Y-33465D02*
X-6816Y-34375D01*
X75317Y97427D02*
X79711Y93033D01*
X79375Y93615D02*
X80199Y92187D01*
X70931Y99029D02*
X81312Y88648D01*
X67988Y99188D02*
X81471Y85704D01*
X81256Y89072D02*
X81471Y87438D01*
Y86614D02*
Y87438D01*
X80199Y92187D02*
X80830Y90664D01*
X81256Y89072D01*
X72948Y98546D02*
X74471Y97915D01*
X75898Y97091D01*
X69722Y99188D02*
X71356Y98973D01*
X72948Y98546D01*
X77206Y96088D02*
X78371Y94922D01*
X79375Y93615D01*
X75898Y97091D02*
X77206Y96088D01*
X57789Y51512D02*
X81471Y75194D01*
X59181Y50120D02*
X81471Y72410D01*
X54998Y54288D02*
X81471Y80762D01*
X56397Y52904D02*
X81471Y77978D01*
X61860Y47231D02*
X81471Y66842D01*
X61917Y44504D02*
X81471Y64058D01*
X60573Y48728D02*
X81471Y69626D01*
X65204Y99188D02*
X81471Y82921D01*
X62420Y99188D02*
X81471Y80137D01*
X59636Y99188D02*
X81471Y77353D01*
X56852Y99188D02*
X81471Y74569D01*
X54069Y99188D02*
X81471Y71785D01*
Y62008D02*
Y86614D01*
X52528Y57386D02*
X81471Y86330D01*
X51285Y99188D02*
X81471Y69001D01*
X48501Y99188D02*
X81471Y66217D01*
X45717Y99188D02*
X81471Y63433D01*
X38950Y63295D02*
X73834Y98179D01*
X44518Y63295D02*
X77258Y96036D01*
X47302Y63295D02*
X78613Y94607D01*
X41734Y63295D02*
X75665Y97226D01*
X42550Y80815D02*
X60923Y99188D01*
X45334Y80815D02*
X63707Y99188D01*
X36983Y80815D02*
X55356Y99188D01*
X39766Y80815D02*
X58139Y99188D01*
X50902Y80815D02*
X69275Y99188D01*
X51268Y78397D02*
X71741Y98870D01*
X48118Y80815D02*
X66491Y99188D01*
X51268Y79718D02*
X82677Y48308D01*
X51268Y76934D02*
X82677Y45524D01*
X37365Y99188D02*
X82677Y53876D01*
X34581Y99188D02*
X82677Y51092D01*
X48595Y76823D02*
X82677Y42740D01*
X45811Y76823D02*
X82677Y39957D01*
X43027Y76823D02*
X82677Y37173D01*
X50086Y63295D02*
X79752Y92962D01*
X52528Y62953D02*
X80656Y91082D01*
X42933Y99188D02*
X81471Y60650D01*
X40149Y99188D02*
X81686Y57651D01*
X52528Y60170D02*
X81277Y88919D01*
X52528Y54602D02*
X81471Y83546D01*
X40243Y76823D02*
X78397Y38669D01*
X81777Y57039D02*
X82244Y55298D01*
X82294Y55149D02*
X82677Y54225D01*
X81511Y58981D02*
X81747Y57194D01*
X81096Y38628D02*
X82677Y40209D01*
X81385Y36134D02*
X82677Y37425D01*
X81189Y35877D02*
X81704Y35362D01*
X81471Y60039D02*
Y62008D01*
X81472Y60000D02*
X81502Y59099D01*
X61917Y41721D02*
X81471Y61274D01*
X77830Y35362D02*
X78289Y35821D01*
X81151Y35362D02*
X81606D01*
X77669D02*
X78298D01*
X82677D02*
Y54225D01*
X81779Y31252D02*
X82392D01*
X81779Y35362D02*
X82677D01*
X61917Y38445D02*
X82428Y17935D01*
X82428Y31252D02*
X82677D01*
Y17965D02*
Y31252D01*
X80246D02*
X82677Y28821D01*
X77669Y35201D02*
X77830Y35362D01*
X77669Y31252D02*
Y35362D01*
X61917Y19449D02*
X77669Y35201D01*
X61917Y35662D02*
X80929Y16649D01*
X77669Y31252D02*
X80958D01*
X80994D02*
X81606D01*
X61917Y16666D02*
X77669Y32418D01*
X61917Y38937D02*
X81564Y58583D01*
X61917Y36153D02*
X81994Y56230D01*
X52528Y61755D02*
X77952Y36330D01*
X52528Y58971D02*
X77669Y33829D01*
X61917Y33369D02*
X82677Y54129D01*
X52528Y56187D02*
X54159Y54555D01*
X52793D02*
X54213D01*
X55123Y54178D02*
X61540Y47761D01*
X56358Y32869D02*
X56587Y32641D01*
X52528Y32869D02*
X56587D01*
X61917Y46797D02*
X82677Y26037D01*
X61917Y25017D02*
X82677Y45777D01*
X61917Y30585D02*
X82677Y51345D01*
X61917Y27801D02*
X82677Y48561D01*
X61917Y22233D02*
X82677Y42993D01*
X61917Y41229D02*
X82677Y20470D01*
X61917Y44013D02*
X82677Y23253D01*
X53574Y32869D02*
X56587Y29857D01*
X52467Y31193D02*
X56587Y27073D01*
X49701Y26720D02*
X55850Y32869D01*
X49683Y31193D02*
X56587Y24289D01*
X51268Y25503D02*
X56587Y30822D01*
X51268Y24040D02*
X56587Y18721D01*
X46899Y31193D02*
X56587Y21505D01*
X51268Y76823D02*
Y80815D01*
X52528Y59303D02*
Y63295D01*
X35583D02*
X52528D01*
X35583Y59303D02*
X52528D01*
X52219Y59280D02*
X52528Y58971D01*
Y55287D02*
Y59280D01*
X35583D02*
X52528D01*
X35583Y55287D02*
X52528D01*
X36166Y63295D02*
X49694Y76823D01*
X37459D02*
X50987Y63295D01*
X35583Y59303D02*
Y63295D01*
Y58593D02*
Y59280D01*
X34943Y55996D02*
X35317D01*
X35583Y55287D02*
Y55974D01*
X34943Y58571D02*
X35317D01*
X52528Y54578D02*
Y55264D01*
X35583Y47256D02*
X43736D01*
X35583Y55264D02*
X52528D01*
X35583Y51248D02*
X43736D01*
X35583Y39224D02*
X43736D01*
X35583Y39201D02*
X43736D01*
X35583Y47232D02*
X43736D01*
X35583Y47256D02*
Y51248D01*
Y46546D02*
Y47232D01*
Y51272D02*
Y55264D01*
Y51272D02*
X43736D01*
X35583Y39224D02*
Y39911D01*
Y38515D02*
Y39201D01*
X35390Y39918D02*
X35583Y39725D01*
X31798Y99188D02*
X50170Y80815D01*
X33490Y80106D02*
X52572Y99188D01*
X29014D02*
X47387Y80815D01*
X30706Y80106D02*
X49788Y99188D01*
X34323Y77175D02*
X34675Y76823D01*
X34323D02*
X51268D01*
X34323Y80815D02*
X51268D01*
X34323Y80129D02*
Y80815D01*
X29606Y80106D02*
X34057D01*
X33967Y77531D02*
X34323Y77175D01*
Y76823D02*
Y77509D01*
X30140Y77531D02*
X34057D01*
X34675Y76823D02*
X48203Y63295D01*
X34400Y58746D02*
X35583Y59928D01*
X29269Y76661D02*
X42635Y63295D01*
X31183Y77531D02*
X45419Y63295D01*
X33786Y55441D02*
X35583Y53645D01*
X33314Y46524D02*
X35583Y48792D01*
X30530Y46524D02*
X35583Y51576D01*
X32591Y39933D02*
X33365Y39159D01*
X28701Y46524D02*
X35317D01*
X29807Y39933D02*
X31431Y38309D01*
X34058Y38917D02*
X35075Y39933D01*
X28762D02*
X35317D01*
X35583Y35185D02*
X43736D01*
X52528Y32331D02*
X53066Y32869D01*
X35583Y35209D02*
X43736D01*
X35583Y34873D02*
X35895Y35185D01*
X35583Y31374D02*
X35763Y31193D01*
X35583D02*
X52528D01*
X35583D02*
Y31879D01*
Y35209D02*
Y35895D01*
Y34499D02*
Y35185D01*
X34943Y38492D02*
X35317D01*
X34943Y35917D02*
X35317D01*
X35186Y34476D02*
X35583Y34873D01*
X35055Y31902D02*
X35583Y31374D01*
X34943Y31902D02*
X35317D01*
X52528Y31193D02*
Y32869D01*
X44133Y26720D02*
X48606Y31193D01*
X41350Y26720D02*
X45822Y31193D01*
X44115D02*
X48587Y26720D01*
X46917D02*
X51390Y31193D01*
X51268Y22728D02*
Y26720D01*
X41734Y15969D02*
X48493Y22728D01*
X38547Y31193D02*
X43020Y26720D01*
X38566D02*
X43038Y31193D01*
X35763D02*
X40236Y26720D01*
X35782D02*
X40254Y31193D01*
X41331D02*
X45803Y26720D01*
X36166Y15969D02*
X42925Y22728D01*
X35876D02*
X42635Y15969D01*
X34175Y35565D02*
X35264Y34476D01*
X34943D02*
X35317D01*
X29256Y25762D02*
X35381Y31887D01*
X32956Y31216D02*
X37452Y26720D01*
X34323D02*
X51268D01*
X32744Y26467D02*
X37470Y31193D01*
X29499Y28790D02*
X32150Y31440D01*
X34323Y26034D02*
Y26720D01*
X27892Y39064D02*
X32066Y34891D01*
X33683Y26012D02*
X34057D01*
X33683Y23437D02*
X34057D01*
X29496Y26324D02*
X30103Y25718D01*
X31453Y16824D02*
X37357Y22728D01*
X32805Y23016D02*
X39851Y15969D01*
X30061Y18216D02*
X34574Y22728D01*
X29240Y23797D02*
X37068Y15969D01*
X34323Y22728D02*
X51268D01*
X33382Y15969D02*
X40141Y22728D01*
X32308Y15969D02*
X42748D01*
X34323Y22728D02*
Y23415D01*
X29240Y22963D02*
X30069Y23791D01*
X29240Y19037D02*
Y25687D01*
Y21013D02*
X34284Y15969D01*
X29240Y19037D02*
X32308Y15969D01*
X29240Y20179D02*
X31809Y22748D01*
X72170Y-6488D02*
X82677Y4019D01*
Y-6488D02*
Y4443D01*
X65788Y-4519D02*
X82677Y12370D01*
X65788Y-4519D02*
X82677Y12370D01*
X77738Y-6488D02*
X82677Y-1549D01*
X80522Y-6488D02*
X82677Y-4333D01*
X67758Y-6488D02*
X82677D01*
X74954D02*
X82677Y1235D01*
Y11783D02*
Y14019D01*
X79007Y8113D02*
X82677Y11783D01*
X64396Y-3127D02*
X81804Y14281D01*
X79007Y8113D02*
X82677Y4443D01*
X69386Y-6488D02*
X81497Y5623D01*
X67180Y-5911D02*
X80105Y7015D01*
X82208Y-45874D02*
X82677Y-46344D01*
Y-54225D02*
Y-45874D01*
X77658D02*
X82677D01*
X79424D02*
X82677Y-49128D01*
X82523Y-54597D02*
X82677Y-54443D01*
X82294Y-55149D02*
X82677Y-54225D01*
X77038Y-46272D02*
X82677Y-51911D01*
X76694Y-48712D02*
X82539Y-54558D01*
X76416Y-49568D02*
X80110Y-45874D01*
X75887Y-50689D02*
X81874Y-56676D01*
X74707Y-52292D02*
X81504Y-59089D01*
X73194Y-53564D02*
X81471Y-61841D01*
X61917Y5530D02*
X82677Y26290D01*
X61917Y24526D02*
X82677Y3766D01*
X61917Y32878D02*
X82677Y12118D01*
X61917Y8314D02*
X82677Y29074D01*
X61917Y21742D02*
X82677Y982D01*
X61917Y-38D02*
X82677Y20722D01*
X61917Y2746D02*
X82677Y23506D01*
X61917Y11098D02*
X82072Y31252D01*
X61917Y30094D02*
X81453Y10558D01*
X61917Y13882D02*
X79288Y31252D01*
X61917Y-648D02*
Y46850D01*
Y27310D02*
X80061Y9166D01*
X63004Y-1735D02*
X80819Y16080D01*
X43341Y15575D02*
X56587D01*
X61917Y13390D02*
X81796Y-6488D01*
X61917Y10607D02*
X79012Y-6488D01*
X61917Y18958D02*
X82677Y-1802D01*
X61917Y16174D02*
X82677Y-4586D01*
X32364Y-99188D02*
X82677Y-48875D01*
X35148Y-99188D02*
X82677Y-51659D01*
X29580Y-99188D02*
X82677Y-46091D01*
X61917Y2255D02*
X70661Y-6488D01*
X61917Y-529D02*
X67877Y-6488D01*
X61917Y7823D02*
X76228Y-6488D01*
X61917Y5039D02*
X73444Y-6488D01*
X61917Y-648D02*
X67758Y-6488D01*
X51268Y-15915D02*
X57079Y-19530D01*
X51268Y-13718D02*
X57079Y-19530D01*
X81777Y-57039D02*
X82244Y-55298D01*
X81511Y-58981D02*
X81747Y-57194D01*
X81472Y-60000D02*
X81502Y-59099D01*
X57868Y-54941D02*
X81471Y-78544D01*
Y-86614D02*
Y-62008D01*
Y-87438D02*
Y-86614D01*
X81256Y-89072D02*
X81471Y-87438D01*
X71328Y-54482D02*
X81471Y-64625D01*
X68994Y-54931D02*
X81471Y-67409D01*
X66220Y-54941D02*
X81471Y-70193D01*
X63436Y-54941D02*
X81471Y-72977D01*
X81471Y-60039D02*
X81471Y-62008D01*
X80830Y-90664D02*
X81256Y-89072D01*
X60652Y-54941D02*
X81471Y-75761D01*
X65771Y-99188D02*
X81471Y-83487D01*
X68555Y-99188D02*
X81471Y-86271D01*
X60203Y-99188D02*
X81471Y-77920D01*
X62987Y-99188D02*
X81471Y-80703D01*
X80199Y-92187D02*
X80830Y-90664D01*
X79375Y-93615D02*
X80199Y-92187D01*
X71626Y-98900D02*
X81184Y-89342D01*
X78371Y-94922D02*
X79375Y-93615D01*
X77206Y-96088D02*
X78371Y-94922D01*
X75898Y-97091D02*
X77206Y-96088D01*
X74471Y-97915D02*
X75898Y-97091D01*
X72948Y-98546D02*
X74471Y-97915D01*
X71356Y-98973D02*
X72948Y-98546D01*
X69722Y-99188D02*
X71356Y-98973D01*
X55084Y-54941D02*
X81471Y-81328D01*
X53996Y-56637D02*
X81471Y-84112D01*
X45740Y-56732D02*
X80491Y-91483D01*
X42956Y-56732D02*
X79545Y-93321D01*
X51308Y-56732D02*
X81471Y-86896D01*
X51268Y-67828D02*
X78367Y-94927D01*
X48524Y-56732D02*
X81173Y-89382D01*
X49865Y-67768D02*
X62692Y-54941D01*
X51268Y-69149D02*
X65476Y-54941D01*
X44297Y-67768D02*
X57124Y-54941D01*
X47081Y-67768D02*
X59908Y-54941D01*
X54686D02*
X68590D01*
X51268Y-70612D02*
X76944Y-96289D01*
X49632Y-71760D02*
X75305Y-97434D01*
X46284Y-99188D02*
X81471Y-64000D01*
X49067Y-99188D02*
X81471Y-66784D01*
X37932Y-99188D02*
X82523Y-54597D01*
X40716Y-99188D02*
X81600Y-58303D01*
X54635Y-99188D02*
X81471Y-72352D01*
X57419Y-99188D02*
X81471Y-75136D01*
X51851Y-99188D02*
X81471Y-69568D01*
X38496Y-71760D02*
X65924Y-99188D01*
X43500D02*
X81471Y-61216D01*
X32220Y-71051D02*
X60357Y-99188D01*
X35713Y-71760D02*
X63140Y-99188D01*
X46848Y-71760D02*
X73433Y-98345D01*
X44064Y-71760D02*
X71286Y-98982D01*
X41280Y-71760D02*
X68708Y-99188D01*
X47012Y22728D02*
X54164Y15575D01*
X56587D02*
Y32869D01*
X44124Y15575D02*
X56587Y28038D01*
X46908Y15575D02*
X56587Y25254D01*
X52476Y15575D02*
X56587Y19687D01*
X55260Y15575D02*
X56587Y16903D01*
X49796Y22728D02*
X56587Y15937D01*
X49692Y15575D02*
X56587Y22470D01*
X41444Y22728D02*
X48597Y15575D01*
X44228Y22728D02*
X51381Y15575D01*
X38950Y15969D02*
X45709Y22728D01*
X38660D02*
X45813Y15575D01*
X42795Y15989D02*
X43021Y15895D01*
X43341Y15575D01*
X39930Y-13673D02*
X45576Y-8027D01*
X51477Y-16046D02*
X52536Y-14987D01*
X53194Y-17113D02*
X53928Y-16379D01*
X51268Y-15915D02*
Y-13718D01*
Y-14934D02*
X53863Y-17529D01*
X53194Y-17113D02*
X53928Y-16379D01*
X50074Y-29724D02*
Y-17665D01*
X40080D02*
X50074Y-27660D01*
X45498Y-13673D02*
X48360Y-10811D01*
X48282Y-13673D02*
X49752Y-12203D01*
X42714Y-13673D02*
X46968Y-9419D01*
X37798Y-29724D02*
X49857Y-17665D01*
X48431D02*
X50074Y-19308D01*
X45647Y-17665D02*
X50074Y-22092D01*
X42863Y-17665D02*
X50074Y-24876D01*
X33089Y461D02*
X47223Y-13673D01*
X33656Y2678D02*
X50007Y-13673D01*
X29428Y-13040D02*
X40009Y-2459D01*
X30103Y663D02*
X44439Y-13673D01*
X34362D02*
X42792Y-5243D01*
X37146Y-13673D02*
X44184Y-6635D01*
X34323Y-13673D02*
X51223D01*
X32403Y3854D02*
X33049Y4501D01*
X33738Y2406D02*
X34441Y3108D01*
X29021Y3256D02*
X31657Y5892D01*
X34323Y-14359D02*
Y-13673D01*
X28036Y-11648D02*
X38617Y-1067D01*
X34323Y-17477D02*
X34512Y-17665D01*
X46571Y-29724D01*
X30870Y-14382D02*
X41401Y-3851D01*
X31019Y-16957D02*
X43787Y-29724D01*
X35015D02*
X47074Y-17665D01*
X37296D02*
X49355Y-29724D01*
X34323Y-17665D02*
X50074D01*
X30770Y-14382D02*
X34057D01*
X33654D02*
X34323Y-13713D01*
X33803Y-16957D02*
X34323Y-17477D01*
Y-17665D02*
Y-16979D01*
X30236Y-16957D02*
X34057D01*
X54910Y-18181D02*
X55320Y-17771D01*
X46150Y-29724D02*
X50074Y-25800D01*
X40582Y-29724D02*
X50074Y-20233D01*
X43366Y-29724D02*
X50074Y-23017D01*
X48934Y-29724D02*
X50074Y-28584D01*
X49164Y-40669D02*
X50862Y-42367D01*
X46380Y-40669D02*
X50862Y-45151D01*
X40582Y-29724D02*
X50074Y-20233D01*
X38439Y-45787D02*
X43557Y-40669D01*
X35655Y-45787D02*
X40773Y-40669D01*
X38028D02*
X43147Y-45787D01*
X41223D02*
X46341Y-40669D01*
X43596D02*
X48714Y-45787D01*
X40812Y-40669D02*
X45930Y-45787D01*
X54341Y-55286D02*
X54686Y-54941D01*
X53996Y-56732D02*
Y-55580D01*
X41513Y-67768D02*
X52549Y-56732D01*
X51268Y-71760D02*
Y-67768D01*
X40172Y-56732D02*
X51208Y-67768D01*
X49574Y-45787D02*
X50862Y-44500D01*
Y-45787D02*
Y-40669D01*
X44006Y-45787D02*
X49125Y-40669D01*
X46790Y-45787D02*
X50862Y-41716D01*
X37388Y-56732D02*
X48424Y-67768D01*
X38729D02*
X49765Y-56732D01*
X35945Y-67768D02*
X46981Y-56732D01*
X34114Y-39539D02*
X35245Y-40669D01*
X40363Y-45787D01*
X34114Y-29724D02*
X50074D01*
X34114Y-30625D02*
X35015Y-29724D01*
X34114Y-45787D02*
X50862D01*
X34114Y-56732D02*
X53996D01*
X34114Y-40669D02*
X50862D01*
X34114Y-36654D02*
Y-33740D01*
Y-40669D02*
Y-36654D01*
Y-33740D02*
Y-29724D01*
Y-36654D02*
Y-33740D01*
Y-52716D02*
Y-49803D01*
Y-52716D02*
Y-49803D01*
Y-45787D01*
Y-56242D02*
X34604Y-56732D01*
X32453Y-68476D02*
X44197Y-56732D01*
X28906Y-66456D02*
X38629Y-56732D01*
X30298Y-67847D02*
X41413Y-56732D01*
X34604D02*
X45640Y-67768D01*
X34323Y-71760D02*
X51268D01*
X34323Y-67768D02*
X51268D01*
X34114Y-56732D02*
Y-52716D01*
X34323Y-68454D02*
Y-67768D01*
X30927Y-68476D02*
X34057D01*
X30394Y-71051D02*
X34057D01*
X34323Y-71760D02*
Y-71074D01*
X20662Y99188D02*
X39035Y80815D01*
X23446Y99188D02*
X41819Y80815D01*
X17878Y99188D02*
X36251Y80815D01*
X15094Y99188D02*
X34160Y80123D01*
X26485Y73877D02*
X37067Y63295D01*
X27877Y75269D02*
X39851Y63295D01*
X26230Y99188D02*
X44603Y80815D01*
X25093Y72485D02*
X35583Y61996D01*
X6743Y99188D02*
X27449Y78482D01*
X3959Y99188D02*
X26057Y77090D01*
X1175Y99188D02*
X24665Y75698D01*
X-1609Y99188D02*
X23273Y74306D01*
X12310Y99188D02*
X31392Y80106D01*
X22310Y69701D02*
X32774Y59237D01*
X9527Y99188D02*
X28852Y79862D01*
X23701Y71093D02*
X35583Y59212D01*
X20918Y68310D02*
X31229Y57999D01*
X19526Y66918D02*
X35583Y50861D01*
X18134Y65526D02*
X35583Y48077D01*
X15350Y62742D02*
X31568Y46524D01*
X16742Y64134D02*
X34352Y46524D01*
X13958Y61350D02*
X28784Y46524D01*
X12566Y59958D02*
X27084Y45440D01*
X11174Y58566D02*
X25692Y44048D01*
X9782Y57174D02*
X24300Y42656D01*
X8390Y55782D02*
X22908Y41264D01*
X6998Y54390D02*
X21516Y39872D01*
X5606Y52998D02*
X20124Y38480D01*
X4214Y51606D02*
X18732Y37088D01*
X-6816Y44217D02*
X28696Y79729D01*
X-4618Y42774D02*
X30140Y77531D01*
X-18541Y99188D02*
X69722D01*
X-30290Y38597D02*
X30301Y99188D01*
X-4618Y39214D02*
X33699Y77531D01*
X-4618Y36430D02*
X35774Y76823D01*
X-4618Y41998D02*
X30915Y77531D01*
X-4393Y99188D02*
X21881Y72914D01*
X-7177Y99188D02*
X20489Y71522D01*
X-9961Y99188D02*
X19097Y70130D01*
X-30290Y49733D02*
X19165Y99188D01*
X-30290Y44165D02*
X24733Y99188D01*
X-30290Y41381D02*
X27517Y99188D01*
X-30290Y46949D02*
X21949Y99188D01*
X-30290Y24678D02*
X44220Y99188D01*
X-30290Y21894D02*
X47004Y99188D01*
X-30290Y30245D02*
X38652Y99188D01*
X-30290Y27461D02*
X41436Y99188D01*
X-4618Y28079D02*
X44126Y76823D01*
X-4618Y25295D02*
X46910Y76823D01*
X-4618Y30863D02*
X41342Y76823D01*
X-4618Y33647D02*
X38558Y76823D01*
X-4618Y22511D02*
X35583Y62712D01*
X-30290Y35813D02*
X33084Y99188D01*
X-30290Y33029D02*
X35868Y99188D01*
X-4618Y16943D02*
X33954Y55515D01*
X-4618Y14159D02*
X35583Y54360D01*
X-4618Y19727D02*
X31609Y55954D01*
X26500Y37672D02*
X31098Y33075D01*
X22547Y27405D02*
X31359Y36217D01*
X25109Y36280D02*
X34668Y26720D01*
X27375Y29449D02*
X31095Y33169D01*
X23717Y34888D02*
X31906Y26698D01*
X22547Y30490D02*
X26066Y26971D01*
X22547Y33273D02*
X26718Y29102D01*
X22547Y22187D02*
Y33719D01*
Y27706D02*
X26665Y23587D01*
X22722Y22012D02*
X26639Y25929D01*
X22547Y24621D02*
X26063Y28137D01*
X26926Y3945D02*
X30265Y7284D01*
X26976Y3278D02*
Y3945D01*
X24142D02*
X28873Y8676D01*
X26821Y3945D02*
X26976Y3789D01*
X27242Y3256D02*
X29939D01*
X27242Y681D02*
X29939D01*
X26976Y3789D02*
X27510Y3256D01*
X25506Y19228D02*
X26665Y20388D01*
Y18504D02*
Y25687D01*
X22547Y24922D02*
X26665Y20804D01*
X24114Y20620D02*
X26665Y23172D01*
X23236Y3945D02*
X26976D01*
X22547Y32973D02*
X29507Y39933D01*
X22547Y30189D02*
X32291Y39933D01*
X17987Y36343D02*
X27790Y46147D01*
X22547Y33719D02*
X28762Y39933D01*
X22547Y22187D02*
X26797Y17937D01*
X14968Y5907D02*
X23305Y14244D01*
X-4618Y32600D02*
X24037Y3945D01*
X-4618Y29816D02*
X21253Y3945D01*
X15563Y9285D02*
X21913Y15636D01*
X14105Y10611D02*
X20522Y17028D01*
X-4618Y35384D02*
X26821Y3945D01*
X15559Y3714D02*
X24697Y12852D01*
X-4618Y40952D02*
X32520Y3813D01*
X-4618Y38168D02*
X30254Y3296D01*
X19480Y3945D02*
X23221D01*
X21358D02*
X27481Y10068D01*
X16362Y1733D02*
X26089Y11460D01*
X19480Y2832D02*
Y3945D01*
X19085Y2806D02*
X19285Y2811D01*
X3966Y3256D02*
X19129Y18420D01*
X15112Y7302D02*
X19480Y2934D01*
X18728Y2791D02*
X19018D01*
X-12745Y99188D02*
X17705Y68738D01*
X-15528Y99188D02*
X16313Y67346D01*
X-20175Y98973D02*
X-18541Y99188D01*
X-30098Y88899D02*
X-20002Y98996D01*
X-21767Y98546D02*
X-20175Y98973D01*
X-23290Y97915D02*
X-21767Y98546D01*
X-24717Y97091D02*
X-23290Y97915D01*
X-28231Y93550D02*
X-24652Y97129D01*
X-26025Y96088D02*
X-24717Y97091D01*
X-27190Y94922D02*
X-26025Y96088D01*
X-28194Y93615D02*
X-27190Y94922D01*
X-29018Y92187D02*
X-28194Y93615D01*
X-29649Y90664D02*
X-29018Y92187D01*
X-30075Y89072D02*
X-29649Y90664D01*
X-30290Y86614D02*
Y87438D01*
X-18312Y99188D02*
X14921Y65954D01*
X2822Y50214D02*
X17610Y35427D01*
X-20732Y98823D02*
X13529Y64562D01*
X-22807Y98115D02*
X12137Y63170D01*
X1431Y48822D02*
X17610Y32643D01*
X38Y47431D02*
X17610Y29859D01*
X-1353Y46038D02*
X17610Y27075D01*
X-24622Y97146D02*
X10745Y61779D01*
X-26186Y95926D02*
X9353Y60387D01*
X-27527Y94483D02*
X7961Y58995D01*
X-28651Y92823D02*
X6570Y57603D01*
X-29539Y90928D02*
X5178Y56211D01*
X-30121Y88725D02*
X3786Y54819D01*
X-30290Y55488D02*
X-7193Y32391D01*
X-30290Y63652D02*
X5246Y99188D01*
X-30290Y60868D02*
X8029Y99188D01*
X-30290Y69220D02*
X-322Y99188D01*
X-30290Y66436D02*
X2462Y99188D01*
X-30290Y55300D02*
X13597Y99188D01*
X-30290Y86111D02*
X2394Y53427D01*
X-30290Y58084D02*
X10813Y99188D01*
X-30290Y80355D02*
X-11458Y99188D01*
X-30290Y77571D02*
X-8674Y99188D01*
X-30290Y85923D02*
X-17025Y99188D01*
X-30290Y83139D02*
X-14242Y99188D01*
X-30290Y87438D02*
X-30075Y89072D01*
X-30290Y72004D02*
X-3106Y99188D01*
X-30290Y74787D02*
X-5890Y99188D01*
X-30290Y80543D02*
X-390Y50643D01*
X-30290Y77759D02*
X-1782Y49251D01*
X-30290Y52517D02*
X16381Y99188D01*
X-30290Y83327D02*
X1002Y52035D01*
X-30290Y72192D02*
X-4566Y46467D01*
X-30290Y69408D02*
X-5958Y45075D01*
X-30290Y74975D02*
X-3174Y47859D01*
X-30290Y61056D02*
X-7193Y37959D01*
X-30290Y58272D02*
X-7193Y35175D01*
X-30290Y66624D02*
X-7177Y43510D01*
X-30290Y63840D02*
X-7193Y40742D01*
X-30290Y49920D02*
X-7193Y26823D01*
X-30290Y47137D02*
X-7193Y24039D01*
X-30290Y52704D02*
X-7193Y29607D01*
X-2745Y44647D02*
X17610Y24291D01*
Y20472D02*
Y35433D01*
X-4137Y43255D02*
X17610Y21507D01*
X-4303Y6123D02*
X17610Y28036D01*
X-1519Y3339D02*
X17610Y22468D01*
X-2911Y4731D02*
X17610Y25252D01*
X12394Y4211D02*
Y6809D01*
X14968Y4211D02*
Y6809D01*
X10222Y3945D02*
X12394Y6116D01*
X11819Y3945D02*
X12371D01*
X14991D02*
X15559D01*
X8063D02*
X11803D01*
X14968Y4662D02*
X17482Y2148D01*
X15559Y878D02*
Y3945D01*
X1182Y3256D02*
X17773Y19847D01*
X6750Y3256D02*
X11751Y8257D01*
X17432Y2102D02*
X17592Y2250D01*
X15559Y1287D02*
X15710Y1136D01*
X8063Y3279D02*
Y3945D01*
X-4618Y6439D02*
X-1435Y3256D01*
X-4618Y10329D02*
X2455Y3256D01*
X-4618Y7545D02*
X-329Y3256D01*
X-1435D02*
X7797D01*
X-4618Y11376D02*
X17610Y33604D01*
X-30290Y10758D02*
X-7193Y33856D01*
X-4618Y27032D02*
X12310Y10104D01*
X-4618Y8592D02*
X17610Y30820D01*
X-30290Y33217D02*
X-7193Y10120D01*
X-30290Y41569D02*
X-7193Y18472D01*
X-30290Y16326D02*
X-7193Y39423D01*
X-30290Y44353D02*
X-7193Y21255D01*
X-30290Y19110D02*
X-7193Y42207D01*
X-30290Y13542D02*
X-7193Y36639D01*
X-30290Y36001D02*
X-7193Y12904D01*
X-30290Y38785D02*
X-7193Y15688D01*
X-4618Y21464D02*
X12394Y4453D01*
X-4618Y18681D02*
X10118Y3945D01*
X-4618Y24248D02*
X12020Y7610D01*
X-4618Y6439D02*
Y42774D01*
Y15897D02*
X8004Y3275D01*
X-4618Y13113D02*
X5239Y3256D01*
X-6816Y4995D02*
X-2879Y1058D01*
X-7193Y5906D02*
Y43307D01*
X-30290Y5190D02*
X-7193Y28288D01*
X-30290Y7974D02*
X-7193Y31072D01*
X-30290Y30433D02*
X-7193Y7336D01*
X-30290Y2407D02*
X-7193Y25504D01*
X26976Y8D02*
Y659D01*
Y-1572D02*
X29230Y681D01*
X26386Y-4947D02*
X31374Y41D01*
X26386Y-7730D02*
X35833Y1717D01*
X26408Y-3945D02*
X26976D01*
Y-8D01*
X22646Y-5799D02*
X23811Y-6965D01*
X23248Y-8084D02*
X23811Y-7521D01*
X23236Y-3945D02*
X23788D01*
X23575D02*
X23802Y-4172D01*
X22668Y-3945D02*
X23221D01*
X20071Y-6790D02*
Y-4211D01*
X22646Y-5903D02*
X23811Y-4737D01*
X22646Y-6790D02*
Y-4211D01*
X26976Y-1778D02*
X38871Y-13673D01*
X27301Y681D02*
X41655Y-13673D01*
X26644Y-10256D02*
X37225Y325D01*
X26405Y-3991D02*
X36087Y-13673D01*
X26386Y-6756D02*
X34012Y-14382D01*
X26386Y-9539D02*
X31228Y-14382D01*
X21853Y-10575D02*
X41003Y-29724D01*
X26386Y-9998D02*
Y-4211D01*
Y-9998D02*
X30770Y-14382D01*
X23260Y-9198D02*
X23811Y-9749D01*
Y-10531D02*
Y-4211D01*
X24188Y-11442D02*
X29326Y-16580D01*
X17987Y19562D02*
X51223Y-13673D01*
X9656Y-3945D02*
X35435Y-29724D01*
X6183Y-3256D02*
X34114Y-31187D01*
X3399Y-3256D02*
X34114Y-33971D01*
X12440Y-3945D02*
X38219Y-29724D01*
X-3108Y-34441D02*
X20781Y-10552D01*
X19480Y2D02*
X19702Y2D01*
X19480Y-3945D02*
Y-8D01*
X16640Y-2577D02*
X20071Y-6008D01*
X-4618Y-24815D02*
X19480Y-716D01*
Y-3945D02*
X20048D01*
X-4618Y-30383D02*
X20071Y-5694D01*
X-4618Y-27599D02*
X19480Y-3500D01*
X-4586Y-6407D02*
X34795Y-45787D01*
X-3194Y-5015D02*
X37579Y-45787D01*
X-4618Y-9158D02*
X34114Y-47890D01*
X-30290Y-11325D02*
X57573Y-99188D01*
X-4618Y-11942D02*
X34114Y-50674D01*
X-4618Y-14726D02*
X34114Y-53458D01*
X-30290Y-14109D02*
X54789Y-99188D01*
X615Y-3256D02*
X34114Y-36755D01*
X-325Y-37225D02*
X24823Y-12077D01*
X-1717Y-35833D02*
X23811Y-10305D01*
X-1802Y-3623D02*
X34114Y-39539D01*
X2459Y-40009D02*
X27607Y-14861D01*
X3851Y-41401D02*
X28999Y-16253D01*
X1067Y-38617D02*
X26215Y-13469D01*
X10811Y-48360D02*
X41506Y-17665D01*
X12203Y-49752D02*
X44290Y-17665D01*
X8027Y-45576D02*
X35938Y-17665D01*
X9419Y-46968D02*
X38722Y-17665D01*
X20554Y-58104D02*
X37989Y-40669D01*
X21946Y-59496D02*
X34114Y-47328D01*
X19162Y-56712D02*
X35205Y-40669D01*
X13595Y-51144D02*
X34114Y-30625D01*
X14987Y-52536D02*
X34114Y-33409D01*
X5243Y-42792D02*
X31079Y-16957D01*
X6635Y-44184D02*
X33863Y-16957D01*
X16379Y-53928D02*
X34114Y-36193D01*
X17771Y-55320D02*
X34114Y-38976D01*
X16379Y-53928D02*
X34114Y-36193D01*
X24013Y-99188D02*
X68260Y-54941D01*
X26796Y-99188D02*
X71603Y-54381D01*
X10093Y-99188D02*
X37521Y-71760D01*
X12877Y-99188D02*
X40305Y-71760D01*
X18445Y-99188D02*
X45873Y-71760D01*
X21229Y-99188D02*
X48657Y-71760D01*
X15661Y-99188D02*
X43089Y-71760D01*
X26122Y-63672D02*
X34114Y-55680D01*
X27514Y-65064D02*
X35845Y-56732D01*
X23338Y-60888D02*
X34114Y-50112D01*
X24730Y-62280D02*
X34114Y-52896D01*
X4525Y-99188D02*
X32662Y-71051D01*
X7309Y-99188D02*
X34737Y-71760D01*
X1742Y-99188D02*
X29955Y-70974D01*
X-4618Y-20294D02*
X42856Y-67768D01*
X-4618Y-23078D02*
X40072Y-67768D01*
X-4618Y-17510D02*
X34114Y-56242D01*
X-30290Y-16893D02*
X52005Y-99188D01*
X-4618Y-25861D02*
X37288Y-67768D01*
X-4618Y-28645D02*
X34504Y-67768D01*
X-30290Y-30812D02*
X38086Y-99188D01*
X-4618Y-31429D02*
X32429Y-68476D01*
X-4618Y-32931D02*
X30927Y-68476D01*
X-6816Y-34375D02*
X29483Y-70674D01*
X-30290Y-36380D02*
X32518Y-99188D01*
X-30290Y-44731D02*
X24166Y-99188D01*
X-30290Y-47515D02*
X21382Y-99188D01*
X-30290Y-41947D02*
X26950Y-99188D01*
X-30290Y-25244D02*
X43653Y-99188D01*
X-30290Y-28028D02*
X40870Y-99188D01*
X-30290Y-19677D02*
X49221Y-99188D01*
X-30290Y-22460D02*
X46437Y-99188D01*
X-30290Y-39164D02*
X29734Y-99188D01*
X-18541D02*
X69722D01*
X-30290Y-33596D02*
X35302Y-99188D01*
X-12178D02*
X22910Y-64100D01*
X-9394Y-99188D02*
X24302Y-65492D01*
X-17746Y-99188D02*
X20126Y-61317D01*
X-14962Y-99188D02*
X21518Y-62708D01*
X-3826Y-99188D02*
X27085Y-68276D01*
X-1042Y-99188D02*
X28477Y-69668D01*
X-6610Y-99188D02*
X25694Y-66884D01*
X18459Y-1613D02*
X19480Y-2634D01*
X17080Y-2224D02*
X17240Y-2076D01*
X15755Y-2784D02*
X15954Y-2779D01*
X11819Y-3945D02*
X15559D01*
Y-2806D01*
X-2288Y-721D02*
Y721D01*
X-6816Y-4995D02*
X-2879Y-1058D01*
X8063Y-3945D02*
Y-3278D01*
Y-3945D02*
X11803D01*
X-1435Y-3256D02*
X7797D01*
X-4618Y-16463D02*
X8063Y-3782D01*
X-4618Y-19247D02*
X10684Y-3945D01*
X-4618Y-10896D02*
X3022Y-3256D01*
X-4618Y-13679D02*
X5805Y-3256D01*
X15224Y-3945D02*
X19445Y-8166D01*
X-4501Y-33049D02*
X19434Y-9114D01*
X-4618Y-22031D02*
X13468Y-3945D01*
X-4618Y-6439D02*
X-1435Y-3256D01*
X-4618Y-8112D02*
X238Y-3256D01*
X-4618Y-32931D02*
Y-6439D01*
X-7193Y-33465D02*
Y-5906D01*
X-30290Y-36568D02*
X-7193Y-13470D01*
X-30290Y22082D02*
X-5015Y-3194D01*
X-30290Y19298D02*
X-6407Y-4586D01*
X-30290Y27649D02*
X-2288Y-353D01*
X-30290Y24866D02*
X-3623Y-1802D01*
X-30290Y-14297D02*
X-7193Y8801D01*
X-30290Y8162D02*
X-7193Y-14935D01*
X-30290Y10946D02*
X-7193Y-12151D01*
X-30290Y-5945D02*
X-7193Y17152D01*
X-30290Y16514D02*
X-7193Y-6583D01*
X-30290Y-377D02*
X-7193Y22720D01*
X-30290Y-3161D02*
X-7193Y19936D01*
X-30290Y13730D02*
X-7193Y-9367D01*
X-30290Y-11513D02*
X-7193Y11585D01*
X-30290Y-8729D02*
X-7193Y14368D01*
X-30290Y-25432D02*
X-3339Y1519D01*
X-30290Y-28216D02*
X-2288Y-214D01*
X-30290Y-19864D02*
X-6123Y4303D01*
X-30290Y-22648D02*
X-4731Y2911D01*
X-30290Y-8541D02*
X-7193Y-31638D01*
X-30290Y-33784D02*
X-7193Y-10687D01*
X-30290Y-31000D02*
X-7193Y-7903D01*
X-30290Y5378D02*
X-7193Y-17719D01*
X-30290Y2595D02*
X-7193Y-20503D01*
X-30290Y-17081D02*
X-7193Y6017D01*
X-30290Y-86614D02*
Y86614D01*
Y-2973D02*
X-7193Y-26071D01*
X-30290Y-5757D02*
X-7193Y-28854D01*
X-30290Y-189D02*
X-7193Y-23287D01*
X-28443Y-93182D02*
X11774Y-52965D01*
X-30038Y-89210D02*
X8990Y-50181D01*
X-29373Y-91329D02*
X10382Y-51573D01*
X-25887Y-96194D02*
X14558Y-55749D01*
X-25887Y-96194D02*
X14558Y-55749D01*
X-27281Y-94804D02*
X13166Y-54357D01*
X-29018Y-92187D02*
X-28194Y-93615D01*
X-30075Y-89072D02*
X-29649Y-90664D01*
X-29018Y-92187D01*
X-27190Y-94922D02*
X-26025Y-96088D01*
X-24717Y-97091D01*
X-28194Y-93615D02*
X-27190Y-94922D01*
X-24263Y-97354D02*
X15950Y-57141D01*
X-22407Y-98281D02*
X17342Y-58533D01*
X-30290Y-55867D02*
X13031Y-99188D01*
X-30290Y-58651D02*
X10247Y-99188D01*
X-20285Y-98943D02*
X18734Y-59925D01*
X-30290Y-64219D02*
X4679Y-99188D01*
X-30290Y-61435D02*
X7463Y-99188D01*
X-24717Y-97091D02*
X-23290Y-97915D01*
X-29923Y-89641D02*
X-20743Y-98820D01*
X-30290Y-67002D02*
X1895Y-99188D01*
X-30290Y-69786D02*
X-889Y-99188D01*
X-21767Y-98546D02*
X-20175Y-98973D01*
X-18541Y-99188D01*
X-23290Y-97915D02*
X-21767Y-98546D01*
X-30290Y-64407D02*
X-3537Y-37653D01*
X-30290Y-67190D02*
X-2145Y-39045D01*
X-30290Y-58839D02*
X-6321Y-34870D01*
X-30290Y-61623D02*
X-4929Y-36261D01*
X-30290Y-72758D02*
X639Y-41829D01*
X-30290Y-75542D02*
X2031Y-43221D01*
X-30290Y-69974D02*
X-753Y-40437D01*
X-30290Y-44919D02*
X-7193Y-21822D01*
X-30290Y-47703D02*
X-7193Y-24606D01*
X-30290Y-39352D02*
X-7193Y-16254D01*
X-30290Y-42135D02*
X-7193Y-19038D01*
X-30290Y-53271D02*
X-7193Y-30174D01*
X-30290Y-56055D02*
X-7193Y-32958D01*
X-30290Y-50487D02*
X-7193Y-27390D01*
X-30290Y-83894D02*
X6206Y-47397D01*
X-30290Y-86677D02*
X7598Y-48789D01*
X-30290Y-78326D02*
X3422Y-44613D01*
X-30290Y-81110D02*
X4814Y-46005D01*
X-30290Y-53083D02*
X15815Y-99188D01*
X-30290Y-72570D02*
X-3673Y-99188D01*
X-30290Y-50299D02*
X18598Y-99188D01*
X-30290Y-80922D02*
X-12024Y-99188D01*
X-30290Y-83706D02*
X-14808Y-99188D01*
X-30290Y-75354D02*
X-6456Y-99188D01*
X-30290Y-78138D02*
X-9240Y-99188D01*
X-30290Y-87438D02*
Y-86614D01*
Y-87438D02*
X-30075Y-89072D01*
X-30290Y-86490D02*
X-17592Y-99188D01*
D16*
X164370Y-8858D02*
D03*
Y-2953D02*
D03*
X182087Y-8858D02*
D03*
X176181D02*
D03*
X170276D02*
D03*
X182087Y-2953D02*
D03*
X176181D02*
D03*
X170276D02*
D03*
X182087Y2953D02*
D03*
X176181D02*
D03*
X170276D02*
D03*
X164370D02*
D03*
X182087Y8858D02*
D03*
X176181D02*
D03*
X170276D02*
D03*
X164370D02*
D03*
D32*
X77658Y-43020D02*
X76742Y-43140D01*
X75890Y-43493D01*
X75158Y-44055D01*
X74596Y-44787D01*
X74243Y-45640D01*
X74122Y-46555D01*
X68590Y-50406D02*
X69587Y-50274D01*
X70516Y-49890D01*
X71313Y-49278D01*
X71925Y-48480D01*
X72310Y-47552D01*
X72441Y-46555D01*
X77658Y-41339D02*
X76640Y-41439D01*
X75661Y-41736D01*
X74759Y-42218D01*
X73969Y-42867D01*
X73320Y-43657D01*
X72838Y-44559D01*
X72541Y-45537D01*
X72441Y-46555D01*
X68590Y-52087D02*
X69551Y-52003D01*
X70482Y-51753D01*
X71356Y-51345D01*
X72146Y-50792D01*
X72828Y-50111D01*
X73381Y-49321D01*
X73788Y-48447D01*
X74038Y-47516D01*
X74122Y-46555D01*
X160433Y-5065D02*
X161573Y-4915D01*
X162636Y-4475D01*
X163548Y-3775D01*
X160433Y-5065D02*
X159400Y-5127D01*
X158382Y-5314D01*
X157394Y-5622D01*
X156450Y-6047D01*
X155564Y-6582D01*
X154750Y-7220D01*
X154018Y-7952D01*
X153379Y-8767D01*
X152844Y-9653D01*
X152419Y-10597D01*
X152111Y-11585D01*
X151925Y-12603D01*
X151862Y-13636D01*
X138500Y-41339D02*
X139499Y-41301D01*
X140491Y-41189D01*
X141473Y-41004D01*
X142439Y-40745D01*
X143382Y-40415D01*
X144298Y-40015D01*
X145181Y-39548D01*
X146027Y-39017D01*
X146831Y-38423D01*
X147589Y-37772D01*
X148295Y-37065D01*
X148947Y-36308D01*
X149540Y-35504D01*
X150072Y-34657D01*
X150539Y-33774D01*
X150938Y-32858D01*
X151269Y-31915D01*
X151527Y-30950D01*
X151713Y-29968D01*
X151825Y-28975D01*
X151862Y-27976D01*
X163548Y-8036D02*
X162636Y-7336D01*
X161573Y-6896D01*
X160433Y-6746D01*
X159453Y-6816D01*
X158492Y-7025D01*
X157571Y-7369D01*
X156708Y-7840D01*
X155921Y-8429D01*
X155226Y-9124D01*
X154637Y-9911D01*
X154166Y-10774D01*
X153822Y-11695D01*
X153613Y-12655D01*
X153543Y-13636D01*
X138500Y-43020D02*
X139484Y-42987D01*
X140464Y-42891D01*
X141435Y-42731D01*
X142394Y-42507D01*
X143335Y-42221D01*
X144257Y-41875D01*
X145153Y-41468D01*
X146022Y-41004D01*
X146858Y-40484D01*
X147658Y-39911D01*
X148419Y-39287D01*
X149137Y-38614D01*
X149810Y-37895D01*
X150435Y-37134D01*
X151008Y-36334D01*
X151528Y-35498D01*
X151992Y-34630D01*
X152398Y-33733D01*
X152745Y-32812D01*
X153031Y-31870D01*
X153254Y-30911D01*
X153415Y-29940D01*
X153511Y-28960D01*
X153543Y-27976D01*
X135079Y-34343D02*
X136048Y-34295D01*
X137009Y-34152D01*
X137951Y-33917D01*
X138865Y-33589D01*
X139743Y-33174D01*
X140575Y-32675D01*
X141355Y-32097D01*
X142075Y-31445D01*
X142727Y-30725D01*
X143305Y-29945D01*
X143804Y-29113D01*
X144219Y-28235D01*
X144546Y-27321D01*
X144782Y-26379D01*
X144925Y-25419D01*
X144973Y-24449D01*
X135079Y-36024D02*
X136088Y-35980D01*
X137089Y-35848D01*
X138075Y-35629D01*
X139038Y-35326D01*
X139971Y-34939D01*
X140866Y-34473D01*
X141718Y-33930D01*
X142519Y-33316D01*
X143263Y-32633D01*
X143946Y-31889D01*
X144560Y-31088D01*
X145103Y-30236D01*
X145569Y-29340D01*
X145956Y-28408D01*
X146259Y-27445D01*
X146478Y-26459D01*
X146609Y-25458D01*
X146653Y-24449D01*
X163548Y3775D02*
X162636Y4475D01*
X161573Y4915D01*
X160433Y5065D01*
X156653D02*
X155673Y5017D01*
X154703Y4873D01*
X153751Y4634D01*
X152827Y4304D01*
X151940Y3884D01*
X151098Y3380D01*
X150310Y2795D01*
X149583Y2136D01*
X148924Y1409D01*
X148339Y621D01*
X147834Y-221D01*
X147415Y-1108D01*
X147084Y-2032D01*
X146846Y-2984D01*
X146702Y-3955D01*
X146653Y-4935D01*
X160433Y6746D02*
X161573Y6896D01*
X162636Y7336D01*
X163548Y8036D01*
X156653Y6746D02*
X155635Y6702D01*
X154625Y6569D01*
X153630Y6348D01*
X152658Y6042D01*
X151717Y5652D01*
X150813Y5181D01*
X149953Y4634D01*
X149145Y4013D01*
X148394Y3325D01*
X147705Y2573D01*
X147085Y1765D01*
X146537Y905D01*
X146067Y2D01*
X145677Y-940D01*
X145370Y-1912D01*
X145150Y-2907D01*
X145017Y-3917D01*
X144973Y-4935D01*
X167323Y-16142D02*
Y-5906D01*
X170276Y-2953D01*
X53476Y-50406D02*
X68590D01*
X53504Y-52087D02*
X68590D01*
X77658Y-43020D02*
X138500Y-43020D01*
X77658Y-41339D02*
X138500Y-41339D01*
X163548Y-3775D02*
X164370Y-2953D01*
X151862Y-27976D02*
Y-13636D01*
X153543Y-27976D02*
Y-13636D01*
X52323Y-49252D02*
X53476Y-50406D01*
X52323Y-53268D02*
X53504Y-52087D01*
X44055Y-53268D02*
X52323D01*
X44055Y-49252D02*
X52323D01*
X44055Y-33189D02*
X52323D01*
X44055Y-37205D02*
X52323D01*
X57470Y-36024D02*
X57470Y-36024D01*
X52323Y-37205D02*
X53504Y-36024D01*
X56774Y-34343D02*
X56774Y-34343D01*
X135079D01*
X57470Y-36024D02*
X135079D01*
X52323Y-33189D02*
X53476Y-34343D01*
X53504Y-36024D02*
X57470D01*
X53476Y-34343D02*
X56774D01*
X156653Y5065D02*
X160433D01*
X146653Y-24449D02*
Y-4935D01*
X163548Y8036D02*
X164370Y8858D01*
X156653Y6746D02*
X160433D01*
X144973Y-24449D02*
Y-4935D01*
X163548Y3775D02*
X164370Y2953D01*
X163548Y-8036D02*
X164370Y-8858D01*
X176181Y-2953D02*
Y-2953D01*
X173228Y0D02*
X176181Y-2953D01*
X96358Y33268D02*
X99902D01*
X122047Y19685D02*
X122047Y19685D01*
X17336Y13D02*
X18728Y1405D01*
X15945Y-1378D02*
X17336Y13D01*
X18728Y1405D02*
X20866D01*
X14173Y-1378D02*
X15945D01*
X20866Y1405D02*
X21358Y1897D01*
Y1969D01*
X13681Y-1870D02*
X14173Y-1378D01*
X13681Y-1969D02*
Y-1870D01*
X120089Y33258D02*
Y37215D01*
X120098Y33248D02*
X129409D01*
X120089Y33258D02*
X120098Y33248D01*
X120089Y37215D02*
X120098Y37224D01*
X79724Y33228D02*
X89035D01*
X79724Y33307D02*
Y37205D01*
Y33228D02*
Y33307D01*
X89075Y25787D02*
X89155Y25868D01*
X89075Y33268D02*
X92224D01*
X129409Y33248D02*
X129449Y33287D01*
X129449D02*
X132598D01*
X129449Y25807D02*
X129529Y25887D01*
X99902Y33268D02*
X99921Y33287D01*
X109232D02*
X109252Y33307D01*
X89035Y33228D02*
X89075Y33268D01*
D33*
X102657Y-5217D02*
D03*
Y-7775D02*
D03*
Y-10335D02*
D03*
Y-12894D02*
D03*
Y-15453D02*
D03*
Y-18012D02*
D03*
Y-20571D02*
D03*
Y-23130D02*
D03*
Y-25689D02*
D03*
Y-28248D02*
D03*
X125689Y-5217D02*
D03*
Y-7775D02*
D03*
Y-10335D02*
D03*
Y-12894D02*
D03*
Y-15453D02*
D03*
Y-18012D02*
D03*
Y-20571D02*
D03*
Y-23130D02*
D03*
Y-25689D02*
D03*
Y-28248D02*
D03*
D34*
X42795Y-69764D02*
D03*
Y-24724D02*
D03*
Y-15669D02*
D03*
Y-78819D02*
D03*
X44055Y-33189D02*
D03*
Y-37205D02*
D03*
Y-41221D02*
D03*
Y-45236D02*
D03*
Y-49252D02*
D03*
Y-53268D02*
D03*
Y-57284D02*
D03*
Y-61299D02*
D03*
Y33189D02*
D03*
Y37205D02*
D03*
Y41221D02*
D03*
Y45236D02*
D03*
Y49252D02*
D03*
Y53268D02*
D03*
Y57284D02*
D03*
Y61299D02*
D03*
X42795Y15669D02*
D03*
Y78819D02*
D03*
Y69764D02*
D03*
Y24724D02*
D03*
D35*
X107382Y14862D02*
D03*
Y12303D02*
D03*
Y9744D02*
D03*
X116043D02*
D03*
Y14862D02*
D03*
D36*
X129409Y33248D02*
D03*
Y29508D02*
D03*
Y25768D02*
D03*
X140236D02*
D03*
Y33248D02*
D03*
X89035Y33228D02*
D03*
Y29488D02*
D03*
Y25748D02*
D03*
X99862D02*
D03*
Y33228D02*
D03*
D37*
X136713Y33268D02*
D03*
X132972D02*
D03*
X96358D02*
D03*
X92618D02*
D03*
X13681Y1969D02*
D03*
X9941D02*
D03*
X25098D02*
D03*
X21358D02*
D03*
Y-1969D02*
D03*
X25098D02*
D03*
X9941D02*
D03*
X13681D02*
D03*
X101772Y16043D02*
D03*
X98032D02*
D03*
X101772Y8563D02*
D03*
X98032D02*
D03*
D38*
X149606Y33307D02*
D03*
Y29685D02*
D03*
X145669Y33307D02*
D03*
Y29685D02*
D03*
X124016Y33307D02*
D03*
Y29685D02*
D03*
X120079Y33307D02*
D03*
Y29685D02*
D03*
X105315Y33307D02*
D03*
Y29685D02*
D03*
X109252Y33307D02*
D03*
Y29685D02*
D03*
X83661Y33307D02*
D03*
Y29685D02*
D03*
X79724Y33307D02*
D03*
Y29685D02*
D03*
X192421Y-1811D02*
D03*
Y1811D02*
D03*
D39*
X211614Y5512D02*
D03*
Y-5512D02*
D03*
D40*
X201772Y-4724D02*
D03*
Y4724D02*
D03*
D41*
X82846Y-169D02*
D03*
X74634Y8043D02*
D03*
D42*
X83194Y8391D02*
D03*
D43*
X161575Y22638D02*
D03*
X165197D02*
D03*
X161575Y-26575D02*
D03*
X165197D02*
D03*
X161575Y18701D02*
D03*
X165197D02*
D03*
X161575Y-30512D02*
D03*
X165197D02*
D03*
X161575Y-22638D02*
D03*
X165197D02*
D03*
X161575Y-18701D02*
D03*
X165197D02*
D03*
X109901Y19685D02*
D03*
X113523D02*
D03*
X115984Y-984D02*
D03*
X112362D02*
D03*
D44*
X93996Y12303D02*
D03*
Y16043D02*
D03*
Y12303D02*
D03*
Y8563D02*
D03*
D45*
X181626Y-35591D02*
X181980Y-35236D01*
X161575Y-35591D02*
X181626D01*
X181980Y-35236D02*
X182087D01*
X149606Y29685D02*
X161575D01*
Y18701D02*
Y29685D01*
X175827D01*
X182087Y8858D02*
Y23425D01*
X175827Y29685D02*
X182087Y23425D01*
Y-35236D02*
Y-8858D01*
X161575Y-35591D02*
Y-30512D01*
Y-22638D02*
Y-18701D01*
Y-26575D02*
Y-22638D01*
Y-30512D02*
Y-26575D01*
X140295Y33307D02*
X149606D01*
X136713Y33268D02*
X140256D01*
X165197Y18701D02*
Y22638D01*
X173122Y19685D02*
X173228D01*
X165197Y18701D02*
X172138D01*
X173122Y19685D01*
X149606Y33307D02*
X154024D01*
X99921Y33287D02*
X109232D01*
X116043Y19685D02*
X122047D01*
X113523D02*
X116043D01*
X149606Y33307D02*
X149606Y33307D01*
X111870D02*
X113523Y31654D01*
Y19685D02*
Y31654D01*
X109252Y33307D02*
X111870D01*
X140276Y33287D02*
X140295Y33307D01*
D46*
X4961Y-16417D02*
D03*
Y-78071D02*
D03*
Y16417D02*
D03*
Y78071D02*
D03*
D47*
X68898Y86614D02*
D03*
Y-86614D02*
D03*
X202756Y-32480D02*
D03*
Y32480D02*
D03*
D48*
X182087Y-35236D02*
D03*
X161575Y-35591D02*
D03*
Y29685D02*
D03*
X154024Y33307D02*
D03*
X167323Y-16142D02*
D03*
X173228Y19685D02*
D03*
X156496Y0D02*
D03*
X138779D02*
D03*
X122047Y19685D02*
D03*
X173228Y0D02*
D03*
X179134D02*
D03*
X134843Y-12894D02*
D03*
X53150Y27559D02*
D03*
X24094Y24724D02*
D03*
Y30394D02*
D03*
X53150Y19685D02*
D03*
X51575Y-8661D02*
D03*
X21358D02*
D03*
X17336Y13D02*
D03*
X13681Y8681D02*
D03*
X31811Y1969D02*
D03*
X120098Y37224D02*
D03*
X79724Y37205D02*
D03*
X31811Y24724D02*
D03*
X27953Y27559D02*
D03*
X33071Y57284D02*
D03*
Y37205D02*
D03*
Y33189D02*
D03*
X82793Y15992D02*
D03*
X134843Y-23130D02*
D03*
Y-28248D02*
D03*
X170276Y-23130D02*
D03*
X176181Y-28248D02*
D03*
X105315Y5413D02*
D03*
X101772Y19587D02*
D03*
X145689Y25610D02*
D03*
X124035D02*
D03*
X83661Y25591D02*
D03*
X105315D02*
D03*
X70866Y11811D02*
D03*
X202756Y-23031D02*
D03*
X196063Y-25787D02*
D03*
X193307Y-32480D02*
D03*
X196063Y-39173D02*
D03*
X202756Y-41929D02*
D03*
X209449Y-39173D02*
D03*
Y-25787D02*
D03*
X212205Y-32480D02*
D03*
X202756Y41929D02*
D03*
X196063Y39173D02*
D03*
X193307Y32480D02*
D03*
X196063Y25787D02*
D03*
X202756Y23031D02*
D03*
X209449Y25787D02*
D03*
Y39173D02*
D03*
X212205Y32480D02*
D03*
X120079Y-984D02*
D03*
X130905Y-7677D02*
D03*
X97146Y-28248D02*
D03*
X68898Y-77165D02*
D03*
X62205Y-79921D02*
D03*
X59449Y-86614D02*
D03*
X62205Y-93307D02*
D03*
X68898Y-96063D02*
D03*
X75590Y-93307D02*
D03*
Y-79921D02*
D03*
X78347Y-86614D02*
D03*
Y86614D02*
D03*
X75590Y93307D02*
D03*
Y79921D02*
D03*
X68898Y77165D02*
D03*
X62205Y79921D02*
D03*
X59449Y86614D02*
D03*
X62205Y93307D02*
D03*
X68898Y96063D02*
D03*
M02*
