G04*
G04 #@! TF.GenerationSoftware,Altium Limited,Altium Designer,23.9.2 (47)*
G04*
G04 Layer_Color=8421504*
%FSLAX25Y25*%
%MOIN*%
G70*
G04*
G04 #@! TF.SameCoordinates,401DFDD2-2C6D-4DC6-8BE5-0435FED1B9C0*
G04*
G04*
G04 #@! TF.FilePolarity,Positive*
G04*
G01*
G75*
%ADD13R,0.01181X0.02362*%
G04:AMPARAMS|DCode=20|XSize=39.37mil|YSize=41.34mil|CornerRadius=0mil|HoleSize=0mil|Usage=FLASHONLY|Rotation=45.000|XOffset=0mil|YOffset=0mil|HoleType=Round|Shape=Rectangle|*
%AMROTATEDRECTD20*
4,1,4,0.00070,-0.02854,-0.02854,0.00070,-0.00070,0.02854,0.02854,-0.00070,0.00070,-0.02854,0.0*
%
%ADD20ROTATEDRECTD20*%

G04:AMPARAMS|DCode=21|XSize=39.37mil|YSize=41.34mil|CornerRadius=0mil|HoleSize=0mil|Usage=FLASHONLY|Rotation=135.000|XOffset=0mil|YOffset=0mil|HoleType=Round|Shape=Rectangle|*
%AMROTATEDRECTD21*
4,1,4,0.02854,0.00070,-0.00070,-0.02854,-0.02854,-0.00070,0.00070,0.02854,0.02854,0.00070,0.0*
%
%ADD21ROTATEDRECTD21*%

%ADD22R,0.03740X0.03347*%
%ADD23R,0.03937X0.04134*%
D13*
X85728Y78740D02*
D03*
X88287D02*
D03*
X52067D02*
D03*
X49508D02*
D03*
X16831D02*
D03*
X19390D02*
D03*
X-16831D02*
D03*
X-19390D02*
D03*
X-52067D02*
D03*
X-49508D02*
D03*
X-85728D02*
D03*
X-88287D02*
D03*
X-52067Y9843D02*
D03*
X-49508D02*
D03*
X-85728D02*
D03*
X-88287D02*
D03*
X16831Y9843D02*
D03*
X19390D02*
D03*
X-16831D02*
D03*
X-19390D02*
D03*
X85728D02*
D03*
X88287D02*
D03*
X52067D02*
D03*
X49508D02*
D03*
X85728Y-59055D02*
D03*
X88287D02*
D03*
X52067D02*
D03*
X49508D02*
D03*
X16831D02*
D03*
X19390D02*
D03*
X-16831D02*
D03*
X-19390D02*
D03*
X-52067D02*
D03*
X-49508D02*
D03*
X-85728D02*
D03*
X-88287D02*
D03*
D20*
X87008Y67323D02*
D03*
X91184Y63147D02*
D03*
X78621Y87521D02*
D03*
X82797Y83345D02*
D03*
X82558Y91458D02*
D03*
X86734Y87282D02*
D03*
X18110Y67323D02*
D03*
X22286Y63147D02*
D03*
X9723Y87521D02*
D03*
X13899Y83345D02*
D03*
X13660Y91458D02*
D03*
X17836Y87282D02*
D03*
X-50787Y67323D02*
D03*
X-46612Y63147D02*
D03*
X-59175Y87521D02*
D03*
X-54999Y83345D02*
D03*
X-55238Y91458D02*
D03*
X-51062Y87282D02*
D03*
X-50787Y-1575D02*
D03*
X-46612Y-5751D02*
D03*
X-59175Y18623D02*
D03*
X-54999Y14447D02*
D03*
X-55238Y22560D02*
D03*
X-51062Y18384D02*
D03*
X18110Y-1575D02*
D03*
X22286Y-5751D02*
D03*
X9723Y18623D02*
D03*
X13899Y14447D02*
D03*
X13660Y22560D02*
D03*
X17836Y18384D02*
D03*
X87008Y-1575D02*
D03*
X91184Y-5751D02*
D03*
X78621Y18623D02*
D03*
X82797Y14447D02*
D03*
X82558Y22560D02*
D03*
X86734Y18384D02*
D03*
X87008Y-70472D02*
D03*
X91184Y-74648D02*
D03*
X78621Y-50274D02*
D03*
X82797Y-54450D02*
D03*
X82558Y-46337D02*
D03*
X86734Y-50513D02*
D03*
X18110Y-70472D02*
D03*
X22286Y-74648D02*
D03*
X9723Y-50274D02*
D03*
X13899Y-54450D02*
D03*
X13660Y-46337D02*
D03*
X17836Y-50513D02*
D03*
X-50787Y-70472D02*
D03*
X-46612Y-74648D02*
D03*
X-59175Y-50274D02*
D03*
X-54999Y-54450D02*
D03*
X-55238Y-46337D02*
D03*
X-51062Y-50513D02*
D03*
D21*
X59252Y87521D02*
D03*
X50787Y67323D02*
D03*
X46612Y63147D02*
D03*
X55238Y91458D02*
D03*
X51062Y87282D02*
D03*
X54999Y83345D02*
D03*
X-9646Y87521D02*
D03*
X-18110Y67323D02*
D03*
X-22286Y63147D02*
D03*
X-13660Y91458D02*
D03*
X-17836Y87282D02*
D03*
X-13899Y83345D02*
D03*
X-78543Y87521D02*
D03*
X-87008Y67323D02*
D03*
X-91184Y63147D02*
D03*
X-82558Y91458D02*
D03*
X-86734Y87282D02*
D03*
X-82797Y83345D02*
D03*
X-78543Y18623D02*
D03*
X-87008Y-1575D02*
D03*
X-91184Y-5751D02*
D03*
X-82558Y22560D02*
D03*
X-86734Y18384D02*
D03*
X-82797Y14447D02*
D03*
X-9646Y18623D02*
D03*
X-18110Y-1575D02*
D03*
X-22286Y-5751D02*
D03*
X-13660Y22560D02*
D03*
X-17836Y18384D02*
D03*
X-13899Y14447D02*
D03*
X59252Y18623D02*
D03*
X50787Y-1575D02*
D03*
X46612Y-5751D02*
D03*
X55238Y22560D02*
D03*
X51062Y18384D02*
D03*
X54999Y14447D02*
D03*
X59252Y-50274D02*
D03*
X50787Y-70472D02*
D03*
X46612Y-74648D02*
D03*
X55238Y-46337D02*
D03*
X51062Y-50513D02*
D03*
X54999Y-54450D02*
D03*
X-9646Y-50274D02*
D03*
X-18110Y-70472D02*
D03*
X-22286Y-74648D02*
D03*
X-13660Y-46337D02*
D03*
X-17836Y-50513D02*
D03*
X-13899Y-54450D02*
D03*
X-78543Y-50274D02*
D03*
X-87008Y-70472D02*
D03*
X-91184Y-74648D02*
D03*
X-82558Y-46337D02*
D03*
X-86734Y-50513D02*
D03*
X-82797Y-54450D02*
D03*
D22*
X50787Y49902D02*
D03*
Y43799D02*
D03*
X-18110Y49902D02*
D03*
Y43799D02*
D03*
X-87008Y49902D02*
D03*
Y43799D02*
D03*
Y-18996D02*
D03*
Y-25098D02*
D03*
X-18110Y-18996D02*
D03*
Y-25098D02*
D03*
X50787Y-18996D02*
D03*
Y-25098D02*
D03*
Y-87894D02*
D03*
Y-93996D02*
D03*
X-18110Y-87894D02*
D03*
Y-93996D02*
D03*
X-87008Y-87894D02*
D03*
Y-93996D02*
D03*
D23*
X87008Y49803D02*
D03*
Y43898D02*
D03*
X77953Y49803D02*
D03*
Y43898D02*
D03*
X59842Y49803D02*
D03*
Y43898D02*
D03*
X18110Y49803D02*
D03*
Y43898D02*
D03*
X9055Y49803D02*
D03*
Y43898D02*
D03*
X-9055Y49803D02*
D03*
Y43898D02*
D03*
X-50787Y49803D02*
D03*
Y43898D02*
D03*
X-59842Y49803D02*
D03*
Y43898D02*
D03*
X-77953Y49803D02*
D03*
Y43898D02*
D03*
X-50787Y-19094D02*
D03*
Y-25000D02*
D03*
X-59842Y-19094D02*
D03*
Y-25000D02*
D03*
X-77953Y-19094D02*
D03*
Y-25000D02*
D03*
X18110Y-19094D02*
D03*
Y-25000D02*
D03*
X9055Y-19094D02*
D03*
Y-25000D02*
D03*
X-9055Y-19094D02*
D03*
Y-25000D02*
D03*
X87008Y-19094D02*
D03*
Y-25000D02*
D03*
X77953Y-19094D02*
D03*
Y-25000D02*
D03*
X59842Y-19094D02*
D03*
Y-25000D02*
D03*
X87008Y-87992D02*
D03*
Y-93898D02*
D03*
X77953Y-87992D02*
D03*
Y-93898D02*
D03*
X59842Y-87992D02*
D03*
Y-93898D02*
D03*
X18110Y-87992D02*
D03*
Y-93898D02*
D03*
X9055Y-87992D02*
D03*
Y-93898D02*
D03*
X-9055Y-87992D02*
D03*
Y-93898D02*
D03*
X-50787Y-87992D02*
D03*
Y-93898D02*
D03*
X-59842Y-87992D02*
D03*
Y-93898D02*
D03*
X-77953Y-87992D02*
D03*
Y-93898D02*
D03*
M02*
