G04*
G04 #@! TF.GenerationSoftware,Altium Limited,Altium Designer,23.9.2 (47)*
G04*
G04 Layer_Color=16711935*
%FSLAX25Y25*%
%MOIN*%
G70*
G04*
G04 #@! TF.SameCoordinates,DB150F01-C1B0-45C9-8F7E-E1995157BF99*
G04*
G04*
G04 #@! TF.FilePolarity,Negative*
G04*
G01*
G75*
%ADD33C,0.04724*%
%ADD40C,0.02268*%
D33*
X73425Y64370D02*
D03*
X46260Y91536D02*
D03*
X55315D02*
D03*
X64370D02*
D03*
X73425D02*
D03*
X82480D02*
D03*
X91535D02*
D03*
X46260Y82480D02*
D03*
X55315D02*
D03*
X64370D02*
D03*
X73425D02*
D03*
X82480D02*
D03*
X91535D02*
D03*
X46260Y73425D02*
D03*
X55315D02*
D03*
X64370D02*
D03*
X73425D02*
D03*
X82480D02*
D03*
X91535D02*
D03*
X46260Y64370D02*
D03*
X55315D02*
D03*
X64370D02*
D03*
X82480D02*
D03*
X91535D02*
D03*
X46260Y55315D02*
D03*
X55315D02*
D03*
X64370D02*
D03*
X73425D02*
D03*
X82480D02*
D03*
X91535D02*
D03*
X46260Y46260D02*
D03*
X55315D02*
D03*
X64370D02*
D03*
X73425D02*
D03*
X82480D02*
D03*
X91535D02*
D03*
X4528Y64370D02*
D03*
X-22638Y91536D02*
D03*
X-13583D02*
D03*
X-4528D02*
D03*
X4528D02*
D03*
X13583D02*
D03*
X22638D02*
D03*
X-22638Y82480D02*
D03*
X-13583D02*
D03*
X-4528D02*
D03*
X4528D02*
D03*
X13583D02*
D03*
X22638D02*
D03*
X-22638Y73425D02*
D03*
X-13583D02*
D03*
X-4528D02*
D03*
X4528D02*
D03*
X13583D02*
D03*
X22638D02*
D03*
X-22638Y64370D02*
D03*
X-13583D02*
D03*
X-4528D02*
D03*
X13583D02*
D03*
X22638D02*
D03*
X-22638Y55315D02*
D03*
X-13583D02*
D03*
X-4528D02*
D03*
X4528D02*
D03*
X13583D02*
D03*
X22638D02*
D03*
X-22638Y46260D02*
D03*
X-13583D02*
D03*
X-4528D02*
D03*
X4528D02*
D03*
X13583D02*
D03*
X22638D02*
D03*
X-64370Y64370D02*
D03*
X-91535Y91536D02*
D03*
X-82480D02*
D03*
X-73425D02*
D03*
X-64370D02*
D03*
X-55315D02*
D03*
X-46260D02*
D03*
X-91535Y82480D02*
D03*
X-82480D02*
D03*
X-73425D02*
D03*
X-64370D02*
D03*
X-55315D02*
D03*
X-46260D02*
D03*
X-91535Y73425D02*
D03*
X-82480D02*
D03*
X-73425D02*
D03*
X-64370D02*
D03*
X-55315D02*
D03*
X-46260D02*
D03*
X-91535Y64370D02*
D03*
X-82480D02*
D03*
X-73425D02*
D03*
X-55315D02*
D03*
X-46260D02*
D03*
X-91535Y55315D02*
D03*
X-82480D02*
D03*
X-73425D02*
D03*
X-64370D02*
D03*
X-55315D02*
D03*
X-46260D02*
D03*
X-91535Y46260D02*
D03*
X-82480D02*
D03*
X-73425D02*
D03*
X-64370D02*
D03*
X-55315D02*
D03*
X-46260D02*
D03*
X-64370Y-4527D02*
D03*
X-91535Y22638D02*
D03*
X-82480D02*
D03*
X-73425D02*
D03*
X-64370D02*
D03*
X-55315D02*
D03*
X-46260D02*
D03*
X-91535Y13583D02*
D03*
X-82480D02*
D03*
X-73425D02*
D03*
X-64370D02*
D03*
X-55315D02*
D03*
X-46260D02*
D03*
X-91535Y4528D02*
D03*
X-82480D02*
D03*
X-73425D02*
D03*
X-64370D02*
D03*
X-55315D02*
D03*
X-46260D02*
D03*
X-91535Y-4527D02*
D03*
X-82480D02*
D03*
X-73425D02*
D03*
X-55315D02*
D03*
X-46260D02*
D03*
X-91535Y-13583D02*
D03*
X-82480D02*
D03*
X-73425D02*
D03*
X-64370D02*
D03*
X-55315D02*
D03*
X-46260D02*
D03*
X-91535Y-22638D02*
D03*
X-82480D02*
D03*
X-73425D02*
D03*
X-64370D02*
D03*
X-55315D02*
D03*
X-46260D02*
D03*
X4528Y-4528D02*
D03*
X-22638Y22638D02*
D03*
X-13583D02*
D03*
X-4528D02*
D03*
X4528D02*
D03*
X13583D02*
D03*
X22638D02*
D03*
X-22638Y13583D02*
D03*
X-13583D02*
D03*
X-4528D02*
D03*
X4528D02*
D03*
X13583D02*
D03*
X22638D02*
D03*
X-22638Y4528D02*
D03*
X-13583D02*
D03*
X-4528D02*
D03*
X4528D02*
D03*
X13583D02*
D03*
X22638D02*
D03*
X-22638Y-4528D02*
D03*
X-13583D02*
D03*
X-4528D02*
D03*
X13583D02*
D03*
X22638D02*
D03*
X-22638Y-13583D02*
D03*
X-13583D02*
D03*
X-4528D02*
D03*
X4528D02*
D03*
X13583D02*
D03*
X22638D02*
D03*
X-22638Y-22638D02*
D03*
X-13583D02*
D03*
X-4528D02*
D03*
X4528D02*
D03*
X13583D02*
D03*
X22638D02*
D03*
X73425Y-4528D02*
D03*
X46260Y22638D02*
D03*
X55315D02*
D03*
X64370D02*
D03*
X73425D02*
D03*
X82480D02*
D03*
X91535D02*
D03*
X46260Y13583D02*
D03*
X55315D02*
D03*
X64370D02*
D03*
X73425D02*
D03*
X82480D02*
D03*
X91535D02*
D03*
X46260Y4528D02*
D03*
X55315D02*
D03*
X64370D02*
D03*
X73425D02*
D03*
X82480D02*
D03*
X91535D02*
D03*
X46260Y-4528D02*
D03*
X55315D02*
D03*
X64370D02*
D03*
X82480D02*
D03*
X91535D02*
D03*
X46260Y-13583D02*
D03*
X55315D02*
D03*
X64370D02*
D03*
X73425D02*
D03*
X82480D02*
D03*
X91535D02*
D03*
X46260Y-22638D02*
D03*
X55315D02*
D03*
X64370D02*
D03*
X73425D02*
D03*
X82480D02*
D03*
X91535D02*
D03*
X73425Y-73425D02*
D03*
X46260Y-46260D02*
D03*
X55315D02*
D03*
X64370D02*
D03*
X73425D02*
D03*
X82480D02*
D03*
X91535D02*
D03*
X46260Y-55315D02*
D03*
X55315D02*
D03*
X64370D02*
D03*
X73425D02*
D03*
X82480D02*
D03*
X91535D02*
D03*
X46260Y-64370D02*
D03*
X55315D02*
D03*
X64370D02*
D03*
X73425D02*
D03*
X82480D02*
D03*
X91535D02*
D03*
X46260Y-73425D02*
D03*
X55315D02*
D03*
X64370D02*
D03*
X82480D02*
D03*
X91535D02*
D03*
X46260Y-82480D02*
D03*
X55315D02*
D03*
X64370D02*
D03*
X73425D02*
D03*
X82480D02*
D03*
X91535D02*
D03*
X46260Y-91535D02*
D03*
X55315D02*
D03*
X64370D02*
D03*
X73425D02*
D03*
X82480D02*
D03*
X91535D02*
D03*
X4528Y-73425D02*
D03*
X-22638Y-46260D02*
D03*
X-13583D02*
D03*
X-4528D02*
D03*
X4528D02*
D03*
X13583D02*
D03*
X22638D02*
D03*
X-22638Y-55315D02*
D03*
X-13583D02*
D03*
X-4528D02*
D03*
X4528D02*
D03*
X13583D02*
D03*
X22638D02*
D03*
X-22638Y-64370D02*
D03*
X-13583D02*
D03*
X-4528D02*
D03*
X4528D02*
D03*
X13583D02*
D03*
X22638D02*
D03*
X-22638Y-73425D02*
D03*
X-13583D02*
D03*
X-4528D02*
D03*
X13583D02*
D03*
X22638D02*
D03*
X-22638Y-82480D02*
D03*
X-13583D02*
D03*
X-4528D02*
D03*
X4528D02*
D03*
X13583D02*
D03*
X22638D02*
D03*
X-22638Y-91535D02*
D03*
X-13583D02*
D03*
X-4528D02*
D03*
X4528D02*
D03*
X13583D02*
D03*
X22638D02*
D03*
X-64370Y-73425D02*
D03*
X-91535Y-46260D02*
D03*
X-82480D02*
D03*
X-73425D02*
D03*
X-64370D02*
D03*
X-55315D02*
D03*
X-46260D02*
D03*
X-91535Y-55315D02*
D03*
X-82480D02*
D03*
X-73425D02*
D03*
X-64370D02*
D03*
X-55315D02*
D03*
X-46260D02*
D03*
X-91535Y-64370D02*
D03*
X-82480D02*
D03*
X-73425D02*
D03*
X-64370D02*
D03*
X-55315D02*
D03*
X-46260D02*
D03*
X-91535Y-73425D02*
D03*
X-82480D02*
D03*
X-73425D02*
D03*
X-55315D02*
D03*
X-46260D02*
D03*
X-91535Y-82480D02*
D03*
X-82480D02*
D03*
X-73425D02*
D03*
X-64370D02*
D03*
X-55315D02*
D03*
X-46260D02*
D03*
X-91535Y-91535D02*
D03*
X-82480D02*
D03*
X-73425D02*
D03*
X-64370D02*
D03*
X-55315D02*
D03*
X-46260D02*
D03*
D40*
X82480Y55315D02*
D03*
X91536D02*
D03*
X55315D02*
D03*
X46260Y46260D02*
D03*
Y73425D02*
D03*
X64370Y91536D02*
D03*
X73425D02*
D03*
X91536Y73425D02*
D03*
X46260Y91536D02*
D03*
X55315D02*
D03*
X46260Y82480D02*
D03*
X91536D02*
D03*
X82480Y91536D02*
D03*
X91536D02*
D03*
X13583Y55315D02*
D03*
X22638D02*
D03*
X-13583D02*
D03*
X-22638Y46260D02*
D03*
Y73425D02*
D03*
X-4528Y91536D02*
D03*
X4528D02*
D03*
X22638Y73425D02*
D03*
X-22638Y91536D02*
D03*
X-13583D02*
D03*
X-22638Y82480D02*
D03*
X22638D02*
D03*
X13583Y91536D02*
D03*
X22638D02*
D03*
X-55315Y55315D02*
D03*
X-46260D02*
D03*
X-82480D02*
D03*
X-91535Y46260D02*
D03*
Y73425D02*
D03*
X-73425Y91536D02*
D03*
X-64370D02*
D03*
X-46260Y73425D02*
D03*
X-91535Y91536D02*
D03*
X-82480D02*
D03*
X-91535Y82480D02*
D03*
X-46260D02*
D03*
X-55315Y91536D02*
D03*
X-46260D02*
D03*
X-55315Y-13583D02*
D03*
X-46260D02*
D03*
X-82480D02*
D03*
X-91535Y-22638D02*
D03*
Y4528D02*
D03*
X-73425Y22638D02*
D03*
X-64370D02*
D03*
X-46260Y4528D02*
D03*
X-91535Y22638D02*
D03*
X-82480D02*
D03*
X-91535Y13583D02*
D03*
X-46260D02*
D03*
X-55315Y22638D02*
D03*
X-46260D02*
D03*
X13583Y-13583D02*
D03*
X22638D02*
D03*
X-13583D02*
D03*
X-22638Y-22638D02*
D03*
Y4528D02*
D03*
X-4528Y22638D02*
D03*
X4528D02*
D03*
X22638Y4528D02*
D03*
X-22638Y22638D02*
D03*
X-13583D02*
D03*
X-22638Y13583D02*
D03*
X22638D02*
D03*
X13583Y22638D02*
D03*
X22638D02*
D03*
X82480Y-13583D02*
D03*
X91536D02*
D03*
X55315D02*
D03*
X46260Y-22638D02*
D03*
Y4528D02*
D03*
X64370Y22638D02*
D03*
X73425D02*
D03*
X91536Y4528D02*
D03*
X46260Y22638D02*
D03*
X55315D02*
D03*
X46260Y13583D02*
D03*
X91536D02*
D03*
X82480Y22638D02*
D03*
X91536D02*
D03*
X82480Y-82480D02*
D03*
X91536D02*
D03*
X55315D02*
D03*
X46260Y-91535D02*
D03*
Y-64370D02*
D03*
X64370Y-46260D02*
D03*
X73425D02*
D03*
X91536Y-64370D02*
D03*
X46260Y-46260D02*
D03*
X55315D02*
D03*
X46260Y-55315D02*
D03*
X91536D02*
D03*
X82480Y-46260D02*
D03*
X91536D02*
D03*
X13583Y-82480D02*
D03*
X22638D02*
D03*
X-13583D02*
D03*
X-22638Y-91535D02*
D03*
Y-64370D02*
D03*
X-4528Y-46260D02*
D03*
X4528D02*
D03*
X22638Y-64370D02*
D03*
X-22638Y-46260D02*
D03*
X-13583D02*
D03*
X-22638Y-55315D02*
D03*
X22638D02*
D03*
X13583Y-46260D02*
D03*
X22638D02*
D03*
X-55315Y-82480D02*
D03*
X-46260D02*
D03*
X-82480D02*
D03*
X-91535Y-91535D02*
D03*
Y-64370D02*
D03*
X-73425Y-46260D02*
D03*
X-64370D02*
D03*
X-46260Y-64370D02*
D03*
X-91535Y-46260D02*
D03*
X-82480D02*
D03*
X-91535Y-55315D02*
D03*
X-46260D02*
D03*
X-55315Y-46260D02*
D03*
X-46260D02*
D03*
M02*
